<svg xmlns="http://www.w3.org/2000/svg" xmlns:xlink="http://www.w3.org/1999/xlink" width="308.84" height="308.84" viewBox="0 0 308.84 308.84"><defs><style>.a{fill:none;}.b{clip-path:url(#a);}.c{fill:#516ea0;}.d{fill:#d1ff00;}.e{fill:#49dbcb;}.f{fill:#51d5cc;}.g{fill:#97e6e0;}.h{fill:#9dbd00;}.i{fill:#d8e599;}.j{fill:url(#b);}.k{fill:url(#c);}.l{fill:url(#d);}</style><clipPath id="a"><rect class="a" width="308.84" height="308.84"/></clipPath><radialGradient id="b" cx="138.594" cy="129.677" r="91.118" gradientTransform="translate(6.095 5.42) scale(0.91 0.91)" gradientUnits="userSpaceOnUse"><stop offset="0" stop-color="#fff" stop-opacity="0"/><stop offset="1" stop-color="#7edbff" stop-opacity="0.2"/></radialGradient><radialGradient id="c" cx="154.42" cy="154.42" r="154.42" gradientUnits="userSpaceOnUse"><stop offset="0" stop-color="#fff" stop-opacity="0"/><stop offset="1" stop-color="#f8b62d" stop-opacity="0.302"/></radialGradient><radialGradient id="d" cx="127.06" cy="127.06" r="127.06" gradientUnits="userSpaceOnUse"><stop offset="0" stop-color="#fff" stop-opacity="0"/><stop offset="1" stop-color="#f8b62d" stop-opacity="0.2"/></radialGradient></defs><g class="b"><path class="c" d="M91.18,215.34v.68c0,18.58,30.21,33.65,67.48,33.65,35,0,63.73-13.26,67.15-30.25-16.06,6.72-40.11-2.73-63.37-2.61C133.32,217,107.46,224.3,91.18,215.34Z"/><circle class="d" cx="14.85" cy="14.85" r="14.85" transform="translate(142.62 215.22)"/><circle class="d" cx="14.85" cy="14.85" r="14.85" transform="translate(207.15 204.53)"/><circle class="d" cx="14.85" cy="14.85" r="14.85" transform="translate(76.51 204.53)"/><path class="e" d="M166,139.31a32.08,32.08,0,0,0,9.22-19,31,31,0,0,0-1.63-13.56h0l2.17-1.63A63.171,63.171,0,0,1,179,120.34c.66,7.61,1.39,15.93-3.26,19C174.81,139.92,171.91,141.46,166,139.31Z"/><path class="e" d="M143.86,130.6a32,32,0,0,1-9.22-19,31,31,0,0,1,1.62-13.56h0l-2.16-1.63a62.69,62.69,0,0,0-3.26,15.19c-.66,7.61-1.39,15.94,3.26,19C135,131.21,137.93,132.75,143.86,130.6Z"/><path class="f" d="M63.45,198.2c2.3-13.8,56-25.29,92.64-26.13,44.26-1,93.42,12.67,95.8,26.92,2.09,12.52-43.59,32.24-93,32.47C107.77,231.69,61.07,212.45,63.45,198.2Z"/><path class="g" d="M95.22,197.51C96.94,187.2,137,178.63,164.4,178c33.06-.75,69.78,9.46,71.55,20.11,1.56,9.34-32.55,24.07-69.48,24.24C128.32,222.52,93.44,208.16,95.22,197.51Z"/><path class="c" d="M114.91,197c1-6.27,25.4-11.48,42-11.86,20.08-.46,42.39,5.75,43.47,12.22,1,5.68-19.78,14.63-42.22,14.73C135,212.16,113.83,203.43,114.91,197Z"/><path class="h" d="M128.37,128.92c-15.76,10.33-13.46,15.44-13.85,19-1.17,10.49,3,24.47,11.87,32.46,13.45,12.11,35.73,11.11,50.28.79,9.48-6.73,21.17-21.31,17-36.82-5.22-19.53-36.81-23.75-44.73-23.75C147,120.61,139.85,121.4,128.37,128.92Z"/><circle class="h" cx="5.11" cy="5.11" r="5.11" transform="translate(168.74 99.23)"/><circle class="h" cx="5.11" cy="5.11" r="5.11" transform="translate(130.88 90.52)"/><path class="i" d="M160.58,175.85a55.39,55.39,0,0,1-17.57.47c-7.52-1.29-14.64-12.49-14.64-20.93v-6c0-8.45,6.23-15.36,13.84-15.36H166.4c7.61,0,13.83,6.91,13.83,15.36v6C180.23,163.83,168.09,174.47,160.58,175.85Z"/><circle cx="2.02" cy="2.02" r="2.02" transform="translate(161.55 147.53)"/><circle cx="2.02" cy="2.02" r="2.02" transform="translate(140.25 147.53)"/><path d="M162.3,164.69c-.56,2.48-5.29,3.44-8.36,3.41-3.61,0-7-1.6-7.5-2.68s1.47-2.13,1.73-2.2c2.14-.6,3.61,1.18,5.74,1.29,4,.21,6.17-3.21,7.71-2.13a2.33,2.33,0,0,1,.68,2.31Z"/><path class="h" d="M147.77,122.59a6.42,6.42,0,0,0,1.19-4.75,6.31,6.31,0,0,0-2.38-4,6.39,6.39,0,0,1,4.36,2.37,5.58,5.58,0,0,1,.79,1.59,2.15,2.15,0,0,0,1.58-2,2.1,2.1,0,0,0-.79-1.58,3.86,3.86,0,0,1,2.38,2.37,3.57,3.57,0,0,1,0,2,2.26,2.26,0,0,0,2.37-1.58,2.1,2.1,0,0,0-.39-1.59,4.91,4.91,0,0,1,1.58,7.13Z"/><path class="h" d="M142,210.74a97,97,0,0,0,16.2,1.32,91.56,91.56,0,0,0,14.59-1.27l-9.18-28-13.86.4Z"/><path class="h" d="M163.6,187.79c1,.17,11.63,2.07,16.14,11.69a20.66,20.66,0,0,1,1.38,13c-.59,0-2.33-2-2.92-2.08.18-1.12,1.31-5.3-3.92-11.69-4.92-6-10.68-7.87-11.87-8C162.8,189.76,163.2,188.77,163.6,187.79Z"/><ellipse class="h" cx="2.81" cy="2.57" rx="2.81" ry="2.57" transform="matrix(0.486, -0.874, 0.874, 0.486, 176.705, 211.109)"/><path class="h" d="M153.25,188.58c-1,.17-11.63,2.07-16.15,11.7a20.68,20.68,0,0,0-1.37,13c.59,0,2.33-2.05,2.92-2.07-.19-1.12-1.31-5.31,3.91-11.7,4.93-6,10.68-7.87,11.88-8Z"/><ellipse class="h" cx="2.57" cy="2.81" rx="2.57" ry="2.81" transform="matrix(0.874, -0.486, 0.486, 0.874, 132.92, 209.491)"/><path class="j" d="M199.43,222.78c-31.15,5.83-50.84,7.43-87.12-2.64-28.51-7.92-41.18-19.06-41.18-21.41V150a80.58,80.58,0,0,1,80.35-80.35h12.74A80.58,80.58,0,0,1,244.57,150v48.71C244.57,201.08,233.22,216.44,199.43,222.78Z"/><circle class="k" cx="154.42" cy="154.42" r="154.42"/><circle class="l" cx="127.06" cy="127.06" r="127.06" transform="translate(27.36 27.36)"/></g></svg>