<svg xmlns="http://www.w3.org/2000/svg" xmlns:xlink="http://www.w3.org/1999/xlink" width="228.5" height="228.5" viewBox="0 0 228.5 228.5"><defs><style>.a{fill:url(#a);}.b{fill:url(#b);}.c{fill:url(#c);}.d{fill:url(#d);}</style><linearGradient id="a" x1="-19.075" y1="-12.637" x2="-19.075" y2="-11.642" gradientUnits="objectBoundingBox"><stop offset="0" stop-color="#e95513"/><stop offset="1" stop-color="#f29600"/></linearGradient><linearGradient id="b" x1="-23.199" y1="-15.299" x2="-23.199" y2="-14.304" xlink:href="#a"/><linearGradient id="c" x1="-25.176" y1="-16.647" x2="-25.176" y2="-15.564" gradientUnits="objectBoundingBox"><stop offset="0" stop-color="#f7b52c"/><stop offset="1" stop-color="#dadf00"/></linearGradient><linearGradient id="d" x1="-17.329" y1="-8.783" x2="-16.181" y2="-8.783" xlink:href="#a"/></defs><g transform="translate(51.55 28.48)"><circle class="a" cx="54.25" cy="54.25" r="54.25" transform="translate(8.45 31.52)"/><circle class="b" cx="44.81" cy="44.81" r="44.81" transform="translate(17.89 40.96)"/><path class="c" d="M97,57a44.75,44.75,0,0,1-9.91,66.37,4.09,4.09,0,0,1-3-1.46,4.14,4.14,0,0,1,.51-5.83l7.33-6.16a4.14,4.14,0,0,0-5.31-6.35L67.2,119.83a4.141,4.141,0,0,1-5.33-6.34L83.72,95.16a4.14,4.14,0,1,0-5.36-6.31L57.93,106a4.14,4.14,0,0,1-5.83-.51h0a4.14,4.14,0,0,1,.51-5.83L70,85.09a4.145,4.145,0,1,0-5.34-6.34L41.75,97.93a4.14,4.14,0,0,1-5.32-6.34L64.38,68.13A4.15,4.15,0,1,0,59,61.81l-12,10h0L35.83,81.27a4.14,4.14,0,0,1-5.32-6.34L58.17,51.72h0a4.14,4.14,0,1,0-5.36-6.31L30.71,64a4.14,4.14,0,0,1-5.84-.51,3.88,3.88,0,0,1-.53-.83A44.79,44.79,0,0,1,97,57Z"/><path class="d" d="M92.15,23.19a4.14,4.14,0,1,1-5.371-6.3L96.86,8.43a4.142,4.142,0,0,0-5.32-6.35L65.39,24h0A61.8,61.8,0,1,0,94,32.45h0l8-6.7a4.142,4.142,0,0,0-5.32-6.35M76.52,25.53Zm3.63.94Zm-59,94.15a443.936,443.936,0,1,0,.01,0Z"/></g></svg>