<svg xmlns="http://www.w3.org/2000/svg" xmlns:xlink="http://www.w3.org/1999/xlink" width="188.597" height="180" viewBox="0 0 188.597 180"><defs><style>.a{fill:none;}.b{clip-path:url(#a);}.c{fill:#516ea0;}.d{fill:#d1ff00;}.e{fill:#49dbcb;}.f{fill:#51d5cc;}.g{fill:#97e6e0;}.h{fill:#9dbd00;}.i{fill:#d8e599;}.j{fill:url(#b);}</style><clipPath id="a"><rect class="a" width="188.597" height="180"/></clipPath><radialGradient id="b" cx="195.365" cy="167.593" r="91.131" gradientTransform="translate(4.194 4.145) scale(0.91 0.91)" gradientUnits="userSpaceOnUse"><stop offset="0" stop-color="#fff" stop-opacity="0"/><stop offset="1" stop-color="#7edbff" stop-opacity="0.2"/></radialGradient></defs><g class="b"><path class="c" d="M169.12,267.42v.68c0,18.58,30.22,33.65,67.49,33.65,35,0,63.72-13.27,67.14-30.25-16.06,6.72-40.11-2.73-63.37-2.61C211.26,269,185.4,276.38,169.12,267.42Z" transform="translate(-141.302 -121.75)"/><circle class="d" cx="14.85" cy="14.85" r="14.85" transform="translate(79.258 145.55)"/><circle class="d" cx="14.85" cy="14.85" r="14.85" transform="translate(143.788 134.86)"/><circle class="d" cx="14.85" cy="14.85" r="14.85" transform="translate(13.148 134.86)"/><path class="e" d="M243.92,191.39a32.06,32.06,0,0,0,9.22-19,31,31,0,0,0-1.62-13.55h0l2.16-1.63a62.7,62.7,0,0,1,3.26,15.18c.66,7.61,1.39,15.94-3.26,19C252.75,192,249.85,193.54,243.92,191.39Z" transform="translate(-141.302 -121.75)"/><path class="e" d="M221.8,182.68a32.12,32.12,0,0,1-9.22-19,31,31,0,0,1,1.63-13.55h0L212,148.52a63.19,63.19,0,0,0-3.26,15.18c-.66,7.61-1.39,15.94,3.26,19C213,183.29,215.87,184.83,221.8,182.68Z" transform="translate(-141.302 -121.75)"/><path class="f" d="M141.39,250.28c2.3-13.81,56-25.29,92.64-26.13,44.26-1,93.43,12.67,95.8,26.92,2.09,12.52-43.59,32.24-93,32.46C185.71,283.77,139,264.53,141.39,250.28Z" transform="translate(-141.302 -121.75)"/><path class="g" d="M173.16,249.59c1.72-10.31,41.8-18.89,69.18-19.51,33.06-.75,69.78,9.46,71.55,20.1,1.56,9.35-32.55,24.08-69.48,24.25C206.26,274.6,171.39,260.24,173.16,249.59Z" transform="translate(-141.302 -121.75)"/><path class="c" d="M192.85,249.05c1.05-6.27,25.4-11.48,42-11.86,20.08-.46,42.39,5.75,43.47,12.22.95,5.67-19.78,14.62-42.22,14.73C213,264.24,191.77,255.51,192.85,249.05Z" transform="translate(-141.302 -121.75)"/><path class="h" d="M206.31,181c-15.76,10.33-13.46,15.44-13.85,19-1.17,10.49,3,24.48,11.88,32.47,13.44,12.11,35.73,11.11,50.27.79,9.48-6.73,21.17-21.31,17-36.82-5.22-19.53-36.82-23.75-44.74-23.75C224.92,172.69,217.8,173.48,206.31,181Z" transform="translate(-141.302 -121.75)"/><circle class="h" cx="5.11" cy="5.11" r="5.11" transform="translate(105.378 29.56)"/><circle class="h" cx="5.11" cy="5.11" r="5.11" transform="translate(67.518 20.85)"/><path class="i" d="M238.52,227.93a55.39,55.39,0,0,1-17.57.47c-7.52-1.29-14.64-12.49-14.64-20.94v-6c0-8.45,6.23-15.36,13.84-15.36h24.19c7.61,0,13.84,6.91,13.84,15.36v6C258.18,215.91,246,226.54,238.52,227.93Z" transform="translate(-141.302 -121.75)"/><circle cx="2.02" cy="2.02" r="2.02" transform="translate(98.188 77.85)"/><circle cx="2.02" cy="2.02" r="2.02" transform="translate(76.888 77.85)"/><path d="M240.24,216.77c-.56,2.48-5.29,3.44-8.36,3.41-3.61,0-7-1.6-7.5-2.68s1.47-2.14,1.73-2.21c2.14-.59,3.61,1.19,5.74,1.3,4,.21,6.17-3.21,7.71-2.13A2.33,2.33,0,0,1,240.24,216.77Z" transform="translate(-141.302 -121.75)"/><path class="h" d="M225.71,174.67a6.22,6.22,0,0,0-1.18-8.71,6.39,6.39,0,0,1,4.35,2.37,5.461,5.461,0,0,1,.79,1.59,2,2,0,0,0,.79-3.57,3.88,3.88,0,0,1,2.38,2.38,3.57,3.57,0,0,1,0,2,2.25,2.25,0,0,0,2.37-1.59,2,2,0,0,0-.39-1.58,4.91,4.91,0,0,1,1.58,7.13Z" transform="translate(-141.302 -121.75)"/><path class="h" d="M219.94,262.81a95.9,95.9,0,0,0,16.2,1.33,91.457,91.457,0,0,0,14.59-1.27l-9.18-28-13.86.4Z" transform="translate(-141.302 -121.75)"/><path class="h" d="M241.54,239.87c1,.16,11.63,2.07,16.14,11.69a20.66,20.66,0,0,1,1.38,13c-.59,0-2.33-2.05-2.92-2.08.19-1.12,1.31-5.3-3.92-11.69-4.92-6-10.68-7.87-11.87-8C240.74,241.84,241.14,240.85,241.54,239.87Z" transform="translate(-141.302 -121.75)"/><ellipse class="h" cx="2.81" cy="2.57" rx="2.81" ry="2.57" transform="matrix(0.486, -0.874, 0.874, 0.486, 113.335, 141.419)"/><path class="h" d="M231.19,240.66c-1,.17-11.63,2.07-16.15,11.69a20.71,20.71,0,0,0-1.37,13c.59,0,2.33-2.05,2.92-2.08-.19-1.12-1.31-5.3,3.91-11.69,4.93-6,10.69-7.87,11.88-8C232,242.63,231.59,241.64,231.19,240.66Z" transform="translate(-141.302 -121.75)"/><ellipse class="h" cx="2.57" cy="2.81" rx="2.57" ry="2.81" transform="matrix(0.874, -0.486, 0.486, 0.874, 69.555, 139.82)"/><path class="j" d="M277.37,274.85c-31.15,5.84-50.84,7.44-87.12-2.64-28.5-7.92-41.18-19.06-41.18-21.4V202.09a80.58,80.58,0,0,1,80.35-80.34h12.74a80.58,80.58,0,0,1,80.35,80.34v48.72C322.51,253.15,311.16,268.52,277.37,274.85Z" transform="translate(-141.302 -121.75)"/></g></svg>