<svg xmlns="http://www.w3.org/2000/svg" width="51.998" height="43" viewBox="0 0 51.998 43"><defs><style>.a{fill:#e6bf8d;}</style></defs><g transform="translate(-2114.04 -905.4)"><path class="a" d="M2156.282,944.122V915.146l6.791,3.024a5.006,5.006,0,0,1,2.534,6.6l-7.732,17.367a4.989,4.989,0,0,1-1.591,1.985Z"/><path class="a" d="M2123.8,915.147v28.982a5.006,5.006,0,0,1-1.594-1.988l-7.732-17.365a5.006,5.006,0,0,1,2.534-6.6l6.79-3.023Z"/><path class="a" d="M2149.282,948.4h-18a5.006,5.006,0,0,1-5-5v-33a5.006,5.006,0,0,1,5-5h18a5.006,5.006,0,0,1,5,5v33A5.006,5.006,0,0,1,2149.282,948.4Zm-10.089-18.013h0l-3.688,6.287,4.362.008,4.593.008-3.665-6.3a5.864,5.864,0,0,0,3.029.851h.015a5.874,5.874,0,0,0,5.888-5.86v-.02c.009-2.236-9.745-11.843-9.845-11.94l-.019.019c-.981,1.024-9.581,10.06-9.581,11.885a5.883,5.883,0,0,0,5.868,5.9h.037A5.791,5.791,0,0,0,2139.193,930.387Z"/></g></svg>