<svg xmlns="http://www.w3.org/2000/svg" width="154" height="215" viewBox="0 0 154 215"><defs><style>.a{fill:#c9c9c9;}.b{fill:#fff;}.c{fill:#be6148;}.d{fill:#d66142;}.e{fill:#616161;opacity:0.2;}.f,.g{stroke:none;}.g{fill:#c4c4c4;}</style></defs><g transform="translate(-956.324 -1341.826)"><g transform="translate(956.324 1341.826)"><path class="a" d="M973.344,1556.826a16.4,16.4,0,0,1-16.552-16.169l-.468-182.564a16.374,16.374,0,0,1,16.533-16.267l120.934.219a16.455,16.455,0,0,1,16.514,16.3v182.165a16.342,16.342,0,0,1-16.453,16.176Z" transform="translate(-956.324 -1341.826)"/></g><g class="b"><path class="f" d="M 1094.039184570313 1555.869018554688 L 974.8706665039063 1555.869018554688 C 966.1581420898438 1555.869018554688 959.0700073242188 1548.823120117188 959.0700073242188 1540.16259765625 L 959.0700073242188 1358.032592773438 C 959.0700073242188 1349.375854492188 966.1581420898438 1342.3330078125 974.8706665039063 1342.3330078125 L 1094.039184570313 1342.3330078125 C 1102.742919921875 1342.3330078125 1109.823974609375 1349.375854492188 1109.823974609375 1358.032592773438 L 1109.823974609375 1540.16259765625 C 1109.823974609375 1548.823120117188 1102.742919921875 1555.869018554688 1094.039184570313 1555.869018554688 Z"/><path class="g" d="M 1094.039184570313 1555.369018554688 C 1102.46728515625 1555.369018554688 1109.323974609375 1548.547485351563 1109.323974609375 1540.16259765625 L 1109.323974609375 1358.032592773438 C 1109.323974609375 1349.651489257813 1102.46728515625 1342.8330078125 1094.039184570313 1342.8330078125 L 974.8706665039063 1342.8330078125 C 966.433837890625 1342.8330078125 959.5700073242188 1349.651489257813 959.5700073242188 1358.032592773438 L 959.5700073242188 1540.16259765625 C 959.5700073242188 1548.547485351563 966.433837890625 1555.369018554688 974.8706665039063 1555.369018554688 L 1094.039184570313 1555.369018554688 M 1094.039184570313 1556.369018554688 L 974.8706665039063 1556.369018554688 C 965.8868408203125 1556.369018554688 958.5700073242188 1549.102905273438 958.5700073242188 1540.16259765625 L 958.5700073242188 1358.032592773438 C 958.5700073242188 1349.100219726563 965.8868408203125 1341.8330078125 974.8706665039063 1341.8330078125 L 1094.039184570313 1341.8330078125 C 1103.02197265625 1341.8330078125 1110.323974609375 1349.100219726563 1110.323974609375 1358.032592773438 L 1110.323974609375 1540.16259765625 C 1110.323974609375 1549.102905273438 1103.02197265625 1556.369018554688 1094.039184570313 1556.369018554688 Z"/></g><g transform="translate(1084.85 1527.099)"><path class="c" d="M1086.035,1534.158a15.857,15.857,0,0,1,1.413-2.6c.872-1.34,1.584-2.01,2.116-2.01h7.261c.088-.023.205-.046.312-.069a3.641,3.641,0,0,0,.468-.2h.431v.594a6.034,6.034,0,0,0-.815.838c-.841,1.089-1.858,2.421-3.065,3.975a32.049,32.049,0,0,0-1.953,2.7,5.349,5.349,0,0,0-.971,2.528,3.881,3.881,0,0,0,.925,2.406,5.429,5.429,0,0,0,.9.617,2.874,2.874,0,0,0,1.263.472,3.4,3.4,0,0,0,1.862-.944,5.545,5.545,0,0,1,1.363-.937c.324,0,.488.137.488.411s-.343.777-1.028,1.5a11.968,11.968,0,0,1-1.927,1.721c-.841.563-1.3.86-1.405.914a3.554,3.554,0,0,1-4.687-.6,3.813,3.813,0,0,1-1.286-2.855,5.129,5.129,0,0,1,.917-2.924c.088-.152.522-.739,1.3-1.789,1.089-1.5,1.74-2.376,1.946-2.65a21.849,21.849,0,0,0,1.336-1.835c0-.221-.144-.358-.411-.4a5.075,5.075,0,0,0-.8-.068h-.983a6.858,6.858,0,0,0-3.091.532c-.507.412-1.005.815-1.519,1.227a.419.419,0,0,1-.2-.054c-.069-.03-.126-.053-.168-.076Z" transform="translate(-1078.035 -1529.277)"/></g><g transform="translate(965.531 1378.422)"><path class="d" d="M980.564,1391.525l-5.033-6.35,5.033-6.358,5.022,6.358Z" transform="translate(-975.531 -1378.816)"/><path class="e" d="M980.564,1378.816l-.042.053v12.594l.042.061,5.022-6.35Z" transform="translate(-975.531 -1378.816)"/></g><g transform="translate(964.888 1355.715)"><path class="c" d="M986.873,1368.248a14.992,14.992,0,0,1-1.4,2.6c-.876,1.341-1.584,2.018-2.117,2.018H976.1c-.095.015-.205.046-.323.076a2.42,2.42,0,0,0-.457.183h-.434v-.594a5.22,5.22,0,0,0,.811-.83c.833-1.1,1.861-2.421,3.061-3.975a29.591,29.591,0,0,0,1.953-2.71,5.239,5.239,0,0,0,.982-2.521,3.606,3.606,0,0,0-.247-1.256,3.9,3.9,0,0,0-.678-1.142,5.091,5.091,0,0,0-.906-.617,2.826,2.826,0,0,0-1.268-.48,3.488,3.488,0,0,0-1.87.937,5.172,5.172,0,0,1-1.366.944c-.308,0-.472-.129-.472-.411s.335-.769,1.028-1.508a13.006,13.006,0,0,1,1.918-1.721c.846-.555,1.31-.845,1.413-.906a3.84,3.84,0,0,1,1.869-.616,4.007,4.007,0,0,1,2.806,1.21,3.8,3.8,0,0,1,1.287,2.863,5.172,5.172,0,0,1-.906,2.932c-.095.144-.526.738-1.306,1.789-1.093,1.485-1.747,2.368-1.953,2.643a20.515,20.515,0,0,0-1.325,1.835c0,.22.129.357.411.4a4.21,4.21,0,0,0,.8.076h.971a6.821,6.821,0,0,0,3.084-.541c.514-.4,1.024-.814,1.538-1.225a.628.628,0,0,1,.191.045c.076.031.122.061.156.076Z" transform="translate(-974.888 -1355.715)"/></g><g transform="translate(1094.148 1509.088)"><path class="d" d="M1092.363,1510.889l5.022,6.35-5.022,6.358-5.03-6.358Z" transform="translate(-1087.333 -1510.889)"/><path class="e" d="M1092.389,1510.927l-.026-.038-5.03,6.35,5.03,6.358.026-.046Z" transform="translate(-1087.333 -1510.889)"/></g><g transform="translate(1018.246 1395.784)"><path class="d" d="M1035.045,1396.459l-16.2,20.445,16.2,20.452,16.2-20.452Z" transform="translate(-1018.849 -1396.459)"/><path class="e" d="M1034.943,1396.589l.1-.129,16.2,20.445-16.2,20.452-.1-.129Z" transform="translate(-1018.849 -1396.459)"/></g><g transform="translate(1018.246 1465.565)"><path class="d" d="M1035.045,1467.113l16.2,20.445-16.2,20.452-16.2-20.452Z" transform="translate(-1018.849 -1467.113)"/><path class="e" d="M1035.152,1467.25l-.107-.137-16.2,20.445,16.2,20.452.107-.137Z" transform="translate(-1018.849 -1467.113)"/></g></g></svg>