<svg xmlns="http://www.w3.org/2000/svg" width="154" height="215" viewBox="0 0 154 215"><defs><style>.a{fill:#c9c9c9;}.b{fill:#fff;}.c{fill:#be6148;}.d{fill:#d66142;}.e{fill:#616161;opacity:0.2;}.f,.g{stroke:none;}.g{fill:#c4c4c4;}</style></defs><g transform="translate(-776.003 -317.805)"><g transform="translate(776.003 317.805)"><path class="a" d="M793.025,532.8a16.408,16.408,0,0,1-16.555-16.169L776,334.075a16.369,16.369,0,0,1,16.535-16.27l120.927.223a16.447,16.447,0,0,1,16.514,16.294V516.485a16.338,16.338,0,0,1-16.454,16.169Z" transform="translate(-776.003 -317.805)"/><g class="b" transform="translate(-776.003 -317.805)"><path class="f" d="M 913.70849609375 531.85400390625 L 794.5205078125 531.85400390625 C 785.8070068359375 531.85400390625 778.718017578125 524.8094482421875 778.718017578125 516.1504516601563 L 778.718017578125 334.0155334472656 C 778.718017578125 325.3565979003906 785.8070068359375 318.31201171875 794.5205078125 318.31201171875 L 913.70849609375 318.31201171875 C 922.4176025390625 318.31201171875 929.5029296875 325.3565979003906 929.5029296875 334.0155334472656 L 929.5029296875 516.1504516601563 C 929.5029296875 524.8094482421875 922.4176025390625 531.85400390625 913.70849609375 531.85400390625 Z"/><path class="g" d="M 913.70849609375 531.35400390625 C 922.1419067382813 531.35400390625 929.0029296875 524.5337524414063 929.0029296875 516.1504516601563 L 929.0029296875 334.0155334472656 C 929.0029296875 325.6322937011719 922.1419067382813 318.81201171875 913.70849609375 318.81201171875 L 794.5205078125 318.81201171875 C 786.0827026367188 318.81201171875 779.218017578125 325.6322937011719 779.218017578125 334.0155334472656 L 779.218017578125 516.1504516601563 C 779.218017578125 524.5337524414063 786.0827026367188 531.35400390625 794.5205078125 531.35400390625 L 913.70849609375 531.35400390625 M 913.70849609375 532.35400390625 L 794.5205078125 532.35400390625 C 785.53466796875 532.35400390625 778.218017578125 525.0806884765625 778.218017578125 516.1504516601563 L 778.218017578125 334.0155334472656 C 778.218017578125 325.081298828125 785.53466796875 317.81201171875 794.5205078125 317.81201171875 L 913.70849609375 317.81201171875 C 922.6923217773438 317.81201171875 930.0029296875 325.081298828125 930.0029296875 334.0155334472656 L 930.0029296875 516.1504516601563 C 930.0029296875 525.0806884765625 922.6923217773438 532.35400390625 913.70849609375 532.35400390625 Z"/></g><g transform="translate(135.04 185.334)"><path class="c" d="M903.847,502.376h4.991v8.2h3.046a4.879,4.879,0,0,0,.582-1.591,20.218,20.218,0,0,1,1.873-5.081,4.337,4.337,0,0,1,1.059-1.31,2.425,2.425,0,0,1,1.576-.611,2.4,2.4,0,0,1,1.215.4,1.4,1.4,0,0,1,.818,1.173.757.757,0,0,1-.244.552.827.827,0,0,1-.537.224c-.453,0-.685-.253-.731-.755-.015-.5-.213-.746-.574-.746a1.73,1.73,0,0,0-1.733,1.285,7.725,7.725,0,0,0-.312,2.459q0,.965.114,2.2c.069.83.137,1.7.213,2.621a6.729,6.729,0,0,1-.628,2.932,8.955,8.955,0,0,1-1.61,2.273q-.657.7-2.086,1.942l.16.257h4.4a3.164,3.164,0,0,0,.765-.088c.46-.145.906-.287,1.351-.43v.261c-.2.31-.339.544-.438.679-.293.473-.476.708-.529.708a1.28,1.28,0,0,1-.346-.144,1.26,1.26,0,0,0-.552-.139H903.847Zm5.147,9.49v6.6c.457-.124.918-.6,1.371-1.429a11.243,11.243,0,0,0,.582-1.283,11.4,11.4,0,0,0,.415-1.409c.274-1.125.415-1.7.423-1.732v-.746Z" transform="translate(-903.847 -501.98)"/></g><g transform="translate(14.804 13.268)"><path class="c" d="M805.958,348.622H800.98v-8.2h-3.048a4.971,4.971,0,0,0-.6,1.6,20.011,20.011,0,0,1-1.861,5.083,4.5,4.5,0,0,1-1.055,1.312,2.482,2.482,0,0,1-1.569.609,2.435,2.435,0,0,1-1.223-.4,1.391,1.391,0,0,1-.821-1.168.7.7,0,0,1,.253-.553.755.755,0,0,1,.529-.219c.453,0,.688.246.725.747s.223.75.579.75a1.723,1.723,0,0,0,1.733-1.289,7.361,7.361,0,0,0,.312-2.461c0-.636-.04-1.369-.112-2.2s-.141-1.7-.223-2.621a6.733,6.733,0,0,1,.637-2.928,8.958,8.958,0,0,1,1.611-2.271c.436-.474,1.142-1.118,2.084-1.947l-.159-.26h-4.4a2.785,2.785,0,0,0-.771.1c-.455.143-.9.278-1.336.421v-.259c.183-.311.325-.541.417-.682.3-.466.483-.706.544-.706a1.514,1.514,0,0,1,.356.143,1.111,1.111,0,0,0,.537.142h11.839Zm-5.14-9.484v-6.607c-.455.125-.912.6-1.354,1.43a7.84,7.84,0,0,0-.589,1.29,11.523,11.523,0,0,0-.437,1.4c-.253,1.129-.391,1.7-.414,1.733v.751Z" transform="translate(-798.807 -331.073)"/></g></g><g transform="translate(818.894 396.84)"><path class="d" d="M887.62,417.4c-.913,16.817-34.637,42.38-34.637,42.38s-34.695-25.76-34.695-42.6a21.024,21.024,0,0,1,21.063-20.943c6.506,0,13.753,5.865,13.753,5.865s6.884-5.865,13.573-5.76C878.277,396.48,888.226,405.8,887.62,417.4Z" transform="translate(-818.288 -396.235)"/><path class="e" d="M866.677,396.34c-6.689-.105-13.573,5.76-13.573,5.76s-.1-.07-.23-.181v57.79a.722.722,0,0,0,.109.07s33.724-25.563,34.637-42.38C888.226,405.8,878.277,396.48,866.677,396.34Z" transform="translate(-818.288 -396.235)"/></g><g transform="translate(785.63 356.29)"><path class="d" d="M804.231,359.309c-.144,2.572-5.3,6.478-5.3,6.478s-5.3-3.939-5.3-6.514a3.212,3.212,0,0,1,3.221-3.2,4.135,4.135,0,0,1,2.1.893,3.8,3.8,0,0,1,2.086-.876A3.164,3.164,0,0,1,804.231,359.309Z" transform="translate(-793.63 -356.073)"/><path class="e" d="M801.033,356.09a3.8,3.8,0,0,0-2.086.876.088.088,0,0,1-.031-.025v8.84a.048.048,0,0,0,.019.006s5.152-3.906,5.3-6.478A3.164,3.164,0,0,0,801.033,356.09Z" transform="translate(-793.63 -356.073)"/></g><g transform="translate(910.654 486.691)"><path class="d" d="M903.462,492.355c.141-2.628,5.414-6.618,5.414-6.618s5.406,4.015,5.406,6.657A3.278,3.278,0,0,1,911,495.652a4.266,4.266,0,0,1-2.154-.909,3.9,3.9,0,0,1-2.117.9A3.238,3.238,0,0,1,903.462,492.355Z" transform="translate(-903.458 -485.737)"/><path class="e" d="M906.729,495.639a3.9,3.9,0,0,0,2.117-.9l.037.026V485.75a.023.023,0,0,1-.007-.013s-5.273,3.99-5.414,6.618A3.238,3.238,0,0,0,906.729,495.639Z" transform="translate(-903.458 -485.737)"/></g></g></svg>