<svg xmlns="http://www.w3.org/2000/svg" width="154" height="215" viewBox="0 0 154 215"><defs><style>.a{fill:#c9c9c9;}.b{fill:#fff;}.c{fill:#be6148;}.d{fill:#d66142;}.e{fill:#616161;opacity:0.2;}.f,.g{stroke:none;}.g{fill:#c4c4c4;}</style></defs><g transform="translate(-1339.664 -1340.6)"><g transform="translate(1339.664 1340.6)"><path class="a" d="M1356.684,1555.6a16.393,16.393,0,0,1-16.556-16.169l-.464-182.563a16.363,16.363,0,0,1,16.529-16.267l120.942.226a16.438,16.438,0,0,1,16.506,16.29V1539.28a16.336,16.336,0,0,1-16.453,16.169Z" transform="translate(-1339.664 -1340.6)"/><g class="b" transform="translate(-1339.664 -1340.6)"><path class="f" d="M 1477.3671875 1554.64306640625 L 1358.206787109375 1554.64306640625 C 1349.494262695313 1554.64306640625 1342.406127929688 1547.597045898438 1342.406127929688 1538.936401367188 L 1342.406127929688 1356.806396484375 C 1342.406127929688 1348.150268554688 1349.494262695313 1341.108032226563 1358.206787109375 1341.108032226563 L 1477.3671875 1341.108032226563 C 1486.077514648438 1341.108032226563 1493.163940429688 1348.150268554688 1493.163940429688 1356.806396484375 L 1493.163940429688 1538.936401367188 C 1493.163940429688 1547.597045898438 1486.077514648438 1554.64306640625 1477.3671875 1554.64306640625 Z"/><path class="g" d="M 1477.3671875 1554.14306640625 C 1485.801879882813 1554.14306640625 1492.663940429688 1547.321411132813 1492.663940429688 1538.936401367188 L 1492.663940429688 1356.806396484375 C 1492.663940429688 1348.426025390625 1485.801879882813 1341.608032226563 1477.3671875 1341.608032226563 L 1358.206787109375 1341.608032226563 C 1349.77001953125 1341.608032226563 1342.906127929688 1348.426025390625 1342.906127929688 1356.806396484375 L 1342.906127929688 1538.936401367188 C 1342.906127929688 1547.321411132813 1349.77001953125 1554.14306640625 1358.206787109375 1554.14306640625 L 1477.3671875 1554.14306640625 M 1477.3671875 1555.14306640625 L 1358.206787109375 1555.14306640625 C 1349.215942382813 1555.14306640625 1341.906127929688 1547.876708984375 1341.906127929688 1538.936401367188 L 1341.906127929688 1356.806396484375 C 1341.906127929688 1347.874145507813 1349.215942382813 1340.608032226563 1358.206787109375 1340.608032226563 L 1477.3671875 1340.608032226563 C 1486.35400390625 1340.608032226563 1493.663940429688 1347.874145507813 1493.663940429688 1356.806396484375 L 1493.663940429688 1538.936401367188 C 1493.663940429688 1547.876708984375 1486.35400390625 1555.14306640625 1477.3671875 1555.14306640625 Z"/></g><g transform="translate(136.53 185.273)"><path class="c" d="M1469.379,1532.932a14.778,14.778,0,0,1,1.412-2.6q1.3-2.01,2.11-2.01h7.256c.095-.023.2-.046.32-.069a2.644,2.644,0,0,0,.461-.2h.434v.594a5.941,5.941,0,0,0-.811.838c-.834,1.1-1.862,2.414-3.065,3.967a31.041,31.041,0,0,0-1.949,2.719,5.122,5.122,0,0,0-.975,2.512,3.467,3.467,0,0,0,.247,1.264,3.576,3.576,0,0,0,.67,1.15,4.648,4.648,0,0,0,.914.6,2.74,2.74,0,0,0,1.253.488,3.5,3.5,0,0,0,1.873-.944,5.224,5.224,0,0,1,1.37-.937c.313,0,.473.137.473.4s-.339.777-1.028,1.508a12.131,12.131,0,0,1-1.923,1.729c-.845.548-1.306.853-1.4.9a3.543,3.543,0,0,1-4.687-.594,3.787,3.787,0,0,1-1.283-2.863,5.167,5.167,0,0,1,.895-2.916c.1-.145.533-.746,1.314-1.79,1.092-1.5,1.747-2.383,1.952-2.649.888-1.173,1.329-1.789,1.329-1.835,0-.229-.137-.366-.419-.4a4.771,4.771,0,0,0-.795-.069h-.975a6.8,6.8,0,0,0-3.088.534c-.51.4-1.02.807-1.522,1.218a.351.351,0,0,1-.206-.046c-.069-.03-.118-.053-.156-.068Z" transform="translate(-1469.379 -1528.051)"/></g><g transform="translate(8.567 13.889)"><path class="c" d="M1370.209,1367.022a14.6,14.6,0,0,1-1.405,2.6c-.868,1.339-1.569,2.017-2.117,2.017h-7.245a3.209,3.209,0,0,0-.327.069,4.077,4.077,0,0,0-.469.19h-.415v-.594a6.736,6.736,0,0,0,.8-.822q1.267-1.656,3.072-3.982c.884-1.135,1.539-2.041,1.953-2.7a5.346,5.346,0,0,0,.971-2.528,3.513,3.513,0,0,0-.247-1.256,3.613,3.613,0,0,0-.685-1.15,4.986,4.986,0,0,0-.9-.616,2.979,2.979,0,0,0-1.264-.473,3.44,3.44,0,0,0-1.869.937,5.428,5.428,0,0,1-1.363.944c-.317,0-.473-.145-.473-.411s.331-.769,1.009-1.5a12.277,12.277,0,0,1,1.935-1.721c.837-.563,1.309-.86,1.4-.914a3.916,3.916,0,0,1,1.885-.616,4,4,0,0,1,2.8,1.218,3.8,3.8,0,0,1,1.287,2.855,5.177,5.177,0,0,1-.91,2.932q-.137.218-1.306,1.782c-1.093,1.492-1.736,2.375-1.949,2.642-.884,1.18-1.329,1.789-1.329,1.842,0,.214.137.351.411.4a4.286,4.286,0,0,0,.8.076h.974a6.894,6.894,0,0,0,3.092-.54c.51-.412,1.013-.823,1.519-1.234a.432.432,0,0,1,.206.061.643.643,0,0,1,.152.069Z" transform="translate(-1358.231 -1354.489)"/></g></g><g transform="translate(1402.45 1398.406)"><path class="d" d="M1433.683,1408.429c-.408,7.432-15.3,18.716-15.3,18.716s-15.332-11.375-15.332-18.815a9.284,9.284,0,0,1,9.309-9.251c2.871,0,6.073,2.6,6.073,2.6s3.049-2.6,6-2.558C1429.556,1399.185,1433.953,1403.3,1433.683,1408.429Z" transform="translate(-1403.053 -1399.079)"/><path class="e" d="M1424.435,1399.117c-2.951-.038-6,2.558-6,2.558l-.1-.091v25.531a.287.287,0,0,0,.053.03s14.89-11.284,15.3-18.716C1433.953,1403.3,1429.556,1399.185,1424.435,1399.117Z" transform="translate(-1403.053 -1399.079)"/></g><g transform="translate(1402.23 1469.277)"><path class="d" d="M1402.844,1489.5c.392-7.424,15.294-18.724,15.294-18.724s15.324,11.376,15.324,18.823a9.282,9.282,0,0,1-9.305,9.251c-2.875,0-6.073-2.589-6.073-2.589s-3.038,2.589-6,2.536C1406.96,1498.744,1402.563,1494.617,1402.844,1489.5Z" transform="translate(-1402.831 -1470.776)"/><path class="e" d="M1412.088,1498.8c2.958.053,6-2.536,6-2.536a.69.69,0,0,1,.1.069v-25.524a.144.144,0,0,0-.045-.03s-14.9,11.3-15.294,18.724C1402.563,1494.617,1406.96,1498.744,1412.088,1498.8Z" transform="translate(-1402.831 -1470.776)"/></g><g transform="translate(1347.573 1379.056)"><path class="d" d="M1368.339,1382.753c-.144,2.612-5.375,6.579-5.375,6.579s-5.391-4.005-5.391-6.624a3.264,3.264,0,0,1,3.27-3.244,4.217,4.217,0,0,1,2.136.913,3.805,3.805,0,0,1,2.1-.89A3.207,3.207,0,0,1,1368.339,1382.753Z" transform="translate(-1357.573 -1379.464)"/><path class="e" d="M1365.084,1379.487a3.805,3.805,0,0,0-2.1.89.113.113,0,0,1-.034-.03v8.985h.019s5.231-3.967,5.375-6.579A3.207,3.207,0,0,0,1365.084,1379.487Z" transform="translate(-1357.573 -1379.464)"/></g><g transform="translate(1475.927 1509.353)"><path class="d" d="M1469.116,1517.871c.137-2.665,5.49-6.724,5.49-6.724s5.5,4.089,5.5,6.77a3.323,3.323,0,0,1-3.336,3.3,4.321,4.321,0,0,1-2.177-.921,4.012,4.012,0,0,1-2.159.914A3.3,3.3,0,0,1,1469.116,1517.871Z" transform="translate(-1469.112 -1511.147)"/><path class="e" d="M1472.436,1521.214a4.012,4.012,0,0,0,2.159-.914.065.065,0,0,0,.027.031v-9.168l-.016-.016s-5.353,4.059-5.49,6.724A3.3,3.3,0,0,0,1472.436,1521.214Z" transform="translate(-1469.112 -1511.147)"/></g></g></svg>