<svg xmlns="http://www.w3.org/2000/svg" width="154" height="215" viewBox="0 0 154 215"><defs><style>.a{fill:#c9c9c9;}.b{fill:#fff;}.c{fill:#be6148;}.d{fill:#d66142;}.e{fill:#616161;opacity:0.2;}.f,.g{stroke:none;}.g{fill:#c4c4c4;}</style></defs><g transform="translate(-1339.664 -1083.385)"><g transform="translate(1339.664 1083.385)"><path class="a" d="M1356.7,1298.385a16.4,16.4,0,0,1-16.563-16.169l-.472-182.564a16.383,16.383,0,0,1,16.533-16.267l120.938.226a16.442,16.442,0,0,1,16.51,16.29v182.173a16.331,16.331,0,0,1-16.45,16.161Z" transform="translate(-1339.664 -1083.385)"/><g class="b" transform="translate(-1339.664 -1083.385)"><path class="f" d="M 1477.3671875 1297.429077148438 L 1358.210693359375 1297.429077148438 C 1349.500366210938 1297.429077148438 1342.413940429688 1290.38623046875 1342.413940429688 1281.7294921875 L 1342.413940429688 1099.591552734375 C 1342.413940429688 1090.935302734375 1349.500366210938 1083.892944335938 1358.210693359375 1083.892944335938 L 1477.3671875 1083.892944335938 C 1486.077514648438 1083.892944335938 1493.163940429688 1090.935302734375 1493.163940429688 1099.591552734375 L 1493.163940429688 1281.7294921875 C 1493.163940429688 1290.38623046875 1486.077514648438 1297.429077148438 1477.3671875 1297.429077148438 Z"/><path class="g" d="M 1477.3671875 1296.929077148438 C 1485.801879882813 1296.929077148438 1492.663940429688 1290.110595703125 1492.663940429688 1281.7294921875 L 1492.663940429688 1099.591552734375 C 1492.663940429688 1091.211059570313 1485.801879882813 1084.392944335938 1477.3671875 1084.392944335938 L 1358.210693359375 1084.392944335938 C 1349.776000976563 1084.392944335938 1342.913940429688 1091.211059570313 1342.913940429688 1099.591552734375 L 1342.913940429688 1281.7294921875 C 1342.913940429688 1290.110595703125 1349.776000976563 1296.929077148438 1358.210693359375 1296.929077148438 L 1477.3671875 1296.929077148438 M 1477.3671875 1297.929077148438 L 1358.210693359375 1297.929077148438 C 1349.230834960938 1297.929077148438 1341.913940429688 1290.661743164063 1341.913940429688 1281.7294921875 L 1341.913940429688 1099.591552734375 C 1341.913940429688 1090.6591796875 1349.230834960938 1083.392944335938 1358.210693359375 1083.392944335938 L 1477.3671875 1083.392944335938 C 1486.361938476563 1083.392944335938 1493.663940429688 1090.6591796875 1493.663940429688 1099.591552734375 L 1493.663940429688 1281.7294921875 C 1493.663940429688 1290.661743164063 1486.361938476563 1297.929077148438 1477.3671875 1297.929077148438 Z"/></g><g transform="translate(136.541 185.304)"><path class="c" d="M1469.39,1279.19a4.889,4.889,0,0,1,.476-1.98,12.375,12.375,0,0,1,2.505-3.3,17.107,17.107,0,0,1,2.372-2.094,5.051,5.051,0,0,1,2.9-.952,4.544,4.544,0,0,1,2.261.548,1.927,1.927,0,0,1,1.15,1.706,5.723,5.723,0,0,1-1.447,2.559c-.959,1.218-1.645,1.819-2.056,1.819-.35,0-.526-.129-.526-.38a3.326,3.326,0,0,1,.834-1.432,1.367,1.367,0,0,0,.377-.731,2.023,2.023,0,0,0-.453-.647,2.8,2.8,0,0,0-1.953-.632,3.01,3.01,0,0,0-1.919.662,2.588,2.588,0,0,0-1.047,2.163,3.147,3.147,0,0,0,.541,1.789,2.971,2.971,0,0,0,1.1.944,4.564,4.564,0,0,0,1.835.457c.651.016.959.152.959.427a7.3,7.3,0,0,1-1.184,1.66,25.987,25.987,0,0,0-1.774,2.5.728.728,0,0,0,.419.267h3.636a2.172,2.172,0,0,0,.948-.579,2.369,2.369,0,0,1,.978-.571c.332,0,.48.122.48.365,0,.13-.183.4-.56.83s-.906.99-1.606,1.691c-.792.791-1.295,1.264-1.5,1.431a1.844,1.844,0,0,1-.979.472h-6.053a.448.448,0,0,1-.114-.122.725.725,0,0,1-.027-.289c0-.457.541-1.226,1.63-2.307,1.1-1.074,1.644-1.82,1.644-2.239,0-.091-.438-.289-1.3-.616a4.576,4.576,0,0,1-1.5-.876,3.222,3.222,0,0,1-.761-1.1A3.565,3.565,0,0,1,1469.39,1279.19Z" transform="translate(-1469.39 -1270.867)"/></g><g transform="translate(8.902 13.965)"><path class="c" d="M1370.224,1106.335a4.821,4.821,0,0,1-.476,1.98,12.386,12.386,0,0,1-2.505,3.3,18.58,18.58,0,0,1-2.372,2.087,5.082,5.082,0,0,1-2.9.951,4.622,4.622,0,0,1-2.261-.54,1.936,1.936,0,0,1-1.143-1.713,5.488,5.488,0,0,1,1.439-2.559q1.44-1.816,2.056-1.819c.351,0,.526.121.526.373a3.25,3.25,0,0,1-.834,1.431,1.354,1.354,0,0,0-.377.746,2.155,2.155,0,0,0,.453.632,2.763,2.763,0,0,0,1.953.647,3.1,3.1,0,0,0,1.919-.662,2.607,2.607,0,0,0,1.047-2.17,3.108,3.108,0,0,0-.54-1.782,2.859,2.859,0,0,0-1.1-.944,4.125,4.125,0,0,0-1.836-.457c-.651-.023-.967-.16-.967-.427a7.49,7.49,0,0,1,1.177-1.674,23.353,23.353,0,0,0,1.789-2.5.745.745,0,0,0-.419-.259h-3.636a2.366,2.366,0,0,0-.959.564,2.142,2.142,0,0,1-.975.578c-.308,0-.472-.114-.472-.35,0-.137.183-.411.556-.838s.91-.989,1.6-1.69a16.232,16.232,0,0,1,1.508-1.416,1.731,1.731,0,0,1,.978-.48h6.065a.474.474,0,0,0,.1.114.738.738,0,0,1,.026.282c0,.464-.54,1.233-1.644,2.307-1.089,1.081-1.63,1.828-1.63,2.231,0,.1.438.312,1.3.625a4.775,4.775,0,0,1,1.5.883,3.267,3.267,0,0,1,.762,1.089A3.439,3.439,0,0,1,1370.224,1106.335Z" transform="translate(-1358.566 -1097.35)"/></g></g><g transform="translate(1402.568 1103.426)"><path class="d" d="M1433.8,1112.769c-.411,7.44-15.308,18.731-15.308,18.731s-15.324-11.383-15.324-18.822a9.292,9.292,0,0,1,9.3-9.252c2.878,0,6.076,2.589,6.076,2.589s3.05-2.589,6-2.543C1429.677,1103.541,1434.071,1107.652,1433.8,1112.769Z" transform="translate(-1403.172 -1103.426)"/><path class="e" d="M1424.553,1103.472c-2.954-.046-6,2.543-6,2.543l-.095-.083v25.531a.075.075,0,0,1,.042.037s14.9-11.291,15.308-18.731C1434.071,1107.652,1429.677,1103.541,1424.553,1103.472Z" transform="translate(-1403.172 -1103.426)"/></g><g transform="translate(1402.568 1174.068)"><path class="d" d="M1433.8,1184.474c-.411,7.432-15.308,18.716-15.308,18.716s-15.324-11.368-15.324-18.807a9.288,9.288,0,0,1,9.3-9.259c2.878,0,6.076,2.6,6.076,2.6s3.05-2.6,6-2.551C1429.677,1175.23,1434.071,1179.342,1433.8,1184.474Z" transform="translate(-1403.172 -1175.124)"/><path class="e" d="M1424.553,1175.169c-2.954-.045-6,2.551-6,2.551a.718.718,0,0,0-.095-.084v25.524c.034.03.042.03.042.03s14.9-11.284,15.308-18.716C1434.071,1179.342,1429.677,1175.23,1424.553,1175.169Z" transform="translate(-1403.172 -1175.124)"/></g><g transform="translate(1402.337 1244.643)"><path class="d" d="M1402.951,1265.545c.407-7.424,15.312-18.724,15.312-18.724s15.317,11.383,15.317,18.83a9.287,9.287,0,0,1-9.309,9.244c-2.863,0-6.072-2.589-6.072-2.589s-3.035,2.589-5.982,2.544C1407.085,1274.789,1402.684,1270.669,1402.951,1265.545Z" transform="translate(-1402.939 -1246.821)"/><path class="e" d="M1412.217,1274.85c2.947.045,5.982-2.544,5.982-2.544a.512.512,0,0,1,.1.069v-25.524c-.035-.022-.039-.03-.039-.03s-14.9,11.3-15.312,18.724C1402.684,1270.669,1407.085,1274.789,1412.217,1274.85Z" transform="translate(-1402.939 -1246.821)"/></g><g transform="translate(1347.477 1121.841)"><path class="d" d="M1368.241,1125.538c-.141,2.612-5.38,6.579-5.38,6.579s-5.384-4-5.384-6.616a3.265,3.265,0,0,1,3.267-3.252,4.211,4.211,0,0,1,2.132.906,3.826,3.826,0,0,1,2.117-.883A3.212,3.212,0,0,1,1368.241,1125.538Z" transform="translate(-1357.477 -1122.249)"/><path class="e" d="M1364.993,1122.272a3.826,3.826,0,0,0-2.117.883s-.015,0-.019-.022v8.977l0,.007s5.239-3.967,5.38-6.579A3.212,3.212,0,0,0,1364.993,1122.272Z" transform="translate(-1357.477 -1122.249)"/></g><g transform="translate(1475.832 1252.146)"><path class="d" d="M1469.021,1260.656c.145-2.665,5.5-6.716,5.5-6.716s5.49,4.082,5.49,6.762a3.331,3.331,0,0,1-3.332,3.312,4.311,4.311,0,0,1-2.185-.929,3.946,3.946,0,0,1-2.155.914A3.293,3.293,0,0,1,1469.021,1260.656Z" transform="translate(-1469.017 -1253.94)"/><path class="e" d="M1472.337,1264a3.946,3.946,0,0,0,2.155-.914.113.113,0,0,1,.038.031v-9.168l-.011-.008s-5.353,4.051-5.5,6.716A3.293,3.293,0,0,0,1472.337,1264Z" transform="translate(-1469.017 -1253.94)"/></g></g></svg>