<svg xmlns="http://www.w3.org/2000/svg" width="154" height="215" viewBox="0 0 154 215"><defs><style>.a{fill:#c9c9c9;}.b{fill:#fff;}.c{fill:#be6148;}.d{fill:#d66142;}.e{fill:#616161;opacity:0.2;}.f,.g{stroke:none;}.g{fill:#c4c4c4;}</style></defs><g transform="translate(-392.935 -1085.502)"><g transform="translate(392.935 1085.502)"><path class="a" d="M409.949,1300.5a16.381,16.381,0,0,1-16.544-16.177l-.47-182.556a16.364,16.364,0,0,1,16.531-16.267l120.933.219a16.446,16.446,0,0,1,16.5,16.3v182.165a16.354,16.354,0,0,1-16.449,16.176Z" transform="translate(-392.935 -1085.502)"/><g class="b" transform="translate(-392.935 -1085.502)"><path class="f" d="M 530.6366577148438 1299.544921875 L 411.4801635742188 1299.544921875 C 402.7657165527344 1299.544921875 395.6759948730469 1292.4990234375 395.6759948730469 1283.838500976563 L 395.6759948730469 1101.708618164063 C 395.6759948730469 1093.052368164063 402.7657165527344 1086.010009765625 411.4801635742188 1086.010009765625 L 530.6366577148438 1086.010009765625 C 539.3478393554688 1086.010009765625 546.4348754882813 1093.052368164063 546.4348754882813 1101.708618164063 L 546.4348754882813 1283.838500976563 C 546.4348754882813 1292.4990234375 539.3478393554688 1299.544921875 530.6366577148438 1299.544921875 Z"/><path class="g" d="M 530.6366577148438 1299.044921875 C 539.0721435546875 1299.044921875 545.9348754882813 1292.223388671875 545.9348754882813 1283.838500976563 L 545.9348754882813 1101.708618164063 C 545.9348754882813 1093.328125 539.0721435546875 1086.510009765625 530.6366577148438 1086.510009765625 L 411.4801635742188 1086.510009765625 C 403.0414123535156 1086.510009765625 396.1759948730469 1093.328125 396.1759948730469 1101.708618164063 L 396.1759948730469 1283.838500976563 C 396.1759948730469 1292.223388671875 403.0414123535156 1299.044921875 411.4801635742188 1299.044921875 L 530.6366577148438 1299.044921875 M 530.6366577148438 1300.044921875 L 411.4801635742188 1300.044921875 C 402.49462890625 1300.044921875 395.1759948730469 1292.770751953125 395.1759948730469 1283.838500976563 L 395.1759948730469 1101.708618164063 C 395.1759948730469 1092.776245117188 402.49462890625 1085.510009765625 411.4801635742188 1085.510009765625 L 530.6366577148438 1085.510009765625 C 539.6212768554688 1085.510009765625 546.9348754882813 1092.776245117188 546.9348754882813 1101.708618164063 L 546.9348754882813 1283.838500976563 C 546.9348754882813 1292.770751953125 539.6212768554688 1300.044921875 530.6366577148438 1300.044921875 Z"/></g><g transform="translate(10.322 13.949)"><path class="c" d="M414.44,1105.413a10.551,10.551,0,0,1-.776,3.762,10.152,10.152,0,0,1-1.6,2.985,28.111,28.111,0,0,1-2.812,2.81c-1.433,1.233-2.591,1.858-3.449,1.858a.408.408,0,0,1-.236-.092,2.558,2.558,0,0,1-.221-.221,11.548,11.548,0,0,0,2.431-2.139,18.071,18.071,0,0,0,2.427-3.754v-.312c-.057-.031-.129-.061-.181-.092-.647.275-1.224.526-1.757.731a3.912,3.912,0,0,1-1.408.305,3.039,3.039,0,0,1-2.334-1.356,5.641,5.641,0,0,1-1.264-3.731q0-2.134,2.57-4.515c1.578-1.454,2.872-2.2,3.931-2.2a4.209,4.209,0,0,1,2.941,1.561A6.181,6.181,0,0,1,414.44,1105.413Zm-3.618,2.057a5.082,5.082,0,0,0-1.285-3.511,3.222,3.222,0,0,0-2.328-1.256c-.191,0-.314.114-.385.342a2.742,2.742,0,0,0-.093.777,4.81,4.81,0,0,0,.9,2.993c.73.959,1.428,1.454,2.1,1.454a1.812,1.812,0,0,0,.735-.122A.694.694,0,0,0,410.822,1107.47Z" transform="translate(-403.257 -1099.451)"/></g><g transform="translate(135.769 185.251)"><path class="c" d="M529.894,1284.352a10.483,10.483,0,0,1,.777-3.777,10.182,10.182,0,0,1,1.6-2.984,28.338,28.338,0,0,1,2.807-2.795c1.438-1.249,2.59-1.865,3.454-1.865a.344.344,0,0,1,.231.1,1.746,1.746,0,0,1,.226.2,12.357,12.357,0,0,0-2.436,2.155,17.522,17.522,0,0,0-2.426,3.746v.313c.061.03.134.061.185.091.643-.282,1.219-.533,1.753-.739a3.957,3.957,0,0,1,1.419-.3,3.067,3.067,0,0,1,2.333,1.355,5.739,5.739,0,0,1,1.258,3.731q0,2.148-2.569,4.523c-1.578,1.462-2.878,2.193-3.926,2.193a4.188,4.188,0,0,1-2.95-1.546A6.215,6.215,0,0,1,529.894,1284.352Zm3.619-2.071a5.03,5.03,0,0,0,1.285,3.518,3.223,3.223,0,0,0,2.328,1.271c.19,0,.318-.129.38-.35a2.864,2.864,0,0,0,.092-.784,4.821,4.821,0,0,0-.9-2.993c-.731-.966-1.429-1.454-2.1-1.454a1.674,1.674,0,0,0-.739.13A.681.681,0,0,0,533.513,1282.281Z" transform="translate(-529.894 -1272.931)"/></g></g><g transform="translate(402.8 1123.595)"><path class="d" d="M413.983,1127.412c-.144,2.733-5.587,6.845-5.587,6.845s-5.6-4.157-5.6-6.868a3.4,3.4,0,0,1,3.4-3.389,4.4,4.4,0,0,1,2.216.945,4,4,0,0,1,2.194-.929A3.338,3.338,0,0,1,413.983,1127.412Z" transform="translate(-402.8 -1124)"/><path class="e" d="M410.606,1124.016a4,4,0,0,0-2.194.929l-.036-.023v9.335h.02s5.443-4.112,5.587-6.845A3.338,3.338,0,0,0,410.606,1124.016Z" transform="translate(-402.8 -1124)"/></g><g transform="translate(527.887 1253.763)"><path class="d" d="M529.081,1262.544c.145-2.779,5.717-6.989,5.717-6.989s5.71,4.248,5.71,7.035a3.453,3.453,0,0,1-3.47,3.434,4.52,4.52,0,0,1-2.271-.951,4.153,4.153,0,0,1-2.236.944A3.43,3.43,0,0,1,529.081,1262.544Z" transform="translate(-529.077 -1255.555)"/><path class="e" d="M532.531,1266.017a4.153,4.153,0,0,0,2.236-.944l.04.015v-9.518c0-.015-.009-.015-.009-.015s-5.572,4.21-5.717,6.989A3.43,3.43,0,0,0,532.531,1266.017Z" transform="translate(-529.077 -1255.555)"/></g><g transform="translate(426.97 1106.974)"><path class="d" d="M427.315,1116.683c.407,7.729,15.893,19.47,15.893,19.47s15.939-11.833,15.939-19.562a9.657,9.657,0,0,0-9.674-9.617c-2.986,0-6.316,2.689-6.316,2.689s-3.163-2.689-6.235-2.65C431.592,1107.081,427.027,1111.368,427.315,1116.683Z" transform="translate(-427.302 -1106.974)"/><path class="e" d="M436.922,1107.013c3.072-.039,6.235,2.65,6.235,2.65a.846.846,0,0,1,.108-.076v26.536a.2.2,0,0,1-.057.03s-15.486-11.741-15.893-19.47C427.027,1111.368,431.592,1107.081,436.922,1107.013Z" transform="translate(-427.302 -1106.974)"/></g><g transform="translate(455.253 1176.832)"><path class="d" d="M455.873,1187.626c.41,7.721,15.906,19.455,15.906,19.455s15.923-11.825,15.923-19.561a9.653,9.653,0,0,0-9.673-9.617c-2.985,0-6.317,2.7-6.317,2.7s-3.156-2.7-6.228-2.65C460.163,1178.024,455.583,1182.3,455.873,1187.626Z" transform="translate(-455.86 -1177.903)"/><path class="e" d="M465.484,1177.948c3.072-.045,6.228,2.65,6.228,2.65a.45.45,0,0,0,.113-.083v26.536c-.031.03-.046.03-.046.03s-15.5-11.734-15.906-19.455C455.583,1182.3,460.163,1178.024,465.484,1177.948Z" transform="translate(-455.86 -1177.903)"/></g><g transform="translate(483.755 1106.974)"><path class="d" d="M516.47,1116.683c-.417,7.729-15.912,19.47-15.912,19.47s-15.918-11.833-15.918-19.562a9.648,9.648,0,0,1,9.672-9.617c2.981,0,6.312,2.689,6.312,2.689s3.155-2.689,6.229-2.65C512.177,1107.081,516.752,1111.368,516.47,1116.683Z" transform="translate(-484.64 -1106.974)"/><path class="e" d="M506.853,1107.013c-3.074-.039-6.229,2.65-6.229,2.65s-.047-.031-.1-.076v26.536a.253.253,0,0,0,.037.03s15.495-11.741,15.912-19.47C516.752,1111.368,512.177,1107.081,506.853,1107.013Z" transform="translate(-484.64 -1106.974)"/></g><g transform="translate(426.97 1153.907)"><path class="d" d="M427.315,1164.418c.407,7.736,15.893,19.47,15.893,19.47s15.939-11.826,15.939-19.554a9.658,9.658,0,0,0-9.674-9.625c-2.986,0-6.316,2.7-6.316,2.7s-3.163-2.7-6.235-2.65C431.592,1154.816,427.027,1159.095,427.315,1164.418Z" transform="translate(-427.302 -1154.709)"/><path class="e" d="M436.922,1154.755c3.072-.046,6.235,2.65,6.235,2.65a.568.568,0,0,1,.108-.084v26.544a.52.52,0,0,1-.057.023s-15.486-11.734-15.893-19.47C427.027,1159.095,431.592,1154.816,436.922,1154.755Z" transform="translate(-427.302 -1154.709)"/></g><g transform="translate(483.755 1153.907)"><path class="d" d="M516.47,1164.418c-.417,7.736-15.912,19.47-15.912,19.47s-15.918-11.826-15.918-19.554a9.65,9.65,0,0,1,9.672-9.625c2.981,0,6.312,2.7,6.312,2.7s3.155-2.7,6.229-2.65C512.177,1154.816,516.752,1159.095,516.47,1164.418Z" transform="translate(-484.64 -1154.709)"/><path class="e" d="M506.853,1154.755c-3.074-.046-6.229,2.65-6.229,2.65l-.1-.084v26.544l.037.023s15.495-11.734,15.912-19.47C516.752,1159.095,512.177,1154.816,506.853,1154.755Z" transform="translate(-484.64 -1154.709)"/></g><g transform="translate(426.97 1248.008)"><path class="d" d="M427.315,1269.641c.407-7.713,15.893-19.455,15.893-19.455s15.939,11.818,15.939,19.554a9.658,9.658,0,0,1-9.674,9.625c-2.986,0-6.316-2.7-6.316-2.7s-3.163,2.7-6.235,2.657C431.592,1279.258,427.027,1274.979,427.315,1269.641Z" transform="translate(-427.302 -1250.186)"/><path class="e" d="M436.922,1279.319c3.072.046,6.235-2.657,6.235-2.657a.448.448,0,0,0,.108.091v-26.536a.226.226,0,0,0-.057-.031s-15.486,11.742-15.893,19.455C427.027,1274.979,431.592,1279.258,436.922,1279.319Z" transform="translate(-427.302 -1250.186)"/></g><g transform="translate(483.755 1248.008)"><path class="d" d="M516.47,1269.641c-.417-7.713-15.912-19.455-15.912-19.455S484.64,1262,484.64,1269.74a9.65,9.65,0,0,0,9.672,9.625c2.981,0,6.312-2.7,6.312-2.7s3.155,2.7,6.229,2.657C512.177,1279.258,516.752,1274.979,516.47,1269.641Z" transform="translate(-484.64 -1250.186)"/><path class="e" d="M506.853,1279.319c-3.074.046-6.229-2.657-6.229-2.657s-.047.045-.1.091v-26.536a.343.343,0,0,1,.037-.031s15.495,11.742,15.912,19.455C516.752,1274.979,512.177,1279.258,506.853,1279.319Z" transform="translate(-484.64 -1250.186)"/></g><g transform="translate(426.97 1201.089)"><path class="d" d="M427.315,1221.906c.407-7.721,15.893-19.462,15.893-19.462s15.939,11.825,15.939,19.562a9.663,9.663,0,0,1-9.674,9.624c-2.986,0-6.316-2.7-6.316-2.7s-3.163,2.7-6.235,2.65C431.592,1231.508,427.027,1227.244,427.315,1221.906Z" transform="translate(-427.302 -1202.444)"/><path class="e" d="M436.922,1231.577c3.072.053,6.235-2.65,6.235-2.65a.789.789,0,0,0,.108.091v-26.536a.171.171,0,0,0-.057-.038s-15.486,11.741-15.893,19.462C427.027,1227.244,431.592,1231.508,436.922,1231.577Z" transform="translate(-427.302 -1202.444)"/></g><g transform="translate(483.755 1201.089)"><path class="d" d="M516.47,1221.906c-.417-7.721-15.912-19.462-15.912-19.462s-15.918,11.825-15.918,19.562a9.654,9.654,0,0,0,9.672,9.624c2.981,0,6.312-2.7,6.312-2.7s3.155,2.7,6.229,2.65C512.177,1231.508,516.752,1227.244,516.47,1221.906Z" transform="translate(-484.64 -1202.444)"/><path class="e" d="M506.853,1231.577c-3.074.053-6.229-2.65-6.229-2.65s-.047.038-.1.091v-26.536a.219.219,0,0,1,.037-.038s15.495,11.741,15.912,19.462C516.752,1227.244,512.177,1231.508,506.853,1231.577Z" transform="translate(-484.64 -1202.444)"/></g></g></svg>