<svg xmlns="http://www.w3.org/2000/svg" width="154" height="215" viewBox="0 0 154 215"><defs><style>.a{fill:#c9c9c9;}.b,.k{fill:#fff;}.c{fill:#333;}.d{fill:#757575;}.e{fill:#ebb07a;}.f,.h{fill:#616161;}.f,.g,.k{opacity:0.2;}.i{fill:#1c1c1c;}.j{fill:#ababab;}.l{fill:#ebebeb;}.m{fill:#ffd675;}.n,.o{stroke:none;}.o{fill:#c4c4c4;}</style></defs><g transform="translate(-202.254 -574.234)"><g transform="translate(202.254 574.234)"><path class="a" d="M219.278,789.234a16.392,16.392,0,0,1-16.553-16.163l-.471-182.464a16.369,16.369,0,0,1,16.532-16.261l120.953.225a16.438,16.438,0,0,1,16.514,16.284V772.928A16.352,16.352,0,0,1,339.8,789.091Z" transform="translate(-202.254 -574.234)"/><g class="b" transform="translate(-202.254 -574.234)"><path class="n" d="M 339.9486694335938 788.1550903320313 L 220.7703247070313 788.1550903320313 C 212.0585327148438 788.1550903320313 204.9709777832031 781.1152954101563 204.9709777832031 772.462158203125 L 204.9709777832031 590.431884765625 C 204.9709777832031 581.7760620117188 212.0585327148438 574.7340698242188 220.7703247070313 574.7340698242188 L 339.9486694335938 574.7340698242188 C 348.6637268066406 574.7340698242188 355.7539367675781 581.7760620117188 355.7539367675781 590.431884765625 L 355.7539367675781 772.462158203125 C 355.7539367675781 781.1152954101563 348.6637268066406 788.1550903320313 339.9486694335938 788.1550903320313 Z"/><path class="o" d="M 339.9486694335938 787.6550903320313 C 348.3880004882813 787.6550903320313 355.2539367675781 780.8395385742188 355.2539367675781 772.462158203125 L 355.2539367675781 590.431884765625 C 355.2539367675781 582.0517578125 348.3880004882813 575.2340698242188 339.9486694335938 575.2340698242188 L 220.7703247070313 575.2340698242188 C 212.334228515625 575.2340698242188 205.4709777832031 582.0517578125 205.4709777832031 590.431884765625 L 205.4709777832031 772.462158203125 C 205.4709777832031 780.8395385742188 212.334228515625 787.6550903320313 220.7703247070313 787.6550903320313 L 339.9486694335938 787.6550903320313 M 339.9486694335938 788.6550903320313 L 220.7703247070313 788.6550903320313 C 211.7787628173828 788.6550903320313 204.4709777832031 781.3890380859375 204.4709777832031 772.462158203125 L 204.4709777832031 590.431884765625 C 204.4709777832031 581.4970092773438 211.7787628173828 574.2340698242188 220.7703247070313 574.2340698242188 L 339.9486694335938 574.2340698242188 C 348.9362487792969 574.2340698242188 356.2539367675781 581.4970092773438 356.2539367675781 590.431884765625 L 356.2539367675781 772.462158203125 C 356.2539367675781 781.3890380859375 348.9362487792969 788.6550903320313 339.9486694335938 788.6550903320313 Z"/></g><g transform="translate(10.318 14.161)"><path class="c" d="M231.211,589.463a5.327,5.327,0,0,1-1.841,1.923,4.265,4.265,0,0,1-2.2.668,19.391,19.391,0,0,1-2.519-.55,7.478,7.478,0,0,0-1.85-.263,4.445,4.445,0,0,0-1.058.129,2.3,2.3,0,0,0-.91.442h-.263v-.333a5.394,5.394,0,0,1,1.768-2.37,4.635,4.635,0,0,1,2.694-.714,6.862,6.862,0,0,1,2.319.39,6.328,6.328,0,0,0,2.128.39q.328,0,.771-.026c.291-.015.609-.04.959-.091Zm.073,13.94a4.588,4.588,0,0,1-1.769,3.752,6.988,6.988,0,0,1-4.527,1.422,5.532,5.532,0,0,1-2.823-.662,2.474,2.474,0,0,1-1.357-2.256,2.012,2.012,0,0,1,.381-1.209,1.764,1.764,0,0,1,1.52-.714,1.682,1.682,0,0,1,1.128.417,1.3,1.3,0,0,1,.487,1.028,1.351,1.351,0,0,1-.853,1.376c-.569.242-.857.408-.857.5a1.3,1.3,0,0,0,.309.453,2.075,2.075,0,0,0,1.448.451,2.858,2.858,0,0,0,1.628-.451,1.42,1.42,0,0,0,.676-1.254v-13.4c.826-.266,1.593-.535,2.3-.795a5.761,5.761,0,0,0,1.9-1.147h.406Z" transform="translate(-220.572 -588.395)"/></g><g transform="translate(133.796 182.799)"><path class="c" d="M330.969,764.151a4.574,4.574,0,0,1,1.769-3.746,6.932,6.932,0,0,1,4.527-1.424,5.469,5.469,0,0,1,2.826.662,2.468,2.468,0,0,1,1.354,2.254,1.994,1.994,0,0,1-.381,1.2,1.764,1.764,0,0,1-1.521.724,1.7,1.7,0,0,1-1.127-.419,1.323,1.323,0,0,1-.487-1.036,1.361,1.361,0,0,1,.853-1.378c.569-.229.856-.4.856-.5a1.491,1.491,0,0,0-.308-.457,2.1,2.1,0,0,0-1.449-.441,2.9,2.9,0,0,0-1.627.441,1.452,1.452,0,0,0-.676,1.264V774.7c-.822.266-1.593.533-2.3.8a5.514,5.514,0,0,0-1.9,1.158h-.4Zm.073,13.942a5.263,5.263,0,0,1,1.839-1.919,4.2,4.2,0,0,1,2.193-.67,18.808,18.808,0,0,1,2.52.548,7.583,7.583,0,0,0,1.856.267,4.649,4.649,0,0,0,1.059-.137,2.124,2.124,0,0,0,.907-.442h.265v.335a5.481,5.481,0,0,1-1.769,2.376,4.616,4.616,0,0,1-2.693.708,6.763,6.763,0,0,1-2.319-.388,6.373,6.373,0,0,0-2.128-.389c-.219,0-.476,0-.771.016s-.609.053-.959.106Z" transform="translate(-330.969 -758.981)"/></g><g transform="translate(33 18.787)"><path class="d" d="M269.173,641.883l-5.4,2.14,1.237,2.273,21.377-.259,1.5-2.014-4.778-2.14Z" transform="translate(-231.375 -593.021)"/><g transform="translate(30.953 9.031)"><rect class="e" width="13.932" height="14.551" transform="translate(6.853 33.142)"/><path class="f" d="M283.113,638v3.544a8.423,8.423,0,0,1-5.688,2.654h-2.633a8.4,8.4,0,0,1-5.611-2.585v-3.487l1.2,1.911.314-4.846h10.828l.316,4.846Z" transform="translate(-262.328 -602.052)"/><path class="e" d="M277.425,602.052h-2.633c-6.883,0-12.464,4.7-12.464,10.508,0,0,.057,14.22.163,14.9.956,6.133,6.1,15.617,12.3,15.617h2.633c6.19,0,11.342-9.484,12.293-15.617.107-.677.164-14.9.164-14.9C289.882,606.748,284.3,602.052,277.425,602.052Z" transform="translate(-262.328 -602.052)"/><path class="c" d="M279.462,643.965a5.079,5.079,0,0,0,5.086-5.075c0-1.953-7.123-10.314-8.5-10.314s-8.289,8.612-8.289,10.28a5.072,5.072,0,0,0,5.071,5.09h.027a4.963,4.963,0,0,0,2.593-.727l1.386.008a4.983,4.983,0,0,0,2.613.738Z" transform="translate(-262.328 -602.052)"/><path class="e" d="M279.443,637.615a1.7,1.7,0,0,1-.874-.248l-.8-.48-3.259-.015-.809.495a1.643,1.643,0,0,1-.852.225,1.72,1.72,0,0,1-1.248-.507,1.74,1.74,0,0,1-.441-.746c.729-1.145,3.859-5.935,4.944-5.935s4.348,4.763,5.031,5.9a1.756,1.756,0,0,1-.453.8,1.729,1.729,0,0,1-1.234.507Z" transform="translate(-262.328 -602.052)"/><g transform="translate(5.362 14.943)"><path class="c" d="M268.1,618.906a1.75,1.75,0,0,0-.411,1.108,2.345,2.345,0,0,0,4.629,0,1.754,1.754,0,0,0-.415-1.108Z" transform="translate(-267.69 -616.995)"/><path class="f" d="M277,616.995h-1.789l-1.239,9.126,2.134,2.456,2.128-2.456Z" transform="translate(-267.69 -616.995)"/><path class="c" d="M284.109,618.906a1.719,1.719,0,0,1,.418,1.108,2.347,2.347,0,0,1-4.633,0,1.75,1.75,0,0,1,.411-1.108Z" transform="translate(-267.69 -616.995)"/></g><g class="g" transform="translate(11.274 31.12)"><rect class="h" width="5.096" height="1.257"/></g><path class="c" d="M279.665,613.972l6.9.834-6.9.837Z" transform="translate(-262.328 -602.052)"/><path class="c" d="M272.552,615.643l-6.754-.837,6.754-.834Z" transform="translate(-262.328 -602.052)"/></g><path class="d" d="M310.9,645.857l-5.273,4.942-2.317,7.017s7.826-1.569,7.873-1.371Z" transform="translate(-231.375 -593.021)"/><path class="d" d="M241.867,645.857l5.277,4.942,2.313,7.017s-7.824-1.569-7.867-1.371Z" transform="translate(-231.375 -593.021)"/><path class="i" d="M245.037,649.745l-.733,1.473-1.727,5.612s9.745-2.723,9.306-2.425Z" transform="translate(-231.375 -593.021)"/><path class="j" d="M317.237,665.149l-5.264,1.568-9.487,2.833-.607.179-12.172,3.632-.339.106-.746.213-3.712,1.112-1.432.43-4.635,1.386-2.309.685-8.964,2.681-1.875.548-.421.122-2.341.7-1.479.45-4.245,1.267-6.4,1.908-.01-1.809-.049-5.273-4.215,7.128v1.221l-4.46,1.337-10.7,3.194V675.752l.038-.777V674.9l.1-2.257.363-.841,2.108-5,2.107-4.988,2.248-5.341.845-2,.946-2.254,1.569-.377,2.6-.616.126-.042.2-.042.317-.088.168-.03.556-.141.759-.187h.012l.078-.026.39-.092,7.114-1.717.754-.186.325-.069.771-.205,5.7-1.371.1-.019.651-.168,2.154-.533.476-.11,4.223-1.013h13.932l3.308.808.8.194.459.106,5.05,1.23,4.553,1.108,8.467,2.048.488.118,1.959.48,2.7.659.163.026,1.015.255,2.107,5.281,2.111,5.292.593,1.465Z" transform="translate(-231.375 -593.021)"/><path class="k" d="M292.734,647.525l-14.658,14.669-.632.625-2.494,2.49-.021.026-4.03,4.028-.209.213-7.047,7.04-2.163,2.17-.994.986-1.08,1.085-2.2,2.2-6.4,1.907-.01-1.808,6.558-6.545,1.089-1.093.761-.758,2.254-2.269.689-.693.689-.678.287-.29,8.3-8.284.13-.129.312-.316.01-.015,2.375-2.384.605-.609,12.827-12.8Z" transform="translate(-231.375 -593.021)"/><path class="k" d="M310.9,651.938l-8.814,8.806-12.49,12.5-.227.225-.746.213-3.712,1.112-1.432.43-4.635,1.386-2.309.685-8.964,2.68-1.875.548-.421.122.329-.328,1.325-1.325,6.292-6.282.638-.64,3.392-3.392.394-.4,3.306-3.312,16.337-16.337,8.467,2.048.487.118,1.959.48Z" transform="translate(-231.375 -593.021)"/><path class="f" d="M289.707,673.361l-.339.106-.746.213-3.712,1.112-1.432.43-4.635,1.386-2.309.685-8.964,2.681-1.875.548-.421.122-2.341.7-1.479.45-.967-2.022-2.039-4.249-6.579-13.691-3.186-6.662-.3-.636-.01-.019-1.781-3.716v-.008l-.063-.121.39-.092,7.114-1.717.754-.186.325-.069.771-.205,5.7-1.371.1-.019.651-.168c2.014,2.056,6.78,6.716,12.529,12.256,1.039,1.005,2.119,2.04,3.219,3.095.94.914,1.89,1.839,2.874,2.776,2.85,2.741,5.787,5.558,8.645,8.272A1.489,1.489,0,0,1,289.707,673.361Z" transform="translate(-231.375 -593.021)"/><path class="c" d="M276.534,677.293l-8.964,2.681-1.875.548-.421.122-2.341.7-1.453-2.558-2.271-4.021-7.34-12.933-2.608-4.61-1.083-1.927-2.5-4.412-.638-1.138.767-.2,14.755-3.69c.15.214.5.61,1.015,1.173,2.086,2.235,6.917,7.032,12.677,12.678,1.038,1.013,2.1,2.063,3.193,3.11.946.926,1.9,1.866,2.861,2.8,2.753,2.691,5.583,5.425,8.317,8.063l-3.712,1.112-1.432.43-4.635,1.386Z" transform="translate(-231.375 -593.021)"/><path class="l" d="M263.772,644.022l.714,2.3,11.035,6.4-.324-7.538Z" transform="translate(-231.375 -593.021)"/><path class="l" d="M287.891,644.022l-.72,2.3-11.029,6.4.32-7.538Z" transform="translate(-231.375 -593.021)"/><path class="f" d="M274.95,665.308,277,667.486c-.737-.754-1.435-1.481-2.073-2.151-1.224-1.268-2.261-2.364-3.063-3.228-.77-.815-1.326-1.4-1.635-1.733l1.645,1.717Z" transform="translate(-231.375 -593.021)"/><path class="f" d="M277.644,668.282c2.455,2.315,4.923,4.542,7.266,6.51l-1.432.43-6.228-6.544-2.762-2.9-.3-.332-2.76-2.9-5.483-5.764-.14-.164a.828.828,0,0,0,.15.152c1.7,1.748,3.6,3.671,5.6,5.646.929.925,1.9,1.862,2.869,2.795.1.1.2.2.308.316C275.7,666.45,276.663,667.368,277.644,668.282Z" transform="translate(-231.375 -593.021)"/><path class="f" d="M267.57,679.974l-1.875.548-.091-.206-1.961-3.7-2.18-4.12-2.4-4.591-2.911-5.14,6,9.039,2.515,3.788,2.261,3.4Z" transform="translate(-231.375 -593.021)"/><path class="f" d="M278.843,676.608l-2.309.685-1.711-2.585-1.6-2-2.53-3.133-1.222-1.515,1.432,1.3,2.958,2.707Z" transform="translate(-231.375 -593.021)"/><path class="f" d="M250.752,677.887l-4.214,7.127v1.222l-4.46,1.336-3.249-.659,4.472-2.037Z" transform="translate(-231.375 -593.021)"/><path class="f" d="M317.237,665.149l-5.263,1.568-9.488,2.833-.607.179-.571-7.123.777-1.862,1.224-2.928,2.933-7.017,1.959.48,2.7.659.164.027,1.015.255,2.107,5.281,2.111,5.292.592,1.465Z" transform="translate(-231.375 -593.021)"/><path class="j" d="M311.973,666.717l-9.487,2.833-.051-6.732,2.425-4.838.256-.526,3.085-6.175,2.7-5.422s6.883,8.677,7.093,8.513a21.137,21.137,0,0,1,.514,2.589c.314,1.911.757,4.668,1.187,7.459l-2.21.643-.245.088Z" transform="translate(-231.375 -593.021)"/><path class="f" d="M250.938,663.367l-.186,11.973-16.314-2.768a8.147,8.147,0,0,1,.083-1.309l4.666-16.79.946-2.254,4.3-1.035.2-.042.317-.088.168-.03Z" transform="translate(-231.375 -593.021)"/><path class="j" d="M250.752,676.718l-15.408-1.378-3.931-.365h-.01a.3.3,0,0,1,.01-.061V674.9c.044-.308.219-1.473.466-3.1.861-5.776,2.618-17.434,2.8-17.434.227.164,7.1-8.513,7.1-8.513l.048.111,2.6,5.216,5.808,11.634Z" transform="translate(-231.375 -593.021)"/><path class="k" d="M319.7,664.41h-.013l-2.21.651-.232.088-1.122.335-4.146,1.233,2.2-9.217.535-2.254-3.794-9.374c.4.5,6.761,8.5,7.074,8.5a23.379,23.379,0,0,1,.519,2.6c.021.137.052.266.073.418.1.625.215,1.287.333,2.041a8.93,8.93,0,0,0,.15.941,2.427,2.427,0,0,0,.051.335c.082.532.164,1.069.248,1.637.019.083.019.163.034.255C319.517,663.188,319.6,663.8,319.7,664.41Z" transform="translate(-231.375 -593.021)"/><path class="k" d="M241.816,645.975l-3.761,9.271.28,1.222L241.58,670l-6.24,5.337-1.367,1.173s-2.025,8.227-2.261,8.5c-.052.068-.152.034-.337-.035v-9.224l.032-.781V674.9l.1-2.257.369-.841v-.05c.6-3.925,1.59-10.538,2.22-14.369a25.532,25.532,0,0,1,.586-3.015c.339,0,7.093-8.513,7.093-8.513h.089Z" transform="translate(-231.375 -593.021)"/><path class="c" d="M288.6,601.979l-5.248-3.31a50.156,50.156,0,0,0-7.2-5.648s-5.684,3.7-7.816,5.981l-4.725,2.977-3.241,5.57,1.277,13.173,1.675.986.289-12.118s.3-4.224,3.933-4.224,8.563,2.539,8.563,2.539,5.006-2.539,8.562-2.539,3.927,4.224,3.927,4.224l.288,12.118,1.676-.986,1.278-13.173Z" transform="translate(-231.375 -593.021)"/><g transform="translate(0.504 54.729)"><path class="c" d="M236.615,665.285c-.337,2.037-1.591,3.511-2.8,3.313a1.618,1.618,0,0,1-1.039-.72l.7,4.15-1.6-.274c.6-3.925,1.59-10.538,2.22-14.369.068-.083.1-.136.1-.136S236.844,663.873,236.615,665.285Z" transform="translate(-231.879 -647.75)"/><path class="c" d="M319.683,664.41l-2.21.651-.232.088-1.122.335a1.042,1.042,0,0,1-.051-.2c-.23-1.412,2.412-8.036,2.412-8.036a.922.922,0,0,0,.1.136c.1.625.215,1.287.333,2.041a8.93,8.93,0,0,0,.15.941,2.427,2.427,0,0,0,.051.335c.082.532.164,1.069.248,1.637.019.083.019.163.034.255C319.5,663.188,319.584,663.793,319.683,664.41Z" transform="translate(-231.879 -647.75)"/><g transform="translate(19.658)"><path class="f" d="M264.949,652.768c-.762-1.455-10.171-5.018-10.171-5.018s-3.783,9.438-3.175,10.854a4.681,4.681,0,0,0,6.314,2.4,4.417,4.417,0,0,0,1.861-1.656l-1.275,5.692,6.729-2.638-4.348-3.568a4.181,4.181,0,0,0,2.336-.365A4.085,4.085,0,0,0,264.949,652.768Z" transform="translate(-251.537 -647.75)"/><path class="m" d="M264.646,652.87c-.674-1.4-9.663-4.408-9.663-4.408s-2.918,9.038-2.339,10.233a4.029,4.029,0,0,0,5.4,1.862,3.907,3.907,0,0,0,1.624-1.432l-.384,5,5.532-2.681-4.162-2.787a4.108,4.108,0,0,0,2.125-.384A4.037,4.037,0,0,0,264.646,652.87Z" transform="translate(-251.537 -647.75)"/><path class="f" d="M260.761,660.134l1.7,1.143-1.855.906Zm-4.477-.339a2.848,2.848,0,0,1-2.586-1.614c-.091-.693.926-4.622,2.039-8.223,3.585,1.26,7.361,2.847,7.906,3.5a2.823,2.823,0,0,1,.082,2.106,2.861,2.861,0,0,1-1.461,1.652,2.943,2.943,0,0,1-1.246.282c-.09,0-.175,0-.257-.008l-2.087,1.013a2.753,2.753,0,0,1-1.142,1.009A2.972,2.972,0,0,1,256.284,659.795Z" transform="translate(-251.537 -647.75)"/></g></g><path class="f" d="M319.7,664.41c-.043-.3-.1-.606-.146-.906-.082-.548-.166-1.082-.254-1.611-.062-.411-.123-.8-.179-1.191a2.427,2.427,0,0,1-.051-.335,8.93,8.93,0,0,1-.15-.941c-.118-.754-.236-1.416-.333-2.041-.021-.152-.052-.281-.073-.418q-.1-.565-.184-1.028c-.061-.358-.12-.651-.172-.891a2.719,2.719,0,0,0-.163-.678c-.313,0-6.672-8-7.074-8.5l.008.027c-.008-.015-.027-.042-.027-.042l-5.144,4.824-8.467-2.048-4.553-1.108-5.05-1.23-.459-.106h0l.67-2.167-4.46-1.995a5.049,5.049,0,0,0,1.117-3.137c0-.008-.007-.015-.007-.023a25.7,25.7,0,0,0,5.177-11.41c.044-.293.082-3.164.113-6.3l.73-.43,1.278-13.173-3.242-5.57-5.248-3.31a50.156,50.156,0,0,0-7.2-5.648l-.27.179v84.3l.651-.206,2.309-.685,4.635-1.386,1.432-.43,3.712-1.112.746-.213.339-.106,12.172-3.632.607-.179,9.487-2.833h0l4.146-1.233,1.122-.335.112-.042.129-.046,2.21-.643v-.008Z" transform="translate(-231.375 -593.021)"/><g transform="translate(0 80.645)"><path class="d" d="M281.9,724.5l5.4-2.138-1.241-2.275-21.37.251-1.511,2.023,4.78,2.138Z" transform="translate(-231.375 -675.614)"/><g transform="translate(29.818 41.027)"><rect class="e" width="13.938" height="14.54" transform="translate(6.767)"/><path class="f" d="M267.96,728.378v-3.54a8.427,8.427,0,0,1,5.7-2.648h2.63a8.434,8.434,0,0,1,5.612,2.579v3.48l-1.2-1.911-.318,4.843H269.559l-.318-4.843Z" transform="translate(-261.193 -716.641)"/><path class="e" d="M273.656,764.334h2.627c6.879,0,12.463-4.706,12.463-10.516,0,0-.055-14.216-.166-14.9-.956-6.13-6.1-15.608-12.3-15.608h-2.627c-6.2,0-11.349,9.478-12.3,15.608-.108.685-.163,14.9-.163,14.9C261.193,759.628,266.768,764.334,273.656,764.334Z" transform="translate(-261.193 -716.641)"/><path class="c" d="M271.609,722.418a5.078,5.078,0,0,0-5.078,5.077c-.01,1.957,7.121,10.31,8.492,10.31s8.292-8.619,8.295-10.279a5.08,5.08,0,0,0-5.078-5.085h-.025a5.006,5.006,0,0,0-2.6.716l-1.38-.008a5.047,5.047,0,0,0-2.612-.731Z" transform="translate(-261.193 -716.641)"/><path class="e" d="M271.63,728.767a1.651,1.651,0,0,1,.874.251l.8.472,3.259.023.81-.495a1.556,1.556,0,0,1,.848-.236,1.741,1.741,0,0,1,1.25.51,1.785,1.785,0,0,1,.442.754c-.725,1.135-3.86,5.924-4.94,5.924s-4.352-4.759-5.037-5.894a1.669,1.669,0,0,1,.459-.8,1.717,1.717,0,0,1,1.226-.51Z" transform="translate(-261.193 -716.641)"/><g transform="translate(5.358 21.164)"><path class="c" d="M282.976,747.475a1.747,1.747,0,0,0,.413-1.111,2.348,2.348,0,0,0-4.636,0,1.726,1.726,0,0,0,.42,1.111Z" transform="translate(-266.551 -737.805)"/><path class="f" d="M274.076,749.387h1.786l1.235-9.13-2.13-2.452-2.128,2.452Z" transform="translate(-266.551 -737.805)"/><path class="c" d="M266.963,747.475a1.713,1.713,0,0,1-.412-1.111,2.347,2.347,0,0,1,4.634,0,1.741,1.741,0,0,1-.419,1.111Z" transform="translate(-266.551 -737.805)"/></g><g class="g" transform="translate(11.184 15.309)"><rect class="h" width="5.092" height="1.257"/></g><path class="c" d="M271.409,752.41l-6.9-.838,6.9-.83Z" transform="translate(-261.193 -716.641)"/><path class="c" d="M278.523,750.742l6.757.83-6.757.838Z" transform="translate(-261.193 -716.641)"/></g><path class="d" d="M240.175,720.521l5.273-4.942,2.319-7.017s-7.828,1.568-7.873,1.378Z" transform="translate(-231.375 -675.614)"/><path class="d" d="M309.208,720.521l-5.281-4.942-2.311-7.017s7.822,1.568,7.869,1.378Z" transform="translate(-231.375 -675.614)"/><path class="i" d="M306.036,716.641l.735-1.474,1.728-5.619s-9.746,2.722-9.31,2.433Z" transform="translate(-231.375 -675.614)"/><path class="j" d="M233.84,701.237l5.261-1.576,9.492-2.829.6-.171,12.172-3.64.339-.1.744-.22,3.716-1.108,1.433-.427,4.632-1.389,2.307-.686,8.964-2.68,1.877-.541.421-.125,2.338-.705,1.48-.445,4.253-1.268,6.392-1.907.012,1.8.044,5.277,4.214-7.127v-1.222l4.462-1.34,10.7-3.2v15.02l-.03.769v.084l-.107,2.253-.36.834-2.107,5-2.113,4.991-2.246,5.346-.849,2-.938,2.25-1.573.385-2.6.617-.129.034-.2.046-.324.083-.171.035-.554.144-.754.176h-.016l-.077.03-.386.087-7.118,1.729-.757.183-.322.068-.771.2-5.692,1.378-.106.023-.653.164-2.153.526-.48.11-4.215,1.016H267.96l-3.31-.8-.8-.191-.453-.11-5.056-1.233-4.555-1.1L245.32,715.7l-.488-.118-1.954-.48-2.7-.651-.166-.034-1.01-.252-2.108-5.276-2.107-5.3-.6-1.458Z" transform="translate(-231.375 -675.614)"/><path class="k" d="M258.339,718.857,273,704.191l.626-.625,2.492-2.494.019-.026,4.03-4.025.213-.213,7.045-7.043L289.6,687.6l.986-.993,1.087-1.078,2.2-2.2,6.392-1.908.011,1.8-6.56,6.545-1.089,1.1-.761.754-2.258,2.273-.689.685-.687.685-.287.281-8.29,8.292-.133.126-.314.312-.011.015-2.374,2.383-.607.613L263.4,720.09Z" transform="translate(-231.375 -675.614)"/><path class="k" d="M240.175,714.448l8.816-8.81,12.493-12.5.223-.217.744-.221,3.716-1.108,1.434-.426,4.632-1.389,2.307-.685,8.964-2.68,1.877-.541.421-.126-.324.324-1.331,1.321-6.288,6.293-.639.636-3.391,3.392-.4.392-3.3,3.316-16.342,16.337L245.32,715.7l-.489-.118-1.953-.479Z" transform="translate(-231.375 -675.614)"/><path class="f" d="M261.368,693.021l.339-.1.744-.22,3.716-1.108,1.433-.427,4.632-1.389,2.307-.686,8.964-2.68,1.877-.541.421-.125,2.338-.705,1.48-.445.965,2.014,2.043,4.256,6.579,13.691,3.187,6.663.3.635.019.023,1.778,3.7v.015l.061.118-.386.087-7.118,1.729-.757.183-.322.068-.771.2-5.692,1.378-.106.023-.653.164c-2.016-2.064-6.779-6.724-12.532-12.259-1.032-1-2.117-2.037-3.209-3.092-.947-.917-1.9-1.839-2.879-2.775-2.855-2.741-5.788-5.559-8.642-8.281A.651.651,0,0,1,261.368,693.021Z" transform="translate(-231.375 -675.614)"/><path class="c" d="M274.539,689.088l8.964-2.68,1.877-.541.421-.125,2.338-.705,1.46,2.562,2.267,4.017,7.34,12.937,2.6,4.607,1.087,1.93,2.5,4.416.638,1.135-.765.2-14.757,3.678a15.2,15.2,0,0,0-1.009-1.166c-2.086-2.234-6.921-7.032-12.684-12.685-1.039-1.013-2.1-2.056-3.19-3.1q-1.419-1.4-2.865-2.8c-2.749-2.695-5.581-5.428-8.315-8.074l3.716-1.108,1.433-.427,4.632-1.389Z" transform="translate(-231.375 -675.614)"/><path class="l" d="M287.3,722.365l-.716-2.309-11.033-6.4.322,7.538Z" transform="translate(-231.375 -675.614)"/><path class="l" d="M263.18,722.365l.72-2.309,11.029-6.4-.318,7.538Z" transform="translate(-231.375 -675.614)"/><path class="f" d="M276.123,701.073l-2.051-2.174c.733.754,1.434,1.481,2.07,2.148,1.224,1.271,2.261,2.364,3.064,3.224.77.819,1.333,1.413,1.634,1.744l-1.645-1.729Z" transform="translate(-231.375 -675.614)"/><path class="f" d="M273.429,698.1c-2.45-2.311-4.924-4.546-7.262-6.51l1.433-.427,6.229,6.545,2.755,2.9.306.324,2.764,2.9,5.482,5.764.141.157c-.051-.038-.093-.1-.154-.141-1.7-1.748-3.594-3.674-5.6-5.654-.931-.921-1.9-1.865-2.865-2.791-.1-.11-.206-.205-.312-.315C275.378,699.927,274.412,699.01,273.429,698.1Z" transform="translate(-231.375 -675.614)"/><path class="f" d="M283.5,686.408l1.877-.541.1.2,1.953,3.7,2.178,4.123,2.414,4.588,2.908,5.143-6.011-9.046-2.511-3.78-2.262-3.407Z" transform="translate(-231.375 -675.614)"/><path class="f" d="M272.232,689.774l2.307-.685,1.713,2.589,1.607,2,2.526,3.129,1.222,1.515-1.435-1.3-2.952-2.707Z" transform="translate(-231.375 -675.614)"/><path class="f" d="M300.32,688.5l4.214-7.127v-1.222l4.462-1.34,3.248.662-4.464,2.037Z" transform="translate(-231.375 -675.614)"/><path class="f" d="M233.84,701.237l5.262-1.576,9.491-2.829.6-.171.577,7.112-.782,1.865-1.224,2.931-2.935,7.009-1.953-.479-2.7-.651-.166-.034L239,714.162l-2.108-5.277-2.107-5.3-.6-1.458Z" transform="translate(-231.375 -675.614)"/><path class="j" d="M239.1,699.661l9.492-2.829.049,6.735-2.427,4.839-.253.525-3.084,6.168-2.7,5.422s-6.881-8.67-7.093-8.51a23.365,23.365,0,0,1-.513-2.585c-.313-1.911-.754-4.675-1.186-7.462l2.213-.643.244-.084Z" transform="translate(-231.375 -675.614)"/><path class="f" d="M300.135,703.019l.185-11.974,16.313,2.764a7.3,7.3,0,0,1-.082,1.313l-4.667,16.79-.938,2.25-4.3,1.036-.2.046-.324.083-.171.035Z" transform="translate(-231.375 -675.614)"/><path class="j" d="M300.32,689.663l15.409,1.382,3.937.358h.007a.335.335,0,0,1-.007.061v.023c-.052.308-.227,1.473-.467,3.087-.862,5.78-2.621,17.437-2.806,17.437-.222-.16-7.1,8.51-7.1,8.51l-.04-.1-2.611-5.22-5.809-11.631Z" transform="translate(-231.375 -675.614)"/><path class="k" d="M231.375,701.972h.017l2.21-.651.231-.084,1.119-.335,4.153-1.241-2.21,9.217-.535,2.254,3.8,9.377c-.4-.5-6.76-8.5-7.078-8.5a22.927,22.927,0,0,1-.517-2.592c-.021-.137-.052-.267-.069-.423-.1-.617-.217-1.29-.333-2.037-.036-.308-.09-.624-.154-.94a2.78,2.78,0,0,0-.048-.335c-.086-.533-.167-1.07-.249-1.637-.021-.088-.021-.172-.038-.255C231.56,703.19,231.476,702.573,231.375,701.972Z" transform="translate(-231.375 -675.614)"/><path class="k" d="M309.259,720.406l3.767-9.274-.289-1.211-3.24-13.535,6.238-5.341,1.37-1.169s2.026-8.231,2.26-8.5c.049-.068.152-.034.331.027v9.225l-.03.788v.061l-.1,2.261-.364.834v.05c-.6,3.933-1.589,10.546-2.227,14.372a24.291,24.291,0,0,1-.586,3.015c-.331,0-7.093,8.517-7.093,8.517h-.085Z" transform="translate(-231.375 -675.614)"/><path class="c" d="M262.478,764.4l5.252,3.312a50.091,50.091,0,0,0,7.19,5.651s5.692-3.7,7.818-5.986l4.723-2.977,3.244-5.574-1.282-13.165-1.675-.99-.287,12.123s-.3,4.218-3.931,4.218-8.563-2.536-8.563-2.536-5.006,2.536-8.56,2.536-3.929-4.218-3.929-4.218l-.288-12.123-1.677.99-1.281,13.165Z" transform="translate(-231.375 -675.614)"/><g transform="translate(0.017 18.743)"><path class="c" d="M314.465,701.1c.335-2.037,1.59-3.514,2.791-3.309a1.542,1.542,0,0,1,1.039.72l-.706-4.154,1.61.267c-.6,3.933-1.589,10.546-2.227,14.372-.064.08-.1.141-.1.141S314.227,702.505,314.465,701.1Z" transform="translate(-231.392 -694.357)"/><path class="c" d="M231.392,701.972l2.21-.651.231-.084,1.119-.335a.634.634,0,0,1,.053.2c.236,1.405-2.41,8.037-2.41,8.037a.748.748,0,0,0-.1-.141c-.1-.617-.217-1.29-.333-2.037-.036-.308-.09-.624-.154-.94a2.78,2.78,0,0,0-.048-.335c-.086-.533-.167-1.07-.249-1.637-.021-.088-.021-.172-.038-.255C231.578,703.19,231.489,702.589,231.392,701.972Z" transform="translate(-231.392 -694.357)"/><g transform="translate(54.208 6.99)"><path class="f" d="M286.125,713.622c.766,1.443,10.176,5.014,10.176,5.014s3.778-9.442,3.171-10.862a4.688,4.688,0,0,0-6.318-2.4,4.562,4.562,0,0,0-1.86,1.66l1.276-5.688-6.723,2.639,4.343,3.563a4.2,4.2,0,0,0-2.339.37A4.094,4.094,0,0,0,286.125,713.622Z" transform="translate(-285.6 -701.347)"/><path class="m" d="M286.429,713.519c.672,1.4,9.663,4.4,9.663,4.4s2.92-9.038,2.337-10.222a4.041,4.041,0,0,0-5.4-1.873,3.935,3.935,0,0,0-1.615,1.431l.38-4.995-5.53,2.688,4.156,2.787a4.025,4.025,0,0,0-3.992,5.787Z" transform="translate(-285.6 -701.347)"/><path class="f" d="M290.314,706.247l-1.7-1.138,1.861-.906Zm4.476.343a2.857,2.857,0,0,1,2.59,1.618c.09.689-.929,4.61-2.046,8.216-3.581-1.257-7.359-2.844-7.9-3.5a2.864,2.864,0,0,1-.084-2.105,2.859,2.859,0,0,1,2.711-1.93c.086,0,.175.007.257.011l2.086-1.013a2.784,2.784,0,0,1,1.143-1.009A2.852,2.852,0,0,1,294.79,706.59Z" transform="translate(-285.6 -701.347)"/></g></g><path class="f" d="M231.375,701.972c.051.3.1.6.15.9.084.548.17,1.089.251,1.618.062.4.124.8.185,1.192a2.78,2.78,0,0,1,.048.335c.064.316.118.632.154.94.116.747.23,1.42.333,2.037.017.156.048.286.069.423.064.377.125.719.184,1.028.063.35.116.643.168.89a2.627,2.627,0,0,0,.165.674c.318,0,6.678,7.995,7.078,8.5l-.009-.023a.287.287,0,0,0,.024.035l5.145-4.824,8.464,2.056,4.555,1.1,5.056,1.233.453.11h.008l-.676,2.165,4.468,1.993a5,5,0,0,0-1.117,3.137v.015a25.86,25.86,0,0,0-5.175,11.407c-.047.3-.081,3.167-.112,6.312l-.731.434-1.281,13.165,3.246,5.574,5.252,3.312a50.091,50.091,0,0,0,7.19,5.651s.1-.062.274-.191V688.886l-.655.2-2.307.686-4.632,1.389-1.433.427-3.716,1.108-.744.22-.339.1-12.172,3.64-.6.171-9.488,2.829h0l-4.153,1.241-1.119.335-.115.034-.122.05-2.213.643v.008Z" transform="translate(-231.375 -675.614)"/></g></g></g><g transform="translate(209.536 610.554)"><path class="c" d="M234.322,621.228c0-1.953-8.5-10.311-8.5-10.311s-8.288,8.614-8.288,10.277a5.074,5.074,0,0,0,5.071,5.09,4.942,4.942,0,0,0,2.621-.723l-3.186,5.433,7.73.015-3.16-5.444a5.069,5.069,0,0,0,7.71-4.337Z" transform="translate(-217.536 -610.917)"/><path class="f" d="M234.322,621.228c0-1.953-8.5-10.311-8.5-10.311a.075.075,0,0,0-.013.015V631l3.961.007-3.16-5.444a5.069,5.069,0,0,0,7.71-4.337Z" transform="translate(-217.536 -610.917)"/></g><g transform="translate(333.625 734.294)"><path class="c" d="M328.544,745.671c-.011,1.957,8.494,10.31,8.494,10.31s8.292-8.612,8.292-10.272a5.083,5.083,0,0,0-7.7-4.371l3.186-5.436-7.734-.008,3.168,5.437a5.144,5.144,0,0,0-2.612-.739A5.092,5.092,0,0,0,328.544,745.671Z" transform="translate(-328.544 -735.894)"/><path class="f" d="M328.544,745.671c-.011,1.957,8.494,10.31,8.494,10.31a.038.038,0,0,1,.017-.008V735.9l-3.969-.008,3.168,5.437a5.144,5.144,0,0,0-2.612-.739A5.092,5.092,0,0,0,328.544,745.671Z" transform="translate(-328.544 -735.894)"/></g></g></svg>