<svg xmlns="http://www.w3.org/2000/svg" width="154" height="215" viewBox="0 0 154 215"><defs><style>.a{fill:#c9c9c9;}.b{fill:#fff;}.c{fill:#333;}.d{fill:#616161;opacity:0.2;}.e,.f{stroke:none;}.f{fill:#c4c4c4;}</style></defs><g transform="translate(-202.116 -829.506)"><g transform="translate(202.116 829.506)"><path class="a" d="M219.142,1044.506a16.382,16.382,0,0,1-16.556-16.161l-.47-182.558a16.382,16.382,0,0,1,16.529-16.282l120.935.226a16.456,16.456,0,0,1,16.512,16.289V1028.2a16.344,16.344,0,0,1-16.45,16.162Z" transform="translate(-202.116 -829.506)"/><g class="b" transform="translate(-202.116 -829.506)"><path class="e" d="M 339.819091796875 1043.549926757813 L 220.6568603515625 1043.549926757813 C 211.9447784423828 1043.549926757813 204.8570098876953 1036.507446289063 204.8570098876953 1027.850952148438 L 204.8570098876953 845.7189331054688 C 204.8570098876953 837.0586547851563 211.9447784423828 830.0130004882813 220.6568603515625 830.0130004882813 L 339.819091796875 830.0130004882813 C 348.5295104980469 830.0130004882813 355.6159362792969 837.0586547851563 355.6159362792969 845.7189331054688 L 355.6159362792969 1027.850952148438 C 355.6159362792969 1036.507446289063 348.5295104980469 1043.549926757813 339.819091796875 1043.549926757813 Z"/><path class="f" d="M 339.819091796875 1043.049926757813 C 348.2538146972656 1043.049926757813 355.1159362792969 1036.231689453125 355.1159362792969 1027.850952148438 L 355.1159362792969 845.7189331054688 C 355.1159362792969 837.3343505859375 348.2538146972656 830.5130004882813 339.819091796875 830.5130004882813 L 220.6568603515625 830.5130004882813 C 212.2205047607422 830.5130004882813 205.3570098876953 837.3343505859375 205.3570098876953 845.7189331054688 L 205.3570098876953 1027.850952148438 C 205.3570098876953 1036.231689453125 212.2205047607422 1043.049926757813 220.6568603515625 1043.049926757813 L 339.819091796875 1043.049926757813 M 339.819091796875 1044.049926757813 L 220.6568603515625 1044.049926757813 C 211.6735076904297 1044.049926757813 204.3570098876953 1036.782958984375 204.3570098876953 1027.850952148438 L 204.3570098876953 845.7189331054688 C 204.3570098876953 836.779052734375 211.6735076904297 829.5130004882813 220.6568603515625 829.5130004882813 L 339.819091796875 829.5130004882813 C 348.8094177246094 829.5130004882813 356.1159362792969 836.779052734375 356.1159362792969 845.7189331054688 L 356.1159362792969 1027.850952148438 C 356.1159362792969 1036.782958984375 348.8094177246094 1044.049926757813 339.819091796875 1044.049926757813 Z"/></g><g transform="translate(6.231 13.972)"><path class="c" d="M215.72,858.4c0,.281-.493.738-1.474,1.378a5.511,5.511,0,0,1-2.834,1.066,1.166,1.166,0,0,1-1.028-.594,1.6,1.6,0,0,1-.276-.807V847.064a.878.878,0,0,0-.107-.51.436.436,0,0,0-.346-.121,3.3,3.3,0,0,0-.558.083,1.626,1.626,0,0,1-.659.053.348.348,0,0,1-.091-.213c0-.175.186-.388.567-.647a10.086,10.086,0,0,0,1.194-.921c.335-.29.668-.579,1.024-.884a1.721,1.721,0,0,1,.9-.38,1.567,1.567,0,0,1,1.159.647,1.872,1.872,0,0,1,.557,1.21v13.113a.775.775,0,0,0,.142.137.491.491,0,0,0,.26.137c.13-.046.227-.084.314-.115a4.146,4.146,0,0,0,.783-.5h.4Z" transform="translate(-208.347 -843.478)"/><path class="c" d="M230.847,852.394a6.745,6.745,0,0,1-.57,2.719,9.042,9.042,0,0,1-3.187,3.685,19.336,19.336,0,0,1-1.862,1.2,6.561,6.561,0,0,1-3.278.792,5.374,5.374,0,0,1-4.5-2.375,8.676,8.676,0,0,1-.638-9.13,11.52,11.52,0,0,1,1.658-2.429,12.632,12.632,0,0,1,2.643-2.285,6.263,6.263,0,0,1,3.382-1.1,5.418,5.418,0,0,1,4.729,2.855A11.13,11.13,0,0,1,230.847,852.394Zm-3.614,2.6a12.138,12.138,0,0,0-.476-3.389,10.985,10.985,0,0,0-1.4-3.053,7.605,7.605,0,0,0-1.927-2.193,2.108,2.108,0,0,0-1.212-.449,2.519,2.519,0,0,0-2.176,1.272,5.064,5.064,0,0,0-.847,2.885,8.736,8.736,0,0,0,.19,1.874,14.427,14.427,0,0,0,1.076,3.053,7.868,7.868,0,0,0,2.018,2.924,2.913,2.913,0,0,0,1.85.761,2.561,2.561,0,0,0,2.145-.982A4.338,4.338,0,0,0,227.233,854.991Z" transform="translate(-208.347 -843.478)"/></g><g transform="translate(128.534 185.258)"><path class="c" d="M346.975,1019.4c0-.281.493-.753,1.469-1.378a5.468,5.468,0,0,1,2.837-1.074,1.158,1.158,0,0,1,1.018.594,1.57,1.57,0,0,1,.288.815v12.366a.823.823,0,0,0,.107.51.429.429,0,0,0,.346.129,3.241,3.241,0,0,0,.558-.1,1.744,1.744,0,0,1,.655-.045.4.4,0,0,1,.1.221c0,.167-.191.388-.577.639a11.625,11.625,0,0,0-1.186.929c-.335.282-.674.579-1.024.876a1.773,1.773,0,0,1-.9.388,1.545,1.545,0,0,1-1.151-.647,1.891,1.891,0,0,1-.558-1.211v-13.1a.6.6,0,0,0-.145-.145.408.408,0,0,0-.264-.144,2.814,2.814,0,0,0-.3.114,4.763,4.763,0,0,0-.788.5h-.4Z" transform="translate(-331.843 -1016.949)"/><path class="c" d="M331.843,1025.394a6.737,6.737,0,0,1,.569-2.711A9.045,9.045,0,0,1,335.6,1019a21.212,21.212,0,0,1,1.858-1.211,6.665,6.665,0,0,1,3.278-.784,5.365,5.365,0,0,1,4.5,2.375,8.465,8.465,0,0,1,1.645,5.209,8.628,8.628,0,0,1-1,3.929,12.011,12.011,0,0,1-1.662,2.421,12.8,12.8,0,0,1-2.643,2.285,6.311,6.311,0,0,1-3.38,1.1,5.425,5.425,0,0,1-4.732-2.855A11.181,11.181,0,0,1,331.843,1025.394Zm3.611-2.589a12.122,12.122,0,0,0,.48,3.381,10.974,10.974,0,0,0,1.409,3.061,7.606,7.606,0,0,0,1.922,2.193,2.153,2.153,0,0,0,1.213.449,2.523,2.523,0,0,0,2.172-1.272,5.093,5.093,0,0,0,.851-2.893,8.763,8.763,0,0,0-.193-1.881,14.12,14.12,0,0,0-1.073-3.038,7.927,7.927,0,0,0-2.022-2.924,2.905,2.905,0,0,0-1.852-.761,2.542,2.542,0,0,0-2.138.982A4.308,4.308,0,0,0,335.454,1022.8Z" transform="translate(-331.843 -1016.949)"/></g></g><g transform="translate(213.547 845.473)"><g transform="translate(78.547)"><path class="c" d="M326.614,866.1c.017-3.906-17.005-20.627-17.005-20.627s-16.588,17.247-16.592,20.566a10.175,10.175,0,0,0,10.156,10.188,10.045,10.045,0,0,0,5.242-1.446l-6.373,10.865,15.475.031L311.185,874.8a10.272,10.272,0,0,0,5.233,1.462A10.169,10.169,0,0,0,326.614,866.1Z" transform="translate(-293.017 -845.473)"/><path class="d" d="M326.614,866.1c.017-3.906-17.005-20.627-17.005-20.627a.069.069,0,0,0-.03.03v40.159l7.938.015L311.185,874.8a10.272,10.272,0,0,0,5.233,1.462A10.169,10.169,0,0,0,326.614,866.1Z" transform="translate(-293.017 -845.473)"/></g><g transform="translate(78.547 47.475)"><path class="c" d="M326.614,914.307c.017-3.914-17.005-20.635-17.005-20.635s-16.588,17.247-16.592,20.574a10.159,10.159,0,0,0,10.156,10.181,9.908,9.908,0,0,0,5.242-1.447l-6.373,10.866,15.475.03-6.332-10.888a10.146,10.146,0,0,0,15.429-8.681Z" transform="translate(-293.017 -893.672)"/><path class="d" d="M326.614,914.307c.017-3.914-17.005-20.635-17.005-20.635a.305.305,0,0,0-.03.031v40.166l7.938.007-6.332-10.888a10.146,10.146,0,0,0,15.429-8.681Z" transform="translate(-293.017 -893.672)"/></g><g transform="translate(21.408)"><path class="c" d="M235.207,866.1c-.017-3.906,17.005-20.627,17.005-20.627S268.8,862.72,268.8,866.039a10.175,10.175,0,0,1-15.4,8.742l6.377,10.865-15.472.031,6.333-10.881a10.292,10.292,0,0,1-5.233,1.462A10.169,10.169,0,0,1,235.207,866.1Z" transform="translate(-235.207 -845.473)"/><path class="d" d="M235.207,866.1c-.017-3.906,17.005-20.627,17.005-20.627a.069.069,0,0,1,.03.03v40.159l-7.936.015,6.333-10.881a10.292,10.292,0,0,1-5.233,1.462A10.169,10.169,0,0,1,235.207,866.1Z" transform="translate(-235.207 -845.473)"/></g><g transform="translate(49.941 27.541)"><path class="c" d="M264.075,893.649c-.013-3.913,17.009-20.635,17.009-20.635s16.584,17.247,16.591,20.567a10.168,10.168,0,0,1-10.157,10.188,9.978,9.978,0,0,1-5.243-1.447l6.377,10.858-15.474.046,6.326-10.9a10.155,10.155,0,0,1-15.429-8.681Z" transform="translate(-264.075 -873.014)"/><path class="d" d="M264.075,893.649c-.013-3.913,17.009-20.635,17.009-20.635a.246.246,0,0,1,.03.023V913.2l-7.936.023,6.326-10.9a10.155,10.155,0,0,1-15.429-8.681Z" transform="translate(-264.075 -873.014)"/></g><g transform="translate(21.408 47.475)"><path class="c" d="M235.207,914.307c-.017-3.914,17.005-20.635,17.005-20.635S268.8,910.919,268.8,914.246a10.158,10.158,0,0,1-10.156,10.181,9.939,9.939,0,0,1-5.247-1.447l6.377,10.866-15.472.03,6.333-10.888a10.148,10.148,0,0,1-15.432-8.681Z" transform="translate(-235.207 -893.672)"/><path class="d" d="M235.207,914.307c-.017-3.914,17.005-20.635,17.005-20.635a.305.305,0,0,1,.03.031v40.166l-7.936.007,6.333-10.888a10.148,10.148,0,0,1-15.432-8.681Z" transform="translate(-235.207 -893.672)"/></g><g transform="translate(78.47 143.243)"><path class="c" d="M326.54,1010.477c.013,3.914-17.009,20.635-17.009,20.635s-16.584-17.246-16.592-20.566a10.167,10.167,0,0,1,10.156-10.2,10.036,10.036,0,0,1,5.242,1.447l-6.373-10.858,15.479-.038-6.334,10.888a10.156,10.156,0,0,1,15.431,8.688Z" transform="translate(-292.939 -990.901)"/><path class="d" d="M326.54,1010.477c.013,3.914-17.009,20.635-17.009,20.635a.232.232,0,0,1-.025-.03V990.916l7.937-.015-6.334,10.888a10.156,10.156,0,0,1,15.431,8.688Z" transform="translate(-292.939 -990.901)"/></g><g transform="translate(78.47 95.767)"><path class="c" d="M326.54,962.27c.013,3.914-17.009,20.635-17.009,20.635s-16.584-17.246-16.592-20.574a10.168,10.168,0,0,1,10.156-10.18,9.9,9.9,0,0,1,5.242,1.446l-6.373-10.873,15.479-.023-6.334,10.881a10.167,10.167,0,0,1,15.431,8.688Z" transform="translate(-292.939 -942.701)"/><path class="d" d="M326.54,962.27c.013,3.914-17.009,20.635-17.009,20.635a.232.232,0,0,1-.025-.03V942.716l7.937-.015-6.334,10.881a10.167,10.167,0,0,1,15.431,8.688Z" transform="translate(-292.939 -942.701)"/></g><g transform="translate(21.329 143.243)"><path class="c" d="M235.127,1010.477c-.013,3.914,17.01,20.635,17.01,20.635s16.585-17.246,16.591-20.566a10.168,10.168,0,0,0-10.156-10.2,10.042,10.042,0,0,0-5.243,1.447l6.373-10.858-15.47-.038,6.325,10.888a10.156,10.156,0,0,0-15.43,8.688Z" transform="translate(-235.127 -990.901)"/><path class="d" d="M235.127,1010.477c-.013,3.914,17.01,20.635,17.01,20.635a.212.212,0,0,0,.023-.03V990.916l-7.928-.015,6.325,10.888a10.156,10.156,0,0,0-15.43,8.688Z" transform="translate(-235.127 -990.901)"/></g><g transform="translate(49.866 115.762)"><path class="c" d="M264,982.57C263.982,986.476,281,1003.2,281,1003.2s16.588-17.239,16.591-20.567a10.165,10.165,0,0,0-10.155-10.188A9.931,9.931,0,0,0,282.2,973.9l6.373-10.874L273.1,963l6.331,10.881A10.157,10.157,0,0,0,264,982.57Z" transform="translate(-263.999 -963.001)"/><path class="d" d="M264,982.57C263.982,986.476,281,1003.2,281,1003.2a.13.13,0,0,0,.028-.031V963.009L273.1,963l6.331,10.881A10.157,10.157,0,0,0,264,982.57Z" transform="translate(-263.999 -963.001)"/></g><g transform="translate(21.329 95.767)"><path class="c" d="M235.127,962.27c-.013,3.914,17.01,20.635,17.01,20.635s16.585-17.246,16.591-20.574a10.168,10.168,0,0,0-10.156-10.18,9.9,9.9,0,0,0-5.243,1.446l6.373-10.873-15.47-.023,6.325,10.881a10.166,10.166,0,0,0-15.43,8.688Z" transform="translate(-235.127 -942.701)"/><path class="d" d="M235.127,962.27c-.013,3.914,17.01,20.635,17.01,20.635a.212.212,0,0,0,.023-.03V942.716l-7.928-.015,6.325,10.881a10.166,10.166,0,0,0-15.43,8.688Z" transform="translate(-235.127 -942.701)"/></g><g transform="translate(0 22.546)"><path class="c" d="M222.5,873.525c.008-1.052-4.536-5.506-4.536-5.506s-4.421,4.6-4.421,5.483a2.7,2.7,0,0,0,2.7,2.718,2.64,2.64,0,0,0,1.4-.388l-1.694,2.9,4.125.007-1.691-2.908a2.7,2.7,0,0,0,4.116-2.307Z" transform="translate(-213.547 -868.019)"/><path class="d" d="M222.5,873.525c.008-1.052-4.536-5.506-4.536-5.506a.008.008,0,0,0-.008.008v10.706l2.119.007-1.691-2.908a2.7,2.7,0,0,0,4.116-2.307Z" transform="translate(-213.547 -868.019)"/></g><g transform="translate(126.153 151.908)"><path class="c" d="M340.893,1004.789c0,1.043,4.532,5.5,4.532,5.5s4.428-4.592,4.428-5.483a2.713,2.713,0,0,0-2.711-2.718,2.581,2.581,0,0,0-1.4.388l1.7-2.9-4.129-.007,1.687,2.908a2.616,2.616,0,0,0-1.392-.4A2.709,2.709,0,0,0,340.893,1004.789Z" transform="translate(-340.893 -999.566)"/><path class="d" d="M340.893,1004.789c0,1.043,4.532,5.5,4.532,5.5h.008V999.573l-2.115-.007,1.687,2.908a2.616,2.616,0,0,0-1.392-.4A2.709,2.709,0,0,0,340.893,1004.789Z" transform="translate(-340.893 -999.566)"/></g></g></g></svg>