<svg xmlns="http://www.w3.org/2000/svg" width="154" height="215" viewBox="0 0 154 215"><defs><style>.a{fill:#c9c9c9;}.b{fill:#fff;}.c{fill:#333;}.d{fill:#616161;opacity:0.2;}.e,.f{stroke:none;}.f{fill:#c4c4c4;}</style></defs><g transform="translate(-772.598 -572.521)"><g transform="translate(772.598 572.521)"><path class="a" d="M789.62,787.521a16.4,16.4,0,0,1-16.554-16.169L772.6,588.79a16.372,16.372,0,0,1,16.533-16.269l120.933.222a16.447,16.447,0,0,1,16.5,16.295V771.21a16.336,16.336,0,0,1-16.449,16.168Z" transform="translate(-772.598 -572.521)"/><g class="b" transform="translate(-772.598 -572.521)"><path class="e" d="M 910.288818359375 786.5679321289063 L 791.1090087890625 786.5679321289063 C 782.3973999023438 786.5679321289063 775.3099975585938 779.5214233398438 775.3099975585938 770.860107421875 L 775.3099975585938 588.730712890625 C 775.3099975585938 580.0744018554688 782.3973999023438 573.031982421875 791.1090087890625 573.031982421875 L 910.288818359375 573.031982421875 C 919.0059814453125 573.031982421875 926.0979614257813 580.0744018554688 926.0979614257813 588.730712890625 L 926.0979614257813 770.860107421875 C 926.0979614257813 779.5214233398438 919.0059814453125 786.5679321289063 910.288818359375 786.5679321289063 Z"/><path class="f" d="M 910.288818359375 786.0679321289063 C 918.7302856445313 786.0679321289063 925.5979614257813 779.2457275390625 925.5979614257813 770.860107421875 L 925.5979614257813 588.730712890625 C 925.5979614257813 580.35009765625 918.7302856445313 573.531982421875 910.288818359375 573.531982421875 L 791.1090087890625 573.531982421875 C 782.673095703125 573.531982421875 775.8099975585938 580.35009765625 775.8099975585938 588.730712890625 L 775.8099975585938 770.860107421875 C 775.8099975585938 779.2457275390625 782.673095703125 786.0679321289063 791.1090087890625 786.0679321289063 L 910.288818359375 786.0679321289063 M 910.288818359375 787.0679321289063 L 791.1090087890625 787.0679321289063 C 782.1234130859375 787.0679321289063 774.8099975585938 779.8015747070313 774.8099975585938 770.860107421875 L 774.8099975585938 588.730712890625 C 774.8099975585938 579.7922973632813 782.1234130859375 572.531982421875 791.1090087890625 572.531982421875 L 910.288818359375 572.531982421875 C 919.283447265625 572.531982421875 926.5979614257813 579.7922973632813 926.5979614257813 588.730712890625 L 926.5979614257813 770.860107421875 C 926.5979614257813 779.8015747070313 919.283447265625 787.0679321289063 910.288818359375 787.0679321289063 Z"/></g><g transform="translate(135.036 185.341)"><path class="c" d="M900.442,757.092h4.987v8.2h3.05a4.951,4.951,0,0,0,.582-1.587,20.788,20.788,0,0,1,1.873-5.09,4.347,4.347,0,0,1,1.059-1.306,2.439,2.439,0,0,1,1.564-.606,2.277,2.277,0,0,1,1.219.392,1.4,1.4,0,0,1,.814,1.177.706.706,0,0,1-.239.548.772.772,0,0,1-.53.217c-.453,0-.7-.247-.727-.746s-.224-.75-.582-.75a1.73,1.73,0,0,0-1.729,1.287,7.592,7.592,0,0,0-.3,2.463c0,.643.03,1.378.1,2.2s.144,1.7.228,2.623a6.732,6.732,0,0,1-.636,2.927,8.924,8.924,0,0,1-1.618,2.266,25.2,25.2,0,0,1-2.086,1.945l.171.259h4.4a2.939,2.939,0,0,0,.773-.091c.453-.137.9-.282,1.329-.427v.275c-.179.3-.324.536-.415.673-.3.468-.476.709-.545.709a2.081,2.081,0,0,1-.346-.142,1.157,1.157,0,0,0-.537-.148H900.442Zm5.154,9.484v6.606c.453-.122.907-.6,1.356-1.428a8.638,8.638,0,0,0,.586-1.3,9.239,9.239,0,0,0,.419-1.4c.27-1.116.415-1.7.43-1.733v-.75Z" transform="translate(-900.442 -756.7)"/></g><path class="c" d="M802.56,603.339h-4.989v-8.2h-3.048a4.872,4.872,0,0,0-.586,1.6,20.293,20.293,0,0,1-1.873,5.076,4.169,4.169,0,0,1-1.053,1.31,2.473,2.473,0,0,1-1.568.615,2.364,2.364,0,0,1-1.219-.4,1.388,1.388,0,0,1-.82-1.175.717.717,0,0,1,.249-.548.778.778,0,0,1,.526-.221c.455,0,.692.249.723.754s.226.748.586.748a1.749,1.749,0,0,0,1.738-1.289,7.666,7.666,0,0,0,.3-2.461c0-.636-.032-1.377-.1-2.195-.07-.838-.146-1.713-.222-2.625a6.807,6.807,0,0,1,.632-2.934,8.956,8.956,0,0,1,1.614-2.271c.441-.47,1.135-1.115,2.084-1.943l-.16-.261h-4.4a2.882,2.882,0,0,0-.774.1c-.452.145-.9.282-1.337.424v-.26c.189-.316.33-.539.421-.682.3-.47.476-.7.541-.7a1.413,1.413,0,0,1,.348.133,1.072,1.072,0,0,0,.542.143H802.56Zm-5.155-9.484v-6.608c-.451.126-.9.606-1.357,1.434a9.7,9.7,0,0,0-.586,1.289,10.121,10.121,0,0,0-.421,1.4c-.268,1.125-.405,1.7-.421,1.729v.752Z" transform="translate(-780.598 -572.521)"/></g><g transform="translate(817.849 639.542)"><path class="c" d="M883.823,679.812c.031-7.742-33.678-40.866-33.678-40.866s-32.86,34.152-32.868,40.74a20.137,20.137,0,0,0,20.111,20.178A19.674,19.674,0,0,0,847.782,697l-12.63,21.524,30.648.057-12.543-21.562a20.133,20.133,0,0,0,30.566-17.207Z" transform="translate(-817.277 -638.946)"/><path class="d" d="M883.823,679.812c.031-7.742-33.678-40.866-33.678-40.866s-.039.037-.065.064v79.546l15.72.025-12.543-21.562a20.133,20.133,0,0,0,30.566-17.207Z" transform="translate(-817.277 -638.946)"/></g><g transform="translate(784.363 610.226)"><path class="c" d="M800.856,614.842c0-.992-4.294-5.212-4.294-5.212s-4.194,4.355-4.2,5.191a2.571,2.571,0,0,0,3.892,2.214l-1.608,2.741,3.906.01-1.6-2.751a2.566,2.566,0,0,0,3.9-2.193Z" transform="translate(-792.363 -609.63)"/><path class="d" d="M800.856,614.842c0-.992-4.294-5.212-4.294-5.212s-.008.01-.015.01v10.146h2.006l-1.6-2.751a2.566,2.566,0,0,0,3.9-2.193Z" transform="translate(-792.363 -609.63)"/></g><g transform="translate(909.522 741.538)"><path class="c" d="M902.33,745.888c-.008.99,4.295,5.216,4.295,5.216s4.2-4.36,4.2-5.2a2.57,2.57,0,0,0-2.57-2.577,2.425,2.425,0,0,0-1.321.365l1.61-2.737-3.909-.016,1.595,2.753a2.425,2.425,0,0,0-1.325-.373A2.568,2.568,0,0,0,902.33,745.888Z" transform="translate(-902.33 -740.942)"/><path class="d" d="M902.33,745.888c-.008.99,4.295,5.216,4.295,5.216l.007-.016V740.942h-2l1.595,2.753a2.425,2.425,0,0,0-1.325-.373A2.568,2.568,0,0,0,902.33,745.888Z" transform="translate(-902.33 -740.942)"/></g></g></svg>