<svg xmlns="http://www.w3.org/2000/svg" width="154" height="215" viewBox="0 0 154 215"><defs><style>.a{fill:#c9c9c9;}.b{fill:#fff;}.c{fill:#333;}.d{fill:#616161;opacity:0.2;}.e,.f{stroke:none;}.f{fill:#c4c4c4;}</style></defs><g transform="translate(-1148.843 -1084.611)"><g transform="translate(1148.843 1084.611)"><path class="a" d="M1165.866,1299.611a16.39,16.39,0,0,1-16.555-16.161l-.468-182.564a16.377,16.377,0,0,1,16.532-16.275l120.936.227a16.439,16.439,0,0,1,16.505,16.289v182.179a16.342,16.342,0,0,1-16.453,16.162Z" transform="translate(-1148.843 -1084.611)"/><g class="b" transform="translate(-1148.843 -1084.611)"><path class="e" d="M 1286.539184570313 1298.654052734375 L 1167.388793945313 1298.654052734375 C 1158.678955078125 1298.654052734375 1151.593017578125 1291.611694335938 1151.593017578125 1282.955444335938 L 1151.593017578125 1100.817626953125 C 1151.593017578125 1092.161376953125 1158.678955078125 1085.119018554688 1167.388793945313 1085.119018554688 L 1286.539184570313 1085.119018554688 C 1295.25341796875 1085.119018554688 1302.343017578125 1092.161376953125 1302.343017578125 1100.817626953125 L 1302.343017578125 1282.955444335938 C 1302.343017578125 1291.611694335938 1295.25341796875 1298.654052734375 1286.539184570313 1298.654052734375 Z"/><path class="f" d="M 1286.539184570313 1298.154052734375 C 1294.977783203125 1298.154052734375 1301.843017578125 1291.336059570313 1301.843017578125 1282.955444335938 L 1301.843017578125 1100.817626953125 C 1301.843017578125 1092.437133789063 1294.977783203125 1085.619018554688 1286.539184570313 1085.619018554688 L 1167.388793945313 1085.619018554688 C 1158.954711914063 1085.619018554688 1152.093017578125 1092.437133789063 1152.093017578125 1100.817626953125 L 1152.093017578125 1282.955444335938 C 1152.093017578125 1291.336059570313 1158.954711914063 1298.154052734375 1167.388793945313 1298.154052734375 L 1286.539184570313 1298.154052734375 M 1286.539184570313 1299.154052734375 L 1167.388793945313 1299.154052734375 C 1158.406494140625 1299.154052734375 1151.093017578125 1291.887817382813 1151.093017578125 1282.955444335938 L 1151.093017578125 1100.817626953125 C 1151.093017578125 1091.88525390625 1158.406494140625 1084.619018554688 1167.388793945313 1084.619018554688 L 1286.539184570313 1084.619018554688 C 1295.533447265625 1084.619018554688 1302.843017578125 1091.88525390625 1302.843017578125 1100.817626953125 L 1302.843017578125 1282.955444335938 C 1302.843017578125 1291.887817382813 1295.533447265625 1299.154052734375 1286.539184570313 1299.154052734375 Z"/></g><g transform="translate(136.534 185.312)"><path class="c" d="M1278.57,1280.423a4.6,4.6,0,0,1,.479-1.972,12.276,12.276,0,0,1,2.5-3.312,18.162,18.162,0,0,1,2.376-2.094,5.059,5.059,0,0,1,2.9-.944,4.638,4.638,0,0,1,2.261.548,1.908,1.908,0,0,1,1.138,1.713,5.571,5.571,0,0,1-1.439,2.551c-.955,1.211-1.645,1.82-2.056,1.82-.346,0-.521-.129-.521-.388a3.315,3.315,0,0,1,.83-1.417,1.39,1.39,0,0,0,.38-.738,1.954,1.954,0,0,0-.453-.64,2.774,2.774,0,0,0-1.953-.647,3.01,3.01,0,0,0-1.919.67,2.574,2.574,0,0,0-1.05,2.155,3.1,3.1,0,0,0,.544,1.789,2.827,2.827,0,0,0,1.1.944,4.351,4.351,0,0,0,1.839.457c.648.023.967.16.967.434a7.828,7.828,0,0,1-1.192,1.66,26.6,26.6,0,0,0-1.789,2.5.747.747,0,0,0,.434.259h3.636a2.217,2.217,0,0,0,.96-.571,2.258,2.258,0,0,1,.97-.564c.32,0,.476.114.476.35,0,.13-.183.412-.556.838s-.913.99-1.61,1.69c-.792.792-1.287,1.264-1.5,1.424a1.8,1.8,0,0,1-.971.472h-6.065a.644.644,0,0,1-.114-.106.749.749,0,0,1-.034-.3c0-.457.548-1.226,1.637-2.308s1.644-1.812,1.644-2.23c0-.1-.434-.305-1.306-.625a4.713,4.713,0,0,1-1.5-.876,3.388,3.388,0,0,1-.761-1.1A3.6,3.6,0,0,1,1278.57,1280.423Z" transform="translate(-1278.57 -1272.101)"/></g><g transform="translate(8.902 13.973)"><path class="c" d="M1179.4,1107.561a4.781,4.781,0,0,1-.472,1.98,12.32,12.32,0,0,1-2.5,3.3,18.34,18.34,0,0,1-2.38,2.094,5.065,5.065,0,0,1-2.9.952,4.6,4.6,0,0,1-2.257-.548,1.922,1.922,0,0,1-1.143-1.713,5.578,5.578,0,0,1,1.44-2.551c.955-1.218,1.644-1.828,2.055-1.828.351,0,.526.13.526.381a3.193,3.193,0,0,1-.834,1.424,1.381,1.381,0,0,0-.381.746,2.276,2.276,0,0,0,.454.64,2.789,2.789,0,0,0,1.941.639,3.074,3.074,0,0,0,1.934-.662,2.6,2.6,0,0,0,1.047-2.163,3.1,3.1,0,0,0-.548-1.789,2.892,2.892,0,0,0-1.1-.944,4.351,4.351,0,0,0-1.839-.457c-.648-.015-.968-.16-.968-.426a8.044,8.044,0,0,1,1.192-1.668,24.481,24.481,0,0,0,1.778-2.5.709.709,0,0,0-.422-.259h-3.636a2.3,2.3,0,0,0-.956.564,2.151,2.151,0,0,1-.978.571c-.32,0-.472-.114-.472-.35,0-.13.186-.4.555-.838s.914-.99,1.6-1.683c.8-.791,1.3-1.271,1.5-1.423a1.762,1.762,0,0,1,.979-.472h6.065a.479.479,0,0,1,.106.114c.027.022.034.121.034.281,0,.465-.544,1.226-1.637,2.307s-1.644,1.82-1.644,2.232q0,.148,1.309.616a4.919,4.919,0,0,1,1.5.884,3.356,3.356,0,0,1,.762,1.1A3.6,3.6,0,0,1,1179.4,1107.561Z" transform="translate(-1167.745 -1098.584)"/></g></g><g transform="translate(1210.934 1101.332)"><path class="c" d="M1243.828,1121.191c.016-3.762-16.359-19.859-16.359-19.859s-15.956,16.592-15.956,19.8a9.778,9.778,0,0,0,9.766,9.8,9.635,9.635,0,0,0,5.048-1.394l-6.137,10.447,14.886.03-6.088-10.469a9.773,9.773,0,0,0,14.84-8.353Z" transform="translate(-1211.513 -1101.332)"/><path class="d" d="M1243.828,1121.191c.016-3.762-16.359-19.859-16.359-19.859a.3.3,0,0,1-.023.031V1140l7.63.015-6.088-10.469a9.773,9.773,0,0,0,14.84-8.353Z" transform="translate(-1211.513 -1101.332)"/></g><g transform="translate(1210.934 1172.764)"><path class="c" d="M1243.828,1193.71c.016-3.754-16.359-19.843-16.359-19.843s-15.956,16.592-15.956,19.783a9.773,9.773,0,0,0,9.766,9.8,9.627,9.627,0,0,0,5.048-1.385l-6.137,10.454,14.886.03-6.088-10.477a9.763,9.763,0,0,0,14.84-8.361Z" transform="translate(-1211.513 -1173.867)"/><path class="d" d="M1243.828,1193.71c.016-3.754-16.359-19.843-16.359-19.843a.151.151,0,0,0-.023.03v38.636l7.63.015-6.088-10.477a9.763,9.763,0,0,0,14.84-8.361Z" transform="translate(-1211.513 -1173.867)"/></g><g transform="translate(1210.934 1242.374)"><path class="c" d="M1243.828,1263.39c.016,3.761-16.359,19.843-16.359,19.843s-15.956-16.584-15.956-19.782a9.773,9.773,0,0,1,9.766-9.8,9.619,9.619,0,0,1,5.048,1.386l-6.137-10.447,14.886-.038-6.088,10.485a9.763,9.763,0,0,1,14.84,8.353Z" transform="translate(-1211.513 -1244.552)"/><path class="d" d="M1243.828,1263.39c.016,3.761-16.359,19.843-16.359,19.843l-.023-.03v-38.636l7.63-.015-6.088,10.485a9.763,9.763,0,0,1,14.84,8.353Z" transform="translate(-1211.513 -1244.552)"/></g><g transform="translate(1158.72 1122.303)"><path class="c" d="M1177.336,1127.594c.011-1-4.359-5.291-4.359-5.291s-4.257,4.423-4.257,5.276a2.615,2.615,0,0,0,3.948,2.247l-1.633,2.779,3.967.015-1.625-2.787a2.756,2.756,0,0,0,1.347.366A2.6,2.6,0,0,0,1177.336,1127.594Z" transform="translate(-1168.72 -1122.303)"/><path class="d" d="M1177.336,1127.594c.011-1-4.359-5.291-4.359-5.291s0,0-.012.007v10.3l2.037.008-1.625-2.787a2.756,2.756,0,0,0,1.347.366A2.6,2.6,0,0,0,1177.336,1127.594Z" transform="translate(-1168.72 -1122.303)"/></g><g transform="translate(1287.375 1253.491)"><path class="c" d="M1280.568,1260.687c-.007,1.005,4.363,5.3,4.363,5.3s4.257-4.431,4.257-5.277a2.613,2.613,0,0,0-2.6-2.619,2.529,2.529,0,0,0-1.347.373l1.633-2.787-3.967-.007,1.626,2.794a2.558,2.558,0,0,0-1.348-.38A2.607,2.607,0,0,0,1280.568,1260.687Z" transform="translate(-1280.568 -1255.669)"/><path class="d" d="M1280.568,1260.687c-.007,1.005,4.363,5.3,4.363,5.3a.058.058,0,0,0,.012-.015v-10.3h-2.037l1.626,2.794a2.558,2.558,0,0,0-1.348-.38A2.607,2.607,0,0,0,1280.568,1260.687Z" transform="translate(-1280.568 -1255.669)"/></g></g></svg>