<svg xmlns="http://www.w3.org/2000/svg" width="154" height="215" viewBox="0 0 154 215"><defs><style>.a{fill:#c9c9c9;}.b{fill:#fff;}.c{fill:#333;}.d{fill:#616161;opacity:0.2;}.e,.f{stroke:none;}.f{fill:#c4c4c4;}</style></defs><g transform="translate(-1148.843 -312.969)"><g transform="translate(1148.843 312.969)"><path class="a" d="M1165.866,527.969a16.386,16.386,0,0,1-16.554-16.168l-.468-182.56a16.373,16.373,0,0,1,16.531-16.272l120.933.22a16.451,16.451,0,0,1,16.5,16.294V511.666a16.341,16.341,0,0,1-16.452,16.163Z" transform="translate(-1148.843 -312.969)"/><g class="b" transform="translate(-1148.843 -312.969)"><path class="e" d="M 1286.546508789063 527.015869140625 L 1167.388427734375 527.015869140625 C 1158.678833007813 527.015869140625 1151.593017578125 519.9701538085938 1151.593017578125 511.3097534179688 L 1151.593017578125 329.1802062988281 C 1151.593017578125 320.5208740234375 1158.678833007813 313.4760131835938 1167.388427734375 313.4760131835938 L 1286.546508789063 313.4760131835938 C 1295.256713867188 313.4760131835938 1302.343017578125 320.5208740234375 1302.343017578125 329.1802062988281 L 1302.343017578125 511.3097534179688 C 1302.343017578125 519.9701538085938 1295.256713867188 527.015869140625 1286.546508789063 527.015869140625 Z"/><path class="f" d="M 1286.546508789063 526.515869140625 C 1294.981079101563 526.515869140625 1301.843017578125 519.6944580078125 1301.843017578125 511.3097534179688 L 1301.843017578125 329.1802062988281 C 1301.843017578125 320.7965698242188 1294.981079101563 313.9760131835938 1286.546508789063 313.9760131835938 L 1167.388427734375 313.9760131835938 C 1158.954467773438 313.9760131835938 1152.093017578125 320.7965698242188 1152.093017578125 329.1802062988281 L 1152.093017578125 511.3097534179688 C 1152.093017578125 519.6944580078125 1158.954467773438 526.515869140625 1167.388427734375 526.515869140625 L 1286.546508789063 526.515869140625 M 1286.546508789063 527.515869140625 L 1167.388427734375 527.515869140625 C 1158.406372070313 527.515869140625 1151.093017578125 520.2438354492188 1151.093017578125 511.3097534179688 L 1151.093017578125 329.1802062988281 C 1151.093017578125 320.2430725097656 1158.406372070313 312.9760131835938 1167.388427734375 312.9760131835938 L 1286.546508789063 312.9760131835938 C 1295.529663085938 312.9760131835938 1302.843017578125 320.2430725097656 1302.843017578125 329.1802062988281 L 1302.843017578125 511.3097534179688 C 1302.843017578125 520.2438354492188 1295.529663085938 527.515869140625 1286.546508789063 527.515869140625 Z"/></g><g transform="translate(9.99 13.631)"><path class="c" d="M1170.255,338.02a8.546,8.546,0,0,1-3.568,5.547,14.433,14.433,0,0,1-1.4.577,2.42,2.42,0,0,1-.754.158h-.685a4.58,4.58,0,0,1-3.827-1.747,5.85,5.85,0,0,1-1.191-3.743,11.788,11.788,0,0,1,.586-3.4,12.617,12.617,0,0,1,1.458-3.259c.845-1.27,1.39-2.044,1.645-2.332.133-.162.773-.71,1.881-1.645a13.829,13.829,0,0,1,1.778-1.364,1.45,1.45,0,0,1,.689-.216.393.393,0,0,1,.434.451,7.491,7.491,0,0,1-1.215,1.262,15.788,15.788,0,0,0-1.789,2.045,9.689,9.689,0,0,0-.9,1.626,5.722,5.722,0,0,0-.659,1.8.194.194,0,0,0,.084.154.218.218,0,0,0,.171.084c.411-.221.845-.444,1.306-.669a5.464,5.464,0,0,1,1.995-.662,3.482,3.482,0,0,1,2.478,1.473A5.708,5.708,0,0,1,1170.255,338.02Zm-3.423,2.57a5.129,5.129,0,0,0-1.081-3.036,2.889,2.889,0,0,0-2.209-1.479,1.7,1.7,0,0,0-.784.175.6.6,0,0,0-.358.578,4.8,4.8,0,0,0,1.211,2.978,3.663,3.663,0,0,0,2.787,1.644.358.358,0,0,0,.319-.171A1.386,1.386,0,0,0,1166.832,340.59Z" transform="translate(-1158.833 -326.6)"/></g><g transform="translate(135.858 185.262)"><path class="c" d="M1285.9,506.692a8.555,8.555,0,0,1,3.568-5.546c.616-.288,1.077-.476,1.386-.587a2.547,2.547,0,0,1,.749-.146h.69a4.561,4.561,0,0,1,3.833,1.736,5.93,5.93,0,0,1,1.192,3.746,11.784,11.784,0,0,1-.586,3.4,12.365,12.365,0,0,1-1.458,3.251,28.274,28.274,0,0,1-1.645,2.346c-.145.159-.769.7-1.881,1.644a15.4,15.4,0,0,1-1.778,1.363,1.5,1.5,0,0,1-.689.21c-.289,0-.43-.149-.43-.454a7.067,7.067,0,0,1,1.21-1.264,15.733,15.733,0,0,0,1.79-2.038,11.018,11.018,0,0,0,.9-1.62,5.532,5.532,0,0,0,.666-1.811.291.291,0,0,0-.08-.154.245.245,0,0,0-.175-.082c-.411.223-.853.442-1.306.665a5.534,5.534,0,0,1-2.006.672,3.509,3.509,0,0,1-2.475-1.481A5.7,5.7,0,0,1,1285.9,506.692Zm3.423-2.569a5.123,5.123,0,0,0,1.07,3.024,2.914,2.914,0,0,0,2.219,1.491,1.769,1.769,0,0,0,.781-.177.613.613,0,0,0,.358-.583,4.838,4.838,0,0,0-1.211-2.971,3.632,3.632,0,0,0-2.787-1.645.362.362,0,0,0-.32.166A1.51,1.51,0,0,0,1289.321,504.123Z" transform="translate(-1285.898 -500.413)"/></g></g><g transform="translate(1159.461 328.93)"><g transform="translate(79.325)"><path class="c" d="M1273.3,349.561c.023-3.906-17-20.631-17-20.631s-16.588,17.249-16.588,20.573a10.168,10.168,0,0,0,15.4,8.737l-6.373,10.866,15.473.03-6.335-10.887a10.162,10.162,0,0,0,15.43-8.688Z" transform="translate(-1239.713 -328.93)"/><path class="d" d="M1273.3,349.561c.023-3.906-17-20.631-17-20.631a.159.159,0,0,0-.031.031v40.162l7.939.013-6.335-10.887a10.162,10.162,0,0,0,15.43-8.688Z" transform="translate(-1239.713 -328.93)"/></g><g transform="translate(79.325 73.037)"><path class="c" d="M1273.3,423.716c.023-3.912-17-20.636-17-20.636s-16.588,17.248-16.588,20.576a10.163,10.163,0,0,0,10.154,10.186,10.037,10.037,0,0,0,5.242-1.449l-6.373,10.866,15.473.03-6.335-10.886a10.161,10.161,0,0,0,15.43-8.687Z" transform="translate(-1239.713 -403.08)"/><path class="d" d="M1273.3,423.716c.023-3.912-17-20.636-17-20.636s-.019.017-.031.03v40.162l7.939.017-6.335-10.886a10.161,10.161,0,0,0,15.43-8.687Z" transform="translate(-1239.713 -403.08)"/></g><g transform="translate(22.181)"><path class="c" d="M1181.9,349.561c-.023-3.906,17-20.631,17-20.631s16.588,17.249,16.588,20.573a10.169,10.169,0,0,1-15.4,8.737l6.373,10.866-15.472.03,6.331-10.887a10.159,10.159,0,0,1-15.426-8.688Z" transform="translate(-1181.901 -328.93)"/><path class="d" d="M1181.9,349.561c-.023-3.906,17-20.631,17-20.631a.141.141,0,0,1,.03.031v40.162l-7.938.013,6.331-10.887a10.159,10.159,0,0,1-15.426-8.688Z" transform="translate(-1181.901 -328.93)"/></g><g transform="translate(22.181 69.48)"><path class="c" d="M1181.9,420.1c-.023-3.91,17-20.634,17-20.634s16.588,17.249,16.588,20.573a10.163,10.163,0,0,1-10.154,10.182,9.957,9.957,0,0,1-5.243-1.445l6.373,10.866-15.472.03,6.331-10.886A10.152,10.152,0,0,1,1181.9,420.1Z" transform="translate(-1181.901 -399.468)"/><path class="d" d="M1181.9,420.1c-.023-3.91,17-20.634,17-20.634a.116.116,0,0,1,.03.035v40.16l-7.938.011,6.331-10.886A10.152,10.152,0,0,1,1181.9,420.1Z" transform="translate(-1181.901 -399.468)"/></g><g transform="translate(79.242 143.252)"><path class="c" d="M1273.232,493.936c.011,3.909-17.011,20.634-17.011,20.634s-16.58-17.241-16.592-20.569a10.17,10.17,0,0,1,10.158-10.19,9.937,9.937,0,0,1,5.243,1.449l-6.374-10.866,15.469-.03-6.32,10.886a10.153,10.153,0,0,1,15.427,8.686Z" transform="translate(-1239.629 -474.364)"/><path class="d" d="M1273.232,493.936c.011,3.909-17.011,20.634-17.011,20.634a.243.243,0,0,0-.031-.031V474.377l7.935-.013-6.32,10.886a10.153,10.153,0,0,1,15.427,8.686Z" transform="translate(-1239.629 -474.364)"/></g><g transform="translate(22.098 143.252)"><path class="c" d="M1181.817,493.936c-.011,3.909,17.015,20.634,17.015,20.634s16.58-17.241,16.587-20.569a10.166,10.166,0,0,0-10.154-10.19,9.916,9.916,0,0,0-5.242,1.449l6.373-10.866-15.472-.03,6.324,10.886a10.156,10.156,0,0,0-15.431,8.686Z" transform="translate(-1181.817 -474.364)"/><path class="d" d="M1181.817,493.936c-.011,3.909,17.015,20.634,17.015,20.634a.1.1,0,0,1,.03-.031V474.377l-7.938-.013,6.324,10.886a10.156,10.156,0,0,0-15.431,8.686Z" transform="translate(-1181.817 -474.364)"/></g><g transform="translate(0 22.546)"><path class="c" d="M1168.423,356.982c0-1.045-4.534-5.506-4.534-5.506s-4.42,4.6-4.428,5.487a2.719,2.719,0,0,0,4.112,2.332l-1.7,2.9,4.123,0-1.686-2.9a2.672,2.672,0,0,0,1.389.394A2.717,2.717,0,0,0,1168.423,356.982Z" transform="translate(-1159.461 -351.476)"/><path class="d" d="M1168.423,356.982c0-1.045-4.534-5.506-4.534-5.506a.012.012,0,0,1-.008.01v10.708l2.117,0-1.686-2.9a2.672,2.672,0,0,0,1.389.394A2.717,2.717,0,0,0,1168.423,356.982Z" transform="translate(-1159.461 -351.476)"/></g><g transform="translate(127.06 153.638)"><path class="c" d="M1287.718,489.968c-.011,1.048,4.531,5.5,4.531,5.5s4.431-4.6,4.431-5.482a2.722,2.722,0,0,0-2.714-2.721,2.64,2.64,0,0,0-1.4.39l1.694-2.9-4.12-.006,1.687,2.9a2.71,2.71,0,0,0-4.112,2.313Z" transform="translate(-1287.718 -484.75)"/><path class="d" d="M1287.718,489.968c-.011,1.048,4.531,5.5,4.531,5.5s.011,0,.011-.01V484.75h-2.117l1.687,2.9a2.71,2.71,0,0,0-4.112,2.313Z" transform="translate(-1287.718 -484.75)"/></g></g></g></svg>