<svg xmlns="http://www.w3.org/2000/svg" width="154" height="215" viewBox="0 0 154 215"><defs><style>.a{fill:#c9c9c9;}.b{fill:#fff;}.c{fill:#333;}.d{fill:#616161;opacity:0.2;}.e,.f{stroke:none;}.f{fill:#c4c4c4;}</style></defs><g transform="translate(-202.111 -1343.943)"><g transform="translate(202.111 1343.943)"><path class="a" d="M219.135,1558.943a16.387,16.387,0,0,1-16.549-16.169l-.475-182.564a16.373,16.373,0,0,1,16.535-16.267l120.926.219a16.44,16.44,0,0,1,16.507,16.289v182.187a16.343,16.343,0,0,1-16.446,16.169Z" transform="translate(-202.111 -1343.943)"/><g class="b" transform="translate(-202.111 -1343.943)"><path class="e" d="M 339.8128662109375 1557.985961914063 L 220.6601409912109 1557.985961914063 C 211.9495849609375 1557.985961914063 204.8630218505859 1550.940063476563 204.8630218505859 1542.279541015625 L 204.8630218505859 1360.149536132813 C 204.8630218505859 1351.492797851563 211.9495849609375 1344.449951171875 220.6601409912109 1344.449951171875 L 339.8128662109375 1344.449951171875 C 348.5239868164063 1344.449951171875 355.6109619140625 1351.492797851563 355.6109619140625 1360.149536132813 L 355.6109619140625 1542.279541015625 C 355.6109619140625 1550.940063476563 348.5239868164063 1557.985961914063 339.8128662109375 1557.985961914063 Z"/><path class="f" d="M 339.8128662109375 1557.485961914063 C 348.248291015625 1557.485961914063 355.1109619140625 1550.664428710938 355.1109619140625 1542.279541015625 L 355.1109619140625 1360.149536132813 C 355.1109619140625 1351.768432617188 348.248291015625 1344.949951171875 339.8128662109375 1344.949951171875 L 220.6601409912109 1344.949951171875 C 212.2252807617188 1344.949951171875 205.3630218505859 1351.768432617188 205.3630218505859 1360.149536132813 L 205.3630218505859 1542.279541015625 C 205.3630218505859 1550.664428710938 212.2252807617188 1557.485961914063 220.6601409912109 1557.485961914063 L 339.8128662109375 1557.485961914063 M 339.8128662109375 1558.485961914063 L 220.6601409912109 1558.485961914063 C 211.6702270507813 1558.485961914063 204.3630218505859 1551.2119140625 204.3630218505859 1542.279541015625 L 204.3630218505859 1360.149536132813 C 204.3630218505859 1351.21728515625 211.6702270507813 1343.949951171875 220.6601409912109 1343.949951171875 L 339.8128662109375 1343.949951171875 C 348.7987976074219 1343.949951171875 356.1109619140625 1351.21728515625 356.1109619140625 1360.149536132813 L 356.1109619140625 1542.279541015625 C 356.1109619140625 1551.2119140625 348.7987976074219 1558.485961914063 339.8128662109375 1558.485961914063 Z"/></g><g transform="translate(10.66 13.942)"><path class="c" d="M223.642,1368.842a3.5,3.5,0,0,1-.5,1.462,12.347,12.347,0,0,1-2,2.589c-1,1.012-1.536,1.553-1.618,1.621a3.735,3.735,0,0,1-2.334.7,4.335,4.335,0,0,1-3.253-1.447,3.548,3.548,0,0,1-1.167-2.376,3.264,3.264,0,0,1,.8-1.872c.53-.716,1.074-1.44,1.63-2.148a6.954,6.954,0,0,1-1.1-1.218,2.585,2.585,0,0,1-.479-1.515,4.012,4.012,0,0,1,.788-2.216c.508-.678.925-1.264,1.258-1.736a9.149,9.149,0,0,1,2.05-2.285,3.142,3.142,0,0,1,1.759-.517,3.841,3.841,0,0,1,2.456.807,2.614,2.614,0,0,1,1.039,2.185,4.112,4.112,0,0,1-1.239,2.832c-.822.892-1.234,1.493-1.234,1.836a21.818,21.818,0,0,1,2.138,1.568A2.351,2.351,0,0,1,223.642,1368.842Zm-3.1,2.1c0-.51-.6-1.134-1.808-1.85a6.021,6.021,0,0,0-2.066-.982c-.114,0-.268.175-.464.525a1.852,1.852,0,0,0-.3.906,2.421,2.421,0,0,0,1.194,1.85,3.552,3.552,0,0,0,2.071.8,1.355,1.355,0,0,0,.925-.4A1.144,1.144,0,0,0,220.547,1370.943Zm-.877-7.568a1.862,1.862,0,0,0-.638-1.242,2.294,2.294,0,0,0-1.656-.731,1.013,1.013,0,0,0-.709.267.835.835,0,0,0-.283.64c0,.517.4,1.081,1.2,1.682a3.544,3.544,0,0,0,1.348.785c.143,0,.3-.168.477-.526A2.051,2.051,0,0,0,219.67,1363.375Z" transform="translate(-212.771 -1357.885)"/></g><g transform="translate(135.737 185.304)"><path class="c" d="M339.048,1537.8a3.367,3.367,0,0,1,.5-1.447,11.9,11.9,0,0,1,2-2.589c.995-1.02,1.536-1.553,1.612-1.621a3.764,3.764,0,0,1,2.334-.716,4.352,4.352,0,0,1,3.259,1.454,3.587,3.587,0,0,1,1.167,2.376,3.369,3.369,0,0,1-.8,1.888c-.533.7-1.074,1.417-1.627,2.132a7.353,7.353,0,0,1,1.089,1.226,2.589,2.589,0,0,1,.477,1.508,4.009,4.009,0,0,1-.786,2.216c-.5.677-.925,1.263-1.258,1.736a8.992,8.992,0,0,1-2.047,2.284,3.236,3.236,0,0,1-1.762.525,3.864,3.864,0,0,1-2.458-.807,2.642,2.642,0,0,1-1.037-2.193,4.125,4.125,0,0,1,1.239-2.832c.822-.884,1.233-1.5,1.233-1.828a23.407,23.407,0,0,1-2.139-1.568A2.374,2.374,0,0,1,339.048,1537.8Zm3.09-2.094c0,.51.6,1.127,1.81,1.858a6.2,6.2,0,0,0,2.071.975c.107,0,.261-.168.463-.518a1.932,1.932,0,0,0,.3-.906,2.4,2.4,0,0,0-1.192-1.858,3.571,3.571,0,0,0-2.065-.807,1.409,1.409,0,0,0-.931.4A1.188,1.188,0,0,0,342.138,1535.7Zm.879,7.569a1.81,1.81,0,0,0,.642,1.233,2.254,2.254,0,0,0,1.65.731,1,1,0,0,0,.71-.251.825.825,0,0,0,.282-.647c0-.518-.4-1.082-1.2-1.683a3.611,3.611,0,0,0-1.346-.784c-.145,0-.3.175-.472.517A2.092,2.092,0,0,0,343.017,1543.273Z" transform="translate(-339.048 -1531.425)"/></g></g><g transform="translate(213.639 1359.903)"><g transform="translate(78.415)"><path class="c" d="M326.58,1380.53c.015-3.906-17.007-20.627-17.007-20.627s-16.586,17.246-16.592,20.573a10.173,10.173,0,0,0,10.158,10.181,10.062,10.062,0,0,0,5.246-1.447l-6.377,10.866,15.47.031-6.327-10.889a10.155,10.155,0,0,0,15.429-8.688Z" transform="translate(-292.981 -1359.903)"/><path class="d" d="M326.58,1380.53c.015-3.906-17.007-20.627-17.007-20.627a.174.174,0,0,1-.027.022v40.166l7.932.016-6.327-10.889a10.155,10.155,0,0,0,15.429-8.688Z" transform="translate(-292.981 -1359.903)"/></g><g transform="translate(78.415 47.477)"><path class="c" d="M326.58,1428.729c.015-3.906-17.007-20.627-17.007-20.627s-16.586,17.246-16.592,20.566a10.18,10.18,0,0,0,10.158,10.2,10.005,10.005,0,0,0,5.246-1.455l-6.377,10.866,15.47.031-6.327-10.881a10.165,10.165,0,0,0,15.429-8.7Z" transform="translate(-292.981 -1408.102)"/><path class="d" d="M326.58,1428.729c.015-3.906-17.007-20.627-17.007-20.627a.067.067,0,0,0-.027.03v40.159l7.932.015-6.327-10.881a10.165,10.165,0,0,0,15.429-8.7Z" transform="translate(-292.981 -1408.102)"/></g><g transform="translate(21.279)"><path class="c" d="M235.17,1380.53c-.015-3.906,17.007-20.627,17.007-20.627s16.586,17.246,16.592,20.573a10.17,10.17,0,0,1-10.156,10.181,10.04,10.04,0,0,1-5.242-1.447l6.377,10.866-15.476.031,6.328-10.889a10.156,10.156,0,0,1-15.43-8.688Z" transform="translate(-235.17 -1359.903)"/><path class="d" d="M235.17,1380.53c-.015-3.906,17.007-20.627,17.007-20.627a.122.122,0,0,0,.031.022v40.166l-7.936.016,6.328-10.889a10.156,10.156,0,0,1-15.43-8.688Z" transform="translate(-235.17 -1359.903)"/></g><g transform="translate(21.279 47.477)"><path class="c" d="M235.17,1428.729c-.015-3.906,17.007-20.627,17.007-20.627s16.586,17.246,16.592,20.566a10.177,10.177,0,0,1-10.156,10.2,9.983,9.983,0,0,1-5.242-1.455l6.377,10.866-15.476.031,6.328-10.881a10.166,10.166,0,0,1-15.43-8.7Z" transform="translate(-235.17 -1408.102)"/><path class="d" d="M235.17,1428.729c-.015-3.906,17.007-20.627,17.007-20.627a.09.09,0,0,1,.031.03v40.159l-7.936.015,6.328-10.881a10.166,10.166,0,0,1-15.43-8.7Z" transform="translate(-235.17 -1408.102)"/></g><g transform="translate(78.34 143.257)"><path class="c" d="M326.5,1524.907c.015,3.906-17.007,20.635-17.007,20.635s-16.586-17.239-16.592-20.574a10.173,10.173,0,0,1,10.156-10.189,9.953,9.953,0,0,1,5.248,1.455l-6.379-10.874,15.476-.022-6.333,10.881a10.156,10.156,0,0,1,15.431,8.688Z" transform="translate(-292.905 -1505.338)"/><path class="d" d="M326.5,1524.907c.015,3.906-17.007,20.635-17.007,20.635a.12.12,0,0,1-.027-.038v-40.159l7.936-.007-6.333,10.881a10.156,10.156,0,0,1,15.431,8.688Z" transform="translate(-292.905 -1505.338)"/></g><g transform="translate(78.34 95.764)"><path class="c" d="M326.5,1476.7c.015,3.906-17.007,20.635-17.007,20.635s-16.586-17.247-16.592-20.574a10.185,10.185,0,0,1,15.4-8.742l-6.379-10.858,15.476-.038-6.333,10.889A10.165,10.165,0,0,1,326.5,1476.7Z" transform="translate(-292.905 -1457.123)"/><path class="d" d="M326.5,1476.7c.015,3.906-17.007,20.635-17.007,20.635a.169.169,0,0,1-.027-.031v-40.158l7.936-.023-6.333,10.889A10.165,10.165,0,0,1,326.5,1476.7Z" transform="translate(-292.905 -1457.123)"/></g><g transform="translate(21.208 143.257)"><path class="c" d="M235.1,1524.907c-.015,3.906,17,20.635,17,20.635s16.586-17.239,16.59-20.574a10.165,10.165,0,0,0-10.156-10.189,9.919,9.919,0,0,0-5.242,1.455l6.379-10.874-15.476-.022,6.331,10.881a10.155,10.155,0,0,0-15.429,8.688Z" transform="translate(-235.098 -1505.338)"/><path class="d" d="M235.1,1524.907c-.015,3.906,17,20.635,17,20.635a.31.31,0,0,0,.031-.038v-40.159l-7.936-.007,6.331,10.881a10.155,10.155,0,0,0-15.429,8.688Z" transform="translate(-235.098 -1505.338)"/></g><g transform="translate(21.208 95.764)"><path class="c" d="M235.1,1476.7c-.015,3.906,17,20.635,17,20.635s16.586-17.247,16.59-20.574a10.158,10.158,0,0,0-10.156-10.181,10.055,10.055,0,0,0-5.242,1.439l6.379-10.858-15.476-.038,6.331,10.889A10.164,10.164,0,0,0,235.1,1476.7Z" transform="translate(-235.098 -1457.123)"/><path class="d" d="M235.1,1476.7c-.015,3.906,17,20.635,17,20.635l.031-.031v-40.158l-7.936-.023,6.331,10.889A10.164,10.164,0,0,0,235.1,1476.7Z" transform="translate(-235.098 -1457.123)"/></g><g transform="translate(0 22.546)"><path class="c" d="M222.6,1387.954c0-1.043-4.534-5.505-4.534-5.505s-4.426,4.6-4.426,5.482a2.708,2.708,0,0,0,2.7,2.718,2.742,2.742,0,0,0,1.4-.38l-1.7,2.893h4.127l-1.69-2.893a2.718,2.718,0,0,0,4.117-2.315Z" transform="translate(-213.639 -1382.449)"/><path class="d" d="M222.6,1387.954c0-1.043-4.534-5.505-4.534-5.505l-.01.007v10.706h2.117l-1.69-2.893a2.718,2.718,0,0,0,4.117-2.315Z" transform="translate(-213.639 -1382.449)"/></g><g transform="translate(126.147 151.907)"><path class="c" d="M340.986,1519.211c0,1.051,4.538,5.5,4.538,5.5s4.421-4.6,4.421-5.482a2.71,2.71,0,0,0-2.708-2.718,2.626,2.626,0,0,0-1.393.388l1.7-2.9-4.127-.015,1.691,2.908a2.719,2.719,0,0,0-4.118,2.315Z" transform="translate(-340.986 -1513.988)"/><path class="d" d="M340.986,1519.211c0,1.051,4.538,5.5,4.538,5.5l.006-.007v-10.714l-2.117-.007,1.691,2.908a2.719,2.719,0,0,0-4.118,2.315Z" transform="translate(-340.986 -1513.988)"/></g></g></g></svg>