<svg xmlns="http://www.w3.org/2000/svg" width="154" height="215" viewBox="0 0 154 215"><defs><style>.a{fill:#c9c9c9;}.b,.k{fill:#fff;}.c{fill:#333;}.d{fill:#757575;}.e{fill:#ebb07a;}.f,.h{fill:#616161;}.f,.g,.k{opacity:0.2;}.i{fill:#1c1c1c;}.j{fill:#ababab;}.l{fill:#ebebeb;}.m{fill:#ffd675;}.n,.o{stroke:none;}.o{fill:#c4c4c4;}</style></defs><g transform="translate(-585.356 -573.176)"><g transform="translate(585.356 573.176)"><path class="a" d="M602.358,788.176a16.368,16.368,0,0,1-16.532-16.143l-.469-182.489a16.349,16.349,0,0,1,16.514-16.26l120.789.223a16.425,16.425,0,0,1,16.487,16.281V771.874a16.335,16.335,0,0,1-16.424,16.174Z" transform="translate(-585.356 -573.176)"/><g class="b" transform="translate(-585.356 -573.176)"><path class="n" d="M 723.0765380859375 787.1129760742188 L 604.056396484375 787.1129760742188 C 595.3555908203125 787.1129760742188 588.2769775390625 780.0714111328125 588.2769775390625 771.4161987304688 L 588.2769775390625 589.3707885742188 C 588.2769775390625 580.7166748046875 595.3555908203125 573.676025390625 604.056396484375 573.676025390625 L 723.0765380859375 573.676025390625 C 731.77734375 573.676025390625 738.85595703125 580.7166748046875 738.85595703125 589.3707885742188 L 738.85595703125 771.4161987304688 C 738.85595703125 780.0714111328125 731.77734375 787.1129760742188 723.0765380859375 787.1129760742188 Z"/><path class="o" d="M 723.0765380859375 786.6129760742188 C 731.5016479492188 786.6129760742188 738.35595703125 779.7957153320313 738.35595703125 771.4161987304688 L 738.35595703125 589.3707885742188 C 738.35595703125 580.9923706054688 731.5016479492188 574.176025390625 723.0765380859375 574.176025390625 L 604.056396484375 574.176025390625 C 595.6312866210938 574.176025390625 588.7769775390625 580.9923706054688 588.7769775390625 589.3707885742188 L 588.7769775390625 771.4161987304688 C 588.7769775390625 779.7957153320313 595.6312866210938 786.6129760742188 604.056396484375 786.6129760742188 L 723.0765380859375 786.6129760742188 M 723.0765380859375 787.6129760742188 L 604.056396484375 787.6129760742188 C 595.0841064453125 787.6129760742188 587.7769775390625 780.349365234375 587.7769775390625 771.4161987304688 L 587.7769775390625 589.3707885742188 C 587.7769775390625 580.442626953125 595.0841064453125 573.176025390625 604.056396484375 573.176025390625 L 723.0765380859375 573.176025390625 C 732.0548095703125 573.176025390625 739.35595703125 580.442626953125 739.35595703125 589.3707885742188 L 739.35595703125 771.4161987304688 C 739.35595703125 780.349365234375 732.0548095703125 787.6129760742188 723.0765380859375 787.6129760742188 Z"/></g><g transform="translate(10.291 14.136)"><path class="c" d="M614.271,588.37a5.292,5.292,0,0,1-1.839,1.923,4.239,4.239,0,0,1-2.2.668,19.8,19.8,0,0,1-2.514-.544,7.488,7.488,0,0,0-1.845-.268,4.74,4.74,0,0,0-1.058.133,2.354,2.354,0,0,0-.91.443h-.263v-.341a5.486,5.486,0,0,1,1.769-2.364,4.645,4.645,0,0,1,2.687-.708,6.729,6.729,0,0,1,2.313.39,6.444,6.444,0,0,0,2.123.39c.221,0,.478-.009.771-.03a8.545,8.545,0,0,0,.961-.093Zm.072,13.929a4.58,4.58,0,0,1-1.768,3.743,6.993,6.993,0,0,1-4.517,1.418,5.515,5.515,0,0,1-2.821-.659,2.472,2.472,0,0,1-1.354-2.25,2.025,2.025,0,0,1,.381-1.214,1.763,1.763,0,0,1,1.517-.709,1.668,1.668,0,0,1,1.125.412,1.313,1.313,0,0,1,.484,1.037,1.341,1.341,0,0,1-.85,1.367c-.569.247-.852.411-.852.5a1.262,1.262,0,0,0,.308.453,2.1,2.1,0,0,0,1.445.442,2.888,2.888,0,0,0,1.624-.442,1.437,1.437,0,0,0,.677-1.266V591.763c.823-.267,1.59-.524,2.3-.792a5.625,5.625,0,0,0,1.9-1.152h.405Z" transform="translate(-603.647 -587.312)"/></g><g transform="translate(133.633 182.845)"><path class="c" d="M713.879,762.8a4.59,4.59,0,0,1,1.763-3.746,7.018,7.018,0,0,1,4.523-1.431,5.463,5.463,0,0,1,2.821.677,2.47,2.47,0,0,1,1.348,2.247,1.972,1.972,0,0,1-.381,1.21,1.76,1.76,0,0,1-1.515.716,1.734,1.734,0,0,1-1.127-.411,1.335,1.335,0,0,1-.488-1.044,1.368,1.368,0,0,1,.853-1.378c.571-.236.859-.4.859-.495a1.35,1.35,0,0,0-.309-.449,2.111,2.111,0,0,0-1.444-.457,2.9,2.9,0,0,0-1.63.457,1.421,1.421,0,0,0-.672,1.249v13.378c-.822.274-1.59.541-2.3.807a5.493,5.493,0,0,0-1.9,1.15h-.4Zm.072,13.919a5.205,5.205,0,0,1,1.835-1.911,4.114,4.114,0,0,1,2.2-.678,18.942,18.942,0,0,1,2.513.549,7.448,7.448,0,0,0,1.85.259,5.039,5.039,0,0,0,1.053-.122,2.336,2.336,0,0,0,.916-.442h.257v.328a5.477,5.477,0,0,1-1.763,2.375,4.678,4.678,0,0,1-2.694.708,7.116,7.116,0,0,1-2.313-.388,6.354,6.354,0,0,0-2.122-.388c-.221,0-.478,0-.771.015s-.611.053-.956.107Z" transform="translate(-713.879 -757.626)"/></g><g transform="translate(33 18.967)"><path class="d" d="M652.172,640.71l-5.387,2.14,1.234,2.277,21.341-.263,1.506-2.014-4.771-2.14Z" transform="translate(-614.435 -592.143)"/><g transform="translate(30.037)"><rect class="e" width="13.917" height="14.521" transform="translate(7.706 41.9)"/><path class="f" d="M666.095,636.846v3.537a8.413,8.413,0,0,1-5.684,2.653H657.78a8.38,8.38,0,0,1-5.6-2.593v-3.472l1.2,1.911.312-4.839H664.5l.315,4.839Z" transform="translate(-644.472 -592.143)"/><path class="c" d="M666.9,598.423a5.628,5.628,0,0,0,.2-1.8c-.226-1.922-4.214-4.481-8-4.481-4.446,0-7.791,2.292-8.1,4.481a5.618,5.618,0,0,0,.484,2.715,7.6,7.6,0,0,0,.6,15.181,22.975,22.975,0,0,0,5.941-1.736l2.247-.011a24.11,24.11,0,0,0,6.485,1.74,8.046,8.046,0,0,0,.139-16.09Z" transform="translate(-644.472 -592.143)"/><path class="e" d="M660.411,600.942h-2.627c-6.866,0-12.442,4.7-12.442,10.494,0,0,.055,14.205.164,14.879.951,6.126,6.091,15.59,12.278,15.59h2.627c6.183,0,11.328-9.464,12.278-15.59.1-.674.165-14.879.165-14.879C672.854,605.64,667.283,600.942,660.411,600.942Z" transform="translate(-644.472 -592.143)"/><path class="c" d="M656.1,639.964a3.324,3.324,0,1,0,6.567.742,3.212,3.212,0,0,0-.2-1.13,3.138,3.138,0,0,0-.252-6.267,9.4,9.4,0,0,0-2.452.716l-.925,0a10.589,10.589,0,0,0-2.684-.719,3.328,3.328,0,0,0-.055,6.655Z" transform="translate(-644.472 -592.143)"/><path class="e" d="M662.43,636.457a1.662,1.662,0,0,1-.873-.247l-.8-.48-3.249-.023-.811.5a1.608,1.608,0,0,1-.855.224,1.408,1.408,0,0,1-1.243-.5c-.781-.918,3.413-6.674,4.492-6.674s5.443,5.406,4.575,6.693a1.777,1.777,0,0,1-1.23.5Z" transform="translate(-644.472 -592.143)"/><g transform="translate(6.219 23.725)"><path class="c" d="M651.1,617.783a1.709,1.709,0,0,0-.411,1.108,2.344,2.344,0,0,0,4.622,0,1.715,1.715,0,0,0-.411-1.108Z" transform="translate(-650.691 -615.868)"/><path class="f" d="M659.99,615.868h-1.784l-1.234,9.115,2.128,2.448,2.122-2.448Z" transform="translate(-650.691 -615.868)"/><path class="c" d="M667.087,617.783a1.688,1.688,0,0,1,.417,1.108,2.346,2.346,0,0,1-4.626,0,1.683,1.683,0,0,1,.417-1.108Z" transform="translate(-650.691 -615.868)"/></g><g class="g" transform="translate(12.13 39.886)"><rect class="h" width="5.085" height="1.241"/></g><path class="c" d="M662.646,612.845l6.893.845-6.893.83Z" transform="translate(-644.472 -592.143)"/><path class="c" d="M655.543,614.52l-6.743-.83,6.743-.845Z" transform="translate(-644.472 -592.143)"/></g><path class="d" d="M693.84,644.692l-5.269,4.934-2.313,7s7.812-1.561,7.864-1.363Z" transform="translate(-614.435 -592.143)"/><path class="d" d="M624.911,644.692l5.268,4.934,2.313,7s-7.812-1.561-7.859-1.363Z" transform="translate(-614.435 -592.143)"/><path class="i" d="M628.076,648.564l-.735,1.474-1.721,5.611s9.73-2.71,9.288-2.425Z" transform="translate(-614.435 -592.143)"/><path class="j" d="M700.166,663.942l-5.258,1.576-9.476,2.825-.6.179-12.151,3.624-.338.1-.747.221-3.71,1.108-1.429.434-4.626,1.382-2.307.692-8.949,2.673-1.871.533-.421.134-2.338.7-1.475.446-4.241,1.26-6.383,1.915-.012-1.813-.051-5.261-4.209,7.112v1.23l-4.45,1.336-10.687,3.186v-15l.036-.765v-.076l.1-2.246.36-.845,2.1-4.995,2.108-4.977,2.246-5.337.847-2,.94-2.238,1.569-.393,2.594-.609.13-.042.2-.042.317-.087.172-.034.554-.13.756-.186h.015l.078-.035.385-.087,7.1-1.721.755-.187.326-.068.765-.2,5.69-1.363.1-.034.653-.164,2.153-.522.472-.118,4.211-1.005h13.917l3.3.8.8.2.457.1,5.046,1.234,4.544,1.1,8.45,2.049.494.121,1.952.473,2.7.658.158.027,1.012.263,2.1,5.269,2.107,5.284.6,1.451Z" transform="translate(-614.435 -592.143)"/><path class="k" d="M675.7,646.36l-14.643,14.635-.626.625-2.488,2.49-.021.019-4.024,4.028-.211.206-7.03,7.047-2.164,2.159-.992.986-1.079,1.078-2.195,2.2-6.383,1.915-.012-1.812,6.543-6.521,1.09-1.1.76-.746,2.252-2.277.689-.685.683-.678.293-.289,8.279-8.277.129-.122.314-.316.009-.015,2.376-2.383.6-.605,12.8-12.785Z" transform="translate(-614.435 -592.143)"/><path class="k" d="M693.84,650.757l-8.8,8.8-12.474,12.48-.221.213-.746.221-3.71,1.108-1.43.434-4.626,1.382-2.307.693-8.949,2.673-1.871.533-.421.133.324-.331,1.331-1.321,6.276-6.286.637-.636,3.387-3.38.4-.389,3.3-3.312,16.312-16.314,8.45,2.048.493.122,1.953.472Z" transform="translate(-614.435 -592.143)"/><path class="f" d="M672.679,672.146l-.338.1-.747.221-3.71,1.108-1.429.434-4.626,1.382-2.307.692-8.949,2.673-1.871.533-.421.134-2.338.7-1.475.446-.967-2.015-2.035-4.248L634.9,660.633l-3.181-6.647-.3-.636-.017-.023-1.778-3.7v-.011l-.055-.126.385-.087,7.1-1.721.755-.187.326-.068.765-.2,5.69-1.363.1-.034.653-.164c2.014,2.067,6.763,6.716,12.508,12.244,1.034,1.009,2.119,2.037,3.208,3.084q1.41,1.371,2.874,2.775c2.852,2.738,5.776,5.551,8.629,8.266A.5.5,0,0,1,672.679,672.146Z" transform="translate(-614.435 -592.143)"/><path class="c" d="M659.522,676.086l-8.949,2.673-1.871.533-.421.134-2.338.7-1.45-2.554-2.267-4.009L634.9,660.633l-2.6-4.607-1.085-1.919-2.5-4.4-.638-1.146.767-.19,14.73-3.682c.154.214.5.606,1.013,1.173,2.081,2.22,6.908,7.009,12.665,12.651q1.547,1.531,3.181,3.1c.946.925,1.9,1.866,2.863,2.791,2.739,2.691,5.572,5.425,8.3,8.06l-3.71,1.108-1.429.434-4.626,1.382Z" transform="translate(-614.435 -592.143)"/><path class="l" d="M646.785,642.85l.71,2.3,11.02,6.393-.324-7.523Z" transform="translate(-614.435 -592.143)"/><path class="l" d="M670.865,642.85l-.716,2.3-11.014,6.393.32-7.523Z" transform="translate(-614.435 -592.143)"/><path class="f" d="M657.944,664.109l2.05,2.178c-.735-.762-1.434-1.481-2.071-2.159-1.222-1.26-2.262-2.349-3.057-3.213-.768-.815-1.327-1.413-1.63-1.728l1.639,1.713Z" transform="translate(-614.435 -592.143)"/><path class="f" d="M660.632,667.082c2.451,2.308,4.918,4.531,7.252,6.5l-1.429.434-6.219-6.541-2.755-2.9-.3-.324-2.756-2.9-5.479-5.757-.138-.163a.908.908,0,0,0,.154.156c1.7,1.747,3.588,3.666,5.592,5.642.931.917,1.892,1.862,2.858,2.787.108.1.211.205.314.316C658.69,665.251,659.655,666.165,660.632,667.082Z" transform="translate(-614.435 -592.143)"/><path class="f" d="M650.573,678.759l-1.871.533-.1-.2-1.947-3.685-2.18-4.127-2.406-4.584-2.9-5.124,6,9.023,2.507,3.784,2.262,3.392Z" transform="translate(-614.435 -592.143)"/><path class="f" d="M661.829,675.394l-2.307.693-1.7-2.589-1.609-2.01-2.524-3.125-1.222-1.508,1.434,1.3,2.95,2.7Z" transform="translate(-614.435 -592.143)"/><path class="f" d="M633.781,676.669l-4.209,7.112v1.23l-4.451,1.336-3.244-.659,4.462-2.037Z" transform="translate(-614.435 -592.143)"/><path class="f" d="M700.166,663.942l-5.258,1.576-9.476,2.825-.6.179-.571-7.108.777-1.858,1.222-2.932,2.93-7,1.953.472,2.7.658.158.027,1.012.263,2.1,5.269,2.107,5.285.6,1.451Z" transform="translate(-614.435 -592.143)"/><path class="j" d="M694.908,665.518l-9.476,2.825-.048-6.724,2.422-4.831.251-.522,3.083-6.167,2.7-5.407s6.872,8.658,7.078,8.5a21.543,21.543,0,0,1,.513,2.585c.313,1.911.756,4.668,1.186,7.443l-2.21.644-.241.08Z" transform="translate(-614.435 -592.143)"/><path class="f" d="M633.972,662.167l-.191,11.951-16.287-2.752a8.076,8.076,0,0,1,.082-1.318l4.662-16.763.94-2.238L627.471,650l.2-.042.317-.087.172-.034Z" transform="translate(-614.435 -592.143)"/><path class="j" d="M633.781,675.5,618.4,674.118l-3.927-.354h-.009a.293.293,0,0,1,.009-.061v-.015c.042-.308.223-1.466.463-3.091.864-5.768,2.621-17.407,2.8-17.407.226.16,7.081-8.5,7.081-8.5l.048.1L627.471,650l5.8,11.616Z" transform="translate(-614.435 -592.143)"/><path class="k" d="M702.633,663.2h-.016l-2.2.651-.236.1-1.116.316-1.26.369-2.888.864,2.2-9.175.535-2.261-3.792-9.378c.4.5,6.748,8.49,7.066,8.49a19.8,19.8,0,0,1,.453,2.251,1.784,1.784,0,0,1,.067.342c.015.13.051.267.066.411.1.625.221,1.3.333,2.064.037.3.084.594.151.917,0,.1.036.214.051.351.082.514.164,1.047.251,1.61.016.1.016.2.031.267C702.448,662,702.53,662.6,702.633,663.2Z" transform="translate(-614.435 -592.143)"/><path class="k" d="M624.865,644.818l-3.758,9.252.284,1.2,3.242,13.519-6.229,5.345-1.372,1.173s-2.02,8.208-2.256,8.475c-.052.057-.151.034-.335-.038v-9.191l.03-.788V673.7l.1-2.284.335-.739.03-.095v-.049c.6-3.922,1.588-10.527,2.225-14.35.052-.281.082-.548.134-.78a15.077,15.077,0,0,1,.453-2.224c.335,0,7.083-8.49,7.083-8.49h.082Z" transform="translate(-614.435 -592.143)"/><path class="c" d="M659.095,598.2l-9.263,2.745-5.17,7v11.648l1.672.986.293-12.11s.3-4.2,3.921-4.2,8.553,2.53,8.553,2.53,5-2.53,8.541-2.53,3.931,4.2,3.931,4.2l.284,12.11,1.675-.986,1.07-11.031-5.064-7.618Z" transform="translate(-614.435 -592.143)"/><g transform="translate(0.499 63.918)"><path class="c" d="M619.662,664.078c-.333,2.045-1.588,3.519-2.791,3.313a1.593,1.593,0,0,1-1.031-.72l.7,4.139-1.6-.267c.6-3.929,1.589-10.527,2.221-14.349a1.13,1.13,0,0,0,.1-.133S619.9,662.681,619.662,664.078Z" transform="translate(-614.934 -656.061)"/></g><path class="f" d="M643.156,649.626a2.761,2.761,0,0,0-.236-.692,3.787,3.787,0,0,0-4.652-1.733,3.333,3.333,0,0,0-2.3,4.276,3.246,3.246,0,0,0,.651,1.028,3.835,3.835,0,0,0-2.174,4.633,3.681,3.681,0,0,0,5.073,1.968,11.779,11.779,0,0,0,2.467-2.052l-.7,5.368,5.859-2.836-4.142-2.969a11.473,11.473,0,0,0,3.2-.507,3.355,3.355,0,0,0,1.66-4.687A3.9,3.9,0,0,0,643.156,649.626Z" transform="translate(-614.435 -592.143)"/><path class="m" d="M643.065,650.285a3.949,3.949,0,0,0-.223-.735,3.409,3.409,0,0,0-6.265,2.688,3.223,3.223,0,0,1-.822,5.087,3.231,3.231,0,0,0,4.226,1.7,9.784,9.784,0,0,0,2.024-1.664l-.535,4.295,4.888-2.1-3.48-2.582a10.432,10.432,0,0,0,2.812-.4,3.408,3.408,0,0,0-2.625-6.289Z" transform="translate(-614.435 -592.143)"/><path class="f" d="M642.772,657.941l1.921,1.417-2.214.948Zm-4.051.507a2.386,2.386,0,0,1-1.116-4.5l.977-.515-.756-.8a2.536,2.536,0,0,1,.874-4.1,2.479,2.479,0,0,1,1.013-.221,2.554,2.554,0,0,1,2.358,1.564,2.435,2.435,0,0,1,.175.568l.2.986.929-.381a2.61,2.61,0,0,1,.977-.186,2.568,2.568,0,0,1,2.385,3.529,2.525,2.525,0,0,1-1.373,1.405,10.69,10.69,0,0,1-2.286.35l-1.747.712a10.564,10.564,0,0,1-1.677,1.386A2.484,2.484,0,0,1,638.721,658.448Z" transform="translate(-614.435 -592.143)"/><path class="f" d="M702.633,663.2c-.092-.54-.174-1.089-.273-1.629-.009-.077-.024-.161-.036-.229s-.015-.137-.025-.217c-.087-.563-.169-1.1-.251-1.61-.015-.137-.051-.248-.051-.351-.067-.323-.114-.616-.151-.917-.112-.762-.236-1.439-.333-2.064-.015-.144-.051-.281-.066-.411a1.784,1.784,0,0,0-.067-.342,19.8,19.8,0,0,0-.453-2.251c-.318,0-6.667-7.987-7.066-8.49l.024.061a.368.368,0,0,1-.045-.061l-5.146,4.813-8.45-2.049-4.544-1.1-5.046-1.234-.457-.1v-.015l.668-2.158-4.77-2.14v-1.466a24.847,24.847,0,0,0,6.594-12.929c.047-.289.084-3.16.109-6.293l.734-.431,1.07-11.031-.072-.1a7.957,7.957,0,0,0,.278-2,8.042,8.042,0,0,0-7.912-8.03,5.628,5.628,0,0,0,.2-1.8c-.226-1.922-4.209-4.481-7.987-4.481V676.2l.417-.111,2.307-.692,4.626-1.382,1.429-.434,3.71-1.108.747-.221.338-.1,12.151-3.624.6-.179,9.476-2.825,4.4-1.314.864-.247.139-.061.091-.034,2.21-.644,0-.015Z" transform="translate(-614.435 -592.143)"/><g transform="translate(0 80.248)"><path class="d" d="M664.892,722.807l5.393-2.126-1.234-2.277-21.345.259-1.5,2.018,4.77,2.126Z" transform="translate(-614.435 -673.996)"/><g transform="translate(27.823 40.966)"><rect class="e" width="13.914" height="14.521" transform="translate(8.716)"/><path class="f" d="M650.974,726.681v-3.532a8.4,8.4,0,0,1,5.685-2.655h2.626a8.39,8.39,0,0,1,5.6,2.579v3.486l-1.2-1.911-.313,4.835H652.568l-.314-4.835Z" transform="translate(-642.258 -714.962)"/><path class="c" d="M650.177,765.1a5.427,5.427,0,0,0-.2,1.8c.23,1.926,4.209,4.485,7.993,4.485,4.445,0,7.792-2.292,8.094-4.485a5.635,5.635,0,0,0-.477-2.711,7.6,7.6,0,0,0-.608-15.183,22.373,22.373,0,0,0-5.935,1.736h-2.252a24.6,24.6,0,0,0-6.486-1.728,8.045,8.045,0,0,0-.129,16.089Z" transform="translate(-642.258 -714.962)"/><path class="e" d="M656.659,762.575h2.626c6.872,0,12.439-4.683,12.439-10.5,0,0-.052-14.193-.16-14.87-.956-6.122-6.1-15.577-12.279-15.577h-2.626c-6.189,0-11.328,9.455-12.279,15.577-.108.677-.165,14.87-.165,14.87C644.215,757.892,649.787,762.575,656.659,762.575Z" transform="translate(-642.258 -714.962)"/><path class="c" d="M660.97,723.559a3.213,3.213,0,0,0,.078-.737,3.322,3.322,0,0,0-6.645,0,3.244,3.244,0,0,0,.2,1.125,3.138,3.138,0,0,0,.247,6.267,9.326,9.326,0,0,0,2.456-.716h.931a10.366,10.366,0,0,0,2.672.716,3.328,3.328,0,0,0,.061-6.655Z" transform="translate(-642.258 -714.962)"/><path class="e" d="M654.639,727.069a1.6,1.6,0,0,1,.874.251l.792.48,3.257.007.807-.487a1.568,1.568,0,0,1,.849-.244,1.408,1.408,0,0,1,1.249.518c.786.914-3.413,6.671-4.493,6.671s-5.442-5.407-4.574-6.694a1.729,1.729,0,0,1,1.227-.5Z" transform="translate(-642.258 -714.962)"/><g transform="translate(7.308 21.138)"><path class="c" d="M665.967,745.747a1.754,1.754,0,0,0,.412-1.112,2.345,2.345,0,0,0-4.626,0,1.734,1.734,0,0,0,.415,1.112Z" transform="translate(-649.566 -736.1)"/><path class="f" d="M657.079,747.658h1.784l1.234-9.115L657.97,736.1l-2.124,2.444Z" transform="translate(-649.566 -736.1)"/><path class="c" d="M649.977,745.747a1.753,1.753,0,0,1-.411-1.112,2.342,2.342,0,0,1,4.62,0,1.72,1.72,0,0,1-.411,1.112Z" transform="translate(-649.566 -736.1)"/></g><g class="g" transform="translate(13.125 15.282)"><rect class="h" width="5.085" height="1.257"/></g><path class="c" d="M654.418,750.681l-6.887-.845,6.887-.83Z" transform="translate(-642.258 -714.962)"/><path class="c" d="M661.521,749.006l6.745.83-6.745.845Z" transform="translate(-642.258 -714.962)"/></g><path class="d" d="M623.229,718.834l5.27-4.934,2.312-6.994s-7.817,1.561-7.859,1.363Z" transform="translate(-614.435 -673.996)"/><path class="d" d="M692.159,718.834,686.89,713.9l-2.313-6.994s7.812,1.561,7.86,1.363Z" transform="translate(-614.435 -673.996)"/><path class="i" d="M688.993,714.962l.729-1.473,1.727-5.612s-9.73,2.714-9.292,2.425Z" transform="translate(-614.435 -673.996)"/><path class="j" d="M616.908,699.573l5.254-1.564,9.476-2.822.6-.179,12.157-3.624.333-.118.74-.213,3.711-1.1,1.435-.431,4.625-1.385,2.3-.69,8.955-2.672,1.871-.545.42-.121,2.334-.7,1.476-.445,4.245-1.261,6.382-1.911.016,1.809.041,5.265,4.209-7.116v-1.226l4.457-1.336L702.633,674v15l-.035.769v.076l-.108,2.246-.36.838-2.1,5-2.107,4.972-2.242,5.341-.847,2-.941,2.243-1.572.384-2.6.617-.124.038-.2.042-.324.083-.163.027-.556.145L687.6,714h-.01l-.083.035-.385.091-7.1,1.721-.754.183-.329.068-.768.2-5.684,1.367-.1.019-.653.179-2.152.521-.478.115-4.209,1.009H650.974l-3.3-.8-.8-.2-.453-.1-5.049-1.234-4.542-1.112-8.456-2.04-.487-.118-1.953-.473-2.7-.658-.159-.027-1.017-.258-2.1-5.266-2.108-5.288-.592-1.454Z" transform="translate(-614.435 -673.996)"/><path class="k" d="M641.367,717.17l14.638-14.639.628-.624,2.492-2.486.021-.034,4.024-4.017.206-.205,7.035-7.044,2.164-2.159.992-.986,1.074-1.078,2.2-2.2,6.383-1.911.015,1.809-6.552,6.525-1.085,1.1-.759.746-2.252,2.273-.689.682-.689.685-.287.278-8.281,8.288-.128.122-.314.316-.01.011-2.37,2.387-.611.6-12.8,12.788Z" transform="translate(-614.435 -673.996)"/><path class="k" d="M623.229,712.769l8.8-8.8,12.47-12.48.225-.225.74-.213,3.71-1.1,1.435-.43,4.626-1.386,2.3-.689,8.955-2.672,1.871-.545.421-.122-.329.327-1.325,1.325-6.276,6.27-.644.636-3.381,3.392-.4.392-3.3,3.308-16.308,16.3-8.456-2.041-.487-.118-1.953-.472Z" transform="translate(-614.435 -673.996)"/><path class="f" d="M644.4,691.384l.333-.118.74-.213,3.711-1.1,1.435-.431,4.625-1.385,2.3-.69,8.955-2.672,1.871-.545.42-.121,2.334-.7,1.476-.445.97,2.017,2.035,4.249,6.569,13.672,3.182,6.647.3.636.012.015,1.784,3.705v.015l.055.122-.385.091-7.1,1.721-.754.183-.329.068-.768.2-5.684,1.367-.1.019-.653.179c-2.008-2.071-6.767-6.716-12.514-12.248-1.033-1.005-2.113-2.033-3.207-3.084-.941-.925-1.892-1.835-2.873-2.775-2.848-2.734-5.777-5.551-8.629-8.265A.837.837,0,0,1,644.4,691.384Z" transform="translate(-614.435 -673.996)"/><path class="c" d="M657.542,687.443l8.955-2.672,1.871-.545.42-.121,2.334-.7,1.455,2.558,2.267,4.009,7.328,12.926,2.6,4.6,1.085,1.911,2.5,4.409.637,1.142-.767.194-14.73,3.678c-.154-.21-.5-.6-1.013-1.169-2.08-2.227-6.906-7.02-12.659-12.651-1.037-1.021-2.1-2.071-3.19-3.107-.942-.937-1.9-1.862-2.859-2.794-2.745-2.688-5.57-5.422-8.306-8.06l3.711-1.1,1.435-.431,4.625-1.385Z" transform="translate(-614.435 -673.996)"/><path class="l" d="M670.285,720.68l-.71-2.3-11.02-6.4.32,7.527Z" transform="translate(-614.435 -673.996)"/><path class="l" d="M646.2,720.68l.714-2.3,11.016-6.4-.32,7.527Z" transform="translate(-614.435 -673.996)"/><path class="f" d="M659.126,699.421l-2.051-2.178c.735.746,1.434,1.477,2.072,2.144,1.218,1.268,2.255,2.364,3.057,3.228.771.815,1.327,1.4,1.629,1.725l-1.639-1.714Z" transform="translate(-614.435 -673.996)"/><path class="f" d="M656.432,696.448c-2.446-2.311-4.919-4.531-7.252-6.5l1.435-.431,6.219,6.537,2.754,2.894.3.327,2.755,2.9,5.474,5.757.139.148a1.362,1.362,0,0,0-.148-.145c-1.7-1.747-3.589-3.666-5.593-5.638-.931-.917-1.9-1.866-2.863-2.791l-.314-.312C658.376,698.275,657.415,697.35,656.432,696.448Z" transform="translate(-614.435 -673.996)"/><path class="f" d="M666.5,684.771l1.871-.545.092.205,1.953,3.689,2.18,4.123,2.4,4.588,2.908,5.125-6-9.031-2.513-3.777-2.256-3.392Z" transform="translate(-614.435 -673.996)"/><path class="f" d="M655.24,688.133l2.3-.689,1.711,2.589,1.605,1.995,2.518,3.137,1.222,1.508-1.428-1.3-2.956-2.707Z" transform="translate(-614.435 -673.996)"/><path class="f" d="M683.282,686.861l4.209-7.116v-1.226l4.456-1.336,3.244.658-4.462,2.033Z" transform="translate(-614.435 -673.996)"/><path class="f" d="M616.908,699.573l5.254-1.565,9.476-2.821.6-.179.571,7.1-.777,1.858-1.222,2.935-2.929,6.994-1.953-.472-2.7-.658-.16-.026-1.017-.259-2.1-5.265-2.107-5.288-.592-1.454Z" transform="translate(-614.435 -673.996)"/><path class="j" d="M622.162,698.009l9.476-2.822.042,6.72-2.416,4.831-.257.522-3.078,6.167-2.7,5.407s-6.872-8.654-7.081-8.5a21.5,21.5,0,0,1-.51-2.581c-.318-1.911-.756-4.668-1.186-7.443l2.2-.659.252-.08Z" transform="translate(-614.435 -673.996)"/><path class="f" d="M683.1,701.359l.181-11.951,16.293,2.756a8.015,8.015,0,0,1-.082,1.314l-4.661,16.763-.941,2.243-4.293,1.039-.2.042-.324.083-.163.027Z" transform="translate(-614.435 -673.996)"/><path class="j" d="M683.282,688.018l15.389,1.39,3.927.358h.01a.3.3,0,0,1-.01.061v.015c-.047.308-.22,1.466-.468,3.084-.858,5.775-2.612,17.41-2.8,17.41-.221-.156-7.082,8.5-7.082,8.5l-.045-.107-2.6-5.2-5.8-11.616Z" transform="translate(-614.435 -673.996)"/><path class="k" d="M614.435,700.327h.017l2.2-.659.236-.1,1.122-.309,1.248-.369,2.888-.879-2.2,9.19-.541,2.262,3.794,9.369c-.4-.495-6.749-8.486-7.068-8.486a22.051,22.051,0,0,1-.448-2.262,1.431,1.431,0,0,1-.066-.327c-.021-.129-.051-.267-.067-.419-.1-.617-.215-1.31-.333-2.056-.036-.3-.084-.6-.151-.918,0-.1-.036-.212-.051-.35-.087-.513-.169-1.054-.251-1.625-.015-.1-.015-.183-.036-.267C614.621,701.526,614.534,700.921,614.435,700.327Z" transform="translate(-614.435 -673.996)"/><path class="k" d="M692.2,718.712l3.762-9.251-.284-1.2-3.242-13.519,6.234-5.345,1.367-1.173s2.02-8.212,2.252-8.479c.051-.053.154-.042.339.042v9.191l-.037.788v.061l-.1,2.276-.33.747-.036.08v.057c-.6,3.925-1.587,10.527-2.219,14.349-.052.29-.088.556-.134.788a13.884,13.884,0,0,1-.453,2.22c-.333,0-7.083,8.486-7.083,8.486h-.082Z" transform="translate(-614.435 -673.996)"/><path class="c" d="M657.97,765.331l9.261-2.756,5.176-6.99v-11.65l-1.675-.982-.289,12.1s-.3,4.211-3.926,4.211-8.547-2.529-8.547-2.529-5,2.529-8.549,2.529-3.921-4.211-3.921-4.211l-.288-12.1-1.675.982-1.07,11.018,5.064,7.622Z" transform="translate(-614.435 -673.996)"/><g transform="translate(82.958 18.724)"><path class="c" d="M697.407,699.44c.333-2.033,1.582-3.507,2.791-3.3a1.548,1.548,0,0,1,1.032.719l-.7-4.138,1.6.252c-.6,3.929-1.584,10.527-2.219,14.349-.064.1-.1.144-.1.144S697.175,700.845,697.407,699.44Z" transform="translate(-697.393 -692.72)"/></g><path class="f" d="M673.907,713.9a3.721,3.721,0,0,0,.236.7,3.809,3.809,0,0,0,4.658,1.729,3.343,3.343,0,0,0,2.3-4.28,3.185,3.185,0,0,0-.653-1.027,3.828,3.828,0,0,0,2.168-4.63,3.663,3.663,0,0,0-5.067-1.968,12.171,12.171,0,0,0-2.467,2.036l.7-5.368-5.859,2.852,4.137,2.966a11.433,11.433,0,0,0-3.191.51,3.355,3.355,0,0,0-1.66,4.687A3.9,3.9,0,0,0,673.907,713.9Z" transform="translate(-614.435 -673.996)"/><path class="m" d="M674.006,713.245a3.525,3.525,0,0,0,.221.731,3.405,3.405,0,0,0,6.259-2.684,3.266,3.266,0,0,0-.637-.975,3.218,3.218,0,0,0-2.759-5.809,9.426,9.426,0,0,0-2.025,1.663l.533-4.3-4.887,2.1,3.48,2.584a10.522,10.522,0,0,0-2.818.4,3.411,3.411,0,0,0,2.633,6.293Z" transform="translate(-614.435 -673.996)"/><path class="f" d="M674.294,705.589l-1.914-1.421,2.207-.944Zm4.054-.507a2.385,2.385,0,0,1,1.116,4.5l-.982.515.761.8a2.4,2.4,0,0,1,.478.727,2.572,2.572,0,0,1-1.357,3.373,2.513,2.513,0,0,1-1.007.206,2.562,2.562,0,0,1-2.365-1.55,2.771,2.771,0,0,1-.169-.575l-.2-.989-.937.377a2.389,2.389,0,0,1-.967.2,2.575,2.575,0,0,1-2.394-3.53,2.54,2.54,0,0,1,1.378-1.4,10.707,10.707,0,0,1,2.292-.35l1.742-.712a9.316,9.316,0,0,1,1.68-1.386A2.215,2.215,0,0,1,678.348,705.082Z" transform="translate(-614.435 -673.996)"/><path class="f" d="M614.435,700.327c.087.541.171,1.089.274,1.63.015.076.025.156.034.224s.017.137.027.206c.082.571.164,1.112.251,1.625.015.138.051.248.051.35.067.321.115.617.151.918.118.746.23,1.439.333,2.056.016.152.046.29.067.419a1.431,1.431,0,0,0,.066.327,22.051,22.051,0,0,0,.448,2.262c.319,0,6.666,7.991,7.068,8.486l-.027-.057c.021.023.051.061.051.061l5.14-4.816,8.456,2.04,4.542,1.112,5.049,1.234.453.1h.009l-.674,2.173,4.77,2.127v1.475A24.883,24.883,0,0,0,644.38,737.2c-.047.3-.087,3.167-.114,6.3l-.729.434-1.07,11.018.073.122a7.683,7.683,0,0,0-.282,1.995,8.043,8.043,0,0,0,7.919,8.033,5.427,5.427,0,0,0-.2,1.8c.23,1.926,4.205,4.485,7.982,4.485V687.318l-.417.125-2.3.69-4.625,1.385-1.435.431-3.711,1.1-.74.213-.333.118-12.157,3.624-.6.179-9.476,2.822-4.4,1.317-.865.24-.142.06-.094.027-2.2.659v.015Z" transform="translate(-614.435 -673.996)"/></g></g></g><path class="c" d="M612.729,616.363a4.718,4.718,0,0,0,.1-.979,4.322,4.322,0,0,0-8.644,0,4.184,4.184,0,0,0,.257,1.459,4.087,4.087,0,0,0,.324,8.162,12.087,12.087,0,0,0,3.19-.933L605.2,628.82h6.742l-2.769-4.748a13.254,13.254,0,0,0,3.489.933,4.321,4.321,0,0,0,.072-8.642Z" transform="translate(-8 -0.388)"/><path class="c" d="M620.989,664.387c-.314,2.079-1.768,3.564-3.253,3.339a7.043,7.043,0,0,1-2.041-1.131l1.1,4.359-1.886-.274.03-.095v-.049c.6-3.922,1.588-10.527,2.225-14.35.052-.281.082-.548.134-.78,1.306.377,2.1,2.117,1.8,4.028a4.294,4.294,0,0,1-.2.83C620.357,660.511,621.291,662.354,620.989,664.387Z" transform="translate(4 -0.388)"/><path class="c" d="M702.633,663.2h-.016l-2.2.651-.236.1-1.116.316-1.26.369c-.015-.084-.03-.171-.049-.255-.3-2.033.641-3.876,2.09-4.123a4.3,4.3,0,0,1-.2-.83c-.3-1.87.468-3.579,1.738-4a1.784,1.784,0,0,1,.067.342c.015.13.051.267.066.411.1.625.221,1.3.333,2.064.037.3.084.594.151.917,0,.1.036.214.051.351.082.514.164,1.047.251,1.61.016.1.016.2.031.267C702.448,662,702.53,662.6,702.633,663.2Z" transform="translate(4 -0.388)"/><path class="f" d="M612.729,616.363a4.718,4.718,0,0,0,.1-.979,4.318,4.318,0,0,0-4.323-4.317s-.01.011-.019.011V628.82h3.447l-2.769-4.748a13.254,13.254,0,0,0,3.489.933,4.321,4.321,0,0,0,.072-8.642Z" transform="translate(-8 -0.388)"/><path class="c" d="M614.966,661.973c.314-2.079,1.768-3.564,3.253-3.339a7.043,7.043,0,0,1,2.041,1.131l-1.1-4.359,1.886.274-.03.095v.049c-.6,3.922-1.588,10.527-2.225,14.35-.052.281-.082.548-.134.78-1.306-.377-2.1-2.117-1.8-4.028a4.294,4.294,0,0,1,.2-.83C615.6,665.849,614.664,664.006,614.966,661.973Z" transform="translate(85 35.612)"/><g transform="translate(717.263 731.968)"><path class="c" d="M716.4,745.724a4.327,4.327,0,1,0,8.547.967,4.188,4.188,0,0,0-.262-1.462,4.08,4.08,0,0,0-.324-8.147,11.867,11.867,0,0,0-3.192.929l2.771-4.751-6.748.007,2.77,4.744a13.308,13.308,0,0,0-3.485-.929,4.321,4.321,0,0,0-.077,8.642Z" transform="translate(-712.153 -733.26)"/><path class="f" d="M716.4,745.724a4.36,4.36,0,0,0,4.219,5.285h.02V733.267H717.2l2.77,4.744a13.308,13.308,0,0,0-3.485-.929,4.321,4.321,0,0,0-.077,8.642Z" transform="translate(-712.153 -733.26)"/></g></g></svg>