<svg xmlns="http://www.w3.org/2000/svg" width="154" height="215" viewBox="0 0 154 215"><defs><style>.a{fill:#c9c9c9;}.b{fill:#fff;}.c{fill:#333;}.d{fill:#616161;opacity:0.2;}.e,.f{stroke:none;}.f{fill:#c4c4c4;}</style></defs><g transform="translate(-1531.929 -1340.6)"><g transform="translate(1531.929 1340.6)"><path class="a" d="M1548.844,1555.6a16.23,16.23,0,0,1-16.444-16.169l-.469-182.563a16.21,16.21,0,0,1,16.43-16.267l120.924.219a16.6,16.6,0,0,1,16.615,16.3v182.173a16.5,16.5,0,0,1-16.555,16.168Z" transform="translate(-1531.929 -1340.6)"/><g class="b" transform="translate(-1531.929 -1340.6)"><path class="e" d="M 1669.527954101563 1554.64306640625 L 1550.3671875 1554.64306640625 C 1548.222534179688 1554.64306640625 1546.142700195313 1554.220703125 1544.185424804688 1553.3876953125 C 1542.293701171875 1552.582641601563 1540.600952148438 1551.432250976563 1539.15380859375 1549.968627929688 C 1536.22216796875 1547.003173828125 1534.633666992188 1543.087158203125 1534.68115234375 1538.942138671875 L 1534.68115234375 1538.939208984375 L 1534.68115234375 1538.936401367188 L 1534.68115234375 1356.806396484375 L 1534.68115234375 1356.803588867188 L 1534.68115234375 1356.800659179688 C 1534.633666992188 1352.660278320313 1536.221435546875 1348.74755859375 1539.151733398438 1345.783569335938 C 1540.598876953125 1344.319702148438 1542.2919921875 1343.169067382813 1544.183959960938 1342.36376953125 C 1546.141723632813 1341.530517578125 1548.222045898438 1341.108032226563 1550.3671875 1341.108032226563 L 1669.527954101563 1341.108032226563 C 1673.732666015625 1341.108032226563 1677.700927734375 1342.743408203125 1680.70166015625 1345.713012695313 C 1683.69677734375 1348.677001953125 1685.375732421875 1352.6181640625 1685.429443359375 1356.810668945313 L 1685.429443359375 1538.936401367188 C 1685.375732421875 1543.128173828125 1683.69677734375 1547.071899414063 1680.70166015625 1550.036987304688 C 1677.701293945313 1553.00732421875 1673.733032226563 1554.64306640625 1669.527954101563 1554.64306640625 Z"/><path class="f" d="M 1669.527954101563 1554.14306640625 C 1673.600463867188 1554.14306640625 1677.443725585938 1552.558715820313 1680.349853515625 1549.681640625 C 1683.25 1546.810546875 1684.876342773438 1542.992309570313 1684.929443359375 1538.93017578125 L 1684.929443359375 1356.812744140625 C 1684.876342773438 1352.754028320313 1683.250122070313 1348.938354492188 1680.349975585938 1346.068481445313 C 1677.443481445313 1343.192138671875 1673.60009765625 1341.608032226563 1669.527954101563 1341.608032226563 L 1550.3671875 1341.608032226563 C 1548.289794921875 1341.608032226563 1546.275268554688 1342.01708984375 1544.379760742188 1342.823852539063 C 1542.547973632813 1343.603637695313 1540.908569335938 1344.717651367188 1539.507202148438 1346.135131835938 C 1536.671630859375 1349.00341796875 1535.13525390625 1352.789184570313 1535.18115234375 1356.794921875 L 1535.18115234375 1356.800659179688 L 1535.18115234375 1356.806396484375 L 1535.18115234375 1538.936401367188 L 1535.18115234375 1538.942138671875 L 1535.18115234375 1538.947875976563 C 1535.13525390625 1542.958251953125 1536.67236328125 1546.747436523438 1539.509399414063 1549.617065429688 C 1540.910522460938 1551.034301757813 1542.549682617188 1552.148193359375 1544.381225585938 1552.927612304688 C 1546.276245117188 1553.734130859375 1548.290161132813 1554.14306640625 1550.3671875 1554.14306640625 L 1669.527954101563 1554.14306640625 M 1669.527954101563 1555.14306640625 L 1550.3671875 1555.14306640625 C 1541.39208984375 1555.14306640625 1534.078857421875 1547.876708984375 1534.18115234375 1538.936401367188 L 1534.18115234375 1356.806396484375 C 1534.078857421875 1347.874145507813 1541.39208984375 1340.608032226563 1550.3671875 1340.608032226563 L 1669.527954101563 1340.608032226563 C 1678.506958007813 1340.608032226563 1685.816284179688 1347.874145507813 1685.929443359375 1356.806396484375 L 1685.929443359375 1538.936401367188 C 1685.816284179688 1547.876708984375 1678.506958007813 1555.14306640625 1669.527954101563 1555.14306640625 Z"/></g><g transform="translate(136.419 185.273)"><path class="c" d="M1661.547,1532.932a14.778,14.778,0,0,1,1.406-2.6c.864-1.348,1.576-2.018,2.116-2.018h7.257c.091-.023.194-.046.32-.069a2.886,2.886,0,0,0,.46-.2h.434v.594a5.213,5.213,0,0,0-.815.846c-.837,1.089-1.865,2.406-3.072,3.959q-1.32,1.725-1.949,2.719a5.342,5.342,0,0,0-.971,2.52,3.617,3.617,0,0,0,.248,1.256,3.521,3.521,0,0,0,.677,1.142,4.67,4.67,0,0,0,.906.617,2.9,2.9,0,0,0,1.264.48,3.416,3.416,0,0,0,1.862-.944,5.447,5.447,0,0,1,1.367-.937c.316,0,.483.137.483.4s-.35.785-1.028,1.508a12.12,12.12,0,0,1-1.922,1.721c-.845.556-1.317.861-1.409.914a3.559,3.559,0,0,1-4.687-.6,3.8,3.8,0,0,1-1.275-2.855,5.093,5.093,0,0,1,.9-2.924c.092-.145.529-.746,1.31-1.79,1.089-1.492,1.74-2.383,1.946-2.649.891-1.173,1.336-1.789,1.336-1.835,0-.229-.141-.366-.419-.4a4.886,4.886,0,0,0-.8-.069h-.978a6.8,6.8,0,0,0-3.091.534c-.507.411-1.021.807-1.523,1.218a.418.418,0,0,1-.2-.046c-.073-.03-.122-.053-.153-.068Z" transform="translate(-1661.547 -1528.051)"/></g><g transform="translate(8.463 13.881)"><path class="c" d="M1562.377,1367.022a15.129,15.129,0,0,1-1.4,2.6c-.876,1.339-1.576,2.017-2.113,2.017H1551.6c-.091.023-.206.038-.32.076a2.981,2.981,0,0,0-.472.183h-.419v-.594a4.887,4.887,0,0,0,.8-.837c.845-1.089,1.865-2.414,3.072-3.967a30.989,30.989,0,0,0,1.95-2.711,5.206,5.206,0,0,0,.974-2.521,3.55,3.55,0,0,0-.247-1.263,3.626,3.626,0,0,0-.678-1.143,4.639,4.639,0,0,0-.906-.616,2.927,2.927,0,0,0-1.256-.48,3.494,3.494,0,0,0-1.87.944,5.3,5.3,0,0,1-1.366.944c-.317,0-.473-.145-.473-.411s.339-.769,1.017-1.508a12.357,12.357,0,0,1,1.926-1.721c.842-.555,1.31-.852,1.405-.906a3.939,3.939,0,0,1,1.881-.624,4.017,4.017,0,0,1,2.806,1.218,3.812,3.812,0,0,1,1.283,2.856,5.228,5.228,0,0,1-.9,2.939c-.095.145-.536.738-1.305,1.789-1.1,1.485-1.748,2.368-1.953,2.635a18.843,18.843,0,0,0-1.325,1.85c0,.206.133.343.411.4a4.2,4.2,0,0,0,.792.076h.978a6.83,6.83,0,0,0,3.1-.54c.5-.412,1.012-.823,1.515-1.234a.462.462,0,0,1,.2.061.857.857,0,0,1,.156.069Z" transform="translate(-1550.392 -1354.481)"/></g></g><g transform="translate(1592.315 1395.573)"><path class="c" d="M1601.809,1407.287a8.653,8.653,0,0,1-.225-2.018,9.029,9.029,0,0,1,18.058,0,8.771,8.771,0,0,1-.545,3.053,8.529,8.529,0,0,1-.674,17.034,25.538,25.538,0,0,1-6.662-1.942l5.779,9.914-14.094-.023,5.794-9.9a28.017,28.017,0,0,1-7.287,1.942,9.031,9.031,0,0,1-.144-18.061Z" transform="translate(-1592.919 -1396.246)"/><path class="d" d="M1601.809,1407.287a8.653,8.653,0,0,1-.225-2.018,9.024,9.024,0,0,1,9.027-9.023c.011,0,.027.015.042.015v37.06l-7.207-.016,5.794-9.9a28.017,28.017,0,0,1-7.287,1.942,9.031,9.031,0,0,1-.144-18.061Z" transform="translate(-1592.919 -1396.246)"/></g><g transform="translate(1542.262 1378.938)"><path class="c" d="M1558,1381.855a2.229,2.229,0,0,0,.05-.457,2.061,2.061,0,0,0-4.123,0,1.975,1.975,0,0,0,.125.693,1.949,1.949,0,0,0,.156,3.891,5.564,5.564,0,0,0,1.519-.449l-1.317,2.261h3.217l-1.325-2.261a6.1,6.1,0,0,0,1.664.449,2.064,2.064,0,0,0,.034-4.127Z" transform="translate(-1552.262 -1379.342)"/><path class="d" d="M1558,1381.855a2.229,2.229,0,0,0,.05-.457,2.048,2.048,0,0,0-2.056-2.056h-.012v8.452h1.645l-1.325-2.261a6.1,6.1,0,0,0,1.664.449,2.064,2.064,0,0,0,.034-4.127Z" transform="translate(-1552.262 -1379.342)"/></g><g transform="translate(1670.915 1510.784)"><path class="c" d="M1669.859,1518.526a2.165,2.165,0,0,1,.049.449,2.065,2.065,0,0,1-4.131,0,2.386,2.386,0,0,1,.122-.693,1.945,1.945,0,0,1,.168-3.883,6.131,6.131,0,0,1,1.511.442l-1.317-2.262h3.217l-1.321,2.262a6.392,6.392,0,0,1,1.66-.442,2.064,2.064,0,0,1,.042,4.127Z" transform="translate(-1664.114 -1512.579)"/><path class="d" d="M1669.859,1518.526a2.165,2.165,0,0,1,.049.449,2.063,2.063,0,0,1-2.063,2.064h-.008l0-8.46h1.645l-1.321,2.262a6.392,6.392,0,0,1,1.66-.442,2.064,2.064,0,0,1,.042,4.127Z" transform="translate(-1664.114 -1512.579)"/></g><g transform="translate(1593.718 1463.545)"><path class="c" d="M1603.221,1491.091a8.88,8.88,0,0,0-.221,2.018,9.031,9.031,0,0,0,18.062,0,8.681,8.681,0,0,0-.545-3.054,8.529,8.529,0,0,0-.677-17.033,25.46,25.46,0,0,0-6.663,1.942l5.779-9.914-14.094.023,5.791,9.906a27.1,27.1,0,0,0-7.283-1.949,9.031,9.031,0,0,0-.149,18.061Z" transform="translate(-1594.335 -1465.05)"/><path class="d" d="M1603.221,1491.091a8.88,8.88,0,0,0-.221,2.018,9,9,0,0,0,9.027,9.016h.042v-37.068l-7.207.016,5.791,9.906a27.1,27.1,0,0,0-7.283-1.949,9.031,9.031,0,0,0-.149,18.061Z" transform="translate(-1594.335 -1465.05)"/></g></g></svg>