<svg xmlns="http://www.w3.org/2000/svg" width="154" height="215" viewBox="0 0 154 215"><defs><style>.a{fill:#c9c9c9;}.b{fill:#fff;}.c{fill:#333;}.d{fill:#616161;opacity:0.2;}.e,.f{stroke:none;}.f{fill:#c4c4c4;}</style></defs><g transform="translate(-1535.687 -574.21)"><g transform="translate(1535.687 574.21)"><path class="a" d="M1552.606,789.21a16.246,16.246,0,0,1-16.452-16.168l-.465-182.567a16.2,16.2,0,0,1,16.421-16.266l120.936.22a16.6,16.6,0,0,1,16.61,16.295V772.892a16.5,16.5,0,0,1-16.547,16.167Z" transform="translate(-1535.687 -574.21)"/><g class="b" transform="translate(-1535.687 -574.21)"><path class="e" d="M 1673.2685546875 788.2678833007813 L 1554.02490234375 788.2678833007813 C 1551.875610351563 788.2678833007813 1549.791259765625 787.844482421875 1547.829711914063 787.0093383789063 C 1545.934448242188 786.202392578125 1544.238647460938 785.0496215820313 1542.789672851563 783.5831298828125 C 1539.86083984375 780.6187133789063 1538.275146484375 776.7088012695313 1538.324951171875 772.5736083984375 L 1538.324951171875 772.570556640625 L 1538.324951171875 772.5675659179688 L 1538.324951171875 590.4205322265625 L 1538.324951171875 590.4175415039063 L 1538.324951171875 590.41455078125 C 1538.275146484375 586.2748413085938 1539.860717773438 582.3624877929688 1542.78955078125 579.3982543945313 C 1544.23828125 577.9320068359375 1545.93408203125 576.779541015625 1547.82958984375 575.972900390625 C 1549.790893554688 575.1382446289063 1551.875244140625 574.7150268554688 1554.02490234375 574.7150268554688 L 1673.2685546875 574.7150268554688 C 1677.481079101563 574.7150268554688 1681.455200195313 576.3507690429688 1684.458862304688 579.3209228515625 C 1687.45703125 582.2857055664063 1689.13623046875 586.2288818359375 1689.187255859375 590.42431640625 L 1689.187255859375 772.5675659179688 C 1689.13623046875 776.754638671875 1687.45703125 780.6953735351563 1684.458862304688 783.6603393554688 C 1681.454223632813 786.631591796875 1677.480102539063 788.2678833007813 1673.2685546875 788.2678833007813 Z"/><path class="f" d="M 1673.2685546875 787.7678833007813 C 1677.34765625 787.7678833007813 1681.196899414063 786.182861328125 1684.107299804688 783.3048095703125 C 1687.010375976563 780.4339599609375 1688.63671875 776.6190795898438 1688.687255859375 772.5675659179688 L 1688.687255859375 590.4258422851563 C 1688.63671875 586.3644409179688 1687.010375976563 582.547119140625 1684.107299804688 579.6764526367188 C 1681.197875976563 576.7994384765625 1677.3486328125 575.2150268554688 1673.2685546875 575.2150268554688 L 1554.02490234375 575.2150268554688 C 1551.942993164063 575.2150268554688 1549.924438476563 575.6248168945313 1548.025390625 576.4329223632813 C 1546.18994140625 577.2139892578125 1544.548095703125 578.3299560546875 1543.145263671875 579.7496337890625 C 1540.31103515625 582.6181030273438 1538.776733398438 586.4035034179688 1538.824829101563 590.4085083007813 L 1538.824951171875 590.41455078125 L 1538.824951171875 590.4205322265625 L 1538.824951171875 772.5675659179688 L 1538.824951171875 772.5736083984375 L 1538.824829101563 772.57958984375 C 1538.776733398438 776.5801391601563 1540.311157226563 780.3630981445313 1543.145385742188 783.231689453125 C 1544.548461914063 784.6517333984375 1546.1904296875 785.7679443359375 1548.025634765625 786.54931640625 C 1549.9248046875 787.35791015625 1551.943359375 787.7678833007813 1554.02490234375 787.7678833007813 L 1673.2685546875 787.7678833007813 M 1673.2685546875 788.7678833007813 L 1554.02490234375 788.7678833007813 C 1545.0390625 788.7678833007813 1537.717529296875 781.495849609375 1537.824951171875 772.5675659179688 L 1537.824951171875 590.4205322265625 C 1537.717529296875 581.4807739257813 1545.0390625 574.2150268554688 1554.02490234375 574.2150268554688 L 1673.2685546875 574.2150268554688 C 1682.2626953125 574.2150268554688 1689.579833984375 581.4807739257813 1689.687255859375 590.4205322265625 L 1689.687255859375 772.5675659179688 C 1689.579833984375 781.495849609375 1682.2626953125 788.7678833007813 1673.2685546875 788.7678833007813 Z"/></g><g transform="translate(7.902 12.807)"><path class="c" d="M1556.111,587.424a9.6,9.6,0,0,1-1.18,1.516,4.676,4.676,0,0,1-1.744,1.3,6.9,6.9,0,0,1-1.7.257c-.788.055-1.18.339-1.18.853a.793.793,0,0,0,.731.811,5.714,5.714,0,0,1,2.17,1,4.661,4.661,0,0,1,1.325,1.523,3.61,3.61,0,0,1,.418,1.654,5.467,5.467,0,0,1-.586,2.426,10.461,10.461,0,0,1-.956,1.5,12.232,12.232,0,0,1-3.023,3,6.687,6.687,0,0,1-3.491.807,5.78,5.78,0,0,1-2.151-.36,1.581,1.581,0,0,1-1.157-1.475,5.124,5.124,0,0,1,1.028-2.216q1.04-1.564,1.6-1.567c.259,0,.4.309.415.92a3.087,3.087,0,0,0,.266,1.306,5.569,5.569,0,0,0,.495.472,2.322,2.322,0,0,0,3.035-.139,2.9,2.9,0,0,0,.879-2.287,3.688,3.688,0,0,0-.948-2.539,3.569,3.569,0,0,0-2.288-1.228,2.522,2.522,0,0,0-.4-.047,1.5,1.5,0,0,1-.454-.107.771.771,0,0,1-.114-.48c.072-.59.141-1.18.191-1.772s.079-1.152.079-1.7c0-.257-.041-.411-.133-.468a1.334,1.334,0,0,0-.567-.076v-.545a11.156,11.156,0,0,1,1.291-1.245,3.677,3.677,0,0,1,1.652-1.022h4.869a1.665,1.665,0,0,0,.766-.242,2.2,2.2,0,0,1,.548-.232l.316.156Z" transform="translate(-1543.589 -587.017)"/></g><g transform="translate(136.479 186.636)"><path class="c" d="M1665.85,769.169a9.653,9.653,0,0,1,1.172-1.515,4.87,4.87,0,0,1,1.748-1.3,7.538,7.538,0,0,1,1.694-.258c.788-.046,1.18-.335,1.18-.838a.787.787,0,0,0-.719-.822,5.711,5.711,0,0,1-2.178-1,4.664,4.664,0,0,1-1.325-1.522,3.556,3.556,0,0,1-.419-1.661,5.431,5.431,0,0,1,.594-2.421,10.01,10.01,0,0,1,.945-1.485,12.1,12.1,0,0,1,3.034-3.008,6.589,6.589,0,0,1,3.487-.814,5.66,5.66,0,0,1,2.151.365,1.57,1.57,0,0,1,1.158,1.477,5.245,5.245,0,0,1-1.032,2.224c-.693,1.036-1.215,1.561-1.6,1.561-.251,0-.392-.3-.419-.921a3.08,3.08,0,0,0-.259-1.31,5.5,5.5,0,0,0-.495-.472,2.342,2.342,0,0,0-1.405-.495,2.3,2.3,0,0,0-1.629.64,2.926,2.926,0,0,0-.883,2.291,3.69,3.69,0,0,0,.951,2.536,3.564,3.564,0,0,0,2.285,1.226,2.7,2.7,0,0,0,.4.045,1.349,1.349,0,0,1,.457.107.806.806,0,0,1,.111.472c-.076.594-.138,1.188-.191,1.782s-.08,1.15-.08,1.69c0,.267.046.412.133.473a1.479,1.479,0,0,0,.568.076v.54a10.139,10.139,0,0,1-1.295,1.249,3.614,3.614,0,0,1-1.648,1.013h-4.862a1.634,1.634,0,0,0-.769.251,1.964,1.964,0,0,1-.552.236l-.312-.16Z" transform="translate(-1665.85 -752.524)"/></g></g><g transform="translate(1626.735 594.43)"><path class="c" d="M1645.953,604.935a8.012,8.012,0,0,0,.21-1.922,8.593,8.593,0,0,0-17.186,0,8.451,8.451,0,0,0,.514,2.9,8.117,8.117,0,0,0,.647,16.209,24.122,24.122,0,0,0,6.335-1.85l-5.493,9.434,13.405,0-5.505-9.431a26.261,26.261,0,0,0,6.929,1.843,8.591,8.591,0,0,0,.144-17.181Z" transform="translate(-1622.006 -594.43)"/><path class="d" d="M1645.953,604.935a8.012,8.012,0,0,0,.21-1.922,8.576,8.576,0,0,0-8.593-8.583c-.008,0-.027.005-.035.005v35.272l6.85,0-5.505-9.431a26.261,26.261,0,0,0,6.929,1.843,8.591,8.591,0,0,0,.144-17.181Z" transform="translate(-1622.006 -594.43)"/></g><g transform="translate(1570.84 594.43)"><path class="c" d="M1577.465,604.935a8.914,8.914,0,0,1-.209-1.922,8.591,8.591,0,0,1,17.182,0,8.356,8.356,0,0,1-.506,2.9,8.117,8.117,0,0,1-.644,16.209,24.166,24.166,0,0,1-6.346-1.85l5.5,9.434-13.413,0,5.509-9.431a26.233,26.233,0,0,1-6.925,1.843,8.591,8.591,0,0,1-.149-17.181Z" transform="translate(-1569.014 -594.43)"/><path class="d" d="M1577.465,604.935a8.914,8.914,0,0,1-.209-1.922,8.577,8.577,0,0,1,8.6-8.583c.011,0,.019.005.034.005v35.272l-6.857,0,5.509-9.431a26.233,26.233,0,0,1-6.925,1.843,8.591,8.591,0,0,1-.149-17.181Z" transform="translate(-1569.014 -594.43)"/></g><g transform="translate(1597.279 662.726)"><path class="c" d="M1602.532,669.119a8.767,8.767,0,0,1-.209-1.911,8.593,8.593,0,0,1,17.185,0,8.294,8.294,0,0,1-.514,2.9,8.12,8.12,0,0,1-.639,16.215,24.36,24.36,0,0,1-6.355-1.85l5.506,9.438-13.413-.023,5.509-9.426a26.1,26.1,0,0,1-6.925,1.85,8.6,8.6,0,0,1-.145-17.19Z" transform="translate(-1594.08 -658.627)"/><path class="d" d="M1602.532,669.119a8.767,8.767,0,0,1-.209-1.911,8.57,8.57,0,0,1,8.592-8.581h.039v35.266l-6.861-.008,5.509-9.426a26.1,26.1,0,0,1-6.925,1.85,8.6,8.6,0,0,1-.145-17.19Z" transform="translate(-1594.08 -658.627)"/></g><g transform="translate(1626.735 733.701)"><path class="c" d="M1645.953,750.163a7.97,7.97,0,0,1,.21,1.927,8.593,8.593,0,1,1-16.672-2.916,8.114,8.114,0,0,1,.647-16.2,23.715,23.715,0,0,1,6.335,1.85l-5.493-9.441,13.405.007-5.505,9.442a25.715,25.715,0,0,1,6.929-1.85,8.593,8.593,0,0,1,.144,17.185Z" transform="translate(-1622.006 -725.379)"/><path class="d" d="M1645.953,750.163a7.97,7.97,0,0,1,.21,1.927,8.577,8.577,0,0,1-8.593,8.574h-.035V725.386h6.85l-5.505,9.442a25.715,25.715,0,0,1,6.929-1.85,8.593,8.593,0,0,1,.144,17.185Z" transform="translate(-1622.006 -725.379)"/></g><g transform="translate(1570.84 733.701)"><path class="c" d="M1577.465,750.163a8.857,8.857,0,0,0-.209,1.927,8.591,8.591,0,0,0,17.182,0,8.479,8.479,0,0,0-.506-2.916,8.114,8.114,0,0,0-.644-16.2,23.759,23.759,0,0,0-6.346,1.85l5.5-9.441-13.413.007,5.509,9.442a25.688,25.688,0,0,0-6.925-1.85,8.593,8.593,0,0,0-.149,17.185Z" transform="translate(-1569.014 -725.379)"/><path class="d" d="M1577.465,750.163a8.857,8.857,0,0,0-.209,1.927,8.578,8.578,0,0,0,8.6,8.574h.034V725.386h-6.857l5.509,9.442a25.688,25.688,0,0,0-6.925-1.85,8.593,8.593,0,0,0-.149,17.185Z" transform="translate(-1569.014 -725.379)"/></g><g transform="translate(1545.892 612.62)"><path class="c" d="M1551.36,613.466a1.84,1.84,0,0,0,.049-.43,1.965,1.965,0,0,0-3.929,0,2.028,2.028,0,0,0,.118.658,1.853,1.853,0,0,0,.156,3.7,5.554,5.554,0,0,0,1.443-.419l-1.249,2.143h3.057l-1.256-2.143a6.019,6.019,0,0,0,1.576.419,1.965,1.965,0,0,0,.035-3.929Z" transform="translate(-1545.892 -611.075)"/><path class="d" d="M1551.36,613.466a1.84,1.84,0,0,0,.049-.43,1.954,1.954,0,0,0-1.965-1.961h0v8.044h1.564l-1.256-2.143a6.019,6.019,0,0,0,1.576.419,1.965,1.965,0,0,0,.035-3.929Z" transform="translate(-1545.892 -611.075)"/></g><g transform="translate(1674.93 744.723)"><path class="c" d="M1674.085,743.524a2.081,2.081,0,0,1,.049.441,1.961,1.961,0,0,1-3.921,0,1.77,1.77,0,0,1,.118-.655,1.875,1.875,0,0,1-1.717-1.85,1.853,1.853,0,0,1,1.858-1.85,5.7,5.7,0,0,1,1.454.411l-1.264-2.155h3.061l-1.252,2.163a5.949,5.949,0,0,1,1.583-.419,1.957,1.957,0,0,1,.031,3.914Z" transform="translate(-1668.614 -737.866)"/><path class="d" d="M1674.085,743.524a2.081,2.081,0,0,1,.049.441,1.96,1.96,0,0,1-1.964,1.957h-.008v-8.056h1.561l-1.252,2.163a5.949,5.949,0,0,1,1.583-.419,1.957,1.957,0,0,1,.031,3.914Z" transform="translate(-1668.614 -737.866)"/></g></g></svg>