<?xml version="1.0" encoding="utf-8"?>
<!-- Generator: Adobe Illustrator 23.0.4, SVG Export Plug-In . SVG Version: 6.00 Build 0)  -->
<svg version="1.1" id="圖層_1" xmlns="http://www.w3.org/2000/svg" xmlns:xlink="http://www.w3.org/1999/xlink" x="0px" y="0px"
	 viewBox="0 0 110 76.6" style="enable-background:new 0 0 110 76.6;" xml:space="preserve">
<style type="text/css">
	.st0{fill:#707070;}
</style>
<g transform="translate(0 0)">
	<path class="st0" d="M55.5,33.9c0,4.3,3.5,6.6,6.1,8.1c2.7,1.5,3.6,2.4,3.6,3.7c0,2-2.2,2.9-4.2,2.9c-2.5,0.1-5-0.6-7.2-1.9
		l-1.2,6.4c2.5,1.1,5.1,1.6,7.8,1.6c7.4,0,12.2-4,12.2-10.1c0-7.8-9.9-8.2-9.8-11.7c0-1.1,0.9-2.2,3-2.5c2.3-0.3,4.8,0.2,6.9,1.3
		l1.2-6.3c-2.1-0.8-4.3-1.3-6.6-1.3C60.4,24.1,55.5,28.1,55.5,33.9 M85.8,24.6c-1.4,0-2.5,0.9-3,2.2L72.2,54.3h7.4l1.5-4.4h9
		l0.8,4.4h6.5l-5.7-29.7H85.8 M86.8,32.6l2.1,11.1h-5.8L86.8,32.6 M46.6,24.6l-5.8,29.6h7l5.8-29.6H46.6 M36.2,24.6l-7.3,20.2
		l-3-17.1c-0.2-1.7-1.6-3-3.2-3H10.8l-0.2,0.8c2.4,0.5,4.7,1.4,6.9,2.5c1,0.6,1.3,1.1,1.7,2.6l5.6,23.6h7.4l11.4-29.6H36.2"/>
</g>
<g transform="translate(0 0)">
	<path class="st0" d="M95,76.6H15c-8.3,0-15-6.7-15-15V15C0,6.7,6.7,0,15,0h80c8.3,0,15,6.7,15,15v46.6C110,69.9,103.3,76.6,95,76.6
		z M15,3C8.4,3,3,8.4,3,15v46.6c0,6.6,5.4,12,12,12h80c6.6,0,12-5.4,12-12V15c0-6.6-5.4-12-12-12H15z"/>
</g>
</svg>
