<svg xmlns="http://www.w3.org/2000/svg" width="154" height="215" viewBox="0 0 154 215"><defs><style>.a{fill:#c9c9c9;}.b{fill:#fff;}.c{fill:#be6148;}.d{fill:#d66142;}.e{fill:#616161;opacity:0.2;}.f,.g{stroke:none;}.g{fill:#c4c4c4;}</style></defs><g transform="translate(-772.598 -830.069)"><g transform="translate(772.598 830.069)"><path class="a" d="M789.622,1045.069a16.4,16.4,0,0,1-16.555-16.172l-.47-182.559a16.376,16.376,0,0,1,16.529-16.269l120.933.226a16.439,16.439,0,0,1,16.506,16.287v182.169a16.343,16.343,0,0,1-16.442,16.176Z" transform="translate(-772.598 -830.069)"/></g><g class="b" transform="translate(0 0)"><path class="f" d="M 910.2965087890625 1044.115844726563 L 791.1113891601563 1044.115844726563 C 782.3984985351563 1044.115844726563 775.3099975585938 1037.0712890625 775.3099975585938 1028.412231445313 L 775.3099975585938 846.2796630859375 C 775.3099975585938 837.6189575195313 782.3984985351563 830.5729370117188 791.1113891601563 830.5729370117188 L 910.2965087890625 830.5729370117188 C 919.0094604492188 830.5729370117188 926.0979614257813 837.6189575195313 926.0979614257813 846.2796630859375 L 926.0979614257813 1028.412231445313 C 926.0979614257813 1037.0712890625 919.0094604492188 1044.115844726563 910.2965087890625 1044.115844726563 Z"/><path class="g" d="M 910.2965087890625 1043.615844726563 C 918.7337646484375 1043.615844726563 925.5979614257813 1036.795532226563 925.5979614257813 1028.412231445313 L 925.5979614257813 846.2796630859375 C 925.5979614257813 837.8946533203125 918.7337646484375 831.0729370117188 910.2965087890625 831.0729370117188 L 791.1113891601563 831.0729370117188 C 782.6741943359375 831.0729370117188 775.8099975585938 837.8946533203125 775.8099975585938 846.2796630859375 L 775.8099975585938 1028.412231445313 C 775.8099975585938 1036.795532226563 782.6741943359375 1043.615844726563 791.1113891601563 1043.615844726563 L 910.2965087890625 1043.615844726563 M 910.2965087890625 1044.615844726563 L 791.1113891601563 1044.615844726563 C 782.1256103515625 1044.615844726563 774.8099975585938 1037.346557617188 774.8099975585938 1028.412231445313 L 774.8099975585938 846.2796630859375 C 774.8099975585938 837.3453369140625 782.1256103515625 830.0729370117188 791.1113891601563 830.0729370117188 L 910.2965087890625 830.0729370117188 C 919.287353515625 830.0729370117188 926.5979614257813 837.3453369140625 926.5979614257813 846.2796630859375 L 926.5979614257813 1028.412231445313 C 926.5979614257813 1037.346557617188 919.287353515625 1044.615844726563 910.2965087890625 1044.615844726563 Z"/></g><g transform="translate(907.638 1015.407)"><path class="c" d="M900.442,1014.639h4.991v8.2h3.042a5.161,5.161,0,0,0,.59-1.595,20.166,20.166,0,0,1,1.873-5.079,4.166,4.166,0,0,1,1.051-1.314,2.421,2.421,0,0,1,1.564-.605,2.367,2.367,0,0,1,1.227.393,1.4,1.4,0,0,1,.814,1.172.7.7,0,0,1-.247.552.751.751,0,0,1-.522.217c-.453,0-.7-.24-.727-.742s-.224-.754-.59-.754a1.726,1.726,0,0,0-1.728,1.287,7.766,7.766,0,0,0-.309,2.463c0,.644.035,1.371.111,2.2s.144,1.7.22,2.623a6.7,6.7,0,0,1-.632,2.927,9,9,0,0,1-1.614,2.266q-.657.708-2.086,1.953l.16.255h4.408a3.179,3.179,0,0,0,.769-.088c.457-.148.9-.285,1.337-.43v.263c-.187.312-.328.54-.419.678-.3.472-.476.712-.537.712a1.32,1.32,0,0,1-.35-.145,1.181,1.181,0,0,0-.545-.145H900.442Zm5.154,9.487v6.606q.675-.189,1.36-1.428a9.739,9.739,0,0,0,.582-1.291,11.9,11.9,0,0,0,.423-1.4c.266-1.127.4-1.706.419-1.736v-.75Z" transform="translate(-900.442 -1014.246)"/></g><g transform="translate(783.818 867.088)"><path class="d" d="M796.465,878.607l-4.647-5.863,4.647-5.867,4.641,5.867Z" transform="translate(-791.818 -866.877)"/><path class="e" d="M796.465,866.877l-.042.046v11.639l.042.046,4.641-5.863Z" transform="translate(-791.818 -866.877)"/></g><g transform="translate(779.406 843.337)"><path class="c" d="M802.562,860.888h-4.995v-8.2h-3.042a4.99,4.99,0,0,0-.586,1.6,20.241,20.241,0,0,1-1.873,5.079,4.294,4.294,0,0,1-1.053,1.317,2.5,2.5,0,0,1-1.568.609,2.363,2.363,0,0,1-1.219-.4,1.4,1.4,0,0,1-.82-1.172.709.709,0,0,1,.247-.552.792.792,0,0,1,.522-.221c.455,0,.7.255.729.754s.226.746.586.746a1.732,1.732,0,0,0,1.732-1.291,7.617,7.617,0,0,0,.307-2.459c0-.632-.034-1.375-.1-2.2s-.148-1.7-.222-2.623a6.694,6.694,0,0,1,.632-2.928,9,9,0,0,1,1.614-2.273c.435-.464,1.134-1.112,2.086-1.941l-.164-.259h-4.407a3.065,3.065,0,0,0-.77.095c-.455.141-.9.282-1.335.419v-.255c.189-.312.33-.537.421-.682.3-.468.474-.708.537-.708a1.2,1.2,0,0,1,.354.149,1.127,1.127,0,0,0,.538.136h11.854Zm-5.155-9.487v-6.606c-.453.126-.908.6-1.357,1.428a9.712,9.712,0,0,0-.588,1.294,10.561,10.561,0,0,0-.421,1.4c-.268,1.126-.4,1.709-.419,1.74v.746Z" transform="translate(-787.406 -843.337)"/></g><g transform="translate(909.092 997.882)"><path class="d" d="M906.545,996.923l4.641,5.859-4.641,5.863-4.649-5.863Z" transform="translate(-901.896 -996.923)"/><path class="e" d="M906.575,996.962l-.03-.038-4.649,5.859,4.649,5.863.03-.042Z" transform="translate(-901.896 -996.923)"/></g><g transform="translate(818.829 897.072)"><path class="d" d="M850.1,896.493l-31.885,40.261L850.1,977.031,882,936.754Z" transform="translate(-818.216 -896.493)"/><path class="e" d="M849.9,896.76l.206-.266L882,936.754l-31.9,40.277-.206-.255Z" transform="translate(-818.216 -896.493)"/></g></g></svg>