<svg xmlns="http://www.w3.org/2000/svg" width="154" height="215" viewBox="0 0 154 215"><defs><style>.a{fill:#c9c9c9;}.b{fill:#fff;}.c{fill:#d66142;}.d{fill:#616161;opacity:0.2;}.e{fill:#be6148;}.f{fill:#fdd8ab;}.g{fill:#ebebeb;}.h{fill:#333;}.i{fill:#ffd675;}.j{fill:#d66b4f;}.k,.l{stroke:none;}.l{fill:#c4c4c4;}</style></defs><g transform="translate(-9.535 -315.228)"><g transform="translate(9.535 315.228)"><path class="a" d="M26.541,530.228A16.387,16.387,0,0,1,10,514.062L9.535,331.52a16.356,16.356,0,0,1,16.513-16.265l120.821.224a16.43,16.43,0,0,1,16.492,16.288V513.914a16.336,16.336,0,0,1-16.432,16.175Z" transform="translate(-9.535 -315.228)"/><g class="b" transform="translate(-9.535 -315.228)"><path class="k" d="M 147.2549285888672 529.240966796875 L 28.20498847961426 529.240966796875 C 19.50333023071289 529.240966796875 12.4240140914917 522.1942138671875 12.4240140914917 513.5325927734375 L 12.4240140914917 331.4305114746094 C 12.4240140914917 322.7721252441406 19.50333023071289 315.7279968261719 28.20498847961426 315.7279968261719 L 147.2549285888672 315.7279968261719 C 155.9560699462891 315.7279968261719 163.0349426269531 322.7721252441406 163.0349426269531 331.4305114746094 L 163.0349426269531 513.5325927734375 C 163.0349426269531 522.1942138671875 155.9560699462891 529.240966796875 147.2549285888672 529.240966796875 Z"/><path class="l" d="M 147.2549285888672 528.740966796875 C 155.6803436279297 528.740966796875 162.5349273681641 521.9185180664063 162.5349273681641 513.5325927734375 L 162.5349273681641 331.4305114746094 C 162.5349273681641 323.0478210449219 155.6803436279297 316.2279968261719 147.2549285888672 316.2279968261719 L 28.20499038696289 316.2279968261719 C 19.77904510498047 316.2279968261719 12.92401695251465 323.0478210449219 12.92401695251465 331.4305114746094 L 12.92401695251465 513.5325927734375 C 12.92401695251465 521.9185180664063 19.77904510498047 528.740966796875 28.20499038696289 528.740966796875 L 147.2549285888672 528.740966796875 M 147.2549285888672 529.740966796875 L 28.20499038696289 529.740966796875 C 19.22576713562012 529.740966796875 11.92401695251465 522.4688110351563 11.92401695251465 513.5325927734375 L 11.92401695251465 331.4305114746094 C 11.92401695251465 322.4942321777344 19.22576713562012 315.2279968261719 28.20499038696289 315.2279968261719 L 147.2549285888672 315.2279968261719 C 156.2331848144531 315.2279968261719 163.5349273681641 322.4942321777344 163.5349273681641 331.4305114746094 L 163.5349273681641 513.5325927734375 C 163.5349273681641 522.4688110351563 156.2331848144531 529.740966796875 147.2549285888672 529.740966796875 Z"/></g><g transform="translate(7 36.895)"><path class="c" d="M32.629,372.374l-7.86-9.92,7.86-9.92,7.858,9.92Z" transform="translate(-24.769 -352.535)"/><path class="d" d="M32.629,352.535l-.253.32v19.2l.253.32,7.858-9.92Z" transform="translate(-24.769 -352.535)"/></g><g transform="translate(7 14.07)"><path class="e" d="M39.038,338.022a7.294,7.294,0,0,1-.607,2.737,7.425,7.425,0,0,1-1.439,2.378,12.866,12.866,0,0,1-1.094.977,19.859,19.859,0,0,1-2.376,1.661c-.24.147-.415.248-.526.312-.363.237-.548.4-.548.5,0,.192.566.517,1.691.976a16.615,16.615,0,0,0,2.282.788,2.146,2.146,0,0,0,.335.021h.821a1.293,1.293,0,0,1,.417.07,2.362,2.362,0,0,1-.56.347c-.278.133-.562.263-.847.39-.4.35-.7.615-.916.8a.912.912,0,0,1-.51.274q-.547,0-1.807-1.213a3.6,3.6,0,0,0-2.4-1.215,2.221,2.221,0,0,0-1.391.535,2.7,2.7,0,0,1-.823.535c-.186,0-.283-.127-.283-.38,0-.175.268-.467.807-.882.348-.27.7-.529,1.047-.782-.872-.508-1.71-1.038-2.507-1.6a9.3,9.3,0,0,1-2.129-2.045,8.444,8.444,0,0,1-1.239-2.273,7.341,7.341,0,0,1-.43-2.484,5.845,5.845,0,0,1,.765-3.162,17.926,17.926,0,0,1,1.805-2c.318-.317,1.119-1,2.4-2.045q2.4-1.944,2.879-1.947a3.794,3.794,0,0,1,1.592.828,25.319,25.319,0,0,1,3.307,2.9,8.59,8.59,0,0,1,1.736,2.355A6.148,6.148,0,0,1,39.038,338.022Zm-4.02,2.237a7.364,7.364,0,0,0-.462-2.414,9.891,9.891,0,0,0-1.3-2.488,10.87,10.87,0,0,0-2.379-2.21c-.379-.282-.92-.649-1.618-1.091-.269,0-.6.468-1.011,1.411a6.511,6.511,0,0,0-.6,1.848,7.926,7.926,0,0,0,.831,3.611,11.689,11.689,0,0,0,2.14,2.9q.591.617,2.9,2.715a4.728,4.728,0,0,0,1.186-2.262A7.89,7.89,0,0,0,35.018,340.259Z" transform="translate(-24.004 -329.298)"/></g><g transform="translate(131.71 160.297)"><path class="c" d="M144.412,477.314l7.858,9.921-7.858,9.92-7.854-9.92Z" transform="translate(-136.558 -477.314)"/><path class="d" d="M144.412,497.155l.255-.318v-19.2l-.255-.32-7.854,9.921Z" transform="translate(-136.558 -477.314)"/></g><g transform="translate(133.161 182.039)"><path class="e" d="M138.009,511.671a7.4,7.4,0,0,1,.607-2.736,7.543,7.543,0,0,1,1.439-2.376,11.385,11.385,0,0,1,1.1-.974,19.513,19.513,0,0,1,2.379-1.668c.236-.141.412-.246.522-.308.365-.24.546-.408.546-.5q0-.283-1.686-.977a16.107,16.107,0,0,0-2.283-.784,1.393,1.393,0,0,0-.333-.024h-.821a1.316,1.316,0,0,1-.418-.073,2.3,2.3,0,0,1,.56-.345q.417-.2.845-.392c.394-.346.7-.613.914-.8a.913.913,0,0,1,.513-.274q.546,0,1.8,1.217a3.617,3.617,0,0,0,2.4,1.211,2.231,2.231,0,0,0,1.39-.539,2.656,2.656,0,0,1,.822-.531q.286,0,.286.38c0,.172-.27.467-.811.878-.349.271-.695.533-1.045.788q1.308.76,2.509,1.594a9.428,9.428,0,0,1,2.13,2.044,8.468,8.468,0,0,1,1.235,2.269,7.329,7.329,0,0,1,.428,2.488,5.873,5.873,0,0,1-.761,3.162,17.92,17.92,0,0,1-1.806,2q-.474.477-2.4,2.044-2.4,1.95-2.878,1.949a3.763,3.763,0,0,1-1.593-.833,24.932,24.932,0,0,1-3.305-2.9,8.479,8.479,0,0,1-1.736-2.354A6.09,6.09,0,0,1,138.009,511.671Zm4.022-2.237a7.373,7.373,0,0,0,.463,2.416,9.781,9.781,0,0,0,1.3,2.484,10.543,10.543,0,0,0,2.379,2.21c.379.289.92.651,1.615,1.1.272,0,.611-.474,1.011-1.416a6.437,6.437,0,0,0,.609-1.843,7.966,7.966,0,0,0-.834-3.615,11.58,11.58,0,0,0-2.142-2.9q-.592-.616-2.9-2.711a4.7,4.7,0,0,0-1.193,2.26A8.027,8.027,0,0,0,142.031,509.434Z" transform="translate(-138.009 -499.445)"/></g></g><g transform="translate(50.535 333.156)"><g transform="translate(0 43.543)"><path class="a" d="M111.589,376.7l-.234,3.276-.15,2-.607,8.545-.152,2-.187,2.731v.014l-.185,2.515-1.951.046-.922.013-1.907.048-1.089.021-1.315.026-2.334.046-2.587.057L85.8,398.3H85.78l-12.162-.257-2.589-.057-2.334-.046-1.317-.026-1.085-.021-.956-.021-.959-.027-.922-.013-1.943-.046-.189-2.515v-.014l-.186-2.731-.152-2-.607-8.545-.15-2-.234-3.276Z" transform="translate(-48.214 -376.699)"/><path class="d" d="M109.232,376.7c-3.847,5.435-9.259,10.982-15.257,10.982h-.067a11.834,11.834,0,0,1-4.536,3.667,8.485,8.485,0,0,1-3.347.7,1.2,1.2,0,0,1-.222-.023H85.78V376.7Z" transform="translate(-48.214 -376.699)"/><g transform="translate(0 16.244)"><path class="c" d="M119.82,410.355l-9.781,2.918-.911.278-.282.082c-.768-1.289-1.375-2.229-1.655-2.65-.093-.129-.15-.211-.175-.236a12.642,12.642,0,0,0-1.631,3.925l-2.614.781L85.8,420.514l-10.588,3.159-3.545,1.062c-.12-.421-.272-.874-.443-1.34-6.335-2.707-3.139-7.106-6.659-12.648-.375.449-7.279,11-8.467,18.627l-.853.261-6.869,2.05h-.163c-.116-15.069,4.466-25.122,8.7-31.181.292-.426.585-.828.878-1.217.293-.359.56-.711.828-1.048l.009-.012a.033.033,0,0,1,.014-.026c.209-.242.421-.5.632-.73s.409-.479.6-.7c.511-.571,1-1.074,1.446-1.5v-.013h.014a4.566,4.566,0,0,0,.323-.329c.109-.092.211-.195.316-.28s.2-.187.291-.265c.187-.175.362-.328.524-.455a10.643,10.643,0,0,1,1.087-.855l1.586.387.277.07.633.166.175.03,2.215-.091,3.417-.143,13.6-.546H85.8l13.6.546,3.415.143,2.22.091.173-.03.628-.166.282-.07,1.583-.387a11.008,11.008,0,0,1,1.086.855c.163.127.339.28.525.455.091.078.2.175.291.265s.211.188.314.28a4.243,4.243,0,0,0,.328.329l.011.013a4.245,4.245,0,0,1,.326.322c.122.12.245.232.363.363.242.258.5.526.756.819.175.187.339.371.514.569a.883.883,0,0,0,.093.131c.212.231.419.488.63.73a.034.034,0,0,1,.012.026l.011.012c.271.337.539.689.828,1.048.295.389.583.791.878,1.217A45.649,45.649,0,0,1,119.82,410.355Z" transform="translate(-48.214 -392.943)"/><path class="d" d="M85.784,403.97h2.24l-1,8.066c-.407.021-.825.032-1.239.038Z" transform="translate(-48.214 -392.943)"/></g><g transform="translate(8.709 0.004)"><g transform="translate(5.424)"><path class="d" d="M85.8,376.7H62.347c3.858,5.424,9.266,10.976,15.261,10.976h.066c2.126,2.717,4.87,4.367,7.883,4.367.084,0,.164-.019.242-.019Z" transform="translate(-62.347 -376.703)"/><path class="d" d="M85.8,403.97H83.562l1,8.066c.412.021.827.032,1.24.038Z" transform="translate(-62.347 -376.703)"/></g><path class="d" d="M77.642,410.747c-11.347-2.5-17.508-6.324-20.719-10.243a34.49,34.49,0,0,1,5.867-6.585Z" transform="translate(-56.923 -376.703)"/><g transform="translate(25.288 8.709)"><path class="f" d="M85.8,388.7c-.078,0-.164.009-.242.009a8.48,8.48,0,0,1-3.236-.651,3.492,3.492,0,0,0-.11.823v1.448a8.327,8.327,0,0,0,3.346.706c.084,0,.164-.009.242-.009Z" transform="translate(-82.211 -385.412)"/><path class="f" d="M85.8,385.429c-.04,0-.078-.017-.124-.017a3.461,3.461,0,0,0-3.354,2.646,8.48,8.48,0,0,0,3.236.651c.078,0,.164-.009.242-.009Z" transform="translate(-82.211 -385.412)"/></g><path class="f" d="M105.714,392.667l-6.019-.082-10.323-.131v-2.125a8.339,8.339,0,0,1-3.347.706c-.076,0-.148-.005-.226-.009h-.015c-.077,0-.149.009-.227.009a8.327,8.327,0,0,1-3.346-.706v2.125l-10.322.131-6.017.082c-1.06,1.839-.592,2.014-.592,4.132,0,5.26,3.63,9.9,9.156,12.65a.142.142,0,0,0,.067.034,22.453,22.453,0,0,0,3.139,1.264,26.468,26.468,0,0,0,6.917,1.287c.136.008.269.013.4.023.271.011.551.011.825.017H85.8c.276-.006.554-.006.822-.017.135-.01.269-.015.4-.023a26.506,26.506,0,0,0,6.918-1.287,22.294,22.294,0,0,0,3.138-1.264.127.127,0,0,0,.067-.034c5.528-2.753,9.16-7.39,9.16-12.65C106.306,394.681,106.773,394.506,105.714,392.667Z" transform="translate(-56.923 -376.703)"/><path class="f" d="M85.784,388.7c.081,0,.159.009.241.009a8.474,8.474,0,0,0,3.237-.651,3.441,3.441,0,0,1,.11.823v1.448a8.339,8.339,0,0,1-3.347.706c-.083,0-.16-.009-.241-.009Z" transform="translate(-56.923 -376.703)"/><path class="f" d="M85.784,385.429c.041,0,.081-.017.121-.017a3.459,3.459,0,0,1,3.357,2.646,8.474,8.474,0,0,1-3.237.651c-.082,0-.16-.009-.241-.009Z" transform="translate(-56.923 -376.703)"/></g><path class="d" d="M114.669,400.5c-3.223,3.919-9.375,7.736-20.723,10.243l6.152-6.979.375-.422,4.821-5.458,1.012-1.153,2.483-2.81c.163.127.339.28.525.455.091.078.2.175.291.265s.211.188.314.28.21.209.328.329h.011v.013a4.245,4.245,0,0,1,.326.322c.122.12.245.232.363.363.242.258.5.526.756.819.175.187.339.371.514.569.034.034.07.082.107.116.2.234.4.48.616.745a.034.034,0,0,1,.012.026h.011v.012c.271.337.539.689.828,1.048C114.086,399.676,114.374,400.078,114.669,400.5Z" transform="translate(-48.214 -376.699)"/><path class="g" d="M116.127,388.78a13.942,13.942,0,0,1-.154,2.147,16.341,16.341,0,0,1-3.01,7.3v.012a28.245,28.245,0,0,1-7.8,7.06c-.213.133-.445.276-.678.419a54.524,54.524,0,0,1-7.334,3.735,1.073,1.073,0,0,1-.175.085.613.613,0,0,1-.139.059c-.175.069-.339.141-.514.21-.5.209-1.028.421-1.563.632-.27.1-.539.207-.815.308l6.609-12.765,2.262-4.35.512-1,8.26-15.934A20.337,20.337,0,0,1,116.127,388.78Z" transform="translate(-48.214 -376.699)"/><path class="g" d="M77.642,410.747a61.154,61.154,0,0,1-10.548-5.029c-.231-.147-.455-.288-.672-.428-7.346-4.712-10.183-9.808-10.815-14.367a14.551,14.551,0,0,1-.15-2.143A20.373,20.373,0,0,1,59.993,376.7Z" transform="translate(-48.214 -376.699)"/><path class="d" d="M75.217,423.673l-3.547,1.056c-.124-.415-.272-.866-.449-1.328-6.335-2.715-3.139-7.1-6.649-12.646-.385.439-7.287,10.991-8.475,18.619l-.849.261c-1.814-7.959,10.218-21.3,10.218-21.3S70.858,421.651,75.217,423.673Z" transform="translate(-48.214 -376.699)"/><path class="d" d="M110.039,413.273l-.911.278-.282.082c-.768-1.289-1.375-2.229-1.655-2.65-.093-.129-.15-.211-.175-.236a12.642,12.642,0,0,0-1.631,3.925l-2.614.781c1.948-3.659,3.349-7.118,3.349-7.118S107.926,410.355,110.039,413.273Z" transform="translate(-48.214 -376.699)"/><g transform="translate(7.243 2.778)"><path class="h" d="M62.8,396.952l2.13,2.833-.959-3.41Z" transform="translate(-55.457 -379.477)"/><path class="h" d="M70.168,403.82l2.128,2.835-.961-3.411Z" transform="translate(-55.457 -379.477)"/><path class="h" d="M58.929,380.053l2.128,2.831-.961-3.407Z" transform="translate(-55.457 -379.477)"/><path class="h" d="M61.739,386l2.128,2.827-.961-3.413Z" transform="translate(-55.457 -379.477)"/><path class="h" d="M64.547,391.938l2.13,2.827-.965-3.408Z" transform="translate(-55.457 -379.477)"/><path class="h" d="M67.359,397.879l2.128,2.827-.963-3.406Z" transform="translate(-55.457 -379.477)"/><path class="h" d="M67.094,405.718c-.231-.147-.455-.288-.672-.428l-1.243-1.649,1.167-.582Z" transform="translate(-55.457 -379.477)"/><path class="h" d="M57.186,385.068,59.31,387.9l-.961-3.405Z" transform="translate(-55.457 -379.477)"/><path class="h" d="M59.993,391.009l2.126,2.831-.961-3.406Z" transform="translate(-55.457 -379.477)"/><path class="h" d="M56.521,392.135l-.914-1.212a14.551,14.551,0,0,1-.15-2.143l.1-.05Z" transform="translate(-55.457 -379.477)"/><path class="h" d="M58.434,396.354l2.128,2.823-.967-3.405Z" transform="translate(-55.457 -379.477)"/></g><g transform="translate(51.076 2.778)"><path class="h" d="M108.777,396.952l-2.126,2.833.965-3.41Z" transform="translate(-99.289 -379.477)"/><path class="h" d="M101.414,403.82l-2.125,2.835.961-3.411Z" transform="translate(-99.289 -379.477)"/><path class="h" d="M112.653,380.053l-2.128,2.831.963-3.407Z" transform="translate(-99.289 -379.477)"/><path class="h" d="M109.843,386l-2.125,2.827.961-3.413Z" transform="translate(-99.289 -379.477)"/><path class="h" d="M107.037,391.938l-2.134,2.827.967-3.408Z" transform="translate(-99.289 -379.477)"/><path class="h" d="M104.225,397.879l-2.128,2.827.965-3.406Z" transform="translate(-99.289 -379.477)"/><path class="h" d="M104.49,405.718c.229-.147.455-.288.674-.428l1.239-1.649-1.167-.582Z" transform="translate(-99.289 -379.477)"/><path class="h" d="M114.4,385.068l-2.128,2.828.963-3.405Z" transform="translate(-99.289 -379.477)"/><path class="h" d="M111.591,391.009l-2.128,2.831.965-3.406Z" transform="translate(-99.289 -379.477)"/><path class="h" d="M116.127,388.78a13.942,13.942,0,0,1-.154,2.147l-.91,1.212.967-3.4Z" transform="translate(-99.289 -379.477)"/><path class="h" d="M113.152,396.354l-2.128,2.823.963-3.405Z" transform="translate(-99.289 -379.477)"/></g></g><g transform="translate(8.212)"><path class="c" d="M115.156,363.157a64.64,64.64,0,0,1-8.583,13.542c-3.522,4.1-7.885,7.565-12.6,7.649h-.067c-.107-.011-.211-.034-.316-.055a20.443,20.443,0,0,0,3.514-7.594,26.881,26.881,0,0,0,.723-6.219c0-7.787-3.256-14.425-7.836-17.037a5.5,5.5,0,0,0-.678.12,2.864,2.864,0,0,0-.423.124,1.964,1.964,0,0,0-.219.076,3.3,3.3,0,0,0-.48.2c-.049.025-.082.037-.129.058-.116.07-.23.144-.348.224a1.254,1.254,0,0,0-.128.067c-.023.026-.059.036-.084.059a5.147,5.147,0,0,0-1.026.955,4.872,4.872,0,0,0-.675,1.019v.03l-.014-.009a.009.009,0,0,1-.009.009v-.03a5,5,0,0,0-.676-1.019,4.688,4.688,0,0,0-1.237-1.081,4.35,4.35,0,0,0-.956-.487,5.593,5.593,0,0,0-1.321-.32c-4.58,2.612-7.835,9.25-7.835,17.037a26.774,26.774,0,0,0,.721,6.219,20.407,20.407,0,0,0,3.51,7.594,2.8,2.8,0,0,1-.312.055h-.068c-4.714-.084-9.073-3.546-12.6-7.649a64.612,64.612,0,0,1-8.582-13.542l20.968-21.168.514-.521.073-.069.517-.531,7.282-7.693v-.019l.009.01.014-.01v.019l.154.162,7.121,7.531.6.6.514.521Z" transform="translate(-56.426 -333.156)"/><g transform="translate(6.394 3.878)"><path class="d" d="M85.8,352.213l5.629-7.487L85.8,337.063v-.028l-.01.017-.005-.017v.028l-5.629,7.664,5.629,7.487v.023l.005-.01.01.01Z" transform="translate(-62.82 -337.034)"/><path class="i" d="M94.188,341.989,85.8,353.2v.021l-.014-.009-.009.009V353.2l-8.385-11.212.514-.521.072-.069,2.328,3.125.757,1,4.713-6.286v-.023l.009.01.014-.01v.023l4.713,6.286.756-1,2.334-3.125.069.069Z" transform="translate(-62.82 -337.034)"/><path class="d" d="M85.8,349.438l2.785-3.714L85.8,342.01v-.021l-.01.01-.005-.01v.021L83,345.724l2.785,3.714v.021l.005-.008.01.008Z" transform="translate(-62.82 -337.034)"/><path class="d" d="M65.621,345.063l2.785-3.714-2.785-3.71v-.026l-.009.011-.008-.011v.026l-2.783,3.71,2.783,3.714v.023l.008-.01.009.01Z" transform="translate(-62.82 -337.034)"/></g><path class="f" d="M89.993,353.439a5.343,5.343,0,0,0-4.2,2.932,5.33,5.33,0,0,0-4.2-2.932c-4.576,2.616-7.83,9.256-7.83,17.041a22.787,22.787,0,0,0,4.232,13.813c.014.021.025.04.036.057a.037.037,0,0,1,.01.011h0a11.7,11.7,0,0,0,4.641,3.7,8.657,8.657,0,0,0,3.1.648H85.8a8.653,8.653,0,0,0,3.1-.648,11.7,11.7,0,0,0,4.641-3.7h0c0-.007.005-.007.009-.011s.025-.036.038-.057a22.813,22.813,0,0,0,4.232-13.813C97.824,362.7,94.571,356.055,89.993,353.439Z" transform="translate(-56.426 -333.156)"/><g transform="translate(18.899 32.596)"><g transform="translate(1.371 3.674)"><path class="h" d="M76.785,369.426a1.138,1.138,0,0,0-.089.421c0,.932,1.148,1.688,2.564,1.688s2.564-.756,2.564-1.688a1.155,1.155,0,0,0-.086-.421Z" transform="translate(-76.696 -369.426)"/></g><g transform="translate(14.431 3.674)"><path class="h" d="M94.8,369.426a1.177,1.177,0,0,1,.087.421c0,.932-1.149,1.688-2.564,1.688s-2.57-.756-2.57-1.688a1.137,1.137,0,0,1,.088-.421Z" transform="translate(-89.756 -369.426)"/></g><g transform="translate(6.783 15.436)"><path class="c" d="M89.14,382.054h-6.7a4.235,4.235,0,0,0,3.341,1.508v0H85.8v0A4.233,4.233,0,0,0,89.14,382.054Z" transform="translate(-82.108 -381.188)"/><path class="j" d="M85.789,381.873c-1.517-1.781-3.681.472-3.681.472h7.37S87.314,380.092,85.789,381.873Z" transform="translate(-82.108 -381.188)"/></g><path class="d" d="M85.8,372.271v-.057l-.01.03-.005-.03v.057l-1.929,6.156h3.876Z" transform="translate(-75.325 -365.752)"/><path class="c" d="M89.478,365.752l5.092.27.069.009.036.038,2.02,2.21L94.46,366.29l.108.04-5.094.253Z" transform="translate(-75.325 -365.752)"/><path class="c" d="M82.544,366.583l-5.09-.253.106-.04-2.235,1.989,2.018-2.21.042-.038.069-.009,5.09-.27Z" transform="translate(-75.325 -365.752)"/></g></g><g transform="translate(16.963 54.902)"><path class="d" d="M77.642,410.747c-1.106-.411-2.149-.837-3.139-1.264a.142.142,0,0,1-.067-.034c-5.526-2.753-9.156-7.39-9.156-12.65,0-2.118-.468-2.293.592-4.132l6.017-.082Z" transform="translate(-65.177 -388.058)"/><path class="d" d="M89.262,388.058a8.474,8.474,0,0,1-3.237.651c-.076,0-.148-.009-.226-.009h-.015c-.077,0-.155.009-.227.009a8.48,8.48,0,0,1-3.236-.651,3.492,3.492,0,0,0-.11.823v1.448a8.327,8.327,0,0,0,3.346.706c.078,0,.158-.009.232-.009s.16.009.236.009a8.339,8.339,0,0,0,3.347-.706v-1.448A3.441,3.441,0,0,0,89.262,388.058Z" transform="translate(-65.177 -388.058)"/><path class="d" d="M87.531,404.342h-3.48l.908,7.715c.271.011.551.011.825.017H85.8c.276-.006.554-.006.822-.017Z" transform="translate(-65.177 -388.058)"/><path class="d" d="M93.941,410.747c1.107-.411,2.149-.837,3.138-1.264a.127.127,0,0,0,.067-.034c5.528-2.753,9.16-7.39,9.16-12.65,0-2.118.467-2.293-.592-4.132l-6.019-.082Z" transform="translate(-65.177 -388.058)"/></g><path class="d" d="M119.82,410.355l-9.781,2.918-.911.278c-.972-1.61-1.68-2.669-1.8-2.8a1.819,1.819,0,0,1-.139.236,13.282,13.282,0,0,0-1.492,3.689l-2.613.781L85.8,420.606V333.488l.154-.151,7.121,7.531.6.6.514.521,20.968,21.168a64.64,64.64,0,0,1-8.583,13.542h5.016a20.337,20.337,0,0,1,4.538,12.081,13.942,13.942,0,0,1-.154,2.147,16.341,16.341,0,0,1-3.01,7.3v.012c.271.337.539.689.828,1.048.295.389.583.791.878,1.217A45.649,45.649,0,0,1,119.82,410.355Z" transform="translate(-48.214 -333.156)"/><path class="d" d="M89.315,353.557a5,5,0,0,1,.678-.118A5,5,0,0,0,89.315,353.557Z" transform="translate(-48.214 -333.156)"/><path class="d" d="M87.5,354.376c.027-.021.059-.033.088-.054C87.563,354.343,87.531,354.355,87.5,354.376Z" transform="translate(-48.214 -333.156)"/><path class="d" d="M88.066,354.033a1.13,1.13,0,0,1,.129-.059A1.13,1.13,0,0,0,88.066,354.033Z" transform="translate(-48.214 -333.156)"/><path class="d" d="M88.673,353.755c.071-.022.147-.043.219-.068C88.82,353.712,88.744,353.733,88.673,353.755Z" transform="translate(-48.214 -333.156)"/><g transform="translate(0.002 83.57)"><path class="a" d="M108.042,473.882H56.451l.232-3.278.152-1.993.607-8.538.15-2.02.185-2.724v0l.188-2.536,1.947-.032.922-.021.956-.027.946-.013,1.1-.021,1.315-.038,2.334-.046,2.589-.05,12.162-.25h.025l12.164.25,2.587.05,2.322.046,1.317.038,1.094.021.959.013.957.027.91.021,1.942.032.19,2.538.2,2.724.143,2.02.617,8.538.15,2.029Z" transform="translate(-48.216 -418.904)"/><path class="d" d="M82.258,458.556v15.326H58.8c3.849-5.427,9.263-10.978,15.255-10.978h.073a11.975,11.975,0,0,1,4.532-3.678,8.606,8.606,0,0,1,3.35-.7c.069,0,.151.028.219.028Z" transform="translate(-48.216 -418.904)"/><path class="c" d="M119.808,418.9c.117,15.054-4.456,25.109-8.7,31.172-.2.289-.392.559-.592.831-.225.311-.457.627-.689.918-.152.188-.291.358-.421.524-.221.272-.43.525-.641.759v.011c-.208.248-.406.471-.608.688-.523.584-1.012,1.085-1.454,1.522-.571.556-1.064,1-1.456,1.337-.676.573-1.089.851-1.089.851l-1.584-.4-.28-.069h-.013l-.617-.15-.173-.049-2.216.093h-.013l-3.4.141-13.61.548h-.013l-13.6-.548-3.417-.141-2.225-.093-.166.049h-.013l-.617.15-.293.069-1.572.4s-.406-.278-1.1-.851c-.166-.137-.326-.289-.514-.459-.059-.04-.1-.089-.154-.127-.233-.22-.5-.463-.779-.751h-.013l-.335-.33c-.238-.246-.478-.492-.737-.77-.125-.129-.246-.268-.375-.409s-.267-.308-.405-.466c-.071-.071-.143-.151-.212-.235-.2-.245-.42-.5-.639-.77-.273-.336-.547-.7-.829-1.072s-.582-.781-.875-1.2a44.54,44.54,0,0,1-5.155-9.853l9.773-2.915,1.19-.361c.991,1.652,1.724,2.752,1.842,2.878a12.772,12.772,0,0,0,1.632-3.908l2.612-.779L81.7,430.23,92.814,426.9l3.542-1.053c.13.425.282.865.457,1.333,6.333,2.718,3.135,7.1,6.646,12.64.386-.431,7.288-11,8.48-18.612l.849-.27,6.872-2.039Z" transform="translate(-48.216 -418.904)"/><path class="d" d="M82.252,446.611H80.01l1-8.064c.411-.026.827-.034,1.243-.041Z" transform="translate(-48.216 -418.904)"/><g transform="translate(13.412 19.602)"><g transform="translate(20.605)"><path class="d" d="M82.233,473.882h23.453c-3.853-5.427-9.267-10.982-15.262-10.982h-.066c-2.123-2.714-4.871-4.363-7.885-4.363-.078,0-.154.017-.24.019Z" transform="translate(-82.233 -438.506)"/><path class="d" d="M82.233,446.611h2.241l-1-8.064c-.413-.026-.828-.034-1.243-.041Z" transform="translate(-82.233 -438.506)"/></g><path class="d" d="M90.392,439.832c11.346,2.5,17.506,6.328,20.721,10.249a34.64,34.64,0,0,1-5.867,6.579Z" transform="translate(-61.628 -438.506)"/><g transform="translate(20.605 21.038)"><path class="f" d="M82.233,461.886c.086,0,.162-.014.246-.014a8.4,8.4,0,0,1,3.236.657,3.608,3.608,0,0,0,.105-.826v-1.451a8.333,8.333,0,0,0-3.347-.708c-.078,0-.154.012-.24.012Z" transform="translate(-82.233 -459.544)"/><path class="f" d="M82.233,465.15c.04,0,.086.012.126.012a3.461,3.461,0,0,0,3.356-2.633,8.4,8.4,0,0,0-3.236-.657c-.084,0-.16.01-.246.014Z" transform="translate(-82.233 -459.544)"/></g><path class="f" d="M62.32,457.915l6.021.082,10.323.129v2.126a8.329,8.329,0,0,1,3.347-.708c.076,0,.148.01.222.012h.019c.076,0,.149-.012.221-.012a8.333,8.333,0,0,1,3.347.708v-2.126L96.145,458l6.019-.082c1.058-1.837.59-2.016.59-4.133,0-5.258-3.628-9.9-9.158-12.652a.422.422,0,0,0-.067-.034,23.558,23.558,0,0,0-3.137-1.264,26.805,26.805,0,0,0-6.916-1.281c-.139-.011-.268-.021-.4-.028-.272-.01-.548-.014-.822-.017h-.019c-.274,0-.55.007-.822.017-.131.007-.269.017-.4.028a26.8,26.8,0,0,0-6.917,1.281,23.832,23.832,0,0,0-3.141,1.264.435.435,0,0,0-.063.034c-5.528,2.753-9.158,7.394-9.158,12.652C61.73,455.9,61.265,456.078,62.32,457.915Z" transform="translate(-61.628 -438.506)"/><path class="f" d="M82.252,461.886c-.084,0-.163-.014-.245-.014a8.373,8.373,0,0,0-3.235.657,3.451,3.451,0,0,1-.108-.826v-1.451a8.329,8.329,0,0,1,3.347-.708c.078,0,.159.012.241.012Z" transform="translate(-61.628 -438.506)"/><path class="f" d="M82.252,465.15c-.041,0-.084.012-.123.012a3.455,3.455,0,0,1-3.357-2.633,8.373,8.373,0,0,1,3.235-.657c.082,0,.161.01.245.014Z" transform="translate(-61.628 -438.506)"/></g><path class="d" d="M74.1,439.825l-6.158,6.984-.373.421L62.737,452.7l-1,1.14-2.5,2.827c-.166-.137-.326-.289-.514-.459-.059-.04-.1-.089-.154-.127-.242-.229-.5-.474-.779-.751h-.013c-.118-.107-.221-.215-.335-.329-.238-.246-.478-.492-.737-.77-.125-.129-.246-.268-.375-.409s-.267-.308-.405-.466c-.071-.08-.128-.151-.2-.235h-.014c-.2-.245-.42-.5-.639-.77-.273-.336-.547-.7-.829-1.072s-.582-.781-.875-1.2C56.588,446.16,62.748,442.33,74.1,439.825Z" transform="translate(-48.216 -418.904)"/><path class="g" d="M74.1,439.825l-6.613,12.769-2.263,4.35-.512,1.005-8.256,15.933a20.4,20.4,0,0,1-4.55-12.088,14.758,14.758,0,0,1,.151-2.13,16.339,16.339,0,0,1,3.023-7.315,28.137,28.137,0,0,1,7.8-7.051c.209-.141.43-.284.662-.436a57.842,57.842,0,0,1,7.711-3.907c.594-.241,1.2-.491,1.82-.732C73.406,440.093,73.745,439.956,74.1,439.825Z" transform="translate(-48.216 -418.904)"/><path class="g" d="M90.392,439.832a60.69,60.69,0,0,1,10.548,5.037c.232.141.459.282.674.421,7.344,4.713,10.182,9.811,10.814,14.374a14.3,14.3,0,0,1,.149,2.14,20.423,20.423,0,0,1-4.535,12.078Z" transform="translate(-48.216 -418.904)"/><path class="d" d="M92.814,426.907l3.548-1.055c.126.415.276.865.451,1.333,6.333,2.713,3.135,7.1,6.651,12.647.381-.438,7.283-11,8.475-18.626l.849-.254c1.812,7.958-10.222,21.29-10.222,21.29S97.178,428.928,92.814,426.907Z" transform="translate(-48.216 -418.904)"/><path class="d" d="M65.265,435.138c-1.946,3.649-3.347,7.1-3.347,7.1s-1.807-2-3.929-4.932l1.19-.361c.991,1.652,1.724,2.752,1.842,2.878a12.772,12.772,0,0,0,1.632-3.908Z" transform="translate(-48.216 -418.904)"/><g transform="translate(47.523 25.027)"><path class="h" d="M105.231,453.632,103.1,450.8l.963,3.407Z" transform="translate(-95.739 -443.931)"/><path class="h" d="M97.866,446.762l-2.126-2.831.965,3.405Z" transform="translate(-95.739 -443.931)"/><path class="h" d="M109.106,470.526l-2.132-2.823.965,3.4Z" transform="translate(-95.739 -443.931)"/><path class="h" d="M106.295,464.591l-2.128-2.836.963,3.407Z" transform="translate(-95.739 -443.931)"/><path class="h" d="M103.485,458.644l-2.128-2.827.961,3.405Z" transform="translate(-95.739 -443.931)"/><path class="h" d="M100.673,452.7l-2.124-2.827.961,3.405Z" transform="translate(-95.739 -443.931)"/><path class="h" d="M100.94,444.869c.232.141.459.282.674.421l1.239,1.651-1.167.584Z" transform="translate(-95.739 -443.931)"/><path class="h" d="M110.848,465.516l-2.128-2.833.967,3.408Z" transform="translate(-95.739 -443.931)"/><path class="h" d="M108.042,459.573l-2.128-2.835.963,3.41Z" transform="translate(-95.739 -443.931)"/><path class="h" d="M111.513,458.446l.915,1.218a14.3,14.3,0,0,1,.149,2.14l-.1.047Z" transform="translate(-95.739 -443.931)"/><path class="h" d="M109.6,454.231l-2.124-2.835.961,3.413Z" transform="translate(-95.739 -443.931)"/></g><g transform="translate(3.685 25.027)"><path class="h" d="M59.253,453.632l2.128-2.831-.963,3.407Z" transform="translate(-51.901 -443.931)"/><path class="h" d="M66.618,446.762l2.132-2.831-.971,3.405Z" transform="translate(-51.901 -443.931)"/><path class="h" d="M55.377,470.526l2.132-2.823-.965,3.4Z" transform="translate(-51.901 -443.931)"/><path class="h" d="M58.189,464.591l2.128-2.836-.963,3.407Z" transform="translate(-51.901 -443.931)"/><path class="h" d="M61,458.644l2.127-2.827-.961,3.405Z" transform="translate(-51.901 -443.931)"/><path class="h" d="M63.81,452.7l2.13-2.827-.967,3.405Z" transform="translate(-51.901 -443.931)"/><path class="h" d="M63.548,444.869c-.237.141-.463.282-.676.421l-1.241,1.651,1.163.584Z" transform="translate(-51.901 -443.931)"/><path class="h" d="M53.636,465.516l2.128-2.833-.967,3.408Z" transform="translate(-51.901 -443.931)"/><path class="h" d="M56.445,459.573l2.124-2.835-.961,3.41Z" transform="translate(-51.901 -443.931)"/><path class="h" d="M52.971,458.446l-.965,3.411-.1-.063a14.758,14.758,0,0,1,.151-2.13Z" transform="translate(-51.901 -443.931)"/><path class="h" d="M54.882,454.231l2.128-2.835-.965,3.413Z" transform="translate(-51.901 -443.931)"/></g><g transform="translate(4.652 42.97)"><path class="c" d="M74.476,466.23h-.344a2.3,2.3,0,0,0,.359-.014v.014Z" transform="translate(-52.868 -461.874)"/><path class="c" d="M90,466.216a2.207,2.207,0,0,0,.36.014H90Z" transform="translate(-52.868 -461.874)"/><path class="c" d="M111.612,487.43,90.645,508.581l-.514.529-.07.082-.527.527-7.276,7.7v.009h-.025v-.009l-1.781-1.891-5.5-5.806-.529-.527-.055-.082-.526-.529L52.868,487.43a64.564,64.564,0,0,1,8.6-13.548c3.52-4.11,7.881-7.574,12.592-7.652h.073c.1.021.209.042.312.057a20.093,20.093,0,0,0-3.5,7.6,26.075,26.075,0,0,0-.735,6.229c0,7.774,3.253,14.423,7.839,17.035a5.369,5.369,0,0,0,3-1.357,3.741,3.741,0,0,0,.455-.461,4.872,4.872,0,0,0,.733-1.091V494.2c0,.009,0,.009.013.022,0-.013,0-.013.012-.022v.032a4.881,4.881,0,0,0,.735,1.1,3.8,3.8,0,0,0,.453.461,5.3,5.3,0,0,0,3,1.357c4.569-2.612,7.824-9.261,7.824-17.035a25.873,25.873,0,0,0-.735-6.229,19.985,19.985,0,0,0-3.5-7.6c.118-.015.208-.036.324-.057h.059c4.723.078,9.074,3.542,12.6,7.652A64.84,64.84,0,0,1,111.612,487.43Z" transform="translate(-52.868 -461.874)"/><g transform="translate(20.97 35.499)"><path class="d" d="M82.233,498.37,76.6,505.857l5.629,7.664v.028l.01-.013.009.013v-.028l5.627-7.664-5.627-7.487v-.023l-.009.009-.01-.009Z" transform="translate(-73.838 -497.373)"/><path class="i" d="M90.645,508.581l-.514.529-.071.082-2.334-3.124-.757-1-4.711,6.288v.025l-.012-.015-.013.015v-.025l-4.709-6.288-.759,1.013-2.345,3.114-.055-.082-.526-.529,8.395-11.193v-.015l.013,0,.012,0v.015Z" transform="translate(-73.838 -497.373)"/><path class="d" d="M82.233,501.149l-2.781,3.708,2.781,3.714v.021l.01-.011.009.011v-.021l2.785-3.714-2.785-3.708v-.027l-.009.011-.01-.011Z" transform="translate(-73.838 -497.373)"/></g><path class="f" d="M78.041,497.144a5.344,5.344,0,0,0,4.2-2.928,5.347,5.347,0,0,0,4.2,2.928c4.578-2.615,7.834-9.259,7.834-17.041a22.836,22.836,0,0,0-4.232-13.816L90,466.23l-.006,0h0a11.658,11.658,0,0,0-4.645-3.7,8.523,8.523,0,0,0-3.1-.655h-.019a8.538,8.538,0,0,0-3.1.655,11.653,11.653,0,0,0-4.643,3.7h0l0,0a.514.514,0,0,0-.038.057A22.81,22.81,0,0,0,70.21,480.1C70.21,487.885,73.463,494.529,78.041,497.144Z" transform="translate(-52.868 -461.874)"/><g transform="translate(18.469 5.14)"><g transform="translate(14.871 12.031)"><path class="h" d="M91.251,481.161a1.187,1.187,0,0,0,.089-.422c0-.937-1.151-1.694-2.566-1.694s-2.566.757-2.566,1.694a1.207,1.207,0,0,0,.088.422Z" transform="translate(-86.208 -479.045)"/></g><g transform="translate(1.809 12.031)"><path class="h" d="M73.233,481.161a1.184,1.184,0,0,1-.087-.422c0-.937,1.145-1.694,2.564-1.694s2.568.757,2.568,1.694a1.146,1.146,0,0,1-.09.422Z" transform="translate(-73.146 -479.045)"/></g><g transform="translate(7.221)"><path class="c" d="M78.894,468.527h6.7a4.24,4.24,0,0,0-3.339-1.509v0h-.019v0A4.245,4.245,0,0,0,78.894,468.527Z" transform="translate(-78.558 -467.014)"/><path class="j" d="M82.243,468.712c1.525,1.778,3.683-.474,3.683-.474H78.558S80.72,470.49,82.243,468.712Z" transform="translate(-78.558 -467.014)"/></g><path class="d" d="M82.233,478.3v.061l.01-.028.009.028V478.3l1.928-6.151H80.3Z" transform="translate(-71.337 -467.014)"/><path class="c" d="M78.558,484.83l-5.09-.272-.073,0-.04-.044-2.018-2.2,2.235,1.98-.1-.044,5.09-.25Z" transform="translate(-71.337 -467.014)"/><path class="c" d="M85.487,484l5.092.25-.1.044,2.231-1.98-2.016,2.2-.04.044-.069,0-5.094.272Z" transform="translate(-71.337 -467.014)"/></g></g><g transform="translate(13.412 19.602)"><path class="d" d="M90.392,439.832c1.108.415,2.146.84,3.137,1.264a.422.422,0,0,1,.067.034c5.53,2.753,9.158,7.394,9.158,12.652,0,2.117.468,2.3-.59,4.133L96.145,458Z" transform="translate(-61.628 -438.506)"/><path class="d" d="M78.772,462.529a8.373,8.373,0,0,1,3.235-.657,2.111,2.111,0,0,1,.226.014h.019a2.129,2.129,0,0,1,.227-.014,8.4,8.4,0,0,1,3.236.657,3.608,3.608,0,0,0,.105-.826v-1.451a8.333,8.333,0,0,0-3.347-.708c-.078,0-.152.012-.23.012s-.154-.012-.232-.012a8.329,8.329,0,0,0-3.347.708V461.7A3.451,3.451,0,0,0,78.772,462.529Z" transform="translate(-61.628 -438.506)"/><path class="d" d="M80.5,446.242h3.476l-.907-7.719c-.272-.01-.548-.014-.822-.017h-.019c-.274,0-.55.007-.822.017Z" transform="translate(-61.628 -438.506)"/><path class="d" d="M74.092,439.832c-1.108.415-2.146.84-3.141,1.264a.435.435,0,0,0-.063.034c-5.528,2.753-9.158,7.394-9.158,12.652,0,2.117-.465,2.3.59,4.133l6.021.082Z" transform="translate(-61.628 -438.506)"/></g><path class="d" d="M82.233,430.174v86.878l-1.781-1.527-5.5-5.806-.529-.527-.055-.082-.526-.529L52.868,487.43a64.564,64.564,0,0,1,8.6-13.548H56.451a20.4,20.4,0,0,1-4.55-12.088,14.758,14.758,0,0,1,.151-2.13,16.339,16.339,0,0,1,3.023-7.315c-.273-.336-.547-.7-.829-1.072s-.582-.781-.875-1.2a44.54,44.54,0,0,1-5.155-9.853l9.773-2.915,1.19-.361c.991,1.652,1.724,2.752,1.842,2.878a12.772,12.772,0,0,0,1.632-3.908l2.612-.779L81.7,430.23Z" transform="translate(-48.216 -418.904)"/></g></g></g></svg>