<svg xmlns="http://www.w3.org/2000/svg" width="154" height="215" viewBox="0 0 154 215"><defs><style>.a{fill:#c9c9c9;}.b,.l{fill:#fff;}.c{fill:#d66142;}.d,.h{fill:#616161;}.d,.l{opacity:0.2;}.e{fill:#be6047;}.f{fill:#ffd675;}.g{fill:#ebebeb;}.h{opacity:0.4;}.i{fill:#ebbe9f;}.j{fill:#9c9c9c;}.k{fill:#333;}.m,.n{stroke:none;}.n{fill:#c4c4c4;}</style></defs><g transform="translate(-9.622 -57.886)"><g transform="translate(9.622 57.886)"><path class="a" d="M26.644,272.886a16.4,16.4,0,0,1-16.553-16.172L9.622,74.149A16.363,16.363,0,0,1,26.155,57.886l120.957.22A16.444,16.444,0,0,1,163.622,74.4V256.568a16.343,16.343,0,0,1-16.455,16.171Z" transform="translate(-9.622 -57.886)"/><g class="b" transform="translate(-9.622 -57.886)"><path class="m" d="M 147.1013793945313 272.1749267578125 L 27.91757583618164 272.1749267578125 C 19.20510292053223 272.1749267578125 12.11699199676514 265.1272888183594 12.11699199676514 256.464599609375 L 12.11699199676514 86.28746032714844 L 12.11699199676514 74.33940124511719 C 12.11699199676514 69.14204406738281 14.67801952362061 64.38454437255859 19.14340782165527 61.28679275512695 C 21.59871482849121 59.57790374755859 24.71454811096191 58.63701629638672 27.91757583618164 58.63701629638672 L 147.1013793945313 58.63701629638672 C 155.8143768310547 58.63701629638672 162.9029388427734 65.68106842041016 162.9029388427734 74.33940124511719 L 162.9029388427734 256.464599609375 C 162.9029388427734 265.1272888183594 155.8143768310547 272.1749267578125 147.1013793945313 272.1749267578125 Z"/><path class="n" d="M 147.1013793945313 271.6749267578125 C 155.5386810302734 271.6749267578125 162.4029388427734 264.8515930175781 162.4029388427734 256.464599609375 L 162.4029388427734 74.33940124511719 C 162.4029388427734 65.95676422119141 155.5386810302734 59.13701629638672 147.1013793945313 59.13701629638672 L 27.91757583618164 59.13701629638672 C 24.81571388244629 59.13701629638672 21.80132484436035 60.04607009887695 19.42840766906738 61.69759750366211 C 15.09965801239014 64.70059967041016 12.61699199676514 69.308349609375 12.61699199676514 74.33940124511719 L 12.61699199676514 86.28746032714844 L 12.61699199676514 256.464599609375 C 12.61699199676514 264.8515930175781 19.48079681396484 271.6749267578125 27.91757583618164 271.6749267578125 L 147.1013793945313 271.6749267578125 M 147.1013793945313 272.6749267578125 L 27.91757583618164 272.6749267578125 C 18.93107604980469 272.6749267578125 11.61699199676514 265.3999633789063 11.61699199676514 256.464599609375 L 11.61699199676514 86.28746032714844 L 11.61699199676514 74.33940124511719 C 11.61699199676514 68.84481811523438 14.38332557678223 63.98046112060547 18.85840797424316 60.87596130371094 C 21.24579811096191 59.21434783935547 24.45771408081055 58.13701629638672 27.91757583618164 58.13701629638672 L 147.1013793945313 58.13701629638672 C 156.0948028564453 58.13701629638672 163.4029388427734 65.40506744384766 163.4029388427734 74.33940124511719 L 163.4029388427734 256.464599609375 C 163.4029388427734 265.3999633789063 156.0948028564453 272.6749267578125 147.1013793945313 272.6749267578125 Z"/></g><g transform="translate(7.231 36.869)"><path class="c" d="M32.715,115.005l-7.862-9.92,7.862-9.923,7.858,9.923Z" transform="translate(-24.853 -95.162)"/><path class="d" d="M32.715,95.162l-.251.322v19.2l.251.322,7.858-9.92Z" transform="translate(-24.853 -95.162)"/></g><g transform="translate(8.177 13.967)"><path class="e" d="M39.187,87.618a7.588,7.588,0,0,1-1.376,1.167,8.674,8.674,0,0,1-2.715,1.5l-4.163-7.635-.236.166V89.5H25.8V72.089h4.9v9.872a3.371,3.371,0,0,0,2.282-1.738,4.98,4.98,0,0,0,.929-2.688,3.958,3.958,0,0,0-.283-1.569c-.221-.4-.44-.79-.646-1.188,0-.179.539-.668,1.619-1.477l1.926-1.448a3.361,3.361,0,0,1,.834,1.294,4.352,4.352,0,0,1,.38,1.631,5.5,5.5,0,0,1-.274,1.522,7.275,7.275,0,0,1-.7,1.616,9.336,9.336,0,0,1-1.215,1.593c-.731.744-1.115,1.155-1.167,1.235Z" transform="translate(-25.799 -71.853)"/></g><g transform="translate(133.884 160.287)"><path class="c" d="M144.5,219.942l7.858,9.925-7.858,9.918-7.858-9.918Z" transform="translate(-136.646 -219.942)"/><path class="d" d="M144.5,239.785l.253-.318V220.259l-.253-.318-7.858,9.925Z" transform="translate(-136.646 -219.942)"/></g><g transform="translate(135.266 184.628)"><path class="e" d="M138.028,247.331a7.809,7.809,0,0,1,1.378-1.167,8.767,8.767,0,0,1,2.713-1.5l4.163,7.638.232-.172v-6.681h4.9v17.41h-4.9v-9.868a3.365,3.365,0,0,0-2.277,1.73,4.993,4.993,0,0,0-.929,2.69,4.064,4.064,0,0,0,.282,1.572c.225.392.442.792.647,1.188q0,.258-1.62,1.473c-.886.667-1.53,1.148-1.926,1.451a3.39,3.39,0,0,1-.834-1.3,4.376,4.376,0,0,1-.381-1.628,5.571,5.571,0,0,1,.274-1.525,7.149,7.149,0,0,1,.7-1.616,9.362,9.362,0,0,1,1.214-1.591c.731-.75,1.116-1.161,1.164-1.239Z" transform="translate(-138.028 -244.667)"/></g></g><g transform="translate(43.34 73.32)"><path class="c" d="M132.669,127.173l-.331-1.129s-20.784-11.853-27.419-15.613c-1.249-.706-1.994-1.127-2.02-1.127H73.319c-.01,0-.052.027-.137.07a2.147,2.147,0,0,1-.223.12,2.612,2.612,0,0,1-.266.149c-.084.051-.185.1-.282.16s-.208.122-.335.192c-.179.1-.37.209-.583.331-.4.229-.857.488-1.365.777-.009,0-.017.006-.023.006-.375.219-.78.445-1.2.689-.144.076-.289.163-.437.249-.99.564-2.091,1.182-3.263,1.85-.421.24-.849.48-1.281.731s-.861.49-1.3.737-.886.512-1.337.764c-5.876,3.346-12.335,7.035-15.476,8.824-.185.1-.348.2-.5.29-.754.43-1.24.7-1.373.781v49.3l19.358-5.816,4.393-1.319,64.989-19.52Z" transform="translate(-43.929 -73.32)"/><g transform="translate(0 35.984)"><g transform="translate(35.572 11.498)"><path class="d" d="M88.327,156.411,79.5,143.54l8.863-9.933,8.937,10.27Z" transform="translate(-79.501 -120.802)"/><path class="f" d="M88.348,153.485l-7.862-9.931,7.862-9.92,7.854,9.92Z" transform="translate(-79.501 -120.802)"/><path class="d" d="M83.912,143.554l4.435-5.6,4.424,5.6-4.424,5.6Z" transform="translate(-79.501 -120.802)"/><g transform="translate(0.743)"><path class="f" d="M88.348,134.833l-8.1-14.031h16.2ZM81.793,121.7l6.555,11.345L94.9,121.7Z" transform="translate(-80.244 -120.802)"/></g></g><path class="d" d="M77.463,109.3c-.151.036-29.43,16.74-29.43,16.74l-4.1,12.673v36.612l19.358-5.816,4.393-1.319,11.572-37.965,1.552-5.085,2.255-4.849,5.052-10.789v-.2Z" transform="translate(-43.929 -109.304)"/><path class="g" d="M73.319,109.3c-.01,0-.052.027-.137.07a2.147,2.147,0,0,1-.223.12,2.612,2.612,0,0,1-.266.149c-.079.051-.176.1-.282.16s-.208.122-.335.192c-.179.1-.37.209-.583.331-.4.225-.857.486-1.365.777-.009,0-.017.006-.023.006-.375.215-.78.442-1.2.689-.144.076-.289.163-.437.249-.99.556-2.091,1.182-3.263,1.85-.421.24-.849.48-1.281.731s-.861.484-1.3.737-.886.5-1.337.764c-1.892,1.085-3.849,2.187-5.735,3.272-.566.316-1.131.639-1.678.954-3.293,1.884-6.243,3.563-8.063,4.6-.179.1-.348.2-.5.29-.754.43-1.24.7-1.373.781v49.3l3.449-1.036,1.934-.578,13.76-4.133.215-.069c.647-1.519,1.315-3.141,2.023-4.824,4.634-11.149,10.285-25.264,13.942-34.46,2.277-5.729,3.783-9.547,3.783-9.547l.024-.387,1-10.991Z" transform="translate(-43.929 -109.304)"/><g transform="translate(44.182)"><path class="d" d="M132.669,140.944l-4.488-14.9S98.9,109.344,98.757,109.3H88.111v.2l7.309,15.638,9.5,32.453,27.754-10.053Z" transform="translate(-88.111 -109.304)"/><path class="g" d="M132.669,127.183l-.341-1.139s-29.279-16.7-29.429-16.74H92.162l1.021,11.376s12.634,26.209,17.121,34.712l22.365-6.718Z" transform="translate(-88.111 -109.304)"/></g></g><g transform="translate(27.284)"><path class="h" d="M104.915,110.431l-.638,8.056L88.23,129.951v.03l-.025-.015-.015.015v-.03L72.137,118.487l-.644-8.161c1.123-.645,1.8-1.02,1.822-1.022h2.393c1.466,2.237,2.71,4.125,2.71,4.125l5.85-4.125.889-.632,3.048.111,3.051-.111.889.632L98,113.429s1.251-1.888,2.707-4.125h2.2C102.925,109.306,103.67,109.731,104.915,110.431Z" transform="translate(-71.213 -73.32)"/><path class="i" d="M105.2,102.059l-.306-4-.007-.149-.912-12.248-4.552-2.3-8.787-4.445-2.431,1.306-2.431-1.306-8.783,4.445-4.55,2.3-.914,12.248-.013.149-.3,4,.913,11.65,16.057,11.465v.027l.006,0,.015-.015.025.015v-.03l16.047-11.465Z" transform="translate(-71.213 -73.32)"/><path class="j" d="M105.2,102.059l-.311-4.15c-1.4,2.467-6.891,10.744-6.891,10.744L91.253,103.9l-3.048.106-3.048-.106-6.739,4.753s-5.5-8.277-6.891-10.744l-.308,4.15.918,11.65L88.19,125.175v.03l.015-.015.025.015v-.03l16.047-11.466Z" transform="translate(-71.213 -73.32)"/><path class="i" d="M88.23,109.3l5.379-.184-4.026-2.532s-.649-.015-1.353-.025h-.04c-.714.01-1.36.025-1.36.025l-4.022,2.532,5.382.184v.008h.04Z" transform="translate(-71.213 -73.32)"/><path class="d" d="M91.483,101.6l-2.208-7.662H87.139l-2.2,7.662,2.2,2.368,1.051.038v0l.015,0,.025,0v0l1.045-.038Z" transform="translate(-71.213 -73.32)"/><g transform="translate(0.301 10.042)"><path class="j" d="M90.533,91.884l6.923-.868L97.609,91l.074.046,3.3,1.744-3.6-1.005.227.021L90.9,93.693Z" transform="translate(-71.514 -83.362)"/><path class="k" d="M92.962,94.778a1.952,1.952,0,1,0,3.729.807,1.992,1.992,0,0,0-.175-.807Z" transform="translate(-71.514 -83.362)"/><path class="j" d="M85.881,91.884l-6.923-.868L78.807,91l-.076.046-3.3,1.744,3.592-1.005L78.8,91.8l6.722,1.892Z" transform="translate(-71.514 -83.362)"/><path class="k" d="M83.453,94.778a1.98,1.98,0,0,1,.181.807,1.956,1.956,0,0,1-3.912,0,1.873,1.873,0,0,1,.181-.807Z" transform="translate(-71.514 -83.362)"/><path class="j" d="M104.894,98.058l-.17.129-3.2-11.3-2.1-3.525,4.551,2.3.912,12.248Z" transform="translate(-71.514 -83.362)"/><path class="j" d="M71.514,98.058l.175.129,3.2-11.3,2.1-3.525-4.55,2.3-.914,12.248Z" transform="translate(-71.514 -83.362)"/></g><path class="f" d="M104.275,81.294V85.97a56.156,56.156,0,0,1-12.962,1.7c-2.9.085-5.725.013-8.278-.134-1.266-.074-2.462-.163-3.564-.26-1.319-.12-2.507-.246-3.535-.368-2.454-.3-3.959-.561-3.959-.561V81.9S88.045,73.32,88.123,73.32c0,.04,2.01,1.038,4.609,2.319.822.407,1.711.847,2.611,1.287.855.418,1.723.847,2.566,1.262,2.389,1.167,4.573,2.227,5.652,2.754C104.013,81.163,104.275,81.294,104.275,81.294Z" transform="translate(-71.213 -73.32)"/><g transform="translate(4.723 2.319)"><path class="l" d="M95.343,76.926,79.471,87.278c-1.319-.12-2.507-.246-3.535-.368l16.8-11.271C93.554,76.046,94.443,76.486,95.343,76.926Z" transform="translate(-75.936 -75.639)"/><path class="l" d="M103.561,80.942l-12.248,6.73c-2.9.085-5.725.013-8.278-.134l14.874-9.35C100.3,79.355,102.482,80.415,103.561,80.942Z" transform="translate(-75.936 -75.639)"/></g><path class="c" d="M90.955,78.338l-2.608,3.486v.005l-.143.227-2.77-3.623,2.913-3.874Z" transform="translate(-71.213 -73.32)"/><path class="l" d="M88.348,81.824l.6-3.055-.6-4.209,2.608,3.779Z" transform="translate(-71.213 -73.32)"/></g><g transform="translate(2.65 45.636)"><path class="k" d="M56.394,141.669l-.539,3.773,1.862-3.324Z" transform="translate(-46.579 -118.956)"/><path class="k" d="M63.818,141.669l-.537,3.773,1.86-3.324Z" transform="translate(-46.579 -118.956)"/><path class="k" d="M71.236,141.669l-.531,3.773,1.852-3.324Z" transform="translate(-46.579 -118.956)"/><path class="k" d="M47.112,153.828l-.533,3.769,1.854-3.324Z" transform="translate(-46.579 -118.956)"/><path class="k" d="M54.534,153.828,54,157.6l1.856-3.324Z" transform="translate(-46.579 -118.956)"/><path class="k" d="M61.95,153.828l-.529,3.769,1.86-3.324Z" transform="translate(-46.579 -118.956)"/><path class="k" d="M49.377,166.073l-.529,3.769,1.856-3.32Z" transform="translate(-46.579 -118.956)"/><path class="k" d="M56.805,166.073l-.539,3.769,1.864-3.32Z" transform="translate(-46.579 -118.956)"/><path class="k" d="M64.747,165.784c-.351.843-.689,1.656-1.007,2.41l-.109.036.379-2.695Z" transform="translate(-46.579 -118.956)"/><path class="k" d="M69.382,120.474l-.538,3.771,1.862-3.322Z" transform="translate(-46.579 -118.956)"/><path class="k" d="M61.95,118.956l-.529,3.765,1.86-3.32Z" transform="translate(-46.579 -118.956)"/><path class="k" d="M55.031,120.326l-1.038,1.847.2-1.371C54.466,120.646,54.745,120.482,55.031,120.326Z" transform="translate(-46.579 -118.956)"/><path class="k" d="M48.827,173.709l-.969.287.086-.586Z" transform="translate(-46.579 -118.956)"/><path class="k" d="M47.3,129.416l-.529,3.771,1.852-3.328Z" transform="translate(-46.579 -118.956)"/><path class="k" d="M55.558,129.416l-.537,3.771,1.856-3.328Z" transform="translate(-46.579 -118.956)"/><path class="k" d="M62.977,129.416l-.533,3.771,1.862-3.328Z" transform="translate(-46.579 -118.956)"/><path class="k" d="M70.4,129.416l-.529,3.771,1.856-3.328Z" transform="translate(-46.579 -118.956)"/><path class="k" d="M78.007,122.441l-.531,3.773,1.858-3.325Z" transform="translate(-46.579 -118.956)"/><path class="k" d="M48.13,141.669l-.529,3.773,1.856-3.324Z" transform="translate(-46.579 -118.956)"/></g><g transform="translate(54.75 45.636)"><path class="k" d="M121.622,141.669l.529,3.773-1.85-3.324Z" transform="translate(-98.679 -118.956)"/><path class="k" d="M114.2,141.669l.535,3.773-1.862-3.324Z" transform="translate(-98.679 -118.956)"/><path class="k" d="M106.773,141.669l.54,3.773-1.862-3.324Z" transform="translate(-98.679 -118.956)"/><path class="k" d="M108.636,120.474l.533,3.771-1.856-3.322Z" transform="translate(-98.679 -118.956)"/><path class="k" d="M116.056,118.956l.535,3.765-1.856-3.32Z" transform="translate(-98.679 -118.956)"/><path class="k" d="M122.98,120.326l1.033,1.847-.192-1.371C123.545,120.646,123.267,120.482,122.98,120.326Z" transform="translate(-98.679 -118.956)"/><path class="k" d="M130.714,129.416l.539,3.771-1.866-3.328Z" transform="translate(-98.679 -118.956)"/><path class="k" d="M122.456,129.416l.535,3.771-1.862-3.328Z" transform="translate(-98.679 -118.956)"/><path class="k" d="M115.034,129.416l.533,3.771-1.86-3.328Z" transform="translate(-98.679 -118.956)"/><path class="k" d="M107.612,129.416l.539,3.771-1.862-3.328Z" transform="translate(-98.679 -118.956)"/><path class="k" d="M100.005,122.441l.535,3.773-1.862-3.325Z" transform="translate(-98.679 -118.956)"/><path class="k" d="M129.878,141.669l.533,3.773-1.856-3.324Z" transform="translate(-98.679 -118.956)"/></g><path class="d" d="M132.669,127.173l-.331-1.129s-3.695-2.1-8.454-4.82l-.063-.422c-.276-.156-.554-.32-.841-.476l.324.573c-5.249-3-11.631-6.63-15.842-9.021-1.156-.655-2.148-1.222-2.909-1.653l.647-8.166-.16-2.1-.146-1.9-.008-.149L104,86.038c.091-.023.181-.043.272-.068V81.294s-.262-.131-.714-.352c-1.079-.527-3.263-1.587-5.652-2.754-.843-.415-1.711-.844-2.566-1.262-.9-.44-1.789-.88-2.611-1.287-2.153-1.06-3.9-1.928-4.432-2.216V162l16.459-4.946.156.541,9.442-3.421.736-.219,17.576-5.283Z" transform="translate(-43.929 -73.32)"/><g transform="translate(0 82.017)"><path class="c" d="M43.929,205.645l.341,1.126s20.776,11.857,27.414,15.613c1.244.708,2,1.125,2.018,1.125h29.581a1.111,1.111,0,0,0,.141-.069c.052-.034.126-.068.215-.122s.168-.093.271-.142.184-.111.274-.164c.106-.065.219-.124.34-.189.179-.1.37-.209.583-.336.4-.229.86-.486,1.371-.771l.017-.006c.371-.223.782-.449,1.2-.689.145-.08.289-.166.441-.253.99-.564,2.085-1.18,3.254-1.841.424-.246.855-.49,1.287-.739s.858-.491,1.3-.735c.436-.262.885-.519,1.34-.767,5.871-3.348,12.335-7.037,15.472-8.817.189-.114.354-.206.509-.3.753-.428,1.233-.7,1.368-.779v-49.3L113.311,163.3l-4.389,1.316L43.929,184.142Z" transform="translate(-43.929 -157.49)"/><g transform="translate(35.367)"><g transform="translate(0 18.914)"><path class="d" d="M88.277,176.4,97.1,189.273l-8.867,9.939L79.3,188.943Z" transform="translate(-79.296 -176.404)"/><path class="f" d="M88.256,179.337l7.862,9.924-7.862,9.92-7.854-9.92Z" transform="translate(-79.296 -176.404)"/><path class="d" d="M92.686,189.261l-4.43,5.594-4.432-5.594,4.432-5.593Z" transform="translate(-79.296 -176.404)"/><g transform="translate(0.866 21.578)"><path class="f" d="M88.256,197.982l8.106,14.031h-16.2Zm6.552,13.142-6.552-11.351-6.548,11.351Z" transform="translate(-80.162 -197.982)"/></g></g><path class="d" d="M99.132,223.509c.157-.037,29.433-16.738,29.433-16.738l4.1-12.673V157.49L113.311,163.3l-4.389,1.316L97.348,202.584,95.8,207.671l-2.271,4.848-5.041,10.788v.2Z" transform="translate(-79.296 -157.49)"/><path class="g" d="M103.283,223.509a1.111,1.111,0,0,0,.141-.069c.052-.034.126-.068.215-.122s.168-.093.271-.142c.08-.052.175-.111.274-.164s.219-.124.34-.189c.179-.1.37-.209.583-.336.4-.219.858-.48,1.371-.771l.017-.006c.371-.217.782-.446,1.2-.689.145-.08.289-.166.441-.253.985-.556,2.085-1.18,3.254-1.841.424-.246.855-.49,1.287-.739s.858-.485,1.3-.735.885-.51,1.34-.767c1.886-1.079,3.847-2.189,5.733-3.268l1.679-.954c3.294-1.883,6.24-3.563,8.06-4.6.185-.114.354-.206.509-.3.753-.428,1.233-.7,1.368-.779v-49.3l-3.445,1.036-1.936.576-13.754,4.135-.223.068c-.641,1.522-1.315,3.138-2.019,4.824-4.635,11.144-10.289,25.257-13.944,34.455-2.279,5.728-3.779,9.549-3.779,9.549l-.036.386-.986,10.99Z" transform="translate(-79.296 -157.49)"/></g><g transform="translate(0 17.732)"><path class="d" d="M43.929,191.871l4.489,14.9s29.279,16.7,29.429,16.744H88.492v-.208l-7.309-15.636-9.494-32.449-27.76,10.053Z" transform="translate(-43.929 -175.222)"/><path class="g" d="M43.929,205.64l.341,1.131s29.275,16.7,29.432,16.744H84.441l-1.025-11.38S70.791,185.926,66.3,177.424l-22.369,6.718Z" transform="translate(-43.929 -175.222)"/></g><g transform="translate(27.473 45.346)"><path class="h" d="M71.689,222.384l.629-8.053L88.372,202.87v-.034l.017.017.027-.017v.034l16.052,11.461.639,8.156c-1.123.645-1.8,1.022-1.822,1.028h-2.392c-1.462-2.241-2.712-4.125-2.712-4.125l-5.849,4.125-.9.628-3.048-.105-3.041.105-.891-.628-5.85-4.125s-1.254,1.884-2.713,4.125H73.7C73.679,223.509,72.928,223.086,71.689,222.384Z" transform="translate(-71.402 -202.836)"/><path class="i" d="M71.4,230.758l.3,4,.008.147.912,12.253,4.553,2.3,8.78,4.445,2.431-1.308,2.437,1.308,8.787-4.445,4.546-2.3.919-12.253.006-.147.306-4-.92-11.65L88.42,207.642v-.032h0l-.027.013-.017-.013h0v.032L72.318,219.108Z" transform="translate(-71.402 -202.836)"/><path class="j" d="M71.4,230.758l.312,4.146c1.393-2.46,6.893-10.742,6.893-10.742l6.741,4.759,3.041-.109,3.048.109,6.744-4.759s5.5,8.282,6.892,10.742l.314-4.146-.919-11.65L88.416,207.642v-.032l-.027.013-.017-.013v.032L72.323,219.108Z" transform="translate(-71.402 -202.836)"/><path class="i" d="M88.372,223.515l-5.381.192,4.026,2.528s.649.015,1.355.025h.044c.708-.01,1.355-.025,1.355-.025l4.025-2.528-5.38-.192h-.044Z" transform="translate(-71.402 -202.836)"/><path class="d" d="M85.125,231.215l2.2,7.664h2.141l2.21-7.664-2.21-2.366-1.047-.036v0l-.027,0-.017,0v0l-1.051.036Z" transform="translate(-71.402 -202.836)"/><g transform="translate(0.304 31.79)"><path class="j" d="M86.067,240.929l-6.925.87-.149.021-.076-.042-3.3-1.752,3.592,1.011-.221-.019,6.716-1.89Z" transform="translate(-71.706 -234.626)"/><path class="k" d="M83.64,238.037a1.951,1.951,0,1,0-3.727-.805,2.081,2.081,0,0,0,.169.805Z" transform="translate(-71.706 -234.626)"/><path class="j" d="M90.718,240.929l6.923.87.154.021.078-.042,3.3-1.752-3.6,1.011.227-.019-6.718-1.89Z" transform="translate(-71.706 -234.626)"/><path class="k" d="M93.148,238.037a1.953,1.953,0,1,1,3.734-.805,1.877,1.877,0,0,1-.181.805Z" transform="translate(-71.706 -234.626)"/><path class="j" d="M71.706,234.757c.111-.082.174-.131.174-.131l3.2,11.3,2.093,3.526-4.55-2.3L71.714,234.9Z" transform="translate(-71.706 -234.626)"/><path class="j" d="M105.084,234.757c-.11-.082-.169-.131-.169-.131l-3.208,11.3-2.094,3.526,4.546-2.3.919-12.253Z" transform="translate(-71.706 -234.626)"/></g><path class="f" d="M72.323,251.524v-4.677a56.5,56.5,0,0,1,12.971-1.7c2.9-.082,5.721-.013,8.275.141,1.264.065,2.462.16,3.564.257,1.315.114,2.5.242,3.531.362,2.456.3,3.958.563,3.958.563v4.447S88.555,259.5,88.475,259.5c0-.037-2.008-1.042-4.6-2.319l-2.612-1.287c-.851-.419-1.725-.845-2.565-1.26-2.393-1.169-4.568-2.228-5.657-2.757C72.584,251.648,72.323,251.524,72.323,251.524Z" transform="translate(-71.402 -202.836)"/><g transform="translate(1.635 42.272)"><path class="l" d="M81.259,255.891l15.874-10.35c1.315.114,2.5.242,3.531.362L83.871,257.178Z" transform="translate(-73.037 -245.108)"/><path class="l" d="M73.037,251.874l12.257-6.731c2.9-.082,5.721-.013,8.275.141l-14.875,9.347C76.3,253.462,74.126,252.4,73.037,251.874Z" transform="translate(-73.037 -245.108)"/></g><path class="c" d="M85.644,254.475l2.612-3.48v-.005l.133-.23,2.779,3.624-2.912,3.874Z" transform="translate(-71.402 -202.836)"/><path class="l" d="M88.256,250.995l-.609,3.057.609,4.205-2.612-3.782Z" transform="translate(-71.402 -202.836)"/></g><g transform="translate(53.337 1.332)"><path class="k" d="M120.208,191.146l.535-3.773-1.86,3.327Z" transform="translate(-97.266 -158.822)"/><path class="k" d="M112.786,191.146l.535-3.773-1.854,3.327Z" transform="translate(-97.266 -158.822)"/><path class="k" d="M105.364,191.146l.537-3.773-1.856,3.327Z" transform="translate(-97.266 -158.822)"/><path class="k" d="M129.49,178.993l.531-3.771-1.852,3.32Z" transform="translate(-97.266 -158.822)"/><path class="k" d="M122.066,178.993l.533-3.771-1.856,3.32Z" transform="translate(-97.266 -158.822)"/><path class="k" d="M114.644,178.993l.537-3.771-1.86,3.32Z" transform="translate(-97.266 -158.822)"/><path class="k" d="M127.221,166.742l.535-3.763L125.9,166.3Z" transform="translate(-97.266 -158.822)"/><path class="k" d="M119.793,166.742l.535-3.763-1.856,3.318Z" transform="translate(-97.266 -158.822)"/><path class="k" d="M111.853,167.033q.528-1.271,1.013-2.416l.105-.034-.379,2.7Z" transform="translate(-97.266 -158.822)"/><path class="k" d="M107.222,212.339l.539-3.769-1.86,3.32Z" transform="translate(-97.266 -158.822)"/><path class="k" d="M114.644,213.859l.537-3.771-1.86,3.329Z" transform="translate(-97.266 -158.822)"/><path class="k" d="M121.569,212.494l1.036-1.852-.2,1.373C122.141,212.167,121.849,212.329,121.569,212.494Z" transform="translate(-97.266 -158.822)"/><path class="k" d="M127.771,159.112l.969-.29-.082.586Z" transform="translate(-97.266 -158.822)"/><path class="k" d="M129.3,203.4l.537-3.769-1.858,3.328Z" transform="translate(-97.266 -158.822)"/><path class="k" d="M121.046,203.4l.531-3.769-1.856,3.328Z" transform="translate(-97.266 -158.822)"/><path class="k" d="M113.62,203.4l.539-3.769-1.864,3.328Z" transform="translate(-97.266 -158.822)"/><path class="k" d="M106.2,203.4l.539-3.769-1.86,3.328Z" transform="translate(-97.266 -158.822)"/><path class="k" d="M98.593,210.376l.533-3.773-1.86,3.322Z" transform="translate(-97.266 -158.822)"/><path class="k" d="M128.464,191.146l.539-3.773-1.862,3.327Z" transform="translate(-97.266 -158.822)"/></g><g transform="translate(1.42 29.883)"><path class="k" d="M54.981,191.146l-.537-3.773L56.3,190.7Z" transform="translate(-45.349 -187.373)"/><path class="k" d="M62.4,191.146l-.531-3.773,1.862,3.327Z" transform="translate(-45.349 -187.373)"/><path class="k" d="M69.82,191.146l-.529-3.773,1.86,3.327Z" transform="translate(-45.349 -187.373)"/><path class="k" d="M67.968,212.339l-.536-3.769,1.858,3.32Z" transform="translate(-45.349 -187.373)"/><path class="k" d="M60.542,213.859l-.535-3.771,1.86,3.329Z" transform="translate(-45.349 -187.373)"/><path class="k" d="M53.622,212.494l-1.036-1.852.195,1.373C53.059,212.167,53.333,212.329,53.622,212.494Z" transform="translate(-45.349 -187.373)"/><path class="k" d="M45.884,203.4l-.535-3.769,1.86,3.328Z" transform="translate(-45.349 -187.373)"/><path class="k" d="M54.144,203.4l-.535-3.769,1.862,3.328Z" transform="translate(-45.349 -187.373)"/><path class="k" d="M61.566,203.4l-.537-3.769,1.864,3.328Z" transform="translate(-45.349 -187.373)"/><path class="k" d="M68.988,203.4l-.531-3.769,1.854,3.328Z" transform="translate(-45.349 -187.373)"/><path class="k" d="M76.6,210.376,76.06,206.6l1.864,3.322Z" transform="translate(-45.349 -187.373)"/><path class="k" d="M46.718,191.146l-.531-3.773,1.86,3.327Z" transform="translate(-45.349 -187.373)"/></g><path class="d" d="M43.929,205.645l.341,1.126s3.683,2.1,8.448,4.817l.063.427c.278.152.552.314.841.479l-.323-.576c5.248,2.992,11.629,6.63,15.843,9.021,1.16.657,2.144,1.218,2.9,1.654l-.641,8.165.16,2.1.144,1.9.008.147.887,11.873c-.093.024-.186.045-.278.07v4.677s.261.124.714.35c1.089.529,3.264,1.588,5.657,2.757.84.415,1.714.841,2.565,1.26l2.612,1.287c2.154,1.06,3.9,1.928,4.429,2.219V170.811l-16.457,4.946-.154-.535-9.441,3.419-.739.221-17.58,5.28Z" transform="translate(-43.929 -157.49)"/></g></g></g></svg>