<svg xmlns="http://www.w3.org/2000/svg" width="154" height="215" viewBox="0 0 154 215"><defs><style>.a{fill:#c9c9c9;}.b{fill:#fff;}.c{fill:#d66142;}.d{fill:#616161;opacity:0.2;}.e{fill:#be6148;}.f,.g{stroke:none;}.g{fill:#c4c4c4;}</style></defs><g transform="translate(-957.511 -314.64)"><g transform="translate(957.511 314.64)"><path class="a" d="M974.539,529.64a16.393,16.393,0,0,1-16.559-16.163l-.469-182.57a16.377,16.377,0,0,1,16.537-16.267l120.919.222a16.443,16.443,0,0,1,16.51,16.285V513.331a16.346,16.346,0,0,1-16.448,16.169Z" transform="translate(-957.511 -314.64)"/></g><g class="b" transform="translate(0 0)"><path class="f" d="M 1095.202880859375 528.69091796875 L 976.0309448242188 528.69091796875 C 967.31884765625 528.69091796875 960.2310791015625 521.64453125 960.2310791015625 512.9833374023438 L 960.2310791015625 330.8495483398438 C 960.2310791015625 322.1905822753906 967.31884765625 315.1460266113281 976.0309448242188 315.1460266113281 L 1095.202880859375 315.1460266113281 C 1103.91943359375 315.1460266113281 1111.010864257813 322.1905822753906 1111.010864257813 330.8495483398438 L 1111.010864257813 512.9833374023438 C 1111.010864257813 521.64453125 1103.91943359375 528.69091796875 1095.202880859375 528.69091796875 Z"/><path class="g" d="M 1095.202880859375 528.19091796875 C 1103.643676757813 528.19091796875 1110.510864257813 521.3688354492188 1110.510864257813 512.9833374023438 L 1110.510864257813 330.8495483398438 C 1110.510864257813 322.4662780761719 1103.643676757813 315.6460266113281 1095.202880859375 315.6460266113281 L 976.0309448242188 315.6460266113281 C 967.5946044921875 315.6460266113281 960.7310791015625 322.4662780761719 960.7310791015625 330.8495483398438 L 960.7310791015625 512.9833374023438 C 960.7310791015625 521.3688354492188 967.5946044921875 528.19091796875 976.0309448242188 528.19091796875 L 1095.202880859375 528.19091796875 M 1095.202880859375 529.19091796875 L 976.0309448242188 529.19091796875 C 967.0369262695313 529.19091796875 959.7310791015625 521.921630859375 959.7310791015625 512.9833374023438 L 959.7310791015625 330.8495483398438 C 959.7310791015625 321.915283203125 967.0369262695313 314.6460266113281 976.0309448242188 314.6460266113281 L 1095.202880859375 314.6460266113281 C 1104.189819335938 314.6460266113281 1111.510864257813 321.915283203125 1111.510864257813 330.8495483398438 L 1111.510864257813 512.9833374023438 C 1111.510864257813 521.921630859375 1104.189819335938 529.19091796875 1095.202880859375 529.19091796875 Z"/></g><g transform="translate(1048.609 330.014)"><path class="c" d="M1063.668,330.014l-15.941,20.13,15.941,20.142,15.948-20.142Z" transform="translate(-1047.727 -330.014)"/><path class="d" d="M1063.565,330.147l.1-.133,15.948,20.13-15.948,20.142-.1-.139Z" transform="translate(-1047.727 -330.014)"/></g><g transform="translate(990.758 401.784)"><path class="c" d="M1006.381,401.206l15.944,20.129-15.944,20.144-15.945-20.144Z" transform="translate(-990.436 -401.206)"/><path class="d" d="M1006.484,401.336l-.1-.129-15.945,20.129,15.945,20.144.1-.135Z" transform="translate(-990.436 -401.206)"/></g><g transform="translate(990.758 473.551)"><path class="c" d="M1006.381,472.392l15.944,20.138-15.944,20.136L990.436,492.53Z" transform="translate(-990.436 -472.392)"/><path class="d" d="M1006.484,472.53l-.1-.139L990.436,492.53l15.945,20.136.1-.133Z" transform="translate(-990.436 -472.392)"/></g><g transform="translate(990.758 330.014)"><path class="c" d="M1006.381,330.014l15.944,20.13-15.944,20.142-15.945-20.142Z" transform="translate(-990.436 -330.014)"/><path class="d" d="M1006.484,330.147l-.1-.133-15.945,20.13,15.945,20.142.1-.139Z" transform="translate(-990.436 -330.014)"/></g><g transform="translate(1048.609 401.784)"><path class="c" d="M1063.668,401.206l-15.941,20.129,15.941,20.144,15.948-20.144Z" transform="translate(-1047.727 -401.206)"/><path class="d" d="M1063.565,401.336l.1-.129,15.948,20.129-15.948,20.144-.1-.135Z" transform="translate(-1047.727 -401.206)"/></g><g transform="translate(1048.609 473.551)"><path class="c" d="M1063.668,472.392l-15.941,20.138,15.941,20.136,15.948-20.136Z" transform="translate(-1047.727 -472.392)"/><path class="d" d="M1063.565,472.53l.1-.139,15.948,20.138-15.948,20.136-.1-.133Z" transform="translate(-1047.727 -472.392)"/></g><g transform="translate(967.776 351.665)"><path class="c" d="M972.417,363.174l-4.641-5.861,4.641-5.859,4.649,5.859Z" transform="translate(-967.776 -351.454)"/><path class="d" d="M972.417,351.454l-.038.048v11.631l.038.042,4.649-5.861Z" transform="translate(-967.776 -351.454)"/></g><g transform="translate(967.35 328.058)"><path class="e" d="M978.588,339.3a8.326,8.326,0,0,1-3.506,5.456,13.613,13.613,0,0,1-1.378.575,2.379,2.379,0,0,1-.731.152h-.678a4.508,4.508,0,0,1-3.773-1.715,5.816,5.816,0,0,1-1.172-3.685,11.789,11.789,0,0,1,.574-3.347,12.368,12.368,0,0,1,1.44-3.206,27.14,27.14,0,0,1,1.614-2.3c.141-.154.761-.7,1.85-1.618a14.333,14.333,0,0,1,1.759-1.342,1.41,1.41,0,0,1,.677-.212q.423,0,.423.448a7.178,7.178,0,0,1-1.191,1.239,14.622,14.622,0,0,0-1.759,2.016,10.418,10.418,0,0,0-.9,1.591,5.918,5.918,0,0,0-.655,1.784.225.225,0,0,0,.084.15.261.261,0,0,0,.179.08c.4-.218.834-.436,1.287-.653a5.381,5.381,0,0,1,1.964-.654,3.413,3.413,0,0,1,2.437,1.452A5.579,5.579,0,0,1,978.588,339.3Zm-3.369,2.526a5.066,5.066,0,0,0-1.055-2.987,2.848,2.848,0,0,0-2.177-1.456,1.743,1.743,0,0,0-.773.169.6.6,0,0,0-.354.579,4.716,4.716,0,0,0,1.2,2.928,3.574,3.574,0,0,0,2.741,1.612.354.354,0,0,0,.312-.158A1.421,1.421,0,0,0,975.219,341.829Z" transform="translate(-967.35 -328.058)"/></g><g transform="translate(1093.644 500.355)"><path class="e" d="M1092.462,505.379a8.373,8.373,0,0,1,3.514-5.463c.609-.276,1.058-.469,1.367-.57a2.418,2.418,0,0,1,.742-.15h.678a4.5,4.5,0,0,1,3.773,1.715,5.81,5.81,0,0,1,1.169,3.688,11.909,11.909,0,0,1-.572,3.344,12.444,12.444,0,0,1-1.442,3.2,27.385,27.385,0,0,1-1.619,2.3q-.205.235-1.85,1.619a14.037,14.037,0,0,1-1.755,1.341,1.456,1.456,0,0,1-.678.21c-.285,0-.426-.145-.426-.444a7.289,7.289,0,0,1,1.192-1.241,15.068,15.068,0,0,0,1.762-2.012,9.55,9.55,0,0,0,.888-1.593,5.62,5.62,0,0,0,.658-1.784.242.242,0,0,0-.084-.152.223.223,0,0,0-.175-.078c-.411.213-.83.434-1.287.653a5.363,5.363,0,0,1-1.968.656,3.439,3.439,0,0,1-2.437-1.454A5.6,5.6,0,0,1,1092.462,505.379Zm3.373-2.532a5.028,5.028,0,0,0,1.051,2.985,2.855,2.855,0,0,0,2.177,1.464,1.793,1.793,0,0,0,.781-.17.612.612,0,0,0,.346-.578,4.743,4.743,0,0,0-1.195-2.928,3.592,3.592,0,0,0-2.741-1.614.352.352,0,0,0-.316.162A1.466,1.466,0,0,0,1095.835,502.847Z" transform="translate(-1092.462 -499.196)"/></g><g transform="translate(1095.167 482.457)"><path class="c" d="M1098.63,481.5l4.641,5.859-4.641,5.863-4.645-5.863Z" transform="translate(-1093.985 -481.5)"/><path class="d" d="M1098.66,481.533l-.03-.032-4.645,5.859,4.645,5.863.03-.04Z" transform="translate(-1093.985 -481.5)"/></g></g></svg>