<svg xmlns="http://www.w3.org/2000/svg" width="154" height="215" viewBox="0 0 154 215"><defs><style>.a{fill:#c9c9c9;}.b{fill:#fff;}.c{fill:#d66142;}.d{fill:#616161;opacity:0.2;}.e{fill:#be6148;}.f,.g{stroke:none;}.g{fill:#c4c4c4;}</style></defs><g transform="translate(-10.789 -1088.403)"><g transform="translate(10.789 1088.403)"><path class="a" d="M27.81,1303.4a16.383,16.383,0,0,1-16.554-16.162l-.467-182.569a16.36,16.36,0,0,1,16.53-16.269l120.935.214A16.439,16.439,0,0,1,164.76,1104.9v182.193a16.336,16.336,0,0,1-16.442,16.17Z" transform="translate(-10.789 -1088.403)"/></g><g class="b" transform="translate(0)"><path class="f" d="M 148.4856872558594 1302.4609375 L 29.30226898193359 1302.4609375 C 20.58668518066406 1302.4609375 13.49601936340332 1295.41455078125 13.49601936340332 1286.75341796875 L 13.49601936340332 1104.603515625 C 13.49601936340332 1095.946166992188 20.58668518066406 1088.902954101563 29.30226898193359 1088.902954101563 L 148.4856872558594 1088.902954101563 C 157.1996307373047 1088.902954101563 164.2889404296875 1095.946166992188 164.2889404296875 1104.603515625 L 164.2889404296875 1286.75341796875 C 164.2889404296875 1295.41455078125 157.1996307373047 1302.4609375 148.4856872558594 1302.4609375 Z"/><path class="g" d="M 148.4856872558594 1301.9609375 C 156.9239349365234 1301.9609375 163.7889404296875 1295.138916015625 163.7889404296875 1286.75341796875 L 163.7889404296875 1104.603515625 C 163.7889404296875 1096.221923828125 156.9239349365234 1089.402954101563 148.4856872558594 1089.402954101563 L 29.30226898193359 1089.402954101563 C 20.86238098144531 1089.402954101563 13.99601936340332 1096.221923828125 13.99601936340332 1104.603515625 L 13.99601936340332 1286.75341796875 C 13.99601936340332 1295.138916015625 20.86238098144531 1301.9609375 29.30226898193359 1301.9609375 L 148.4856872558594 1301.9609375 M 148.4856872558594 1302.9609375 L 29.30226898193359 1302.9609375 C 20.31357574462891 1302.9609375 12.99601936340332 1295.688232421875 12.99601936340332 1286.75341796875 L 12.99601936340332 1104.603515625 C 12.99601936340332 1095.668701171875 20.31357574462891 1088.402954101563 29.30226898193359 1088.402954101563 L 148.4856872558594 1088.402954101563 C 157.4764099121094 1088.402954101563 164.7889404296875 1095.668701171875 164.7889404296875 1104.603515625 L 164.7889404296875 1286.75341796875 C 164.7889404296875 1295.688232421875 157.4764099121094 1302.9609375 148.4856872558594 1302.9609375 Z"/></g><g transform="translate(101.886 1103.761)"><path class="c" d="M116.942,1103.761l15.942,20.14-15.942,20.14L101,1123.9Z" transform="translate(-100.995 -1103.761)"/><path class="d" d="M117.048,1103.9l-.106-.137L101,1123.9l15.947,20.14.106-.137Z" transform="translate(-100.995 -1103.761)"/></g><g transform="translate(72.024 1175.548)"><path class="c" d="M87.371,1174.964l15.948,20.125-15.948,20.148-15.946-20.148Z" transform="translate(-71.425 -1174.964)"/><path class="d" d="M87.476,1175.1l-.1-.137-15.946,20.125,15.946,20.148.1-.145Z" transform="translate(-71.425 -1174.964)"/></g><g transform="translate(101.886 1151.654)"><path class="c" d="M116.942,1151.23l15.942,20.125L116.942,1191.5,101,1171.354Z" transform="translate(-100.995 -1151.23)"/><path class="d" d="M117.048,1151.359l-.106-.129L101,1171.354l15.947,20.148.106-.137Z" transform="translate(-100.995 -1151.23)"/></g><g transform="translate(44.029 1199.427)"><path class="c" d="M59.653,1198.683,43.7,1218.823l15.948,20.14,15.943-20.14Z" transform="translate(-43.704 -1198.683)"/><path class="d" d="M59.546,1198.819l.106-.137,15.943,20.14-15.943,20.14-.106-.129Z" transform="translate(-43.704 -1198.683)"/></g><g transform="translate(44.029 1247.323)"><path class="c" d="M59.653,1246.151,43.7,1266.276l15.948,20.14,15.943-20.14Z" transform="translate(-43.704 -1246.151)"/><path class="d" d="M59.546,1246.28l.106-.13L75.6,1266.276l-15.943,20.14-.106-.129Z" transform="translate(-43.704 -1246.151)"/></g><g transform="translate(44.029 1103.761)"><path class="c" d="M59.653,1103.761,75.6,1123.9l-15.943,20.14L43.7,1123.9Z" transform="translate(-43.704 -1103.761)"/><path class="d" d="M59.756,1103.9l-.1-.137L43.7,1123.9l15.948,20.14.1-.137Z" transform="translate(-43.704 -1103.761)"/></g><g transform="translate(44.029 1151.654)"><path class="c" d="M59.653,1151.23,75.6,1171.354,59.653,1191.5,43.7,1171.354Z" transform="translate(-43.704 -1151.23)"/><path class="d" d="M59.756,1151.359l-.1-.129L43.7,1171.354,59.653,1191.5l.1-.137Z" transform="translate(-43.704 -1151.23)"/></g><g transform="translate(101.886 1199.427)"><path class="c" d="M116.942,1198.683,101,1218.823l15.947,20.14,15.942-20.14Z" transform="translate(-100.995 -1198.683)"/><path class="d" d="M116.837,1198.819l.1-.137,15.942,20.14-15.942,20.14-.1-.129Z" transform="translate(-100.995 -1198.683)"/></g><g transform="translate(101.886 1247.323)"><path class="c" d="M116.942,1246.151,101,1266.276l15.947,20.14,15.942-20.14Z" transform="translate(-100.995 -1246.151)"/><path class="d" d="M116.837,1246.28l.1-.13,15.942,20.125-15.942,20.14-.1-.129Z" transform="translate(-100.995 -1246.151)"/></g><g transform="translate(21.048 1125.425)"><path class="c" d="M25.7,1136.93l-4.649-5.863,4.649-5.855,4.641,5.855Z" transform="translate(-21.048 -1125.211)"/><path class="d" d="M25.7,1125.211l-.042.038v11.635l.042.046,4.641-5.863Z" transform="translate(-21.048 -1125.211)"/></g><g transform="translate(20.953 1102.139)"><path class="e" d="M31.965,1108a10.417,10.417,0,0,1-.767,3.708,9.934,9.934,0,0,1-1.58,2.946,29.028,29.028,0,0,1-2.766,2.757q-2.127,1.827-3.394,1.827a.339.339,0,0,1-.234-.091,2.376,2.376,0,0,1-.212-.213,12.006,12.006,0,0,0,2.391-2.117,17.632,17.632,0,0,0,2.389-3.685v-.313c-.066-.03-.124-.06-.186-.091-.627.282-1.2.526-1.721.723a3.7,3.7,0,0,1-1.4.305,2.99,2.99,0,0,1-2.293-1.34,5.582,5.582,0,0,1-1.241-3.67c0-1.409.841-2.886,2.527-4.447q2.322-2.158,3.869-2.163a4.112,4.112,0,0,1,2.9,1.523A6.072,6.072,0,0,1,31.965,1108Zm-3.566,2.033a4.965,4.965,0,0,0-1.264-3.465,3.178,3.178,0,0,0-2.3-1.241c-.184,0-.309.114-.373.342a2.847,2.847,0,0,0-.1.762,4.741,4.741,0,0,0,.893,2.947c.716.959,1.4,1.431,2.062,1.431a1.758,1.758,0,0,0,.729-.121A.676.676,0,0,0,28.4,1110.036Z" transform="translate(-20.953 -1102.139)"/></g><g transform="translate(146.84 1274.133)"><path class="e" d="M145.646,1284.193a10.421,10.421,0,0,1,.765-3.709,9.732,9.732,0,0,1,1.582-2.939,26.779,26.779,0,0,1,2.762-2.764c1.419-1.218,2.553-1.82,3.4-1.82a.355.355,0,0,1,.231.076,2.11,2.11,0,0,1,.211.213,12.08,12.08,0,0,0-2.387,2.117,17.658,17.658,0,0,0-2.389,3.693v.312l.184.092c.627-.274,1.2-.526,1.723-.731a3.836,3.836,0,0,1,1.393-.305,3.011,3.011,0,0,1,2.3,1.34,5.6,5.6,0,0,1,1.244,3.678c0,1.4-.846,2.878-2.534,4.447q-2.319,2.159-3.865,2.155a4.1,4.1,0,0,1-2.9-1.523A6.056,6.056,0,0,1,145.646,1284.193Zm3.566-2.041a5.006,5.006,0,0,0,1.262,3.472,3.181,3.181,0,0,0,2.295,1.241c.187,0,.313-.114.375-.335a2.907,2.907,0,0,0,.092-.769,4.746,4.746,0,0,0-.889-2.954c-.718-.945-1.4-1.417-2.062-1.417a1.785,1.785,0,0,0-.727.107A.671.671,0,0,0,149.212,1282.152Z" transform="translate(-145.646 -1272.961)"/></g><g transform="translate(148.454 1256.225)"><path class="c" d="M151.9,1255.258l4.641,5.855-4.641,5.863-4.641-5.863Z" transform="translate(-147.26 -1255.258)"/><path class="d" d="M151.932,1255.28l-.031-.023-4.641,5.855,4.641,5.863.031-.046Z" transform="translate(-147.26 -1255.258)"/></g></g></svg>