<svg xmlns="http://www.w3.org/2000/svg" width="154" height="215" viewBox="0 0 154 215"><defs><style>.a{fill:#c9c9c9;}.b,.m{fill:#fff;}.c{fill:#be6148;}.d{fill:#757575;}.e{fill:#d66142;}.f{fill:#ebb07a;}.g,.j{fill:#616161;}.g,.i,.m{opacity:0.2;}.h{fill:#333;}.k{fill:#9c4129;}.l{fill:#ababab;}.n{fill:#ebebeb;}.o{fill:#ffd675;}.p,.q{stroke:none;}.q{fill:#c4c4c4;}</style></defs><g transform="translate(-393.328 -573.421)"><g transform="translate(393.328 573.421)"><path class="a" d="M410.354,788.421A16.4,16.4,0,0,1,393.8,772.256l-.469-182.572a16.37,16.37,0,0,1,16.535-16.263l120.951.224a16.44,16.44,0,0,1,16.515,16.29V772.113a16.337,16.337,0,0,1-16.452,16.165Z" transform="translate(-393.328 -573.421)"/><g class="b" transform="translate(-393.328 -573.421)"><path class="p" d="M 530.10546875 787.6930541992188 L 410.9134826660156 787.6930541992188 C 402.2010803222656 787.6930541992188 395.1130065917969 780.6488037109375 395.1130065917969 771.9902954101563 L 395.1130065917969 589.8587036132813 C 395.1130065917969 581.1990966796875 402.2010803222656 574.1539916992188 410.9134826660156 574.1539916992188 L 530.10546875 574.1539916992188 C 538.81787109375 574.1539916992188 545.9059448242188 581.1990966796875 545.9059448242188 589.8587036132813 L 545.9059448242188 771.9902954101563 C 545.9059448242188 780.6488037109375 538.81787109375 787.6930541992188 530.10546875 787.6930541992188 Z"/><path class="q" d="M 530.10546875 787.1930541992188 C 538.5421752929688 787.1930541992188 545.4059448242188 780.3731079101563 545.4059448242188 771.9902954101563 L 545.4059448242188 589.8587036132813 C 545.4059448242188 581.4747924804688 538.5421752929688 574.6539916992188 530.10546875 574.6539916992188 L 410.9134826660156 574.6539916992188 C 402.4767761230469 574.6539916992188 395.6130065917969 581.4747924804688 395.6130065917969 589.8587036132813 L 395.6130065917969 771.9902954101563 C 395.6130065917969 780.3731079101563 402.4767761230469 787.1930541992188 410.9134826660156 787.1930541992188 L 530.10546875 787.1930541992188 M 530.10546875 788.1930541992188 L 410.9134826660156 788.1930541992188 C 401.9294738769531 788.1930541992188 394.6130065917969 780.9288330078125 394.6130065917969 771.9902954101563 L 394.6130065917969 589.8587036132813 C 394.6130065917969 580.9221801757813 401.9294738769531 573.6539916992188 410.9134826660156 573.6539916992188 L 530.10546875 573.6539916992188 C 539.0974731445313 573.6539916992188 546.4059448242188 580.9221801757813 546.4059448242188 589.8587036132813 L 546.4059448242188 771.9902954101563 C 546.4059448242188 780.9288330078125 539.0974731445313 788.1930541992188 530.10546875 788.1930541992188 Z"/></g><g transform="translate(10.257 14)"><path class="c" d="M422.194,588.483a5.418,5.418,0,0,1-1.835,1.922,4.246,4.246,0,0,1-2.2.659,18.31,18.31,0,0,1-2.513-.544,7.374,7.374,0,0,0-1.839-.257,4.428,4.428,0,0,0-1.056.127,2.257,2.257,0,0,0-.908.438h-.263V590.5a5.48,5.48,0,0,1,1.765-2.37,4.678,4.678,0,0,1,2.686-.708,6.749,6.749,0,0,1,2.309.393,6.408,6.408,0,0,0,2.117.393c.22,0,.483-.012.765-.033s.617-.045.967-.091Zm.068,13.9a4.589,4.589,0,0,1-1.766,3.742,6.947,6.947,0,0,1-4.5,1.419,5.566,5.566,0,0,1-2.818-.663,2.459,2.459,0,0,1-1.353-2.252,1.975,1.975,0,0,1,.381-1.207,1.749,1.749,0,0,1,1.509-.71,1.654,1.654,0,0,1,1.129.417,1.294,1.294,0,0,1,.482,1.032,1.345,1.345,0,0,1-.853,1.369c-.562.236-.849.4-.849.5a1.267,1.267,0,0,0,.308.446,2.094,2.094,0,0,0,1.447.453,2.846,2.846,0,0,0,1.616-.453,1.413,1.413,0,0,0,.68-1.249V591.865c.818-.262,1.582-.523,2.3-.791a5.827,5.827,0,0,0,1.892-1.141h.4Z" transform="translate(-411.585 -587.421)"/></g><g transform="translate(133.882 182.906)"><path class="c" d="M521.615,762.6a4.6,4.6,0,0,1,1.765-3.746,6.99,6.99,0,0,1,4.513-1.416,5.611,5.611,0,0,1,2.818.654,2.5,2.5,0,0,1,1.349,2.262,1.976,1.976,0,0,1-.38,1.2,1.756,1.756,0,0,1-1.516.716,1.711,1.711,0,0,1-1.127-.419,1.312,1.312,0,0,1-.476-1.028,1.353,1.353,0,0,1,.848-1.378c.563-.236.852-.4.852-.495a1.341,1.341,0,0,0-.312-.449,2.088,2.088,0,0,0-1.446-.449,2.864,2.864,0,0,0-1.615.449,1.424,1.424,0,0,0-.677,1.248v13.349c-.815.274-1.584.54-2.3.807a5.549,5.549,0,0,0-1.893,1.142h-.407Zm.08,13.9a5.272,5.272,0,0,1,1.822-1.919,4.212,4.212,0,0,1,2.2-.67,18.827,18.827,0,0,1,2.511.548,7.828,7.828,0,0,0,1.848.259,4.206,4.206,0,0,0,1.051-.13,2.267,2.267,0,0,0,.915-.434h.257v.328a5.488,5.488,0,0,1-1.761,2.368,4.661,4.661,0,0,1-2.689.708,6.89,6.89,0,0,1-2.307-.388,6.384,6.384,0,0,0-2.117-.389c-.223,0-.48.008-.767.023s-.617.046-.96.091Z" transform="translate(-521.615 -757.443)"/></g><g transform="translate(33 22.16)"><path class="d" d="M460.028,640.733l-5.385,2.132,1.234,2.265,21.3-.259,1.508-2.007-4.766-2.132Z" transform="translate(-422.346 -595.581)"/><g transform="translate(26.087 0.303)"><path class="e" d="M484.887,607.007c-.064,1.224-3.581,17.046-4.224,18.383-3.9,8.433-14,3.91-14,3.91s-9.571,4.6-13.457-3.807c-.687-1.455-4.772-17.3-4.772-18.6a11.051,11.051,0,0,1,11.075-11.011c3.419,0,7.236,3.084,7.236,3.084s3.605-3.084,7.123-3.033C479.983,596.019,485.2,600.921,484.887,607.007Z" transform="translate(-448.433 -595.884)"/><rect class="f" width="13.887" height="14.502" transform="translate(11.599 38.186)"/><path class="g" d="M473.919,636.868v3.53a8.419,8.419,0,0,1-5.677,2.65h-2.62a8.425,8.425,0,0,1-5.59-2.582V637l1.191,1.9.316-4.831h10.794l.312,4.831Z" transform="translate(-448.433 -595.884)"/><path class="f" d="M468.242,601.029h-2.62c-6.854,0-12.417,4.689-12.417,10.48,0,0,.059,14.174.166,14.852.952,6.114,6.082,15.563,12.251,15.563h2.62c6.181,0,11.311-9.449,12.267-15.563.1-.678.154-14.852.154-14.852C480.663,605.718,475.108,601.029,468.242,601.029Z" transform="translate(-448.433 -595.884)"/><g transform="translate(10.116 20.049)"><path class="h" d="M458.952,617.829a1.825,1.825,0,0,0-.4,1.111,2.337,2.337,0,0,0,4.614,0,1.741,1.741,0,0,0-.418-1.111Z" transform="translate(-458.549 -615.933)"/><path class="g" d="M467.823,615.933h-1.778l-1.233,9.092,2.128,2.448,2.117-2.448Z" transform="translate(-458.549 -615.933)"/><path class="h" d="M474.916,617.829a1.773,1.773,0,0,1,.411,1.111,2.337,2.337,0,0,1-4.614,0,1.735,1.735,0,0,1,.417-1.111Z" transform="translate(-458.549 -615.933)"/></g><g class="i" transform="translate(16.009 36.172)"><rect class="j" width="5.085" height="1.249"/></g><path class="e" d="M470.482,612.917l6.878.834-6.878.83Z" transform="translate(-448.433 -595.884)"/><path class="e" d="M463.39,614.581l-6.729-.83,6.729-.834Z" transform="translate(-448.433 -595.884)"/></g><path class="e" d="M484.887,606.7a10.425,10.425,0,0,1-1.083,3.84,11.341,11.341,0,0,0-9.937-6.025c-3.518-.052-7.123,3.023-7.123,3.023s-3.817-3.075-7.236-3.075a11.041,11.041,0,0,0-9.986,6.292,9.944,9.944,0,0,1-1.089-4.173,11.046,11.046,0,0,1,11.075-11.005c3.419,0,3.75,1.346,7.162,1.346s3.679-1.346,7.2-1.294C479.983,595.72,485.2,600.612,484.887,606.7Z" transform="translate(-422.346 -595.581)"/><path class="e" d="M463.929,635.113c2.754.773,3.028,5.62,3.028,5.62s.3-4.892,3.086-5.62Z" transform="translate(-422.346 -595.581)"/><path class="e" d="M474.731,632.117a4.788,4.788,0,0,1-.476,1.7,5.033,5.033,0,0,0-4.4-2.669c-1.561-.019-4.843-.019-6.36-.019a4.878,4.878,0,0,0-4.414,2.783,4.52,4.52,0,0,1-.484-1.842,4.889,4.889,0,0,1,4.9-4.874c1.517,0,3.174,2.269,3.174,2.269s1.625-2.269,3.186-2.242A4.816,4.816,0,0,1,474.731,632.117Z" transform="translate(-422.346 -595.581)"/><path class="d" d="M501.612,644.7l-5.254,4.926-2.311,6.991s7.8-1.561,7.852-1.371Z" transform="translate(-422.346 -595.581)"/><path class="d" d="M432.812,644.7l5.262,4.926,2.3,6.991s-7.8-1.561-7.843-1.371Z" transform="translate(-422.346 -595.581)"/><path class="k" d="M435.968,648.572l-.731,1.466-1.721,5.6s9.717-2.715,9.277-2.425Z" transform="translate(-422.346 -595.581)"/><path class="l" d="M507.924,663.923l-5.236,1.561-9.463,2.832-.6.171L480.488,672.1l-.329.111-.75.213-3.7,1.108-1.43.434-4.614,1.378-2.3.685-8.934,2.665-1.864.541-.42.129-2.334.7-1.47.445-4.235,1.268-6.374,1.9-.017-1.8-.043-5.258-4.205,7.1v1.226l-4.447,1.336-10.664,3.175V674.491l.034-.769v-.083l.11-2.239.36-.838,2.1-4.995,2.1-4.961,2.246-5.334.838-2,.942-2.243,1.565-.377,2.59-.609.13-.042.2-.042.321-.08.166-.034.554-.145.758-.178h.011l.082-.035.383-.087,7.089-1.721.753-.179.328-.069.769-.2,5.674-1.356.1-.026.651-.168,2.15-.525.472-.111,4.205-1.012h13.887l3.3.807.8.186.451.107,5.037,1.23,4.542,1.108,8.431,2.044.493.114,1.944.473,2.693.651.164.034,1.014.247,2.1,5.266,2.1,5.277.594,1.458Z" transform="translate(-422.346 -595.581)"/><path class="m" d="M483.509,646.36,468.9,660.983l-.626.617-2.484,2.486-.025.023-4.019,4.013-.205.213-7.021,7.017-2.166,2.159-.98.99-1.08,1.081-2.189,2.2-6.373,1.9-.017-1.8,6.537-6.526,1.087-1.089.754-.754,2.258-2.269.683-.678.685-.685.29-.281,8.261-8.262.133-.126.308-.316.011-.012,2.364-2.372.609-.609,12.777-12.769Z" transform="translate(-422.346 -595.581)"/><path class="m" d="M501.612,650.75l-8.78,8.795-12.457,12.449-.217.221-.75.213-3.7,1.108-1.43.434-4.614,1.379-2.3.685-8.934,2.665-1.864.541-.421.129.329-.32,1.319-1.333,6.267-6.263.638-.628,3.375-3.388.4-.388,3.3-3.3,16.284-16.284,8.431,2.044.493.114,1.944.472Z" transform="translate(-422.346 -595.581)"/><path class="g" d="M480.488,672.1l-.329.111-.75.213-3.7,1.108-1.43.434-4.614,1.378-2.3.685-8.934,2.665-1.864.541-.42.129-2.334.7-1.47.445-.967-2.014-2.035-4.237-6.557-13.649-3.174-6.643-.308-.636,0-.008-1.778-3.7v-.011l-.061-.126.383-.087,7.089-1.721.753-.179.328-.069.769-.2,5.674-1.356.1-.026.651-.168c2.013,2.056,6.754,6.69,12.49,12.222,1.028,1,2.115,2.029,3.2,3.083q1.4,1.355,2.868,2.768c2.841,2.722,5.766,5.536,8.608,8.243A.531.531,0,0,1,480.488,672.1Z" transform="translate(-422.346 -595.581)"/><path class="e" d="M467.361,676.033l-8.934,2.665-1.864.541-.42.129-2.334.7-1.457-2.559-2.261-4-7.311-12.895-2.6-4.592-1.083-1.915-2.5-4.4-.636-1.13.768-.2,14.708-3.674c.149.206.494.609,1.007,1.172,2.081,2.22,6.892,7,12.635,12.637,1.037,1.009,2.09,2.048,3.186,3.091.939.925,1.893,1.858,2.858,2.787,2.728,2.68,5.56,5.414,8.279,8.041l-3.7,1.108-1.43.434-4.614,1.378Z" transform="translate(-422.346 -595.581)"/><path class="n" d="M454.642,642.865l.712,2.3,11.006,6.381-.327-7.515Z" transform="translate(-422.346 -595.581)"/><path class="n" d="M478.685,642.865l-.719,2.3-10.988,6.381.318-7.515Z" transform="translate(-422.346 -595.581)"/><path class="g" d="M465.788,664.086l2.047,2.174c-.741-.761-1.434-1.481-2.071-2.151-1.219-1.264-2.251-2.353-3.054-3.217-.767-.807-1.321-1.4-1.624-1.725l1.636,1.713Z" transform="translate(-422.346 -595.581)"/><path class="g" d="M468.47,667.048c2.445,2.3,4.912,4.531,7.238,6.488l-1.43.434-6.207-6.533-2.749-2.883-.3-.323-2.756-2.9-5.466-5.744-.137-.156a1.3,1.3,0,0,0,.149.144c1.7,1.74,3.586,3.659,5.587,5.631.929.918,1.884,1.858,2.851,2.783.1.11.206.2.309.316C466.529,665.217,467.494,666.142,468.47,667.048Z" transform="translate(-422.346 -595.581)"/><path class="g" d="M458.427,678.7l-1.864.541-.091-.19-1.953-3.7-2.17-4.111-2.4-4.561-2.9-5.136,5.987,9.019,2.507,3.769,2.252,3.385Z" transform="translate(-422.346 -595.581)"/><path class="g" d="M469.664,675.348l-2.3.685-1.7-2.577-1.6-2-2.518-3.118-1.22-1.515,1.426,1.3,2.951,2.7Z" transform="translate(-422.346 -595.581)"/><path class="g" d="M441.67,676.619l-4.205,7.1v1.226l-4.447,1.336-3.232-.67,4.451-2.022Z" transform="translate(-422.346 -595.581)"/><path class="g" d="M507.924,663.923l-5.237,1.561-9.463,2.833-.6.171-.571-7.093.781-1.85,1.215-2.928,2.927-6.99,1.944.472,2.694.651.164.034,1.014.248,2.1,5.265,2.1,5.277.594,1.458Z" transform="translate(-422.346 -595.581)"/><path class="l" d="M502.688,665.484l-9.463,2.832-.046-6.716,2.416-4.82.257-.533,3.067-6.148,2.693-5.4s6.862,8.635,7.072,8.482a22.529,22.529,0,0,1,.514,2.578c.316,1.911.75,4.66,1.182,7.435l-2.2.644-.254.084Z" transform="translate(-422.346 -595.581)"/><path class="g" d="M441.854,662.148l-.184,11.932-16.263-2.756a7.956,7.956,0,0,1,.082-1.31l4.651-16.74.942-2.243L435.367,650l.2-.042.321-.08.166-.034Z" transform="translate(-422.346 -595.581)"/><path class="l" d="M441.67,675.455l-15.358-1.375-3.924-.358h-.009a.231.231,0,0,1,.009-.053v-.03c.051-.3.223-1.459.47-3.077.857-5.756,2.6-17.38,2.8-17.38.218.153,7.064-8.482,7.064-8.482l.051.1,2.6,5.2,5.791,11.6Z" transform="translate(-422.346 -595.581)"/><path class="m" d="M510.388,663.2h-.017l-.033.008-2.168.636-.236.084-.3.083-.818.251-4.125,1.234,2.2-9.183.528-2.254-3.787-9.339c.4.5,6.743,8.467,7.055,8.467a23.378,23.378,0,0,1,.521,2.593c.014.13.044.259.062.411.055.286.106.56.154.884.045.361.116.753.188,1.149a8.293,8.293,0,0,0,.145.933c0,.1.036.221.048.331l.154.979c.034.213.064.426.1.666a1.847,1.847,0,0,0,.031.244C510.2,661.969,510.289,662.586,510.388,663.2Z" transform="translate(-422.346 -595.581)"/><path class="m" d="M432.761,644.818l-3.752,9.236.283,1.215,3.231,13.485-6.217,5.326-1.369,1.169s-2.018,8.2-2.25,8.471c-.051.061-.149.034-.341-.034v-9.191l.038-.78v-.069l.1-2.254.371-.83v-.045c.091-.64.2-1.325.309-2.071.536-3.572,1.233-8.19,1.77-11.411.047-.293.082-.582.135-.849a22.593,22.593,0,0,1,.585-3c.336,0,7.07-8.482,7.07-8.482h.082Z" transform="translate(-422.346 -595.581)"/><g transform="translate(0.821 61.285)"><path class="e" d="M428.156,661.1c-.2,1.515-4.955,7.458-4.955,7.458s-.013-.057-.034-.117c.536-3.572,1.233-8.19,1.77-11.411a5.233,5.233,0,0,1,1.388-.163C427.621,657.035,428.44,658.939,428.156,661.1Z" transform="translate(-423.167 -656.866)"/><path class="e" d="M510.338,663.2l-2.168.636-.236.084-.3.083a9.658,9.658,0,0,1-1.561-2.9c-.285-2.166.534-4.07,1.82-4.233a5.925,5.925,0,0,1,1.531.2c.013,0,.03.019.045.019l.288,2.063.048.331.154.979Z" transform="translate(-423.167 -656.866)"/></g><g transform="translate(18.691 51.617)"><path class="g" d="M454.8,649.615c1.913,3.567-2.48,13.306-2.48,13.306s-10.065-3.746-11.108-7.538a4.831,4.831,0,0,1,2.579-5.665,5.319,5.319,0,0,1,2.884-.065,5.069,5.069,0,0,1,2.02-2.082A4.876,4.876,0,0,1,454.8,649.615Z" transform="translate(-441.037 -647.198)"/><path class="o" d="M454.692,650.868c1.234,3.228-2.669,10.675-2.669,10.675s-8.314-2.094-9.706-5.254a4.208,4.208,0,0,1,2.018-5.585,5.192,5.192,0,0,1,2.941.011,4.794,4.794,0,0,1,1.941-2.151A4.147,4.147,0,0,1,454.692,650.868Z" transform="translate(-441.037 -647.198)"/><path class="g" d="M450.955,659.167c-3.135-.993-6.295-2.528-6.809-3.693a2.367,2.367,0,0,1-.072-1.77,2.029,2.029,0,0,1,1.074-1.173,1.3,1.3,0,0,1,.441-.053,5.237,5.237,0,0,1,1.131.156l1.662.476.719-1.565a2.743,2.743,0,0,1,.908-1.138,2.151,2.151,0,0,1,2.818,1.18C453.329,652.889,452.2,656.419,450.955,659.167Z" transform="translate(-441.037 -647.198)"/></g><path class="g" d="M510.388,663.2c-.05-.3-.1-.609-.153-.917-.07-.472-.146-.952-.218-1.424-.021-.137-.048-.27-.061-.392l-.154-.979c-.012-.11-.048-.228-.048-.331l-.288-2.063c-.015,0-.032-.019-.045-.019-.048-.324-.1-.6-.154-.884-.018-.152-.048-.281-.062-.411-.068-.385-.131-.719-.192-1.028-.061-.35-.116-.651-.164-.891a2.6,2.6,0,0,0-.165-.674c-.312,0-6.653-7.968-7.055-8.467l.01.019c0-.015-.027-.034-.027-.034l-5.13,4.812-8.431-2.044-4.542-1.108-5.037-1.23-.451-.107h-.01l.674-2.158-4.766-2.132v-1.466a24.863,24.863,0,0,0,6.59-12.906c.01-.08.019-.351.03-.739.042-.084.09-.152.124-.232.643-1.337,4.16-17.159,4.224-18.383.008-.1,0-.194,0-.293v-.01c.316-6.092-4.9-10.984-11.02-11.071-3.5-.052-3.8,1.285-7.154,1.294v79.3l.648-.2,2.3-.685,4.614-1.378,1.43-.434,3.7-1.108.75-.213.329-.111,12.135-3.617.6-.171,9.463-2.832v.007l4.125-1.234.274-.087.7-.206.146-.041.112-.042.132-.042,1.757-.514.4-.122h0l.042-.008h.008Z" transform="translate(-422.346 -595.581)"/><g transform="translate(0 77.257)"><path class="d" d="M472.716,722.677l5.383-2.115-1.239-2.277-21.3.263-1.5,2.014,4.762,2.115Z" transform="translate(-422.346 -673.954)"/><g transform="translate(25.492 40.894)"><path class="e" d="M447.851,756.407c.068-1.211,3.586-17.033,4.222-18.373,3.9-8.445,14-3.922,14-3.922s9.571-4.591,13.456,3.823c.686,1.446,4.776,17.284,4.776,18.587a11.043,11.043,0,0,1-11.079,11.01c-3.415,0-7.239-3.084-7.239-3.084s-3.6,3.084-7.114,3.038C452.754,767.4,447.539,762.5,447.851,756.407Z" transform="translate(-447.838 -714.848)"/><rect class="f" width="13.898" height="14.505" transform="translate(10.978)"/><path class="g" d="M458.816,726.559V723.02a8.408,8.408,0,0,1,5.676-2.644h2.623a8.4,8.4,0,0,1,5.6,2.575v3.47l-1.2-1.9-.312,4.835H460.408l-.315-4.835Z" transform="translate(-447.838 -714.848)"/><path class="f" d="M464.492,762.385h2.623c6.855,0,12.417-4.683,12.417-10.47,0,0-.051-14.186-.166-14.856-.943-6.114-6.077-15.554-12.251-15.554h-2.623c-6.17,0-11.308,9.44-12.263,15.554-.1.67-.156,14.856-.156,14.856C452.073,757.7,457.633,762.385,464.492,762.385Z" transform="translate(-447.838 -714.848)"/><g transform="translate(9.572 21.099)"><path class="h" d="M473.781,745.579a1.73,1.73,0,0,0,.412-1.1,2.339,2.339,0,0,0-4.615,0,1.711,1.711,0,0,0,.415,1.1Z" transform="translate(-457.41 -735.947)"/><path class="g" d="M464.914,747.49H466.7l1.226-9.107-2.128-2.437-2.117,2.437Z" transform="translate(-457.41 -735.947)"/><path class="h" d="M457.829,745.579a1.7,1.7,0,0,1-.419-1.1,2.339,2.339,0,0,1,4.615,0,1.724,1.724,0,0,1-.411,1.1Z" transform="translate(-457.41 -735.947)"/></g><g class="i" transform="translate(15.381 15.267)"><rect class="j" width="5.077" height="1.257"/></g><path class="e" d="M462.263,750.506l-6.881-.838,6.881-.822Z" transform="translate(-447.838 -714.848)"/><path class="e" d="M469.344,748.846l6.741.822-6.741.838Z" transform="translate(-447.838 -714.848)"/></g><path class="e" d="M447.851,756.719a10.349,10.349,0,0,1,1.085-3.837,11.318,11.318,0,0,0,9.94,6.015c3.516.046,7.114-3.015,7.114-3.015s3.824,3.061,7.239,3.061a11.05,11.05,0,0,0,9.99-6.282,9.937,9.937,0,0,1,1.089,4.165,11.047,11.047,0,0,1-11.079,11.01c-3.415,0-3.75-1.347-7.163-1.347s-3.674,1.347-7.19,1.294C452.754,767.7,447.539,762.8,447.851,756.719Z" transform="translate(-422.346 -673.954)"/><path class="e" d="M468.809,728.31c-2.747-.777-3.024-5.633-3.024-5.633s-.3,4.9-3.09,5.633Z" transform="translate(-422.346 -673.954)"/><path class="e" d="M458.006,731.295a4.791,4.791,0,0,1,.484-1.7,5.008,5.008,0,0,0,4.4,2.665c1.557.03,4.843.03,6.355.03a4.889,4.889,0,0,0,4.42-2.786,4.462,4.462,0,0,1,.481,1.842,4.887,4.887,0,0,1-4.9,4.873c-1.512,0-3.174-2.261-3.174-2.261s-1.624,2.261-3.181,2.239A4.832,4.832,0,0,1,458.006,731.295Z" transform="translate(-422.346 -673.954)"/><path class="d" d="M431.125,718.72l5.26-4.923,2.3-6.99s-7.8,1.565-7.846,1.371Z" transform="translate(-422.346 -673.954)"/><path class="d" d="M499.926,718.72l-5.262-4.923-2.3-6.99s7.8,1.565,7.844,1.371Z" transform="translate(-422.346 -673.954)"/><path class="k" d="M496.769,714.848l.731-1.466,1.723-5.593s-9.714,2.707-9.278,2.418Z" transform="translate(-422.346 -673.954)"/><path class="l" d="M424.811,699.5l5.245-1.568,9.457-2.818.6-.171,12.134-3.632.337-.1.742-.213,3.7-1.112,1.429-.423,4.622-1.386,2.292-.684,8.943-2.666,1.86-.548.427-.122,2.33-.7,1.469-.438,4.238-1.268,6.373-1.9.011,1.8.052,5.254,4.193-7.1v-1.223l4.447-1.336,10.672-3.187v14.982l-.038.769v.072l-.1,2.243-.36.841-2.1,4.984-2.106,4.976-2.241,5.322-.847,1.995-.934,2.243-1.569.384-2.591.617-.123.027-.2.045-.32.092-.172.026-.554.145-.753.183h-.017l-.077.023-.386.1-7.087,1.713-.76.186-.319.073-.768.194-5.678,1.37-.1.027-.653.156-2.149.53-.472.117-4.2,1.006h-13.9l-3.3-.8-.8-.194-.446-.111-5.042-1.225-4.538-1.1-8.435-2.041-.488-.118-1.952-.472-2.691-.659-.167-.034-1.007-.251-2.1-5.266-2.1-5.269-.59-1.458Z" transform="translate(-422.346 -673.954)"/><path class="m" d="M449.229,717.06l14.616-14.616.625-.625,2.488-2.486.021-.023,4.011-4.016.213-.209,7.024-7.024,2.159-2.159.984-.99,1.078-1.074,2.193-2.193,6.373-1.9.012,1.8-6.531,6.518-1.089,1.1-.758.75-2.252,2.262-.689.689-.682.682-.293.278-8.258,8.266-.131.125-.318.312,0,.007-2.365,2.387-.613.6-12.771,12.766Z" transform="translate(-422.346 -673.954)"/><path class="m" d="M431.125,712.666l8.785-8.783,12.452-12.453.225-.225.742-.213,3.7-1.112,1.43-.423,4.622-1.386,2.292-.685,8.943-2.665,1.86-.549.426-.122-.329.327-1.327,1.321-6.263,6.267-.643.635-3.373,3.373-.4.4-3.293,3.3-16.284,16.28-8.435-2.041-.487-.118-1.953-.472Z" transform="translate(-422.346 -673.954)"/><path class="g" d="M452.25,691.308l.337-.1.742-.213,3.7-1.112,1.429-.423,4.622-1.386,2.292-.684,8.943-2.666,1.86-.548.427-.122,2.33-.7,1.469-.438.967,2,2.035,4.248,6.558,13.645,3.17,6.637.308.635.009.019,1.786,3.7v.015l.051.111-.386.1-7.087,1.713-.76.186-.319.073-.768.194-5.678,1.37-.1.027-.653.156c-2.008-2.048-6.754-6.693-12.489-12.217-1.028-1-2.111-2.029-3.2-3.076-.939-.918-1.891-1.832-2.871-2.768-2.836-2.738-5.764-5.547-8.612-8.246A.6.6,0,0,1,452.25,691.308Z" transform="translate(-422.346 -673.954)"/><path class="e" d="M465.373,687.387l8.943-2.666,1.86-.548.427-.122,2.33-.7,1.452,2.551,2.261,4.008,7.316,12.9,2.6,4.592,1.08,1.919,2.491,4.4.636,1.131-.763.2L481.3,718.72a14.352,14.352,0,0,0-1.009-1.166c-2.075-2.219-6.9-7-12.632-12.636-1.04-1.009-2.094-2.055-3.187-3.1-.942-.932-1.9-1.858-2.855-2.79-2.738-2.684-5.565-5.406-8.285-8.037l3.7-1.112,1.429-.423,4.622-1.386Z" transform="translate(-422.346 -673.954)"/><path class="n" d="M478.1,720.562l-.715-2.3-11-6.385.32,7.515Z" transform="translate(-422.346 -673.954)"/><path class="n" d="M454.057,720.562l.712-2.3,11-6.385-.318,7.515Z" transform="translate(-422.346 -673.954)"/><path class="g" d="M466.957,699.333l-2.043-2.166c.73.754,1.426,1.474,2.064,2.143,1.214,1.268,2.25,2.353,3.046,3.214.771.811,1.325,1.405,1.629,1.736l-1.633-1.729Z" transform="translate(-422.346 -673.954)"/><path class="g" d="M464.267,696.371c-2.44-2.311-4.907-4.53-7.237-6.491l1.429-.423,6.208,6.518,2.753,2.9.3.324,2.756,2.89,5.462,5.749.138.16a.681.681,0,0,0-.15-.153c-1.7-1.74-3.581-3.658-5.581-5.63-.929-.914-1.891-1.858-2.858-2.784l-.308-.308C466.209,698.2,465.249,697.281,464.267,696.371Z" transform="translate(-422.346 -673.954)"/><path class="g" d="M474.316,684.721l1.86-.549.1.206,1.953,3.681,2.168,4.112,2.4,4.576,2.9,5.125-5.994-9.012-2.507-3.773-2.252-3.389Z" transform="translate(-422.346 -673.954)"/><path class="g" d="M463.081,688.071l2.292-.685,1.708,2.585,1.6,2,2.518,3.118,1.216,1.508-1.43-1.3L468.04,692.6Z" transform="translate(-422.346 -673.954)"/><path class="g" d="M491.076,686.8l4.193-7.1v-1.222l4.447-1.336,3.24.659-4.453,2.037Z" transform="translate(-422.346 -673.954)"/><path class="g" d="M424.811,699.5l5.244-1.568,9.457-2.818.6-.171.569,7.093-.775,1.85-1.22,2.924-2.922,6.99-1.953-.472-2.69-.659-.168-.034-1.007-.251-2.1-5.265-2.1-5.269-.59-1.458Z" transform="translate(-422.346 -673.954)"/><path class="l" d="M430.056,697.929l9.457-2.818.049,6.708-2.415,4.824-.254.529-3.077,6.153-2.691,5.395s-6.866-8.643-7.071-8.487a23.382,23.382,0,0,1-.514-2.581c-.309-1.9-.75-4.649-1.182-7.424l2.21-.643.243-.088Z" transform="translate(-422.346 -673.954)"/><path class="g" d="M490.887,701.271l.189-11.932,16.259,2.749a8.172,8.172,0,0,1-.082,1.318l-4.659,16.732-.934,2.243-4.283,1.028-.2.045-.32.092-.172.026Z" transform="translate(-422.346 -673.954)"/><path class="l" d="M491.076,687.961l15.354,1.378,3.92.366h.009a.231.231,0,0,1-.009.053v.019c-.046.308-.219,1.47-.463,3.084-.864,5.757-2.612,17.372-2.8,17.372-.219-.156-7.072,8.487-7.072,8.487l-.044-.111-2.6-5.2-5.791-11.59Z" transform="translate(-422.346 -673.954)"/><path class="m" d="M422.346,700.228h.021l.032-.011,2.169-.632.232-.1.308-.083.817-.244,4.131-1.233-2.2,9.186-.535,2.258,3.782,9.332c-.393-.492-6.736-8.472-7.05-8.472a24.049,24.049,0,0,1-.518-2.581c-.017-.129-.048-.267-.061-.419-.052-.281-.11-.567-.154-.883-.05-.365-.12-.754-.187-1.154a7.825,7.825,0,0,0-.15-.936,3.311,3.311,0,0,0-.051-.331l-.147-.964c-.038-.22-.069-.434-.1-.666-.014-.087-.014-.171-.032-.255C422.538,701.442,422.457,700.833,422.346,700.228Z" transform="translate(-422.346 -673.954)"/><path class="m" d="M499.977,718.609l3.752-9.236-.278-1.222-3.236-13.493,6.217-5.319,1.369-1.165s2.022-8.2,2.248-8.474c.053-.069.156-.031.339.034v9.187l-.031.784v.072l-.11,2.25-.36.834v.049c-.1.636-.2,1.318-.318,2.072-.529,3.563-1.233,8.181-1.768,11.394-.046.309-.082.6-.136.857a24.149,24.149,0,0,1-.578,3c-.335,0-7.072,8.494-7.072,8.494h-.082Z" transform="translate(-422.346 -673.954)"/><g transform="translate(0.053 20.91)"><path class="e" d="M504.582,702.318c.2-1.519,4.955-7.454,4.955-7.454a.716.716,0,0,1,.032.118c-.529,3.563-1.233,8.181-1.768,11.394a5.011,5.011,0,0,1-1.388.179C505.117,706.376,504.3,704.484,504.582,702.318Z" transform="translate(-422.399 -694.864)"/><path class="e" d="M422.4,700.217l2.169-.632.232-.1.308-.083a9.938,9.938,0,0,1,1.563,2.912c.282,2.166-.535,4.058-1.816,4.237a5.8,5.8,0,0,1-1.534-.205c-.017,0-.03-.015-.05-.015l-.287-2.075-.051-.331-.147-.964Z" transform="translate(-422.399 -694.864)"/></g><g transform="translate(55.11 26.544)"><path class="g" d="M477.939,713.8c-1.913-3.564,2.477-13.3,2.477-13.3s10.07,3.754,11.111,7.542a4.814,4.814,0,0,1-2.572,5.654,5.3,5.3,0,0,1-2.89.065,5.051,5.051,0,0,1-2.021,2.09A4.862,4.862,0,0,1,477.939,713.8Z" transform="translate(-477.456 -700.498)"/><path class="o" d="M478.048,712.544c-1.24-3.221,2.666-10.671,2.666-10.671s8.316,2.1,9.714,5.265a4.215,4.215,0,0,1-2.025,5.585,5.22,5.22,0,0,1-2.941-.023,4.7,4.7,0,0,1-1.942,2.148A4.122,4.122,0,0,1,478.048,712.544Z" transform="translate(-477.456 -700.498)"/><path class="g" d="M481.782,704.26c3.136.986,6.3,2.528,6.813,3.677a2.411,2.411,0,0,1,.073,1.783,1.964,1.964,0,0,1-1.07,1.164,1.269,1.269,0,0,1-.442.057,4.937,4.937,0,0,1-1.138-.16l-1.658-.479-.727,1.576a2.755,2.755,0,0,1-.9,1.131,2.133,2.133,0,0,1-2.817-1.169C479.416,710.53,480.539,707.009,481.782,704.26Z" transform="translate(-477.456 -700.498)"/></g><path class="g" d="M422.346,700.228c.053.3.111.6.156.906.078.487.153.967.221,1.432.025.137.046.266.063.4l.147.964a3.311,3.311,0,0,1,.051.331l.287,2.075c.02,0,.033.015.05.015.044.316.1.6.154.883.013.152.044.29.061.419.064.369.128.72.188,1.028.059.35.12.643.164.883a2.986,2.986,0,0,0,.166.67c.314,0,6.657,7.98,7.05,8.472l-.009-.012c.009,0,.03.027.03.027l5.131-4.8,8.435,2.041,4.538,1.1,5.042,1.225.446.111h.009l-.669,2.166,4.759,2.115v1.475a24.916,24.916,0,0,0-6.587,12.907c0,.076-.019.35-.031.746-.034.076-.085.145-.125.229-.636,1.34-4.154,17.162-4.222,18.373,0,.107.007.191,0,.3v.015c-.312,6.084,4.9,10.98,11.025,11.064,3.495.053,3.794-1.279,7.148-1.294V687.2l-.651.191-2.292.684-4.622,1.386-1.429.423-3.7,1.112-.742.213-.337.1-12.134,3.632-.6.171-9.457,2.818h0l-4.131,1.233-.268.08-.7.213-.154.034-.109.05-.123.046-1.761.506-.408.126h0l-.041.011h-.012Z" transform="translate(-422.346 -673.954)"/></g></g></g><g transform="translate(398.249 610.548)"><path class="e" d="M426.839,617.041c-.271,4.995-10.293,12.582-10.293,12.582s-10.3-7.641-10.3-12.658a6.238,6.238,0,0,1,6.257-6.206c1.925,0,4.084,1.732,4.084,1.732a7.394,7.394,0,0,1,4.03-1.706A6.152,6.152,0,0,1,426.839,617.041Z" transform="translate(-406.249 -610.759)"/><path class="g" d="M420.62,610.785a7.394,7.394,0,0,0-4.03,1.706.306.306,0,0,1-.065-.046v17.163l.021.015s10.022-7.587,10.293-12.582A6.152,6.152,0,0,0,420.62,610.785Z" transform="translate(-406.249 -610.759)"/></g><g transform="translate(521.908 733.257)"><path class="e" d="M516.321,746.744c.269-4.995,10.287-12.578,10.287-12.578s10.3,7.644,10.3,12.647a6.242,6.242,0,0,1-6.257,6.213c-1.933,0-4.085-1.736-4.085-1.736A7.415,7.415,0,0,1,522.541,753,6.154,6.154,0,0,1,516.321,746.744Z" transform="translate(-516.313 -734.166)"/><path class="g" d="M522.541,753a7.415,7.415,0,0,0,4.026-1.713.483.483,0,0,0,.072.053V734.181a.159.159,0,0,1-.031-.015s-10.018,7.583-10.287,12.578A6.154,6.154,0,0,0,522.541,753Z" transform="translate(-516.313 -734.166)"/></g></g></svg>