<svg xmlns="http://www.w3.org/2000/svg" width="154" height="215" viewBox="0 0 154 215"><defs><style>.a{fill:#c9c9c9;}.b,.k{fill:#fff;}.c{fill:#be6148;}.d{fill:#d66142;}.e{fill:#ffd675;}.f{fill:#616161;}.f,.k{opacity:0.2;}.g{fill:#ebebeb;}.h{fill:#ebbe9f;}.i{fill:#9c9c9c;}.j{fill:#333;}.l,.m{stroke:none;}.m{fill:#c4c4c4;}</style></defs><g transform="translate(-392.599 -57.404)"><g transform="translate(392.599 57.404)"><path class="a" d="M409.589,272.4a16.555,16.555,0,0,1-16.523-16.448L392.6,73.508a16.426,16.426,0,0,1,16.51-15.965l119.815.222a16.352,16.352,0,0,1,16.351,16.28V256.1a16.263,16.263,0,0,1-16.3,16.165Z" transform="translate(-392.599 -57.404)"/><g class="b" transform="translate(-392.599 -57.404)"><path class="l" d="M 410.9214172363281 271.77099609375 L 410.901611328125 271.77099609375 C 402.1620178222656 271.77099609375 395.0354919433594 264.7461853027344 395.0154113769531 256.1114807128906 L 394.5589904785156 73.66149139404297 C 394.5447387695313 69.48549652099609 396.16845703125 65.54879760742188 399.1310119628906 62.57613372802734 C 400.58984375 61.11230087280273 402.2930603027344 59.96240997314453 404.1932983398438 59.15838241577148 C 406.1605529785156 58.32602310180664 408.2514038085938 57.90399551391602 410.4077758789063 57.90399551391602 L 410.4274597167969 57.90399551391602 L 530.247802734375 58.12968826293945 C 538.9880981445313 58.14799499511719 546.0989990234375 65.22671508789063 546.0989990234375 73.9093017578125 L 546.0989990234375 255.9615783691406 C 546.0989990234375 264.5898132324219 539.0087280273438 271.6172180175781 530.2936401367188 271.6268615722656 L 410.9214172363281 271.77099609375 Z"/><path class="m" d="M 410.9208374023438 271.27099609375 L 530.2930908203125 271.1268615722656 C 538.7327880859375 271.1175231933594 545.5989990234375 264.3144226074219 545.5989990234375 255.9615783691406 L 545.5989990234375 73.9093017578125 C 545.5989990234375 65.50182342529297 538.7119140625 58.64743804931641 530.246826171875 58.62968826293945 L 410.4280700683594 58.40399551391602 L 410.4077758789063 58.40399551391602 C 408.3187255859375 58.40399551391602 406.2934265136719 58.812744140625 404.3881225585938 59.61888122558594 C 402.5477600097656 60.39757537841797 400.8981323242188 61.51129913330078 399.4851684570313 62.9290771484375 C 396.6171264648438 65.80690765380859 395.0452270507813 69.61766052246094 395.0589904785156 73.66024017333984 L 395.5154113769531 256.1103210449219 C 395.5348510742188 264.4699401855469 402.4370727539063 271.27099609375 410.901611328125 271.27099609375 L 410.9208374023438 271.27099609375 M 410.901611328125 272.27099609375 C 401.8839416503906 272.27099609375 394.5361328125 265.02392578125 394.5154113769531 256.1126708984375 L 394.0589904785156 73.66274261474609 C 394.0284118652344 64.69048309326172 401.3662414550781 57.40398025512695 410.4077758789063 57.40398025512695 C 410.4149475097656 57.40398025512695 410.4208984375 57.40398406982422 410.4280700683594 57.40399551391602 L 530.2487182617188 57.62968826293945 C 539.2606201171875 57.64857864379883 546.5989990234375 64.94779968261719 546.5989990234375 73.9093017578125 L 546.5989990234375 255.9615783691406 C 546.5989990234375 264.8634338378906 539.2903442382813 272.1169128417969 530.294189453125 272.1268615722656 L 410.9220275878906 272.27099609375 C 410.9154052734375 272.27099609375 410.9082336425781 272.27099609375 410.901611328125 272.27099609375 Z"/></g><g transform="translate(16.228 14.038)"><path class="c" d="M422.16,87.135a8.193,8.193,0,0,1-1.375,1.161,8.546,8.546,0,0,1-2.7,1.49l-4.136-7.6-.237.166V89h-4.882V71.681h4.882V81.5a3.383,3.383,0,0,0,2.272-1.732,4.947,4.947,0,0,0,.925-2.673,4.013,4.013,0,0,0-.284-1.561c-.226-.4-.436-.788-.641-1.184,0-.173.538-.666,1.614-1.47q1.315-.993,1.911-1.442a3.32,3.32,0,0,1,.826,1.29,4.322,4.322,0,0,1,.381,1.622,5.284,5.284,0,0,1-.27,1.513,7.416,7.416,0,0,1-.7,1.611,9.312,9.312,0,0,1-1.213,1.585c-.723.745-1.109,1.152-1.155,1.232Z" transform="translate(-416.827 -71.442)"/></g><g transform="translate(134.061 184.773)"><path class="c" d="M520.523,246.085a7.935,7.935,0,0,1,1.378-1.155,8.511,8.511,0,0,1,2.7-1.494l4.142,7.6.244-.164v-6.647h4.873v17.321h-4.873v-9.821a3.332,3.332,0,0,0-2.271,1.727,4.906,4.906,0,0,0-.933,2.678,3.918,3.918,0,0,0,.286,1.561c.227.392.434.788.647,1.182,0,.174-.542.661-1.614,1.466-.883.664-1.529,1.144-1.919,1.447a3.378,3.378,0,0,1-.826-1.289,4.343,4.343,0,0,1-.387-1.624,5.5,5.5,0,0,1,.278-1.511,6.91,6.91,0,0,1,.7-1.614,9.162,9.162,0,0,1,1.209-1.584,16.32,16.32,0,0,0,1.155-1.236Z" transform="translate(-520.523 -243.436)"/></g><g transform="translate(33.325 15.502)"><path class="d" d="M515.191,126.514V147.9l-22.244,6.689-42.428,12.737-4.368,1.315-19.282,5.789V125.35c.135-.065.617-.335,1.369-.768.171-.1.318-.184.5-.285,3.138-1.782,9.56-5.452,15.412-8.789.449-.246.9-.5,1.332-.765.433-.235.869-.484,1.285-.718.433-.248.867-.5,1.285-.733,1.165-.666,2.266-1.283,3.248-1.848.084-.054.156-.088.238-.136.065-.034.133-.083.2-.117.419-.233.813-.465,1.2-.684h.021c.5-.282.948-.552,1.35-.769.215-.129.4-.228.582-.331.133-.068.236-.135.33-.183.106-.068.2-.116.287-.167s.185-.1.268-.147a1.72,1.72,0,0,1,.216-.12.857.857,0,0,1,.137-.07h29.446a1.014,1.014,0,0,1,.2.121,2.046,2.046,0,0,1,.33.177,1.473,1.473,0,0,1,.217.121c.089.051.171.1.274.15.343.2.815.449,1.336.752.4.215.832.466,1.3.733.181.1.368.217.545.318a3.972,3.972,0,0,0,.44.234v.017c.163.1.348.2.533.3.268.146.555.3.816.462.1.052.2.12.284.168.381.2.78.434,1.182.67,4.034,2.3,9.04,5.151,13.243,7.534.423.253.83.484,1.23.7.6.354,1.186.687,1.738,1,.364.2.72.4,1.072.6s.676.386.977.569c.47.265.9.5,1.284.737.2.112.4.226.586.329,1.067.617,1.7.965,1.7.965Z" transform="translate(-426.869 -72.906)"/><g transform="translate(0.008 35.812)"><g transform="translate(36.142 11.441)"><path class="e" d="M471.079,134.129l-8.06-13.97h16.123Zm-6.519-13.074,6.519,11.287,6.517-11.287Z" transform="translate(-463.019 -120.159)"/></g><path class="f" d="M460.255,108.718c-.155.038-29.293,16.662-29.293,16.662l-4.085,12.61v36.44l19.264-5.787,4.371-1.311,11.513-37.793,1.553-5.056,2.241-4.827,5.027-10.737v-.2Z" transform="translate(-426.877 -108.718)"/><path class="g" d="M456.126,108.718a.8.8,0,0,0-.137.072c-.06.031-.134.071-.223.122-.072.044-.164.093-.261.145-.078.043-.175.1-.284.161s-.205.121-.333.185c-.175.1-.367.212-.582.331-.394.221-.848.484-1.357.773a.045.045,0,0,0-.02.006c-.371.215-.782.438-1.2.685-.143.08-.288.162-.438.25-.98.556-2.077,1.172-3.242,1.841-.42.239-.849.479-1.281.727s-.852.481-1.3.736-.876.5-1.325.756c-1.892,1.078-3.838,2.18-5.709,3.255-.565.316-1.127.642-1.675.954-3.269,1.873-6.21,3.546-8.018,4.576-.181.1-.35.194-.51.287-.744.431-1.228.7-1.361.773V174.43l3.434-1.034,1.922-.58,13.691-4.108.217-.065c.64-1.515,1.316-3.128,2.014-4.8,4.617-11.1,10.238-25.143,13.87-34.3,2.273-5.7,3.769-9.493,3.769-9.493l.025-.39.993-10.938Z" transform="translate(-426.877 -108.718)"/><g transform="translate(43.969)"><path class="f" d="M515.191,140.207l-4.464-14.827s-29.139-16.624-29.287-16.662H470.846v.2l7.274,15.564,9.451,32.3,27.62-10.005Z" transform="translate(-470.846 -108.718)"/><path class="g" d="M515.191,126.514V147.9l-22.244,6.689c-3.444-6.506-11.662-23.418-15.278-30.89-1.1-2.248-1.767-3.647-1.767-3.647l-1.02-11.328h10.69a1.014,1.014,0,0,1,.2.121,2.046,2.046,0,0,1,.33.177,1.473,1.473,0,0,1,.217.121c.089.051.171.1.274.15.343.2.815.449,1.336.752.379.232.832.466,1.3.733.181.1.368.217.545.318.133.082.287.165.421.251h.019c.163.1.348.2.533.3.268.146.534.3.816.462.1.052.2.12.284.168.381.217.78.434,1.182.67,4.034,2.3,9.04,5.151,13.243,7.534.423.253.83.484,1.23.7.6.354,1.186.687,1.738,1,.364.2.72.4,1.072.6.329.2.658.386.977.569.47.265.9.5,1.284.737.2.112.4.226.586.329,1.067.617,1.7.965,1.7.965Z" transform="translate(-470.846 -108.718)"/></g></g><g transform="translate(27.167)"><path class="h" d="M487.859,101.505l-.3-3.98-.009-.145-.912-12.193L482.108,82.9l-8.747-4.422-2.416,1.3-2.425-1.3L459.782,82.9l-4.531,2.288-.908,12.193-.01.145-.3,3.98,1.264,11.45,15.625,11.559v.031l.021-.017.021.017v-.031l15.647-11.606Z" transform="translate(-454.035 -72.906)"/><path class="h" d="M470.966,108.71l5.355-.184-4.009-2.519-1.346-.027h-.042l-1.346.027-4.009,2.519,5.355.184v.008h.042Z" transform="translate(-454.035 -72.906)"/><path class="f" d="M474.2,101.05,472,93.424h-2.117l-2.2,7.626,2.2,2.357,1.037.038h.042l1.037-.038Z" transform="translate(-454.035 -72.906)"/><g transform="translate(0.299 9.993)"><path class="i" d="M473.258,91.384l6.891-.868.15-.021.076.046,3.278,1.74-3.577-1,.223.019-6.678,1.883Z" transform="translate(-454.334 -82.899)"/><path class="j" d="M475.674,94.264a1.944,1.944,0,1,0,3.539,0Z" transform="translate(-454.334 -82.899)"/><path class="i" d="M468.625,91.384l-6.889-.868-.152-.021-.065.046-3.289,1.74,3.577-1-.227.019,6.682,1.883Z" transform="translate(-454.334 -82.899)"/><path class="j" d="M466.209,94.264a1.823,1.823,0,0,1,.187.8,1.949,1.949,0,0,1-3.9,0,1.818,1.818,0,0,1,.181-.8Z" transform="translate(-454.334 -82.899)"/><path class="i" d="M487.556,97.525l-.175.129L484.194,86.4l-2.086-3.5,4.527,2.288.911,12.193Z" transform="translate(-454.334 -82.899)"/><path class="i" d="M454.334,97.525l.174.129,3.18-11.25,2.094-3.5-4.53,2.288-.908,12.193Z" transform="translate(-454.334 -82.899)"/></g><path class="e" d="M486.934,80.84v4.65a56.181,56.181,0,0,1-12.9,1.7c-2.89.086-5.695.012-8.235-.129-1.26-.077-2.446-.168-3.552-.265-1.31-.116-2.488-.242-3.508-.362-2.445-.3-3.945-.559-3.945-.559V81.449s15.992-8.543,16.074-8.543c0,.035,2,1.029,4.584,2.305.817.409,1.708.841,2.6,1.283.846.418,1.711.843,2.548,1.252,2.38,1.165,4.556,2.22,5.627,2.745C486.676,80.712,486.934,80.84,486.934,80.84Z" transform="translate(-454.035 -72.906)"/><g transform="translate(4.699 2.305)"><path class="k" d="M478.048,76.494l-15.806,10.3c-1.31-.116-2.488-.242-3.508-.362l16.713-11.221C476.264,75.62,477.155,76.052,478.048,76.494Z" transform="translate(-458.734 -75.211)"/><path class="k" d="M486.223,80.491l-12.194,6.7c-2.89.086-5.695.012-8.235-.129l14.8-9.313C482.976,78.911,485.152,79.966,486.223,80.491Z" transform="translate(-458.734 -75.211)"/></g></g><g transform="translate(2.642 45.416)"><path class="j" d="M439.277,140.931l-.527,3.754,1.85-3.309Z" transform="translate(-429.511 -118.322)"/><path class="j" d="M446.668,140.931l-.535,3.754,1.85-3.309Z" transform="translate(-429.511 -118.322)"/><path class="j" d="M454.057,140.931l-.531,3.754,1.839-3.309Z" transform="translate(-429.511 -118.322)"/><path class="j" d="M430.042,153.028l-.531,3.752,1.846-3.308Z" transform="translate(-429.511 -118.322)"/><path class="j" d="M437.426,153.028l-.527,3.752,1.85-3.308Z" transform="translate(-429.511 -118.322)"/><path class="j" d="M444.814,153.028l-.523,3.752,1.842-3.308Z" transform="translate(-429.511 -118.322)"/><path class="j" d="M432.3,165.215l-.531,3.754,1.847-3.3Z" transform="translate(-429.511 -118.322)"/><path class="j" d="M439.688,165.215l-.533,3.754,1.856-3.3Z" transform="translate(-429.511 -118.322)"/><path class="j" d="M447.59,164.929c-.347.84-.678,1.649-1,2.4l-.1.034.372-2.686Z" transform="translate(-429.511 -118.322)"/><path class="j" d="M452.21,119.833l-.539,3.756,1.854-3.3Z" transform="translate(-429.511 -118.322)"/><path class="j" d="M444.814,118.322l-.523,3.75,1.842-3.309Z" transform="translate(-429.511 -118.322)"/><path class="j" d="M437.927,119.686l-1.034,1.841.191-1.368C437.362,120,437.644,119.84,437.927,119.686Z" transform="translate(-429.511 -118.322)"/><path class="j" d="M431.754,172.816l-.967.289.078-.586Z" transform="translate(-429.511 -118.322)"/><path class="j" d="M430.227,128.732l-.523,3.754,1.841-3.311Z" transform="translate(-429.511 -118.322)"/><path class="j" d="M438.451,128.732l-.54,3.754,1.858-3.311Z" transform="translate(-429.511 -118.322)"/><path class="j" d="M445.833,128.732l-.526,3.754,1.85-3.311Z" transform="translate(-429.511 -118.322)"/><path class="j" d="M453.217,128.732l-.525,3.754,1.848-3.311Z" transform="translate(-429.511 -118.322)"/><path class="j" d="M460.791,121.794l-.527,3.752,1.85-3.308Z" transform="translate(-429.511 -118.322)"/><path class="j" d="M431.053,140.931l-.527,3.754,1.854-3.309Z" transform="translate(-429.511 -118.322)"/></g><g transform="translate(54.493 45.416)"><path class="j" d="M504.2,140.931l.527,3.754-1.842-3.309Z" transform="translate(-481.362 -118.322)"/><path class="j" d="M496.811,140.931l.531,3.754-1.85-3.309Z" transform="translate(-481.362 -118.322)"/><path class="j" d="M489.427,140.931l.524,3.754-1.846-3.309Z" transform="translate(-481.362 -118.322)"/><path class="j" d="M491.277,119.833l.527,3.756-1.854-3.3Z" transform="translate(-481.362 -118.322)"/><path class="j" d="M498.658,118.322l.529,3.75-1.844-3.309Z" transform="translate(-481.362 -118.322)"/><path class="j" d="M505.549,119.686l1.035,1.841-.2-1.368C506.114,120,505.834,119.84,505.549,119.686Z" transform="translate(-481.362 -118.322)"/><path class="j" d="M513.249,128.732l.535,3.754-1.85-3.311Z" transform="translate(-481.362 -118.322)"/><path class="j" d="M505.031,128.732l.529,3.754-1.85-3.311Z" transform="translate(-481.362 -118.322)"/><path class="j" d="M497.645,128.732l.529,3.754-1.856-3.311Z" transform="translate(-481.362 -118.322)"/><path class="j" d="M490.259,128.732l.529,3.754-1.854-3.311Z" transform="translate(-481.362 -118.322)"/><path class="j" d="M482.685,121.794l.535,3.752-1.858-3.308Z" transform="translate(-481.362 -118.322)"/><path class="j" d="M512.423,140.931l.524,3.754-1.85-3.309Z" transform="translate(-481.362 -118.322)"/></g><path class="f" d="M490.21,111.326v.017h-.019c-.568,3.385-7.219,8.652-12.522,12.352-3.619,2.538-6.59,4.337-6.59,4.337s-19.446-10.019-19.541-16.724c.065-.034.133-.083.2-.117.419-.233.813-.465,1.2-.684h.021c.5-.282.948-.552,1.35-.769.215-.129.4-.228.582-.331.133-.068.236-.135.33-.183.106-.068.2-.116.287-.167s.185-.1.268-.147a1.72,1.72,0,0,1,.216-.12.857.857,0,0,1,.137-.07h29.446a1.014,1.014,0,0,1,.2.121,2.046,2.046,0,0,1,.33.177,1.473,1.473,0,0,1,.217.121c.089.051.171.1.274.15.343.2.815.449,1.336.752.4.215.832.466,1.3.733.181.1.368.217.545.318A3.972,3.972,0,0,0,490.21,111.326Z" transform="translate(-426.869 -72.906)"/><path class="i" d="M487.272,111.042c-.514,5.633-16.687,13.889-16.687,13.889s-16.3-8.964-16.186-14.618c.051-3.887,4.614-6.937,10.1-6.828a15.761,15.761,0,0,1,6.5,2.1,14.452,14.452,0,0,1,6.476-1.807C482.976,103.938,487.649,107.159,487.272,111.042Z" transform="translate(-426.869 -72.906)"/><g transform="translate(39.759 33.074)"><path class="h" d="M467.505,105.98l3.525.819,3.5-.819.906,4.649-8.814-.03Z" transform="translate(-466.628 -105.98)"/><rect class="f" width="6.986" height="1.372" transform="translate(1.104 1.736)"/></g><g transform="translate(36.019 59.994)"><path class="f" d="M478.8,138.326c.141,3.878-8.267,9.922-8.267,9.922s-8.18-6.183-7.618-10.54a5.425,5.425,0,0,1,5.366-4.668,5.935,5.935,0,0,1,2.929,1.262,5.184,5.184,0,0,1,2.81-1.131C476.334,133.246,478.715,135.878,478.8,138.326Z" transform="translate(-462.888 -132.9)"/><path class="e" d="M478.145,137.542c-.258,3.525-7.453,8.76-7.453,8.76s-7.175-5.546-7.1-9.087a4.4,4.4,0,0,1,4.5-4.314,5.738,5.738,0,0,1,2.865,1.285,5.245,5.245,0,0,1,2.878-1.154A4.353,4.353,0,0,1,478.145,137.542Z" transform="translate(-462.888 -132.9)"/><path class="f" d="M470.732,143.757c-2.686-2.3-5.18-5.185-5.153-6.508a2.411,2.411,0,0,1,2.471-2.34,3.824,3.824,0,0,1,1.623.813l1.272,1.064,1.275-1.047a3.3,3.3,0,0,1,1.542-.7,2.582,2.582,0,0,1,1.843.843,2,2,0,0,1,.535,1.521C476.047,138.751,473.456,141.553,470.732,143.757Z" transform="translate(-462.888 -132.9)"/></g><path class="d" d="M473.485,77.008c-.09,1.269-2.684,3.156-2.684,3.156s-2.589-2-2.559-3.273a1.584,1.584,0,0,1,1.616-1.559,2.081,2.081,0,0,1,1.036.461,1.9,1.9,0,0,1,1.041-.411A1.562,1.562,0,0,1,473.485,77.008Z" transform="translate(-426.869 -72.906)"/><path class="f" d="M515.191,140.2V126.514l-.339-1.134s-.63-.348-1.7-.965c-.184-.1-.384-.217-.586-.329-.38-.235-.814-.472-1.284-.737-.3-.183-.631-.371-.977-.569s-.708-.4-1.072-.6c-.552-.314-1.138-.647-1.738-1-.339-.185-.7-.386-1.047-.6l-.063-.424c-.274-.155-.554-.319-.839-.473l.32.568c-4.116-2.34-8.934-5.079-12.844-7.31-.4-.236-.8-.47-1.182-.67-.082-.048-.185-.116-.284-.168-.261-.162-.548-.316-.816-.462-.185-.1-.37-.2-.533-.3v-.017a3.972,3.972,0,0,1-.44-.234c-.177-.1-.364-.219-.545-.318-.466-.267-.9-.518-1.3-.733-.264-.15-.512-.29-.736-.415-.043-.179-.1-.35-.159-.526l.827-7.6-.3-3.98-.01-.145-.885-11.821c.088-.031.187-.04.273-.069V80.84s-.258-.128-.711-.349c-1.071-.525-3.247-1.58-5.627-2.745-.837-.409-1.7-.834-2.548-1.252-.893-.442-1.784-.874-2.6-1.283-2.587-1.276-4.584-2.27-4.584-2.305a1.858,1.858,0,0,0-.205.1v88.272l16.757-5.037.156.539,9.457-3.427,18.163-5.457v-7.7Z" transform="translate(-426.869 -72.906)"/><g transform="translate(0 82.118)"><path class="d" d="M515.191,156.283v49.079c-.138.066-.619.335-1.371.767-.164.1-.314.185-.493.286-.4.216-.84.464-1.325.749-.08.064-.165.1-.247.151-.423.215-.87.483-1.337.746-.565.337-1.169.685-1.8,1.037-.633.37-1.3.731-1.983,1.133-.432.246-.891.5-1.337.767-.552.318-1.117.634-1.665.948-1.868,1.068-3.821,2.174-5.722,3.256-.436.264-.9.517-1.316.765h-.021c-.424.236-.864.483-1.285.719s-.864.5-1.285.733c-1.165.664-2.244,1.285-3.228,1.847a1.558,1.558,0,0,1-.257.137,1.046,1.046,0,0,1-.194.118c-.423.236-.823.462-1.2.683h-.01c-.508.282-.958.55-1.357.766a.666.666,0,0,1-.149.085c.014.019,0,.019,0,.019-.163.082-.3.164-.438.23-.064.035-.127.069-.178.1a1.153,1.153,0,0,1-.151.085c-.106.067-.2.115-.287.166a.323.323,0,0,0-.128.085.572.572,0,0,0-.14.063.824.824,0,0,1-.216.118c-.082.052-.133.08-.133.08H456.485a2.131,2.131,0,0,1-.2-.127,2.107,2.107,0,0,1-.331-.189c-.068-.03-.154-.065-.217-.1a1.747,1.747,0,0,0-.274-.165c-.105-.069-.249-.132-.379-.216-.067-.03-.135-.068-.2-.1l-.021-.019c-.232-.129-.479-.264-.729-.412-.4-.218-.832-.469-1.3-.735-.185-.1-.363-.216-.548-.316a2.933,2.933,0,0,0-.44-.236v-.019a4.32,4.32,0,0,0-.527-.282c-.267-.166-.554-.316-.822-.48-.1-.055-.194-.12-.284-.168-.381-.186-.781-.435-1.182-.667-2.016-1.148-4.266-2.437-6.549-3.737-.955-.53-1.922-1.082-2.861-1.616-.278-.168-.544-.318-.811-.471-.9-.513-1.768-1.013-2.619-1.483-.137-.082-.266-.163-.4-.232-.041-.032-.114-.064-.163-.1h-.019l-1.047-.6c-.6-.353-1.186-.682-1.738-1-.364-.2-.712-.4-1.068-.6-.329-.2-.659-.383-.981-.568-.462-.264-.894-.5-1.281-.729-.2-.118-.4-.235-.586-.334-1.07-.617-1.7-.97-1.7-.97l-.337-1.13V182.815l18.164-5.455.1-.035.115-.03,3.875-1.169,5.513-1.648h.017v-.017l16.759-5.02,20.135-6.056h.013l4.369-1.317.223-.064,13.685-4.1,1.919-.586Z" transform="translate(-426.869 -156.283)"/><g transform="translate(0 0.008)"><g transform="translate(36.058)"><g transform="translate(0 40.299)"><path class="e" d="M465.541,209.664l.238.484.181.414h10.361c.03-.085.082-.23.145-.414a3.526,3.526,0,0,0,.2-.484Zm12.074-1.565-.181-.356-1.233-2.1v-.02l-4.79-8.286-.414-.714-.018-.034-.03.065-5.585,9.672c0,.017,0,.017-.021.017l-.685,1.2-.044.1-1.687,2.916h16.122Zm-13.157,1.565.6-1.034.069-.1v-.017l1.915-3.318,3.936-6.821.432.75,3.218,5.572v.014L477,208.8l.17.282.171.3.158.288Zm1.083,0,.238.484.181.414h10.361c.03-.085.082-.23.145-.414a3.526,3.526,0,0,0,.2-.484Z" transform="translate(-462.927 -196.59)"/></g><path class="f" d="M481.815,222c.152-.036,29.292-16.664,29.292-16.664l4.084-12.607V156.291l-19.274,5.787-4.362,1.313-11.52,37.781-1.542,5.064-2.25,4.825-5.02,10.737v.2Z" transform="translate(-462.927 -156.291)"/><path class="g" d="M485.942,222s.053-.026.135-.07c.061-.034.126-.074.226-.12a1.709,1.709,0,0,1,.259-.145,2.84,2.84,0,0,1,.278-.158c.1-.063.213-.124.335-.194.179-.1.371-.208.587-.331q.59-.332,1.351-.769c.015,0,.019-.008.019-.008.381-.215.779-.437,1.2-.683.141-.08.286-.162.438-.255.98-.553,2.077-1.171,3.242-1.837.419-.232.843-.482,1.275-.733s.861-.476,1.3-.729c.425-.248.878-.5,1.329-.762,1.879-1.072,3.832-2.179,5.705-3.259.564-.308,1.127-.63,1.673-.944,3.273-1.871,6.2-3.544,8.028-4.574.167-.1.339-.2.5-.291.75-.427,1.229-.7,1.367-.775V156.291l-3.433,1.032-1.926.574-13.693,4.11-.222.071c-.636,1.513-1.3,3.127-2.005,4.8-4.614,11.1-10.238,25.147-13.877,34.294-2.263,5.707-3.766,9.505-3.766,9.505l-.026.384L475.255,222Z" transform="translate(-462.927 -156.291)"/></g><g transform="translate(0 18.187)"><path class="f" d="M471.211,221.8v.2H460.624c-.031-.011-2.189-1.233-5.3-3a3.068,3.068,0,0,0-.333-.183c-.74-.434-1.5-.87-2.322-1.336-2.784-1.582-6-3.419-9.054-5.149-.085-.055-.167-.1-.249-.151-6.354-3.622-12.023-6.857-12.023-6.857l-4.474-14.806V183.95l18.164-6.59.1-.035.115-.03,3.875-1.169,5.513-1.648h.017l9.189,31.385.1.365.38.834.29.584.445.984.318.647.164.387.238.484.181.414.236.488,4.218,9.055.716,1.515Z" transform="translate(-426.869 -174.478)"/><path class="g" d="M467.176,222H456.485a2.131,2.131,0,0,1-.2-.127,2.107,2.107,0,0,1-.331-.189c-.068-.03-.154-.065-.217-.1a1.747,1.747,0,0,0-.274-.165c-.105-.069-.249-.132-.379-.216-.067-.03-.135-.068-.2-.1l-.021-.019c-.232-.129-.479-.264-.729-.412-.4-.218-.832-.469-1.3-.735-.185-.1-.363-.216-.548-.316-.133-.086-.288-.172-.419-.255h-.021a4.32,4.32,0,0,0-.527-.282c-.267-.166-.554-.316-.822-.48-.1-.055-.194-.12-.284-.168-.381-.186-.781-.435-1.182-.667-2.016-1.148-4.266-2.437-6.549-3.737-.955-.53-1.922-1.082-2.861-1.616-.278-.168-.544-.318-.811-.471-.9-.513-1.768-1.013-2.619-1.483-.137-.082-.266-.163-.4-.232-.041-.032-.114-.064-.163-.1h-.019l-1.047-.6c-.6-.353-1.186-.682-1.738-1-.364-.2-.712-.4-1.068-.6-.329-.2-.659-.383-.981-.568-.462-.264-.894-.5-1.281-.729-.2-.118-.4-.235-.586-.334-1.07-.617-1.7-.97-1.7-.97l-.337-1.13V182.815l18.164-5.455.1-.035.115-.03,3.875-1.169c3.261,6.189,10.868,21.817,14.719,29.737.206.4.385.78.556,1.149.076.185.179.368.261.533.171.352.317.668.47.969v.017c.133.248.249.484.348.7a3.3,3.3,0,0,0,.219.432c.063.165.133.3.183.415.116.234.184.384.236.483.03.069.044.107.044.107l.038.381.816,9.034Z" transform="translate(-426.869 -174.478)"/></g></g><g transform="translate(27.342 49.893)"><path class="h" d="M454.211,229.21l.3,3.984.009.145.912,12.189,4.527,2.294,8.745,4.42,2.419-1.3,2.414,1.3,8.745-4.42,4.534-2.294.9-12.189.013-.145.3-3.984-1.257-11.446L471.139,206.2v-.028h0l-.015.013-.025-.013h0v.028l-15.653,11.6Z" transform="translate(-454.211 -206.176)"/><path class="h" d="M471.1,222.007l-5.353.184,4.007,2.517s.64.017,1.346.025h.04c.71-.008,1.352-.025,1.352-.025l4-2.517-5.35-.184V222h-.04Z" transform="translate(-454.211 -206.176)"/><path class="f" d="M467.865,229.665l2.189,7.628h2.134l2.191-7.628-2.191-2.353-1.049-.038v0l-.015,0-.025,0v0l-1.045.038Z" transform="translate(-454.211 -206.176)"/><g transform="translate(0.301 26.893)"><path class="i" d="M468.807,239.335l-6.895.866-.147.023-.08-.044-3.278-1.74,3.577,1-.219-.017,6.682-1.883Z" transform="translate(-454.512 -233.069)"/><path class="j" d="M466.384,236.457a1.828,1.828,0,0,0,.183-.805,1.943,1.943,0,1,0-3.712.805Z" transform="translate(-454.512 -233.069)"/><path class="i" d="M473.443,239.335l6.887.866.149.023.078-.044,3.28-1.74-3.578,1,.227-.017-6.688-1.883Z" transform="translate(-454.512 -233.069)"/><path class="j" d="M475.853,236.457a2.025,2.025,0,0,1-.179-.805,1.947,1.947,0,0,1,3.894,0,1.826,1.826,0,0,1-.18.805Z" transform="translate(-454.512 -233.069)"/><path class="i" d="M454.512,233.194c.11-.085.171-.125.171-.125l3.186,11.246,2.09,3.507-4.526-2.294-.912-12.189Z" transform="translate(-454.512 -233.069)"/><path class="i" d="M487.735,233.194c-.114-.085-.175-.125-.175-.125l-3.187,11.246-2.09,3.507,4.534-2.294.9-12.189Z" transform="translate(-454.512 -233.069)"/></g><path class="e" d="M455.128,249.878v-4.657a56.146,56.146,0,0,1,12.908-1.692c2.888-.086,5.694-.015,8.233.133,1.259.076,2.45.166,3.547.261,1.31.114,2.492.244,3.52.368,2.442.291,3.936.553,3.936.553v4.424s-15.988,8.544-16.07,8.544c0-.038-2-1.032-4.582-2.3-.815-.411-1.706-.845-2.6-1.285-.853-.417-1.717-.843-2.553-1.254-2.381-1.161-4.553-2.22-5.629-2.743Z" transform="translate(-454.211 -206.176)"/><g transform="translate(1.627 37.315)"><path class="k" d="M464.02,254.225l15.8-10.3c1.31.114,2.492.244,3.52.368L466.62,255.51C465.8,255.1,464.914,254.665,464.02,254.225Z" transform="translate(-455.838 -243.492)"/><path class="k" d="M455.838,250.228l12.2-6.7c2.888-.086,5.694-.015,8.233.133l-14.8,9.309C459.086,251.81,456.914,250.751,455.838,250.228Z" transform="translate(-455.838 -243.492)"/></g></g><g transform="translate(53.084 1.335)"><path class="j" d="M502.785,189.792l.54-3.752-1.858,3.306Z" transform="translate(-479.953 -157.618)"/><path class="j" d="M495.4,189.792l.529-3.752-1.85,3.306Z" transform="translate(-479.953 -157.618)"/><path class="j" d="M488.009,189.792l.537-3.752-1.852,3.306Z" transform="translate(-479.953 -157.618)"/><path class="j" d="M512.021,177.693l.535-3.752-1.85,3.31Z" transform="translate(-479.953 -157.618)"/><path class="j" d="M504.635,177.693l.529-3.752-1.839,3.31Z" transform="translate(-479.953 -157.618)"/><path class="j" d="M497.249,177.693l.535-3.752-1.856,3.31Z" transform="translate(-479.953 -157.618)"/><path class="j" d="M509.771,165.5l.523-3.748-1.85,3.3Z" transform="translate(-479.953 -157.618)"/><path class="j" d="M502.374,165.5l.533-3.748-1.85,3.3Z" transform="translate(-479.953 -157.618)"/><path class="j" d="M494.468,165.791c.346-.845.685-1.646,1-2.4l.114-.034-.381,2.68Z" transform="translate(-479.953 -157.618)"/><path class="j" d="M489.859,210.884l.535-3.757-1.849,3.306Z" transform="translate(-479.953 -157.618)"/><path class="j" d="M497.249,212.392l.535-3.747-1.856,3.3Z" transform="translate(-479.953 -157.618)"/><path class="j" d="M504.14,211.029l1.036-1.837-.2,1.365C504.706,210.713,504.43,210.877,504.14,211.029Z" transform="translate(-479.953 -157.618)"/><path class="j" d="M510.315,157.9l.967-.283-.09.582Z" transform="translate(-479.953 -157.618)"/><path class="j" d="M511.837,201.983l.527-3.748-1.85,3.308Z" transform="translate(-479.953 -157.618)"/><path class="j" d="M503.617,201.983l.535-3.748-1.85,3.308Z" transform="translate(-479.953 -157.618)"/><path class="j" d="M496.233,201.983l.535-3.748-1.85,3.308Z" transform="translate(-479.953 -157.618)"/><path class="j" d="M488.845,201.983l.531-3.748-1.846,3.308Z" transform="translate(-479.953 -157.618)"/><path class="j" d="M481.276,208.929l.527-3.756-1.85,3.31Z" transform="translate(-479.953 -157.618)"/><path class="j" d="M511.009,189.792l.523-3.752-1.844,3.306Z" transform="translate(-479.953 -157.618)"/></g><g transform="translate(1.409 29.757)"><path class="j" d="M437.868,189.792l-.533-3.752,1.846,3.306Z" transform="translate(-428.278 -186.04)"/><path class="j" d="M445.256,189.792l-.535-3.752,1.85,3.306Z" transform="translate(-428.278 -186.04)"/><path class="j" d="M452.648,189.792l-.535-3.752,1.845,3.306Z" transform="translate(-428.278 -186.04)"/><path class="j" d="M450.79,210.884l-.527-3.757,1.85,3.306Z" transform="translate(-428.278 -186.04)"/><path class="j" d="M443.406,212.392l-.535-3.747,1.85,3.3Z" transform="translate(-428.278 -186.04)"/><path class="j" d="M436.513,211.029l-1.028-1.837.19,1.365C435.947,210.713,436.235,210.877,436.513,211.029Z" transform="translate(-428.278 -186.04)"/><path class="j" d="M428.813,201.983l-.535-3.748,1.862,3.308Z" transform="translate(-428.278 -186.04)"/><path class="j" d="M437.033,201.983l-.531-3.748,1.85,3.308Z" transform="translate(-428.278 -186.04)"/><path class="j" d="M444.424,201.983l-.535-3.748,1.851,3.308Z" transform="translate(-428.278 -186.04)"/><path class="j" d="M451.808,201.983l-.535-3.748,1.85,3.308Z" transform="translate(-428.278 -186.04)"/><path class="j" d="M459.373,208.929l-.527-3.756,1.854,3.31Z" transform="translate(-428.278 -186.04)"/><path class="j" d="M429.652,189.792l-.535-3.752,1.85,3.306Z" transform="translate(-428.278 -186.04)"/></g><path class="f" d="M451.86,219.4v-.019h.017c.569-3.385,7.22-8.654,12.52-12.358,3.618-2.537,6.59-4.337,6.59-4.337s19.447,10.023,19.544,16.728c-.066.03-.135.081-.2.119-.42.229-.818.465-1.2.682h-.015c-.5.282-.95.552-1.351.763-.216.137-.4.238-.583.337-.137.065-.236.133-.339.183s-.2.118-.278.163a2.229,2.229,0,0,0-.266.157c-.086.049-.149.08-.219.114a.716.716,0,0,1-.132.065H456.493a.851.851,0,0,1-.2-.116,1.9,1.9,0,0,1-.339-.185,1.97,1.97,0,0,1-.213-.111,1.746,1.746,0,0,0-.267-.15c-.35-.2-.816-.457-1.336-.754-.4-.219-.836-.466-1.3-.733-.189-.1-.37-.221-.554-.316A2.891,2.891,0,0,0,451.86,219.4Z" transform="translate(-426.869 -156.283)"/><path class="i" d="M454.789,219.675c.52-5.633,16.691-13.893,16.691-13.893s16.3,8.972,16.19,14.626c-.059,3.883-4.622,6.937-10.112,6.824a15.819,15.819,0,0,1-6.5-2.1,14.38,14.38,0,0,1-6.476,1.809C459.086,226.779,454.418,223.562,454.789,219.675Z" transform="translate(-426.869 -156.283)"/><g transform="translate(39.759 63.801)"><path class="h" d="M474.556,224.733l-3.525-.813-3.508.813-.895-4.649,8.81.032Z" transform="translate(-466.628 -220.084)"/><rect class="f" width="6.979" height="1.376" transform="translate(0.719 1.544)"/></g><g transform="translate(36.395 26.19)"><path class="f" d="M463.266,192.393c-.145-3.884,8.269-9.92,8.269-9.92s8.171,6.181,7.617,10.54a5.415,5.415,0,0,1-5.367,4.66,5.9,5.9,0,0,1-2.929-1.258,5.145,5.145,0,0,1-2.816,1.131C465.733,197.471,463.348,194.843,463.266,192.393Z" transform="translate(-463.264 -182.473)"/><path class="e" d="M463.917,193.177c.257-3.533,7.453-8.762,7.453-8.762s7.182,5.545,7.113,9.089a4.413,4.413,0,0,1-4.5,4.312,5.715,5.715,0,0,1-2.872-1.289,5.207,5.207,0,0,1-2.867,1.16A4.355,4.355,0,0,1,463.917,193.177Z" transform="translate(-463.264 -182.473)"/><path class="f" d="M471.335,186.965c2.677,2.3,5.174,5.182,5.144,6.5a2.4,2.4,0,0,1-2.467,2.347,3.873,3.873,0,0,1-1.618-.816l-1.274-1.06-1.275,1.048a3.333,3.333,0,0,1-1.538.7,2.633,2.633,0,0,1-1.851-.843,2.05,2.05,0,0,1-.538-1.521C466.015,191.964,468.611,189.164,471.335,186.965Z" transform="translate(-463.264 -182.473)"/></g><path class="d" d="M468.581,253.713c.091-1.275,2.682-3.16,2.682-3.16s2.6,2.005,2.57,3.28a1.6,1.6,0,0,1-1.632,1.554,2.042,2.042,0,0,1-1.029-.465,1.9,1.9,0,0,1-1.04.419A1.575,1.575,0,0,1,468.581,253.713Z" transform="translate(-426.869 -156.283)"/><path class="f" d="M454.635,174.478l-5.513,1.648-3.875,1.169-.115.03-.1.035-18.164,5.455V204.2l.337,1.13s.63.353,1.7.97c.184.1.386.216.586.334.387.231.819.465,1.281.729.322.185.652.372.981.568.356.2.7.4,1.068.6.552.318,1.138.647,1.738,1l1.047.6.068.432c.269.151.548.317.838.471l-.32-.57c.851.47,1.717.97,2.619,1.483.267.153.533.3.811.471.939.534,1.906,1.086,2.861,1.616,2.283,1.3,4.533,2.589,6.549,3.737.4.232.8.481,1.182.667.09.048.185.113.284.168.268.164.555.314.822.48a4.32,4.32,0,0,1,.527.282v.019a2.933,2.933,0,0,1,.44.236c.185.1.363.217.548.316.47.266.9.517,1.3.735.25.148.5.283.729.412a1.428,1.428,0,0,1,.055.172c0,.011.018.011.018.032a1.319,1.319,0,0,0,.1.331l-.832,7.59.318,3.984v.151l.885,11.8v.019c-.082.015-.188.032-.268.048v4.652s.247.133.7.352c1.089.535,3.252,1.584,5.637,2.753.832.417,1.7.835,2.557,1.252.875.431,1.766.878,2.6,1.285,2.583,1.264,4.583,2.264,4.583,2.3,0,0,.073-.034.2-.1V169.441l-16.759,5.037v-.017Z" transform="translate(-426.869 -156.283)"/></g></g></g><g transform="translate(398.095 94.642)"><path class="d" d="M426.675,101.162c-.261,4.992-10.291,12.583-10.291,12.583S406.1,106.1,406.1,101.09a6.233,6.233,0,0,1,6.249-6.209c1.931,0,4.09,1.73,4.09,1.73a7.388,7.388,0,0,1,4.022-1.706A6.15,6.15,0,0,1,426.675,101.162Z" transform="translate(-406.095 -94.881)"/><path class="f" d="M420.456,94.9a7.388,7.388,0,0,0-4.022,1.706.325.325,0,0,1-.073-.048V113.73c.021.008.023.015.023.015s10.03-7.591,10.291-12.583A6.15,6.15,0,0,0,420.456,94.9Z" transform="translate(-406.095 -94.881)"/></g><g transform="translate(522.292 217.259)"><path class="d" d="M516.163,230.87c.261-5,10.284-12.585,10.284-12.585s10.3,7.645,10.3,12.656a6.233,6.233,0,0,1-6.245,6.211c-1.933,0-4.086-1.738-4.086-1.738a7.361,7.361,0,0,1-4.028,1.707A6.146,6.146,0,0,1,516.163,230.87Z" transform="translate(-516.155 -218.285)"/><path class="f" d="M522.384,237.121a7.361,7.361,0,0,0,4.028-1.707l.065.053V218.3a.066.066,0,0,0-.03-.018s-10.023,7.588-10.284,12.585A6.146,6.146,0,0,0,522.384,237.121Z" transform="translate(-516.155 -218.285)"/></g></g></svg>