<svg xmlns="http://www.w3.org/2000/svg" width="154" height="215" viewBox="0 0 154 215"><defs><style>.a{fill:#c9c9c9;}.b{fill:#fff;}.c{fill:#be6148;}.d{fill:#d66142;}.e{fill:#616161;opacity:0.2;}.f,.g{stroke:none;}.g{fill:#c4c4c4;}</style></defs><g transform="translate(-1339.664 -311.746)"><g transform="translate(1339.664 311.746)"><path class="a" d="M1356.688,526.746a16.412,16.412,0,0,1-16.567-16.165l-.457-182.566a16.371,16.371,0,0,1,16.533-16.268l120.938.216a16.452,16.452,0,0,1,16.5,16.3v182.17A16.349,16.349,0,0,1,1477.18,526.6Z" transform="translate(-1339.664 -311.746)"/><g class="b" transform="translate(-1339.664 -311.746)"><path class="f" d="M 1477.3671875 525.7849731445313 L 1358.210693359375 525.7849731445313 C 1349.500366210938 525.7849731445313 1342.413940429688 518.7408447265625 1342.413940429688 510.0823974609375 L 1342.413940429688 327.9516296386719 C 1342.413940429688 319.2948303222656 1349.500366210938 312.2520141601563 1358.210693359375 312.2520141601563 L 1477.3671875 312.2520141601563 C 1486.077514648438 312.2520141601563 1493.163940429688 319.2948303222656 1493.163940429688 327.9516296386719 L 1493.163940429688 510.0823974609375 C 1493.163940429688 518.7408447265625 1486.077514648438 525.7849731445313 1477.3671875 525.7849731445313 Z"/><path class="g" d="M 1477.3671875 525.2849731445313 C 1485.801879882813 525.2849731445313 1492.663940429688 518.4651489257813 1492.663940429688 510.0823974609375 L 1492.663940429688 327.9516296386719 C 1492.663940429688 319.570556640625 1485.801879882813 312.7520141601563 1477.3671875 312.7520141601563 L 1358.210693359375 312.7520141601563 C 1349.776000976563 312.7520141601563 1342.913940429688 319.570556640625 1342.913940429688 327.9516296386719 L 1342.913940429688 510.0823974609375 C 1342.913940429688 518.4651489257813 1349.776000976563 525.2849731445313 1358.210693359375 525.2849731445313 L 1477.3671875 525.2849731445313 M 1477.3671875 526.2849731445313 L 1358.210693359375 526.2849731445313 C 1349.215942382813 526.2849731445313 1341.913940429688 519.020751953125 1341.913940429688 510.0823974609375 L 1341.913940429688 327.9516296386719 C 1341.913940429688 319.0192565917969 1349.215942382813 311.7520141601563 1358.210693359375 311.7520141601563 L 1477.3671875 311.7520141601563 C 1486.354125976563 311.7520141601563 1493.663940429688 319.0192565917969 1493.663940429688 327.9516296386719 L 1493.663940429688 510.0823974609375 C 1493.663940429688 519.020751953125 1486.354125976563 526.2849731445313 1477.3671875 526.2849731445313 Z"/></g><g transform="translate(9.994 13.63)"><path class="c" d="M1361.076,336.789a6.377,6.377,0,0,1-1.215,3.1,6.2,6.2,0,0,1-2.364,2.444,12.714,12.714,0,0,1-1.386.582,2.47,2.47,0,0,1-.754.16h-.685a4.586,4.586,0,0,1-3.838-1.749,5.9,5.9,0,0,1-1.176-3.739,12,12,0,0,1,.574-3.4,12.392,12.392,0,0,1,1.466-3.255,24.613,24.613,0,0,1,1.645-2.338c.137-.156.777-.7,1.873-1.645a13.594,13.594,0,0,1,1.786-1.36,1.4,1.4,0,0,1,.693-.214.4.4,0,0,1,.434.45,7.161,7.161,0,0,1-1.23,1.262,15.838,15.838,0,0,0-1.774,2.042,9.808,9.808,0,0,0-.9,1.618,6.059,6.059,0,0,0-.681,1.809.28.28,0,0,0,.091.156.265.265,0,0,0,.179.082c.411-.217.849-.444,1.314-.663a5.361,5.361,0,0,1,2-.67,3.483,3.483,0,0,1,2.467,1.481A5.707,5.707,0,0,1,1361.076,336.789Zm-3.435,2.569a5.065,5.065,0,0,0-1.07-3.022,2.865,2.865,0,0,0-2.219-1.489,1.562,1.562,0,0,0-.769.177.6.6,0,0,0-.362.582,4.834,4.834,0,0,0,1.211,2.976,3.641,3.641,0,0,0,2.791,1.635.347.347,0,0,0,.315-.164A1.611,1.611,0,0,0,1357.641,339.358Z" transform="translate(-1349.658 -325.376)"/></g><g transform="translate(135.863 185.256)"><path class="c" d="M1476.712,505.453a6.449,6.449,0,0,1,1.2-3.089,6.329,6.329,0,0,1,2.376-2.452c.616-.284,1.077-.478,1.378-.584a2.659,2.659,0,0,1,.761-.149h.686a4.558,4.558,0,0,1,3.837,1.74,5.923,5.923,0,0,1,1.18,3.742,11.915,11.915,0,0,1-.582,3.4,12.036,12.036,0,0,1-1.473,3.254,26.822,26.822,0,0,1-1.634,2.345c-.144.158-.761.7-1.884,1.645a13.446,13.446,0,0,1-1.775,1.355,1.416,1.416,0,0,1-.692.221c-.286,0-.419-.152-.419-.461a7.578,7.578,0,0,1,1.2-1.252,15.386,15.386,0,0,0,1.782-2.049,8.3,8.3,0,0,0,.906-1.618,5.672,5.672,0,0,0,.678-1.81.279.279,0,0,0-.08-.149.258.258,0,0,0-.187-.081c-.411.217-.841.435-1.317.664a5.559,5.559,0,0,1-1.991.666,3.48,3.48,0,0,1-2.467-1.475A5.687,5.687,0,0,1,1476.712,505.453Zm3.418-2.569a5.188,5.188,0,0,0,1.07,3.038,2.9,2.9,0,0,0,2.22,1.482,1.742,1.742,0,0,0,.78-.173.622.622,0,0,0,.366-.584,4.83,4.83,0,0,0-1.215-2.977,3.648,3.648,0,0,0-2.775-1.641.341.341,0,0,0-.328.171A1.341,1.341,0,0,0,1480.13,502.884Z" transform="translate(-1476.712 -499.179)"/></g></g><g transform="translate(1349.109 349.842)"><path class="d" d="M1360.287,353.66c-.137,2.72-5.585,6.847-5.585,6.847s-5.593-4.159-5.593-6.881a3.385,3.385,0,0,1,3.4-3.379,4.427,4.427,0,0,1,2.208.946,4,4,0,0,1,2.193-.929A3.323,3.323,0,0,1,1360.287,353.66Z" transform="translate(-1349.109 -350.247)"/><path class="e" d="M1356.914,350.264a4,4,0,0,0-2.193.929.081.081,0,0,0-.042-.025v9.324c.023.006.023.015.023.015s5.448-4.127,5.585-6.847A3.323,3.323,0,0,0,1356.914,350.264Z" transform="translate(-1349.109 -350.247)"/></g><g transform="translate(1476.18 481.963)"><path class="d" d="M1477.37,490.754c.141-2.766,5.7-6.979,5.7-6.979s5.71,4.239,5.71,7.025a3.464,3.464,0,0,1-3.468,3.445,4.5,4.5,0,0,1-2.269-.967,4.012,4.012,0,0,1-2.235.946A3.4,3.4,0,0,1,1477.37,490.754Z" transform="translate(-1477.365 -483.775)"/><path class="e" d="M1480.808,494.224a4.012,4.012,0,0,0,2.235-.946.222.222,0,0,1,.042.028v-9.527l-.015,0s-5.559,4.213-5.7,6.979A3.4,3.4,0,0,0,1480.808,494.224Z" transform="translate(-1477.365 -483.775)"/></g><g transform="translate(1372.338 333.216)"><path class="d" d="M1372.668,342.931c.412,7.729,15.892,19.467,15.892,19.467s15.933-11.826,15.933-19.562a9.654,9.654,0,0,0-9.667-9.62c-2.981,0-6.312,2.7-6.312,2.7s-3.168-2.7-6.244-2.652C1376.959,333.33,1372.383,337.609,1372.668,342.931Z" transform="translate(-1372.655 -333.216)"/><path class="e" d="M1382.27,333.261c3.076-.045,6.244,2.652,6.244,2.652s.042-.034.1-.088v26.538a.119.119,0,0,1-.057.035s-15.48-11.738-15.892-19.467C1372.383,337.609,1376.959,333.33,1382.27,333.261Z" transform="translate(-1372.655 -333.216)"/></g><g transform="translate(1429.118 333.216)"><path class="d" d="M1461.825,342.931c-.411,7.729-15.906,19.467-15.906,19.467s-15.933-11.826-15.933-19.562a9.654,9.654,0,0,1,9.678-9.62c2.988,0,6.312,2.7,6.312,2.7s3.152-2.7,6.236-2.652C1457.535,333.33,1462.115,337.609,1461.825,342.931Z" transform="translate(-1429.986 -333.216)"/><path class="e" d="M1452.212,333.261c-3.084-.045-6.236,2.652-6.236,2.652s-.042-.034-.1-.088v26.538a.166.166,0,0,0,.046.035s15.495-11.738,15.906-19.467C1462.115,337.609,1457.535,333.33,1452.212,333.261Z" transform="translate(-1429.986 -333.216)"/></g><g transform="translate(1372.338 474.252)"><path class="d" d="M1372.668,495.89c.412-7.723,15.892-19.461,15.892-19.461s15.933,11.825,15.933,19.563a9.654,9.654,0,0,1-9.667,9.619c-2.981,0-6.312-2.7-6.312-2.7s-3.168,2.7-6.244,2.648C1376.959,505.495,1372.383,501.218,1372.668,495.89Z" transform="translate(-1372.655 -476.429)"/><path class="e" d="M1382.27,505.562c3.076.049,6.244-2.648,6.244-2.648s.042.032.1.086V476.463a.146.146,0,0,0-.057-.034s-15.48,11.738-15.892,19.461C1372.383,501.218,1376.959,505.495,1382.27,505.562Z" transform="translate(-1372.655 -476.429)"/></g><g transform="translate(1429.118 474.252)"><path class="d" d="M1461.825,495.89c-.411-7.723-15.906-19.461-15.906-19.461s-15.933,11.825-15.933,19.563a9.654,9.654,0,0,0,9.678,9.619c2.988,0,6.312-2.7,6.312-2.7s3.152,2.7,6.236,2.648C1457.535,505.495,1462.115,501.218,1461.825,495.89Z" transform="translate(-1429.986 -476.429)"/><path class="e" d="M1452.212,505.562c-3.084.049-6.236-2.648-6.236-2.648s-.042.032-.1.086V476.463a.263.263,0,0,1,.046-.034s15.495,11.738,15.906,19.461C1462.115,501.218,1457.535,505.495,1452.212,505.562Z" transform="translate(-1429.986 -476.429)"/></g><g transform="translate(1372.338 403.738)"><path class="d" d="M1372.668,424.286c.412-7.723,15.892-19.47,15.892-19.47s15.933,11.834,15.933,19.572a9.655,9.655,0,0,1-9.667,9.614c-2.981,0-6.312-2.694-6.312-2.694s-3.168,2.694-6.244,2.65C1376.959,433.891,1372.383,429.61,1372.668,424.286Z" transform="translate(-1372.655 -404.816)"/><path class="e" d="M1382.27,433.958c3.076.044,6.244-2.65,6.244-2.65s.042.036.1.08V404.852a.358.358,0,0,0-.057-.036s-15.48,11.747-15.892,19.47C1372.383,429.61,1376.959,433.891,1382.27,433.958Z" transform="translate(-1372.655 -404.816)"/></g><g transform="translate(1429.118 403.738)"><path class="d" d="M1461.825,424.286c-.411-7.723-15.906-19.47-15.906-19.47s-15.933,11.834-15.933,19.572a9.655,9.655,0,0,0,9.678,9.614c2.988,0,6.312-2.694,6.312-2.694s3.152,2.694,6.236,2.65C1457.535,433.891,1462.115,429.61,1461.825,424.286Z" transform="translate(-1429.986 -404.816)"/><path class="e" d="M1452.212,433.958c-3.084.044-6.236-2.65-6.236-2.65s-.042.036-.1.08V404.852a.546.546,0,0,0,.046-.036s15.495,11.747,15.906,19.47C1462.115,429.61,1457.535,433.891,1452.212,433.958Z" transform="translate(-1429.986 -404.816)"/></g></g></svg>