<svg xmlns="http://www.w3.org/2000/svg" width="154" height="215" viewBox="0 0 154 215"><defs><style>.a{fill:#c9c9c9;}.b{fill:#fff;}.c{fill:#be6148;}.d{fill:#d66142;}.e{fill:#616161;opacity:0.2;}.f,.g{stroke:none;}.g{fill:#c4c4c4;}</style></defs><g transform="translate(-1339.664 -54.528)"><g transform="translate(1339.664 54.528)"><path class="a" d="M1356.688,269.528a16.4,16.4,0,0,1-16.552-16.175l-.472-182.559A16.38,16.38,0,0,1,1356.2,54.528l120.942.223a16.449,16.449,0,0,1,16.5,16.3V253.212a16.346,16.346,0,0,1-16.442,16.173Z" transform="translate(-1339.664 -54.528)"/><g class="b" transform="translate(-1339.664 -54.528)"><path class="f" d="M 1477.367309570313 268.5670166015625 L 1358.210693359375 268.5670166015625 C 1349.495971679688 268.5670166015625 1342.406005859375 261.5231018066406 1342.406005859375 252.8649291992188 L 1342.406005859375 70.74007415771484 C 1342.406005859375 62.08357238769531 1349.495971679688 55.041015625 1358.210693359375 55.041015625 L 1477.367309570313 55.041015625 C 1486.07763671875 55.041015625 1493.163940429688 62.08357238769531 1493.163940429688 70.74007415771484 L 1493.163940429688 252.8649291992188 C 1493.163940429688 261.5231018066406 1486.07763671875 268.5670166015625 1477.367309570313 268.5670166015625 Z"/><path class="g" d="M 1477.367309570313 268.0670166015625 C 1485.801879882813 268.0670166015625 1492.663940429688 261.2473754882813 1492.663940429688 252.8649291992188 L 1492.663940429688 70.74007415771484 C 1492.663940429688 62.35929489135742 1485.801879882813 55.541015625 1477.367309570313 55.541015625 L 1358.210693359375 55.541015625 C 1349.771606445313 55.541015625 1342.906005859375 62.35929489135742 1342.906005859375 70.74007415771484 L 1342.906005859375 252.8649291992188 C 1342.906005859375 261.2473754882813 1349.771606445313 268.0670166015625 1358.210693359375 268.0670166015625 L 1477.367309570313 268.0670166015625 M 1477.367309570313 269.0670166015625 L 1358.210693359375 269.0670166015625 C 1349.2158203125 269.0670166015625 1341.906005859375 261.7950134277344 1341.906005859375 252.8649291992188 L 1341.906005859375 70.74007415771484 C 1341.906005859375 61.80801773071289 1349.2158203125 54.541015625 1358.210693359375 54.541015625 L 1477.367309570313 54.541015625 C 1486.354125976563 54.541015625 1493.663940429688 61.80801773071289 1493.663940429688 70.74007415771484 L 1493.663940429688 252.8649291992188 C 1493.663940429688 261.7950134277344 1486.354125976563 269.0670166015625 1477.367309570313 269.0670166015625 Z"/></g><g transform="translate(10.176 13.677)"><path class="c" d="M1361.19,68.514c-.3.542-.575,1.064-.834,1.568-.564,1.146-1.036,2.117-1.4,2.928-.415.929-.823,1.814-1.169,2.657-.5,1.219-.762,1.836-.762,1.856-.274.585-.666,1.314-1.18,2.209a23.962,23.962,0,0,1-1.481,2.3,18.467,18.467,0,0,1-1.884,2.1,14.3,14.3,0,0,1-2.368,1.78,1.684,1.684,0,0,1-.187-.118.277.277,0,0,1-.084-.217,7.31,7.31,0,0,1,1.1-1.571,10.978,10.978,0,0,0,1-1.374,12.2,12.2,0,0,0,.822-1.572c.256-.581.522-1.192.8-1.828.7-1.452,1.313-2.8,1.793-4.035.308-.762.613-1.619.906-2.563,0-.324-1.1-.48-3.316-.48a3.468,3.468,0,0,0-.982.156,2.523,2.523,0,0,0-.971.535h-.651v-.5a11.027,11.027,0,0,1,2.973-3.069,4.494,4.494,0,0,1,2.406-.685,11.2,11.2,0,0,1,1.192.088,10.253,10.253,0,0,0,1.234.1c.411-.016.738-.029.974-.043a3.1,3.1,0,0,0,1.6-.527h.4Z" transform="translate(-1349.84 -68.205)"/></g><g transform="translate(135.744 185.199)"><path class="c" d="M1476.593,259.308c.3-.542.576-1.062.838-1.576.575-1.137,1.036-2.108,1.4-2.918.437-.933.822-1.822,1.172-2.658.5-1.224.762-1.845.762-1.858.285-.584.685-1.323,1.191-2.208a26.257,26.257,0,0,1,1.466-2.309,19.611,19.611,0,0,1,1.884-2.09,14.456,14.456,0,0,1,2.372-1.78.7.7,0,0,1,.179.118.259.259,0,0,1,.088.217,7.43,7.43,0,0,1-1.089,1.563,14.244,14.244,0,0,0-1.009,1.376,16.038,16.038,0,0,0-.822,1.573c-.251.586-.522,1.193-.788,1.825-.72,1.46-1.314,2.806-1.809,4.036-.3.771-.609,1.618-.906,2.57q0,.474,3.331.472a3.46,3.46,0,0,0,.975-.149,2.7,2.7,0,0,0,.979-.541h.639v.5a10.866,10.866,0,0,1-2.977,3.069,4.471,4.471,0,0,1-2.4.693,11.323,11.323,0,0,1-1.18-.093c-.548-.061-.967-.1-1.248-.1l-.971.047a3.074,3.074,0,0,0-1.6.527h-.4Z" transform="translate(-1476.593 -241.911)"/></g></g><g transform="translate(1348.546 92.63)"><path class="d" d="M1359.739,96.447c-.152,2.724-5.6,6.848-5.6,6.848s-5.593-4.158-5.593-6.88a3.39,3.39,0,0,1,3.392-3.379,4.358,4.358,0,0,1,2.219.944,4.024,4.024,0,0,1,2.2-.929A3.342,3.342,0,0,1,1359.739,96.447Z" transform="translate(-1348.546 -93.036)"/><path class="e" d="M1356.358,93.051a4.024,4.024,0,0,0-2.2.929.21.21,0,0,0-.033-.025v9.328l.015.012s5.448-4.124,5.6-6.848A3.342,3.342,0,0,0,1356.358,93.051Z" transform="translate(-1348.546 -93.036)"/></g><g transform="translate(1475.603 224.746)"><path class="d" d="M1476.792,233.543c.152-2.768,5.722-6.979,5.722-6.979s5.718,4.239,5.718,7.023a3.472,3.472,0,0,1-3.483,3.447,4.458,4.458,0,0,1-2.262-.967,4.045,4.045,0,0,1-2.235.946A3.418,3.418,0,0,1,1476.792,233.543Z" transform="translate(-1476.788 -226.564)"/><path class="e" d="M1480.252,237.013a4.045,4.045,0,0,0,2.235-.946.249.249,0,0,0,.042.028V226.57l-.015-.006s-5.57,4.211-5.722,6.979A3.418,3.418,0,0,0,1480.252,237.013Z" transform="translate(-1476.788 -226.564)"/></g><g transform="translate(1374.085 76.003)"><path class="d" d="M1374.431,85.721c.419,7.73,15.91,19.464,15.91,19.464s15.933-11.826,15.933-19.562A9.655,9.655,0,0,0,1396.6,76c-2.989,0-6.313,2.7-6.313,2.7s-3.172-2.7-6.236-2.652C1378.726,76.119,1374.149,80.4,1374.431,85.721Z" transform="translate(-1374.419 -76.003)"/><path class="e" d="M1384.052,76.048c3.064-.045,6.236,2.652,6.236,2.652s.034-.032.1-.086v26.538a.124.124,0,0,1-.05.033s-15.491-11.734-15.91-19.464C1374.149,80.4,1378.726,76.119,1384.052,76.048Z" transform="translate(-1374.419 -76.003)"/></g><g transform="translate(1430.883 76.003)"><path class="d" d="M1463.6,85.721c-.415,7.73-15.911,19.464-15.911,19.464s-15.921-11.826-15.921-19.562A9.648,9.648,0,0,1,1441.43,76c2.989,0,6.32,2.7,6.32,2.7s3.16-2.7,6.229-2.652C1459.305,76.119,1463.881,80.4,1463.6,85.721Z" transform="translate(-1431.768 -76.003)"/><path class="e" d="M1453.979,76.048c-3.069-.045-6.229,2.652-6.229,2.652a.725.725,0,0,1-.1-.086v26.538l.042.033s15.5-11.734,15.911-19.464C1463.881,80.4,1459.305,76.119,1453.979,76.048Z" transform="translate(-1431.768 -76.003)"/></g><g transform="translate(1401.855 113.04)"><path class="d" d="M1402.471,123.446c.419,7.73,15.9,19.464,15.9,19.464s15.933-11.825,15.933-19.561a9.647,9.647,0,0,0-9.666-9.621c-2.981,0-6.313,2.7-6.313,2.7s-3.167-2.7-6.243-2.652C1406.754,113.846,1402.193,118.122,1402.471,123.446Z" transform="translate(-1402.459 -113.728)"/><path class="e" d="M1412.081,113.777c3.076-.049,6.243,2.652,6.243,2.652s.042-.034.1-.089v26.54a.27.27,0,0,1-.057.03s-15.48-11.734-15.9-19.464C1402.193,118.122,1406.754,113.846,1412.081,113.777Z" transform="translate(-1402.459 -113.728)"/></g><g transform="translate(1374.085 217.032)"><path class="d" d="M1374.431,238.679c.419-7.723,15.91-19.463,15.91-19.463s15.933,11.826,15.933,19.565a9.655,9.655,0,0,1-9.673,9.617c-2.989,0-6.313-2.7-6.313-2.7s-3.172,2.7-6.236,2.65C1378.726,248.284,1374.149,244.009,1374.431,238.679Z" transform="translate(-1374.419 -219.216)"/><path class="e" d="M1384.052,248.351c3.064.047,6.236-2.65,6.236-2.65a1.256,1.256,0,0,0,.1.088V219.252a.19.19,0,0,0-.05-.036s-15.491,11.74-15.91,19.463C1374.149,244.009,1378.726,248.284,1384.052,248.351Z" transform="translate(-1374.419 -219.216)"/></g><g transform="translate(1430.883 217.032)"><path class="d" d="M1463.6,238.679c-.415-7.723-15.911-19.463-15.911-19.463s-15.921,11.826-15.921,19.565a9.647,9.647,0,0,0,9.662,9.617c2.989,0,6.32-2.7,6.32-2.7s3.16,2.7,6.229,2.65C1459.305,248.284,1463.881,244.009,1463.6,238.679Z" transform="translate(-1431.768 -219.216)"/><path class="e" d="M1453.979,248.351c-3.069.047-6.229-2.65-6.229-2.65a.848.848,0,0,0-.1.088V219.252a.218.218,0,0,0,.042-.036s15.5,11.74,15.911,19.463C1463.881,244.009,1459.305,248.284,1453.979,248.351Z" transform="translate(-1431.768 -219.216)"/></g><g transform="translate(1374.085 146.524)"><path class="d" d="M1374.431,167.073c.419-7.721,15.91-19.468,15.91-19.468s15.933,11.834,15.933,19.57a9.658,9.658,0,0,1-9.673,9.616c-2.989,0-6.313-2.694-6.313-2.694s-3.172,2.694-6.236,2.65C1378.726,176.68,1374.149,172.4,1374.431,167.073Z" transform="translate(-1374.419 -147.605)"/><path class="e" d="M1384.052,176.747c3.064.044,6.236-2.65,6.236-2.65a.589.589,0,0,0,.1.08V147.639a.381.381,0,0,1-.05-.034s-15.491,11.747-15.91,19.468C1374.149,172.4,1378.726,176.68,1384.052,176.747Z" transform="translate(-1374.419 -147.605)"/></g><g transform="translate(1430.883 146.524)"><path class="d" d="M1463.6,167.073c-.415-7.721-15.911-19.468-15.911-19.468s-15.921,11.834-15.921,19.57a9.65,9.65,0,0,0,9.662,9.616c2.989,0,6.32-2.694,6.32-2.694s3.16,2.694,6.229,2.65C1459.305,176.68,1463.881,172.4,1463.6,167.073Z" transform="translate(-1431.768 -147.605)"/><path class="e" d="M1453.979,176.747c-3.069.044-6.229-2.65-6.229-2.65s-.049.036-.1.08V147.639c.035-.015.042-.034.042-.034s15.5,11.747,15.911,19.468C1463.881,172.4,1459.305,176.68,1453.979,176.747Z" transform="translate(-1431.768 -147.605)"/></g></g></svg>