<svg xmlns="http://www.w3.org/2000/svg" width="154" height="215" viewBox="0 0 154 215"><defs><style>.a{fill:#c9c9c9;}.b{fill:#fff;}.c{fill:#be6148;}.d{fill:#d66142;}.e{fill:#616161;opacity:0.2;}.f,.g{stroke:none;}.g{fill:#c4c4c4;}</style></defs><g transform="translate(-392.935 -1342.717)"><g transform="translate(392.935 1342.717)"><path class="a" d="M409.955,1557.717a16.4,16.4,0,0,1-16.546-16.169l-.474-182.572a16.358,16.358,0,0,1,16.531-16.259l120.933.211a16.448,16.448,0,0,1,16.508,16.3V1541.4a16.345,16.345,0,0,1-16.447,16.176Z" transform="translate(-392.935 -1342.717)"/><g class="b" transform="translate(-392.935 -1342.717)"><path class="f" d="M 530.6416625976563 1556.744995117188 L 411.480224609375 1556.744995117188 C 402.7723693847656 1556.744995117188 395.68798828125 1549.70263671875 395.68798828125 1541.046508789063 L 395.68798828125 1358.915649414063 C 395.68798828125 1350.26318359375 402.7723693847656 1343.223999023438 411.480224609375 1343.223999023438 L 530.6416625976563 1343.223999023438 C 539.35009765625 1343.223999023438 546.4349365234375 1350.26318359375 546.4349365234375 1358.915649414063 L 546.4349365234375 1541.046508789063 C 546.4349365234375 1549.70263671875 539.35009765625 1556.744995117188 530.6416625976563 1556.744995117188 Z"/><path class="g" d="M 530.6416625976563 1556.244995117188 C 539.0744018554688 1556.244995117188 545.9349365234375 1549.427001953125 545.9349365234375 1541.046508789063 L 545.9349365234375 1358.915649414063 C 545.9349365234375 1350.538940429688 539.0744018554688 1343.723999023438 530.6416625976563 1343.723999023438 L 411.4802551269531 1343.723999023438 C 403.0480651855469 1343.723999023438 396.18798828125 1350.538940429688 396.18798828125 1358.915649414063 L 396.18798828125 1541.046508789063 C 396.18798828125 1549.427001953125 403.0480651855469 1556.244995117188 411.4802551269531 1556.244995117188 L 530.6416625976563 1556.244995117188 M 530.6416625976563 1557.244995117188 L 411.4802551269531 1557.244995117188 C 402.4946899414063 1557.244995117188 395.18798828125 1549.978881835938 395.18798828125 1541.046508789063 L 395.18798828125 1358.915649414063 C 395.18798828125 1349.983276367188 402.4946899414063 1342.723999023438 411.4802551269531 1342.723999023438 L 530.6416625976563 1342.723999023438 C 539.621337890625 1342.723999023438 546.9349365234375 1349.983276367188 546.9349365234375 1358.915649414063 L 546.9349365234375 1541.046508789063 C 546.9349365234375 1549.978881835938 539.621337890625 1557.244995117188 530.6416625976563 1557.244995117188 Z"/></g><g transform="translate(10.661 13.934)"><path class="c" d="M414.461,1367.608a3.406,3.406,0,0,1-.5,1.462,11.785,11.785,0,0,1-2,2.589c-1.007,1.02-1.542,1.561-1.618,1.63a3.8,3.8,0,0,1-2.329.708,4.374,4.374,0,0,1-3.264-1.455,3.6,3.6,0,0,1-1.161-2.383,3.358,3.358,0,0,1,.791-1.873c.535-.716,1.085-1.439,1.634-2.14a7.5,7.5,0,0,1-1.1-1.226,2.554,2.554,0,0,1-.474-1.507,4.045,4.045,0,0,1,.787-2.216c.51-.678.931-1.264,1.26-1.736a8.789,8.789,0,0,1,2.041-2.284,3.251,3.251,0,0,1,1.762-.526,3.9,3.9,0,0,1,2.467.807,2.656,2.656,0,0,1,1.038,2.193,4.177,4.177,0,0,1-1.243,2.833q-1.242,1.324-1.24,1.827a23.152,23.152,0,0,1,2.15,1.576A2.355,2.355,0,0,1,414.461,1367.608Zm-3.083,2.1q0-.754-1.811-1.85a5.929,5.929,0,0,0-2.065-.975c-.118,0-.267.168-.472.518a1.958,1.958,0,0,0-.3.906,2.375,2.375,0,0,0,1.192,1.85,3.482,3.482,0,0,0,2.067.815,1.426,1.426,0,0,0,.935-.4A1.165,1.165,0,0,0,411.378,1369.71Zm-.886-7.569a1.857,1.857,0,0,0-.635-1.233,2.292,2.292,0,0,0-1.662-.739,1.049,1.049,0,0,0-.7.266.85.85,0,0,0-.278.648c0,.517.391,1.081,1.2,1.683a3.566,3.566,0,0,0,1.346.791c.144,0,.3-.182.473-.533A2.088,2.088,0,0,0,410.492,1362.141Z" transform="translate(-403.596 -1356.651)"/></g><g transform="translate(135.748 185.296)"><path class="c" d="M529.873,1536.564a3.344,3.344,0,0,1,.495-1.454,12,12,0,0,1,2-2.581q1.491-1.53,1.615-1.622a3.735,3.735,0,0,1,2.328-.716,4.361,4.361,0,0,1,3.259,1.454,3.581,3.581,0,0,1,1.167,2.376,3.34,3.34,0,0,1-.8,1.881c-.529.708-1.079,1.424-1.629,2.139a7,7,0,0,1,1.094,1.227,2.564,2.564,0,0,1,.466,1.507,4.035,4.035,0,0,1-.774,2.216q-.763,1.017-1.264,1.736a8.937,8.937,0,0,1-2.047,2.284,3.231,3.231,0,0,1-1.762.518,3.865,3.865,0,0,1-2.458-.807,2.619,2.619,0,0,1-1.037-2.185,4.106,4.106,0,0,1,1.233-2.833c.832-.891,1.243-1.5,1.243-1.835a22.956,22.956,0,0,1-2.143-1.561A2.39,2.39,0,0,1,529.873,1536.564Zm3.084-2.094c0,.511.607,1.127,1.81,1.851a6.159,6.159,0,0,0,2.071.982c.109,0,.261-.175.463-.518a2,2,0,0,0,.3-.906,2.4,2.4,0,0,0-1.186-1.858,3.546,3.546,0,0,0-2.067-.807,1.381,1.381,0,0,0-.929.4A1.136,1.136,0,0,0,532.957,1534.47Zm.879,7.577a1.8,1.8,0,0,0,.647,1.226,2.256,2.256,0,0,0,1.651.738.975.975,0,0,0,.7-.266.811.811,0,0,0,.288-.632c0-.533-.406-1.1-1.207-1.7a3.607,3.607,0,0,0-1.342-.777c-.154,0-.3.175-.478.525A2.031,2.031,0,0,0,533.836,1542.047Z" transform="translate(-529.873 -1530.191)"/></g></g><g transform="translate(404.46 1380.81)"><path class="d" d="M415.653,1384.627c-.143,2.718-5.591,6.845-5.591,6.845s-5.6-4.15-5.6-6.876a3.391,3.391,0,0,1,3.407-3.381,4.416,4.416,0,0,1,2.22.944,3.961,3.961,0,0,1,2.189-.921A3.323,3.323,0,0,1,415.653,1384.627Z" transform="translate(-404.46 -1381.215)"/><path class="e" d="M412.276,1381.238a3.961,3.961,0,0,0-2.189.921.221.221,0,0,0-.042-.023v9.32c.017.008.017.016.017.016s5.448-4.127,5.591-6.845A3.323,3.323,0,0,0,412.276,1381.238Z" transform="translate(-404.46 -1381.215)"/></g><g transform="translate(529.558 1510.977)"><path class="d" d="M530.752,1519.759c.149-2.771,5.715-6.99,5.715-6.99s5.705,4.242,5.705,7.036a3.449,3.449,0,0,1-3.463,3.434,4.486,4.486,0,0,1-2.272-.967,4.078,4.078,0,0,1-2.232.952A3.415,3.415,0,0,1,530.752,1519.759Z" transform="translate(-530.748 -1512.769)"/><path class="e" d="M534.205,1523.224a4.078,4.078,0,0,0,2.232-.952s.015.015.042.038v-9.533c-.012,0-.012-.008-.012-.008s-5.566,4.219-5.715,6.99A3.415,3.415,0,0,0,534.205,1523.224Z" transform="translate(-530.748 -1512.769)"/></g><g transform="translate(427.873 1364.174)"><path class="d" d="M428.225,1373.905c.416,7.729,15.908,19.463,15.908,19.463s15.927-11.825,15.927-19.569a9.657,9.657,0,0,0-9.666-9.625c-2.987,0-6.318,2.711-6.318,2.711s-3.166-2.711-6.24-2.65C432.517,1364.3,427.949,1368.575,428.225,1373.905Z" transform="translate(-428.213 -1364.174)"/><path class="e" d="M437.836,1364.235c3.074-.061,6.24,2.65,6.24,2.65s.036-.038.108-.1v26.544a.169.169,0,0,1-.051.038s-15.492-11.734-15.908-19.463C427.949,1368.575,432.517,1364.3,437.836,1364.235Z" transform="translate(-428.213 -1364.174)"/></g><g transform="translate(484.665 1364.174)"><path class="d" d="M517.389,1373.905c-.417,7.729-15.906,19.463-15.906,19.463s-15.924-11.825-15.924-19.569a9.649,9.649,0,0,1,9.663-9.625c2.986,0,6.31,2.711,6.31,2.711s3.168-2.711,6.24-2.65C513.1,1364.3,517.671,1368.575,517.389,1373.905Z" transform="translate(-485.559 -1364.174)"/><path class="e" d="M507.772,1364.235c-3.072-.061-6.24,2.65-6.24,2.65s-.034-.038-.1-.1v26.544a.214.214,0,0,0,.048.038s15.489-11.734,15.906-19.463C517.671,1368.575,513.1,1364.3,507.772,1364.235Z" transform="translate(-485.559 -1364.174)"/></g><g transform="translate(427.873 1411.115)"><path class="d" d="M428.225,1421.64c.416,7.721,15.908,19.462,15.908,19.462s15.927-11.825,15.927-19.568a9.65,9.65,0,0,0-9.666-9.617c-2.987,0-6.318,2.7-6.318,2.7s-3.166-2.7-6.24-2.642C432.517,1412.038,427.949,1416.318,428.225,1421.64Z" transform="translate(-428.213 -1411.917)"/><path class="e" d="M437.836,1411.97c3.074-.053,6.24,2.642,6.24,2.642a1.168,1.168,0,0,0,.108-.084v26.536a.149.149,0,0,1-.051.038s-15.492-11.741-15.908-19.462C427.949,1416.318,432.517,1412.038,437.836,1411.97Z" transform="translate(-428.213 -1411.917)"/></g><g transform="translate(484.665 1411.115)"><path class="d" d="M517.389,1421.64c-.417,7.721-15.906,19.462-15.906,19.462s-15.924-11.825-15.924-19.568a9.643,9.643,0,0,1,9.663-9.617c2.986,0,6.31,2.7,6.31,2.7s3.168-2.7,6.24-2.642C513.1,1412.038,517.671,1416.318,517.389,1421.64Z" transform="translate(-485.559 -1411.917)"/><path class="e" d="M507.772,1411.97c-3.072-.053-6.24,2.642-6.24,2.642a.837.837,0,0,1-.1-.084v26.536a.18.18,0,0,0,.048.038s15.489-11.741,15.906-19.462C517.671,1416.318,513.1,1412.038,507.772,1411.97Z" transform="translate(-485.559 -1411.917)"/></g><g transform="translate(427.873 1505.216)"><path class="d" d="M428.225,1526.864c.416-7.737,15.908-19.47,15.908-19.47s15.927,11.832,15.927,19.568a9.655,9.655,0,0,1-9.666,9.617c-2.987,0-6.318-2.695-6.318-2.695s-3.166,2.695-6.24,2.642C432.517,1536.458,427.949,1532.186,428.225,1526.864Z" transform="translate(-428.213 -1507.394)"/><path class="e" d="M437.836,1536.526c3.074.053,6.24-2.642,6.24-2.642s.036.03.108.084v-26.536a.147.147,0,0,0-.051-.038s-15.492,11.733-15.908,19.47C427.949,1532.186,432.517,1536.458,437.836,1536.526Z" transform="translate(-428.213 -1507.394)"/></g><g transform="translate(484.665 1505.216)"><path class="d" d="M517.389,1526.864c-.417-7.737-15.906-19.47-15.906-19.47s-15.924,11.832-15.924,19.568a9.648,9.648,0,0,0,9.663,9.617c2.986,0,6.31-2.695,6.31-2.695s3.168,2.695,6.24,2.642C513.1,1536.458,517.671,1532.186,517.389,1526.864Z" transform="translate(-485.559 -1507.394)"/><path class="e" d="M507.772,1536.526c-3.072.053-6.24-2.642-6.24-2.642l-.1.084v-26.536a.177.177,0,0,1,.048-.038s15.489,11.733,15.906,19.47C517.671,1532.186,513.1,1536.458,507.772,1536.526Z" transform="translate(-485.559 -1507.394)"/></g><g transform="translate(427.873 1458.296)"><path class="d" d="M428.225,1479.114c.416-7.722,15.908-19.463,15.908-19.463s15.927,11.841,15.927,19.577a9.649,9.649,0,0,1-9.666,9.609c-2.987,0-6.318-2.7-6.318-2.7s-3.166,2.7-6.24,2.649C432.517,1488.723,427.949,1484.444,428.225,1479.114Z" transform="translate(-428.213 -1459.651)"/><path class="e" d="M437.836,1488.791c3.074.046,6.24-2.649,6.24-2.649s.036.03.108.083V1459.7a.421.421,0,0,0-.051-.046s-15.492,11.741-15.908,19.463C427.949,1484.444,432.517,1488.723,437.836,1488.791Z" transform="translate(-428.213 -1459.651)"/></g><g transform="translate(484.665 1458.296)"><path class="d" d="M517.389,1479.114c-.417-7.722-15.906-19.463-15.906-19.463s-15.924,11.841-15.924,19.577a9.641,9.641,0,0,0,9.663,9.609c2.986,0,6.31-2.7,6.31-2.7s3.168,2.7,6.24,2.649C513.1,1488.723,517.671,1484.444,517.389,1479.114Z" transform="translate(-485.559 -1459.651)"/><path class="e" d="M507.772,1488.791c-3.072.046-6.24-2.649-6.24-2.649l-.1.083V1459.7c.031-.031.048-.046.048-.046s15.489,11.741,15.906,19.463C517.671,1484.444,513.1,1488.723,507.772,1488.791Z" transform="translate(-485.559 -1459.651)"/></g></g></svg>