<svg xmlns="http://www.w3.org/2000/svg" width="154" height="215" viewBox="0 0 154 215"><defs><style>.a{fill:#c9c9c9;}.b,.i{fill:#fff;}.c{fill:#333;}.d{fill:#616161;}.d,.i{opacity:0.2;}.e{fill:#ffd675;}.f{fill:#ebebeb;}.g{fill:#ebbe9f;}.h{fill:#9c9c9c;}.j,.k{stroke:none;}.k{fill:#c4c4c4;}</style></defs><g transform="translate(-200.63 -57.574)"><g transform="translate(200.63 57.574)"><path class="a" d="M217.632,272.574a16.556,16.556,0,0,1-16.537-16.434L200.63,73.863a16.42,16.42,0,0,1,16.516-15.947l119.866.225A16.353,16.353,0,0,1,353.37,74.4V256.28a16.257,16.257,0,0,1-16.3,16.15Z" transform="translate(-200.63 -57.574)"/><g class="b" transform="translate(-200.63 -57.574)"><path class="j" d="M 218.861572265625 271.7309265136719 C 210.123291015625 271.7309265136719 203.0033111572266 264.7117004394531 202.9899597167969 256.0839233398438 L 202.5230102539063 73.80698394775391 C 202.5092620849609 69.64140319824219 204.1305084228516 65.71331787109375 207.0881195068359 62.7459602355957 C 208.5469055175781 61.2823486328125 210.25048828125 60.13259887695313 212.1515045166016 59.32859802246094 C 214.1199493408203 58.49609756469727 216.2124633789063 58.07395935058594 218.3708953857422 58.07395935058594 L 218.4084777832031 58.07401275634766 L 338.2700805664063 58.29079055786133 C 347.0151672363281 58.31095886230469 354.1300048828125 65.38442993164063 354.1300048828125 74.05873870849609 L 354.1300048828125 255.9382019042969 C 354.1300048828125 264.5581665039063 347.0406188964844 271.5787658691406 338.3265991210938 271.5883483886719 L 218.8868103027344 271.7308959960938 L 218.861572265625 271.7309265136719 Z"/><path class="k" d="M 218.8728942871094 271.2309265136719 L 218.8861999511719 271.2308959960938 L 338.3260498046875 271.0883483886719 C 346.7646789550781 271.0790710449219 353.6300048828125 264.2827453613281 353.6300048828125 255.9382019042969 L 353.6300048828125 74.05873870849609 C 353.6300048828125 65.65948486328125 346.7389526367188 58.81032180786133 338.2691955566406 58.79079055786133 L 218.4046478271484 58.57401275634766 L 218.3708953857422 58.57395935058594 C 216.2797393798828 58.57395935058594 214.2527618408203 58.98279190063477 212.3462829589844 59.78909683227539 C 210.505126953125 60.56776428222656 208.8551788330078 61.68134689331055 207.4422607421875 63.09890365600586 C 204.5791778564453 65.97145843505859 203.0097045898438 69.77362823486328 203.0230102539063 73.80570983886719 L 203.4899597167969 256.0831604003906 C 203.5028991699219 264.4356689453125 210.3985748291016 271.2309265136719 218.861572265625 271.2309265136719 L 218.8728942871094 271.2309265136719 M 218.8615570068359 272.2309265136719 C 209.8510589599609 272.2309265136719 202.5037536621094 264.9901428222656 202.4899597167969 256.084716796875 L 202.0230102539063 73.80826568603516 C 201.9934692382813 64.85340118408203 209.3260040283203 57.57397079467773 218.3709106445313 57.57397079467773 C 218.3841705322266 57.57397079467773 218.3963470458984 57.57398223876953 218.4096221923828 57.57401275634766 L 338.2710266113281 57.79079055786133 C 347.2927551269531 57.81159973144531 354.6300048828125 65.10756683349609 354.6300048828125 74.05873870849609 L 354.6300048828125 255.9382019042969 C 354.6300048828125 264.8329772949219 347.3203735351563 272.0784606933594 338.3271484375 272.0883483886719 L 218.8874053955078 272.2308959960938 C 218.8791351318359 272.2309265136719 218.8698120117188 272.2309265136719 218.8615570068359 272.2309265136719 Z"/></g><g transform="translate(8.289 14.292)"><path class="c" d="M230.286,87.611a7.957,7.957,0,0,1-1.378,1.161,8.647,8.647,0,0,1-2.707,1.494l-4.159-7.62-.237.164v6.674h-4.886V72.1H221.8v9.855a3.385,3.385,0,0,0,2.283-1.734,4.977,4.977,0,0,0,.925-2.686,4.035,4.035,0,0,0-.282-1.571c-.222-.39-.438-.784-.643-1.182,0-.173.54-.668,1.612-1.473.891-.665,1.529-1.148,1.923-1.445a3.282,3.282,0,0,1,.834,1.291,4.308,4.308,0,0,1,.38,1.627,5.533,5.533,0,0,1-.272,1.519,6.886,6.886,0,0,1-.706,1.616,9.2,9.2,0,0,1-1.2,1.592q-1.094,1.113-1.169,1.233Z" transform="translate(-216.919 -71.866)"/></g><g transform="translate(126.044 184.672)"><path class="c" d="M328.978,247.085a8.059,8.059,0,0,1,1.379-1.161,8.8,8.8,0,0,1,2.71-1.5l4.156,7.62.234-.164v-6.672h4.892V262.59h-4.892v-9.857a3.39,3.39,0,0,0-2.281,1.736,5.011,5.011,0,0,0-.925,2.684,3.9,3.9,0,0,0,.286,1.569c.219.394.434.792.639,1.185q0,.264-1.612,1.478c-.889.66-1.525,1.144-1.922,1.448a3.381,3.381,0,0,1-.832-1.294,4.362,4.362,0,0,1-.381-1.632,5.356,5.356,0,0,1,.274-1.515,7.059,7.059,0,0,1,.7-1.619,9.524,9.524,0,0,1,1.213-1.586c.731-.748,1.114-1.16,1.161-1.241Z" transform="translate(-320.978 -244.424)"/></g></g><g transform="translate(207.337 94.078)"><path class="c" d="M232.123,104.8c.009-1.953-8.5-10.312-8.5-10.312s-8.286,8.616-8.288,10.28a5.071,5.071,0,0,0,5.071,5.088,4.91,4.91,0,0,0,2.62-.725l-3.187,5.435,7.738.013-3.165-5.438a5.076,5.076,0,0,0,7.709-4.341Z" transform="translate(-215.337 -94.486)"/><path class="d" d="M232.123,104.8c.009-1.953-8.5-10.312-8.5-10.312a.028.028,0,0,1-.015.016v20.071l3.969,0-3.165-5.438a5.076,5.076,0,0,0,7.709-4.341Z" transform="translate(-215.337 -94.486)"/></g><g transform="translate(332.04 217.677)"><path class="c" d="M326.344,229.244c-.008,1.959,8.494,10.31,8.494,10.31s8.292-8.613,8.295-10.271a5.077,5.077,0,0,0-5.078-5.1,4.944,4.944,0,0,0-2.62.727l3.192-5.435-7.735-.013,3.161,5.44a5.071,5.071,0,0,0-7.709,4.338Z" transform="translate(-326.344 -219.466)"/><path class="d" d="M326.344,229.244c-.008,1.959,8.494,10.31,8.494,10.31l.017-.013V219.475l-3.963-.009,3.161,5.44a5.071,5.071,0,0,0-7.709,4.338Z" transform="translate(-326.344 -219.466)"/></g><g transform="translate(233.85 73.332)"><path class="c" d="M323.629,127.105l-.327-1.122s-20.755-11.842-27.382-15.594c-1.247-.706-1.987-1.127-2.017-1.127H264.362s-.051.027-.133.069c-.063.034-.133.076-.221.124s-.163.1-.266.146-.181.1-.284.162-.205.116-.329.188c-.179.1-.369.212-.587.33-.4.232-.856.489-1.359.776a.082.082,0,0,0-.021,0c-.377.223-.782.449-1.2.689-.144.078-.287.16-.44.246-.985.565-2.086,1.19-3.256,1.848-.423.246-.848.485-1.28.733s-.858.493-1.3.741-.883.5-1.336.755c-5.861,3.345-12.315,7.025-15.454,8.81-.18.107-.344.2-.5.292-.752.431-1.234.706-1.369.782v49.235l19.33-5.808,4.385-1.316,64.894-19.5Z" transform="translate(-235.02 -73.332)"/><g transform="translate(0 35.93)"><g transform="translate(36.26 11.479)"><path class="e" d="M279.37,134.755l-8.09-14.014h16.181Zm-6.54-13.119,6.54,11.33,6.537-11.33Z" transform="translate(-271.28 -120.741)"/></g><path class="d" d="M268.505,109.262c-.154.038-29.388,16.721-29.388,16.721l-4.1,12.648v36.561l19.33-5.808,4.385-1.316,11.555-37.912,1.552-5.077,2.252-4.842,5.04-10.773v-.2Z" transform="translate(-235.02 -109.262)"/><path class="f" d="M264.362,109.262s-.051.027-.133.069c-.063.034-.133.076-.221.124s-.163.1-.266.146c-.078.048-.175.1-.284.162s-.205.116-.329.188c-.179.1-.369.212-.587.33-.4.224-.852.481-1.359.776a.082.082,0,0,0-.021,0c-.377.215-.782.442-1.2.689-.144.078-.287.16-.44.246-.985.563-2.086,1.182-3.256,1.848-.423.246-.848.485-1.28.733l-1.3.741c-.432.241-.883.5-1.336.755-1.891,1.08-3.843,2.191-5.724,3.271-.568.31-1.131.639-1.677.948-3.29,1.881-6.233,3.563-8.053,4.591-.173.107-.344.2-.5.292-.752.431-1.234.706-1.369.782v49.235l3.446-1.04,1.932-.575,13.736-4.129.216-.064c.645-1.519,1.313-3.136,2.021-4.818,4.626-11.133,10.27-25.229,13.919-34.41,2.275-5.722,3.777-9.535,3.777-9.535l.027-.384.989-10.975Z" transform="translate(-235.02 -109.262)"/><g transform="translate(44.114)"><path class="d" d="M323.629,140.858l-4.481-14.875S289.912,109.3,289.77,109.262H279.134v.2l7.3,15.615,9.484,32.4,27.712-10.035Z" transform="translate(-279.134 -109.262)"/><path class="f" d="M323.629,127.114l-.339-1.131S294.057,109.3,293.9,109.262H283.181l1.021,11.359s12.613,26.171,17.094,34.663l22.333-6.713Z" transform="translate(-279.134 -109.262)"/></g></g><g transform="translate(27.244)"><path class="g" d="M296.2,102.025l-.308-3.992-.006-.15-.915-12.233-4.544-2.292-8.772-4.441-2.425,1.306L276.8,78.917l-8.768,4.441-4.544,2.292-.908,12.233-.017.15-.3,3.992.916,11.637,16.032,11.448v.025l0,.006.017-.017.021.017v-.03l16.024-11.448Z" transform="translate(-262.264 -73.332)"/><path class="g" d="M279.254,109.253l5.376-.187-4.026-2.52s-.642-.017-1.35-.029h-.038c-.714.012-1.357.029-1.357.029l-4.019,2.52,5.376.187v.009h.038Z" transform="translate(-262.264 -73.332)"/><path class="d" d="M282.5,101.57l-2.2-7.649h-2.136l-2.2,7.649,2.2,2.364,1.049.042h.038l1.049-.042Z" transform="translate(-262.264 -73.332)"/><g transform="translate(0.299 10.026)"><path class="h" d="M281.556,91.869,288.468,91l.15-.021.076.042,3.3,1.748L288.4,91.763l.227.021-6.706,1.885Z" transform="translate(-262.563 -83.358)"/><path class="c" d="M283.983,94.759a1.9,1.9,0,0,0-.183.807,1.952,1.952,0,1,0,3.9,0,1.939,1.939,0,0,0-.175-.807Z" transform="translate(-262.563 -83.358)"/><path class="h" d="M276.911,91.869,270,91l-.147-.021-.08.042-3.293,1.748,3.588-1.009-.227.021,6.712,1.885Z" transform="translate(-262.563 -83.358)"/><path class="c" d="M274.484,94.759a1.949,1.949,0,1,1-3.722.807,1.881,1.881,0,0,1,.179-.807Z" transform="translate(-262.563 -83.358)"/><path class="h" d="M295.9,98.033c-.109.083-.172.127-.172.127l-3.2-11.286-2.1-3.516,4.544,2.292.916,12.233Z" transform="translate(-262.563 -83.358)"/><path class="h" d="M262.563,98.033c.113.083.176.127.176.127l3.2-11.286,2.1-3.516-4.543,2.292-.908,12.233Z" transform="translate(-262.563 -83.358)"/></g><path class="e" d="M295.273,81.293v4.665a55.915,55.915,0,0,1-12.943,1.7c-2.9.086-5.714.013-8.263-.133-1.266-.072-2.458-.166-3.558-.265-1.315-.112-2.5-.24-3.529-.363-2.454-.295-3.954-.562-3.954-.562V81.9s16.046-8.573,16.126-8.573c0,.034,2,1.039,4.6,2.313.822.405,1.713.847,2.607,1.285.853.414,1.721.843,2.563,1.264,2.385,1.162,4.565,2.221,5.644,2.745Z" transform="translate(-262.264 -73.332)"/><g transform="translate(4.716 2.313)"><path class="i" d="M286.356,76.93,270.509,87.264c-1.315-.112-2.5-.24-3.529-.363l16.769-11.256C284.571,76.05,285.462,76.492,286.356,76.93Z" transform="translate(-266.98 -75.645)"/><path class="i" d="M294.563,80.939,282.33,87.662c-2.9.086-5.714.013-8.263-.133l14.852-9.335C291.3,79.356,293.484,80.415,294.563,80.939Z" transform="translate(-266.98 -75.645)"/></g></g><g transform="translate(2.642 45.568)"><path class="c" d="M247.462,141.578l-.533,3.765,1.856-3.32Z" transform="translate(-237.662 -118.9)"/><path class="c" d="M254.881,141.578l-.541,3.765,1.86-3.32Z" transform="translate(-237.662 -118.9)"/><path class="c" d="M262.285,141.578l-.527,3.765,1.85-3.32Z" transform="translate(-237.662 -118.9)"/><path class="c" d="M238.2,153.717l-.535,3.765,1.854-3.32Z" transform="translate(-237.662 -118.9)"/><path class="c" d="M245.608,153.717l-.533,3.765,1.854-3.32Z" transform="translate(-237.662 -118.9)"/><path class="c" d="M253.021,153.717l-.535,3.765,1.854-3.32Z" transform="translate(-237.662 -118.9)"/><path class="c" d="M240.463,165.95l-.527,3.763,1.85-3.318Z" transform="translate(-237.662 -118.9)"/><path class="c" d="M247.873,165.95l-.533,3.763,1.86-3.318Z" transform="translate(-237.662 -118.9)"/><path class="c" d="M255.806,165.662c-.349.843-.686,1.649-1.007,2.406l-.1.031.373-2.69Z" transform="translate(-237.662 -118.9)"/><path class="c" d="M260.435,120.412l-.539,3.773,1.862-3.316Z" transform="translate(-237.662 -118.9)"/><path class="c" d="M253.021,118.9l-.535,3.763,1.854-3.32Z" transform="translate(-237.662 -118.9)"/><path class="c" d="M246.107,120.269l-1.04,1.842.2-1.37C245.54,120.587,245.818,120.423,246.107,120.269Z" transform="translate(-237.662 -118.9)"/><path class="c" d="M239.914,173.57l-.967.289.076-.586Z" transform="translate(-237.662 -118.9)"/><path class="c" d="M238.382,129.345l-.531,3.761,1.858-3.32Z" transform="translate(-237.662 -118.9)"/><path class="c" d="M246.63,129.345l-.535,3.761,1.858-3.32Z" transform="translate(-237.662 -118.9)"/><path class="c" d="M254.037,129.345l-.529,3.761,1.856-3.32Z" transform="translate(-237.662 -118.9)"/><path class="c" d="M261.45,129.345l-.531,3.761,1.856-3.32Z" transform="translate(-237.662 -118.9)"/><path class="c" d="M269.049,122.376l-.533,3.771,1.856-3.325Z" transform="translate(-237.662 -118.9)"/><path class="c" d="M239.216,141.578l-.531,3.765,1.856-3.32Z" transform="translate(-237.662 -118.9)"/></g><g transform="translate(54.668 45.568)"><path class="c" d="M312.6,141.578l.529,3.765-1.85-3.32Z" transform="translate(-289.688 -118.9)"/><path class="c" d="M305.189,141.578l.535,3.765-1.858-3.32Z" transform="translate(-289.688 -118.9)"/><path class="c" d="M297.771,141.578l.54,3.765-1.86-3.32Z" transform="translate(-289.688 -118.9)"/><path class="c" d="M299.63,120.412l.535,3.773-1.854-3.316Z" transform="translate(-289.688 -118.9)"/><path class="c" d="M307.043,118.9l.535,3.763-1.854-3.32Z" transform="translate(-289.688 -118.9)"/><path class="c" d="M313.957,120.269l1.032,1.842-.2-1.37C314.522,120.587,314.239,120.423,313.957,120.269Z" transform="translate(-289.688 -118.9)"/><path class="c" d="M321.676,129.345l.539,3.761-1.86-3.32Z" transform="translate(-289.688 -118.9)"/><path class="c" d="M313.433,129.345l.533,3.761-1.86-3.32Z" transform="translate(-289.688 -118.9)"/><path class="c" d="M306.021,129.345l.535,3.761-1.856-3.32Z" transform="translate(-289.688 -118.9)"/><path class="c" d="M298.61,129.345l.535,3.761-1.858-3.32Z" transform="translate(-289.688 -118.9)"/><path class="c" d="M291.013,122.376l.535,3.771-1.86-3.325Z" transform="translate(-289.688 -118.9)"/><path class="c" d="M320.844,141.578l.535,3.765-1.858-3.32Z" transform="translate(-289.688 -118.9)"/></g><g transform="translate(32.472 1.327)"><g transform="translate(0 29.871)"><path class="h" d="M270.252,112.127a8.064,8.064,0,0,1,1.725-1.035l-3.956-6.562H290.43l-3.936,6.592a7.525,7.525,0,0,1,1.713,1.039,7.006,7.006,0,0,1,2.758,5.469c0,1.356,0,2.879-9.518,10.659l-2.06,1.694-2.107-1.626c-9.824-7.595-9.807-9.436-9.786-10.772A6.984,6.984,0,0,1,270.252,112.127Z" transform="translate(-267.492 -104.53)"/></g><path class="g" d="M272.71,106.517h13.043l-1.829,4.664-8.84-.03Z" transform="translate(-267.492 -74.659)"/><rect class="d" width="7.003" height="1.384" transform="translate(8.524 33.596)"/><path class="c" d="M281.9,77.824c0-.6-2.6-3.165-2.6-3.165s-2.545,2.644-2.545,3.148a1.561,1.561,0,0,0,1.559,1.563,1.473,1.473,0,0,0,.8-.219l-.976,1.664,2.376.011-.975-1.675a1.538,1.538,0,0,0,.8.225A1.554,1.554,0,0,0,281.9,77.824Z" transform="translate(-267.492 -74.659)"/><path class="d" d="M288.392,143.668c-.2-2-9.014-9.676-9.014-9.676s-8.642,7.95-8.81,9.663a5.131,5.131,0,0,0,5.184,5.676,5.514,5.514,0,0,0,2.96-.853l-3.857,6.775,9.252,0-3.846-6.771a5.612,5.612,0,0,0,2.955.865A5.13,5.13,0,0,0,288.392,143.668Z" transform="translate(-267.492 -74.659)"/><path class="e" d="M287.436,143.715c0-1.85-8.014-9.731-8.014-9.731s-7.817,8.131-7.822,9.694a4.8,4.8,0,0,0,4.785,4.808,4.678,4.678,0,0,0,2.471-.689l-3,5.123,7.295.02-2.981-5.133a4.781,4.781,0,0,0,7.268-4.092Z" transform="translate(-267.492 -74.659)"/><path class="d" d="M278.771,151.254l.74-1.255.724,1.262Zm-.783-4.887a3.027,3.027,0,0,1-1.581.442,3.125,3.125,0,0,1-3.126-2.966c.462-1.053,3.324-4.414,6.171-7.456,2.96,3.011,5.919,6.386,6.309,7.441a3.121,3.121,0,0,1-3.122,3h0a3.23,3.23,0,0,1-1.607-.451Z" transform="translate(-267.492 -74.659)"/></g><path class="d" d="M323.3,125.983l-8.447-4.821-.062-.421c-.271-.154-.554-.318-.836-.472l.312.565c-6.449-3.681-14.627-8.338-18.349-10.445-.137-.078-.24-.141-.363-.205l.647-8.159-.308-3.992-.006-.15-.885-11.862c.089-.024.183-.042.268-.063V81.293l-.71-.354c-1.079-.524-3.259-1.583-5.644-2.745-.842-.421-1.71-.85-2.563-1.264-.894-.438-1.785-.88-2.607-1.285-2.593-1.274-4.6-2.279-4.6-2.313a1.588,1.588,0,0,0-.206.1V162l16.816-5.05.155.536,9.449-3.422,18.263-5.489V127.105Z" transform="translate(-235.02 -73.332)"/><g transform="translate(0 81.479)"><path class="c" d="M235.02,205.076l.329,1.122s20.756,11.842,27.378,15.594c1.245.706,1.991,1.127,2.016,1.127h29.54a1.488,1.488,0,0,0,.137-.073c.057-.03.13-.072.221-.12s.166-.1.269-.146c.081-.051.177-.1.278-.166s.207-.12.331-.184c.182-.1.371-.212.586-.33.4-.236.86-.493,1.365-.776.01,0,.013,0,.019,0,.373-.223.782-.449,1.2-.689.145-.078.287-.164.436-.254.986-.557,2.086-1.182,3.255-1.842.425-.244.853-.483,1.285-.737.421-.238.857-.487,1.3-.735s.883-.51,1.336-.755c5.867-3.345,12.315-7.032,15.45-8.814.185-.1.351-.2.5-.3.755-.425,1.239-.7,1.372-.775V156.989l-19.331,5.8-4.382,1.32L235.02,183.6Z" transform="translate(-235.02 -156.989)"/><g transform="translate(36.169)"><g transform="translate(0 40.437)"><path class="e" d="M279.277,197.426l8.09,14.01H271.189Zm6.545,13.119-6.545-11.33-6.537,11.33Z" transform="translate(-271.189 -197.426)"/></g><path class="d" d="M290.143,222.919c.15-.038,29.39-16.721,29.39-16.721l4.1-12.648V156.989l-19.331,5.8-4.382,1.32-11.561,37.912L286.81,207.1l-2.258,4.838-5.037,10.773v.206Z" transform="translate(-271.189 -156.989)"/><path class="f" d="M294.283,222.919a1.488,1.488,0,0,0,.137-.073c.057-.03.13-.072.221-.12s.166-.1.269-.146c.074-.051.175-.1.278-.166s.207-.12.331-.184c.182-.1.371-.212.586-.33.4-.224.853-.489,1.365-.776.01,0,.013,0,.019,0,.373-.223.782-.442,1.2-.689.145-.078.287-.164.436-.254.986-.555,2.086-1.174,3.255-1.842.425-.244.853-.483,1.285-.737q.636-.357,1.3-.735c.432-.245.883-.5,1.336-.755,1.889-1.083,3.842-2.191,5.727-3.271.565-.318,1.13-.639,1.675-.955,3.285-1.874,6.228-3.556,8.048-4.588.183-.1.351-.2.5-.3.755-.425,1.239-.7,1.372-.775V156.989l-3.441,1.04-1.935.575-13.74,4.129-.215.06c-.642,1.523-1.315,3.14-2.018,4.822-4.625,11.133-10.27,25.229-13.925,34.41-2.273,5.722-3.776,9.527-3.776,9.527l-.027.388-.992,10.979Z" transform="translate(-271.189 -156.989)"/></g><g transform="translate(0 17.71)"><path class="d" d="M235.02,191.323,239.5,206.2s29.234,16.679,29.379,16.721h10.633v-.206l-7.3-15.611-9.482-32.4L235.02,184.734Z" transform="translate(-235.02 -174.699)"/><path class="f" d="M235.02,205.067l.341,1.131s29.234,16.679,29.382,16.721h10.721l-1.018-11.359s-12.612-26.171-17.1-34.663L235.02,183.6Z" transform="translate(-235.02 -174.699)"/></g><g transform="translate(27.427 50.048)"><path class="g" d="M262.447,230.148l.3,4.005.011.145.914,12.225,4.544,2.3,8.776,4.441,2.425-1.306,2.427,1.306,8.772-4.441,4.542-2.3.912-12.225.013-.145.3-4.005-.916-11.629-16.028-11.448v-.03l-.007,0-.014.021-.021-.021v.034l-16.032,11.448Z" transform="translate(-262.447 -207.037)"/><path class="g" d="M279.4,222.922l-5.376.193,4.021,2.52s.647.017,1.355.029h.034c.716-.012,1.358-.029,1.358-.029l4.016-2.52-5.374-.193v0H279.4Z" transform="translate(-262.447 -207.037)"/><path class="d" d="M276.142,230.611l2.208,7.654h2.13l2.206-7.654-2.206-2.364-1.049-.042H279.4l-1.047.042Z" transform="translate(-262.447 -207.037)"/><g transform="translate(0.301 26.983)"><path class="h" d="M277.1,240.312l-6.916.866-.154.021-.071-.042-3.293-1.748,3.59,1.005-.227-.017,6.7-1.892Z" transform="translate(-262.748 -234.02)"/><path class="c" d="M274.663,237.422a1.828,1.828,0,0,0,.184-.807,1.953,1.953,0,1,0-3.725.807Z" transform="translate(-262.748 -234.02)"/><path class="h" d="M281.742,240.312l6.91.866.15.021.076-.042,3.3-1.748-3.594,1.005.227-.017-6.706-1.892Z" transform="translate(-262.748 -234.02)"/><path class="c" d="M284.16,237.422a2.021,2.021,0,0,1-.177-.807,1.953,1.953,0,0,1,3.906,0,1.827,1.827,0,0,1-.183.807Z" transform="translate(-262.748 -234.02)"/><path class="h" d="M262.748,234.154c.114-.091.171-.134.171-.134l3.2,11.287,2.1,3.516-4.544-2.3L262.76,234.3Z" transform="translate(-262.748 -234.02)"/><path class="h" d="M296.084,234.154c-.116-.091-.175-.134-.175-.134l-3.2,11.287-2.092,3.516,4.542-2.3.912-12.225Z" transform="translate(-262.748 -234.02)"/></g><path class="e" d="M263.372,250.888v-4.665a55.97,55.97,0,0,1,12.941-1.7c2.9-.086,5.717-.013,8.266.131,1.268.074,2.459.168,3.56.259,1.315.12,2.5.248,3.525.367,2.457.3,3.957.558,3.957.558v4.441s-16.045,8.574-16.121,8.574c0-.042-2.01-1.039-4.6-2.317-.823-.407-1.71-.843-2.612-1.281-.853-.422-1.715-.847-2.558-1.258-2.385-1.169-4.565-2.227-5.645-2.754Z" transform="translate(-262.447 -207.037)"/><g transform="translate(1.637 37.445)"><path class="i" d="M272.287,255.251l15.852-10.342c1.315.12,2.5.248,3.525.367L274.9,256.532C274.076,256.125,273.189,255.689,272.287,255.251Z" transform="translate(-264.084 -244.482)"/><path class="i" d="M264.084,251.239l12.229-6.72c2.9-.086,5.717-.013,8.266.131l-14.85,9.343C267.344,252.824,265.164,251.766,264.084,251.239Z" transform="translate(-264.084 -244.482)"/></g></g><g transform="translate(53.259 1.327)"><path class="c" d="M311.185,190.6l.535-3.769-1.862,3.322Z" transform="translate(-288.279 -158.316)"/><path class="c" d="M303.771,190.6l.533-3.769-1.856,3.322Z" transform="translate(-288.279 -158.316)"/><path class="c" d="M296.362,190.6l.531-3.769-1.85,3.322Z" transform="translate(-288.279 -158.316)"/><path class="c" d="M320.454,178.464l.527-3.765-1.85,3.32Z" transform="translate(-288.279 -158.316)"/><path class="c" d="M313.041,178.464l.529-3.765-1.85,3.32Z" transform="translate(-288.279 -158.316)"/><path class="c" d="M305.631,178.464l.527-3.765-1.854,3.32Z" transform="translate(-288.279 -158.316)"/><path class="c" d="M318.185,166.231l.531-3.763-1.85,3.318Z" transform="translate(-288.279 -158.316)"/><path class="c" d="M310.774,166.231l.535-3.763-1.862,3.318Z" transform="translate(-288.279 -158.316)"/><path class="c" d="M302.838,166.526c.35-.85.689-1.662,1.007-2.413l.11-.035-.377,2.694Z" transform="translate(-288.279 -158.316)"/><path class="c" d="M298.212,211.765l.541-3.769-1.86,3.316Z" transform="translate(-288.279 -158.316)"/><path class="c" d="M305.631,213.281l.527-3.763-1.854,3.32Z" transform="translate(-288.279 -158.316)"/><path class="c" d="M312.542,211.912l1.038-1.842-.2,1.366C313.108,211.594,312.826,211.758,312.542,211.912Z" transform="translate(-288.279 -158.316)"/><path class="c" d="M318.737,158.611l.967-.295-.083.592Z" transform="translate(-288.279 -158.316)"/><path class="c" d="M320.269,202.836l.523-3.762-1.85,3.316Z" transform="translate(-288.279 -158.316)"/><path class="c" d="M312.017,202.836l.535-3.762L310.7,202.39Z" transform="translate(-288.279 -158.316)"/><path class="c" d="M304.612,202.836l.529-3.762-1.862,3.316Z" transform="translate(-288.279 -158.316)"/><path class="c" d="M297.2,202.836l.529-3.762-1.85,3.316Z" transform="translate(-288.279 -158.316)"/><path class="c" d="M289.6,209.8l.535-3.769-1.854,3.32Z" transform="translate(-288.279 -158.316)"/><path class="c" d="M319.43,190.6l.531-3.769-1.851,3.322Z" transform="translate(-288.279 -158.316)"/></g><g transform="translate(1.413 29.841)"><path class="c" d="M246.051,190.6l-.531-3.769,1.85,3.322Z" transform="translate(-236.433 -186.83)"/><path class="c" d="M253.462,190.6l-.535-3.769,1.854,3.322Z" transform="translate(-236.433 -186.83)"/><path class="c" d="M260.877,190.6l-.537-3.769,1.852,3.322Z" transform="translate(-236.433 -186.83)"/><path class="c" d="M259.017,211.765,258.482,208l1.858,3.316Z" transform="translate(-236.433 -186.83)"/><path class="c" d="M251.6,213.281l-.533-3.763,1.856,3.32Z" transform="translate(-236.433 -186.83)"/><path class="c" d="M244.694,211.912l-1.035-1.842.2,1.366C244.129,211.594,244.409,211.758,244.694,211.912Z" transform="translate(-236.433 -186.83)"/><path class="c" d="M236.973,202.836l-.54-3.762,1.862,3.316Z" transform="translate(-236.433 -186.83)"/><path class="c" d="M245.218,202.836l-.535-3.762,1.854,3.316Z" transform="translate(-236.433 -186.83)"/><path class="c" d="M252.63,202.836l-.535-3.762,1.854,3.316Z" transform="translate(-236.433 -186.83)"/><path class="c" d="M260.041,202.836l-.535-3.762,1.854,3.316Z" transform="translate(-236.433 -186.83)"/><path class="c" d="M267.631,209.8l-.527-3.769,1.86,3.32Z" transform="translate(-236.433 -186.83)"/><path class="c" d="M237.807,190.6l-.535-3.769,1.854,3.322Z" transform="translate(-236.433 -186.83)"/></g><g transform="translate(32.662 19.939)"><g transform="translate(0 25.27)"><path class="h" d="M279.264,202.2l2.107,1.626c9.821,7.6,9.807,9.436,9.787,10.778a6.99,6.99,0,0,1-2.763,5.452,8.115,8.115,0,0,1-1.718,1.035l3.946,6.558H268.217l3.933-6.588a7.582,7.582,0,0,1-1.706-1.039,7,7,0,0,1-2.762-5.475c0-1.35,0-2.873,9.518-10.653Z" transform="translate(-267.682 -202.198)"/></g><path class="g" d="M285.936,225.664H272.894L274.724,221l8.837.027Z" transform="translate(-267.682 -176.928)"/><rect class="d" width="7.001" height="1.371" transform="translate(7.946 45.621)"/><path class="c" d="M276.749,254.357c0,.6,2.608,3.162,2.608,3.162s2.538-2.641,2.541-3.153a1.557,1.557,0,0,0-1.555-1.555,1.454,1.454,0,0,0-.8.219l.976-1.664-2.373,0,.968,1.665a1.537,1.537,0,0,0-.8-.223A1.555,1.555,0,0,0,276.749,254.357Z" transform="translate(-267.682 -176.928)"/><path class="d" d="M270.26,188.507c.194,2.01,9.015,9.689,9.015,9.689s8.637-7.957,8.808-9.672a5.132,5.132,0,0,0-5.187-5.674,5.453,5.453,0,0,0-2.96.853l3.854-6.775h-9.251l3.851,6.775a5.642,5.642,0,0,0-2.956-.865A5.126,5.126,0,0,0,270.26,188.507Z" transform="translate(-267.682 -176.928)"/><path class="e" d="M271.208,188.466c0,1.846,8.018,9.73,8.018,9.73s7.812-8.13,7.82-9.7a4.8,4.8,0,0,0-4.788-4.8,4.719,4.719,0,0,0-2.467.685l3-5.119-7.3-.021,2.988,5.134a4.873,4.873,0,0,0-2.467-.7A4.8,4.8,0,0,0,271.208,188.466Z" transform="translate(-267.682 -176.928)"/><path class="d" d="M279.881,180.927l-.741,1.254-.729-1.261Zm.78,4.883a3.029,3.029,0,0,1,1.584-.442,3.134,3.134,0,0,1,3.126,2.964c-.463,1.059-3.332,4.417-6.176,7.462-2.964-3.011-5.914-6.394-6.312-7.445a3.127,3.127,0,0,1,3.125-3h0a3.167,3.167,0,0,1,1.611.451Z" transform="translate(-267.682 -176.928)"/></g><path class="d" d="M235.349,206.2s3.692,2.1,8.443,4.817l.063.421c.274.158.554.322.839.476l-.316-.565c6.453,3.681,14.628,8.338,18.349,10.445.135.078.244.133.367.2l-.647,8.151.3,4.006.012.144.883,11.862c-.086.024-.185.034-.271.063v4.665l.712.351c1.08.527,3.26,1.585,5.645,2.754.843.411,1.7.836,2.558,1.258.9.438,1.789.874,2.612,1.281,2.591,1.278,4.6,2.275,4.6,2.317,0,0,.076-.042.206-.1V170.185l-16.817,5.05-.154-.536-9.454,3.422L235.02,183.6v21.472Z" transform="translate(-235.02 -156.989)"/></g></g></g></svg>