<svg xmlns="http://www.w3.org/2000/svg" width="154" height="215" viewBox="0 0 154 215"><defs><style>.a{fill:#c9c9c9;}.b{fill:#fff;}.c{fill:#333;}.d{fill:#616161;opacity:0.2;}.e,.f{stroke:none;}.f{fill:#c4c4c4;}</style></defs><g transform="translate(-1148.843 -1341.826)"><g transform="translate(1148.843 1341.826)"><path class="a" d="M1165.866,1556.826a16.386,16.386,0,0,1-16.555-16.161l-.468-182.571a16.37,16.37,0,0,1,16.532-16.267l120.936.219a16.456,16.456,0,0,1,16.505,16.3v182.172a16.34,16.34,0,0,1-16.453,16.169Z" transform="translate(-1148.843 -1341.826)"/><g class="b" transform="translate(-1148.843 -1341.826)"><path class="e" d="M 1286.546020507813 1555.869018554688 L 1167.388793945313 1555.869018554688 C 1158.678955078125 1555.869018554688 1151.593017578125 1548.823120117188 1151.593017578125 1540.16259765625 L 1151.593017578125 1358.03955078125 C 1151.593017578125 1349.37890625 1158.678955078125 1342.3330078125 1167.388793945313 1342.3330078125 L 1286.546020507813 1342.3330078125 C 1295.256469726563 1342.3330078125 1302.343017578125 1349.37890625 1302.343017578125 1358.03955078125 L 1302.343017578125 1540.16259765625 C 1302.343017578125 1548.823120117188 1295.256469726563 1555.869018554688 1286.546020507813 1555.869018554688 Z"/><path class="f" d="M 1286.546020507813 1555.369018554688 C 1294.980834960938 1555.369018554688 1301.843017578125 1548.547485351563 1301.843017578125 1540.16259765625 L 1301.843017578125 1358.03955078125 C 1301.843017578125 1349.654663085938 1294.980834960938 1342.8330078125 1286.546020507813 1342.8330078125 L 1167.388793945313 1342.8330078125 C 1158.954711914063 1342.8330078125 1152.093017578125 1349.654663085938 1152.093017578125 1358.03955078125 L 1152.093017578125 1540.16259765625 C 1152.093017578125 1548.547485351563 1158.954711914063 1555.369018554688 1167.388793945313 1555.369018554688 L 1286.546020507813 1555.369018554688 M 1286.546020507813 1556.369018554688 L 1167.388793945313 1556.369018554688 C 1158.402465820313 1556.369018554688 1151.093017578125 1549.102905273438 1151.093017578125 1540.16259765625 L 1151.093017578125 1358.03955078125 C 1151.093017578125 1349.100219726563 1158.402465820313 1341.8330078125 1167.388793945313 1341.8330078125 L 1286.546020507813 1341.8330078125 C 1295.533447265625 1341.8330078125 1302.843017578125 1349.100219726563 1302.843017578125 1358.03955078125 L 1302.843017578125 1540.16259765625 C 1302.843017578125 1549.102905273438 1295.533447265625 1556.369018554688 1286.546020507813 1556.369018554688 Z"/></g><path class="c" d="M1278.566,1534.158a14.5,14.5,0,0,1,1.4-2.589c.871-1.347,1.583-2.025,2.116-2.025h7.257c.091-.008.2-.046.32-.069a3.379,3.379,0,0,0,.461-.19h.434v.594a5.25,5.25,0,0,0-.815.837q-1.251,1.634-3.065,3.968a33.222,33.222,0,0,0-1.949,2.71,5.285,5.285,0,0,0-.979,2.521,3.629,3.629,0,0,0,.248,1.264,3.75,3.75,0,0,0,.677,1.142,5.92,5.92,0,0,0,.906.617,2.877,2.877,0,0,0,1.264.472,3.422,3.422,0,0,0,1.87-.937,5.249,5.249,0,0,1,1.367-.937c.312,0,.476.138.476.4s-.343.777-1.029,1.5a11.38,11.38,0,0,1-1.922,1.721c-.845.563-1.306.868-1.4.914a3.96,3.96,0,0,1-1.881.624,4,4,0,0,1-2.806-1.226,3.764,3.764,0,0,1-1.286-2.855,5.159,5.159,0,0,1,.906-2.924c.095-.145.525-.739,1.305-1.789,1.093-1.493,1.748-2.376,1.953-2.65a21.388,21.388,0,0,0,1.329-1.835c0-.221-.137-.35-.415-.4a5.881,5.881,0,0,0-.8-.068h-.975a6.919,6.919,0,0,0-3.1.532c-.5.412-1.009.815-1.523,1.227a.351.351,0,0,1-.2-.054,1.348,1.348,0,0,1-.152-.061Z" transform="translate(-1142.036 -1344.004)"/><g transform="translate(8.564 13.889)"><path class="c" d="M1179.392,1368.248a14.655,14.655,0,0,1-1.4,2.6c-.875,1.348-1.583,2.018-2.116,2.018h-7.26c-.1.023-.206.046-.317.076a3.431,3.431,0,0,0-.468.191h-.426v-.594a6.169,6.169,0,0,0,.811-.83c.841-1.1,1.861-2.429,3.064-3.983a32.049,32.049,0,0,0,1.953-2.7,5.264,5.264,0,0,0,.975-2.528,3.94,3.94,0,0,0-.925-2.4,4.669,4.669,0,0,0-.906-.617,3.011,3.011,0,0,0-1.264-.48,3.443,3.443,0,0,0-1.862.937,5.211,5.211,0,0,1-1.374.944c-.313,0-.472-.129-.472-.411,0-.266.338-.769,1.016-1.5a12.2,12.2,0,0,1,1.934-1.721c.842-.563,1.306-.853,1.4-.914a3.548,3.548,0,0,1,4.679.6,3.8,3.8,0,0,1,1.287,2.855,5.172,5.172,0,0,1-.906,2.932c-.092.144-.529.738-1.306,1.789-1.093,1.492-1.74,2.376-1.945,2.643a20.119,20.119,0,0,0-1.333,1.842c0,.213.133.35.411.4a4.252,4.252,0,0,0,.8.076h.978a6.9,6.9,0,0,0,3.088-.533c.514-.411,1.016-.822,1.527-1.233a.51.51,0,0,1,.2.053.835.835,0,0,1,.156.076Z" transform="translate(-1167.407 -1355.715)"/></g></g><g transform="translate(1210.925 1395.342)"><path class="c" d="M1243.828,1416.31c.016-3.761-16.359-19.851-16.359-19.851s-15.956,16.592-15.964,19.783a9.785,9.785,0,0,0,9.774,9.8,9.56,9.56,0,0,0,5.048-1.393l-6.137,10.462,14.886.023-6.088-10.47a9.763,9.763,0,0,0,14.84-8.353Z" transform="translate(-1211.505 -1396.459)"/><path class="d" d="M1243.828,1416.31c.016-3.761-16.359-19.851-16.359-19.851s-.015.023-.023.023v38.651h7.63l-6.088-10.47a9.763,9.763,0,0,0,14.84-8.353Z" transform="translate(-1211.505 -1396.459)"/></g><g transform="translate(1210.925 1467.116)"><path class="c" d="M1243.828,1487.063c.016,3.762-16.359,19.843-16.359,19.843s-15.956-16.591-15.964-19.79a9.794,9.794,0,0,1,9.774-9.8,9.63,9.63,0,0,1,5.048,1.4l-6.137-10.462,14.886-.023-6.088,10.469a9.764,9.764,0,0,1,14.84,8.361Z" transform="translate(-1211.505 -1468.233)"/><path class="d" d="M1243.828,1487.063c.016,3.762-16.359,19.843-16.359,19.843a.094.094,0,0,0-.023-.022V1468.24l7.63-.007-6.088,10.469a9.764,9.764,0,0,1,14.84,8.361Z" transform="translate(-1211.505 -1468.233)"/></g><g transform="translate(1158.819 1378.4)"><path class="c" d="M1177.438,1384.809c.008-1.005-4.359-5.292-4.359-5.292s-4.256,4.424-4.26,5.269a2.611,2.611,0,0,0,2.6,2.62,2.469,2.469,0,0,0,1.348-.373l-1.633,2.794,3.967.008-1.626-2.795a2.614,2.614,0,0,0,3.959-2.231Z" transform="translate(-1168.819 -1379.517)"/><path class="d" d="M1177.438,1384.809c.008-1.005-4.359-5.292-4.359-5.292l-.011.008v10.3l2.037.008-1.626-2.795a2.614,2.614,0,0,0,3.959-2.231Z" transform="translate(-1168.819 -1379.517)"/></g><g transform="translate(1287.052 1511.766)"><path class="c" d="M1280.245,1517.9c0,1.005,4.367,5.292,4.367,5.292s4.256-4.423,4.256-5.276a2.615,2.615,0,0,0-2.6-2.612,2.517,2.517,0,0,0-1.344.373l1.633-2.787-3.971-.008,1.626,2.795a2.523,2.523,0,0,0-1.344-.381A2.616,2.616,0,0,0,1280.245,1517.9Z" transform="translate(-1280.245 -1512.883)"/><path class="d" d="M1280.245,1517.9c0,1.005,4.367,5.292,4.367,5.292a.007.007,0,0,0,.007-.007v-10.3h-2.037l1.626,2.795a2.523,2.523,0,0,0-1.344-.381A2.616,2.616,0,0,0,1280.245,1517.9Z" transform="translate(-1280.245 -1512.883)"/></g></g></svg>