<svg xmlns="http://www.w3.org/2000/svg" width="154" height="215" viewBox="0 0 154 215"><defs><style>.a{fill:#c9c9c9;}.b{fill:#fff;}.c{fill:#333;}.d{fill:#616161;opacity:0.2;}.e,.f{stroke:none;}.f{fill:#c4c4c4;}</style></defs><g transform="translate(-1148.843 -55.758)"><g transform="translate(1148.843 55.758)"><path class="a" d="M1165.866,270.758a16.392,16.392,0,0,1-16.555-16.167l-.468-182.566a16.366,16.366,0,0,1,16.532-16.267l120.936.22a16.449,16.449,0,0,1,16.505,16.292v182.18a16.34,16.34,0,0,1-16.453,16.169Z" transform="translate(-1148.843 -55.758)"/><g class="b" transform="translate(-1148.843 -55.758)"><path class="e" d="M 1286.550048828125 269.7990112304688 L 1167.388793945313 269.7990112304688 C 1158.678955078125 269.7990112304688 1151.593017578125 262.755859375 1151.593017578125 254.0986480712891 L 1151.593017578125 71.96733856201172 C 1151.593017578125 63.30794906616211 1158.678955078125 56.26300430297852 1167.388793945313 56.26300430297852 L 1286.550048828125 56.26300430297852 C 1295.25830078125 56.26300430297852 1302.343017578125 63.30794906616211 1302.343017578125 71.96733856201172 L 1302.343017578125 254.0986480712891 C 1302.343017578125 262.755859375 1295.25830078125 269.7990112304688 1286.550048828125 269.7990112304688 Z"/><path class="f" d="M 1286.550048828125 269.2990112304688 C 1294.982666015625 269.2990112304688 1301.843017578125 262.4801330566406 1301.843017578125 254.0986480712891 L 1301.843017578125 71.96733856201172 C 1301.843017578125 63.58364486694336 1294.982666015625 56.76300430297852 1286.550048828125 56.76300430297852 L 1167.388793945313 56.76300430297852 C 1158.954711914063 56.76300430297852 1152.093017578125 63.58364486694336 1152.093017578125 71.96733856201172 L 1152.093017578125 254.0986480712891 C 1152.093017578125 262.4801330566406 1158.954711914063 269.2990112304688 1167.388793945313 269.2990112304688 L 1286.550048828125 269.2990112304688 M 1286.550048828125 270.2990112304688 L 1167.388793945313 270.2990112304688 C 1158.406494140625 270.2990112304688 1151.093017578125 263.0328369140625 1151.093017578125 254.0986480712891 L 1151.093017578125 71.96733856201172 C 1151.093017578125 63.03017425537109 1158.406494140625 55.76300430297852 1167.388793945313 55.76300430297852 L 1286.550048828125 55.76300430297852 C 1295.533447265625 55.76300430297852 1302.843017578125 63.03017425537109 1302.843017578125 71.96733856201172 L 1302.843017578125 254.0986480712891 C 1302.843017578125 263.0328369140625 1295.533447265625 270.2990112304688 1286.550048828125 270.2990112304688 Z"/></g><g transform="translate(10.18 13.672)"><path class="c" d="M1170.372,69.743c-.3.535-.582,1.059-.833,1.567-.571,1.141-1.044,2.117-1.4,2.926-.43.935-.823,1.812-1.165,2.655-.51,1.225-.758,1.841-.758,1.858-.285.585-.685,1.32-1.2,2.211a22.356,22.356,0,0,1-1.474,2.3,17.709,17.709,0,0,1-1.884,2.09,13.737,13.737,0,0,1-2.372,1.785.722.722,0,0,1-.175-.119.252.252,0,0,1-.088-.21,6.914,6.914,0,0,1,1.093-1.572,11.375,11.375,0,0,0,1-1.378,12.049,12.049,0,0,0,.823-1.569c.266-.586.525-1.195.8-1.829q1.068-2.18,1.809-4.034c.3-.767.6-1.62.9-2.566,0-.322-1.1-.476-3.331-.476a3.667,3.667,0,0,0-.967.147,2.789,2.789,0,0,0-.979.542h-.643v-.5a11.123,11.123,0,0,1,2.97-3.067,4.539,4.539,0,0,1,2.405-.7c.256,0,.648.038,1.192.1a11.911,11.911,0,0,0,1.234.091c.411-.017.742-.03.978-.047a2.994,2.994,0,0,0,1.592-.523h.407Z" transform="translate(-1159.023 -69.43)"/></g><g transform="translate(135.737 185.203)"><path class="c" d="M1285.773,260.541q.462-.813.833-1.574c.575-1.14,1.04-2.113,1.409-2.918.43-.936.819-1.827,1.161-2.663.514-1.22.762-1.837.762-1.85.285-.593.685-1.326,1.192-2.21a22.11,22.11,0,0,1,1.477-2.31,18.608,18.608,0,0,1,1.88-2.09,13.9,13.9,0,0,1,2.38-1.785.964.964,0,0,1,.171.12.246.246,0,0,1,.084.217,6.819,6.819,0,0,1-1.089,1.565,12.508,12.508,0,0,0-1,1.378,11.893,11.893,0,0,0-.819,1.568c-.266.586-.529,1.2-.8,1.833q-1.062,2.176-1.809,4.038c-.3.759-.593,1.612-.9,2.562,0,.318,1.112.48,3.324.48a3.491,3.491,0,0,0,.978-.162,2.593,2.593,0,0,0,.975-.533h.647v.5a11.128,11.128,0,0,1-2.973,3.074,4.556,4.556,0,0,1-2.407.689c-.251,0-.651-.038-1.188-.1a11.581,11.581,0,0,0-1.237-.093c-.411.017-.735.03-.974.048a3.105,3.105,0,0,0-1.6.517h-.407Z" transform="translate(-1285.773 -243.141)"/></g></g><g transform="translate(1159.91 71.718)"><g transform="translate(78.884)"><path class="c" d="M1273.3,92.349c.019-3.906-17.007-20.631-17.007-20.631s-16.584,17.248-16.584,20.572a10.168,10.168,0,0,0,15.4,8.737l-6.376,10.866,15.476.031-6.335-10.885a10.166,10.166,0,0,0,15.43-8.69Z" transform="translate(-1239.713 -71.718)"/><path class="d" d="M1273.3,92.349c.019-3.906-17.007-20.631-17.007-20.631a.188.188,0,0,0-.027.03V111.91l7.939.014-6.335-10.885a10.166,10.166,0,0,0,15.43-8.69Z" transform="translate(-1239.713 -71.718)"/></g><g transform="translate(78.884 73.037)"><path class="c" d="M1273.3,166.5c.019-3.912-17.007-20.637-17.007-20.637s-16.584,17.248-16.584,20.576a10.162,10.162,0,0,0,10.15,10.186,10.041,10.041,0,0,0,5.246-1.449l-6.376,10.866,15.476.031-6.335-10.887a10.161,10.161,0,0,0,15.43-8.686Z" transform="translate(-1239.713 -145.867)"/><path class="d" d="M1273.3,166.5c.019-3.912-17.007-20.637-17.007-20.637l-.027.03v40.162l7.939.018-6.335-10.887a10.161,10.161,0,0,0,15.43-8.686Z" transform="translate(-1239.713 -145.867)"/></g><g transform="translate(21.734)"><path class="c" d="M1181.9,92.349c-.019-3.906,17.007-20.631,17.007-20.631s16.584,17.248,16.588,20.572a10.164,10.164,0,0,1-10.154,10.184,10.047,10.047,0,0,1-5.243-1.447l6.373,10.866-15.472.031,6.331-10.885a10.166,10.166,0,0,1-15.43-8.69Z" transform="translate(-1181.897 -71.718)"/><path class="d" d="M1181.9,92.349c-.019-3.906,17.007-20.631,17.007-20.631a.367.367,0,0,1,.03.03V111.91l-7.938.014,6.331-10.885a10.166,10.166,0,0,1-15.43-8.69Z" transform="translate(-1181.897 -71.718)"/></g><g transform="translate(49.251 37.163)"><path class="c" d="M1209.735,130.078c-.019-3.906,17.011-20.631,17.011-20.631s16.584,17.244,16.584,20.564a10.165,10.165,0,0,1-10.15,10.193,10.019,10.019,0,0,1-5.25-1.451l6.384,10.866-15.48.03,6.332-10.885a10.159,10.159,0,0,1-15.431-8.686Z" transform="translate(-1209.735 -109.447)"/><path class="d" d="M1209.735,130.078c-.019-3.906,17.011-20.631,17.011-20.631l.023.026v40.163l-7.935.013,6.332-10.885a10.159,10.159,0,0,1-15.431-8.686Z" transform="translate(-1209.735 -109.447)"/></g><g transform="translate(21.734 69.48)"><path class="c" d="M1181.9,162.889c-.019-3.908,17.007-20.634,17.007-20.634s16.584,17.249,16.588,20.573a10.166,10.166,0,0,1-10.154,10.184,9.928,9.928,0,0,1-5.243-1.447l6.373,10.866-15.472.03,6.331-10.886a10.156,10.156,0,0,1-15.43-8.686Z" transform="translate(-1181.897 -142.255)"/><path class="d" d="M1181.9,162.889c-.019-3.908,17.007-20.634,17.007-20.634a.262.262,0,0,1,.03.035v40.162l-7.938.009,6.331-10.886a10.156,10.156,0,0,1-15.43-8.686Z" transform="translate(-1181.897 -142.255)"/></g><g transform="translate(78.801 143.253)"><path class="c" d="M1273.228,236.724c.015,3.91-17.007,20.633-17.007,20.633s-16.58-17.241-16.592-20.569a10.171,10.171,0,0,1,10.158-10.19,9.983,9.983,0,0,1,5.246,1.449l-6.377-10.866,15.469-.03-6.331,10.886a10.159,10.159,0,0,1,15.434,8.687Z" transform="translate(-1239.629 -217.151)"/><path class="d" d="M1273.228,236.724c.015,3.91-17.007,20.633-17.007,20.633l-.027-.031V217.164l7.931-.013-6.331,10.886a10.159,10.159,0,0,1,15.434,8.687Z" transform="translate(-1239.629 -217.151)"/></g><g transform="translate(21.655 143.253)"><path class="c" d="M1181.817,236.724c-.011,3.91,17.011,20.633,17.011,20.633s16.584-17.241,16.591-20.569a10.17,10.17,0,0,0-10.154-10.19,9.958,9.958,0,0,0-5.246,1.449l6.377-10.866-15.48-.03,6.332,10.886a10.156,10.156,0,0,0-15.431,8.687Z" transform="translate(-1181.817 -217.151)"/><path class="d" d="M1181.817,236.724c-.011,3.91,17.011,20.633,17.011,20.633s.011-.014.022-.031V217.164l-7.934-.013,6.332,10.886a10.156,10.156,0,0,0-15.431,8.687Z" transform="translate(-1181.817 -217.151)"/></g><g transform="translate(0 22.546)"><path class="c" d="M1168.876,99.771c0-1.045-4.538-5.507-4.538-5.507s-4.42,4.6-4.428,5.486a2.721,2.721,0,0,0,4.112,2.334l-1.706,2.9,4.135,0-1.69-2.9a2.708,2.708,0,0,0,4.115-2.313Z" transform="translate(-1159.91 -94.264)"/><path class="d" d="M1168.876,99.771c0-1.045-4.538-5.507-4.538-5.507l-.008.009v10.708l2.121,0-1.69-2.9a2.708,2.708,0,0,0,4.115-2.313Z" transform="translate(-1159.91 -94.264)"/></g><g transform="translate(127.057 153.639)"><path class="c" d="M1288.16,232.755c0,1.048,4.542,5.5,4.542,5.5s4.42-4.6,4.42-5.482a2.722,2.722,0,0,0-2.707-2.721,2.626,2.626,0,0,0-1.393.39l1.694-2.9-4.123-.008,1.686,2.9a2.715,2.715,0,0,0-4.119,2.313Z" transform="translate(-1288.16 -227.537)"/><path class="d" d="M1288.16,232.755c0,1.048,4.542,5.5,4.542,5.5V227.537h-2.109l1.686,2.9a2.715,2.715,0,0,0-4.119,2.313Z" transform="translate(-1288.16 -227.537)"/></g></g></g></svg>