<svg xmlns="http://www.w3.org/2000/svg" width="154" height="215" viewBox="0 0 154 215"><defs><style>.a{fill:#c9c9c9;}.b{fill:#fff;}.c{fill:#333;}.d{fill:#616161;opacity:0.2;}.e,.f{stroke:none;}.f{fill:#c4c4c4;}</style></defs><g transform="translate(-1535.679 -1088.639)"><g transform="translate(1535.679 1088.639)"><path class="a" d="M1552.605,1303.639a16.235,16.235,0,0,1-16.451-16.167l-.473-182.571a16.214,16.214,0,0,1,16.432-16.262l120.923.222a16.6,16.6,0,0,1,16.613,16.294V1287.33a16.5,16.5,0,0,1-16.558,16.167Z" transform="translate(-1535.679 -1088.639)"/><g class="b" transform="translate(-1535.679 -1088.639)"><path class="e" d="M 1673.2626953125 1302.705078125 L 1554.023803710938 1302.705078125 C 1551.874755859375 1302.705078125 1549.79052734375 1302.281616210938 1547.828857421875 1301.446533203125 C 1545.932983398438 1300.639526367188 1544.236572265625 1299.486450195313 1542.786987304688 1298.019409179688 C 1539.855102539063 1295.052490234375 1538.267578125 1291.13720703125 1538.31689453125 1286.994995117188 L 1538.31689453125 1286.991943359375 L 1538.31689453125 1286.989013671875 L 1538.31689453125 1104.846313476563 L 1538.31689453125 1104.843383789063 L 1538.31689453125 1104.84033203125 C 1538.267578125 1100.70751953125 1539.853637695313 1096.798950195313 1542.78271484375 1093.834716796875 C 1544.232666015625 1092.367309570313 1545.929443359375 1091.2138671875 1547.826049804688 1090.406372070313 C 1549.788696289063 1089.570678710938 1551.873901367188 1089.14697265625 1554.023803710938 1089.14697265625 L 1673.2626953125 1089.14697265625 C 1677.470825195313 1089.14697265625 1681.443481445313 1090.783325195313 1684.448974609375 1093.75439453125 C 1687.448852539063 1096.72021484375 1689.128784179688 1100.66064453125 1689.179321289063 1104.849975585938 L 1689.179321289063 1286.989013671875 C 1689.128784179688 1291.181884765625 1687.448852539063 1295.127563476563 1684.448852539063 1298.095581054688 C 1681.444213867188 1301.067993164063 1677.471557617188 1302.705078125 1673.2626953125 1302.705078125 Z"/><path class="f" d="M 1673.2626953125 1302.205078125 C 1677.338989257813 1302.205078125 1681.186767578125 1300.619384765625 1684.09716796875 1297.740112304688 C 1687.002075195313 1294.8662109375 1688.629272460938 1291.046508789063 1688.679321289063 1286.989013671875 L 1688.679321289063 1104.851440429688 C 1688.629272460938 1100.796142578125 1687.002197265625 1096.981689453125 1684.097412109375 1094.109985351563 C 1681.186157226563 1091.23193359375 1677.33837890625 1089.64697265625 1673.2626953125 1089.64697265625 L 1554.023803710938 1089.64697265625 C 1551.941650390625 1089.64697265625 1549.922241210938 1090.057250976563 1548.02197265625 1090.866455078125 C 1546.185546875 1091.648315429688 1544.54248046875 1092.765258789063 1543.138427734375 1094.186157226563 C 1540.303955078125 1097.054565429688 1538.769165039063 1100.836181640625 1538.816772460938 1104.834350585938 L 1538.81689453125 1104.84033203125 L 1538.81689453125 1104.846313476563 L 1538.81689453125 1286.989013671875 L 1538.81689453125 1286.994995117188 L 1538.816772460938 1287.000854492188 C 1538.769165039063 1291.008422851563 1540.305419921875 1294.796752929688 1543.142700195313 1297.668090820313 C 1544.54638671875 1299.088500976563 1546.18896484375 1300.204956054688 1548.024780273438 1300.986572265625 C 1549.924072265625 1301.795166015625 1551.942504882813 1302.205078125 1554.023803710938 1302.205078125 L 1673.2626953125 1302.205078125 M 1673.2626953125 1303.205078125 L 1554.023803710938 1303.205078125 C 1545.038818359375 1303.205078125 1537.71044921875 1295.932861328125 1537.81689453125 1286.989013671875 L 1537.81689453125 1104.846313476563 C 1537.71044921875 1095.9189453125 1545.038818359375 1088.64697265625 1554.023803710938 1088.64697265625 L 1673.2626953125 1088.64697265625 C 1682.247680664063 1088.64697265625 1689.572875976563 1095.9189453125 1689.679321289063 1104.846313476563 L 1689.679321289063 1286.989013671875 C 1689.572875976563 1295.932861328125 1682.247680664063 1303.205078125 1673.2626953125 1303.205078125 Z"/></g><g transform="translate(137.661 186.735)"><path class="c" d="M1659.035,1274.971a4.44,4.44,0,0,1,.453-1.873,11.5,11.5,0,0,1,2.372-3.145,17.754,17.754,0,0,1,2.261-1.995,4.917,4.917,0,0,1,2.768-.906,4.261,4.261,0,0,1,2.147.526,1.82,1.82,0,0,1,1.089,1.629,5.307,5.307,0,0,1-1.367,2.422c-.913,1.157-1.561,1.736-1.964,1.736-.316,0-.491-.122-.491-.358a3.086,3.086,0,0,1,.792-1.355,1.293,1.293,0,0,0,.358-.716,1.916,1.916,0,0,0-.431-.6,2.686,2.686,0,0,0-1.85-.609,2.924,2.924,0,0,0-1.842.632,2.476,2.476,0,0,0-.987,2.056,3,3,0,0,0,.514,1.706,2.944,2.944,0,0,0,1.051.906,4.374,4.374,0,0,0,1.747.434c.617,0,.914.137.914.4a6.914,6.914,0,0,1-1.13,1.583,25.866,25.866,0,0,0-1.7,2.384.693.693,0,0,0,.412.243h3.464a2.257,2.257,0,0,0,.906-.54,2.127,2.127,0,0,1,.926-.548c.3,0,.453.114.453.342,0,.122-.175.381-.537.792s-.861.944-1.519,1.614c-.762.747-1.234,1.2-1.432,1.356a1.779,1.779,0,0,1-.925.457h-5.776a.717.717,0,0,1-.1-.122.68.68,0,0,1-.031-.275c0-.426.514-1.164,1.561-2.192s1.565-1.729,1.565-2.125c0-.091-.423-.282-1.245-.594a4.309,4.309,0,0,1-1.428-.837,3.4,3.4,0,0,1-.73-1.036A3.5,3.5,0,0,1,1659.035,1274.971Z" transform="translate(-1659.035 -1267.052)"/></g><g transform="translate(7.889 13.287)"><path class="c" d="M1564.658,1110.477a4.443,4.443,0,0,1-.453,1.881,11.631,11.631,0,0,1-2.372,3.152,17.779,17.779,0,0,1-2.261,1.98,4.847,4.847,0,0,1-2.768.9,4.337,4.337,0,0,1-2.147-.511,1.827,1.827,0,0,1-1.089-1.629,5.284,5.284,0,0,1,1.366-2.429c.914-1.15,1.561-1.736,1.965-1.736q.49,0,.491.365a3.017,3.017,0,0,1-.792,1.356,1.3,1.3,0,0,0-.358.7,2.2,2.2,0,0,0,.423.609,2.679,2.679,0,0,0,1.858.617,3.017,3.017,0,0,0,1.842-.632,2.511,2.511,0,0,0,.994-2.056,2.966,2.966,0,0,0-.521-1.7,2.733,2.733,0,0,0-1.051-.907,4.241,4.241,0,0,0-1.748-.426c-.617-.023-.913-.152-.913-.411a7.107,7.107,0,0,1,1.13-1.584,27.546,27.546,0,0,0,1.7-2.368.7.7,0,0,0-.411-.251h-3.464a2.214,2.214,0,0,0-.907.533,2.17,2.17,0,0,1-.925.541c-.3,0-.453-.107-.453-.336,0-.121.175-.38.537-.792.346-.411.861-.944,1.519-1.614.761-.754,1.234-1.2,1.432-1.355a1.72,1.72,0,0,1,.933-.442h5.767a.667.667,0,0,1,.1.114.613.613,0,0,1,.03.267c0,.441-.513,1.172-1.561,2.2s-1.564,1.729-1.564,2.125c0,.084.411.282,1.256.586a4.369,4.369,0,0,1,1.416.83,3.36,3.36,0,0,1,.731,1.051A3.411,3.411,0,0,1,1564.658,1110.477Z" transform="translate(-1553.568 -1101.926)"/></g></g><g transform="translate(1596.19 1106.875)"><path class="c" d="M1601.5,1117.384a8.03,8.03,0,0,1-.2-1.919,8.593,8.593,0,0,1,17.186,0,8.158,8.158,0,0,0,6.97,11,8.153,8.153,0,0,1-8.132,8.118,24.151,24.151,0,0,1-6.343-1.866l5.5,9.442-13.417-.008,5.513-9.434a25.907,25.907,0,0,1-6.929,1.85,8.593,8.593,0,0,1-.145-17.185Z" transform="translate(-1593.052 -1106.875)"/><path class="d" d="M1601.5,1117.384a8.03,8.03,0,0,1-.2-1.919,8.578,8.578,0,0,1,8.593-8.59h.03v35.286l-6.857-.008,5.513-9.434a25.907,25.907,0,0,1-6.929,1.85,8.593,8.593,0,0,1-.145-17.185Z" transform="translate(-1593.052 -1106.875)"/></g><g transform="translate(1596.19 1178.493)"><path class="c" d="M1601.5,1184.84a8.029,8.029,0,0,1-.2-1.919,8.593,8.593,0,0,1,17.186,0,8.151,8.151,0,0,0,6.97,10.995,8.154,8.154,0,0,1-8.132,8.125,25.032,25.032,0,0,1-6.343-1.851l5.5,9.419-13.417-.008,5.513-9.426a26.211,26.211,0,0,1-6.929,1.85,8.593,8.593,0,0,1-.145-17.185Z" transform="translate(-1593.052 -1174.332)"/><path class="d" d="M1601.5,1184.84a8.029,8.029,0,0,1-.2-1.919,8.582,8.582,0,0,1,8.593-8.589.1.1,0,0,0,.03.015v35.262l-6.857-.008,5.513-9.426a26.211,26.211,0,0,1-6.929,1.85,8.593,8.593,0,0,1-.145-17.185Z" transform="translate(-1593.052 -1174.332)"/></g><g transform="translate(1597.607 1248.137)"><path class="c" d="M1602.848,1264.585a7.9,7.9,0,0,0-.205,1.927,8.593,8.593,0,1,0,16.671-2.909,8.118,8.118,0,0,0-.647-16.211,24.71,24.71,0,0,0-6.343,1.858l5.5-9.435-13.406.008,5.5,9.427a27.035,27.035,0,0,0-6.929-1.85,8.593,8.593,0,0,0-.141,17.185Z" transform="translate(-1594.396 -1239.815)"/><path class="d" d="M1602.848,1264.585a7.9,7.9,0,0,0-.205,1.927,8.558,8.558,0,0,0,8.593,8.581h.03v-35.278l-6.846.008,5.5,9.427a27.035,27.035,0,0,0-6.929-1.85,8.593,8.593,0,0,0-.141,17.185Z" transform="translate(-1594.396 -1239.815)"/></g><g transform="translate(1544.348 1127.053)"><path class="c" d="M1559.815,1127.907a1.879,1.879,0,0,0,.054-.45,1.963,1.963,0,0,0-3.926,0,2.008,2.008,0,0,0,.111.67,1.853,1.853,0,0,0,.156,3.7,5.349,5.349,0,0,0,1.439-.426l-1.256,2.155h3.064l-1.252-2.155a6.169,6.169,0,0,0,1.58.426,1.961,1.961,0,0,0,.03-3.921Z" transform="translate(-1554.348 -1125.508)"/><path class="d" d="M1559.815,1127.907a1.879,1.879,0,0,0,.054-.45,1.957,1.957,0,0,0-1.965-1.949h-.008v8.049h1.561l-1.252-2.155a6.169,6.169,0,0,0,1.58.426,1.961,1.961,0,0,0,.03-3.921Z" transform="translate(-1554.348 -1125.508)"/></g><g transform="translate(1675.099 1259.16)"><path class="c" d="M1666.261,1257.961a2.135,2.135,0,0,1,.049.434,1.963,1.963,0,0,1-3.925,0,1.857,1.857,0,0,0-1.591-2.513,1.852,1.852,0,0,1,1.85-1.85,5.791,5.791,0,0,1,1.458.419l-1.264-2.148h3.061l-1.253,2.148a5.973,5.973,0,0,1,1.584-.419,1.965,1.965,0,0,1,.031,3.929Z" transform="translate(-1660.794 -1252.303)"/><path class="d" d="M1666.261,1257.961a2.135,2.135,0,0,1,.049.434,1.957,1.957,0,0,1-1.96,1.957h-.012V1252.3h1.561l-1.253,2.148a5.973,5.973,0,0,1,1.584-.419,1.965,1.965,0,0,1,.031,3.929Z" transform="translate(-1660.794 -1252.303)"/></g></g></svg>