<svg xmlns="http://www.w3.org/2000/svg" width="154" height="215" viewBox="0 0 154 215"><defs><style>.a{fill:#c9c9c9;}.b{fill:#fff;}.c{fill:#333;}.d{fill:#616161;opacity:0.2;}.e,.f{stroke:none;}.f{fill:#c4c4c4;}</style></defs><g transform="translate(-1531.928 -311.743)"><g transform="translate(1531.928 311.743)"><path class="a" d="M1548.953,526.743a16.382,16.382,0,0,1-16.553-16.159l-.472-182.572a16.378,16.378,0,0,1,16.535-16.269l120.929.224a16.443,16.443,0,0,1,16.505,16.288v182.18a16.34,16.34,0,0,1-16.453,16.167Z" transform="translate(-1531.928 -311.743)"/><g class="b" transform="translate(-1531.928 -311.743)"><path class="e" d="M 1669.628784179688 525.7919311523438 L 1550.47705078125 525.7919311523438 C 1541.76708984375 525.7919311523438 1534.681030273438 518.7443237304688 1534.681030273438 510.0816345214844 L 1534.681030273438 327.9523620605469 C 1534.681030273438 319.2940368652344 1541.76708984375 312.25 1550.47705078125 312.25 L 1669.628784179688 312.25 C 1678.340454101563 312.25 1685.427978515625 319.2940368652344 1685.427978515625 327.9523620605469 L 1685.427978515625 510.0816345214844 C 1685.427978515625 518.7443237304688 1678.340454101563 525.7919311523438 1669.628784179688 525.7919311523438 Z"/><path class="f" d="M 1669.628784179688 525.2919311523438 C 1678.064819335938 525.2919311523438 1684.927978515625 518.4686279296875 1684.927978515625 510.0816345214844 L 1684.927978515625 327.9523620605469 C 1684.927978515625 319.5697326660156 1678.064819335938 312.75 1669.628784179688 312.75 L 1550.47705078125 312.75 C 1542.042846679688 312.75 1535.181030273438 319.5697326660156 1535.181030273438 327.9523620605469 L 1535.181030273438 510.0816345214844 C 1535.181030273438 518.4686279296875 1542.042846679688 525.2919311523438 1550.47705078125 525.2919311523438 L 1669.628784179688 525.2919311523438 M 1669.628784179688 526.2919311523438 L 1550.47705078125 526.2919311523438 C 1541.494140625 526.2919311523438 1534.181030273438 519.0198364257813 1534.181030273438 510.0816345214844 L 1534.181030273438 327.9523620605469 C 1534.181030273438 319.0151672363281 1541.494140625 311.75 1550.47705078125 311.75 L 1669.628784179688 311.75 C 1678.61474609375 311.75 1685.927978515625 319.0151672363281 1685.927978515625 327.9523620605469 L 1685.927978515625 510.0816345214844 C 1685.927978515625 519.0198364257813 1678.61474609375 526.2919311523438 1669.628784179688 526.2919311523438 Z"/></g><g transform="translate(9.994 13.629)"><path class="c" d="M1553.339,336.794a6.343,6.343,0,0,1-1.2,3.094,6.447,6.447,0,0,1-2.364,2.446,13.875,13.875,0,0,1-1.4.582,2.456,2.456,0,0,1-.75.154h-.688a4.582,4.582,0,0,1-3.823-1.736,5.859,5.859,0,0,1-1.191-3.748,11.734,11.734,0,0,1,.586-3.4,12.114,12.114,0,0,1,1.458-3.255c.841-1.275,1.389-2.056,1.633-2.344.156-.154.784-.7,1.892-1.644a14.138,14.138,0,0,1,1.778-1.357,1.437,1.437,0,0,1,.689-.218c.29,0,.434.153.434.454a7.23,7.23,0,0,1-1.214,1.26,15.284,15.284,0,0,0-1.789,2.046,11.314,11.314,0,0,0-.9,1.618,5.8,5.8,0,0,0-.67,1.809.228.228,0,0,0,.091.154.216.216,0,0,0,.176.082c.411-.227.845-.442,1.306-.668a5.542,5.542,0,0,1,1.994-.661,3.455,3.455,0,0,1,2.479,1.473A5.689,5.689,0,0,1,1553.339,336.794Zm-3.43,2.57a5.174,5.174,0,0,0-1.058-3.036,2.9,2.9,0,0,0-2.224-1.481,1.71,1.71,0,0,0-.78.175.583.583,0,0,0-.358.579,4.849,4.849,0,0,0,1.21,2.971,3.643,3.643,0,0,0,2.787,1.645.347.347,0,0,0,.32-.164A1.454,1.454,0,0,0,1549.909,339.364Z" transform="translate(-1541.922 -325.372)"/></g><g transform="translate(135.855 185.256)"><path class="c" d="M1668.983,505.459a6.343,6.343,0,0,1,1.2-3.093,6.41,6.41,0,0,1,2.364-2.448c.617-.28,1.082-.482,1.39-.585a2.8,2.8,0,0,1,.762-.154h.689a4.563,4.563,0,0,1,3.822,1.747,5.891,5.891,0,0,1,1.192,3.737,11.843,11.843,0,0,1-.586,3.4,12.609,12.609,0,0,1-1.459,3.259c-.845,1.268-1.389,2.044-1.644,2.336q-.217.242-1.881,1.64a14.721,14.721,0,0,1-1.778,1.361,1.431,1.431,0,0,1-.7.214c-.278,0-.422-.152-.422-.453a7.681,7.681,0,0,1,1.214-1.26,16.591,16.591,0,0,0,1.79-2.039,12.17,12.17,0,0,0,.9-1.622,5.766,5.766,0,0,0,.659-1.809.214.214,0,0,0-.08-.154.245.245,0,0,0-.175-.081c-.412.222-.853.441-1.306.664a5.574,5.574,0,0,1-2.007.668,3.47,3.47,0,0,1-2.467-1.477A5.707,5.707,0,0,1,1668.983,505.459Zm3.427-2.562a5.157,5.157,0,0,0,1.066,3.025,2.914,2.914,0,0,0,2.223,1.486,1.745,1.745,0,0,0,.78-.175.609.609,0,0,0,.358-.582,4.826,4.826,0,0,0-1.222-2.974,3.62,3.62,0,0,0-2.775-1.641.349.349,0,0,0-.32.164A1.452,1.452,0,0,0,1672.41,502.9Z" transform="translate(-1668.983 -499.179)"/></g></g><g transform="translate(1619.864 329.311)"><path class="c" d="M1646.916,340.79a9.8,9.8,0,0,0,.236-2.106,9.386,9.386,0,1,0-18.217,3.177,8.867,8.867,0,0,0,.712,17.708,26.867,26.867,0,0,0,6.925-2.024l-6.011,10.3,14.646-.01-6.012-10.293a28.687,28.687,0,0,0,7.566,2.014,9.385,9.385,0,0,0,.155-18.769Z" transform="translate(-1620.754 -329.311)"/><path class="d" d="M1646.916,340.79a9.8,9.8,0,0,0,.236-2.106,9.375,9.375,0,0,0-9.384-9.373.248.248,0,0,0-.042.006v38.527l7.481-.006-6.012-10.293a28.687,28.687,0,0,0,7.566,2.014,9.385,9.385,0,0,0,.155-18.769Z" transform="translate(-1620.754 -329.311)"/></g><g transform="translate(1619.864 401.575)"><path class="c" d="M1646.916,414.164a9.783,9.783,0,0,0,.236-2.1,9.386,9.386,0,1,0-18.217,3.175,8.868,8.868,0,0,0,.712,17.709,27.061,27.061,0,0,0,6.925-2.021l-6.011,10.3,14.646-.01-6.012-10.292a28.687,28.687,0,0,0,7.566,2.014,9.386,9.386,0,0,0,.155-18.77Z" transform="translate(-1620.754 -402.685)"/><path class="d" d="M1646.916,414.164a9.783,9.783,0,0,0,.236-2.1,9.379,9.379,0,0,0-9.384-9.376.247.247,0,0,0-.042.006V441.22l7.481-.008-6.012-10.292a28.687,28.687,0,0,0,7.566,2.014,9.386,9.386,0,0,0,.155-18.77Z" transform="translate(-1620.754 -402.685)"/></g><g transform="translate(1562.559 329.311)"><path class="c" d="M1572.113,340.79a9.393,9.393,0,1,1,17.977,1.071,8.867,8.867,0,0,1-.7,17.708,26.819,26.819,0,0,1-6.936-2.024l6.011,10.3-14.646-.01,6.012-10.293a28.69,28.69,0,0,1-7.565,2.014,9.385,9.385,0,0,1-.152-18.769Z" transform="translate(-1562.869 -329.311)"/><path class="d" d="M1572.113,340.79a9.387,9.387,0,0,1,9.156-11.479c.011,0,.023.006.03.006v38.527l-7.481-.006,6.012-10.293a28.69,28.69,0,0,1-7.565,2.014,9.385,9.385,0,0,1-.152-18.769Z" transform="translate(-1562.869 -329.311)"/></g><g transform="translate(1562.559 401.575)"><path class="c" d="M1572.113,414.164a9.393,9.393,0,1,1,17.977,1.072,8.868,8.868,0,0,1-.7,17.709,27.012,27.012,0,0,1-6.936-2.021l6.011,10.3-14.646-.01,6.012-10.292a28.69,28.69,0,0,1-7.565,2.014,9.386,9.386,0,0,1-.152-18.77Z" transform="translate(-1562.869 -402.685)"/><path class="d" d="M1572.113,414.164a9.387,9.387,0,0,1,9.156-11.479c.011,0,.023.006.03.006V441.22l-7.481-.008,6.012-10.292a28.69,28.69,0,0,1-7.565,2.014,9.386,9.386,0,0,1-.152-18.77Z" transform="translate(-1562.869 -402.685)"/></g><g transform="translate(1619.864 470.179)"><path class="c" d="M1646.916,499.421a9.736,9.736,0,0,1,.236,2.1,9.386,9.386,0,0,1-18.773,0,9.283,9.283,0,0,1,.556-3.177,8.865,8.865,0,0,1,.712-17.7,26.592,26.592,0,0,1,6.925,2.023l-6.011-10.306,14.646.01-6.012,10.3a28.544,28.544,0,0,1,7.566-2.018,9.386,9.386,0,0,1,.155,18.77Z" transform="translate(-1620.754 -472.359)"/><path class="d" d="M1646.916,499.421a9.736,9.736,0,0,1,.236,2.1,9.377,9.377,0,0,1-9.384,9.375c-.023,0-.035,0-.042,0V472.367l7.481,0-6.012,10.3a28.544,28.544,0,0,1,7.566-2.018,9.386,9.386,0,0,1,.155,18.77Z" transform="translate(-1620.754 -472.359)"/></g><g transform="translate(1562.559 470.179)"><path class="c" d="M1572.113,499.421a9.263,9.263,0,0,0-.236,2.1,9.389,9.389,0,1,0,18.213-3.177,8.865,8.865,0,0,0-.7-17.7,26.546,26.546,0,0,0-6.936,2.023l6.011-10.306-14.646.01,6.012,10.3a28.546,28.546,0,0,0-7.565-2.018,9.386,9.386,0,0,0-.152,18.77Z" transform="translate(-1562.869 -472.359)"/><path class="d" d="M1572.113,499.421a9.263,9.263,0,0,0-.236,2.1,9.376,9.376,0,0,0,9.392,9.375c.011,0,.023,0,.03,0V472.367l-7.481,0,6.012,10.3a28.546,28.546,0,0,0-7.565-2.018,9.386,9.386,0,0,0-.152,18.77Z" transform="translate(-1562.869 -472.359)"/></g><g transform="translate(1542.66 350.863)"><path class="c" d="M1548.622,353.9a1.81,1.81,0,0,0,.061-.482,2.143,2.143,0,0,0-4.287,0,2.075,2.075,0,0,0,.126.726,2.025,2.025,0,0,0,.163,4.043,6.162,6.162,0,0,0,1.584-.463l-1.378,2.355,3.343,0-1.371-2.351a6.6,6.6,0,0,0,1.729.459,2.142,2.142,0,0,0,.03-4.283Z" transform="translate(-1542.66 -351.277)"/><path class="d" d="M1548.622,353.9a1.81,1.81,0,0,0,.061-.482,2.143,2.143,0,0,0-2.147-2.139h-.012v8.8l1.71,0-1.371-2.351a6.6,6.6,0,0,0,1.729.459,2.142,2.142,0,0,0,.03-4.283Z" transform="translate(-1542.66 -351.277)"/></g><g transform="translate(1669.451 483.572)"><path class="c" d="M1676.624,491.561a1.892,1.892,0,0,1,.05.479,2.131,2.131,0,0,1-2.14,2.142,2.121,2.121,0,0,1-2.014-2.861,2.027,2.027,0,0,1,.156-4.047,6.216,6.216,0,0,1,1.591.462l-1.378-2.347h3.343l-1.367,2.355a6.283,6.283,0,0,1,1.725-.463,2.14,2.14,0,0,1,.034,4.28Z" transform="translate(-1670.651 -485.389)"/><path class="d" d="M1676.624,491.561a1.892,1.892,0,0,1,.05.479,2.131,2.131,0,0,1-2.14,2.142h-.008v-8.793h1.706l-1.367,2.355a6.283,6.283,0,0,1,1.725-.463,2.14,2.14,0,0,1,.034,4.28Z" transform="translate(-1670.651 -485.389)"/></g></g></svg>