<svg xmlns="http://www.w3.org/2000/svg" width="154" height="215" viewBox="0 0 154 215"><defs><style>.a{fill:#c9c9c9;}.b{fill:#fff;}.c{fill:#333;}.d{fill:#616161;opacity:0.2;}.e,.f{stroke:none;}.f{fill:#c4c4c4;}</style></defs><g transform="translate(-585.207 -1342.717)"><g transform="translate(585.207 1342.717)"><path class="a" d="M602.227,1557.717a16.388,16.388,0,0,1-16.558-16.161l-.462-182.571a16.36,16.36,0,0,1,16.526-16.267l120.935.218a16.445,16.445,0,0,1,16.513,16.29V1541.4a16.338,16.338,0,0,1-16.45,16.169Z" transform="translate(-585.207 -1342.717)"/><g class="b" transform="translate(-585.207 -1342.717)"><path class="e" d="M 722.9100952148438 1556.760009765625 L 603.751708984375 1556.760009765625 C 595.040283203125 1556.760009765625 587.9530029296875 1549.714111328125 587.9530029296875 1541.053588867188 L 587.9530029296875 1358.923583984375 C 587.9530029296875 1350.266845703125 595.040283203125 1343.223999023438 603.751708984375 1343.223999023438 L 722.9100952148438 1343.223999023438 C 731.6204833984375 1343.223999023438 738.7068481445313 1350.266845703125 738.7068481445313 1358.923583984375 L 738.7068481445313 1541.053588867188 C 738.7068481445313 1549.714111328125 731.6204833984375 1556.760009765625 722.9100952148438 1556.760009765625 Z"/><path class="f" d="M 722.9100952148438 1556.260009765625 C 731.3447875976563 1556.260009765625 738.2068481445313 1549.4384765625 738.2068481445313 1541.053588867188 L 738.2068481445313 1358.923583984375 C 738.2068481445313 1350.54248046875 731.3447875976563 1343.723999023438 722.9100952148438 1343.723999023438 L 603.751708984375 1343.723999023438 C 595.3159790039063 1343.723999023438 588.4530029296875 1350.54248046875 588.4530029296875 1358.923583984375 L 588.4530029296875 1541.053588867188 C 588.4530029296875 1549.4384765625 595.3159790039063 1556.260009765625 603.751708984375 1556.260009765625 L 722.9100952148438 1556.260009765625 M 722.9100952148438 1557.260009765625 L 603.751708984375 1557.260009765625 C 594.7608642578125 1557.260009765625 587.4530029296875 1549.98583984375 587.4530029296875 1541.053588867188 L 587.4530029296875 1358.923583984375 C 587.4530029296875 1349.983276367188 594.7608642578125 1342.723999023438 603.751708984375 1342.723999023438 L 722.9100952148438 1342.723999023438 C 731.8919677734375 1342.723999023438 739.2068481445313 1349.983276367188 739.2068481445313 1358.923583984375 L 739.2068481445313 1541.053588867188 C 739.2068481445313 1549.98583984375 731.8919677734375 1557.260009765625 722.9100952148438 1557.260009765625 Z"/></g><g transform="translate(10.649 13.934)"><path class="c" d="M606.731,1367.616a3.417,3.417,0,0,1-.5,1.454,11.735,11.735,0,0,1-2,2.589q-1.5,1.53-1.615,1.622a3.735,3.735,0,0,1-2.331.708,4.32,4.32,0,0,1-3.26-1.447,3.569,3.569,0,0,1-1.166-2.375,3.316,3.316,0,0,1,.795-1.881c.535-.708,1.082-1.432,1.636-2.14a6.812,6.812,0,0,1-1.095-1.226,2.559,2.559,0,0,1-.472-1.507,4.012,4.012,0,0,1,.78-2.216c.509-.678.931-1.264,1.26-1.744a9.017,9.017,0,0,1,2.045-2.276,3.229,3.229,0,0,1,1.759-.526,3.878,3.878,0,0,1,2.467.807,2.646,2.646,0,0,1,1.032,2.193,4.1,4.1,0,0,1-1.238,2.825c-.822.891-1.233,1.5-1.233,1.835a24.378,24.378,0,0,1,2.138,1.576A2.34,2.34,0,0,1,606.731,1367.616Zm-3.093,2.1c0-.519-.6-1.135-1.811-1.858a6.109,6.109,0,0,0-2.071-.983c-.106,0-.266.183-.462.526a1.986,1.986,0,0,0-.293.906,2.419,2.419,0,0,0,1.182,1.858,3.58,3.58,0,0,0,2.073.8,1.351,1.351,0,0,0,.929-.4A1.143,1.143,0,0,0,603.638,1369.718Zm-.88-7.569a1.828,1.828,0,0,0-.641-1.234,2.246,2.246,0,0,0-1.651-.738,1,1,0,0,0-.71.258.829.829,0,0,0-.282.648c0,.517.4,1.088,1.2,1.683a3.573,3.573,0,0,0,1.347.791c.144,0,.3-.182.471-.525A2.1,2.1,0,0,0,602.758,1362.149Z" transform="translate(-595.856 -1356.651)"/></g><g transform="translate(135.741 185.304)"><path class="c" d="M722.133,1536.572a3.4,3.4,0,0,1,.495-1.447,12.027,12.027,0,0,1,2-2.6c1-1.013,1.538-1.554,1.614-1.615a3.711,3.711,0,0,1,2.334-.715,4.365,4.365,0,0,1,3.259,1.454,3.583,3.583,0,0,1,1.161,2.376,3.362,3.362,0,0,1-.792,1.881q-.8,1.062-1.633,2.139a6.841,6.841,0,0,1,1.094,1.219,2.6,2.6,0,0,1,.478,1.515,4.06,4.06,0,0,1-.78,2.215c-.514.678-.937,1.264-1.266,1.736a8.792,8.792,0,0,1-2.045,2.277,3.171,3.171,0,0,1-1.763.526,3.933,3.933,0,0,1-2.463-.8,2.669,2.669,0,0,1-1.037-2.193,4.124,4.124,0,0,1,1.239-2.832q1.239-1.336,1.237-1.828a24.669,24.669,0,0,1-2.137-1.576A2.355,2.355,0,0,1,722.133,1536.572Zm3.09-2.1c0,.518.6,1.135,1.808,1.858a6.083,6.083,0,0,0,2.073.982c.107,0,.261-.175.461-.517a1.983,1.983,0,0,0,.3-.914,2.39,2.39,0,0,0-1.2-1.85,3.493,3.493,0,0,0-2.061-.807,1.348,1.348,0,0,0-.929.4A1.161,1.161,0,0,0,725.223,1534.47Zm.879,7.569a1.826,1.826,0,0,0,.642,1.241,2.258,2.258,0,0,0,1.644.731,1.019,1.019,0,0,0,.716-.259.8.8,0,0,0,.276-.639c0-.518-.4-1.089-1.2-1.691a3.635,3.635,0,0,0-1.346-.784q-.217,0-.474.525A2.085,2.085,0,0,0,726.1,1542.039Z" transform="translate(-722.133 -1530.199)"/></g></g><g transform="translate(674.278 1360.276)"><path class="c" d="M701.323,1371.758a8.953,8.953,0,0,0,.232-2.1,9.385,9.385,0,0,0-18.771,0,9.256,9.256,0,0,0,.559,3.176,8.869,8.869,0,0,0,.7,17.711,26.566,26.566,0,0,0,6.934-2.033l-6.013,10.31,14.648-.016L693.6,1388.51a28.486,28.486,0,0,0,7.571,2.018,9.386,9.386,0,0,0,.154-18.77Z" transform="translate(-675.168 -1360.276)"/><path class="d" d="M701.323,1371.758a8.953,8.953,0,0,0,.232-2.1,9.372,9.372,0,0,0-9.387-9.38c-.009,0-.024.007-.039.007v38.529l7.488-.008L693.6,1388.51a28.486,28.486,0,0,0,7.571,2.018,9.386,9.386,0,0,0,.154-18.77Z" transform="translate(-675.168 -1360.276)"/></g><g transform="translate(674.278 1406.914)"><path class="c" d="M701.323,1419.181a8.911,8.911,0,0,0,.232-2.1,9.386,9.386,0,0,0-18.771,0,9.216,9.216,0,0,0,.559,3.175,8.873,8.873,0,0,0,.7,17.719,26.561,26.561,0,0,0,6.934-2.033l-6.013,10.31,14.648-.015-6.019-10.3a28.778,28.778,0,0,0,7.571,2.026,9.389,9.389,0,0,0,.154-18.777Z" transform="translate(-675.168 -1407.706)"/><path class="d" d="M701.323,1419.181a8.911,8.911,0,0,0,.232-2.1,9.366,9.366,0,0,0-9.387-9.373h-.039v38.536l7.488-.007-6.019-10.3a28.778,28.778,0,0,0,7.571,2.026,9.389,9.389,0,0,0,.154-18.777Z" transform="translate(-675.168 -1407.706)"/></g><g transform="translate(616.966 1360.276)"><path class="c" d="M626.519,1371.758a9.39,9.39,0,1,1,18.545-2.1,9.14,9.14,0,0,1-.56,3.176,8.869,8.869,0,0,1-.7,17.711,26.452,26.452,0,0,1-6.929-2.033l6.007,10.31-14.648-.016,6.014-10.294a28.366,28.366,0,0,1-7.565,2.018,9.386,9.386,0,0,1-.16-18.77Z" transform="translate(-617.283 -1360.276)"/><path class="d" d="M626.519,1371.758a9.43,9.43,0,0,1,9.154-11.482c.016,0,.031.007.046.007v38.529l-7.489-.008,6.014-10.294a28.366,28.366,0,0,1-7.565,2.018,9.386,9.386,0,0,1-.16-18.77Z" transform="translate(-617.283 -1360.276)"/></g><g transform="translate(616.966 1406.914)"><path class="c" d="M626.519,1419.181a9.39,9.39,0,1,1,18.545-2.1,9.1,9.1,0,0,1-.56,3.175,8.873,8.873,0,0,1-.7,17.719,26.448,26.448,0,0,1-6.929-2.033l6.007,10.31-14.648-.015,6.014-10.3a28.655,28.655,0,0,1-7.565,2.026,9.389,9.389,0,0,1-.16-18.777Z" transform="translate(-617.283 -1407.706)"/><path class="d" d="M626.519,1419.181a9.423,9.423,0,0,1,9.154-11.475h.046v38.536l-7.489-.007,6.014-10.3a28.655,28.655,0,0,1-7.565,2.026,9.389,9.389,0,0,1-.16-18.777Z" transform="translate(-617.283 -1407.706)"/></g><g transform="translate(674.278 1501.149)"><path class="c" d="M701.323,1530.389a8.952,8.952,0,0,1,.232,2.1,9.385,9.385,0,0,1-18.771,0,9.245,9.245,0,0,1,.559-3.175,8.865,8.865,0,0,1,.7-17.7,26.291,26.291,0,0,1,6.934,2.025l-6.013-10.31,14.648.016-6.019,10.294a28.754,28.754,0,0,1,7.571-2.017,9.385,9.385,0,0,1,.154,18.769Z" transform="translate(-675.168 -1503.327)"/><path class="d" d="M701.323,1530.389a8.952,8.952,0,0,1,.232,2.1,9.373,9.373,0,0,1-9.387,9.381c-.009,0-.024-.008-.039-.008v-38.529l7.488.008-6.019,10.294a28.754,28.754,0,0,1,7.571-2.017,9.385,9.385,0,0,1,.154,18.769Z" transform="translate(-675.168 -1503.327)"/></g><g transform="translate(674.278 1454.517)"><path class="c" d="M701.323,1482.959a8.953,8.953,0,0,1,.232,2.1,9.385,9.385,0,0,1-18.771,0,9.256,9.256,0,0,1,.559-3.176,8.865,8.865,0,0,1,.7-17.7,26.551,26.551,0,0,1,6.934,2.025l-6.013-10.31,14.648.015-6.019,10.3a28.471,28.471,0,0,1,7.571-2.026,9.386,9.386,0,0,1,.154,18.77Z" transform="translate(-675.168 -1455.897)"/><path class="d" d="M701.323,1482.959a8.953,8.953,0,0,1,.232,2.1,9.367,9.367,0,0,1-9.387,9.38h-.039v-38.536l7.488.007-6.019,10.3a28.471,28.471,0,0,1,7.571-2.026,9.386,9.386,0,0,1,.154,18.77Z" transform="translate(-675.168 -1455.897)"/></g><g transform="translate(616.966 1501.149)"><path class="c" d="M626.519,1530.389a9.391,9.391,0,1,0,18.545,2.1,9.129,9.129,0,0,0-.56-3.175,8.865,8.865,0,0,0-.7-17.7,26.179,26.179,0,0,0-6.929,2.025l6.007-10.31-14.648.016,6.014,10.294a28.632,28.632,0,0,0-7.565-2.017,9.385,9.385,0,0,0-.16,18.769Z" transform="translate(-617.283 -1503.327)"/><path class="d" d="M626.519,1530.389a9.43,9.43,0,0,0,9.154,11.483c.016,0,.031-.008.046-.008v-38.529l-7.489.008,6.014,10.294a28.632,28.632,0,0,0-7.565-2.017,9.385,9.385,0,0,0-.16,18.769Z" transform="translate(-617.283 -1503.327)"/></g><g transform="translate(616.966 1454.517)"><path class="c" d="M626.519,1482.959a9.39,9.39,0,1,0,18.545,2.1,9.14,9.14,0,0,0-.56-3.176,8.865,8.865,0,0,0-.7-17.7,26.437,26.437,0,0,0-6.929,2.025l6.007-10.31-14.648.015,6.014,10.3a28.35,28.35,0,0,0-7.565-2.026,9.386,9.386,0,0,0-.16,18.77Z" transform="translate(-617.283 -1455.897)"/><path class="d" d="M626.519,1482.959a9.43,9.43,0,0,0,9.154,11.482h.046v-38.536l-7.489.007,6.014,10.3a28.35,28.35,0,0,0-7.565-2.026,9.386,9.386,0,0,0-.16,18.77Z" transform="translate(-617.283 -1455.897)"/></g><g transform="translate(595.892 1381.838)"><path class="c" d="M601.854,1384.87a1.927,1.927,0,0,0,.061-.48,2.145,2.145,0,1,0-4.163.724,2.025,2.025,0,0,0,.165,4.043,5.925,5.925,0,0,0,1.578-.465l-1.368,2.354,3.341-.008-1.371-2.346a6.731,6.731,0,0,0,1.727.457,2.14,2.14,0,0,0,.03-4.279Z" transform="translate(-595.892 -1382.251)"/><path class="d" d="M601.854,1384.87a1.927,1.927,0,0,0,.061-.48,2.145,2.145,0,0,0-2.148-2.139h-.011v8.8l1.712-.008-1.371-2.346a6.731,6.731,0,0,0,1.727.457,2.14,2.14,0,0,0,.03-4.279Z" transform="translate(-595.892 -1382.251)"/></g><g transform="translate(722.692 1514.548)"><path class="c" d="M729.849,1522.531a2.183,2.183,0,0,1,.051.48,2.141,2.141,0,0,1-4.281,0,2.112,2.112,0,0,1,.127-.724,2.024,2.024,0,0,1,.16-4.043,6.072,6.072,0,0,1,1.584.465l-1.373-2.346h3.341l-1.372,2.346a6.493,6.493,0,0,1,1.732-.457,2.14,2.14,0,0,1,.031,4.279Z" transform="translate(-723.877 -1516.363)"/><path class="d" d="M729.849,1522.531a2.183,2.183,0,0,1,.051.48,2.139,2.139,0,0,1-2.138,2.139h-.011v-8.787h1.707l-1.372,2.346a6.493,6.493,0,0,1,1.732-.457,2.14,2.14,0,0,1,.031,4.279Z" transform="translate(-723.877 -1516.363)"/></g></g></svg>