<svg xmlns="http://www.w3.org/2000/svg" width="154" height="215" viewBox="0 0 154 215"><defs><style>.a{fill:#c9c9c9;}.b{fill:#fff;}.c{fill:#333;}.d{fill:#616161;opacity:0.2;}.e,.f{stroke:none;}.f{fill:#c4c4c4;}</style></defs><g transform="translate(-585.201 -1085.502)"><g transform="translate(585.201 1085.502)"><path class="a" d="M602.225,1300.5a16.38,16.38,0,0,1-16.55-16.169l-.474-182.564a16.367,16.367,0,0,1,16.533-16.267l120.927.226a16.445,16.445,0,0,1,16.509,16.29V1284.19a16.338,16.338,0,0,1-16.449,16.168Z" transform="translate(-585.201 -1085.502)"/><g class="b" transform="translate(-585.201 -1085.502)"><path class="e" d="M 722.897705078125 1299.544921875 L 603.7451782226563 1299.544921875 C 595.0313110351563 1299.544921875 587.9420166015625 1292.4990234375 587.9420166015625 1283.838500976563 L 587.9420166015625 1101.708618164063 C 587.9420166015625 1093.052368164063 595.0313110351563 1086.010009765625 603.7451782226563 1086.010009765625 L 722.897705078125 1086.010009765625 C 731.6116333007813 1086.010009765625 738.700927734375 1093.052368164063 738.700927734375 1101.708618164063 L 738.700927734375 1283.838500976563 C 738.700927734375 1292.4990234375 731.6116333007813 1299.544921875 722.897705078125 1299.544921875 Z"/><path class="f" d="M 722.897705078125 1299.044921875 C 731.3359375 1299.044921875 738.200927734375 1292.223388671875 738.200927734375 1283.838500976563 L 738.200927734375 1101.708618164063 C 738.200927734375 1093.328125 731.3359375 1086.510009765625 722.897705078125 1086.510009765625 L 603.7451782226563 1086.510009765625 C 595.3070068359375 1086.510009765625 588.4420166015625 1093.328125 588.4420166015625 1101.708618164063 L 588.4420166015625 1283.838500976563 C 588.4420166015625 1292.223388671875 595.3070068359375 1299.044921875 603.7451782226563 1299.044921875 L 722.897705078125 1299.044921875 M 722.897705078125 1300.044921875 L 603.7451782226563 1300.044921875 C 594.7601318359375 1300.044921875 587.4420166015625 1292.778686523438 587.4420166015625 1283.838500976563 L 587.4420166015625 1101.708618164063 C 587.4420166015625 1092.776245117188 594.7601318359375 1085.510009765625 603.7451782226563 1085.510009765625 L 722.897705078125 1085.510009765625 C 731.8847045898438 1085.510009765625 739.200927734375 1092.776245117188 739.200927734375 1101.708618164063 L 739.200927734375 1283.838500976563 C 739.200927734375 1292.778686523438 731.8847045898438 1300.044921875 722.897705078125 1300.044921875 Z"/></g><g transform="translate(10.326 13.965)"><path class="c" d="M606.71,1105.406a10.649,10.649,0,0,1-.775,3.777,10.029,10.029,0,0,1-1.608,2.985,28.379,28.379,0,0,1-2.808,2.8c-1.443,1.241-2.595,1.858-3.447,1.858a.41.41,0,0,1-.242-.092,1.933,1.933,0,0,1-.211-.221,11.842,11.842,0,0,0,2.424-2.139,18.005,18.005,0,0,0,2.434-3.754v-.312c-.069-.031-.13-.069-.191-.092-.637.282-1.218.533-1.753.739a3.984,3.984,0,0,1-1.415.312,3.058,3.058,0,0,1-2.331-1.363,5.687,5.687,0,0,1-1.26-3.739c0-1.423.852-2.931,2.569-4.515,1.573-1.454,2.878-2.185,3.928-2.185a4.19,4.19,0,0,1,2.944,1.545A6.148,6.148,0,0,1,606.71,1105.406Zm-3.617,2.079a5.041,5.041,0,0,0-1.285-3.518,3.234,3.234,0,0,0-2.334-1.264c-.184,0-.314.107-.38.342a3.112,3.112,0,0,0-.093.777,4.856,4.856,0,0,0,.9,2.993c.729.967,1.429,1.454,2.1,1.454a1.78,1.78,0,0,0,.736-.122A.689.689,0,0,0,603.093,1107.485Z" transform="translate(-595.527 -1099.467)"/></g><g transform="translate(135.769 185.258)"><path class="c" d="M722.169,1284.352a10.687,10.687,0,0,1,.771-3.769,9.959,9.959,0,0,1,1.609-2.977,28.324,28.324,0,0,1,2.808-2.81c1.442-1.233,2.589-1.858,3.447-1.858a.37.37,0,0,1,.236.092,2.3,2.3,0,0,1,.217.213,11.925,11.925,0,0,0-2.431,2.155,17.4,17.4,0,0,0-2.427,3.754v.312a1.427,1.427,0,0,1,.19.084c.638-.282,1.219-.526,1.754-.739a3.971,3.971,0,0,1,1.412-.3,3.041,3.041,0,0,1,2.334,1.363,5.684,5.684,0,0,1,1.266,3.724c0,1.432-.864,2.939-2.576,4.523-1.568,1.462-2.878,2.185-3.927,2.185a4.177,4.177,0,0,1-2.945-1.546A6.152,6.152,0,0,1,722.169,1284.352Zm3.619-2.071a5.086,5.086,0,0,0,1.279,3.526,3.237,3.237,0,0,0,2.328,1.263.385.385,0,0,0,.381-.342,2.624,2.624,0,0,0,.1-.777,4.745,4.745,0,0,0-.91-2.992c-.724-.967-1.424-1.462-2.092-1.462a1.658,1.658,0,0,0-.739.122A.679.679,0,0,0,725.788,1282.281Z" transform="translate(-722.169 -1272.938)"/></g></g><g transform="translate(674.5 1103.068)"><path class="c" d="M701.565,1114.543a9.632,9.632,0,0,0,.236-2.1,9.388,9.388,0,0,0-18.776,0,9.155,9.155,0,0,0,.56,3.175,8.869,8.869,0,0,0,.7,17.711,26.823,26.823,0,0,0,6.93-2.025l-6.014,10.3,14.652-.015L693.84,1131.3a28.694,28.694,0,0,0,7.57,2.01,9.386,9.386,0,0,0,.155-18.77Z" transform="translate(-675.403 -1103.068)"/><path class="d" d="M701.565,1114.543a9.632,9.632,0,0,0,.236-2.1,9.374,9.374,0,0,0-9.391-9.374c-.009,0-.03.008-.045.008V1141.6l7.492-.007L693.84,1131.3a28.694,28.694,0,0,0,7.57,2.01,9.386,9.386,0,0,0,.155-18.77Z" transform="translate(-675.403 -1103.068)"/></g><g transform="translate(646.087 1173.737)"><path class="c" d="M672.858,1186.3a9.12,9.12,0,0,0,.233-2.1,9.388,9.388,0,0,0-18.776,0,9.184,9.184,0,0,0,.566,3.167,8.87,8.87,0,0,0,.7,17.712,26.963,26.963,0,0,0,6.933-2.018l-6.013,10.3,14.642-.023-6.014-10.287a28.66,28.66,0,0,0,7.571,2.01,9.381,9.381,0,0,0,.154-18.761Z" transform="translate(-646.703 -1174.826)"/><path class="d" d="M672.858,1186.3a9.12,9.12,0,0,0,.233-2.1,9.364,9.364,0,0,0-9.385-9.374h-.042v38.529l7.483-.015-6.014-10.287a28.66,28.66,0,0,0,7.571,2.01,9.381,9.381,0,0,0,.154-18.761Z" transform="translate(-646.703 -1174.826)"/></g><g transform="translate(674.5 1149.707)"><path class="c" d="M701.565,1161.966a9.575,9.575,0,0,0,.236-2.094,9.388,9.388,0,0,0-18.776,0,9.088,9.088,0,0,0,.56,3.168,8.872,8.872,0,0,0,.7,17.718,26.828,26.828,0,0,0,6.93-2.025l-6.014,10.3,14.652-.015-6.017-10.3a28.99,28.99,0,0,0,7.57,2.018,9.389,9.389,0,0,0,.155-18.777Z" transform="translate(-675.403 -1150.499)"/><path class="d" d="M701.565,1161.966a9.575,9.575,0,0,0,.236-2.094,9.368,9.368,0,0,0-9.391-9.373h-.045v38.528l7.492-.007-6.017-10.3a28.99,28.99,0,0,0,7.57,2.018,9.389,9.389,0,0,0,.155-18.777Z" transform="translate(-675.403 -1150.499)"/></g><g transform="translate(617.201 1103.068)"><path class="c" d="M626.755,1114.543a9.877,9.877,0,0,1-.23-2.1,9.387,9.387,0,0,1,18.775,0,9.226,9.226,0,0,1-.56,3.175,8.869,8.869,0,0,1-.7,17.711,26.775,26.775,0,0,1-6.933-2.025l6.008,10.3-14.643-.015,6.012-10.287a28.589,28.589,0,0,1-7.565,2.01,9.386,9.386,0,0,1-.16-18.77Z" transform="translate(-617.524 -1103.068)"/><path class="d" d="M626.755,1114.543a9.877,9.877,0,0,1-.23-2.1,9.372,9.372,0,0,1,9.39-9.374c.01,0,.021.008.036.008V1141.6l-7.483-.007,6.012-10.287a28.589,28.589,0,0,1-7.565,2.01,9.386,9.386,0,0,1-.16-18.77Z" transform="translate(-617.524 -1103.068)"/></g><g transform="translate(617.201 1149.707)"><path class="c" d="M626.755,1161.966a9.819,9.819,0,0,1-.23-2.094,9.387,9.387,0,0,1,18.775,0,9.158,9.158,0,0,1-.56,3.168,8.873,8.873,0,0,1-.7,17.718,26.78,26.78,0,0,1-6.933-2.025l6.008,10.3-14.643-.015,6.012-10.3a28.883,28.883,0,0,1-7.565,2.018,9.389,9.389,0,0,1-.16-18.777Z" transform="translate(-617.524 -1150.499)"/><path class="d" d="M626.755,1161.966a9.819,9.819,0,0,1-.23-2.094,9.366,9.366,0,0,1,9.39-9.373h.036v38.528l-7.483-.007,6.012-10.3a28.883,28.883,0,0,1-7.565,2.018,9.389,9.389,0,0,1-.16-18.777Z" transform="translate(-617.524 -1150.499)"/></g><g transform="translate(674.5 1243.935)"><path class="c" d="M701.565,1273.174a9.665,9.665,0,0,1,.236,2.109,9.388,9.388,0,0,1-18.776,0,9.2,9.2,0,0,1,.56-3.182,8.865,8.865,0,0,1,.7-17.7,26.484,26.484,0,0,1,6.93,2.026l-6.014-10.31,14.652.015-6.017,10.3a28.468,28.468,0,0,1,7.57-2.025,9.385,9.385,0,0,1,.155,18.769Z" transform="translate(-675.403 -1246.113)"/><path class="d" d="M701.565,1273.174a9.665,9.665,0,0,1,.236,2.109,9.374,9.374,0,0,1-9.391,9.374c-.009,0-.03-.008-.045-.008V1246.12l7.492.008-6.017,10.3a28.468,28.468,0,0,1,7.57-2.025,9.385,9.385,0,0,1,.155,18.769Z" transform="translate(-675.403 -1246.113)"/></g><g transform="translate(674.5 1197.303)"><path class="c" d="M701.565,1225.744a9.664,9.664,0,0,1,.236,2.109,9.388,9.388,0,0,1-18.776,0,9.19,9.19,0,0,1,.56-3.182,8.865,8.865,0,0,1,.7-17.7,26.828,26.828,0,0,1,6.93,2.025l-6.014-10.309,14.652.015L693.84,1209a28.738,28.738,0,0,1,7.57-2.025,9.385,9.385,0,0,1,.155,18.769Z" transform="translate(-675.403 -1198.683)"/><path class="d" d="M701.565,1225.744a9.664,9.664,0,0,1,.236,2.109,9.375,9.375,0,0,1-9.391,9.374h-.045V1198.69l7.492.008L693.84,1209a28.738,28.738,0,0,1,7.57-2.025,9.385,9.385,0,0,1,.155,18.769Z" transform="translate(-675.403 -1198.683)"/></g><g transform="translate(617.201 1243.935)"><path class="c" d="M626.755,1273.174a9.911,9.911,0,0,0-.23,2.109,9.387,9.387,0,0,0,18.775,0,9.267,9.267,0,0,0-.56-3.182,8.865,8.865,0,0,0-.7-17.7,26.438,26.438,0,0,0-6.933,2.026l6.008-10.31-14.643.015,6.012,10.3a28.364,28.364,0,0,0-7.565-2.025,9.385,9.385,0,0,0-.16,18.769Z" transform="translate(-617.524 -1246.113)"/><path class="d" d="M626.755,1273.174a9.911,9.911,0,0,0-.23,2.109,9.372,9.372,0,0,0,9.39,9.374c.01,0,.021-.008.036-.008V1246.12l-7.483.008,6.012,10.3a28.364,28.364,0,0,0-7.565-2.025,9.385,9.385,0,0,0-.16,18.769Z" transform="translate(-617.524 -1246.113)"/></g><g transform="translate(617.201 1197.303)"><path class="c" d="M626.755,1225.744a9.91,9.91,0,0,0-.23,2.109,9.387,9.387,0,0,0,18.775,0,9.262,9.262,0,0,0-.56-3.182,8.865,8.865,0,0,0-.7-17.7,26.779,26.779,0,0,0-6.933,2.025l6.008-10.309-14.643.015,6.012,10.3a28.632,28.632,0,0,0-7.565-2.025,9.385,9.385,0,0,0-.16,18.769Z" transform="translate(-617.524 -1198.683)"/><path class="d" d="M626.755,1225.744a9.91,9.91,0,0,0-.23,2.109,9.373,9.373,0,0,0,9.39,9.374h.036V1198.69l-7.483.008,6.012,10.3a28.632,28.632,0,0,0-7.565-2.025,9.385,9.385,0,0,0-.16,18.769Z" transform="translate(-617.524 -1198.683)"/></g><g transform="translate(596.031 1124.623)"><path class="c" d="M602,1127.655a2.387,2.387,0,0,0,.057-.479,2.143,2.143,0,0,0-4.287,0,2.108,2.108,0,0,0,.13.723,2.025,2.025,0,0,0,.159,4.043,5.92,5.92,0,0,0,1.577-.464l-1.371,2.36,3.344-.007-1.366-2.353a6.46,6.46,0,0,0,1.726.457,2.14,2.14,0,0,0,.031-4.28Z" transform="translate(-596.031 -1125.036)"/><path class="d" d="M602,1127.655a2.387,2.387,0,0,0,.057-.479,2.144,2.144,0,0,0-2.147-2.14H599.9v8.8l1.711-.007-1.366-2.353a6.46,6.46,0,0,0,1.726.457,2.14,2.14,0,0,0,.031-4.28Z" transform="translate(-596.031 -1125.036)"/></g><g transform="translate(722.826 1257.333)"><path class="c" d="M730,1265.316a2.448,2.448,0,0,1,.051.48,2.143,2.143,0,1,1-4.287,0,2.218,2.218,0,0,1,.13-.716,2.025,2.025,0,0,1,.163-4.043,6.242,6.242,0,0,1,1.579.457l-1.373-2.346h3.346l-1.372,2.353a6.189,6.189,0,0,1,1.727-.464,2.14,2.14,0,0,1,.036,4.279Z" transform="translate(-724.025 -1259.148)"/><path class="d" d="M730,1265.316a2.448,2.448,0,0,1,.051.48,2.145,2.145,0,0,1-2.143,2.147h-.01v-8.8h1.711l-1.372,2.353a6.189,6.189,0,0,1,1.727-.464,2.14,2.14,0,0,1,.036,4.279Z" transform="translate(-724.025 -1259.148)"/></g></g></svg>