<svg xmlns="http://www.w3.org/2000/svg" width="154" height="215" viewBox="0 0 154 215"><defs><style>.a{fill:#c9c9c9;}.b{fill:#fff;}.c{fill:#d66142;}.d{fill:#616161;opacity:0.2;}.e{fill:#be6148;}.f,.g{stroke:none;}.g{fill:#c4c4c4;}</style></defs><g transform="translate(-957.511 -57.423)"><g transform="translate(957.511 57.423)"><path class="a" d="M974.543,272.423A16.4,16.4,0,0,1,957.98,256.26l-.469-182.569a16.38,16.38,0,0,1,16.537-16.268l120.927.222a16.446,16.446,0,0,1,16.5,16.292V256.111a16.339,16.339,0,0,1-16.448,16.172Z" transform="translate(-957.511 -57.423)"/></g><g class="b" transform="translate(0)"><path class="f" d="M 1095.202880859375 271.4760131835938 L 976.0309448242188 271.4760131835938 C 967.31494140625 271.4760131835938 960.2239379882813 264.4297485351563 960.2239379882813 255.7687225341797 L 960.2239379882813 73.63623046875 C 960.2239379882813 64.97853088378906 967.31494140625 57.93500518798828 976.0309448242188 57.93500518798828 L 1095.202880859375 57.93500518798828 C 1103.91943359375 57.93500518798828 1111.010864257813 64.97853088378906 1111.010864257813 73.63623046875 L 1111.010864257813 255.7687225341797 C 1111.010864257813 264.4297485351563 1103.91943359375 271.4760131835938 1095.202880859375 271.4760131835938 Z"/><path class="g" d="M 1095.202880859375 270.9760131835938 C 1103.643676757813 270.9760131835938 1110.510864257813 264.154052734375 1110.510864257813 255.7687225341797 L 1110.510864257813 73.63623046875 C 1110.510864257813 65.25425720214844 1103.643676757813 58.43500518798828 1095.202880859375 58.43500518798828 L 976.0309448242188 58.43500518798828 C 967.5906372070313 58.43500518798828 960.7239379882813 65.25425720214844 960.7239379882813 73.63623046875 L 960.7239379882813 255.7687225341797 C 960.7239379882813 264.154052734375 967.5906372070313 270.9760131835938 976.0309448242188 270.9760131835938 L 1095.202880859375 270.9760131835938 M 1095.202880859375 271.9760131835938 L 976.0309448242188 271.9760131835938 C 967.0490112304688 271.9760131835938 959.7239379882813 264.7008056640625 959.7239379882813 255.7687225341797 L 959.7239379882813 73.63623046875 C 959.7239379882813 64.70211791992188 967.0490112304688 57.43500518798828 976.0309448242188 57.43500518798828 L 1095.202880859375 57.43500518798828 C 1104.19384765625 57.43500518798828 1111.510864257813 64.70211791992188 1111.510864257813 73.63623046875 L 1111.510864257813 255.7687225341797 C 1111.510864257813 264.7008056640625 1104.19384765625 271.9760131835938 1095.202880859375 271.9760131835938 Z"/></g><g transform="translate(1048.609 72.803)"><path class="c" d="M1063.668,72.8l-15.941,20.129,15.941,20.142,15.956-20.142Z" transform="translate(-1047.727 -72.803)"/><path class="d" d="M1063.565,72.936l.1-.133,15.956,20.129-15.956,20.142-.1-.139Z" transform="translate(-1047.727 -72.803)"/></g><g transform="translate(990.758 144.564)"><path class="c" d="M1006.381,143.988l15.944,20.132-15.944,20.142L990.436,164.12Z" transform="translate(-990.436 -143.988)"/><path class="d" d="M1006.484,144.121l-.1-.133L990.436,164.12l15.945,20.142.1-.133Z" transform="translate(-990.436 -143.988)"/></g><g transform="translate(1018.545 110.293)"><path class="c" d="M1033.911,109.944l15.941,20.133-15.941,20.148-15.956-20.148Z" transform="translate(-1017.955 -109.944)"/><path class="d" d="M1034.014,110.083l-.1-.139-15.956,20.133,15.956,20.148.1-.139Z" transform="translate(-1017.955 -109.944)"/></g><g transform="translate(990.758 216.334)"><path class="c" d="M1006.381,215.179l15.944,20.133-15.944,20.138-15.945-20.138Z" transform="translate(-990.436 -215.179)"/><path class="d" d="M1006.484,215.312l-.1-.133-15.945,20.133,15.945,20.138.1-.129Z" transform="translate(-990.436 -215.179)"/></g><g transform="translate(990.758 72.803)"><path class="c" d="M1006.381,72.8l15.944,20.129-15.944,20.142L990.436,92.931Z" transform="translate(-990.436 -72.803)"/><path class="d" d="M1006.484,72.936l-.1-.133L990.436,92.931l15.945,20.142.1-.139Z" transform="translate(-990.436 -72.803)"/></g><g transform="translate(1048.609 144.564)"><path class="c" d="M1063.668,143.988l-15.941,20.132,15.941,20.142,15.956-20.142Z" transform="translate(-1047.727 -143.988)"/><path class="d" d="M1063.565,144.121l.1-.133,15.956,20.132-15.956,20.142-.1-.133Z" transform="translate(-1047.727 -143.988)"/></g><g transform="translate(1048.609 216.334)"><path class="c" d="M1063.668,215.179l-15.941,20.133,15.941,20.138,15.956-20.138Z" transform="translate(-1047.727 -215.179)"/><path class="d" d="M1063.565,215.312l.1-.133,15.956,20.133-15.956,20.138-.1-.129Z" transform="translate(-1047.727 -215.179)"/></g><g transform="translate(967.783 94.451)"><path class="c" d="M972.428,105.963l-4.645-5.863,4.645-5.859,4.637,5.859Z" transform="translate(-967.783 -94.241)"/><path class="d" d="M972.428,94.241l-.042.042v11.64l.042.04,4.637-5.863Z" transform="translate(-967.783 -94.241)"/></g><g transform="translate(967.548 70.886)"><path class="e" d="M978.71,71.194c-.289.529-.567,1.045-.814,1.548q-.846,1.682-1.386,2.872c-.423.921-.8,1.8-1.15,2.625-.495,1.2-.754,1.807-.754,1.822-.274.579-.666,1.3-1.161,2.174q-.926,1.573-1.447,2.273a18.7,18.7,0,0,1-1.862,2.056,13.7,13.7,0,0,1-2.333,1.757,1.621,1.621,0,0,1-.187-.114.286.286,0,0,1-.068-.212,6.514,6.514,0,0,1,1.065-1.542,13.264,13.264,0,0,0,.99-1.357,15.916,15.916,0,0,0,.811-1.546c.255-.576.514-1.182.781-1.8q1.05-2.156,1.778-3.976c.3-.752.6-1.59.894-2.524,0-.318-1.1-.473-3.278-.473a3.573,3.573,0,0,0-.967.155,2.662,2.662,0,0,0-.955.531h-.64v-.5a10.887,10.887,0,0,1,2.932-3.019,4.4,4.4,0,0,1,2.364-.683c.255,0,.647.037,1.173.1a11.033,11.033,0,0,0,1.222.093c.4-.011.719-.03.955-.046a3.014,3.014,0,0,0,1.573-.519h.392Z" transform="translate(-967.548 -70.886)"/></g><g transform="translate(1093.53 243.087)"><path class="e" d="M1092.348,259.061c.3-.535.567-1.047.822-1.55.556-1.121,1.02-2.079,1.378-2.874.423-.926.8-1.8,1.15-2.624.495-1.2.754-1.806.754-1.821.274-.579.666-1.3,1.161-2.18a24.908,24.908,0,0,1,1.458-2.267,18.636,18.636,0,0,1,1.85-2.062,13.451,13.451,0,0,1,2.346-1.751c.061.03.11.07.175.11a.3.3,0,0,1,.08.217,6.932,6.932,0,0,1-1.078,1.542,13.423,13.423,0,0,0-.99,1.357,14.564,14.564,0,0,0-.811,1.543c-.254.58-.513,1.178-.78,1.8-.7,1.431-1.294,2.762-1.778,3.975-.3.754-.6,1.591-.894,2.528,0,.314,1.1.468,3.277.468a3.421,3.421,0,0,0,.967-.154,2.652,2.652,0,0,0,.956-.529h.64v.5a10.872,10.872,0,0,1-2.932,3.019,4.417,4.417,0,0,1-2.364.677c-.255,0-.636-.03-1.173-.087a10.385,10.385,0,0,0-1.222-.1c-.4.015-.719.032-.956.049a3.078,3.078,0,0,0-1.572.514h-.4Z" transform="translate(-1092.348 -241.932)"/></g><g transform="translate(1095.174 225.243)"><path class="c" d="M1098.63,224.289l4.645,5.858-4.645,5.859-4.637-5.859Z" transform="translate(-1093.992 -224.289)"/><path class="d" d="M1098.66,224.322l-.03-.032-4.637,5.858,4.637,5.859.03-.036Z" transform="translate(-1093.992 -224.289)"/></g></g></svg>