<svg xmlns="http://www.w3.org/2000/svg" width="154" height="215" viewBox="0 0 154 215"><defs><style>.a{fill:#c9c9c9;}.b{fill:#fff;}.c{fill:#be6148;}.d{fill:#d66142;}.e{fill:#616161;opacity:0.2;}.f,.g{stroke:none;}.g{fill:#c4c4c4;}</style></defs><g transform="translate(-1339.664 -826.17)"><g transform="translate(1339.664 826.17)"><path class="a" d="M1356.68,1041.17a16.4,16.4,0,0,1-16.545-16.162l-.471-182.578a16.352,16.352,0,0,1,16.526-16.26l120.945.219a16.44,16.44,0,0,1,16.5,16.29v182.171a16.346,16.346,0,0,1-16.457,16.177Z" transform="translate(-1339.664 -826.17)"/><g class="b" transform="translate(-1339.664 -826.17)"><path class="f" d="M 1477.3671875 1040.212890625 L 1358.206787109375 1040.212890625 C 1349.494262695313 1040.212890625 1342.406127929688 1033.163452148438 1342.406127929688 1024.49853515625 L 1342.406127929688 842.3843994140625 C 1342.406127929688 833.723876953125 1349.494262695313 826.677978515625 1358.206787109375 826.677978515625 L 1477.3671875 826.677978515625 C 1486.077514648438 826.677978515625 1493.163940429688 833.723876953125 1493.163940429688 842.3843994140625 L 1493.163940429688 1024.49853515625 C 1493.163940429688 1033.163452148438 1486.077514648438 1040.212890625 1477.3671875 1040.212890625 Z"/><path class="g" d="M 1477.3671875 1039.712890625 C 1485.801879882813 1039.712890625 1492.663940429688 1032.887817382813 1492.663940429688 1024.49853515625 L 1492.663940429688 842.3843994140625 C 1492.663940429688 833.9995727539063 1485.801879882813 827.177978515625 1477.3671875 827.177978515625 L 1358.206787109375 827.177978515625 C 1349.77001953125 827.177978515625 1342.906127929688 833.9995727539063 1342.906127929688 842.3843994140625 L 1342.906127929688 1024.49853515625 C 1342.906127929688 1032.887817382813 1349.77001953125 1039.712890625 1358.206787109375 1039.712890625 L 1477.3671875 1039.712890625 M 1477.3671875 1040.712890625 L 1358.206787109375 1040.712890625 C 1349.215942382813 1040.712890625 1341.906127929688 1033.438720703125 1341.906127929688 1024.49853515625 L 1341.906127929688 842.3843994140625 C 1341.906127929688 833.4442138671875 1349.215942382813 826.177978515625 1358.206787109375 826.177978515625 L 1477.3671875 826.177978515625 C 1486.35400390625 826.177978515625 1493.663940429688 833.4442138671875 1493.663940429688 842.3843994140625 L 1493.663940429688 1024.49853515625 C 1493.663940429688 1033.438720703125 1486.35400390625 1040.712890625 1477.3671875 1040.712890625 Z"/></g><g transform="translate(7.675 13.996)"><path class="c" d="M1361.076,847.635a1.45,1.45,0,0,1-.3.838c-.239.289-.388.48-.464.579a15.442,15.442,0,0,1-1.873,2.421c-.4.259-.8.51-1.177.754a.967.967,0,0,0-.2.6,1.9,1.9,0,0,1,.073.449,6.3,6.3,0,0,0,.091,1.142c.076.335.156.5.267.5a.72.72,0,0,0,.43-.167,5.254,5.254,0,0,1,.906-.663,2.247,2.247,0,0,1,.164.381c0,.228-.438.762-1.314,1.592a4.431,4.431,0,0,1-2.878,1.477c-.625,0-1.036-.838-1.215-2.513a9.4,9.4,0,0,0-.472-2.764h-5.539a2.2,2.2,0,0,1-.206-.137,1.081,1.081,0,0,1-.034-.373,5.788,5.788,0,0,1,1.093-2.048c.67-.968,1.7-2.308,3.095-4,.434-.526.872-1.059,1.3-1.592.289-.335.678-.762,1.173-1.279s1.02-1.1,1.6-1.782c.495-.579.872-.883,1.161-.883l.308.076v8.4a1.555,1.555,0,0,0,.594.2,2.117,2.117,0,0,1,.267-.037,2.7,2.7,0,0,0,1.728-.61c.392-.35.773-.7,1.173-1.043a2.112,2.112,0,0,1,.179.114C1361.045,847.293,1361.076,847.422,1361.076,847.635Zm-7.794.861v-1.188a8.865,8.865,0,0,0-.068-1.058,11.592,11.592,0,0,0-1.329,1.462c-.172.22-.411.54-.72.959l.2.091h1.592Z" transform="translate(-1347.339 -840.166)"/></g><g transform="translate(135.847 185.204)"><path class="c" d="M1476.7,1023.452a1.472,1.472,0,0,1,.29-.837,5.778,5.778,0,0,0,.464-.571,16.561,16.561,0,0,1,1.873-2.422c.412-.259.8-.518,1.192-.761a1.035,1.035,0,0,0,.183-.594,3.356,3.356,0,0,1-.073-.457,6.423,6.423,0,0,0-.091-1.142c-.061-.335-.156-.5-.259-.5a.76.76,0,0,0-.438.168,6.471,6.471,0,0,1-.9.677,1.845,1.845,0,0,1-.164-.388c0-.236.43-.769,1.306-1.592a4.462,4.462,0,0,1,2.878-1.477c.64,0,1.036.838,1.215,2.513a9.37,9.37,0,0,0,.479,2.764h5.532c.122.069.183.115.217.13a2.01,2.01,0,0,1,.023.373,5.656,5.656,0,0,1-1.093,2.048c-.654.975-1.682,2.307-3.083,4.013-.446.518-.876,1.051-1.314,1.584-.282.342-.678.761-1.165,1.279s-1.028,1.112-1.6,1.782c-.479.578-.871.883-1.153.883l-.316-.076v-8.4a1.564,1.564,0,0,0-.594-.19c-.118.015-.206.03-.267.03a2.761,2.761,0,0,0-1.728.609c-.385.351-.773.7-1.173,1.051a1.793,1.793,0,0,1-.164-.122C1476.731,1023.795,1476.7,1023.673,1476.7,1023.452Zm7.786-.86v1.188a6.7,6.7,0,0,0,.084,1.065,11.285,11.285,0,0,0,1.321-1.461c.179-.229.411-.541.712-.96l-.183-.091h-1.6Z" transform="translate(-1476.696 -1013.553)"/></g></g><g transform="translate(1378.067 851.839)"><path class="d" d="M1378.448,861.189c.388,7.424,15.293,18.724,15.293,18.724s15.332-11.384,15.332-18.823a9.293,9.293,0,0,0-9.309-9.251c-2.878,0-6.084,2.588-6.084,2.588s-3.03-2.588-5.989-2.551C1382.571,851.945,1378.173,856.065,1378.448,861.189Z" transform="translate(-1378.436 -851.839)"/><path class="e" d="M1387.691,851.876c2.959-.037,5.989,2.551,5.989,2.551a.9.9,0,0,0,.118-.084v25.539a.274.274,0,0,1-.057.031s-14.9-11.3-15.293-18.724C1378.173,856.065,1382.571,851.945,1387.691,851.876Z" transform="translate(-1378.436 -851.839)"/></g><g transform="translate(1432.705 851.839)"><path class="d" d="M1464.216,861.189c-.395,7.424-15.3,18.724-15.3,18.724S1433.6,868.529,1433.6,861.09a9.281,9.281,0,0,1,9.3-9.251c2.878,0,6.076,2.588,6.076,2.588s3.031-2.588,5.989-2.551C1460.085,851.945,1464.5,856.065,1464.216,861.189Z" transform="translate(-1433.599 -851.839)"/><path class="e" d="M1454.965,851.876c-2.958-.037-5.989,2.551-5.989,2.551s-.042-.03-.1-.084v25.539a.148.148,0,0,0,.042.031s14.906-11.3,15.3-18.724C1464.5,856.065,1460.085,851.945,1454.965,851.876Z" transform="translate(-1433.599 -851.839)"/></g><g transform="translate(1378.067 987.435)"><path class="d" d="M1378.448,1008.33c.388-7.424,15.293-18.716,15.293-18.716s15.332,11.376,15.332,18.815a9.3,9.3,0,0,1-9.309,9.251c-2.878,0-6.084-2.588-6.084-2.588s-3.03,2.588-5.989,2.55C1382.571,1017.574,1378.173,1013.462,1378.448,1008.33Z" transform="translate(-1378.436 -989.614)"/><path class="e" d="M1387.691,1017.642c2.959.038,5.989-2.55,5.989-2.55a.517.517,0,0,1,.118.076V989.637a.457.457,0,0,0-.057-.023s-14.9,11.292-15.293,18.716C1378.173,1013.462,1382.571,1017.574,1387.691,1017.642Z" transform="translate(-1378.436 -989.614)"/></g><g transform="translate(1432.705 987.435)"><path class="d" d="M1464.216,1008.33c-.395-7.424-15.3-18.716-15.3-18.716s-15.316,11.376-15.316,18.815a9.286,9.286,0,0,0,9.3,9.251c2.878,0,6.076-2.588,6.076-2.588s3.031,2.588,5.989,2.55C1460.085,1017.574,1464.5,1013.462,1464.216,1008.33Z" transform="translate(-1433.599 -989.614)"/><path class="e" d="M1454.965,1017.642c-2.958.038-5.989-2.55-5.989-2.55a.586.586,0,0,0-.1.076V989.637a.2.2,0,0,1,.042-.023s14.906,11.292,15.3,18.716C1464.5,1013.462,1460.085,1017.574,1454.965,1017.642Z" transform="translate(-1433.599 -989.614)"/></g><g transform="translate(1348.39 864.625)"><path class="d" d="M1359.157,868.324c-.145,2.611-5.38,6.579-5.38,6.579s-5.387-4.006-5.387-6.617a3.26,3.26,0,0,1,3.266-3.252,4.251,4.251,0,0,1,2.14.907,3.818,3.818,0,0,1,2.109-.884A3.209,3.209,0,0,1,1359.157,868.324Z" transform="translate(-1348.39 -865.034)"/><path class="e" d="M1355.905,865.057a3.818,3.818,0,0,0-2.109.884.081.081,0,0,1-.042-.016V874.9h.023s5.235-3.968,5.38-6.579A3.209,3.209,0,0,0,1355.905,865.057Z" transform="translate(-1348.39 -865.034)"/></g><g transform="translate(1474.718 994.931)"><path class="d" d="M1475.908,1003.449c.13-2.673,5.49-6.724,5.49-6.724s5.5,4.074,5.5,6.755a3.33,3.33,0,0,1-3.339,3.312,4.329,4.329,0,0,1-2.193-.922,3.979,3.979,0,0,1-2.144.914A3.285,3.285,0,0,1,1475.908,1003.449Z" transform="translate(-1475.903 -996.725)"/><path class="e" d="M1479.22,1006.784a3.979,3.979,0,0,0,2.144-.914.148.148,0,0,1,.042.031v-9.16a.025.025,0,0,1-.008-.016s-5.36,4.051-5.49,6.724A3.285,3.285,0,0,0,1479.22,1006.784Z" transform="translate(-1475.903 -996.725)"/></g></g></svg>