<svg xmlns="http://www.w3.org/2000/svg" width="154" height="215" viewBox="0 0 154 215"><defs><style>.a{fill:#c9c9c9;}.b{fill:#fff;}.c{fill:#333;}.d{fill:#616161;opacity:0.2;}.e,.f{stroke:none;}.f{fill:#c4c4c4;}</style></defs><g transform="translate(-1148.843 -827.396)"><g transform="translate(1148.843 827.396)"><path class="a" d="M1165.866,1042.4a16.406,16.406,0,0,1-16.554-16.169l-.468-182.557a16.385,16.385,0,0,1,16.531-16.275l120.933.219a16.446,16.446,0,0,1,16.5,16.3v182.174a16.339,16.339,0,0,1-16.452,16.168Z" transform="translate(-1148.843 -827.396)"/><g class="b" transform="translate(-1148.843 -827.396)"><path class="e" d="M 1286.546508789063 1041.43212890625 L 1167.388427734375 1041.43212890625 C 1158.678833007813 1041.43212890625 1151.593017578125 1034.3896484375 1151.593017578125 1025.733154296875 L 1151.593017578125 843.6099243164063 C 1151.593017578125 834.9534912109375 1158.678833007813 827.9110107421875 1167.388427734375 827.9110107421875 L 1286.546508789063 827.9110107421875 C 1295.256713867188 827.9110107421875 1302.343017578125 834.9534912109375 1302.343017578125 843.6099243164063 L 1302.343017578125 1025.733154296875 C 1302.343017578125 1034.3896484375 1295.256713867188 1041.43212890625 1286.546508789063 1041.43212890625 Z"/><path class="f" d="M 1286.546508789063 1040.93212890625 C 1294.981079101563 1040.93212890625 1301.843017578125 1034.113891601563 1301.843017578125 1025.733154296875 L 1301.843017578125 843.6099243164063 C 1301.843017578125 835.2291870117188 1294.981079101563 828.4110107421875 1286.546508789063 828.4110107421875 L 1167.388427734375 828.4110107421875 C 1158.954467773438 828.4110107421875 1152.093017578125 835.2291870117188 1152.093017578125 843.6099243164063 L 1152.093017578125 1025.733154296875 C 1152.093017578125 1034.113891601563 1158.954467773438 1040.93212890625 1167.388427734375 1040.93212890625 L 1286.546508789063 1040.93212890625 M 1286.546508789063 1041.93212890625 L 1167.388427734375 1041.93212890625 C 1158.406372070313 1041.93212890625 1151.093017578125 1034.6650390625 1151.093017578125 1025.733154296875 L 1151.093017578125 843.6099243164063 C 1151.093017578125 834.6700439453125 1158.406372070313 827.4110107421875 1167.388427734375 827.4110107421875 L 1286.546508789063 827.4110107421875 C 1295.529663085938 827.4110107421875 1302.843017578125 834.6700439453125 1302.843017578125 843.6099243164063 L 1302.843017578125 1025.733154296875 C 1302.843017578125 1034.6650390625 1295.529663085938 1041.93212890625 1286.546508789063 1041.93212890625 Z"/></g><g transform="translate(7.687 14.011)"><path class="c" d="M1170.255,848.869a1.463,1.463,0,0,1-.29.845,5.689,5.689,0,0,0-.461.564,15.144,15.144,0,0,1-1.873,2.421c-.411.266-.8.51-1.18.761a.979.979,0,0,0-.2.6,1.955,1.955,0,0,1,.073.449,5.927,5.927,0,0,0,.095,1.142c.06.335.152.495.255.495a.692.692,0,0,0,.43-.16,5.157,5.157,0,0,1,.906-.662,1.3,1.3,0,0,1,.164.381c0,.236-.431.761-1.306,1.591a4.475,4.475,0,0,1-2.879,1.47c-.635,0-1.035-.83-1.21-2.506a10.338,10.338,0,0,0-.472-2.779h-5.544a1.465,1.465,0,0,1-.2-.122,1.175,1.175,0,0,1-.03-.373,5.885,5.885,0,0,1,1.088-2.056q1-1.45,3.1-3.99c.422-.532.864-1.065,1.306-1.606.289-.328.677-.754,1.172-1.272s1.017-1.1,1.584-1.782c.491-.586.883-.875,1.169-.875l.308.068v8.407a1.529,1.529,0,0,0,.6.182,1.336,1.336,0,0,1,.255-.023,2.75,2.75,0,0,0,1.74-.616c.381-.35.769-.7,1.172-1.043.069.038.134.083.172.106C1170.232,848.526,1170.255,848.656,1170.255,848.869Zm-7.782.868v-1.2a9.033,9.033,0,0,0-.073-1.067,11.117,11.117,0,0,0-1.325,1.478c-.186.213-.422.533-.719.944l.182.091h1.6Z" transform="translate(-1156.53 -841.407)"/></g><g transform="translate(135.847 185.205)"><path class="c" d="M1285.887,1024.678a1.438,1.438,0,0,1,.289-.83,5.7,5.7,0,0,0,.461-.579,14.886,14.886,0,0,1,1.881-2.413c.4-.259.792-.518,1.172-.762a.977.977,0,0,0,.194-.594,2.164,2.164,0,0,1-.072-.457,6.2,6.2,0,0,0-.091-1.134c-.061-.343-.152-.51-.255-.51a.693.693,0,0,0-.434.167,5.153,5.153,0,0,1-.9.67,1.74,1.74,0,0,1-.167-.38q0-.355,1.306-1.592a4.47,4.47,0,0,1,2.878-1.477c.64,0,1.039.838,1.214,2.513a10.166,10.166,0,0,0,.472,2.764h5.54a1.438,1.438,0,0,1,.205.129.989.989,0,0,1,.031.373,5.568,5.568,0,0,1-1.089,2.049c-.666.974-1.694,2.3-3.091,4.013-.423.517-.865,1.042-1.306,1.583-.29.343-.682.762-1.161,1.279-.5.526-1.028,1.112-1.6,1.782-.495.579-.883.883-1.172.883l-.309-.076v-8.4a1.352,1.352,0,0,0-.593-.2,1.793,1.793,0,0,1-.259.038,2.744,2.744,0,0,0-1.736.616c-.381.351-.773.7-1.162,1.051-.084-.061-.144-.1-.186-.129S1285.887,1024.906,1285.887,1024.678Zm7.782-.853v1.2a8.387,8.387,0,0,0,.072,1.066,11.526,11.526,0,0,0,1.337-1.477c.175-.221.411-.533.708-.96l-.187-.091H1294Z" transform="translate(-1285.887 -1014.787)"/></g></g><g transform="translate(1159.636 847.438)"><g transform="translate(80.535)"><path class="c" d="M1273.418,867.3c.012-3.769-16.355-19.858-16.355-19.858s-15.964,16.591-15.964,19.789a9.766,9.766,0,0,0,9.765,9.8,9.62,9.62,0,0,0,5.049-1.386l-6.138,10.447,14.883.038-6.084-10.477a9.776,9.776,0,0,0,14.844-8.353Z" transform="translate(-1241.099 -847.438)"/><path class="d" d="M1273.418,867.3c.012-3.769-16.355-19.858-16.355-19.858l-.031.037V886.1l7.626.023-6.084-10.477a9.776,9.776,0,0,0,14.844-8.353Z" transform="translate(-1241.099 -847.438)"/></g><g transform="translate(25.556)"><path class="c" d="M1185.487,867.3c-.019-3.769,16.356-19.858,16.356-19.858s15.952,16.591,15.963,19.789a9.783,9.783,0,0,1-9.777,9.8,9.609,9.609,0,0,1-5.037-1.386l6.126,10.447-14.882.038,6.1-10.477a9.776,9.776,0,0,1-14.844-8.353Z" transform="translate(-1185.487 -847.438)"/><path class="d" d="M1185.487,867.3c-.019-3.769,16.356-19.858,16.356-19.858s.019.022.03.037V886.1l-7.637.023,6.1-10.477a9.776,9.776,0,0,1-14.844-8.353Z" transform="translate(-1185.487 -847.438)"/></g><g transform="translate(80.463 137.721)"><path class="c" d="M1273.346,1006.175c.012,3.762-16.363,19.836-16.363,19.836s-15.956-16.577-15.956-19.775a9.777,9.777,0,0,1,9.765-9.807,9.563,9.563,0,0,1,5.048,1.4l-6.137-10.454,14.886-.03-6.087,10.477a9.509,9.509,0,0,1,5.025-1.416A9.781,9.781,0,0,1,1273.346,1006.175Z" transform="translate(-1241.027 -987.345)"/><path class="d" d="M1273.346,1006.175c.012,3.762-16.363,19.836-16.363,19.836a.031.031,0,0,1-.023-.016V987.36l7.629-.015-6.087,10.477a9.509,9.509,0,0,1,5.025-1.416A9.781,9.781,0,0,1,1273.346,1006.175Z" transform="translate(-1241.027 -987.345)"/></g><g transform="translate(25.473 137.721)"><path class="c" d="M1185.4,1006.175c-.007,3.762,16.368,19.836,16.368,19.836s15.952-16.577,15.952-19.775a9.778,9.778,0,0,0-9.766-9.807,9.555,9.555,0,0,0-5.037,1.4l6.126-10.454-14.882-.03,6.1,10.477a9.571,9.571,0,0,0-5.037-1.416A9.783,9.783,0,0,0,1185.4,1006.175Z" transform="translate(-1185.403 -987.345)"/><path class="d" d="M1185.4,1006.175c-.007,3.762,16.368,19.836,16.368,19.836a.041.041,0,0,0,.03-.016V987.36l-7.637-.015,6.1,10.477a9.571,9.571,0,0,0-5.037-1.416A9.783,9.783,0,0,0,1185.4,1006.175Z" transform="translate(-1185.403 -987.345)"/></g><g transform="translate(0 17.657)"><path class="c" d="M1168.26,870.38c0-1.006-4.371-5.285-4.371-5.285s-4.253,4.417-4.253,5.269a2.613,2.613,0,0,0,2.608,2.612,2.419,2.419,0,0,0,1.337-.373l-1.623,2.787,3.968.007-1.626-2.779a2.623,2.623,0,0,0,3.96-2.238Z" transform="translate(-1159.636 -865.095)"/><path class="d" d="M1168.26,870.38c0-1.006-4.371-5.285-4.371-5.285v10.3h2.037l-1.626-2.779a2.623,2.623,0,0,0,3.96-2.238Z" transform="translate(-1159.636 -865.095)"/></g><g transform="translate(127.521 148.837)"><path class="c" d="M1288.354,1003.472c0,1.013,4.367,5.292,4.367,5.292s4.256-4.416,4.256-5.269a2.61,2.61,0,0,0-3.955-2.254l1.644-2.78H1290.7l1.622,2.78a2.62,2.62,0,0,0-3.967,2.231Z" transform="translate(-1288.354 -998.461)"/><path class="d" d="M1288.354,1003.472c0,1.013,4.367,5.292,4.367,5.292v-10.3H1290.7l1.622,2.78a2.62,2.62,0,0,0-3.967,2.231Z" transform="translate(-1288.354 -998.461)"/></g></g></g></svg>