<svg xmlns="http://www.w3.org/2000/svg" width="154" height="215" viewBox="0 0 154 215"><defs><style>.a{fill:#c9c9c9;}.b{fill:#fff;}.c{fill:#333;}.d{fill:#616161;opacity:0.2;}.e,.f{stroke:none;}.f{fill:#c4c4c4;}</style></defs><g transform="translate(-1148.843 -570.186)"><g transform="translate(1148.843 570.186)"><path class="a" d="M1165.867,785.186a16.391,16.391,0,0,1-16.552-16.169l-.472-182.563a16.375,16.375,0,0,1,16.533-16.268l120.942.224a16.439,16.439,0,0,1,16.506,16.291V768.867a16.355,16.355,0,0,1-16.449,16.177Z" transform="translate(-1148.843 -570.186)"/><g class="b" transform="translate(-1148.843 -570.186)"><path class="e" d="M 1286.54638671875 784.22998046875 L 1167.389770507813 784.22998046875 C 1158.679443359375 784.22998046875 1151.593017578125 777.1842041015625 1151.593017578125 768.523681640625 L 1151.593017578125 586.395263671875 C 1151.593017578125 577.7369995117188 1158.679443359375 570.6929931640625 1167.389770507813 570.6929931640625 L 1286.54638671875 570.6929931640625 C 1295.256713867188 570.6929931640625 1302.343017578125 577.7369995117188 1302.343017578125 586.395263671875 L 1302.343017578125 768.523681640625 C 1302.343017578125 777.1842041015625 1295.256713867188 784.22998046875 1286.54638671875 784.22998046875 Z"/><path class="f" d="M 1286.54638671875 783.72998046875 C 1294.98095703125 783.72998046875 1301.843017578125 776.908447265625 1301.843017578125 768.523681640625 L 1301.843017578125 586.395263671875 C 1301.843017578125 578.0126953125 1294.98095703125 571.1929931640625 1286.54638671875 571.1929931640625 L 1167.389770507813 571.1929931640625 C 1158.955078125 571.1929931640625 1152.093017578125 578.0126953125 1152.093017578125 586.395263671875 L 1152.093017578125 768.523681640625 C 1152.093017578125 776.908447265625 1158.955078125 783.72998046875 1167.389770507813 783.72998046875 L 1286.54638671875 783.72998046875 M 1286.54638671875 784.72998046875 L 1167.389770507813 784.72998046875 C 1158.409912109375 784.72998046875 1151.093017578125 777.4628295898438 1151.093017578125 768.523681640625 L 1151.093017578125 586.395263671875 C 1151.093017578125 577.4610595703125 1158.409912109375 570.1929931640625 1167.389770507813 570.1929931640625 L 1286.54638671875 570.1929931640625 C 1295.541015625 570.1929931640625 1302.843017578125 577.4610595703125 1302.843017578125 586.395263671875 L 1302.843017578125 768.523681640625 C 1302.843017578125 777.4628295898438 1295.541015625 784.72998046875 1286.54638671875 784.72998046875 Z"/></g><g transform="translate(8.418 13.462)"><path class="c" d="M1170.418,584.072a9.029,9.029,0,0,1-1.241,1.594,4.919,4.919,0,0,1-1.831,1.364,7.7,7.7,0,0,1-1.782.271c-.826.059-1.237.356-1.237.894a.831.831,0,0,0,.757.861,5.831,5.831,0,0,1,2.284,1.041,5,5,0,0,1,1.4,1.6,3.815,3.815,0,0,1,.437,1.738,5.636,5.636,0,0,1-.624,2.549,9.867,9.867,0,0,1-1,1.572,12.848,12.848,0,0,1-3.187,3.156,7.005,7.005,0,0,1-3.662.848,5.968,5.968,0,0,1-2.262-.381,1.647,1.647,0,0,1-1.21-1.552,5.416,5.416,0,0,1,1.081-2.328c.719-1.1,1.283-1.641,1.671-1.641.271,0,.426.32.446.967a3.005,3.005,0,0,0,.274,1.367,4.608,4.608,0,0,0,.529.5,2.429,2.429,0,0,0,3.186-.151,3.053,3.053,0,0,0,.926-2.4,3.9,3.9,0,0,0-1-2.673,3.753,3.753,0,0,0-2.406-1.285,2.7,2.7,0,0,0-.43-.049,1.857,1.857,0,0,1-.472-.116.9.9,0,0,1-.111-.5c.069-.616.145-1.233.191-1.858s.083-1.216.083-1.789c0-.266-.041-.434-.129-.486a1.517,1.517,0,0,0-.6-.081v-.573a10.805,10.805,0,0,1,1.344-1.31,3.891,3.891,0,0,1,1.74-1.076h5.121a1.833,1.833,0,0,0,.807-.249,2.074,2.074,0,0,1,.571-.247l.335.165Z" transform="translate(-1157.261 -583.648)"/></g><g transform="translate(135.699 185.213)"><path class="c" d="M1285.727,775.055a10.357,10.357,0,0,1,1.237-1.591,4.917,4.917,0,0,1,1.831-1.356,6.955,6.955,0,0,1,1.79-.274c.822-.069,1.233-.358,1.233-.891a.83.83,0,0,0-.761-.868,5.8,5.8,0,0,1-2.281-1.051,4.767,4.767,0,0,1-1.385-1.591,3.68,3.68,0,0,1-.446-1.736,5.741,5.741,0,0,1,.617-2.551,11.062,11.062,0,0,1,1-1.576,12.782,12.782,0,0,1,3.186-3.153,7.03,7.03,0,0,1,3.659-.837,6.016,6.016,0,0,1,2.261.373,1.644,1.644,0,0,1,1.215,1.546,5.473,5.473,0,0,1-1.085,2.33q-1.08,1.644-1.672,1.644c-.266,0-.426-.327-.445-.967a3.025,3.025,0,0,0-.274-1.37,7.051,7.051,0,0,0-.514-.495,2.485,2.485,0,0,0-1.481-.526,2.421,2.421,0,0,0-1.706.67,3.028,3.028,0,0,0-.94,2.407,3.911,3.911,0,0,0,1,2.672,3.733,3.733,0,0,0,2.406,1.28,3.337,3.337,0,0,0,.431.053,1.52,1.52,0,0,1,.475.114.8.8,0,0,1,.122.5c-.084.624-.156,1.241-.206,1.858s-.083,1.218-.083,1.789c0,.274.042.434.133.495a1.438,1.438,0,0,0,.594.084v.571a10.062,10.062,0,0,1-1.344,1.3c-.842.723-1.416,1.081-1.74,1.081h-5.117a1.854,1.854,0,0,0-.811.251,2.267,2.267,0,0,1-.567.244l-.335-.16Z" transform="translate(-1285.727 -757.58)"/></g></g><g transform="translate(1159.533 590.23)"><g transform="translate(78.816)"><path class="c" d="M1271.568,610.077c.011-3.763-16.352-19.847-16.352-19.847s-15.968,16.588-15.968,19.786a9.773,9.773,0,0,0,9.766,9.8,9.507,9.507,0,0,0,5.052-1.389l-6.141,10.458,14.883.027-6.084-10.474a9.771,9.771,0,0,0,14.844-8.357Z" transform="translate(-1239.248 -590.23)"/><path class="d" d="M1271.568,610.077c.011-3.763-16.352-19.847-16.352-19.847l-.034.031v38.631l7.626.016-6.084-10.474a9.771,9.771,0,0,0,14.844-8.357Z" transform="translate(-1239.248 -590.23)"/></g><g transform="translate(23.832)"><path class="c" d="M1183.637,610.077c-.019-3.763,16.359-19.847,16.359-19.847s15.953,16.588,15.96,19.786a9.769,9.769,0,0,1-9.766,9.8,9.462,9.462,0,0,1-5.044-1.389l6.126,10.458-14.883.027,6.092-10.474a9.771,9.771,0,0,1-14.844-8.357Z" transform="translate(-1183.637 -590.23)"/><path class="d" d="M1183.637,610.077c-.019-3.763,16.359-19.847,16.359-19.847a.163.163,0,0,1,.027.031v38.631l-7.634.016,6.092-10.474a9.771,9.771,0,0,1-14.844-8.357Z" transform="translate(-1183.637 -590.23)"/></g><g transform="translate(51.062 66.798)"><path class="c" d="M1211.178,677.933c-.019-3.754,16.367-19.847,16.367-19.847s15.953,16.584,15.953,19.786a9.775,9.775,0,0,1-9.766,9.8,9.591,9.591,0,0,1-5.052-1.393l6.141,10.458-14.883.026,6.085-10.477a9.762,9.762,0,0,1-14.845-8.353Z" transform="translate(-1211.178 -658.086)"/><path class="d" d="M1211.178,677.933c-.019-3.754,16.367-19.847,16.367-19.847a.056.056,0,0,0,.019.027v38.639l-7.626.011,6.085-10.477a9.762,9.762,0,0,1-14.845-8.353Z" transform="translate(-1211.178 -658.086)"/></g><g transform="translate(78.748 137.719)"><path class="c" d="M1271.5,748.96c.008,3.762-16.367,19.843-16.367,19.843s-15.952-16.584-15.952-19.782a9.775,9.775,0,0,1,9.765-9.807,9.543,9.543,0,0,1,5.045,1.4l-6.133-10.455,14.882-.03-6.084,10.47a9.775,9.775,0,0,1,14.844,8.36Z" transform="translate(-1239.18 -730.13)"/><path class="d" d="M1271.5,748.96c.008,3.762-16.367,19.843-16.367,19.843a.182.182,0,0,0-.019-.022V730.145l7.626-.015-6.084,10.47a9.775,9.775,0,0,1,14.844,8.36Z" transform="translate(-1239.18 -730.13)"/></g><g transform="translate(23.749 137.719)"><path class="c" d="M1183.553,748.96c0,3.762,16.367,19.843,16.367,19.843s15.952-16.584,15.952-19.782a9.774,9.774,0,0,0-9.765-9.807,9.574,9.574,0,0,0-5.037,1.4l6.126-10.455-14.883-.03,6.1,10.47a9.787,9.787,0,0,0-14.859,8.36Z" transform="translate(-1183.553 -730.13)"/><path class="d" d="M1183.553,748.96c0,3.762,16.367,19.843,16.367,19.843a.218.218,0,0,1,.034-.022V730.145l-7.641-.015,6.1,10.47a9.787,9.787,0,0,0-14.859,8.36Z" transform="translate(-1183.553 -730.13)"/></g><g transform="translate(0 17.647)"><path class="c" d="M1168.157,613.172c0-1.009-4.367-5.295-4.367-5.295s-4.257,4.424-4.257,5.276a2.613,2.613,0,0,0,2.612,2.608,2.439,2.439,0,0,0,1.337-.369l-1.638,2.791,3.983.007-1.626-2.79a2.572,2.572,0,0,0,1.336.377A2.607,2.607,0,0,0,1168.157,613.172Z" transform="translate(-1159.533 -607.877)"/><path class="d" d="M1168.157,613.172c0-1.009-4.367-5.295-4.367-5.295V618.19h2.037l-1.626-2.79a2.572,2.572,0,0,0,1.336.377A2.607,2.607,0,0,0,1168.157,613.172Z" transform="translate(-1159.533 -607.877)"/></g><g transform="translate(127.545 148.828)"><path class="c" d="M1288.263,746.265c-.008,1,4.355,5.284,4.355,5.284s4.256-4.416,4.256-5.269a2.611,2.611,0,0,0-2.611-2.619,2.65,2.65,0,0,0-1.337.365l1.641-2.772-3.971-.015,1.626,2.787a2.692,2.692,0,0,0-1.352-.365A2.6,2.6,0,0,0,1288.263,746.265Z" transform="translate(-1288.263 -741.239)"/><path class="d" d="M1288.263,746.265c-.008,1,4.355,5.284,4.355,5.284h.015v-10.3l-2.037-.008,1.626,2.787a2.692,2.692,0,0,0-1.352-.365A2.6,2.6,0,0,0,1288.263,746.265Z" transform="translate(-1288.263 -741.239)"/></g></g></g></svg>