<svg xmlns="http://www.w3.org/2000/svg" width="154" height="215" viewBox="0 0 154 215"><defs><style>.a{fill:#c9c9c9;}.b{fill:#fff;}.c{fill:#333;}.d{fill:#616161;opacity:0.2;}.e,.f{stroke:none;}.f{fill:#c4c4c4;}</style></defs><g transform="translate(-202.116 -1086.728)"><g transform="translate(202.116 1086.728)"><path class="a" d="M219.134,1301.728a16.382,16.382,0,0,1-16.548-16.169L202.116,1103a16.365,16.365,0,0,1,16.529-16.267l120.935.219a16.455,16.455,0,0,1,16.5,16.3v182.172a16.346,16.346,0,0,1-16.442,16.177Z" transform="translate(-202.116 -1086.728)"/><g class="b" transform="translate(-202.116 -1086.728)"><path class="e" d="M 339.819091796875 1300.771118164063 L 220.6588592529297 1300.771118164063 C 211.9456939697266 1300.771118164063 204.8570098876953 1293.725219726563 204.8570098876953 1285.064575195313 L 204.8570098876953 1102.9345703125 C 204.8570098876953 1094.27783203125 211.9456939697266 1087.235107421875 220.6588592529297 1087.235107421875 L 339.819091796875 1087.235107421875 C 348.5295104980469 1087.235107421875 355.6159362792969 1094.27783203125 355.6159362792969 1102.9345703125 L 355.6159362792969 1285.064575195313 C 355.6159362792969 1293.725219726563 348.5295104980469 1300.771118164063 339.819091796875 1300.771118164063 Z"/><path class="f" d="M 339.819091796875 1300.271118164063 C 348.2538146972656 1300.271118164063 355.1159362792969 1293.449462890625 355.1159362792969 1285.064575195313 L 355.1159362792969 1102.9345703125 C 355.1159362792969 1094.553588867188 348.2538146972656 1087.735107421875 339.819091796875 1087.735107421875 L 220.6588592529297 1087.735107421875 C 212.2213897705078 1087.735107421875 205.3570098876953 1094.553588867188 205.3570098876953 1102.9345703125 L 205.3570098876953 1285.064575195313 C 205.3570098876953 1293.449462890625 212.2213897705078 1300.271118164063 220.6588592529297 1300.271118164063 L 339.819091796875 1300.271118164063 M 339.819091796875 1301.271118164063 L 220.6588592529297 1301.271118164063 C 211.6705017089844 1301.271118164063 204.3570098876953 1294.0048828125 204.3570098876953 1285.064575195313 L 204.3570098876953 1102.9345703125 C 204.3570098876953 1094.002319335938 211.6705017089844 1086.735107421875 220.6588592529297 1086.735107421875 L 339.819091796875 1086.735107421875 C 348.8034362792969 1086.735107421875 356.1159362792969 1094.002319335938 356.1159362792969 1102.9345703125 L 356.1159362792969 1285.064575195313 C 356.1159362792969 1294.0048828125 348.8034362792969 1301.271118164063 339.819091796875 1301.271118164063 Z"/></g><g transform="translate(10.322 13.965)"><path class="c" d="M223.621,1106.64a10.528,10.528,0,0,1-.778,3.769,9.909,9.909,0,0,1-1.607,2.984,28.31,28.31,0,0,1-2.806,2.81q-2.158,1.861-3.451,1.858a.372.372,0,0,1-.228-.1,1.226,1.226,0,0,1-.217-.221,11.844,11.844,0,0,0,2.427-2.139,18,18,0,0,0,2.425-3.754v-.305c-.069-.038-.129-.068-.192-.1-.636.282-1.217.541-1.748.739a3.789,3.789,0,0,1-1.418.3,3.04,3.04,0,0,1-2.326-1.347,5.739,5.739,0,0,1-1.264-3.739q0-2.136,2.57-4.523,2.358-2.181,3.927-2.185a4.172,4.172,0,0,1,2.943,1.545A6.17,6.17,0,0,1,223.621,1106.64ZM220,1108.7a5.077,5.077,0,0,0-1.281-3.51,3.242,3.242,0,0,0-2.334-1.264c-.189,0-.318.114-.381.343a2.839,2.839,0,0,0-.1.776,4.8,4.8,0,0,0,.9,2.993c.729.974,1.43,1.454,2.09,1.454a1.948,1.948,0,0,0,.741-.114A.71.71,0,0,0,220,1108.7Z" transform="translate(-212.438 -1100.693)"/></g><g transform="translate(135.772 185.266)"><path class="c" d="M339.081,1285.578a10.674,10.674,0,0,1,.775-3.769,10.155,10.155,0,0,1,1.6-2.985,28.82,28.82,0,0,1,2.814-2.8q2.158-1.85,3.445-1.85a.354.354,0,0,1,.238.091,2.067,2.067,0,0,1,.215.213,12.027,12.027,0,0,0-2.429,2.155,17.275,17.275,0,0,0-2.425,3.746v.313a1.625,1.625,0,0,1,.187.091c.635-.289,1.22-.533,1.747-.739a4.036,4.036,0,0,1,1.42-.312,3.032,3.032,0,0,1,2.33,1.363,5.69,5.69,0,0,1,1.264,3.724q0,2.158-2.57,4.523c-1.572,1.462-2.885,2.193-3.927,2.193a4.2,4.2,0,0,1-2.95-1.546A6.181,6.181,0,0,1,339.081,1285.578Zm3.619-2.063a5.085,5.085,0,0,0,1.283,3.525,3.2,3.2,0,0,0,2.327,1.257c.193,0,.319-.122.379-.343a2.723,2.723,0,0,0,.1-.777,4.811,4.811,0,0,0-.9-2.992c-.731-.967-1.426-1.454-2.094-1.454a1.69,1.69,0,0,0-.74.114A.688.688,0,0,0,342.7,1283.515Z" transform="translate(-339.081 -1274.172)"/></g></g><g transform="translate(212.919 1102.688)"><g transform="translate(79.132)"><path class="c" d="M326.574,1123.315c.017-3.906-17-20.627-17-20.627s-16.584,17.246-16.59,20.574a10.162,10.162,0,0,0,10.156,10.18A10.043,10.043,0,0,0,308.38,1132L302,1142.861l15.474.031L311.143,1132a10.155,10.155,0,0,0,15.431-8.688Z" transform="translate(-292.981 -1102.688)"/><path class="d" d="M326.574,1123.315c.017-3.906-17-20.627-17-20.627a.355.355,0,0,1-.03.03v40.166l7.935.008L311.143,1132a10.155,10.155,0,0,0,15.431-8.688Z" transform="translate(-292.981 -1102.688)"/></g><g transform="translate(79.132 47.477)"><path class="c" d="M326.574,1171.522c.017-3.906-17-20.635-17-20.635s-16.584,17.246-16.59,20.574a10.164,10.164,0,0,0,10.156,10.188,9.913,9.913,0,0,0,5.243-1.454L302,1191.068l15.474.023-6.333-10.881a10.167,10.167,0,0,0,15.431-8.688Z" transform="translate(-292.981 -1150.887)"/><path class="d" d="M326.574,1171.522c.017-3.906-17-20.635-17-20.635a.355.355,0,0,1-.03.03v40.159l7.935.015-6.333-10.881a10.167,10.167,0,0,0,15.431-8.688Z" transform="translate(-292.981 -1150.887)"/></g><g transform="translate(21.992)"><path class="c" d="M235.169,1123.315c-.014-3.906,17-20.627,17-20.627s16.586,17.246,16.589,20.574a10.171,10.171,0,0,1-15.4,8.734l6.381,10.865-15.478.031L250.6,1132a10.154,10.154,0,0,1-15.429-8.688Z" transform="translate(-235.169 -1102.688)"/><path class="d" d="M235.169,1123.315c-.014-3.906,17-20.627,17-20.627l.03.03v40.166l-7.936.008L250.6,1132a10.154,10.154,0,0,1-15.429-8.688Z" transform="translate(-235.169 -1102.688)"/></g><g transform="translate(50.528 70.878)"><path class="c" d="M264.041,1195.279c-.018-3.906,17-20.635,17-20.635s16.592,17.247,16.6,20.566A10.162,10.162,0,0,1,287.48,1205.4a9.936,9.936,0,0,1-5.245-1.446l6.376,10.873-15.473.023,6.331-10.881a10.154,10.154,0,0,1-15.428-8.688Z" transform="translate(-264.041 -1174.644)"/><path class="d" d="M264.041,1195.279c-.018-3.906,17-20.635,17-20.635a.285.285,0,0,0,.03.038v40.158l-7.934.008,6.331-10.881a10.154,10.154,0,0,1-15.428-8.688Z" transform="translate(-264.041 -1174.644)"/></g><g transform="translate(21.992 47.477)"><path class="c" d="M235.169,1171.522c-.014-3.906,17-20.635,17-20.635s16.586,17.246,16.589,20.574a10.163,10.163,0,0,1-10.148,10.188,9.942,9.942,0,0,1-5.25-1.454l6.381,10.873-15.478.023,6.332-10.881a10.038,10.038,0,0,1-5.232,1.469A10.162,10.162,0,0,1,235.169,1171.522Z" transform="translate(-235.169 -1150.887)"/><path class="d" d="M235.169,1171.522c-.014-3.906,17-20.635,17-20.635l.03.03v40.159l-7.936.015,6.332-10.881a10.038,10.038,0,0,1-5.232,1.469A10.162,10.162,0,0,1,235.169,1171.522Z" transform="translate(-235.169 -1150.887)"/></g><g transform="translate(79.057 143.257)"><path class="c" d="M326.5,1267.692c.017,3.906-17.005,20.635-17.005,20.635s-16.588-17.239-16.592-20.574a10.167,10.167,0,0,1,10.156-10.188,10,10,0,0,1,5.242,1.454l-6.379-10.866,15.476-.03L311.073,1259a10.164,10.164,0,0,1,15.429,8.688Z" transform="translate(-292.905 -1248.123)"/><path class="d" d="M326.5,1267.692c.017,3.906-17.005,20.635-17.005,20.635a.277.277,0,0,1-.032-.03v-40.159l7.935-.015L311.073,1259a10.164,10.164,0,0,1,15.429,8.688Z" transform="translate(-292.905 -1248.123)"/></g><g transform="translate(79.057 95.764)"><path class="c" d="M326.5,1219.485c.017,3.914-17.005,20.643-17.005,20.643s-16.588-17.255-16.592-20.582a10.18,10.18,0,0,1,15.4-8.741l-6.379-10.858,15.476-.039-6.327,10.9a10.153,10.153,0,0,1,15.429,8.68Z" transform="translate(-292.905 -1199.908)"/><path class="d" d="M326.5,1219.485c.017,3.914-17.005,20.643-17.005,20.643l-.032-.038v-40.159l7.935-.023-6.327,10.9a10.153,10.153,0,0,1,15.429,8.68Z" transform="translate(-292.905 -1199.908)"/></g><g transform="translate(21.916 143.257)"><path class="c" d="M235.093,1267.692c-.018,3.906,17.006,20.635,17.006,20.635s16.581-17.239,16.588-20.574a10.166,10.166,0,0,0-10.153-10.188,10,10,0,0,0-5.247,1.454l6.377-10.866-15.474-.03L250.523,1259a10.165,10.165,0,0,0-15.43,8.688Z" transform="translate(-235.093 -1248.123)"/><path class="d" d="M235.093,1267.692c-.018,3.906,17.006,20.635,17.006,20.635a.187.187,0,0,0,.027-.03v-40.159l-7.936-.015L250.523,1259a10.165,10.165,0,0,0-15.43,8.688Z" transform="translate(-235.093 -1248.123)"/></g><g transform="translate(21.916 95.764)"><path class="c" d="M235.093,1219.485c-.018,3.914,17.006,20.643,17.006,20.643s16.581-17.255,16.588-20.582a10.181,10.181,0,0,0-15.4-8.741l6.377-10.858-15.474-.039,6.333,10.9a10.154,10.154,0,0,0-15.43,8.68Z" transform="translate(-235.093 -1199.908)"/><path class="d" d="M235.093,1219.485c-.018,3.914,17.006,20.643,17.006,20.643l.027-.038v-40.159l-7.936-.023,6.333,10.9a10.154,10.154,0,0,0-15.43,8.68Z" transform="translate(-235.093 -1199.908)"/></g><g transform="translate(0 22.546)"><path class="c" d="M221.878,1130.739c0-1.043-4.535-5.505-4.535-5.505s-4.424,4.6-4.424,5.482a2.718,2.718,0,0,0,4.106,2.338l-1.7,2.9h4.125l-1.685-2.9a2.675,2.675,0,0,0,1.393.388A2.716,2.716,0,0,0,221.878,1130.739Z" transform="translate(-212.919 -1125.234)"/><path class="d" d="M221.878,1130.739c0-1.043-4.535-5.505-4.535-5.505s0,.008-.009.008v10.713h2.117l-1.685-2.9a2.675,2.675,0,0,0,1.393.388A2.716,2.716,0,0,0,221.878,1130.739Z" transform="translate(-212.919 -1125.234)"/></g><g transform="translate(126.155 151.914)"><path class="c" d="M340.267,1262c0,1.051,4.532,5.506,4.532,5.506s4.426-4.6,4.426-5.483a2.706,2.706,0,0,0-2.709-2.711,2.541,2.541,0,0,0-1.392.381l1.7-2.9-4.129-.008,1.692,2.9a2.716,2.716,0,0,0-4.117,2.314Z" transform="translate(-340.267 -1256.78)"/><path class="d" d="M340.267,1262c0,1.051,4.532,5.506,4.532,5.506l.006-.008v-10.706l-2.113-.008,1.692,2.9a2.716,2.716,0,0,0-4.117,2.314Z" transform="translate(-340.267 -1256.78)"/></g></g></g></svg>