<svg xmlns="http://www.w3.org/2000/svg" width="154" height="215" viewBox="0 0 154 215"><defs><style>.a{fill:#c9c9c9;}.b,.i{fill:#fff;}.c{fill:#333;}.d{fill:#ffd675;}.e{fill:#616161;}.e,.i{opacity:0.2;}.f{fill:#ebebeb;}.g{fill:#ebbe9f;}.h{fill:#9c9c9c;}.j,.k{stroke:none;}.k{fill:#c4c4c4;}</style></defs><g transform="translate(-585.19 -56.746)"><g transform="translate(584.19 56.746)"><g transform="translate(1)"><path class="a" d="M601.187,271.746A16.567,16.567,0,0,1,584.656,255.3L584.19,72.911A16.422,16.422,0,0,1,600.7,56.951l119.867.225a16.359,16.359,0,0,1,16.358,16.277V255.445a16.266,16.266,0,0,1-16.308,16.164Z" transform="translate(-584.19 -56.746)"/><g class="b" transform="translate(-584.19 -56.746)"><path class="j" d="M 602.4251708984375 271.0409545898438 C 593.688232421875 271.0409545898438 586.5638427734375 264.0183715820313 586.5437622070313 255.3864593505859 L 586.0880126953125 72.99529266357422 C 586.0737915039063 68.82362365722656 587.6967163085938 64.89012908935547 590.6577758789063 61.91893005371094 C 592.1167602539063 60.45495986938477 593.8201904296875 59.304931640625 595.7208251953125 58.50076675415039 C 597.6885986328125 57.66815567016602 599.780029296875 57.24598693847656 601.93701171875 57.24598693847656 L 601.9656372070313 57.24601364135742 L 721.831298828125 57.47021102905273 C 730.5758666992188 57.48465347290039 737.6900024414063 64.56231689453125 737.6900024414063 73.24754333496094 L 737.6900024414063 255.2388000488281 C 737.6900024414063 263.86328125 730.5985107421875 270.8884582519531 721.8818969726563 270.8990478515625 L 602.4523315429688 271.0409240722656 L 602.4251708984375 271.0409545898438 Z"/><path class="k" d="M 602.4251708984375 270.5409545898438 L 602.45166015625 270.5409240722656 L 721.8812866210938 270.3990478515625 C 730.3225708007813 270.3887939453125 737.1900024414063 263.5879211425781 737.1900024414063 255.2388000488281 L 737.1900024414063 73.24754333496094 C 737.1900024414063 64.83757019042969 730.2997436523438 57.98421096801758 721.8303833007813 57.97021102905273 L 601.9637451171875 57.74601364135742 L 601.93701171875 57.74598693847656 C 599.8473510742188 57.74598693847656 597.8214721679688 58.15485000610352 595.9156494140625 58.96123886108398 C 594.0748901367188 59.74009704589844 592.425048828125 60.85395812988281 591.011962890625 62.27187728881836 C 588.1453857421875 65.14823913574219 586.57421875 68.95579528808594 586.5880126953125 72.99404144287109 L 587.0437622070313 255.3852996826172 C 587.063232421875 263.7421569824219 593.9632568359375 270.5409545898438 602.4251708984375 270.5409545898438 M 602.4251708984375 271.5409545898438 C 593.410888671875 271.5409545898438 586.0645141601563 264.296875 586.0437622070313 255.3876190185547 L 585.5880126953125 72.99654388427734 C 585.5574951171875 64.03190612792969 592.8946533203125 56.74599075317383 601.93701171875 56.74599075317383 C 601.9469604492188 56.74599075317383 601.9566040039063 56.74599838256836 601.966552734375 56.74601364135742 L 721.8322143554688 56.97021102905273 C 730.8467407226563 56.98509979248047 738.1900024414063 64.28890228271484 738.1900024414063 73.24754333496094 L 738.1900024414063 255.2388000488281 C 738.1900024414063 264.1418762207031 730.8782958984375 271.3881225585938 721.8825073242188 271.3990478515625 L 602.452880859375 271.5409240722656 C 602.444091796875 271.5409545898438 602.4340209960938 271.5409545898438 602.4251708984375 271.5409545898438 Z"/></g><g transform="translate(16.263 14.134)"><path class="c" d="M613.8,86.6a8.294,8.294,0,0,1-1.377,1.155,8.541,8.541,0,0,1-2.7,1.5l-4.153-7.607-.236.16v6.665h-4.883V71.112h4.883V80.96a3.358,3.358,0,0,0,2.271-1.738,4.958,4.958,0,0,0,.925-2.677,4.023,4.023,0,0,0-.278-1.563c-.227-.4-.432-.792-.647-1.188,0-.175.544-.662,1.614-1.469.894-.663,1.532-1.146,1.922-1.445a3.308,3.308,0,0,1,.832,1.291,4.407,4.407,0,0,1,.381,1.623,5.3,5.3,0,0,1-.278,1.517,6.69,6.69,0,0,1-.7,1.613,9.621,9.621,0,0,1-1.2,1.589c-.729.744-1.122,1.156-1.162,1.234Z" transform="translate(-608.453 -70.88)"/></g><g transform="translate(132.999 184.722)"><path class="c" d="M712.345,245.832a7.785,7.785,0,0,1,1.376-1.157,8.674,8.674,0,0,1,2.705-1.5l4.152,7.612.226-.163v-6.667H725.7v17.361H720.8v-9.847a3.389,3.389,0,0,0-2.273,1.732,4.992,4.992,0,0,0-.925,2.682,3.98,3.98,0,0,0,.29,1.563c.215.4.43.792.635,1.188,0,.175-.533.662-1.612,1.469q-1.328,1-1.913,1.451a3.4,3.4,0,0,1-.832-1.3,4.234,4.234,0,0,1-.381-1.624,5.4,5.4,0,0,1,.278-1.521,7.136,7.136,0,0,1,.689-1.609,10.106,10.106,0,0,1,1.213-1.589c.729-.744,1.11-1.156,1.161-1.234Z" transform="translate(-712.345 -243.179)"/></g></g><g transform="translate(33.29 15.594)"><path class="c" d="M707,126.035l-.329-1.121s-20.713-11.822-27.334-15.574c-1.243-.7-1.983-1.119-2.014-1.119H647.83a.835.835,0,0,0-.133.072c-.061.031-.134.071-.227.122-.072.042-.164.088-.267.139-.081.052-.175.108-.278.166s-.205.123-.329.19c-.184.1-.369.209-.584.328q-.6.348-1.357.77a.034.034,0,0,0-.022.012c-.38.221-.78.447-1.2.689-.144.07-.287.158-.441.245-.977.562-2.077,1.183-3.247,1.845-.423.238-.844.484-1.276.731s-.864.488-1.306.735-.883.508-1.336.762c-5.848,3.329-12.294,7.014-15.429,8.792-.175.1-.341.2-.5.293-.741.427-1.234.7-1.358.777v49.16l19.295-5.8,4.381-1.315L707,147.473Z" transform="translate(-618.533 -72.34)"/><g transform="translate(0 35.875)"><g transform="translate(0 0.006)"><g transform="translate(36.205 11.462)"><path class="d" d="M662.807,133.672l-8.069-13.989h16.15Zm-6.527-13.095,6.527,11.311,6.539-11.311Z" transform="translate(-654.738 -119.683)"/></g><path class="e" d="M651.962,108.221c-.154.036-29.347,16.693-29.347,16.693l-4.082,12.628v36.507l19.295-5.8,4.381-1.315,11.532-37.861,1.553-5.062,2.25-4.837,5.037-10.751v-.206Z" transform="translate(-618.533 -108.221)"/><path class="f" d="M647.83,108.221a.835.835,0,0,0-.133.072c-.061.031-.134.071-.227.122-.072.042-.164.088-.267.139-.072.052-.175.108-.278.166s-.205.123-.329.19c-.184.1-.369.209-.584.328q-.6.339-1.357.77a.034.034,0,0,0-.022.012c-.38.215-.78.442-1.2.689-.144.07-.287.158-.441.245-.977.556-2.077,1.179-3.247,1.845-.423.238-.844.484-1.276.731s-.864.484-1.306.735l-1.336.762c-1.881,1.079-3.834,2.177-5.715,3.262-.556.314-1.131.638-1.666.946-3.289,1.875-6.23,3.552-8.048,4.584-.175.1-.341.2-.5.293-.741.427-1.234.7-1.358.777v49.16l3.435-1.037,1.932-.575,13.713-4.123.215-.061c.648-1.517,1.315-3.135,2.016-4.81,4.626-11.118,10.259-25.191,13.9-34.366,2.272-5.7,3.773-9.513,3.773-9.513l.03-.386.988-10.957Z" transform="translate(-618.533 -108.221)"/></g><g transform="translate(44.048)"><path class="e" d="M707,139.767l-4.471-14.853s-29.184-16.653-29.339-16.7H662.581v.212l7.279,15.588,9.476,32.354L707,146.346Z" transform="translate(-662.581 -108.215)"/><path class="f" d="M707,126.04l-.338-1.126s-29.184-16.653-29.339-16.7h-10.7l1.019,11.349s12.592,26.13,17.064,34.606l22.3-6.7Z" transform="translate(-662.581 -108.215)"/></g></g><g transform="translate(27.201)"><path class="g" d="M679.614,100.995l-.3-3.99-.011-.143-.914-12.212-4.534-2.3L665.1,77.921l-2.425,1.306-2.427-1.306-8.757,4.432-4.534,2.3-.913,12.212-.012.143-.3,3.99,3.638,12.124,13.281,10.927v.027h0l.021-.012.021.012h0v-.027l14.237-11.621Z" transform="translate(-645.734 -72.34)"/><path class="g" d="M662.7,108.215l5.364-.19L664.05,105.5l-1.355-.019h-.042l-1.346.019-4.02,2.524,5.366.19h.042Z" transform="translate(-645.734 -72.34)"/><path class="e" d="M665.943,100.542l-2.2-7.643H661.6l-2.189,7.643L661.6,102.9l1.049.036h.042l1.047-.036Z" transform="translate(-645.734 -72.34)"/><g transform="translate(0.297 10.013)"><path class="h" d="M665,90.855l6.9-.87.154-.021.072.042,3.29,1.742-3.588-1,.227.019-6.693,1.881Z" transform="translate(-646.031 -82.353)"/><path class="c" d="M667.412,93.736a1.948,1.948,0,1,0,3.722.807,1.921,1.921,0,0,0-.175-.807Z" transform="translate(-646.031 -82.353)"/><path class="h" d="M660.35,90.855l-6.9-.87-.154-.021-.073.042-3.289,1.742,3.579-1-.217.019,6.693,1.881Z" transform="translate(-646.031 -82.353)"/><path class="c" d="M657.936,93.736a1.948,1.948,0,1,1-3.721.807,1.787,1.787,0,0,1,.184-.807Z" transform="translate(-646.031 -82.353)"/><path class="h" d="M679.317,97c-.114.088-.175.129-.175.129l-3.2-11.267-2.086-3.514,4.534,2.3.914,12.212Z" transform="translate(-646.031 -82.353)"/><path class="h" d="M646.031,97c.114.088.175.129.175.129l3.186-11.267,2.1-3.514-4.534,2.3-.914,12.212Z" transform="translate(-646.031 -82.353)"/></g><path class="d" d="M678.689,80.291v4.662a56.447,56.447,0,0,1-12.922,1.7c-2.9.088-5.705.009-8.253-.135q-1.9-.114-3.547-.261c-1.315-.114-2.507-.242-3.525-.365-2.447-.3-3.949-.56-3.949-.56V80.9s16.015-8.562,16.1-8.562c0,.042,2.005,1.039,4.6,2.313.822.411,1.705.843,2.6,1.285.852.417,1.717.843,2.558,1.26,2.386,1.161,4.554,2.22,5.635,2.743Z" transform="translate(-645.734 -72.34)"/><g transform="translate(4.708 2.313)"><path class="i" d="M669.788,75.938,653.967,86.259c-1.315-.114-2.507-.242-3.525-.365l16.746-11.241C668.01,75.064,668.893,75.5,669.788,75.938Z" transform="translate(-650.442 -74.653)"/><path class="i" d="M677.981,79.941l-12.214,6.714c-2.9.088-5.705.009-8.253-.135L672.346,77.2C674.732,78.359,676.9,79.418,677.981,79.941Z" transform="translate(-650.442 -74.653)"/></g></g><g transform="translate(2.633 45.502)"><path class="c" d="M630.951,140.487l-.533,3.763,1.86-3.316Z" transform="translate(-621.166 -117.842)"/><path class="c" d="M638.352,140.487l-.533,3.763,1.86-3.316Z" transform="translate(-621.166 -117.842)"/><path class="c" d="M645.753,140.487l-.533,3.763,1.85-3.316Z" transform="translate(-621.166 -117.842)"/><path class="c" d="M621.7,152.607l-.533,3.761,1.85-3.314Z" transform="translate(-621.166 -117.842)"/><path class="c" d="M629.1,152.607l-.533,3.761,1.851-3.314Z" transform="translate(-621.166 -117.842)"/><path class="c" d="M636.5,152.607l-.533,3.761,1.85-3.314Z" transform="translate(-621.166 -117.842)"/><path class="c" d="M623.96,164.819l-.524,3.758,1.841-3.31Z" transform="translate(-621.166 -117.842)"/><path class="c" d="M631.362,164.819l-.533,3.758,1.86-3.31Z" transform="translate(-621.166 -117.842)"/><path class="c" d="M639.288,164.531c-.35.844-.689,1.651-1.007,2.407l-.114.03.381-2.684Z" transform="translate(-621.166 -117.842)"/><path class="c" d="M643.9,119.359l-.533,3.756,1.85-3.309Z" transform="translate(-621.166 -117.842)"/><path class="c" d="M636.5,117.842l-.533,3.758,1.85-3.31Z" transform="translate(-621.166 -117.842)"/><path class="c" d="M629.595,119.209l-1.028,1.84.2-1.366C629.03,119.528,629.306,119.363,629.595,119.209Z" transform="translate(-621.166 -117.842)"/><path class="c" d="M623.416,172.437l-.965.288.082-.592Z" transform="translate(-621.166 -117.842)"/><path class="c" d="M621.886,128.272l-.526,3.762,1.85-3.32Z" transform="translate(-621.166 -117.842)"/><path class="c" d="M630.119,128.272l-.535,3.762,1.862-3.32Z" transform="translate(-621.166 -117.842)"/><path class="c" d="M637.52,128.272l-.535,3.762,1.862-3.32Z" transform="translate(-621.166 -117.842)"/><path class="c" d="M644.921,128.272l-.535,3.762,1.85-3.32Z" transform="translate(-621.166 -117.842)"/><path class="c" d="M652.507,121.316l-.533,3.764,1.85-3.32Z" transform="translate(-621.166 -117.842)"/><path class="c" d="M622.718,140.487l-.524,3.763,1.85-3.316Z" transform="translate(-621.166 -117.842)"/></g><g transform="translate(54.584 45.502)"><path class="c" d="M695.989,140.487l.526,3.763-1.841-3.316Z" transform="translate(-673.117 -117.842)"/><path class="c" d="M688.588,140.487l.535,3.763-1.86-3.316Z" transform="translate(-673.117 -117.842)"/><path class="c" d="M681.187,140.487l.535,3.763-1.85-3.316Z" transform="translate(-673.117 -117.842)"/><path class="c" d="M683.037,119.359l.535,3.756-1.85-3.309Z" transform="translate(-673.117 -117.842)"/><path class="c" d="M690.438,117.842l.535,3.758-1.85-3.31Z" transform="translate(-673.117 -117.842)"/><path class="c" d="M696.842,120.32l1.028,1.839-.194-1.366Q697.259,120.552,696.842,120.32Z" transform="translate(-673.117 -117.842)"/><path class="c" d="M705.056,128.272l.535,3.762-1.862-3.32Z" transform="translate(-673.117 -117.842)"/><path class="c" d="M696.823,128.272l.533,3.762-1.86-3.32Z" transform="translate(-673.117 -117.842)"/><path class="c" d="M689.422,128.272l.533,3.762-1.85-3.32Z" transform="translate(-673.117 -117.842)"/><path class="c" d="M682.02,128.272l.533,3.762-1.85-3.32Z" transform="translate(-673.117 -117.842)"/><path class="c" d="M674.444,121.316l.524,3.764-1.85-3.32Z" transform="translate(-673.117 -117.842)"/><path class="c" d="M704.224,140.487l.533,3.763-1.86-3.316Z" transform="translate(-673.117 -117.842)"/></g><path class="h" d="M656.044,118.885a7.168,7.168,0,0,0-.185,1.717,7.679,7.679,0,0,0,15.357,0,7.494,7.494,0,0,0-.463-2.6,7.253,7.253,0,0,0-.575-14.485,22.021,22.021,0,0,0-5.675,1.656l-2.137,0a23.311,23.311,0,0,0-6.2-1.649,7.679,7.679,0,0,0-.123,15.357Z" transform="translate(-618.533 -72.34)"/><path class="c" d="M663.681,75.279a1.161,1.161,0,0,0,.031-.276,1.223,1.223,0,0,0-2.446,0,1.323,1.323,0,0,0,.072.415,1.153,1.153,0,0,0,.093,2.3,3.344,3.344,0,0,0,.9-.262l-.782,1.342h1.9l-.781-1.342a3.549,3.549,0,0,0,.986.262,1.221,1.221,0,0,0,.021-2.442Z" transform="translate(-618.533 -72.34)"/><path class="e" d="M666.961,138.993a4.176,4.176,0,0,0,.051-.947,4.325,4.325,0,0,0-8.625.016,4.032,4.032,0,0,0,.185,1.448,4.737,4.737,0,0,0-4.215,4.308,4.218,4.218,0,0,0,4.184,4.723,13.251,13.251,0,0,0,3.588-1.15l-3.279,6.038,7.915-.087-3.3-5.962a13.4,13.4,0,0,0,3.9,1.089,4.419,4.419,0,0,0,4.308-5A4.931,4.931,0,0,0,666.961,138.993Z" transform="translate(-618.533 -72.34)"/><path class="d" d="M666.888,138.745a4.251,4.251,0,0,0,.113-.977,4.363,4.363,0,0,0-8.726,0,4.163,4.163,0,0,0,.266,1.482,4.118,4.118,0,0,0,.32,8.223,12.415,12.415,0,0,0,3.227-.94l-2.8,4.789,6.815-.006-2.806-4.783a13.446,13.446,0,0,0,3.516.94,4.364,4.364,0,0,0,.072-8.728Z" transform="translate(-618.533 -72.34)"/><path class="e" d="M662.581,147.848l1.747,2.247h-3.34Zm-3.752-2.04a2.451,2.451,0,0,1-.164-4.893l2.21-.171-.771-2.075a2.632,2.632,0,0,1-.166-.9,2.7,2.7,0,0,1,2.706-2.681,2.684,2.684,0,0,1,2.682,2.681,2.563,2.563,0,0,1-.061.618l-.453,2,2.056.032a2.709,2.709,0,0,1,2.651,2.688,2.69,2.69,0,0,1-2.693,2.692h0a14.356,14.356,0,0,1-2.086-.493L662.6,144.29l-1.923,1.019A13.213,13.213,0,0,1,658.829,145.808Z" transform="translate(-618.533 -72.34)"/><g transform="translate(37.91 34.231)"><path class="g" d="M656.443,106.571h13.036l-1.831,4.656-8.829-.03Z" transform="translate(-656.443 -106.571)"/><rect class="e" width="7" height="1.378" transform="translate(3.014 0.647)"/></g><path class="e" d="M706.67,124.914s-20.713-11.822-27.334-15.574c-.636-.359-1.13-.635-1.479-.832L679.614,101l-.3-3.99-.011-.143-.884-11.842c.092-.025.185-.042.267-.067V80.291l-.708-.35c-1.081-.523-3.249-1.582-5.635-2.743-.841-.417-1.706-.843-2.558-1.26-.9-.442-1.778-.874-2.6-1.285-2.591-1.274-4.6-2.271-4.6-2.313a.134.134,0,0,1-.042.021v88.464l16.623-4.995.163.539,9.438-3.423L707,147.473V126.035Z" transform="translate(-618.533 -72.34)"/></g><g transform="translate(33.29 97.419)"><path class="c" d="M618.533,203.892l.33,1.12s20.713,11.821,27.333,15.569c1.244.7,1.984,1.125,2.014,1.125H677.7c.009,0,.051-.03.133-.072.061-.036.133-.073.227-.124.07-.04.163-.091.257-.143l.287-.16c.1-.062.206-.123.33-.19.184-.1.369-.211.586-.329.4-.231.853-.488,1.366-.777l.01,0q.572-.325,1.2-.689c.143-.076.288-.16.442-.247.988-.566,2.077-1.183,3.249-1.845.421-.236.842-.483,1.274-.729s.864-.489,1.3-.735.893-.51,1.336-.761c5.86-3.336,12.3-7.017,15.429-8.795.185-.107.349-.2.505-.293.75-.426,1.233-.7,1.366-.775V155.876l-19.294,5.8-4.379,1.316-64.793,19.458Z" transform="translate(-618.533 -155.876)"/><g transform="translate(36.114)"><g transform="translate(0 40.377)"><path class="d" d="M662.714,196.253l8.081,13.992H654.647Zm6.539,13.1-6.539-11.313-6.526,11.313Z" transform="translate(-654.647 -196.253)"/></g><path class="e" d="M673.57,221.706c.155-.042,29.337-16.694,29.337-16.694L707,192.383V155.876l-19.294,5.8-4.379,1.316-11.533,37.854-1.554,5.068-2.25,4.831L662.952,221.5v.2Z" transform="translate(-654.647 -155.876)"/><path class="f" d="M677.7,221.706c.009,0,.051-.03.133-.072.061-.036.133-.073.227-.124.07-.04.163-.091.257-.143s.184-.1.287-.16.206-.123.33-.19c.184-.1.369-.211.586-.329.4-.227.853-.484,1.366-.777l.01,0c.381-.217.783-.441,1.2-.689.143-.076.288-.16.442-.247.988-.554,2.077-1.177,3.249-1.845.421-.236.842-.483,1.274-.729s.864-.489,1.3-.735.893-.5,1.336-.761c1.891-1.079,3.844-2.18,5.715-3.263.566-.314,1.131-.638,1.675-.952,3.28-1.877,6.229-3.552,8.039-4.58.185-.107.349-.2.505-.293.75-.426,1.233-.7,1.366-.775V155.876l-3.433,1.033-1.933.581-13.713,4.118-.215.066c-.648,1.516-1.316,3.13-2.014,4.811-4.626,11.116-10.261,25.19-13.9,34.359-2.283,5.709-3.774,9.513-3.774,9.513l-.03.386-1,10.963Z" transform="translate(-654.647 -155.876)"/></g><g transform="translate(0 17.68)"><path class="e" d="M618.533,190.158l4.472,14.854s29.184,16.652,29.338,16.694h10.609v-.2l-7.289-15.589L646.2,173.556l-27.663,10.023Z" transform="translate(-618.533 -173.556)"/><path class="f" d="M618.533,203.881l.341,1.131s29.182,16.652,29.336,16.694h10.7l-1.017-11.343s-12.592-26.131-17.075-34.606l-22.286,6.691Z" transform="translate(-618.533 -173.556)"/></g><g transform="translate(27.385 49.973)"><path class="g" d="M645.918,228.927l.3,3.99.009.149.916,12.212,4.532,2.292L660.434,252l2.425-1.3,2.425,1.3,8.759-4.435,4.534-2.292.914-12.212.011-.149.3-3.99-3.638-12.118L662.88,205.881v-.027l-.009-.006-.012.015-.021-.015v.032L648.6,217.5Z" transform="translate(-645.918 -205.849)"/><path class="g" d="M662.838,221.712l-5.367.184,4.009,2.523s.649.015,1.358.027h.032c.72-.012,1.355-.027,1.355-.027l4.01-2.523-5.365-.184v-.006h-.032Z" transform="translate(-645.918 -205.849)"/><path class="e" d="M659.59,229.385l2.2,7.643h2.128l2.21-7.643-2.21-2.36-1.047-.04h-.032l-1.049.04Z" transform="translate(-645.918 -205.849)"/><g transform="translate(0.299 26.938)"><path class="h" d="M660.536,239.067l-6.9.87-.154.019-.071-.04-3.29-1.742,3.587,1-.227-.015,6.693-1.887Z" transform="translate(-646.217 -232.787)"/><path class="c" d="M658.109,236.189a1.943,1.943,0,1,0-3.535,0Z" transform="translate(-646.217 -232.787)"/><path class="h" d="M665.181,239.067l6.9.87.145.019.082-.04,3.289-1.742-3.588,1,.227-.015-6.7-1.887Z" transform="translate(-646.217 -232.787)"/><path class="c" d="M667.6,236.189a1.947,1.947,0,1,1,3.719-.806,1.823,1.823,0,0,1-.184.806Z" transform="translate(-646.217 -232.787)"/><path class="h" d="M646.217,232.916c.113-.083.164-.129.164-.129l3.2,11.271,2.1,3.51-4.532-2.292-.916-12.211Z" transform="translate(-646.217 -232.787)"/><path class="h" d="M679.5,232.916c-.114-.083-.175-.129-.175-.129l-3.2,11.271-2.088,3.51,4.535-2.292.914-12.211Z" transform="translate(-646.217 -232.787)"/></g><path class="d" d="M646.834,249.63v-4.656a55.847,55.847,0,0,1,12.931-1.7c2.888-.082,5.706-.015,8.254.133,1.255.073,2.446.166,3.547.263,1.315.112,2.5.242,3.525.366,2.446.293,3.948.554,3.948.554v4.435s-16.017,8.559-16.1,8.559c0-.043-2-1.04-4.593-2.313-.822-.408-1.707-.838-2.6-1.28-.853-.417-1.715-.849-2.558-1.26-2.386-1.161-4.565-2.219-5.633-2.745C647.1,249.757,646.834,249.63,646.834,249.63Z" transform="translate(-645.918 -205.849)"/><g transform="translate(1.636 37.388)"><path class="i" d="M655.745,253.989l15.821-10.321c1.315.112,2.5.242,3.525.366l-16.744,11.235C657.525,254.861,656.64,254.431,655.745,253.989Z" transform="translate(-647.554 -243.237)"/><path class="i" d="M647.554,249.984l12.211-6.712c2.888-.082,5.706-.015,8.254.133l-14.832,9.324C650.8,251.568,648.622,250.51,647.554,249.984Z" transform="translate(-647.554 -243.237)"/></g></g><g transform="translate(53.178 1.327)"><path class="c" d="M694.58,189.434l.535-3.758-1.86,3.314Z" transform="translate(-671.711 -157.203)"/><path class="c" d="M687.17,189.434l.535-3.758-1.85,3.314Z" transform="translate(-671.711 -157.203)"/><path class="c" d="M679.778,189.434l.526-3.758-1.841,3.314Z" transform="translate(-671.711 -157.203)"/><path class="c" d="M703.832,177.32l.526-3.764-1.841,3.316Z" transform="translate(-671.711 -157.203)"/><path class="c" d="M696.431,177.32l.535-3.764-1.85,3.316Z" transform="translate(-671.711 -157.203)"/><path class="c" d="M689.029,177.32l.535-3.764-1.86,3.316Z" transform="translate(-671.711 -157.203)"/><path class="c" d="M701.57,165.106l.526-3.762-1.85,3.31Z" transform="translate(-671.711 -157.203)"/><path class="c" d="M694.169,165.106l.535-3.762-1.86,3.31Z" transform="translate(-671.711 -157.203)"/><path class="c" d="M686.245,165.4c.35-.843.688-1.656,1.007-2.406l.1-.037-.369,2.688Z" transform="translate(-671.711 -157.203)"/><path class="c" d="M681.628,210.568l.535-3.762-1.86,3.309Z" transform="translate(-671.711 -157.203)"/><path class="c" d="M689.029,212.08l.535-3.752-1.86,3.31Z" transform="translate(-671.711 -157.203)"/><path class="c" d="M695.938,210.717l1.028-1.845-.2,1.373C696.5,210.4,696.216,210.562,695.938,210.717Z" transform="translate(-671.711 -157.203)"/><path class="c" d="M702.117,157.5l.965-.293-.082.59Z" transform="translate(-671.711 -157.203)"/><path class="c" d="M703.647,201.656l.526-3.762-1.85,3.314Z" transform="translate(-671.711 -157.203)"/><path class="c" d="M695.4,201.656l.546-3.762-1.862,3.314Z" transform="translate(-671.711 -157.203)"/><path class="c" d="M688.013,201.656l.535-3.762-1.862,3.314Z" transform="translate(-671.711 -157.203)"/><path class="c" d="M680.612,201.656l.535-3.762-1.862,3.314Z" transform="translate(-671.711 -157.203)"/><path class="c" d="M673.026,208.609l.535-3.761-1.85,3.314Z" transform="translate(-671.711 -157.203)"/><path class="c" d="M702.815,189.434l.523-3.758-1.85,3.314Z" transform="translate(-671.711 -157.203)"/></g><g transform="translate(1.409 29.801)"><path class="c" d="M629.544,189.434l-.535-3.758,1.85,3.314Z" transform="translate(-619.942 -185.677)"/><path class="c" d="M636.945,189.434l-.535-3.758,1.85,3.314Z" transform="translate(-619.942 -185.677)"/><path class="c" d="M644.346,189.434l-.535-3.758,1.85,3.314Z" transform="translate(-619.942 -185.677)"/><path class="c" d="M642.485,210.568l-.524-3.762,1.85,3.309Z" transform="translate(-619.942 -185.677)"/><path class="c" d="M635.083,212.08l-.523-3.752,1.85,3.31Z" transform="translate(-619.942 -185.677)"/><path class="c" d="M628.689,209.607l-1.028-1.841.2,1.369C628.126,209.289,628.413,209.453,628.689,209.607Z" transform="translate(-619.942 -185.677)"/><path class="c" d="M620.477,201.656l-.535-3.762,1.86,3.314Z" transform="translate(-619.942 -185.677)"/><path class="c" d="M628.71,201.656l-.535-3.762,1.85,3.314Z" transform="translate(-619.942 -185.677)"/><path class="c" d="M636.111,201.656l-.535-3.762,1.85,3.314Z" transform="translate(-619.942 -185.677)"/><path class="c" d="M643.512,201.656l-.535-3.762,1.85,3.314Z" transform="translate(-619.942 -185.677)"/><path class="c" d="M651.089,208.609l-.524-3.761,1.85,3.314Z" transform="translate(-619.942 -185.677)"/><path class="c" d="M621.309,189.434l-.535-3.758,1.85,3.314Z" transform="translate(-619.942 -185.677)"/></g><path class="h" d="M669.489,211.04a7.16,7.16,0,0,0,.185-1.717,7.679,7.679,0,0,0-15.357,0,7.435,7.435,0,0,0,.463,2.6,7.255,7.255,0,0,0,.575,14.488,21.8,21.8,0,0,0,5.674-1.66h2.138a23.477,23.477,0,0,0,6.2,1.65,7.68,7.68,0,0,0,.124-15.358Z" transform="translate(-618.533 -155.876)"/><path class="c" d="M661.852,254.646a1.182,1.182,0,0,0-.031.272,1.223,1.223,0,0,0,2.446,0,1.339,1.339,0,0,0-.072-.411,1.152,1.152,0,0,0-.091-2.3,3.477,3.477,0,0,0-.906.261l.782-1.341h-1.9l.781,1.341a3.817,3.817,0,0,0-.986-.261,1.22,1.22,0,0,0-.021,2.44Z" transform="translate(-618.533 -155.876)"/><path class="e" d="M658.572,190.935a4.1,4.1,0,0,0-.051.945,4.33,4.33,0,0,0,8.634-.015,4.011,4.011,0,0,0-.205-1.45,4.732,4.732,0,0,0,4.225-4.306,4.229,4.229,0,0,0-4.184-4.729,13.462,13.462,0,0,0-3.588,1.15l3.28-6.033-7.915.088,3.31,5.962a13.793,13.793,0,0,0-3.906-1.1,4.428,4.428,0,0,0-4.308,5.013A4.933,4.933,0,0,0,658.572,190.935Z" transform="translate(-618.533 -155.876)"/><path class="d" d="M658.644,191.176a4.362,4.362,0,1,0,8.614.977,4.122,4.122,0,0,0-.267-1.476,4.121,4.121,0,0,0-.317-8.229,12.55,12.55,0,0,0-3.229.94l2.8-4.789-6.805.009,2.8,4.786a13.208,13.208,0,0,0-3.527-.94,4.361,4.361,0,0,0-.061,8.722Z" transform="translate(-618.533 -155.876)"/><path class="e" d="M662.952,182.073l-1.748-2.246h3.341Zm3.752,2.046a2.45,2.45,0,0,1,.164,4.893l-2.2.169.761,2.077a2.611,2.611,0,0,1,.155.9,2.69,2.69,0,0,1-2.694,2.682,2.661,2.661,0,0,1-1.9-.786,2.583,2.583,0,0,1-.781-1.893,2.09,2.09,0,0,1,.061-.616l.453-2-2.056-.031a2.694,2.694,0,0,1,.04-5.387h0a14.864,14.864,0,0,1,2.088.5l2.138,1.009,1.923-1.018A12.169,12.169,0,0,1,666.7,184.119Z" transform="translate(-618.533 -155.876)"/><g transform="translate(37.532 62.822)"><path class="g" d="M669.087,223.357H656.065l1.818-4.658,8.831.032Z" transform="translate(-656.065 -218.698)"/><rect class="e" width="6.99" height="1.377" transform="translate(3.011 2.633)"/></g><path class="e" d="M618.863,205.012s20.713,11.821,27.333,15.569c.638.358,1.141.647,1.48.838l-1.758,7.508.3,3.989.01.149.883,11.846c-.082.021-.185.036-.276.063v4.656s.267.127.72.354c1.068.526,3.247,1.584,5.633,2.745.843.411,1.705.843,2.558,1.26.9.442,1.78.872,2.6,1.28,2.589,1.273,4.593,2.27,4.593,2.313a.178.178,0,0,1,.042-.022V169.1l-16.622,4.991-.164-.535-9.426,3.419-18.237,5.473v21.444Z" transform="translate(-618.533 -155.876)"/></g></g><g transform="translate(590.561 94.412)"><path class="c" d="M610.609,100.028a4.539,4.539,0,0,0,.1-.971,4.323,4.323,0,0,0-8.647,0,4.225,4.225,0,0,0,.259,1.46,4.084,4.084,0,0,0,.328,8.155,11.984,11.984,0,0,0,3.186-.929l-2.764,4.748,6.743,0-2.764-4.744a13.2,13.2,0,0,0,3.483.929,4.322,4.322,0,0,0,.073-8.644Z" transform="translate(-598.561 -94.739)"/><path class="e" d="M610.609,100.028a4.539,4.539,0,0,0,.1-.971,4.311,4.311,0,0,0-4.329-4.318s0,0-.01,0v17.744h3.444l-2.764-4.744a13.2,13.2,0,0,0,3.483.929,4.322,4.322,0,0,0,.073-8.644Z" transform="translate(-598.561 -94.739)"/></g><g transform="translate(716.189 215.552)"><path class="c" d="M714.287,229.4a3.765,3.765,0,0,0-.1.971,4.323,4.323,0,0,0,8.646,0,4.258,4.258,0,0,0-.257-1.459,4.084,4.084,0,0,0-.329-8.156,11.987,11.987,0,0,0-3.187.929l2.764-4.75-6.743.006,2.766,4.744a13.4,13.4,0,0,0-3.485-.929,4.322,4.322,0,0,0-.072,8.644Z" transform="translate(-710.032 -216.93)"/><path class="e" d="M714.287,229.4a3.765,3.765,0,0,0-.1.971,4.3,4.3,0,0,0,4.317,4.313h.021V216.936h-3.444l2.766,4.744a13.4,13.4,0,0,0-3.485-.929,4.322,4.322,0,0,0-.072,8.644Z" transform="translate(-710.032 -216.93)"/></g></g></svg>