<svg xmlns="http://www.w3.org/2000/svg" width="154" height="215" viewBox="0 0 154 215"><defs><style>.a{fill:#c9c9c9;}.b{fill:#fff;}.c{fill:#333;}.d{fill:#616161;opacity:0.2;}.e,.f{stroke:none;}.f{fill:#c4c4c4;}</style></defs><g transform="translate(-1532.058 -55.362)"><g transform="translate(1533.058 54.362)"><g transform="translate(-1 1)"><path class="a" d="M1550.085,269.362a16.4,16.4,0,0,1-16.559-16.167l-.469-182.571a16.375,16.375,0,0,1,16.533-16.262l120.927.225a16.442,16.442,0,0,1,16.513,16.29V253.049a16.342,16.342,0,0,1-16.449,16.171Z" transform="translate(-1533.058 -54.362)"/><g class="b" transform="translate(-1533.058 -54.362)"><path class="e" d="M 1670.758178710938 268.4009399414063 L 1551.60498046875 268.4009399414063 C 1542.89453125 268.4009399414063 1535.80810546875 261.3569641113281 1535.80810546875 252.6987457275391 L 1535.80810546875 70.57022094726563 C 1535.80810546875 61.91307830810547 1542.89453125 54.8699951171875 1551.60498046875 54.8699951171875 L 1670.758178710938 54.8699951171875 C 1679.470336914063 54.8699951171875 1686.55810546875 61.91307830810547 1686.55810546875 70.57022094726563 L 1686.55810546875 252.6987457275391 C 1686.55810546875 261.3569641113281 1679.470336914063 268.4009399414063 1670.758178710938 268.4009399414063 Z"/><path class="f" d="M 1670.758178710938 267.9009399414063 C 1679.194580078125 267.9009399414063 1686.05810546875 261.0812683105469 1686.05810546875 252.6987457275391 L 1686.05810546875 70.57022094726563 C 1686.05810546875 62.18877410888672 1679.194580078125 55.3699951171875 1670.758178710938 55.3699951171875 L 1551.60498046875 55.3699951171875 C 1543.170288085938 55.3699951171875 1536.30810546875 62.18877410888672 1536.30810546875 70.57022094726563 L 1536.30810546875 252.6987457275391 C 1536.30810546875 261.0812683105469 1543.170288085938 267.9009399414063 1551.60498046875 267.9009399414063 L 1670.758178710938 267.9009399414063 M 1670.758178710938 268.9009399414063 L 1551.60498046875 268.9009399414063 C 1542.61767578125 268.9009399414063 1535.30810546875 261.6328430175781 1535.30810546875 252.6987457275391 L 1535.30810546875 70.57022094726563 C 1535.30810546875 61.63410568237305 1542.61767578125 54.3699951171875 1551.60498046875 54.3699951171875 L 1670.758178710938 54.3699951171875 C 1679.74853515625 54.3699951171875 1687.05810546875 61.63410568237305 1687.05810546875 70.57022094726563 L 1687.05810546875 252.6987457275391 C 1687.05810546875 261.6328430175781 1679.74853515625 268.9009399414063 1670.758178710938 268.9009399414063 Z"/></g><g transform="translate(10.177 13.672)"><path class="c" d="M1554.584,68.35q-.452.806-.83,1.565c-.571,1.142-1.039,2.114-1.405,2.927-.43.927-.822,1.818-1.165,2.662-.51,1.212-.761,1.833-.761,1.85-.282.586-.678,1.319-1.192,2.21a23.626,23.626,0,0,1-1.473,2.3,18.71,18.71,0,0,1-1.877,2.091,14.553,14.553,0,0,1-2.38,1.785,1.3,1.3,0,0,1-.182-.12.284.284,0,0,1-.084-.217,7.148,7.148,0,0,1,1.1-1.565,11.982,11.982,0,0,0,1-1.378,12.891,12.891,0,0,0,.822-1.569c.263-.586.533-1.2.8-1.831.709-1.452,1.31-2.805,1.805-4.039q.452-1.139.906-2.562c0-.32-1.111-.474-3.331-.474a3.4,3.4,0,0,0-.975.154,2.537,2.537,0,0,0-.974.535h-.644v-.5a11.125,11.125,0,0,1,2.97-3.072,4.51,4.51,0,0,1,2.4-.689,10.17,10.17,0,0,1,1.192.1,11.478,11.478,0,0,0,1.237.1c.408-.021.735-.034.971-.052a3.042,3.042,0,0,0,1.6-.525h.408Z" transform="translate(-1543.235 -68.034)"/></g><g transform="translate(135.745 185.203)"><path class="c" d="M1670,259.146c.293-.541.575-1.068.83-1.572q.856-1.709,1.4-2.926c.422-.937.814-1.82,1.161-2.656.514-1.224.761-1.84.761-1.858.29-.578.685-1.319,1.192-2.21a22.5,22.5,0,0,1,1.477-2.3,18.773,18.773,0,0,1,1.877-2.09,13.993,13.993,0,0,1,2.379-1.786.649.649,0,0,1,.176.12.26.26,0,0,1,.083.21,6.907,6.907,0,0,1-1.089,1.568,13.141,13.141,0,0,0-1,1.38,12.946,12.946,0,0,0-.822,1.563q-.395.891-.8,1.83c-.715,1.46-1.313,2.807-1.8,4.041-.3.767-.606,1.62-.906,2.57,0,.317,1.111.471,3.331.471a3.5,3.5,0,0,0,.978-.154,2.726,2.726,0,0,0,.975-.534h.636v.5a11.151,11.151,0,0,1-2.966,3.075,4.543,4.543,0,0,1-2.406.681,11.293,11.293,0,0,1-1.188-.093,11,11,0,0,0-1.237-.1c-.411.014-.735.031-.975.044a3.127,3.127,0,0,0-1.595.526h-.4Z" transform="translate(-1669.996 -241.747)"/></g></g></g><g transform="translate(1622.126 71.93)"><path class="c" d="M1649.182,83.409a9.593,9.593,0,0,0,.232-2.1,9.388,9.388,0,0,0-18.777,0,9.13,9.13,0,0,0,.567,3.175,8.868,8.868,0,0,0,.7,17.709,26.758,26.758,0,0,0,6.93-2.025l-6,10.3,14.646-.01-6.011-10.292a28.613,28.613,0,0,0,7.564,2.014,9.386,9.386,0,0,0,.153-18.77Z" transform="translate(-1623.022 -71.93)"/><path class="d" d="M1649.182,83.409a9.593,9.593,0,0,0,.232-2.1,9.375,9.375,0,0,0-9.388-9.376c-.012,0-.027.006-.043.006v38.529l7.493-.008-6.011-10.292a28.613,28.613,0,0,0,7.564,2.014,9.386,9.386,0,0,0,.153-18.77Z" transform="translate(-1623.022 -71.93)"/></g><g transform="translate(1622.126 144.194)"><path class="c" d="M1649.182,156.784a9.609,9.609,0,0,0,.232-2.1,9.388,9.388,0,0,0-18.777,0,9.14,9.14,0,0,0,.567,3.176,8.867,8.867,0,0,0,.7,17.708,26.831,26.831,0,0,0,6.93-2.021l-6,10.3,14.646-.011-6.011-10.293a28.612,28.612,0,0,0,7.564,2.014,9.385,9.385,0,0,0,.153-18.769Z" transform="translate(-1623.022 -145.305)"/><path class="d" d="M1649.182,156.784a9.609,9.609,0,0,0,.232-2.1,9.377,9.377,0,0,0-9.388-9.375c-.012,0-.027.008-.043.008V183.84l7.493-.008-6.011-10.293a28.612,28.612,0,0,0,7.564,2.014,9.385,9.385,0,0,0,.153-18.769Z" transform="translate(-1623.022 -145.305)"/></g><g transform="translate(1592.688 108.219)"><path class="c" d="M1619.447,120.364a8.924,8.924,0,0,0,.225-2.1,9.386,9.386,0,0,0-18.773,0,9.08,9.08,0,0,0,.567,3.172,8.866,8.866,0,0,0,.708,17.7,26.748,26.748,0,0,0,6.929-2.018l-6.015,10.3,14.65-.011-6.015-10.3a28.625,28.625,0,0,0,7.572,2.016,9.383,9.383,0,0,0,.152-18.764Z" transform="translate(-1593.288 -108.885)"/><path class="d" d="M1619.447,120.364a8.924,8.924,0,0,0,.225-2.1,9.36,9.36,0,0,0-9.381-9.375c-.011,0-.026.006-.042.006v38.521l7.489,0-6.015-10.3a28.625,28.625,0,0,0,7.572,2.016,9.383,9.383,0,0,0,.152-18.764Z" transform="translate(-1593.288 -108.885)"/></g><g transform="translate(1564.818 71.93)"><path class="c" d="M1574.37,83.409a10.051,10.051,0,0,1-.228-2.1,9.385,9.385,0,1,1,18.217,3.175,8.868,8.868,0,0,1-.712,17.709,26.733,26.733,0,0,1-6.925-2.025l6,10.3-14.639-.01,6-10.292a28.567,28.567,0,0,1-7.565,2.014,9.386,9.386,0,0,1-.156-18.77Z" transform="translate(-1565.138 -71.93)"/><path class="d" d="M1574.37,83.409a10.051,10.051,0,0,1-.228-2.1,9.373,9.373,0,0,1,9.388-9.376c.016,0,.023.006.038.006v38.529l-7.481-.008,6-10.292a28.567,28.567,0,0,1-7.565,2.014,9.386,9.386,0,0,1-.156-18.77Z" transform="translate(-1565.138 -71.93)"/></g><g transform="translate(1564.818 144.194)"><path class="c" d="M1574.37,156.784a10.068,10.068,0,0,1-.228-2.1,9.385,9.385,0,1,1,18.217,3.176,8.868,8.868,0,0,1-.712,17.708,26.806,26.806,0,0,1-6.925-2.021l6,10.3-14.639-.011,6-10.293a28.566,28.566,0,0,1-7.565,2.014,9.385,9.385,0,0,1-.156-18.769Z" transform="translate(-1565.138 -145.305)"/><path class="d" d="M1574.37,156.784a10.068,10.068,0,0,1-.228-2.1,9.374,9.374,0,0,1,9.388-9.375c.016,0,.023.008.038.008V183.84l-7.481-.008,6-10.293a28.566,28.566,0,0,1-7.565,2.014,9.385,9.385,0,0,1-.156-18.769Z" transform="translate(-1565.138 -145.305)"/></g><g transform="translate(1622.126 212.797)"><path class="c" d="M1649.182,242.042a9.545,9.545,0,0,1,.232,2.1,9.388,9.388,0,0,1-18.777,0,9.133,9.133,0,0,1,.567-3.177,8.865,8.865,0,0,1,.7-17.7,26.45,26.45,0,0,1,6.93,2.025l-6-10.307,14.646.011-6.011,10.3a28.506,28.506,0,0,1,7.564-2.017,9.386,9.386,0,0,1,.153,18.771Z" transform="translate(-1623.022 -214.979)"/><path class="d" d="M1649.182,242.042a9.545,9.545,0,0,1,.232,2.1,9.375,9.375,0,0,1-9.388,9.375c-.012,0-.027,0-.043,0V214.986l7.493,0-6.011,10.3a28.506,28.506,0,0,1,7.564-2.017,9.386,9.386,0,0,1,.153,18.771Z" transform="translate(-1623.022 -214.979)"/></g><g transform="translate(1564.818 212.797)"><path class="c" d="M1574.37,242.042a10,10,0,0,0-.228,2.1,9.385,9.385,0,1,0,18.217-3.177,8.866,8.866,0,0,0-.712-17.7,26.425,26.425,0,0,0-6.925,2.025l6-10.307-14.639.011,6,10.3a28.461,28.461,0,0,0-7.565-2.017,9.386,9.386,0,0,0-.156,18.771Z" transform="translate(-1565.138 -214.979)"/><path class="d" d="M1574.37,242.042a10,10,0,0,0-.228,2.1,9.372,9.372,0,0,0,9.388,9.375c.016,0,.023,0,.038,0V214.986l-7.481,0,6,10.3a28.461,28.461,0,0,0-7.565-2.017,9.386,9.386,0,0,0-.156,18.771Z" transform="translate(-1565.138 -214.979)"/></g><g transform="translate(1545.268 93.484)"><path class="c" d="M1551.23,96.52a1.689,1.689,0,0,0,.057-.484,2.145,2.145,0,0,0-4.29,0,2.087,2.087,0,0,0,.132.725,2.025,2.025,0,0,0,.157,4.044,6.23,6.23,0,0,0,1.591-.463l-1.371,2.354,3.336,0-1.371-2.351a6.639,6.639,0,0,0,1.729.461,2.142,2.142,0,0,0,.03-4.283Z" transform="translate(-1545.268 -93.898)"/><path class="d" d="M1551.23,96.52a1.689,1.689,0,0,0,.057-.484,2.143,2.143,0,0,0-2.144-2.138h-.011v8.8l1.71,0-1.371-2.351a6.639,6.639,0,0,0,1.729.461,2.142,2.142,0,0,0,.03-4.283Z" transform="translate(-1545.268 -93.898)"/></g><g transform="translate(1672.066 226.193)"><path class="c" d="M1679.228,234.18a2.056,2.056,0,0,1,.054.48,2.141,2.141,0,1,1-4.283,0,2.048,2.048,0,0,1,.129-.719,2.026,2.026,0,0,1,.156-4.046,6.055,6.055,0,0,1,1.584.463l-1.371-2.347h3.343l-1.374,2.353a6.361,6.361,0,0,1,1.732-.463,2.14,2.14,0,0,1,.03,4.279Z" transform="translate(-1673.259 -228.011)"/><path class="d" d="M1679.228,234.18a2.056,2.056,0,0,1,.054.48,2.136,2.136,0,0,1-2.14,2.142h-.008v-8.791h1.706l-1.374,2.353a6.361,6.361,0,0,1,1.732-.463,2.14,2.14,0,0,1,.03,4.279Z" transform="translate(-1673.259 -228.011)"/></g></g></svg>