<svg xmlns="http://www.w3.org/2000/svg" width="154" height="215" viewBox="0 0 154 215"><defs><style>.a{fill:#c9c9c9;}.b,.m{fill:#fff;}.c{fill:#d66142;}.d,.j{fill:#616161;}.d,.i,.m{opacity:0.2;}.e{fill:#be6148;}.f{fill:#757575;}.g{fill:#ebb07a;}.h{fill:#333;}.k{fill:#b35137;}.l{fill:#ababab;}.n{fill:#ffd675;}.o{fill:#ebebeb;}.p,.q{stroke:none;}.q{fill:#c4c4c4;}</style></defs><g transform="translate(-9.535 -574.118)"><g transform="translate(9.535 574.118)"><path class="a" d="M26.541,789.118A16.388,16.388,0,0,1,10,772.949L9.535,590.408a16.353,16.353,0,0,1,16.517-16.261l120.821.22a16.435,16.435,0,0,1,16.49,16.3V772.806a16.334,16.334,0,0,1-16.429,16.169Z" transform="translate(-9.535 -574.118)"/><g class="b" transform="translate(-9.535 -574.118)"><path class="p" d="M 147.2549438476563 788.1229858398438 L 28.2109432220459 788.1229858398438 C 19.50599479675293 788.1229858398438 12.42399597167969 781.0806274414063 12.42399597167969 772.4244384765625 L 12.42399597167969 590.3175048828125 C 12.42399597167969 581.6607666015625 19.50599479675293 574.6179809570313 28.2109432220459 574.6179809570313 L 147.2549438476563 574.6179809570313 C 155.9560699462891 574.6179809570313 163.0349426269531 581.6607666015625 163.0349426269531 590.3175048828125 L 163.0349426269531 772.4244384765625 C 163.0349426269531 781.0806274414063 155.9560699462891 788.1229858398438 147.2549438476563 788.1229858398438 Z"/><path class="q" d="M 147.2549438476563 787.6229858398438 C 155.6803588867188 787.6229858398438 162.5349426269531 780.804931640625 162.5349426269531 772.4244384765625 L 162.5349426269531 590.3175048828125 C 162.5349426269531 581.9364624023438 155.6803588867188 575.1179809570313 147.2549438476563 575.1179809570313 L 28.21094131469727 575.1179809570313 C 19.78169059753418 575.1179809570313 12.923996925354 581.9364624023438 12.923996925354 590.3175048828125 L 12.923996925354 772.4244384765625 C 12.923996925354 780.804931640625 19.78169059753418 787.6229858398438 28.21094131469727 787.6229858398438 L 147.2549438476563 787.6229858398438 M 147.2549438476563 788.6229858398438 L 28.21094131469727 788.6229858398438 C 19.22774696350098 788.6229858398438 11.923996925354 781.3567504882813 11.923996925354 772.4244384765625 L 11.923996925354 590.3175048828125 C 11.923996925354 581.38623046875 19.22774696350098 574.1179809570313 28.21094131469727 574.1179809570313 L 147.2549438476563 574.1179809570313 C 156.2331695556641 574.1179809570313 163.5349426269531 581.38623046875 163.5349426269531 590.3175048828125 L 163.5349426269531 772.4244384765625 C 163.5349426269531 781.3567504882813 156.2331695556641 788.6229858398438 147.2549438476563 788.6229858398438 Z"/></g><g transform="translate(7.236 36.891)"><path class="c" d="M32.633,631.268l-7.862-9.918,7.862-9.929,7.852,9.929Z" transform="translate(-24.771 -611.421)"/><path class="d" d="M32.633,611.421l-.257.328v19.2l.257.316,7.852-9.918Z" transform="translate(-24.771 -611.421)"/></g><g transform="translate(10.343 14.091)"><path class="e" d="M38.534,589.278a5.349,5.349,0,0,1-1.84,1.933,4.284,4.284,0,0,1-2.2.668,19.307,19.307,0,0,1-2.524-.55,7.321,7.321,0,0,0-1.852-.261,4.174,4.174,0,0,0-1.061.133,2.172,2.172,0,0,0-.914.436h-.264V591.3a5.54,5.54,0,0,1,1.774-2.38,4.669,4.669,0,0,1,2.7-.715,6.89,6.89,0,0,1,2.319.4A6.352,6.352,0,0,0,36.8,589c.221,0,.48-.006.773-.027a9.568,9.568,0,0,0,.963-.093Zm.073,13.96A4.575,4.575,0,0,1,36.832,607a6.957,6.957,0,0,1-4.528,1.428,5.563,5.563,0,0,1-2.831-.669,2.472,2.472,0,0,1-1.357-2.255,2.041,2.041,0,0,1,.38-1.219,1.785,1.785,0,0,1,1.525-.71,1.7,1.7,0,0,1,1.127.412,1.322,1.322,0,0,1,.489,1.039,1.356,1.356,0,0,1-.854,1.376c-.571.242-.857.412-.857.505a1.328,1.328,0,0,0,.308.453,2.107,2.107,0,0,0,1.449.447,2.9,2.9,0,0,0,1.63-.447,1.441,1.441,0,0,0,.677-1.266V592.68c.826-.266,1.594-.533,2.309-.79a5.707,5.707,0,0,0,1.9-1.157h.406Z" transform="translate(-27.878 -588.209)"/></g><g transform="translate(131.71 160.292)"><path class="c" d="M144.416,736.2l7.858,9.921-7.858,9.922-7.858-9.922Z" transform="translate(-136.558 -736.199)"/><path class="d" d="M144.416,756.042l.253-.32v-19.2l-.253-.32-7.858,9.921Z" transform="translate(-136.558 -736.199)"/></g><g transform="translate(133.591 182.753)"><path class="e" d="M138.439,764.235a4.6,4.6,0,0,1,1.772-3.762,7.038,7.038,0,0,1,4.535-1.424,5.485,5.485,0,0,1,2.827.663,2.466,2.466,0,0,1,1.357,2.261,2.016,2.016,0,0,1-.381,1.211,1.782,1.782,0,0,1-1.525.716,1.663,1.663,0,0,1-1.127-.419,1.312,1.312,0,0,1-.489-1.036,1.359,1.359,0,0,1,.855-1.378c.571-.236.857-.4.857-.495a1.311,1.311,0,0,0-.307-.457,2.079,2.079,0,0,0-1.451-.441,2.834,2.834,0,0,0-1.629.441,1.441,1.441,0,0,0-.68,1.264v13.409c-.824.267-1.591.533-2.307.8a5.857,5.857,0,0,0-1.9,1.15h-.4Zm.072,13.957a5.461,5.461,0,0,1,1.845-1.934,4.23,4.23,0,0,1,2.2-.655,19.715,19.715,0,0,1,2.522.541,7.2,7.2,0,0,0,1.854.259,4.572,4.572,0,0,0,1.058-.122,2.359,2.359,0,0,0,.918-.442h.263v.327a5.414,5.414,0,0,1-1.774,2.376,4.626,4.626,0,0,1-2.7.723,6.781,6.781,0,0,1-2.32-.4,6.422,6.422,0,0,0-2.128-.389c-.222,0-.482,0-.774.023s-.614.038-.963.084Z" transform="translate(-138.439 -759.049)"/></g></g><g transform="translate(42.535 593.931)"><g transform="translate(0)"><path class="f" d="M76.553,641.78l-5.408,2.14,1.239,2.281,21.406-.259,1.508-2.022-4.786-2.14Z" transform="translate(-38.7 -593.931)"/><g transform="translate(29.037)"><rect class="g" width="13.955" height="14.563" transform="translate(8.819 41.156)"/><path class="d" d="M90.512,637.9v3.541a8.424,8.424,0,0,1-5.7,2.665H82.176a8.419,8.419,0,0,1-5.619-2.6v-3.48l1.2,1.911.316-4.85H88.915l.318,4.85Z" transform="translate(-67.737 -593.931)"/><path class="g" d="M84.813,601.819H82.18c-6.891,0-12.48,4.708-12.48,10.527,0,0,.057,14.243.164,14.921.953,6.141,6.108,15.636,12.316,15.636h2.633c6.2,0,11.358-9.495,12.318-15.636.1-.678.162-14.921.162-14.921C97.293,606.527,91.706,601.819,84.813,601.819Z" transform="translate(-67.737 -593.931)"/><path class="c" d="M96.006,601.819,83.5,593.931l-12.512,7.888L67.737,607.4l1.281,13.2,1.675.986.291-12.143,3.936-4.224,8.576,4.03,8.572-4.03,3.936,4.224.29,12.143,1.679-.986,1.28-13.2Z" transform="translate(-67.737 -593.931)"/><g transform="translate(7.326 22.927)"><path class="h" d="M75.479,618.769a1.773,1.773,0,0,0-.416,1.123,2.352,2.352,0,0,0,4.638,0,1.76,1.76,0,0,0-.414-1.123Z" transform="translate(-75.063 -616.858)"/><path class="d" d="M84.39,616.858H82.6L81.361,626l2.136,2.452L85.627,626Z" transform="translate(-75.063 -616.858)"/><path class="h" d="M91.513,618.769a1.738,1.738,0,0,1,.414,1.123,2.352,2.352,0,0,1-4.638,0,1.755,1.755,0,0,1,.415-1.123Z" transform="translate(-75.063 -616.858)"/></g><path class="c" d="M96.1,627.807l-6.866,10.939-.562-8.567-3.6-1.507-1.571-.206-1.574.206-3.607,1.507-.556,8.567-6.87-10.939-1.026-.54c.953,6.141,6.108,15.636,12.316,15.636h2.633c6.2,0,11.358-9.495,12.318-15.636Z" transform="translate(-67.737 -593.931)"/><path class="g" d="M87.289,632.509l-3.126-2.33H82.829l-3.128,2.33-.188,6.666h7.964Z" transform="translate(-67.737 -593.931)"/><g class="i" transform="translate(13.209 38.887)"><rect class="j" width="5.1" height="1.671"/></g><path class="c" d="M87.057,613.827l6.91.841-6.91.83Z" transform="translate(-67.737 -593.931)"/><path class="c" d="M79.934,615.5l-6.764-.83,6.764-.841Z" transform="translate(-67.737 -593.931)"/></g><path class="f" d="M118.339,645.762l-5.281,4.953-2.32,7.025s7.837-1.576,7.885-1.375Z" transform="translate(-38.7 -593.931)"/><path class="f" d="M49.208,645.762l5.286,4.953,2.315,7.025s-7.835-1.576-7.881-1.375Z" transform="translate(-38.7 -593.931)"/><path class="k" d="M52.381,649.649l-.737,1.478-1.724,5.626s9.754-2.725,9.316-2.432Z" transform="translate(-38.7 -593.931)"/><path class="l" d="M124.686,665.08l-5.273,1.568-9.505,2.841-.6.175L97.116,673.3l-.339.1-.746.221-3.72,1.108-1.435.442-4.641,1.382-2.311.692-8.976,2.673-1.877.556-.421.122-2.346.7-1.482.446-4.254,1.275-6.4,1.9-.011-1.809-.046-5.276-4.222,7.134V686.2l-4.466,1.337-10.719,3.2V675.694l.036-.765v-.083l.1-2.255.359-.841,2.113-5.018,2.113-4.995,2.247-5.345.852-2,.943-2.253,1.576-.393,2.6-.609.126-.034.2-.053.323-.084.166-.027.56-.145.755-.182h.015l.076-.023.389-.095,7.127-1.729.756-.182.327-.069.767-.2,5.7-1.378.1-.023.653-.164,2.159-.525.482-.118,4.22-1.009H90.512l3.316.8.805.191.451.11,5.066,1.233,4.557,1.105,8.477,2.056.491.121,1.961.476,2.7.655.165.034,1.015.256,2.109,5.284,2.111,5.3.6,1.465Z" transform="translate(-38.7 -593.931)"/><path class="m" d="M100.15,647.433,85.465,662.122l-.632.621-2.494,2.5-.021.023L78.28,669.3l-.208.205-7.056,7.066-2.168,2.166-.992.986-1.085,1.089-2.2,2.208-6.4,1.9-.011-1.809,6.567-6.545,1.095-1.111.757-.754,2.262-2.269.691-.689.685-.685.292-.289,8.3-8.3.131-.129.314-.308.009-.015,2.38-2.391.607-.609L95.084,646.2Z" transform="translate(-38.7 -593.931)"/><path class="m" d="M118.339,651.846l-8.827,8.821L97,673.189l-.225.217-.746.221-3.72,1.108-1.435.442-4.641,1.382-2.311.693-8.975,2.673-1.877.556-.421.122.324-.327,1.331-1.329,6.3-6.3.641-.636,3.394-3.392.4-.4,3.31-3.32,16.364-16.364,8.477,2.056.491.122,1.961.476Z" transform="translate(-38.7 -593.931)"/><path class="d" d="M97.116,673.3l-.339.1-.746.221-3.72,1.108-1.435.442-4.641,1.382-2.311.692-8.976,2.673-1.877.556-.421.122-2.346.7-1.482.446-.967-2.022-2.04-4.264-6.588-13.706-3.2-6.666-.3-.644-.014-.015-1.783-3.716V650.7l-.062-.11.389-.095,7.127-1.729.756-.182.327-.069.767-.2,5.7-1.378.1-.023.653-.164c2.02,2.064,6.79,6.724,12.55,12.275,1.038,1.009,2.123,2.048,3.219,3.1.945.917,1.9,1.842,2.879,2.779,2.857,2.741,5.8,5.566,8.657,8.288A1.119,1.119,0,0,1,97.116,673.3Z" transform="translate(-38.7 -593.931)"/><path class="c" d="M83.924,677.251l-8.976,2.673-1.877.556-.421.122-2.346.7-1.457-2.562-2.275-4.032-7.345-12.952-2.613-4.61-1.088-1.934-2.5-4.421-.642-1.142.765-.194,14.782-3.693a13.946,13.946,0,0,0,1.011,1.173c2.09,2.235,6.929,7.043,12.7,12.7,1.04,1.016,2.1,2.063,3.195,3.11.948.941,1.907,1.873,2.87,2.806,2.753,2.692,5.587,5.433,8.327,8.079l-3.72,1.108-1.435.442-4.641,1.382Z" transform="translate(-38.7 -593.931)"/><path class="n" d="M62.166,648.408,60.49,658.9l9.611,4.557.021.046.009-.042.032.015-.027-.049,1.675-10.5L62.2,648.385l-.027-.053-.007.042-.029-.023Z" transform="translate(-38.7 -593.931)"/><path class="d" d="M61.623,647.468l-2.387,12.4L70.772,664.3l.028.061,0-.042h.034l-.028-.038,1.053-11.254-10.188-5.57-.034-.057-.007.034-.04-.011Z" transform="translate(-38.7 -593.931)"/><path class="d" d="M63.072,657.542l.914-5.734,5.248,2.486-.914,5.738Z" transform="translate(-38.7 -593.931)"/><path class="o" d="M71.145,643.919l.716,2.307,11.051,6.415-.324-7.546Z" transform="translate(-38.7 -593.931)"/><path class="o" d="M95.3,643.919l-.716,2.307-11.051,6.415.324-7.546Z" transform="translate(-38.7 -593.931)"/><path class="d" d="M82.34,665.244l2.054,2.181c-.737-.754-1.437-1.481-2.075-2.159-1.228-1.267-2.266-2.364-3.069-3.228-.771-.822-1.33-1.413-1.635-1.74l1.645,1.725Z" transform="translate(-38.7 -593.931)"/><path class="d" d="M85.034,668.221c2.461,2.315,4.934,4.549,7.277,6.514l-1.435.442-6.239-6.56-2.762-2.905-.306-.324-2.764-2.912L73.313,656.7l-.139-.152c.048.042.093.1.151.145,1.7,1.747,3.6,3.681,5.611,5.653.933.925,1.9,1.87,2.871,2.8.1.1.206.2.31.315C83.086,666.39,84.051,667.307,85.034,668.221Z" transform="translate(-38.7 -593.931)"/><path class="d" d="M74.948,679.924l-1.877.556-.1-.206-1.959-3.7-2.182-4.134-2.412-4.6-2.915-5.155,6.017,9.061,2.517,3.8,2.263,3.4Z" transform="translate(-38.7 -593.931)"/><path class="d" d="M86.235,676.559l-2.311.693-1.711-2.6-1.61-2.01-2.53-3.137L76.846,668l1.434,1.3,2.964,2.707Z" transform="translate(-38.7 -593.931)"/><path class="d" d="M58.107,677.842l-4.223,7.135V686.2l-4.466,1.336-3.253-.659,4.473-2.041Z" transform="translate(-38.7 -593.931)"/><path class="d" d="M124.686,665.08l-5.273,1.568-9.5,2.84-.605.175-.571-7.127.78-1.869,1.226-2.931,2.937-7.021,1.961.476,2.7.655.165.034,1.015.255,2.109,5.284,2.111,5.3.6,1.466Z" transform="translate(-38.7 -593.931)"/><path class="l" d="M119.413,666.648l-9.505,2.841-.046-6.747,2.427-4.835.255-.537,3.092-6.179,2.7-5.429s6.893,8.684,7.1,8.532a20.143,20.143,0,0,1,.514,2.585c.314,1.919.76,4.679,1.188,7.47l-2.212.651-.245.08Z" transform="translate(-38.7 -593.931)"/><path class="d" d="M58.292,663.291l-.185,11.992-16.341-2.76a8.218,8.218,0,0,1,.082-1.321l4.677-16.813.943-2.253,4.3-1.036.2-.053.323-.084.166-.027Z" transform="translate(-38.7 -593.931)"/><path class="l" d="M58.107,676.677l-15.431-1.394-3.94-.354h-.011a.244.244,0,0,1,.011-.061v-.022c.046-.309.221-1.474.464-3.1.865-5.787,2.628-17.456,2.812-17.456.221.152,7.1-8.532,7.1-8.532l.046.118,2.61,5.22,5.819,11.642Z" transform="translate(-38.7 -593.931)"/><path class="m" d="M127.143,664.349l-2.212.651-.245.08-5.273,1.568,2.215-9.228.539-2.25-3.828-9.408s6.893,8.684,7.1,8.532a20.143,20.143,0,0,1,.514,2.585C126.269,658.8,126.715,661.558,127.143,664.349Z" transform="translate(-38.7 -593.931)"/><path class="m" d="M49.162,645.88l-3.779,9.29.29,1.222,3.255,13.561-6.252,5.33L41.3,676.448s-2.044,8.247-2.262,8.528c-.051.054-.165.035-.342-.049v-9.233l.036-.765h-.011a.244.244,0,0,1,.011-.061v-.022l.1-2.255.359-.841c.865-5.787,2.628-17.456,2.812-17.456.221.152,7.1-8.532,7.1-8.532h.092Z" transform="translate(-38.7 -593.931)"/><path class="c" d="M41.525,656.753l2.427,6.415L39.6,669.047Z" transform="translate(-38.7 -593.931)"/><path class="c" d="M127.189,664.334l-.046.015-2.212.651-.594-.819-.761-1.013.164-.453,2.216-5.836.048-.126Z" transform="translate(-38.7 -593.931)"/><path class="d" d="M126,656.753l-.048.126a20.143,20.143,0,0,0-.514-2.585c-.209.152-7.1-8.532-7.1-8.532l-5.157,4.832-8.475-2.056-4.557-1.105L95.084,646.2l-.451-.11h-.009l.674-2.171-4.786-2.139v-1.55a24.982,24.982,0,0,0,6.619-12.963c.045-.3.078-3.134.105-6.244l.738-.43,1.28-13.2-3.248-5.578L83.5,593.931l-.356.225v83.32l.783-.225,2.311-.692,4.641-1.382,1.435-.442,3.72-1.108.746-.221.339-.1,12.187-3.639.6-.175,9.505-2.841,5.273-1.568.245-.08,2.212-.651.046-.015Z" transform="translate(-38.7 -593.931)"/></g><g transform="translate(0 79.456)"><path class="f" d="M89.34,724.518l5.408-2.138L93.508,720.1l-21.4.266-1.511,2.016,4.786,2.138Z" transform="translate(-38.7 -675.565)"/><g transform="translate(27.939 41.083)"><rect class="g" width="13.963" height="14.57" transform="translate(8.737)"/><path class="d" d="M75.376,728.409v-3.548a8.475,8.475,0,0,1,5.706-2.663h2.636a8.442,8.442,0,0,1,5.622,2.594v3.487l-1.2-1.911-.316,4.851H76.974l-.313-4.851Z" transform="translate(-66.639 -716.648)"/><path class="g" d="M81.082,764.479h2.634c6.889,0,12.476-4.706,12.476-10.524,0,0-.057-14.239-.161-14.916-.96-6.153-6.111-15.631-12.315-15.631H81.082c-6.206,0-11.359,9.478-12.317,15.631-.1.677-.164,14.916-.164,14.916C68.6,759.773,74.189,764.479,81.082,764.479Z" transform="translate(-66.639 -716.648)"/><path class="c" d="M69.886,764.479,82.4,772.367l12.511-7.888,3.248-5.574-1.279-13.2-1.677-.982-.291,12.137-3.937,4.226L82.4,757.062l-8.574,4.028-3.937-4.226-.293-12.137-1.671.982-1.283,13.2Z" transform="translate(-66.639 -716.648)"/><g transform="translate(7.327 21.195)"><path class="h" d="M90.415,747.536a1.808,1.808,0,0,0,.415-1.119,2.35,2.35,0,0,0-4.639,0,1.8,1.8,0,0,0,.415,1.119Z" transform="translate(-73.966 -737.843)"/><path class="d" d="M81.5,749.44h1.789l1.241-9.137-2.136-2.46-2.13,2.46Z" transform="translate(-73.966 -737.843)"/><path class="h" d="M74.379,747.536a1.794,1.794,0,0,1-.413-1.119,2.349,2.349,0,0,1,4.637,0,1.794,1.794,0,0,1-.413,1.119Z" transform="translate(-73.966 -737.843)"/></g><path class="c" d="M69.795,738.491l6.866-10.927.56,8.551,3.6,1.515,1.572.206,1.572-.206,3.608-1.515.556-8.551L95,738.491l1.028.548c-.96-6.153-6.111-15.631-12.315-15.631H81.082c-6.206,0-11.359,9.478-12.317,15.631Z" transform="translate(-66.639 -716.648)"/><path class="g" d="M78.6,733.792l3.129,2.322h1.331l3.128-2.322.188-6.67H78.416Z" transform="translate(-66.639 -716.648)"/><g class="i" transform="translate(13.209 15.164)"><rect class="j" width="5.098" height="1.675"/></g><path class="c" d="M78.835,752.478l-6.91-.845,6.91-.837Z" transform="translate(-66.639 -716.648)"/><path class="c" d="M85.959,750.8l6.764.837-6.764.845Z" transform="translate(-66.639 -716.648)"/></g><path class="f" d="M47.553,720.536l5.283-4.942,2.318-7.032s-7.836,1.568-7.882,1.378Z" transform="translate(-38.7 -675.565)"/><path class="f" d="M116.685,720.536l-5.287-4.942-2.316-7.032s7.839,1.568,7.882,1.378Z" transform="translate(-38.7 -675.565)"/><path class="k" d="M113.513,716.648l.735-1.481,1.727-5.619s-9.756,2.722-9.32,2.433Z" transform="translate(-38.7 -675.565)"/><path class="l" d="M41.211,701.222l5.269-1.576,9.5-2.837.6-.171L68.777,693l.339-.1.748-.224,3.717-1.112,1.434-.43,4.643-1.39,2.307-.681,8.983-2.684,1.875-.548.422-.126,2.344-.7,1.481-.445,4.255-1.276,6.4-1.9.012,1.8.045,5.284,4.224-7.135v-1.234l4.468-1.336,10.712-3.194v15.042l-.031.769v.08l-.1,2.258-.36.834-2.115,5.018-2.109,4.987-2.25,5.353-.853,2.006-.943,2.25-1.576.385-2.6.62-.13.035-.2.049-.327.084-.163.034-.562.137-.756.191H112.1l-.082.019-.387.091-7.127,1.725-.755.186-.324.077-.773.2-5.7,1.371-.111.027-.649.163-2.157.522-.479.125-4.22,1.013H75.376l-3.312-.807-.8-.2-.455-.106-5.064-1.23-4.555-1.115L52.708,715.7l-.491-.11-1.958-.487-2.706-.644-.165-.042-1.015-.259-2.113-5.284-2.107-5.3-.6-1.462Z" transform="translate(-38.7 -675.565)"/><path class="m" d="M65.744,718.868l14.683-14.684.632-.632,2.5-2.494.023-.019L87.613,697l.209-.205,7.055-7.059,2.168-2.174.99-.986,1.087-1.078,2.2-2.212,6.4-1.9.011,1.8-6.564,6.552-1.1,1.1-.754.761-2.263,2.273-.691.685-.683.693-.293.274-8.3,8.307-.127.129-.318.316-.01,0-2.377,2.4-.609.6L70.808,720.1Z" transform="translate(-38.7 -675.565)"/><path class="m" d="M47.553,714.463l8.829-8.833,12.511-12.514.223-.221.748-.225,3.718-1.112,1.434-.43,4.643-1.389,2.307-.682,8.983-2.684,1.875-.548.423-.126-.327.331-1.331,1.321-6.3,6.3-.641.647-3.393,3.392-.4.4-3.314,3.308-16.356,16.36L52.708,715.7l-.491-.11-1.959-.487Z" transform="translate(-38.7 -675.565)"/><path class="d" d="M68.777,693l.339-.1.748-.224,3.717-1.112,1.434-.43,4.643-1.39,2.307-.681,8.983-2.684,1.875-.548.422-.126,2.344-.7,1.481-.445.965,2.014,2.041,4.256,6.594,13.713,3.192,6.675.3.635.013.023,1.782,3.72v.008l.061.114-.387.091-7.127,1.725-.755.186-.324.077-.773.2-5.7,1.371-.111.027-.649.163c-2.02-2.067-6.788-6.727-12.55-12.285-1.036-1-2.119-2.037-3.219-3.084-.941-.926-1.9-1.843-2.882-2.791-2.852-2.741-5.795-5.555-8.652-8.277A.818.818,0,0,1,68.777,693Z" transform="translate(-38.7 -675.565)"/><path class="c" d="M81.965,689.058l8.983-2.684,1.875-.548.422-.126,2.344-.7,1.456,2.555,2.277,4.032,7.348,12.951,2.608,4.626,1.085,1.923,2.507,4.416.643,1.142-.767.2-14.777,3.689c-.153-.214-.5-.606-1.013-1.173-2.092-2.235-6.928-7.04-12.7-12.693-1.041-1.021-2.1-2.067-3.2-3.118-.946-.929-1.906-1.87-2.869-2.8-2.754-2.692-5.589-5.426-8.326-8.079l3.717-1.112,1.434-.43,4.643-1.39Z" transform="translate(-38.7 -675.565)"/><path class="n" d="M103.731,717.9l1.671-10.5-9.608-4.55-.028-.042-.005.027-.032,0,.025.038-1.675,10.5,9.617,4.55.023.049,0-.034.036.011Z" transform="translate(-38.7 -675.565)"/><path class="d" d="M104.27,718.834l2.385-12.4-11.532-4.424-.03-.065-.006.042-.03-.008.028.049-1.053,11.247,10.192,5.57.03.061.005-.038.04.027Z" transform="translate(-38.7 -675.565)"/><path class="d" d="M102.823,708.756l-.912,5.734L96.659,712l.916-5.73Z" transform="translate(-38.7 -675.565)"/><path class="o" d="M94.748,722.38l-.716-2.313L82.983,713.66l.322,7.554Z" transform="translate(-38.7 -675.565)"/><path class="o" d="M70.595,722.38l.719-2.313,11.047-6.408-.32,7.554Z" transform="translate(-38.7 -675.565)"/><path class="d" d="M83.554,701.058,81.5,698.88c.735.762,1.436,1.481,2.077,2.159,1.226,1.268,2.258,2.364,3.065,3.228.771.808,1.333,1.4,1.635,1.733l-1.645-1.729Z" transform="translate(-38.7 -675.565)"/><path class="d" d="M80.859,698.085c-2.463-2.323-4.932-4.55-7.278-6.526l1.434-.43,6.242,6.559,2.762,2.905.305.32,2.763,2.909,5.492,5.768.141.164a1.537,1.537,0,0,0-.154-.141c-1.7-1.755-3.6-3.682-5.606-5.661-.935-.918-1.9-1.866-2.873-2.8-.1-.1-.209-.2-.312-.308C82.806,699.916,81.841,698.991,80.859,698.085Z" transform="translate(-38.7 -675.565)"/><path class="d" d="M90.948,686.374l1.875-.548.1.205,1.959,3.7,2.182,4.131,2.412,4.591,2.915,5.162-6.017-9.068-2.515-3.788-2.265-3.407Z" transform="translate(-38.7 -675.565)"/><path class="d" d="M79.658,689.739l2.307-.682,1.717,2.593,1.609,2,2.532,3.141,1.224,1.515L87.613,697l-2.964-2.7Z" transform="translate(-38.7 -675.565)"/><path class="d" d="M107.785,688.464l4.224-7.135V680.1l4.468-1.336,3.249.658-4.477,2.048Z" transform="translate(-38.7 -675.565)"/><path class="d" d="M41.211,701.222l5.269-1.576,9.5-2.837.6-.171.573,7.127-.779,1.865-1.228,2.939-2.937,7.024-1.959-.487-2.705-.643-.166-.042-1.014-.259-2.113-5.285-2.107-5.3-.6-1.462Z" transform="translate(-38.7 -675.565)"/><path class="l" d="M46.48,699.646l9.5-2.837.046,6.743L53.6,708.406l-.255.525-3.091,6.176-2.706,5.429s-6.892-8.685-7.1-8.521a21.329,21.329,0,0,1-.514-2.6c-.312-1.912-.753-4.672-1.19-7.462l2.218-.651.248-.084Z" transform="translate(-38.7 -675.565)"/><path class="d" d="M107.6,703l.184-11.989,16.341,2.772a7.989,7.989,0,0,1-.082,1.313l-4.677,16.816-.943,2.25-4.306,1.04-.2.049-.327.084-.163.034Z" transform="translate(-38.7 -675.565)"/><path class="l" d="M107.785,689.629l15.429,1.382,3.944.365h.012a.256.256,0,0,1-.012.061v.019c-.047.309-.223,1.47-.464,3.092-.863,5.79-2.625,17.467-2.815,17.467-.22-.164-7.1,8.521-7.1,8.521l-.045-.111-2.613-5.223-5.819-11.65Z" transform="translate(-38.7 -675.565)"/><path class="m" d="M38.745,701.957l2.218-.651.248-.084,5.269-1.576-2.22,9.232-.535,2.254,3.828,9.4s-6.892-8.685-7.1-8.521a21.329,21.329,0,0,1-.514-2.6C39.623,707.507,39.182,704.747,38.745,701.957Z" transform="translate(-38.7 -675.565)"/><path class="m" d="M116.731,720.425l3.78-9.293-.291-1.226-3.256-13.55,6.25-5.345,1.378-1.165s2.041-8.235,2.262-8.517c.047-.061.161-.042.335.049v9.229l-.031.769h.012a.256.256,0,0,1-.012.061v.019l-.1,2.258-.36.834c-.863,5.79-2.625,17.467-2.815,17.467-.22-.164-7.1,8.521-7.1,8.521h-.091Z" transform="translate(-38.7 -675.565)"/><path class="c" d="M124.371,709.548l-2.431-6.411,4.348-5.89Z" transform="translate(-38.7 -675.565)"/><path class="c" d="M38.7,701.964l.046-.007,2.218-.651.594.807.76,1.024-.164.438-2.218,5.844-.046.129Z" transform="translate(-38.7 -675.565)"/><path class="d" d="M82.557,688.882l-.592.176-2.307.681-4.643,1.39-1.434.43-3.717,1.112-.748.224-.339.1-12.189,3.64-.6.171-9.5,2.837-5.269,1.576-.248.084-2.218.651-.045.007,1.19,7.584.045-.129a21.329,21.329,0,0,0,.514,2.6c.212-.164,7.1,8.521,7.1,8.521l5.161-4.832,8.475,2.049,4.555,1.115,5.064,1.23.455.106h0L70.6,722.38l4.781,2.138v1.553a24.934,24.934,0,0,0-6.611,12.968c-.047.281-.082,3.114-.108,6.243l-.735.427-1.283,13.2,3.247,5.574L82.4,772.367l.16-.091Z" transform="translate(-38.7 -675.565)"/></g></g></g></svg>