<svg xmlns="http://www.w3.org/2000/svg" width="154" height="215" viewBox="0 0 154 215"><defs><style>.a{fill:#c9c9c9;}.b{fill:#fff;}.c{fill:#d66142;}.d{fill:#616161;opacity:0.2;}.e{fill:#be6148;}.f,.g{stroke:none;}.g{fill:#c4c4c4;}</style></defs><g transform="translate(-957.511 -829.056)"><g transform="translate(957.511 829.056)"><path class="a" d="M974.543,1044.056a16.392,16.392,0,0,1-16.552-16.168l-.48-182.565a16.387,16.387,0,0,1,16.537-16.267l120.927.23a16.443,16.443,0,0,1,16.5,16.289v182.167a16.339,16.339,0,0,1-16.448,16.168Z" transform="translate(-957.511 -829.056)"/></g><g class="b" transform="translate(0 0)"><path class="f" d="M 1095.203002929688 1043.098999023438 L 976.031005859375 1043.098999023438 C 967.3150024414063 1043.098999023438 960.2239990234375 1036.056762695313 960.2239990234375 1027.400756835938 L 960.2239990234375 845.277099609375 C 960.2239990234375 836.61669921875 967.3150024414063 829.5709228515625 976.031005859375 829.5709228515625 L 1095.203002929688 829.5709228515625 C 1103.919555664063 829.5709228515625 1111.010986328125 836.61669921875 1111.010986328125 845.277099609375 L 1111.010986328125 1027.400756835938 C 1111.010986328125 1036.056762695313 1103.919555664063 1043.098999023438 1095.203002929688 1043.098999023438 Z"/><path class="g" d="M 1095.203002929688 1042.598999023438 C 1103.643798828125 1042.598999023438 1110.510986328125 1035.781127929688 1110.510986328125 1027.400756835938 L 1110.510986328125 845.277099609375 C 1110.510986328125 836.8923950195313 1103.643798828125 830.0709228515625 1095.203002929688 830.0709228515625 L 976.031005859375 830.0709228515625 C 967.5906982421875 830.0709228515625 960.7239990234375 836.8923950195313 960.7239990234375 845.277099609375 L 960.7239990234375 1027.400756835938 C 960.7239990234375 1035.781127929688 967.5906982421875 1042.598999023438 976.031005859375 1042.598999023438 L 1095.203002929688 1042.598999023438 M 1095.203002929688 1043.598999023438 L 976.031005859375 1043.598999023438 C 967.0369262695313 1043.598999023438 959.7239990234375 1036.326293945313 959.7239990234375 1027.400756835938 L 959.7239990234375 845.277099609375 C 959.7239990234375 836.3355712890625 967.0369262695313 829.0709228515625 976.031005859375 829.0709228515625 L 1095.203002929688 829.0709228515625 C 1104.193969726563 829.0709228515625 1111.510986328125 836.3355712890625 1111.510986328125 845.277099609375 L 1111.510986328125 1027.400756835938 C 1111.510986328125 1036.326293945313 1104.193969726563 1043.598999023438 1095.203002929688 1043.598999023438 Z"/></g><g transform="translate(1048.609 844.437)"><path class="c" d="M1063.668,844.437l-15.941,20.125,15.941,20.14,15.956-20.14Z" transform="translate(-1047.727 -844.437)"/><path class="d" d="M1063.565,844.574l.1-.137,15.956,20.125-15.956,20.14-.1-.137Z" transform="translate(-1047.727 -844.437)"/></g><g transform="translate(990.758 987.96)"><path class="c" d="M1006.381,986.819l15.944,20.133-15.944,20.147-15.945-20.147Z" transform="translate(-990.436 -986.819)"/><path class="d" d="M1006.5,986.949l-.114-.129-15.945,20.133,15.945,20.147.114-.137Z" transform="translate(-990.436 -986.819)"/></g><g transform="translate(990.758 844.437)"><path class="c" d="M1006.381,844.437l15.944,20.125-15.944,20.14-15.945-20.14Z" transform="translate(-990.436 -844.437)"/><path class="d" d="M1006.484,844.574l-.1-.137-15.945,20.125,15.945,20.14.1-.137Z" transform="translate(-990.436 -844.437)"/></g><g transform="translate(1048.609 987.96)"><path class="c" d="M1063.668,986.819l-15.941,20.133,15.941,20.147,15.956-20.147Z" transform="translate(-1047.727 -986.819)"/><path class="d" d="M1063.565,986.949l.1-.129,15.956,20.133-15.956,20.147-.1-.137Z" transform="translate(-1047.727 -986.819)"/></g><g transform="translate(967.783 866.08)"><path class="c" d="M972.417,877.6l-4.633-5.856,4.633-5.87,4.649,5.87Z" transform="translate(-967.783 -865.872)"/><path class="d" d="M972.417,865.872l-.03.053V877.56l.03.038,4.649-5.856Z" transform="translate(-967.783 -865.872)"/></g><g transform="translate(965.08 842.854)"><path class="e" d="M978.6,850.209a1.332,1.332,0,0,1-.29.822,5.169,5.169,0,0,0-.449.564,15.233,15.233,0,0,1-1.85,2.383c-.392.244-.784.5-1.161.754a.943.943,0,0,0-.187.579,2.7,2.7,0,0,1,.072.449,6.244,6.244,0,0,0,.092,1.127c.061.32.145.479.259.479a.645.645,0,0,0,.419-.159,4.77,4.77,0,0,1,.894-.648,1.711,1.711,0,0,1,.156.374c0,.228-.422.761-1.287,1.568a4.377,4.377,0,0,1-2.836,1.455q-.926,0-1.192-2.468a10.371,10.371,0,0,0-.464-2.733h-5.456c-.114-.069-.175-.107-.2-.13a.984.984,0,0,1-.031-.365,5.561,5.561,0,0,1,1.078-2.018c.659-.959,1.664-2.277,3.042-3.944q.633-.777,1.287-1.576c.285-.328.666-.739,1.149-1.257.484-.5,1.009-1.089,1.573-1.744q.725-.867,1.142-.867l.308.076v8.261a1.364,1.364,0,0,0,.587.191,2.438,2.438,0,0,1,.255-.023,2.7,2.7,0,0,0,1.709-.609c.377-.351.758-.686,1.15-1.036.072.046.133.092.175.122S978.6,849.988,978.6,850.209Zm-7.656.845v-1.172c0-.3-.035-.655-.073-1.051a10.422,10.422,0,0,0-1.317,1.447c-.175.22-.4.533-.7.936l.187.092h1.572Z" transform="translate(-965.08 -842.854)"/></g><g transform="translate(1093.644 1014.717)"><path class="e" d="M1092.462,1023.315a1.373,1.373,0,0,1,.278-.815c.236-.289.388-.472.453-.563a15.081,15.081,0,0,1,1.85-2.383c.4-.259.781-.511,1.161-.754a1.009,1.009,0,0,0,.183-.586,2.965,2.965,0,0,1-.061-.45,6.181,6.181,0,0,0-.091-1.127c-.073-.327-.156-.495-.259-.495a.736.736,0,0,0-.43.168,5.028,5.028,0,0,1-.884.654,1.369,1.369,0,0,1-.163-.373c0-.228.43-.753,1.283-1.561a4.409,4.409,0,0,1,2.836-1.454c.628,0,1.02.822,1.192,2.467a9.566,9.566,0,0,0,.476,2.726h5.455c.1.061.175.114.2.13a1.06,1.06,0,0,1,.031.365,5.7,5.7,0,0,1-1.07,2.018c-.659.952-1.675,2.261-3.053,3.944-.423.51-.842,1.036-1.283,1.569-.278.327-.671.754-1.154,1.256s-1.005,1.089-1.561,1.744c-.483.594-.876.876-1.154.876l-.308-.069v-8.269a1.344,1.344,0,0,0-.586-.19,1.577,1.577,0,0,1-.255.03,2.672,2.672,0,0,0-1.706.609c-.369.335-.761.685-1.142,1.028a1.008,1.008,0,0,1-.187-.122C1092.473,1023.665,1092.462,1023.543,1092.462,1023.315Zm7.656-.845v1.172a9.08,9.08,0,0,0,.072,1.059,13.141,13.141,0,0,0,1.307-1.447c.175-.228.41-.533.711-.944l-.2-.1h-1.561Z" transform="translate(-1092.462 -1013.576)"/></g><g transform="translate(1095.174 996.86)"><path class="c" d="M1098.63,995.918l4.645,5.871-4.645,5.855-4.637-5.855Z" transform="translate(-1093.992 -995.918)"/><path class="d" d="M1098.66,995.957l-.03-.038-4.637,5.871,4.637,5.855.03-.038Z" transform="translate(-1093.992 -995.918)"/></g></g></svg>