<svg xmlns="http://www.w3.org/2000/svg" width="154" height="215" viewBox="0 0 154 215"><defs><style>.a{fill:#c9c9c9;}.b{fill:#fff;}.c{fill:#d66142;}.d{fill:#616161;opacity:0.2;}.e{fill:#333;}.f,.g{stroke:none;}.g{fill:#c4c4c4;}</style></defs><g transform="translate(-957.515 -571.851)"><g transform="translate(957.515 571.851)"><path class="a" d="M974.533,786.851a16.405,16.405,0,0,1-16.554-16.169l-.465-182.565a16.361,16.361,0,0,1,16.523-16.266l120.944.224a16.434,16.434,0,0,1,16.507,16.29V770.53a16.348,16.348,0,0,1-16.453,16.176Z" transform="translate(-957.515 -571.851)"/></g><g class="b" transform="translate(0)"><path class="f" d="M 1095.22119140625 785.9019165039063 L 976.0255737304688 785.9019165039063 C 967.3125 785.9019165039063 960.2239379882813 778.8558349609375 960.2239379882813 770.1950073242188 L 960.2239379882813 588.06298828125 C 960.2239379882813 579.4026489257813 967.3125 572.3569946289063 976.0255737304688 572.3569946289063 L 1095.22119140625 572.3569946289063 C 1103.929809570313 572.3569946289063 1111.014892578125 579.4026489257813 1111.014892578125 588.06298828125 L 1111.014892578125 770.1950073242188 C 1111.014892578125 778.8558349609375 1103.929809570313 785.9019165039063 1095.22119140625 785.9019165039063 Z"/><path class="g" d="M 1095.22119140625 785.4019165039063 C 1103.654174804688 785.4019165039063 1110.514892578125 778.5801391601563 1110.514892578125 770.1950073242188 L 1110.514892578125 588.06298828125 C 1110.514892578125 579.6783447265625 1103.654174804688 572.8569946289063 1095.22119140625 572.8569946289063 L 976.0255737304688 572.8569946289063 C 967.5881958007813 572.8569946289063 960.7239379882813 579.6783447265625 960.7239379882813 588.06298828125 L 960.7239379882813 770.1950073242188 C 960.7239379882813 778.5801391601563 967.5881958007813 785.4019165039063 976.0255737304688 785.4019165039063 L 1095.22119140625 785.4019165039063 M 1095.22119140625 786.4019165039063 L 976.0255737304688 786.4019165039063 C 967.0376586914063 786.4019165039063 959.7239379882813 779.120849609375 959.7239379882813 770.1950073242188 L 959.7239379882813 588.06298828125 C 959.7239379882813 579.1259765625 967.0376586914063 571.8569946289063 976.0255737304688 571.8569946289063 L 1095.22119140625 571.8569946289063 C 1104.201171875 571.8569946289063 1111.514892578125 579.1259765625 1111.514892578125 588.06298828125 L 1111.514892578125 770.1950073242188 C 1111.514892578125 779.120849609375 1104.201171875 786.4019165039063 1095.22119140625 786.4019165039063 Z"/></g><g transform="translate(1048.609 587.225)"><path class="c" d="M1063.668,587.225l-15.952,20.13,15.952,20.14,15.948-20.14Z" transform="translate(-1047.716 -587.225)"/><path class="d" d="M1063.565,587.359l.1-.135,15.948,20.13-15.948,20.14-.1-.129Z" transform="translate(-1047.716 -587.225)"/></g><g transform="translate(990.759 730.756)"><path class="c" d="M1006.385,729.6l15.94,20.132-15.94,20.14-15.952-20.14Z" transform="translate(-990.433 -729.605)"/><path class="d" d="M1006.487,729.741l-.1-.137-15.952,20.132,15.952,20.14.1-.129Z" transform="translate(-990.433 -729.605)"/></g><g transform="translate(990.759 587.225)"><path class="c" d="M1006.385,587.225l15.94,20.13-15.94,20.14-15.952-20.14Z" transform="translate(-990.433 -587.225)"/><path class="d" d="M1006.487,587.359l-.1-.135-15.952,20.13,15.952,20.14.1-.129Z" transform="translate(-990.433 -587.225)"/></g><g transform="translate(1019.688 658.991)"><path class="c" d="M1035.023,658.417l-15.945,20.133,15.945,20.14,15.941-20.14Z" transform="translate(-1019.078 -658.417)"/><path class="d" d="M1034.92,658.547l.1-.129,15.941,20.133-15.941,20.14-.1-.137Z" transform="translate(-1019.078 -658.417)"/></g><g transform="translate(1048.609 730.756)"><path class="c" d="M1063.668,729.6l-15.952,20.132,15.952,20.14,15.948-20.14Z" transform="translate(-1047.716 -729.605)"/><path class="d" d="M1063.565,729.741l.1-.137,15.948,20.132-15.948,20.14-.1-.129Z" transform="translate(-1047.716 -729.605)"/></g><g transform="translate(967.776 608.871)"><path class="c" d="M972.421,620.387l-4.645-5.859,4.645-5.867,4.633,5.867Z" transform="translate(-967.776 -608.661)"/><path class="d" d="M972.421,608.661l-.042.048v11.64l.042.038,4.633-5.859Z" transform="translate(-967.776 -608.661)"/></g><g transform="translate(965.8 585.1)"><path class="e" d="M978.752,585.523a9.354,9.354,0,0,1-1.226,1.572,4.847,4.847,0,0,1-1.793,1.336,7.732,7.732,0,0,1-1.763.274c-.807.052-1.218.343-1.218.878a.816.816,0,0,0,.746.843,5.859,5.859,0,0,1,2.254,1.034,4.754,4.754,0,0,1,1.363,1.566,3.738,3.738,0,0,1,.434,1.718,5.576,5.576,0,0,1-.605,2.507,10.729,10.729,0,0,1-.979,1.549,12.557,12.557,0,0,1-3.145,3.105,6.863,6.863,0,0,1-3.6.832,5.866,5.866,0,0,1-2.219-.37,1.62,1.62,0,0,1-1.2-1.528,5.277,5.277,0,0,1,1.058-2.292c.72-1.079,1.268-1.618,1.656-1.618.267,0,.412.318.434.95a2.935,2.935,0,0,0,.267,1.346,4.618,4.618,0,0,0,.514.493,2.414,2.414,0,0,0,3.145-.143,3.042,3.042,0,0,0,.91-2.368,3.807,3.807,0,0,0-.987-2.629,4.144,4.144,0,0,0-2.782-1.315,1.414,1.414,0,0,1-.473-.113.815.815,0,0,1-.114-.495c.072-.609.141-1.222.2-1.829a17.568,17.568,0,0,0,.08-1.761c0-.264-.038-.428-.137-.479a1.336,1.336,0,0,0-.582-.082v-.566a11.1,11.1,0,0,1,1.324-1.288c.834-.707,1.4-1.055,1.721-1.055h5.037a1.789,1.789,0,0,0,.788-.248,2.226,2.226,0,0,1,.568-.247l.327.166Z" transform="translate(-965.8 -585.1)"/></g><g transform="translate(1093.5 757.512)"><path class="e" d="M1092.3,773.57a9.592,9.592,0,0,1,1.211-1.568,4.785,4.785,0,0,1,1.8-1.333,7.085,7.085,0,0,1,1.759-.274c.811-.053,1.223-.343,1.223-.883a.811.811,0,0,0-.747-.838,5.783,5.783,0,0,1-2.257-1.036,4.88,4.88,0,0,1-1.363-1.568,3.755,3.755,0,0,1-.431-1.713,5.8,5.8,0,0,1,.6-2.513,10.477,10.477,0,0,1,.986-1.546,12.531,12.531,0,0,1,3.141-3.107,6.854,6.854,0,0,1,3.6-.83,5.8,5.8,0,0,1,2.22.373,1.634,1.634,0,0,1,1.207,1.524,5.4,5.4,0,0,1-1.07,2.292c-.712,1.073-1.268,1.621-1.66,1.621-.251,0-.411-.32-.43-.959a3.028,3.028,0,0,0-.267-1.34,5.243,5.243,0,0,0-.513-.495,2.409,2.409,0,0,0-3.134.145,3,3,0,0,0-.917,2.375,3.81,3.81,0,0,0,.978,2.619,3.7,3.7,0,0,0,2.372,1.272c.186.023.324.046.411.046a1.423,1.423,0,0,1,.473.114.772.772,0,0,1,.117.487c-.076.617-.144,1.226-.2,1.835s-.083,1.2-.083,1.767c0,.259.053.426.144.472a1.256,1.256,0,0,0,.59.084v.563a11.445,11.445,0,0,1-1.336,1.295c-.838.7-1.4,1.05-1.709,1.05h-5.037a1.764,1.764,0,0,0-.8.252,2.055,2.055,0,0,1-.571.244l-.312-.168Z" transform="translate(-1092.302 -756.361)"/></g><g transform="translate(1095.183 739.654)"><path class="c" d="M1098.633,738.7l4.633,5.863-4.633,5.871-4.649-5.871Z" transform="translate(-1093.985 -738.703)"/><path class="d" d="M1098.66,738.742l-.026-.038-4.649,5.863,4.649,5.871.026-.046Z" transform="translate(-1093.985 -738.703)"/></g></g></svg>