<svg xmlns="http://www.w3.org/2000/svg" width="154" height="215" viewBox="0 0 154 215"><defs><style>.a{fill:#c9c9c9;}.b{fill:#fff;}.c{fill:#be6148;}.d{fill:#d66142;}.e{fill:#616161;opacity:0.2;}.f,.g{stroke:none;}.g{fill:#c4c4c4;}</style></defs><g transform="translate(-1339.664 -568.959)"><g transform="translate(1339.664 568.959)"><path class="a" d="M1356.7,783.959a16.41,16.41,0,0,1-16.56-16.176l-.472-182.562a16.372,16.372,0,0,1,16.529-16.262l120.942.223a16.437,16.437,0,0,1,16.506,16.29v182.16a16.35,16.35,0,0,1-16.446,16.177Z" transform="translate(-1339.664 -568.959)"/><g class="b" transform="translate(-1339.664 -568.959)"><path class="f" d="M 1477.3671875 782.9949340820313 L 1358.210693359375 782.9949340820313 C 1349.500366210938 782.9949340820313 1342.413940429688 775.9456176757813 1342.413940429688 767.2808227539063 L 1342.413940429688 585.169189453125 C 1342.413940429688 576.5098876953125 1349.500366210938 569.4650268554688 1358.210693359375 569.4650268554688 L 1477.3671875 569.4650268554688 C 1486.077514648438 569.4650268554688 1493.163940429688 576.5098876953125 1493.163940429688 585.169189453125 L 1493.163940429688 767.2808227539063 C 1493.163940429688 775.9456176757813 1486.077514648438 782.9949340820313 1477.3671875 782.9949340820313 Z"/><path class="g" d="M 1477.3671875 782.4949340820313 C 1485.801879882813 782.4949340820313 1492.663940429688 775.669921875 1492.663940429688 767.2808227539063 L 1492.663940429688 585.169189453125 C 1492.663940429688 576.7855834960938 1485.801879882813 569.9650268554688 1477.3671875 569.9650268554688 L 1358.210693359375 569.9650268554688 C 1349.776000976563 569.9650268554688 1342.913940429688 576.7855834960938 1342.913940429688 585.169189453125 L 1342.913940429688 767.2808227539063 C 1342.913940429688 775.669921875 1349.776000976563 782.4949340820313 1358.210693359375 782.4949340820313 L 1477.3671875 782.4949340820313 M 1477.3671875 783.4949340820313 L 1358.210693359375 783.4949340820313 C 1349.230834960938 783.4949340820313 1341.913940429688 776.2208862304688 1341.913940429688 767.2808227539063 L 1341.913940429688 585.169189453125 C 1341.913940429688 576.2350463867188 1349.230834960938 568.9650268554688 1358.210693359375 568.9650268554688 L 1477.3671875 568.9650268554688 C 1486.354125976563 568.9650268554688 1493.663940429688 576.2350463867188 1493.663940429688 585.169189453125 L 1493.663940429688 767.2808227539063 C 1493.663940429688 776.2208862304688 1486.354125976563 783.4949340820313 1477.3671875 783.4949340820313 Z"/></g><g transform="translate(8.418 13.455)"><path class="c" d="M1361.235,582.842a10.786,10.786,0,0,1-1.233,1.605,5.187,5.187,0,0,1-1.835,1.355,7.485,7.485,0,0,1-1.782.269c-.822.061-1.237.359-1.237.9a.822.822,0,0,0,.753.855,5.8,5.8,0,0,1,2.288,1.047,4.9,4.9,0,0,1,1.39,1.6,3.653,3.653,0,0,1,.442,1.738,5.66,5.66,0,0,1-.621,2.541,10.793,10.793,0,0,1-.993,1.58,12.938,12.938,0,0,1-3.191,3.149,7.014,7.014,0,0,1-3.662.851,5.9,5.9,0,0,1-2.262-.381,1.655,1.655,0,0,1-1.21-1.549,5.387,5.387,0,0,1,1.085-2.327c.715-1.1,1.275-1.644,1.667-1.644.274,0,.426.321.442.967a3.051,3.051,0,0,0,.278,1.366,4.308,4.308,0,0,0,.521.5,2.477,2.477,0,0,0,1.481.524,2.436,2.436,0,0,0,1.706-.672,3.063,3.063,0,0,0,.933-2.4,3.84,3.84,0,0,0-1.006-2.669,3.726,3.726,0,0,0-2.4-1.285,3.923,3.923,0,0,0-.422-.046,1.578,1.578,0,0,1-.48-.12.821.821,0,0,1-.118-.5c.084-.617.145-1.238.205-1.854s.076-1.213.076-1.79c0-.266-.045-.428-.144-.489a1.392,1.392,0,0,0-.59-.082V585.3a11.1,11.1,0,0,1,1.359-1.314,3.858,3.858,0,0,1,1.732-1.071h5.113a1.7,1.7,0,0,0,.811-.254,2.367,2.367,0,0,1,.568-.247l.338.171Z" transform="translate(-1348.082 -582.414)"/></g><g transform="translate(135.703 185.198)"><path class="c" d="M1476.552,773.821a10.267,10.267,0,0,1,1.229-1.6,5.069,5.069,0,0,1,1.832-1.355,7.041,7.041,0,0,1,1.793-.267c.819-.068,1.233-.357,1.233-.906a.832.832,0,0,0-.761-.853,5.8,5.8,0,0,1-2.284-1.05,4.672,4.672,0,0,1-1.39-1.592,3.793,3.793,0,0,1-.438-1.743,5.7,5.7,0,0,1,.613-2.543,10.7,10.7,0,0,1,1-1.577,12.729,12.729,0,0,1,3.194-3.152,7.022,7.022,0,0,1,3.662-.845,5.955,5.955,0,0,1,2.25.38,1.65,1.65,0,0,1,1.223,1.546,5.436,5.436,0,0,1-1.089,2.33c-.72,1.1-1.276,1.645-1.676,1.645-.258,0-.418-.32-.437-.959a3.158,3.158,0,0,0-.271-1.371,3.777,3.777,0,0,0-.532-.5,2.414,2.414,0,0,0-3.18.152,3.04,3.04,0,0,0-.932,2.407,3.891,3.891,0,0,0,1.005,2.665,3.683,3.683,0,0,0,2.4,1.279,3.131,3.131,0,0,0,.427.053,1.762,1.762,0,0,1,.479.114.8.8,0,0,1,.122.5c-.084.617-.156,1.241-.213,1.858s-.08,1.21-.08,1.789c0,.267.049.427.141.488a1.574,1.574,0,0,0,.6.084v.563a10.674,10.674,0,0,1-1.355,1.309c-.838.724-1.42,1.082-1.74,1.082h-5.113a1.662,1.662,0,0,0-.811.251,2.282,2.282,0,0,1-.567.244l-.331-.16Z" transform="translate(-1476.552 -756.339)"/></g></g><g transform="translate(1376.407 594.626)"><path class="d" d="M1376.772,603.978c.4,7.428,15.305,18.72,15.305,18.72s15.317-11.38,15.317-18.813a9.282,9.282,0,0,0-9.3-9.259c-2.875,0-6.076,2.59-6.076,2.59s-3.039-2.59-5.993-2.541C1380.892,594.729,1376.5,598.852,1376.772,603.978Z" transform="translate(-1376.76 -594.626)"/><path class="e" d="M1386.024,594.675c2.954-.049,5.993,2.541,5.993,2.541s.045-.03.1-.074v25.529a.108.108,0,0,0-.039.027s-14.905-11.292-15.305-18.72C1376.5,598.852,1380.892,594.729,1386.024,594.675Z" transform="translate(-1376.76 -594.626)"/></g><g transform="translate(1431.042 594.626)"><path class="d" d="M1462.549,603.978c-.408,7.428-15.3,18.72-15.3,18.72s-15.332-11.38-15.332-18.813a9.29,9.29,0,0,1,9.3-9.259c2.874,0,6.072,2.59,6.072,2.59s3.05-2.59,6-2.541C1458.422,594.729,1462.815,598.852,1462.549,603.978Z" transform="translate(-1431.92 -594.626)"/><path class="e" d="M1453.3,594.675c-2.95-.049-6,2.541-6,2.541a.909.909,0,0,0-.1-.074v25.529a.283.283,0,0,1,.058.027s14.889-11.292,15.3-18.72C1462.815,598.852,1458.422,594.729,1453.3,594.675Z" transform="translate(-1431.92 -594.626)"/></g><g transform="translate(1402.466 659.3)"><path class="d" d="M1433.694,669.694c-.4,7.436-15.3,18.724-15.3,18.724s-15.32-11.383-15.32-18.811a9.279,9.279,0,0,1,9.3-9.252c2.874,0,6.08,2.589,6.08,2.589s3.042-2.589,6-2.547C1429.571,660.458,1433.957,664.577,1433.694,669.694Z" transform="translate(-1403.069 -660.355)"/><path class="e" d="M1424.443,660.4c-2.955-.042-6,2.547-6,2.547s-.042-.034-.1-.08v25.528a.4.4,0,0,1,.046.026s14.9-11.288,15.3-18.724C1433.957,664.577,1429.571,660.458,1424.443,660.4Z" transform="translate(-1403.069 -660.355)"/></g><g transform="translate(1376.407 730.217)"><path class="d" d="M1376.772,751.115c.4-7.431,15.305-18.716,15.305-18.716s15.317,11.368,15.317,18.808a9.277,9.277,0,0,1-9.3,9.251c-2.875,0-6.076-2.589-6.076-2.589s-3.039,2.589-5.993,2.551C1380.892,760.359,1376.5,756.247,1376.772,751.115Z" transform="translate(-1376.76 -732.399)"/><path class="e" d="M1386.024,760.42c2.954.038,5.993-2.551,5.993-2.551l.1.084V732.422c-.027-.023-.039-.023-.039-.023s-14.905,11.285-15.305,18.716C1376.5,756.247,1380.892,760.359,1386.024,760.42Z" transform="translate(-1376.76 -732.399)"/></g><g transform="translate(1431.042 730.217)"><path class="d" d="M1462.549,751.115c-.408-7.431-15.3-18.716-15.3-18.716s-15.332,11.368-15.332,18.808a9.285,9.285,0,0,0,9.3,9.251c2.874,0,6.072-2.589,6.072-2.589s3.05,2.589,6,2.551C1458.422,760.359,1462.815,756.247,1462.549,751.115Z" transform="translate(-1431.92 -732.399)"/><path class="e" d="M1453.3,760.42c-2.95.038-6-2.551-6-2.551a.586.586,0,0,1-.1.084V732.422a.119.119,0,0,1,.058-.023s14.889,11.285,15.3,18.716C1462.815,756.247,1458.422,760.359,1453.3,760.42Z" transform="translate(-1431.92 -732.399)"/></g><g transform="translate(1350.442 607.413)"><path class="d" d="M1361.2,611.113c-.125,2.608-5.372,6.575-5.372,6.575s-5.383-3.994-5.383-6.613a3.257,3.257,0,0,1,3.27-3.253,4.228,4.228,0,0,1,2.136.908,3.834,3.834,0,0,1,2.109-.888A3.2,3.2,0,0,1,1361.2,611.113Z" transform="translate(-1350.442 -607.822)"/><path class="e" d="M1357.957,607.842a3.834,3.834,0,0,0-2.109.888.152.152,0,0,1-.042-.023v8.973l.019.008s5.247-3.967,5.372-6.575A3.2,3.2,0,0,0,1357.957,607.842Z" transform="translate(-1350.442 -607.822)"/></g><g transform="translate(1476.764 737.714)"><path class="d" d="M1477.953,746.234c.141-2.672,5.493-6.723,5.493-6.723s5.5,4.074,5.5,6.761a3.32,3.32,0,0,1-3.343,3.305,4.343,4.343,0,0,1-2.185-.914,3.968,3.968,0,0,1-2.144.9A3.281,3.281,0,0,1,1477.953,746.234Z" transform="translate(-1477.949 -739.511)"/><path class="e" d="M1481.276,749.562a3.968,3.968,0,0,0,2.144-.9.085.085,0,0,1,.042.015v-9.152l-.016-.015s-5.352,4.051-5.493,6.723A3.281,3.281,0,0,0,1481.276,749.562Z" transform="translate(-1477.949 -739.511)"/></g></g></svg>