<svg xmlns="http://www.w3.org/2000/svg" width="154" height="215" viewBox="0 0 154 215"><defs><style>.a{fill:#c9c9c9;}.b{fill:#fff;}.c{fill:#333;}.d{fill:#616161;opacity:0.2;}.e{fill:#fdd8ab;}.f{fill:#ebebeb;}.g{fill:#454545;}.h{fill:#ffd675;}.i,.j{stroke:none;}.j{fill:#c4c4c4;}</style></defs><g transform="translate(-202.256 -315.403)"><g transform="translate(202.256 315.403)"><path class="a" d="M219.285,530.4a16.394,16.394,0,0,1-16.564-16.167l-.465-182.566A16.373,16.373,0,0,1,218.789,315.4l120.957.225a16.434,16.434,0,0,1,16.509,16.288V514.095a16.341,16.341,0,0,1-16.447,16.172Z" transform="translate(-202.256 -315.403)"/><g class="b" transform="translate(-202.256 -315.403)"><path class="i" d="M 339.2537536621094 529.6768798828125 L 220.0651092529297 529.6768798828125 C 211.3506927490234 529.6768798828125 204.2610015869141 522.6307983398438 204.2610015869141 513.969970703125 L 204.2610015869141 331.8379211425781 C 204.2610015869141 323.1776428222656 211.3506927490234 316.1319885253906 220.0651092529297 316.1319885253906 L 339.2537536621094 316.1319885253906 C 347.96435546875 316.1319885253906 355.0509643554688 323.1776428222656 355.0509643554688 331.8379211425781 L 355.0509643554688 513.969970703125 C 355.0509643554688 522.6307983398438 347.96435546875 529.6768798828125 339.2537536621094 529.6768798828125 Z"/><path class="j" d="M 339.2537536621094 529.1768798828125 C 347.6886596679688 529.1768798828125 354.5509643554688 522.3551025390625 354.5509643554688 513.969970703125 L 354.5509643554688 331.8379211425781 C 354.5509643554688 323.4533386230469 347.6886596679688 316.6319885253906 339.2537536621094 316.6319885253906 L 220.0651092529297 316.6319885253906 C 211.6263885498047 316.6319885253906 204.7610015869141 323.4533386230469 204.7610015869141 331.8379211425781 L 204.7610015869141 513.969970703125 C 204.7610015869141 522.3551025390625 211.6263885498047 529.1768798828125 220.0651092529297 529.1768798828125 L 339.2537536621094 529.1768798828125 M 339.2537536621094 530.1768798828125 L 220.0651092529297 530.1768798828125 C 211.0790863037109 530.1768798828125 203.7610015869141 522.9058227539063 203.7610015869141 513.969970703125 L 203.7610015869141 331.8379211425781 C 203.7610015869141 322.906005859375 211.0790863037109 315.6319885253906 220.0651092529297 315.6319885253906 L 339.2537536621094 315.6319885253906 C 348.2398376464844 315.6319885253906 355.5509643554688 322.906005859375 355.5509643554688 331.8379211425781 L 355.5509643554688 513.969970703125 C 355.5509643554688 522.9058227539063 348.2398376464844 530.1768798828125 339.2537536621094 530.1768798828125 Z"/></g><g transform="translate(8 14.02)"><path class="c" d="M231.716,338.134a7.288,7.288,0,0,1-.606,2.734,7.461,7.461,0,0,1-1.435,2.375,11.113,11.113,0,0,1-1.1.977,19.775,19.775,0,0,1-2.374,1.662c-.235.143-.411.246-.519.308-.364.236-.55.4-.55.5,0,.192.565.514,1.686.973a15.561,15.561,0,0,0,2.283.784,1.408,1.408,0,0,0,.333.029h.819a1.213,1.213,0,0,1,.414.07,2.287,2.287,0,0,1-.559.343c-.273.135-.556.265-.843.392-.4.345-.7.613-.91.8a.921.921,0,0,1-.515.266c-.363,0-.964-.4-1.8-1.209a3.608,3.608,0,0,0-2.4-1.212,2.232,2.232,0,0,0-1.387.534,2.731,2.731,0,0,1-.819.541c-.19,0-.287-.133-.287-.386,0-.175.268-.463.807-.878.35-.268.7-.531,1.049-.782-.874-.51-1.706-1.038-2.509-1.594a9.485,9.485,0,0,1-2.123-2.04,8.577,8.577,0,0,1-1.239-2.266,7.444,7.444,0,0,1-.426-2.488,5.847,5.847,0,0,1,.761-3.155,18.416,18.416,0,0,1,1.805-1.994c.317-.32,1.115-1,2.4-2.042q2.4-1.949,2.872-1.948a3.852,3.852,0,0,1,1.588.826,25.406,25.406,0,0,1,3.3,2.9,8.555,8.555,0,0,1,1.732,2.355A6.1,6.1,0,0,1,231.716,338.134Zm-4.013,2.237a7.262,7.262,0,0,0-.463-2.412,9.8,9.8,0,0,0-1.29-2.48,10.876,10.876,0,0,0-2.38-2.21c-.381-.284-.915-.648-1.614-1.089-.267,0-.608.464-1.007,1.407a6.516,6.516,0,0,0-.608,1.844,7.916,7.916,0,0,0,.834,3.607,11.568,11.568,0,0,0,2.138,2.9c.4.411,1.361,1.311,2.893,2.71a4.674,4.674,0,0,0,1.188-2.257A7.852,7.852,0,0,0,227.7,340.371Z" transform="translate(-216.708 -329.423)"/></g><g transform="translate(132 182.093)"><path class="c" d="M330.543,511.528a7.374,7.374,0,0,1,.607-2.728,7.573,7.573,0,0,1,1.439-2.374,11.623,11.623,0,0,1,1.089-.976,20.611,20.611,0,0,1,2.374-1.662c.242-.145.411-.248.526-.309.365-.236.544-.4.544-.5,0-.193-.56-.515-1.687-.977a16.392,16.392,0,0,0-2.276-.78,1.4,1.4,0,0,0-.333-.029h-.817a1.2,1.2,0,0,1-.417-.072,2.3,2.3,0,0,1,.554-.343c.278-.133.561-.263.843-.386.4-.351.7-.617.916-.8a.929.929,0,0,1,.514-.27q.539,0,1.8,1.212a3.6,3.6,0,0,0,2.4,1.213,2.235,2.235,0,0,0,1.391-.535,2.736,2.736,0,0,1,.819-.535c.19,0,.288.124.288.381,0,.175-.273.466-.813.877-.345.267-.693.531-1.043.781.873.512,1.707,1.039,2.509,1.593a9.429,9.429,0,0,1,2.122,2.043,8.443,8.443,0,0,1,1.233,2.265,7.3,7.3,0,0,1,.433,2.484,5.88,5.88,0,0,1-.762,3.16,18.718,18.718,0,0,1-1.8,1.993c-.318.32-1.12,1-2.4,2.043q-2.4,1.947-2.872,1.945a3.841,3.841,0,0,1-1.593-.824,25.578,25.578,0,0,1-3.3-2.9,8.444,8.444,0,0,1-1.733-2.355A6.126,6.126,0,0,1,330.543,511.528Zm4.015-2.231a7.358,7.358,0,0,0,.462,2.413,9.875,9.875,0,0,0,1.3,2.481,10.56,10.56,0,0,0,2.376,2.21c.378.284.919.647,1.612,1.089.272,0,.607-.472,1.013-1.411a6.428,6.428,0,0,0,.607-1.84,7.92,7.92,0,0,0-.834-3.608,11.548,11.548,0,0,0-2.138-2.9q-.594-.616-2.9-2.711a4.748,4.748,0,0,0-1.186,2.258A8.011,8.011,0,0,0,334.558,509.3Z" transform="translate(-330.543 -499.324)"/></g><g transform="translate(41 16.162)"><g transform="translate(0 45.189)"><path class="a" d="M304.161,376.754l-.232,3.276-.154,1.993-.605,8.532-.149,2-.186,2.724v.011l-.185,2.518-1.947.04-.921.014-1.906.049-1.085.019-1.315.025-2.328.048-2.585.055-12.151.257h-.021l-12.145-.257-2.585-.055-2.328-.048-1.315-.025-1.085-.019-.952-.029-.961-.021-.919-.014-1.941-.04-.187-2.518v-.011l-.188-2.724-.15-2-.6-8.532-.154-1.993-.236-3.276Z" transform="translate(-240.878 -376.754)"/><path class="d" d="M301.806,376.754c-3.839,5.428-9.246,10.975-15.232,10.975h-.069a11.767,11.767,0,0,1-4.527,3.653,8.377,8.377,0,0,1-3.341.7,1.332,1.332,0,0,1-.226-.023h-.021v-15.3Z" transform="translate(-240.878 -376.754)"/><g transform="translate(0 16.217)"><path class="e" d="M312.39,410.368l-9.771,2.917-.919.266-.269.082c-.771-1.291-1.387-2.227-1.654-2.642a1.622,1.622,0,0,0-.185-.232c-.021.017-.036.047-.051.06a12.9,12.9,0,0,0-1.574,3.853l-2.61.785-16.946,5.054-10.578,3.145-3.532,1.069a12.31,12.31,0,0,0-.451-1.336c-6.106-2.629-3.325-6.813-6.306-12.078-.1-.185-.217-.371-.335-.552-.37.449-7.263,10.974-8.448,18.6l-.855.251-6.855,2.041h-.171c-.119-15.039,4.467-25.078,8.688-31.136.3-.419.58-.822.883-1.2.281-.35.55-.719.822-1.037l.015-.018v-.034c.216-.234.417-.5.632-.719.2-.255.406-.484.608-.707.517-.565,1-1.069,1.439-1.5v-.017h.015a4.478,4.478,0,0,0,.333-.32c.1-.1.2-.2.3-.28s.2-.187.3-.269c.184-.171.35-.317.519-.451a10.17,10.17,0,0,1,1.089-.854l1.59.384.266.069.638.167.164.031,2.21-.1,3.413-.126,3.628-.154,9.956-.4h.021l10.15.415,3.434.141,3.413.126,2.21.1.179-.031.623-.167.283-.069,1.573-.384a9.993,9.993,0,0,1,1.088.854c.164.134.336.28.535.451.082.082.185.185.282.269s.206.184.3.28a4.481,4.481,0,0,0,.333.32l.015.017c.1.085.2.2.32.317s.251.237.369.37c.232.251.5.518.75.816.187.185.335.37.52.572.036.051.051.083.088.135.215.219.416.485.632.719a.051.051,0,0,1,.015.034v.018c.268.318.54.687.838,1.037.287.381.57.784.869,1.2A45.929,45.929,0,0,1,312.39,410.368Z" transform="translate(-240.878 -392.971)"/><path class="d" d="M278.4,403.984h2.235l-1,8.056c-.4.025-.818.034-1.233.042Z" transform="translate(-240.878 -392.971)"/></g><g transform="translate(8.699 0.006)"><g transform="translate(5.418)"><path class="d" d="M278.411,376.76H254.995c3.849,5.418,9.251,10.963,15.238,10.963h.067c2.118,2.709,4.863,4.358,7.869,4.358.082,0,.16-.014.242-.014Z" transform="translate(-254.995 -376.76)"/><path class="d" d="M278.411,403.984h-2.237l1,8.056c.411.025.828.034,1.239.042Z" transform="translate(-254.995 -376.76)"/></g><path class="d" d="M270.264,410.759c-11.327-2.5-17.479-6.315-20.687-10.232a34.463,34.463,0,0,1,5.854-6.575Z" transform="translate(-249.577 -376.76)"/><g transform="translate(25.251 8.702)"><path class="e" d="M278.411,388.739c-.082,0-.164.012-.242.012a8.426,8.426,0,0,1-3.232-.651,3.49,3.49,0,0,0-.109.822v1.442a8.235,8.235,0,0,0,3.341.71c.082,0,.16-.014.242-.014Z" transform="translate(-274.828 -385.462)"/><path class="e" d="M278.411,385.479a.661.661,0,0,0-.124-.017,3.451,3.451,0,0,0-3.35,2.638,8.426,8.426,0,0,0,3.232.651c.078,0,.16-.012.242-.012Z" transform="translate(-274.828 -385.462)"/></g><path class="e" d="M298.3,392.7l-6.014-.082-10.3-.135v-2.124a8.225,8.225,0,0,1-3.341.71c-.078,0-.15-.01-.226-.014H278.4c-.078,0-.149.014-.227.014a8.235,8.235,0,0,1-3.341-.71v2.124l-10.306.135-6.011.082c-1.055,1.833-.592,2.008-.592,4.121,0,5.254,3.628,9.882,9.143,12.634a.36.36,0,0,0,.072.035,23.168,23.168,0,0,0,3.13,1.264,26.7,26.7,0,0,0,6.908,1.281c.133.011.268.013.4.025.267.009.545.009.823.017h.015c.278-.008.55-.008.822-.017.134-.012.267-.014.4-.025a26.727,26.727,0,0,0,6.912-1.281,23.3,23.3,0,0,0,3.132-1.264.191.191,0,0,0,.066-.035c5.519-2.752,9.149-7.38,9.149-12.634C298.888,394.713,299.35,394.538,298.3,392.7Z" transform="translate(-249.577 -376.76)"/><g transform="translate(8.241 15.863)"><path class="d" d="M270.264,410.759c-1.105-.415-2.144-.836-3.13-1.264a.36.36,0,0,1-.072-.035c-5.515-2.752-9.143-7.38-9.143-12.634,0-2.113-.463-2.288.592-4.121l6.011-.082Z" transform="translate(-257.818 -392.623)"/><path class="d" d="M286.541,410.759c1.106-.415,2.144-.836,3.132-1.264a.191.191,0,0,0,.066-.035c5.519-2.752,9.149-7.38,9.149-12.634,0-2.113.462-2.288-.592-4.121l-6.014-.082Z" transform="translate(-257.818 -392.623)"/></g><path class="e" d="M278.4,388.739c.081,0,.16.012.241.012a8.42,8.42,0,0,0,3.233-.651,3.6,3.6,0,0,1,.108.822v1.442a8.225,8.225,0,0,1-3.341.71c-.081,0-.16-.014-.241-.014Z" transform="translate(-249.577 -376.76)"/><path class="e" d="M278.4,385.479a.628.628,0,0,1,.124-.017,3.448,3.448,0,0,1,3.35,2.638,8.42,8.42,0,0,1-3.233.651c-.081,0-.16-.012-.241-.012Z" transform="translate(-249.577 -376.76)"/></g><path class="d" d="M307.239,400.527c-3.217,3.91-9.364,7.73-20.7,10.232l6.147-6.969.377-.423,4.81-5.45,1.013-1.152,2.476-2.806c.164.126.34.28.526.451.091.082.2.176.291.269s.212.188.314.276c.109.106.212.209.329.329h.01v.012a4.22,4.22,0,0,1,.324.321c.118.12.247.233.365.366.242.257.5.525.756.816.175.185.333.37.514.566.03.038.067.082.1.12q.3.342.617.742a.053.053,0,0,1,.009.029h.015v.009c.269.334.535.69.823,1.049C306.653,399.7,306.942,400.106,307.239,400.527Z" transform="translate(-240.878 -376.754)"/><path class="f" d="M308.693,388.82a13.335,13.335,0,0,1-.154,2.141,16.322,16.322,0,0,1-3,7.3v.009a28.153,28.153,0,0,1-7.791,7.045c-.21.141-.442.284-.678.421a54.142,54.142,0,0,1-7.325,3.733.9.9,0,0,1-.173.082.641.641,0,0,1-.139.061c-.175.069-.341.141-.51.213-.5.206-1.028.415-1.561.626l-.819.313,6.606-12.751,2.255-4.344.515-1,8.244-15.913A20.314,20.314,0,0,1,308.693,388.82Z" transform="translate(-240.878 -376.754)"/><path class="f" d="M270.264,410.759a60.9,60.9,0,0,1-10.531-5.028c-.231-.143-.457-.287-.674-.424-7.333-4.708-10.165-9.793-10.8-14.35a14.321,14.321,0,0,1-.151-2.137,20.336,20.336,0,0,1,4.529-12.06Z" transform="translate(-240.878 -376.754)"/><g transform="translate(7.233 2.776)"><path class="c" d="M255.446,396.98l2.128,2.827-.961-3.409Z" transform="translate(-248.111 -379.53)"/><path class="c" d="M262.8,403.837l2.123,2.831-.961-3.406Z" transform="translate(-248.111 -379.53)"/><path class="c" d="M251.582,380.1l2.122,2.827-.961-3.4Z" transform="translate(-248.111 -379.53)"/><path class="c" d="M254.387,386.044l2.123,2.819-.961-3.4Z" transform="translate(-248.111 -379.53)"/><path class="c" d="M257.19,391.974l2.126,2.821-.965-3.4Z" transform="translate(-248.111 -379.53)"/><path class="c" d="M260,397.905l2.124,2.827-.967-3.4Z" transform="translate(-248.111 -379.53)"/><path class="c" d="M259.733,405.731c-.231-.143-.457-.287-.674-.424l-1.237-1.651,1.161-.58Z" transform="translate(-248.111 -379.53)"/><path class="c" d="M249.834,385.111l2.128,2.827-.961-3.4Z" transform="translate(-248.111 -379.53)"/><path class="c" d="M252.64,391.049l2.128,2.827-.961-3.4Z" transform="translate(-248.111 -379.53)"/><path class="c" d="M249.175,392.174l-.913-1.217a14.321,14.321,0,0,1-.151-2.137l.1-.05Z" transform="translate(-248.111 -379.53)"/><path class="c" d="M251.083,396.385l2.122,2.819-.961-3.4Z" transform="translate(-248.111 -379.53)"/></g><g transform="translate(51.005 2.776)"><path class="c" d="M301.355,396.98l-2.122,2.827.959-3.409Z" transform="translate(-291.883 -379.53)"/><path class="c" d="M294.005,403.837l-2.122,2.831.956-3.406Z" transform="translate(-291.883 -379.53)"/><path class="c" d="M305.225,380.1l-2.123,2.827.961-3.4Z" transform="translate(-291.883 -379.53)"/><path class="c" d="M302.423,386.044l-2.128,2.819.961-3.4Z" transform="translate(-291.883 -379.53)"/><path class="c" d="M299.617,391.974l-2.128,2.821.961-3.4Z" transform="translate(-291.883 -379.53)"/><path class="c" d="M296.811,397.905l-2.128,2.827.967-3.4Z" transform="translate(-291.883 -379.53)"/><path class="c" d="M297.074,405.731c.23-.143.457-.287.672-.424l1.239-1.651-1.167-.58Z" transform="translate(-291.883 -379.53)"/><path class="c" d="M306.967,385.111l-2.122,2.827.961-3.4Z" transform="translate(-291.883 -379.53)"/><path class="c" d="M304.167,391.049l-2.128,2.827.961-3.4Z" transform="translate(-291.883 -379.53)"/><path class="c" d="M308.693,388.82a13.335,13.335,0,0,1-.154,2.141l-.91,1.213.967-3.4Z" transform="translate(-291.883 -379.53)"/><path class="c" d="M305.724,396.385,303.6,399.2l.961-3.4Z" transform="translate(-291.883 -379.53)"/></g></g><path class="c" d="M289.486,383.35a17.2,17.2,0,0,1-8.8-2.478l3.131,4.955,1.34,2.159,3.408,5.4,10.98,17.433a12.9,12.9,0,0,0-1.574,3.853l-2.61.785-16.946,5.054-10.578,3.145-3.532,1.069a12.31,12.31,0,0,0-.451-1.336c-6.106-2.629-3.325-6.813-6.306-12.078l10.89-17.938L271.7,388l.986-1.616,3.346-5.528a16.6,16.6,0,0,1-8.815,2.427,17.079,17.079,0,0,1-17.068-17.136c0-5.582,27.894-34.581,27.894-34.581s28.626,28.126,28.592,34.7A17.1,17.1,0,0,1,289.486,383.35Z" transform="translate(-240.878 -331.565)"/><g transform="translate(6.842 10.363)"><g transform="translate(0 66.422)"><path class="d" d="M267.844,423.659l-3.543,1.055c-.121-.411-.272-.859-.445-1.325-6.328-2.711-3.137-7.089-6.642-12.623-.384.434-7.277,10.971-8.459,18.589l-.849.257c-1.814-7.948,10.2-21.262,10.2-21.262S263.491,421.641,267.844,423.659Z" transform="translate(-247.72 -408.35)"/><path class="d" d="M302.613,413.277l-.909.278-.278.078c-.77-1.281-1.377-2.219-1.655-2.642a2.043,2.043,0,0,0-.175-.232,12.587,12.587,0,0,0-1.629,3.913l-2.61.781c1.947-3.657,3.346-7.1,3.346-7.1S300.506,410.364,302.613,413.277Z" transform="translate(-247.72 -408.35)"/></g><path class="d" d="M285.153,387.986l-3.18,2.376a8.231,8.231,0,0,1-3.332.719c-.082,0-.164-.017-.23-.017-.088,0-.169.017-.236.017a8.363,8.363,0,0,1-3.347-.719L271.7,388l.986-1.616c1.943.965,4.7,2.368,5.49,2.368.067,0,.148-.015.215-.015h.021c.082,0,.148.015.23.015.72,0,3.213-1.635,5.172-2.924Z" transform="translate(-247.72 -341.928)"/><path class="e" d="M282.6,353.533a5.333,5.333,0,0,0-4.2,2.925,5.309,5.309,0,0,0-4.187-2.925c-4.575,2.611-7.822,9.242-7.822,17.012a22.774,22.774,0,0,0,4.224,13.795c.015.017.027.042.042.06l0,.009h0A11.711,11.711,0,0,0,275.3,388.1a8.577,8.577,0,0,0,3.1.647h.015a8.581,8.581,0,0,0,3.1-.647,11.7,11.7,0,0,0,4.635-3.691h0c0-.007.006-.007.012-.009.009-.018.021-.043.03-.06a22.737,22.737,0,0,0,4.23-13.795C290.417,362.775,287.169,356.144,282.6,353.533Z" transform="translate(-247.72 -341.928)"/><path class="c" d="M286.819,352.234c.01-1.953-8.5-10.306-8.5-10.306s-8.284,8.614-8.29,10.279a5.078,5.078,0,0,0,5.073,5.089,4.94,4.94,0,0,0,2.621-.723l1.382,0a5.02,5.02,0,0,0,2.616.737A5.076,5.076,0,0,0,286.819,352.234Z" transform="translate(-247.72 -341.928)"/><g transform="translate(20.231 23.9)"><g transform="translate(1.372 3.666)"><path class="c" d="M269.407,369.494a1.121,1.121,0,0,0-.084.421c0,.929,1.142,1.687,2.56,1.687s2.561-.758,2.561-1.687a1.144,1.144,0,0,0-.088-.421Z" transform="translate(-269.323 -369.494)"/></g><g transform="translate(14.412 3.666)"><path class="c" d="M287.4,369.494a1.164,1.164,0,0,1,.087.421c0,.929-1.151,1.687-2.558,1.687s-2.566-.758-2.566-1.687a1.144,1.144,0,0,1,.088-.421Z" transform="translate(-282.363 -369.494)"/></g><g transform="translate(6.774 15.413)"><path class="g" d="M281.746,382.1h-6.685a4.206,4.206,0,0,0,3.335,1.511h.015A4.221,4.221,0,0,0,281.746,382.1Z" transform="translate(-274.725 -381.241)"/><path class="c" d="M278.4,381.925c-1.515-1.778-3.674.47-3.674.47h7.36S279.922,380.147,278.4,381.925Z" transform="translate(-274.725 -381.241)"/></g><path class="d" d="M278.411,372.334v-.055l-.011.03,0-.03v.055l-1.928,6.147h3.87Z" transform="translate(-267.951 -365.828)"/><path class="c" d="M282.085,365.828l5.085.267.067.009.04.038,2.016,2.2-2.231-1.986.108.042-5.088.253Z" transform="translate(-267.951 -365.828)"/><path class="c" d="M275.163,366.656l-5.085-.253.1-.042-2.231,1.986,2.016-2.2.04-.038.067-.009,5.085-.267Z" transform="translate(-267.951 -365.828)"/></g></g><path class="d" d="M281.921,353.647a6.27,6.27,0,0,1,.678-.114A6.27,6.27,0,0,0,281.921,353.647Z" transform="translate(-240.878 -331.565)"/><path class="d" d="M280.113,354.469c.03-.021.055-.034.087-.055C280.168,354.435,280.143,354.448,280.113,354.469Z" transform="translate(-240.878 -331.565)"/><path class="d" d="M280.672,354.119a1.257,1.257,0,0,0,.128-.055A1.257,1.257,0,0,1,280.672,354.119Z" transform="translate(-240.878 -331.565)"/><path class="d" d="M281.278,353.848c.072-.028.15-.047.222-.068C281.428,353.8,281.35,353.82,281.278,353.848Z" transform="translate(-240.878 -331.565)"/><g transform="translate(17.374 40.139)"><path class="h" d="M266.692,376.888c.006-.981-4.271-5.184-4.271-5.184s-4.164,4.331-4.169,5.171a2.556,2.556,0,0,0,2.55,2.558,2.476,2.476,0,0,0,1.322-.366l-1.6,2.73,3.891.012-1.594-2.742a2.543,2.543,0,0,0,3.876-2.179Z" transform="translate(-258.252 -371.704)"/><path class="d" d="M261.979,380.965l.487-.832.484.836Zm-.293-2.611a1.646,1.646,0,0,1-.864.239,1.7,1.7,0,0,1-1.228-.5,1.678,1.678,0,0,1-.5-1.216,31.292,31.292,0,0,1,3.345-3.975,21.489,21.489,0,0,1,3.428,4.07,1.685,1.685,0,0,1-.508,1.13,1.712,1.712,0,0,1-1.218.505h0a1.691,1.691,0,0,1-.884-.251Z" transform="translate(-258.252 -371.704)"/><path class="h" d="M298.909,376.888c0-.981-4.277-5.184-4.277-5.184s-4.164,4.331-4.169,5.171a2.557,2.557,0,0,0,2.554,2.558,2.446,2.446,0,0,0,1.316-.366l-1.6,2.73,3.891.012-1.594-2.742a2.548,2.548,0,0,0,3.882-2.179Z" transform="translate(-258.252 -371.704)"/><path class="d" d="M294.19,380.965l.487-.832.484.836Zm-.293-2.611a1.647,1.647,0,0,1-.865.239,1.707,1.707,0,0,1-1.227-.5,1.678,1.678,0,0,1-.5-1.216,31.292,31.292,0,0,1,3.345-3.975,21.408,21.408,0,0,1,3.428,4.07,1.734,1.734,0,0,1-1.726,1.635h0a1.7,1.7,0,0,1-.885-.251Z" transform="translate(-258.252 -371.704)"/></g><path class="d" d="M307.235,400.517c-.3-.419-.582-.822-.869-1.2-.109-.124-.2-.243-.294-.369-.179-.227-.363-.463-.535-.68v-.009a16.322,16.322,0,0,0,3-7.3,13.335,13.335,0,0,0,.154-2.141,20.314,20.314,0,0,0-4.532-12.066h-1.152a16.96,16.96,0,0,0,3.625-10.484c.034-6.539-28.223-34.345-28.577-34.688v89.031l.354-.1,16.946-5.054,2.1-.63.514-.155h0c.036-.161.087-.325.135-.479s.07-.3.118-.454c0,0,0,0,0-.009a12.625,12.625,0,0,1,1.368-2.971c.01.007.019.021.031.03.025.03.072.09.148.2.278.423.885,1.361,1.655,2.642h.005l.015-.006.258-.072.38-.116.535-.154,9.771-2.917A45.929,45.929,0,0,0,307.235,400.517Z" transform="translate(-240.878 -331.565)"/><g transform="translate(0.002 85.178)"><path class="a" d="M249.1,473.471l.238-3.276.149-1.995.607-8.532.154-2,.185-2.732v-.013l.184-2.509,1.947-.048.922-.013,1.905-.048,1.085-.021,1.315-.025,2.328-.051,2.585-.051,12.147-.257h.025l12.145.257,2.579.051,2.334.051,1.317.025,1.077.021.957.021.956.027.92.013,1.943.048.191,2.509v.013l.184,2.732.149,2,.607,8.532.154,1.995.23,3.276Z" transform="translate(-240.88 -418.571)"/><path class="d" d="M251.458,473.471c3.845-5.429,9.245-10.976,15.234-10.976h.067a11.836,11.836,0,0,1,4.529-3.653,8.423,8.423,0,0,1,3.344-.7,1.7,1.7,0,0,1,.223.021h.025v15.307Z" transform="translate(-240.88 -418.571)"/><path class="e" d="M240.88,439.849l9.771-2.908.919-.269.268-.081c.772,1.285,1.388,2.221,1.655,2.642a1.3,1.3,0,0,0,.186.232c.016-.017.031-.051.05-.069a12.833,12.833,0,0,0,1.574-3.843l2.61-.784,16.946-5.054,10.572-3.147,3.532-1.068a13.363,13.363,0,0,0,.453,1.336c6.1,2.627,3.329,6.812,6.306,12.079.1.184.221.369.339.55.364-.448,7.257-10.974,8.448-18.6l.855-.25,6.855-2.042h.171c.118,15.038-4.471,25.078-8.686,31.137-.3.417-.586.819-.885,1.2-.282.358-.554.72-.823,1.04l-.015.017V452c-.215.232-.417.5-.637.72-.2.253-.4.483-.6.7-.517.574-1,1.076-1.439,1.508v.021h-.015a3.766,3.766,0,0,0-.333.318c-.1.1-.2.2-.3.282s-.2.184-.3.266c-.185.166-.354.32-.519.453a11.145,11.145,0,0,1-1.089.853l-1.59-.384-.266-.069-.638-.168-.169-.03-2.2.1-3.413.141-3.634.145-9.956.4h-.015l-10.156-.42-3.428-.128-3.414-.141-2.209-.1-.185.03-.617.168-.282.069-1.574.384a10.445,10.445,0,0,1-1.089-.853c-.169-.133-.335-.287-.535-.453-.087-.082-.185-.184-.287-.266s-.2-.185-.3-.282a3.906,3.906,0,0,0-.333-.318l-.021-.021c-.1-.082-.2-.2-.318-.316s-.247-.236-.365-.369c-.233-.249-.5-.518-.751-.823-.184-.179-.338-.363-.519-.565-.037-.051-.052-.082-.088-.133-.215-.219-.417-.488-.637-.72a.047.047,0,0,1-.016-.034v-.017c-.266-.32-.533-.682-.832-1.04-.287-.382-.571-.784-.873-1.2A46.07,46.07,0,0,1,240.88,439.849Z" transform="translate(-240.88 -418.571)"/><path class="d" d="M274.874,446.24h-2.235l1-8.06c.4-.019.822-.03,1.237-.036Z" transform="translate(-240.88 -418.571)"/><g transform="translate(13.399 19.573)"><g transform="translate(20.58)"><path class="d" d="M274.859,473.463h23.416c-3.849-5.418-9.251-10.961-15.238-10.961h-.067c-2.123-2.711-4.862-4.359-7.875-4.359-.082,0-.158.013-.236.013Z" transform="translate(-274.859 -438.144)"/><path class="d" d="M274.859,446.24H277.1l-1-8.06c-.411-.019-.828-.03-1.239-.036Z" transform="translate(-274.859 -438.144)"/></g><path class="d" d="M283.006,439.465c11.327,2.5,17.479,6.316,20.687,10.232a34.479,34.479,0,0,1-5.859,6.575Z" transform="translate(-254.279 -438.144)"/><g transform="translate(20.58 21.006)"><path class="e" d="M274.859,461.484c.078,0,.16-.01.242-.01a8.427,8.427,0,0,1,3.232.652,3.521,3.521,0,0,0,.109-.823v-1.45a8.349,8.349,0,0,0-3.347-.7c-.082,0-.158.015-.236.015Z" transform="translate(-274.859 -459.15)"/><path class="e" d="M274.859,464.747a.829.829,0,0,0,.123.017,3.46,3.46,0,0,0,3.351-2.638,8.427,8.427,0,0,0-3.232-.652c-.082,0-.164.01-.242.01Z" transform="translate(-274.859 -459.15)"/></g><path class="e" d="M254.974,457.521l6.007.081,10.311.134v2.117a8.319,8.319,0,0,1,3.34-.7c.078,0,.151.011.227.015h.015c.078,0,.15-.015.221-.015a8.349,8.349,0,0,1,3.347.7v-2.117l10.305-.134,6.014-.081c1.053-1.834.584-2.016.584-4.124,0-5.252-3.622-9.881-9.137-12.632a.231.231,0,0,0-.072-.034,23.047,23.047,0,0,0-3.13-1.266,26.625,26.625,0,0,0-6.908-1.281c-.139-.01-.272-.014-.4-.023-.273-.011-.545-.011-.823-.017h-.015c-.278.006-.554.006-.822.017-.134.009-.267.013-.4.023a26.6,26.6,0,0,0-6.908,1.281,23.448,23.448,0,0,0-3.136,1.266.16.16,0,0,0-.066.034c-5.515,2.751-9.145,7.38-9.145,12.632C254.382,455.505,253.915,455.687,254.974,457.521Z" transform="translate(-254.279 -438.144)"/><g transform="translate(0 1.321)"><path class="d" d="M283.006,439.465c1.1.411,2.144.837,3.13,1.266a.231.231,0,0,1,.072.034c5.515,2.751,9.137,7.38,9.137,12.632,0,2.108.469,2.29-.584,4.124l-6.014.081Z" transform="translate(-254.279 -439.465)"/><path class="d" d="M266.729,439.465c-1.106.411-2.144.837-3.136,1.266a.16.16,0,0,0-.066.034c-5.515,2.751-9.145,7.38-9.145,12.632,0,2.108-.467,2.29.592,4.124l6.007.081Z" transform="translate(-254.279 -439.465)"/></g><path class="e" d="M274.874,461.484c-.082,0-.158-.01-.242-.01a8.419,8.419,0,0,0-3.232.652,3.629,3.629,0,0,1-.108-.823v-1.45a8.319,8.319,0,0,1,3.34-.7c.084,0,.16.015.242.015Z" transform="translate(-254.279 -438.144)"/><path class="e" d="M274.874,464.747a1.021,1.021,0,0,1-.122.017,3.458,3.458,0,0,1-3.352-2.638,8.419,8.419,0,0,1,3.232-.652c.084,0,.16.01.242.01Z" transform="translate(-254.279 -438.144)"/></g><path class="d" d="M246.031,449.7c3.217-3.91,9.363-7.731,20.692-10.232l-6.147,6.973-.371.419-4.811,5.451-1.012,1.152-2.483,2.806c-.158-.128-.333-.282-.523-.453-.093-.082-.2-.175-.288-.266-.108-.082-.211-.189-.313-.278-.109-.107-.212-.216-.33-.33h-.009v-.013a2.7,2.7,0,0,1-.324-.326c-.118-.112-.247-.226-.365-.352-.242-.264-.5-.531-.756-.822-.175-.187-.333-.371-.514-.565a.837.837,0,0,0-.109-.12c-.194-.231-.4-.478-.611-.745a.038.038,0,0,1-.009-.026h-.016v-.012c-.268-.338-.534-.689-.822-1.049C246.611,450.527,246.324,450.125,246.031,449.7Z" transform="translate(-240.88 -418.571)"/><path class="f" d="M244.576,461.406a13.322,13.322,0,0,1,.155-2.149,16.276,16.276,0,0,1,3-7.287v-.012a28.088,28.088,0,0,1,7.792-7.045c.211-.139.442-.276.678-.421a54.112,54.112,0,0,1,7.319-3.731.722.722,0,0,1,.175-.082.769.769,0,0,1,.139-.062c.173-.069.345-.141.514-.206.5-.211,1.028-.428,1.563-.634.266-.107.533-.206.811-.312l-6.6,12.746-2.262,4.35-.508,1-8.25,15.914A20.332,20.332,0,0,1,244.576,461.406Z" transform="translate(-240.88 -418.571)"/><path class="f" d="M283.006,439.465a61.861,61.861,0,0,1,10.531,5.027c.232.145.453.288.674.425,7.329,4.707,10.165,9.794,10.8,14.347a15.2,15.2,0,0,1,.151,2.142,20.362,20.362,0,0,1-4.535,12.057Z" transform="translate(-240.88 -418.571)"/><g transform="translate(47.46 24.987)"><path class="c" d="M297.824,453.239l-2.128-2.823.961,3.4Z" transform="translate(-288.34 -443.558)"/><path class="c" d="M290.463,446.387l-2.123-2.829.961,3.4Z" transform="translate(-288.34 -443.558)"/><path class="c" d="M301.688,470.119l-2.122-2.827.956,3.4Z" transform="translate(-288.34 -443.558)"/><path class="c" d="M298.882,464.181l-2.122-2.821.961,3.4Z" transform="translate(-288.34 -443.558)"/><path class="c" d="M296.076,458.25l-2.122-2.819.961,3.394Z" transform="translate(-288.34 -443.558)"/><path class="c" d="M293.271,452.318l-2.125-2.827.961,3.4Z" transform="translate(-288.34 -443.558)"/><path class="c" d="M293.537,444.492c.232.145.453.288.674.425l1.237,1.652-1.165.579Z" transform="translate(-288.34 -443.558)"/><path class="c" d="M303.432,465.106l-2.124-2.821.961,3.4Z" transform="translate(-288.34 -443.558)"/><path class="c" d="M300.624,459.175l-2.122-2.819.961,3.394Z" transform="translate(-288.34 -443.558)"/><path class="c" d="M304.094,458.052l.914,1.212a15.2,15.2,0,0,1,.151,2.142l-.1.047Z" transform="translate(-288.34 -443.558)"/><path class="c" d="M302.187,453.846l-2.128-2.827.961,3.4Z" transform="translate(-288.34 -443.558)"/></g><g transform="translate(3.696 24.987)"><path class="c" d="M251.915,453.239l2.118-2.823-.961,3.4Z" transform="translate(-244.576 -443.558)"/><path class="c" d="M259.264,446.387l2.124-2.829-.957,3.4Z" transform="translate(-244.576 -443.558)"/><path class="c" d="M248.045,470.119l2.122-2.827-.961,3.4Z" transform="translate(-244.576 -443.558)"/><path class="c" d="M250.847,464.181l2.123-2.821-.956,3.4Z" transform="translate(-244.576 -443.558)"/><path class="c" d="M253.653,458.25l2.128-2.819-.967,3.394Z" transform="translate(-244.576 -443.558)"/><path class="c" d="M256.459,452.318l2.122-2.827-.961,3.4Z" transform="translate(-244.576 -443.558)"/><path class="c" d="M256.192,444.492c-.226.145-.453.288-.668.425l-1.239,1.652,1.161.579Z" transform="translate(-244.576 -443.558)"/><path class="c" d="M246.3,465.106l2.128-2.821-.967,3.4Z" transform="translate(-244.576 -443.558)"/><path class="c" d="M249.1,459.175l2.124-2.819-.961,3.394Z" transform="translate(-244.576 -443.558)"/><path class="c" d="M244.576,461.406a13.322,13.322,0,0,1,.155-2.149l.9-1.2-.967,3.394Z" transform="translate(-244.576 -443.558)"/><path class="c" d="M247.546,453.846l2.125-2.827-.961,3.4Z" transform="translate(-244.576 -443.558)"/></g><path class="c" d="M263.784,466.875a17.191,17.191,0,0,1,8.8,2.477l-3.125-4.956-1.341-2.158-3.413-5.406L253.729,439.4a12.833,12.833,0,0,0,1.574-3.843l2.61-.784,16.946-5.054,10.572-3.147,3.532-1.068a13.363,13.363,0,0,0,.453,1.336c6.1,2.627,3.329,6.812,6.306,12.079L284.83,456.849l-3.263,5.376-.982,1.623-3.35,5.521a16.648,16.648,0,0,1,8.819-2.433,17.078,17.078,0,0,1,17.064,17.136c0,5.589-27.888,34.587-27.888,34.587s-28.628-28.124-28.6-34.7A17.105,17.105,0,0,1,263.784,466.875Z" transform="translate(-240.88 -418.571)"/><g transform="translate(9.776 2.035)"><path class="d" d="M285.426,426.564l3.537-1.054c.123.411.278.86.453,1.326,6.322,2.709,3.129,7.09,6.639,12.623.381-.436,7.274-10.972,8.46-18.6l.849-.257c1.814,7.953-10.2,21.269-10.2,21.269S289.779,428.584,285.426,426.564Z" transform="translate(-250.656 -420.606)"/><path class="d" d="M250.656,436.947l.91-.276.278-.08c.771,1.281,1.377,2.221,1.654,2.642.094.129.149.2.176.232a12.725,12.725,0,0,0,1.629-3.912l2.606-.782c-1.943,3.657-3.341,7.1-3.341,7.1S252.764,439.859,250.656,436.947Z" transform="translate(-250.656 -420.606)"/><path class="d" d="M268.116,462.238l3.181-2.374a8.079,8.079,0,0,1,3.331-.723c.082,0,.164.02.231.02s.169-.02.236-.02a8.236,8.236,0,0,1,3.347.723l3.125,2.361-.982,1.623c-1.944-.972-4.7-2.381-5.49-2.381-.067,0-.154.017-.221.017h-.015c-.082,0-.149-.017-.231-.017-.719,0-3.219,1.641-5.171,2.929Z" transform="translate(-250.656 -420.606)"/><path class="e" d="M270.671,496.691a5.328,5.328,0,0,0,4.194-2.926,5.329,5.329,0,0,0,4.193,2.926c4.569-2.61,7.818-9.24,7.818-17.013a22.755,22.755,0,0,0-4.226-13.8.225.225,0,0,0-.036-.057l0-.011h0a11.733,11.733,0,0,0-4.637-3.689,8.512,8.512,0,0,0-3.1-.648v0h-.015v0a8.53,8.53,0,0,0-3.105.648,11.728,11.728,0,0,0-4.63,3.689h0a.029.029,0,0,1-.011.011.449.449,0,0,0-.036.057,22.794,22.794,0,0,0-4.224,13.8C262.853,487.451,266.1,494.081,270.671,496.691Z" transform="translate(-250.656 -420.606)"/><path class="c" d="M266.451,497.989c-.01,1.953,8.5,10.308,8.5,10.308s8.284-8.613,8.289-10.279a5.077,5.077,0,0,0-5.072-5.089,4.962,4.962,0,0,0-2.626.724l-1.384-.011a5.081,5.081,0,0,0-7.7,4.347Z" transform="translate(-250.656 -420.606)"/><g transform="translate(13.322 46.001)"><g transform="translate(14.85 12.017)"><path class="c" d="M283.859,480.731a1.079,1.079,0,0,0,.088-.423c0-.927-1.146-1.684-2.561-1.684s-2.558.757-2.558,1.684a1.241,1.241,0,0,0,.085.423Z" transform="translate(-278.828 -478.624)"/></g><g transform="translate(1.805 12.017)"><path class="c" d="M265.87,480.731a1.078,1.078,0,0,1-.087-.423c0-.927,1.145-1.684,2.56-1.684s2.564.757,2.564,1.684a1.176,1.176,0,0,1-.088.423Z" transform="translate(-265.783 -478.624)"/></g><g transform="translate(7.207)"><path class="g" d="M271.524,468.125h6.687a4.219,4.219,0,0,0-3.337-1.511v-.007h-.015v.007A4.2,4.2,0,0,0,271.524,468.125Z" transform="translate(-271.185 -466.607)"/><path class="c" d="M274.865,468.3c1.52,1.78,3.679-.472,3.679-.472h-7.359S273.347,470.079,274.865,468.3Z" transform="translate(-271.185 -466.607)"/></g><path class="d" d="M274.859,477.884v.061l.006-.03.009.03v-.061l1.923-6.147h-3.864Z" transform="translate(-263.978 -466.607)"/><path class="c" d="M271.185,484.4l-5.085-.269-.07-.009-.036-.042-2.016-2.206,2.231,1.991-.109-.042,5.088-.253Z" transform="translate(-263.978 -466.607)"/><path class="c" d="M278.108,483.568l5.083.253-.108.042,2.237-1.991-2.016,2.206-.04.042-.073.009-5.083.269Z" transform="translate(-263.978 -466.607)"/></g></g><path class="d" d="M271.349,496.571a4.647,4.647,0,0,1-.678.12A4.647,4.647,0,0,0,271.349,496.571Z" transform="translate(-240.88 -418.571)"/><path class="d" d="M273.153,495.756c-.026.021-.057.035-.088.056C273.1,495.791,273.127,495.777,273.153,495.756Z" transform="translate(-240.88 -418.571)"/><path class="d" d="M272.594,496.1c-.042.027-.088.038-.13.061C272.506,496.137,272.552,496.126,272.594,496.1Z" transform="translate(-240.88 -418.571)"/><path class="d" d="M271.986,496.377c-.066.027-.144.047-.215.068C271.842,496.424,271.92,496.4,271.986,496.377Z" transform="translate(-240.88 -418.571)"/><g transform="translate(13.483 49.846)"><path class="h" d="M286.574,473.336c-.006.98,4.269,5.185,4.269,5.185s4.169-4.331,4.175-5.17a2.558,2.558,0,0,0-2.555-2.561,2.476,2.476,0,0,0-1.317.368l1.605-2.732-3.891-.009,1.587,2.733a2.551,2.551,0,0,0-3.873,2.186Z" transform="translate(-254.363 -468.417)"/><path class="d" d="M291.291,469.258l-.487.834-.49-.836Zm.293,2.612a1.616,1.616,0,0,1,.864-.24,1.724,1.724,0,0,1,1.733,1.721,32.71,32.71,0,0,1-3.353,3.975,22.075,22.075,0,0,1-3.428-4.072,1.726,1.726,0,0,1,.514-1.131,1.7,1.7,0,0,1,1.218-.5h0a1.7,1.7,0,0,1,.883.246Z" transform="translate(-254.363 -468.417)"/><path class="h" d="M254.363,473.336c-.006.98,4.27,5.185,4.27,5.185s4.168-4.331,4.174-5.17a2.558,2.558,0,0,0-2.555-2.561,2.464,2.464,0,0,0-1.315.368l1.6-2.732-3.891-.009,1.587,2.733a2.551,2.551,0,0,0-3.873,2.186Z" transform="translate(-254.363 -468.417)"/><path class="d" d="M259.08,469.258l-.493.834-.484-.836Zm.293,2.612a1.612,1.612,0,0,1,.859-.24,1.724,1.724,0,0,1,1.738,1.721,32.51,32.51,0,0,1-3.353,3.975,22.161,22.161,0,0,1-3.428-4.072,1.726,1.726,0,0,1,.514-1.131,1.7,1.7,0,0,1,1.213-.5h0a1.725,1.725,0,0,1,.89.246Z" transform="translate(-254.363 -468.417)"/></g><path class="d" d="M246.031,449.708c.3.417.586.819.873,1.2.1.132.2.244.294.368.179.23.359.466.534.681v.012a16.276,16.276,0,0,0-3,7.287,13.322,13.322,0,0,0-.155,2.149,20.332,20.332,0,0,0,4.527,12.065h1.157a16.984,16.984,0,0,0-3.628,10.485c-.03,6.537,28.227,34.335,28.577,34.686V429.608l-.35.107-16.946,5.054-2.1.63-.514.154h0c-.042.16-.088.326-.135.48s-.07.3-.118.451c0,0,0,0,0,.011a12.616,12.616,0,0,1-1.372,2.97c-.006-.006-.016-.019-.027-.03-.025-.039-.071-.09-.149-.2-.277-.421-.883-1.361-1.654-2.642h-.006l-.015.007-.257.073-.386.116-.529.154-9.771,2.908A46.07,46.07,0,0,0,246.031,449.708Z" transform="translate(-240.88 -418.571)"/></g></g></g><g transform="translate(209.256 351.63)"><path class="c" d="M234.167,362.281c.012-1.952-8.5-10.311-8.5-10.311s-8.291,8.621-8.291,10.279a5.08,5.08,0,0,0,5.074,5.1,4.974,4.974,0,0,0,2.621-.727l-3.187,5.429,7.731.017-3.162-5.438a5.027,5.027,0,0,0,2.617.732A5.082,5.082,0,0,0,234.167,362.281Z" transform="translate(-217.381 -351.97)"/><path class="d" d="M234.167,362.281c.012-1.952-8.5-10.311-8.5-10.311a.16.16,0,0,0-.016.021v20.066l3.964.007-3.162-5.438a5.027,5.027,0,0,0,2.617.732A5.082,5.082,0,0,0,234.167,362.281Z" transform="translate(-217.381 -351.97)"/></g><g transform="translate(333.256 475.448)"><path class="c" d="M328.39,486.733c-.012,1.954,8.5,10.308,8.5,10.308s8.29-8.613,8.3-10.275a5.087,5.087,0,0,0-5.079-5.093,5.036,5.036,0,0,0-2.621.724l3.186-5.431-7.73-.017,3.162,5.444a5.072,5.072,0,0,0-7.71,4.34Z" transform="translate(-328.39 -476.949)"/><path class="d" d="M328.39,486.733c-.012,1.954,8.5,10.308,8.5,10.308l.015-.017V476.958l-3.963-.009,3.162,5.444a5.072,5.072,0,0,0-7.71,4.34Z" transform="translate(-328.39 -476.949)"/></g></g></svg>