<svg xmlns="http://www.w3.org/2000/svg" width="154" height="215" viewBox="0 0 154 215"><defs><style>.a{fill:#c9c9c9;}.b{fill:#fff;}.c{fill:#333;}.d{fill:#616161;opacity:0.2;}.e{fill:#fdd8ab;}.f{fill:#ebebeb;}.g{fill:#454545;}.h{fill:#ffd675;}.i,.j{stroke:none;}.j{fill:#c4c4c4;}</style></defs><g transform="translate(-585.464 -314.002)"><g transform="translate(585.464 314.002)"><path class="a" d="M602.489,528.324a16.367,16.367,0,0,1-16.561-16.112l-.464-182A16.34,16.34,0,0,1,602,314l120.958.223a16.411,16.411,0,0,1,16.51,16.242v181.6a16.317,16.317,0,0,1-16.447,16.125Z" transform="translate(-585.464 -314.002)"/><g class="b" transform="translate(-585.464 -314.002)"><path class="i" d="M 722.533447265625 528.501953125 L 603.3385009765625 528.501953125 C 594.625 528.501953125 587.5360107421875 521.4806518554688 587.5360107421875 512.850341796875 L 587.5360107421875 331.2915344238281 C 587.5360107421875 322.6585083007813 594.625 315.635009765625 603.3385009765625 315.635009765625 L 722.533447265625 315.635009765625 C 731.2459106445313 315.635009765625 738.3339233398438 322.6585083007813 738.3339233398438 331.2915344238281 L 738.3339233398438 512.850341796875 C 738.3339233398438 521.4806518554688 731.2459106445313 528.501953125 722.533447265625 528.501953125 Z"/><path class="j" d="M 722.533447265625 528.001953125 C 730.97021484375 528.001953125 737.8339233398438 521.2049560546875 737.8339233398438 512.850341796875 L 737.8339233398438 331.2915344238281 C 737.8339233398438 322.9342041015625 730.97021484375 316.135009765625 722.533447265625 316.135009765625 L 603.3385009765625 316.135009765625 C 594.9006958007813 316.135009765625 588.0360107421875 322.9342041015625 588.0360107421875 331.2915344238281 L 588.0360107421875 512.850341796875 C 588.0360107421875 521.2049560546875 594.9006958007813 528.001953125 603.3385009765625 528.001953125 L 722.533447265625 528.001953125 M 722.533447265625 529.001953125 L 603.3385009765625 529.001953125 C 594.3474731445313 529.001953125 587.0360107421875 521.7557373046875 587.0360107421875 512.850341796875 L 587.0360107421875 331.2915344238281 C 587.0360107421875 322.3802795410156 594.3474731445313 315.135009765625 603.3385009765625 315.135009765625 L 722.533447265625 315.135009765625 C 731.5284423828125 315.135009765625 738.8339233398438 322.3802795410156 738.8339233398438 331.2915344238281 L 738.8339233398438 512.850341796875 C 738.8339233398438 521.7557373046875 731.5284423828125 529.001953125 722.533447265625 529.001953125 Z"/></g><g transform="translate(8 14)"><path class="c" d="M614.878,336.7a7.385,7.385,0,0,1-.6,2.724,7.712,7.712,0,0,1-1.434,2.374,12.569,12.569,0,0,1-1.1.972,20.775,20.775,0,0,1-2.368,1.658q-.354.211-.526.309c-.363.238-.544.4-.544.5,0,.189.56.515,1.687.971a16,16,0,0,0,2.277.781,1.371,1.371,0,0,0,.329.026h.816a1.219,1.219,0,0,1,.417.073,2.47,2.47,0,0,1-.555.339c-.284.137-.56.268-.844.393-.4.347-.7.615-.914.793a.9.9,0,0,1-.51.274c-.363,0-.965-.408-1.8-1.209a3.6,3.6,0,0,0-2.4-1.213,2.191,2.191,0,0,0-1.382.541,2.725,2.725,0,0,1-.823.527c-.184,0-.281-.123-.281-.381,0-.167.266-.464.807-.875.343-.269.693-.525,1.043-.779-.87-.506-1.707-1.037-2.5-1.593a9.418,9.418,0,0,1-2.123-2.035,8.374,8.374,0,0,1-1.233-2.265,7.336,7.336,0,0,1-.427-2.477,5.823,5.823,0,0,1,.76-3.156,18.565,18.565,0,0,1,1.8-1.991c.32-.318,1.115-1,2.4-2.039Q607.24,328,607.713,328a3.744,3.744,0,0,1,1.593.826,25.136,25.136,0,0,1,3.3,2.895,8.536,8.536,0,0,1,1.73,2.347A6.136,6.136,0,0,1,614.878,336.7Zm-4.009,2.227a7.319,7.319,0,0,0-.462-2.406,10.035,10.035,0,0,0-1.291-2.477,10.732,10.732,0,0,0-2.37-2.21c-.379-.285-.919-.645-1.612-1.087-.274,0-.608.47-1.009,1.409a6.368,6.368,0,0,0-.606,1.839,7.94,7.94,0,0,0,.832,3.605,11.66,11.66,0,0,0,2.134,2.892q.586.617,2.894,2.7a4.693,4.693,0,0,0,1.186-2.254A7.921,7.921,0,0,0,610.869,338.93Z" transform="translate(-599.891 -328.002)"/></g><g transform="translate(132 181.466)"><path class="c" d="M713.556,509.828a7.358,7.358,0,0,1,.607-2.724,7.452,7.452,0,0,1,1.439-2.374,11.5,11.5,0,0,1,1.089-.967,18.335,18.335,0,0,1,2.373-1.664c.227-.144.4-.24.515-.308.371-.238.546-.4.546-.5,0-.187-.556-.514-1.687-.975a15.644,15.644,0,0,0-2.271-.78,1.664,1.664,0,0,0-.329-.025h-.822a1.146,1.146,0,0,1-.412-.071,2.409,2.409,0,0,1,.554-.346c.278-.133.556-.261.844-.39.39-.343.7-.611.915-.792a.867.867,0,0,1,.5-.27c.359,0,.967.4,1.8,1.205a3.609,3.609,0,0,0,2.406,1.212,2.21,2.21,0,0,0,1.387-.537,2.671,2.671,0,0,1,.813-.531c.194,0,.288.13.288.381,0,.171-.278.468-.813.88-.348.268-.689.525-1.037.774.862.51,1.705,1.038,2.5,1.594a9.441,9.441,0,0,1,2.128,2.034,8.672,8.672,0,0,1,1.234,2.27,7.462,7.462,0,0,1,.421,2.476,5.8,5.8,0,0,1-.76,3.156,18.316,18.316,0,0,1-1.8,1.988q-.48.477-2.4,2.042-2.389,1.942-2.867,1.942a3.816,3.816,0,0,1-1.593-.828,25.117,25.117,0,0,1-3.289-2.892,8.668,8.668,0,0,1-1.738-2.351A6.148,6.148,0,0,1,713.556,509.828Zm4.009-2.224a7.363,7.363,0,0,0,.462,2.407,9.965,9.965,0,0,0,1.3,2.476,10.444,10.444,0,0,0,2.375,2.205c.37.283.914.653,1.6,1.088.268,0,.607-.466,1.007-1.408a6.263,6.263,0,0,0,.607-1.839,8.039,8.039,0,0,0-.822-3.6,11.751,11.751,0,0,0-2.138-2.895c-.4-.411-1.357-1.31-2.89-2.7a4.639,4.639,0,0,0-1.191,2.257A7.756,7.756,0,0,0,717.565,507.6Z" transform="translate(-713.556 -497.645)"/></g><g transform="translate(41 16.029)"><g transform="translate(0 45.229)"><path class="a" d="M687.219,375.26l-.236,3.265-.154,1.995-.607,8.523-.143,2-.185,2.72v.014l-.2,2.509-1.943.048-.914.012-1.9.044-1.079.021-1.315.027-2.334.046-2.582.057-12.13.257h-.019l-12.12-.257-2.591-.057-2.322-.046-1.315-.027-1.08-.021-.946-.021-.956-.023-.925-.012-1.934-.048-.194-2.509v-.014l-.184-2.72-.154-2-.6-8.523-.154-1.995-.236-3.265Z" transform="translate(-624.029 -375.26)"/><path class="d" d="M685.091,381.356c-2.313,2.467-9.138,4.86-15.12,4.86H669.9a11.682,11.682,0,0,1-4.511,3.649,8.463,8.463,0,0,1-3.341.7,1.952,1.952,0,0,1-.227-.02H661.8V375.26Z" transform="translate(-624.029 -375.26)"/><g transform="translate(0 16.2)"><path class="e" d="M695.433,408.813l-9.756,2.909-.914.283-.268.073c-.771-1.272-1.388-2.227-1.654-2.643-.1-.133-.154-.214-.185-.214-.011,0-.032.043-.051.06a12.877,12.877,0,0,0-1.563,3.828l-2.612.789-16.919,5.059L650.953,422.1l-3.525,1.049c-.124-.419-.268-.851-.453-1.336-6.095-2.621-3.32-6.8-6.3-12.044a5.281,5.281,0,0,0-.339-.548c-.36.432-7.247,10.939-8.435,18.575l-.847.228L624.2,430.08h-.169c-.112-15.017,4.462-25.04,8.677-31.1.3-.415.58-.816.879-1.182s.554-.74.822-1.039l.016-.019v-.046c.215-.215.416-.483.637-.7a1.686,1.686,0,0,1,.267-.317,2.914,2.914,0,0,1,.329-.389c.524-.569,1.007-1.083,1.439-1.521h.021c.112-.116.215-.215.328-.333.1-.082.205-.2.308-.284a3.313,3.313,0,0,0,.3-.27c.184-.165.35-.3.514-.432a9.934,9.934,0,0,1,1.089-.853l1.583.369.267.065.638.187.175.017,2.2-.084,3.411-.133,3.62-.154,9.94-.4h.021l10.135.419,3.422.133,3.414.133,2.2.084.185-.017.626-.187.278-.065,1.572-.369a9.813,9.813,0,0,1,1.091.853c.164.133.329.267.524.432a2.269,2.269,0,0,0,.287.27c.1.082.206.2.3.284l.339.333h.021a3.341,3.341,0,0,1,.308.335,2.257,2.257,0,0,1,.369.364,11.11,11.11,0,0,1,.752.822,3.912,3.912,0,0,1,.442.471.2.2,0,0,0,.082.1.893.893,0,0,1,.082.14c.217.216.411.484.637.7a.08.08,0,0,1,.01.046v.019c.268.3.535.685.834,1.039s.575.767.874,1.182A46.932,46.932,0,0,1,695.433,408.813Z" transform="translate(-624.029 -391.46)"/><path class="d" d="M661.49,402.449h2.231l-1,8.045c-.412.021-.823.032-1.234.042Z" transform="translate(-624.029 -391.46)"/></g><g transform="translate(8.679 0.008)"><g transform="translate(4.121)"><path class="d" d="M661.5,375.268l-24.67,3.621c3.845,5.413,10.527,7.327,16.51,7.327h.061c2.118,2.7,4.861,4.347,7.864,4.347.081,0,.165-.017.235-.017Z" transform="translate(-636.829 -375.268)"/><path class="d" d="M661.5,402.449H659.27l1,8.045c.411.021.822.032,1.233.042Z" transform="translate(-636.829 -375.268)"/></g><path class="d" d="M653.369,409.209c-11.317-2.5-17.454-6.306-20.661-10.217a34.664,34.664,0,0,1,5.849-6.565Z" transform="translate(-632.708 -375.268)"/><g transform="translate(25.215 8.686)"><path class="e" d="M661.5,387.226c-.07,0-.154.01-.235.01a8.408,8.408,0,0,1-3.227-.651,3.551,3.551,0,0,0-.114.822v1.443a8.236,8.236,0,0,0,3.341.706c.081,0,.165-.011.235-.011Z" transform="translate(-657.923 -383.954)"/><path class="e" d="M661.5,383.967a1.147,1.147,0,0,0-.121-.013,3.435,3.435,0,0,0-3.341,2.631,8.408,8.408,0,0,0,3.227.651c.081,0,.165-.01.235-.01Z" transform="translate(-657.923 -383.954)"/></g><path class="e" d="M681.36,391.184l-6-.084-10.291-.125V388.85a8.268,8.268,0,0,1-3.341.706c-.072,0-.143-.011-.227-.011h-.009c-.082,0-.154.011-.226.011a8.236,8.236,0,0,1-3.341-.706v2.125l-10.289.125-6,.084c-1.049,1.835-.587,2.01-.587,4.118,0,5.242,3.619,9.868,9.13,12.613a.137.137,0,0,0,.071.03,22.256,22.256,0,0,0,3.125,1.264,26.1,26.1,0,0,0,6.9,1.279c.135.01.269.021.4.027.266.011.544.013.822.021h.009c.278-.008.556-.01.823-.021.135-.006.268-.017.4-.027a26.229,26.229,0,0,0,6.9-1.279,21.65,21.65,0,0,0,3.126-1.264.136.136,0,0,0,.072-.03c5.509-2.745,9.128-7.371,9.128-12.613C681.946,393.194,682.409,393.019,681.36,391.184Z" transform="translate(-632.708 -375.268)"/><g transform="translate(8.234 15.832)"><path class="d" d="M653.369,409.209c-1.1-.411-2.138-.832-3.125-1.264a.137.137,0,0,1-.071-.03c-5.511-2.745-9.13-7.371-9.13-12.613,0-2.108-.462-2.283.587-4.118l6-.084Z" transform="translate(-640.942 -391.1)"/><path class="d" d="M669.62,409.209q1.65-.617,3.126-1.264a.136.136,0,0,0,.072-.03c5.509-2.745,9.128-7.371,9.128-12.613,0-2.108.463-2.283-.586-4.118l-6-.084Z" transform="translate(-640.942 -391.1)"/></g><path class="e" d="M661.49,387.226c.072,0,.154.01.236.01a8.4,8.4,0,0,0,3.228-.651,3.6,3.6,0,0,1,.113.822v1.443a8.268,8.268,0,0,1-3.341.706c-.082,0-.164-.011-.236-.011Z" transform="translate(-632.708 -375.268)"/><path class="e" d="M661.49,383.967c.042,0,.072-.013.112-.013a3.449,3.449,0,0,1,3.352,2.631,8.4,8.4,0,0,1-3.228.651c-.082,0-.164-.01-.236-.01Z" transform="translate(-632.708 -375.268)"/></g><path class="c" d="M695.433,408.813l-9.756,2.909-.914.283-.268.073c-.771-1.272-1.388-2.227-1.654-2.643-.1-.133-.154-.214-.185-.214-.011,0-.032.043-.051.06a12.877,12.877,0,0,0-1.563,3.828l-2.612.789-16.919,5.059L650.953,422.1l-3.525,1.049c-.124-.419-.268-.851-.453-1.336-6.095-2.621-3.32-6.8-6.3-12.044a5.281,5.281,0,0,0-.339-.548c-.36.432-7.247,10.939-8.435,18.575l-.847.228L624.2,430.08h-.169c-.112-15.017,4.462-25.04,8.677-31.1.3-.415.58-.816.879-1.182s.554-.74.822-1.039l.016-.019v-.046c.215-.215.416-.483.637-.7.031-.051.067-.089.082-.123.067-.069.118-.13.185-.194l7.854,6.858,1.213,1.07.369-.611a15.447,15.447,0,0,0,3.28.364c2.189,0,9.94-2.42,11.6-3.406h4.38c2.026,1.217,10.588,3.371,12.684,3.371a16.879,16.879,0,0,0,2.056-.133l.834,1.319,1.747-1.871,6.425-6.879a.2.2,0,0,0,.082.1.893.893,0,0,1,.082.14c.217.216.411.484.637.7a.08.08,0,0,1,.01.046v.019c.154.165.308.367.474.582.112.155.227.3.36.457.287.366.575.767.874,1.182A46.932,46.932,0,0,1,695.433,408.813Z" transform="translate(-624.029 -375.26)"/><path class="d" d="M690.282,398.992c-3.206,3.907-9.343,7.72-20.662,10.217l6.137-6.957.381-.42,4.8-5.447,1.007-1.145,2.477-2.8c.165.132.34.278.525.45.091.081.194.179.288.27s.215.186.317.278c.1.11.206.213.33.325h.011v.014a3.7,3.7,0,0,1,.318.32c.124.12.248.235.36.365.247.257.5.525.761.813.174.188.328.373.514.569.031.038.071.082.1.12.194.227.4.472.617.74a.038.038,0,0,1,.009.023h.01v.012c.268.338.535.687.822,1.047C689.707,398.17,689.995,398.57,690.282,398.992Z" transform="translate(-624.029 -375.26)"/><path class="f" d="M691.742,387.308a13.782,13.782,0,0,1-.154,2.138,16.342,16.342,0,0,1-3,7.277v.012a28.078,28.078,0,0,1-7.78,7.037c-.206.138-.444.28-.668.421a54.863,54.863,0,0,1-7.32,3.726,1.586,1.586,0,0,1-.175.089,1.412,1.412,0,0,1-.133.053c-.175.069-.339.141-.514.213-.5.21-1.028.421-1.563.627-.266.1-.535.2-.813.308l6.591-12.731,2.261-4.339.5-.989,8.245-15.89A20.284,20.284,0,0,1,691.742,387.308Z" transform="translate(-624.029 -375.26)"/><path class="f" d="M653.369,409.209a61.414,61.414,0,0,1-10.515-5.016c-.227-.143-.453-.287-.668-.428-7.329-4.7-10.156-9.775-10.79-14.323a14.555,14.555,0,0,1-.149-2.134,20.289,20.289,0,0,1,4.523-12.04Z" transform="translate(-624.029 -375.26)"/><g transform="translate(7.218 2.766)"><path class="c" d="M638.576,395.456l2.119,2.821-.956-3.4Z" transform="translate(-631.247 -378.026)"/><path class="c" d="M645.917,402.3l2.128,2.819-.967-3.4Z" transform="translate(-631.247 -378.026)"/><path class="c" d="M634.712,378.609l2.117,2.819-.956-3.4Z" transform="translate(-631.247 -378.026)"/><path class="c" d="M637.518,384.533l2.119,2.816-.958-3.394Z" transform="translate(-631.247 -378.026)"/><path class="c" d="M640.314,390.453l2.117,2.823-.956-3.4Z" transform="translate(-631.247 -378.026)"/><path class="c" d="M643.12,396.375l2.118,2.827-.957-3.4Z" transform="translate(-631.247 -378.026)"/><path class="c" d="M642.854,404.193c-.227-.143-.453-.287-.668-.428l-1.245-1.645,1.163-.579Z" transform="translate(-631.247 -378.026)"/><path class="c" d="M632.97,383.6l2.123,2.819-.961-3.394Z" transform="translate(-631.247 -378.026)"/><path class="c" d="M635.77,389.528l2.128,2.823-.967-3.392Z" transform="translate(-631.247 -378.026)"/><path class="c" d="M632.306,390.655l-.91-1.213a14.555,14.555,0,0,1-.149-2.134l.1-.051Z" transform="translate(-631.247 -378.026)"/><path class="c" d="M634.213,394.852l2.122,2.825-.961-3.4Z" transform="translate(-631.247 -378.026)"/></g><g transform="translate(50.927 2.766)"><path class="c" d="M684.413,395.456l-2.117,2.821.956-3.4Z" transform="translate(-674.956 -378.026)"/><path class="c" d="M677.073,402.3l-2.117,2.819.956-3.4Z" transform="translate(-674.956 -378.026)"/><path class="c" d="M688.268,378.609l-2.107,2.819.956-3.4Z" transform="translate(-674.956 -378.026)"/><path class="c" d="M685.471,384.533l-2.117,2.816.956-3.394Z" transform="translate(-674.956 -378.026)"/><path class="c" d="M682.675,390.453l-2.127,2.823.965-3.4Z" transform="translate(-674.956 -378.026)"/><path class="c" d="M679.869,396.375l-2.117,2.827.965-3.4Z" transform="translate(-674.956 -378.026)"/><path class="c" d="M679.869,402.868c.236-.144,1.953-1.683,1.953-1.683l-1.161-.578Z" transform="translate(-674.956 -378.026)"/><path class="c" d="M690.016,383.6l-2.117,2.819.956-3.394Z" transform="translate(-674.956 -378.026)"/><path class="c" d="M687.219,389.528l-2.128,2.823.967-3.392Z" transform="translate(-674.956 -378.026)"/><path class="c" d="M691.742,387.308a13.782,13.782,0,0,1-.154,2.138l-.914,1.209.965-3.393Z" transform="translate(-674.956 -378.026)"/><path class="c" d="M688.772,394.852l-2.118,2.825.956-3.4Z" transform="translate(-674.956 -378.026)"/></g></g><path class="c" d="M659.135,379.347l-1.49,2.458c-3.033,0-5.745,0-7.308-.021A16.6,16.6,0,0,0,659.135,379.347Z" transform="translate(-624.029 -330.031)"/><path class="c" d="M672.15,381.835c-1.584,0-4.06,0-6.815-.017l-1.553-2.455A17.067,17.067,0,0,0,672.15,381.835Z" transform="translate(-624.029 -330.031)"/><path class="c" d="M672.561,381.856a.678.678,0,0,1-.2-.021C674.237,381.856,674.72,381.856,672.561,381.856Z" transform="translate(-624.029 -330.031)"/><g transform="translate(6.826)"><path class="c" d="M692.431,368.249a15.688,15.688,0,0,1-15.718,15.724c-2.1,0-10.658-2.155-12.684-3.371h-4.38c-1.664.988-9.415,3.4-11.6,3.4a14.846,14.846,0,0,1-1.173-29.648,15.137,15.137,0,0,1-.946-5.315,12.878,12.878,0,0,1,.166-2.189v-.017a13.363,13.363,0,0,1,.544-2.492v-.018a15.744,15.744,0,0,1,29.862-.43,13.646,13.646,0,0,1,.647,2.57,15.462,15.462,0,0,1-.185,6.084A15.72,15.72,0,0,1,692.431,368.249Z" transform="translate(-630.855 -330.031)"/><g transform="translate(0 76.774)"><path class="d" d="M650.953,422.093l-3.536,1.056c-.122-.411-.276-.864-.451-1.327-6.313-2.7-3.126-7.079-6.631-12.609-.381.44-7.262,10.959-8.45,18.571l-.843.257c-1.814-7.936,10.188-21.236,10.188-21.236S646.606,420.075,650.953,422.093Z" transform="translate(-630.855 -406.805)"/><path class="d" d="M685.668,411.727l-.905.278-.278.082c-.77-1.285-1.378-2.227-1.656-2.64-.091-.135-.154-.213-.173-.238a12.6,12.6,0,0,0-1.625,3.91l-2.611.782c1.942-3.649,3.342-7.1,3.342-7.1S683.56,408.819,685.668,411.727Z" transform="translate(-630.855 -406.805)"/></g><path class="d" d="M668.233,386.472l-3.176,2.374a8.138,8.138,0,0,1-3.32.72c-.083,0-.175-.021-.238-.021-.081,0-.163.021-.235.021a8.3,8.3,0,0,1-3.341-.72l-3.124-2.354.986-1.624c1.943.967,4.7,2.376,5.479,2.376.072,0,.154-.021.216-.021h.019c.084,0,.155.021.238.021.72,0,3.206-1.636,5.159-2.928Z" transform="translate(-630.855 -330.031)"/><path class="e" d="M665.684,352.076a5.324,5.324,0,0,0-4.194,2.913,5.3,5.3,0,0,0-4.184-2.913c-4.563,2.6-7.813,9.225-7.813,16.982a22.754,22.754,0,0,0,4.226,13.775.178.178,0,0,0,.041.061v.011h0a11.78,11.78,0,0,0,4.637,3.68,8.583,8.583,0,0,0,3.093.647h.009a8.564,8.564,0,0,0,3.1-.647,11.708,11.708,0,0,0,4.626-3.68h0l.009-.011a.215.215,0,0,0,.042-.061,22.766,22.766,0,0,0,4.224-13.775C673.5,361.3,670.249,354.676,665.684,352.076Z" transform="translate(-630.855 -330.031)"/><path class="c" d="M669.9,350.782c.011-1.953-8.48-10.3-8.48-10.3s-8.275,8.6-8.285,10.266a5.077,5.077,0,0,0,5.068,5.077,4.973,4.973,0,0,0,2.621-.719l1.378,0a5.068,5.068,0,0,0,7.7-4.331Z" transform="translate(-630.855 -330.031)"/><g transform="translate(20.201 34.312)"><g transform="translate(1.367 3.667)"><path class="c" d="M652.516,368.01a.972.972,0,0,0-.093.422c0,.927,1.152,1.679,2.56,1.679s2.559-.752,2.559-1.679a1.139,1.139,0,0,0-.092-.422Z" transform="translate(-652.423 -368.01)"/></g><g transform="translate(14.392 3.667)"><path class="c" d="M670.475,368.01a1.158,1.158,0,0,1,.091.422c0,.927-1.151,1.679-2.558,1.679s-2.56-.752-2.56-1.679a1.153,1.153,0,0,1,.081-.422Z" transform="translate(-665.448 -368.01)"/></g><g transform="translate(6.764 15.393)"><path class="g" d="M664.831,380.6h-6.672a4.212,4.212,0,0,0,3.331,1.5h.009A4.213,4.213,0,0,0,664.831,380.6Z" transform="translate(-657.82 -379.736)"/><path class="c" d="M661.49,380.421c-1.511-1.778-3.67.468-3.67.468h7.35S663.011,378.643,661.49,380.421Z" transform="translate(-657.82 -379.736)"/></g><path class="d" d="M661.5,370.85v-.061l-.009.03v.03l-1.923,6.137h3.855Z" transform="translate(-651.056 -364.343)"/><path class="c" d="M665.17,364.343l5.079.278h.072l.03.042,2.014,2.206-2.219-1.984.1.04-5.079.251Z" transform="translate(-651.056 -364.343)"/><path class="c" d="M658.261,365.177l-5.077-.251.1-.04-2.231,1.984,2.014-2.206.042-.042h.061l5.079-.278Z" transform="translate(-651.056 -364.343)"/></g><g transform="translate(22.274)"><path class="d" d="M665.427,334.8a4.569,4.569,0,0,0,.072-.908,4.072,4.072,0,0,0-4.1-3.862,4.214,4.214,0,0,0-4.255,3.944,3.6,3.6,0,0,0,.194,1.409,4.725,4.725,0,0,0-4.193,4.266,3.979,3.979,0,0,0,4.163,4.391,13.5,13.5,0,0,0,3.464-1.195l-3.165,5.747,7.462-.44-3.033-5.366a13.078,13.078,0,0,0,3.65.891,4.321,4.321,0,0,0,4.039-4.748A4.408,4.408,0,0,0,665.427,334.8Z" transform="translate(-653.129 -330.031)"/><path class="h" d="M665.109,334.93a4.133,4.133,0,0,0,.091-.89,3.993,3.993,0,0,0-7.985-.035,3.914,3.914,0,0,0,.235,1.35,3.772,3.772,0,0,0,.267,7.534,11.378,11.378,0,0,0,2.96-.845l-2.579,4.373,6.228.019-2.537-4.388a12.242,12.242,0,0,0,3.217.87,3.995,3.995,0,0,0,.1-7.988Z" transform="translate(-653.129 -330.031)"/><path class="d" d="M661.233,342.747l1.645,2.853-3.32-.017Zm-3.5-.69a2.938,2.938,0,0,1-.216-5.868l1.1-.084-.369-1.03a3.157,3.157,0,0,1,5.221-3.27,3.078,3.078,0,0,1,.9,2.231,2.793,2.793,0,0,1-.081.719l-.218.99,1.019.021a3.161,3.161,0,0,1,3.093,3.166,3.16,3.16,0,0,1-3.175,3.147,12.676,12.676,0,0,1-2.787-.745l-.379.373-1.583-.382A12.062,12.062,0,0,1,657.728,342.057Z" transform="translate(-653.129 -330.031)"/></g></g><path class="d" d="M665.006,352.19a4.193,4.193,0,0,1,.678-.114A4.193,4.193,0,0,0,665.006,352.19Z" transform="translate(-624.029 -330.031)"/><path class="d" d="M663.2,353.005c.032-.021.063-.034.093-.055C663.259,352.971,663.228,352.984,663.2,353.005Z" transform="translate(-624.029 -330.031)"/><path class="d" d="M663.761,352.662c.042-.026.084-.037.124-.058C663.845,352.625,663.8,352.636,663.761,352.662Z" transform="translate(-624.029 -330.031)"/><path class="d" d="M664.368,352.385a2,2,0,0,0,.215-.069A2,2,0,0,1,664.368,352.385Z" transform="translate(-624.029 -330.031)"/><path class="d" d="M690.294,398.975c-.3-.415-.587-.816-.874-1.182-.166-.2-.32-.4-.474-.6-.113-.145-.246-.309-.36-.45v-.021a16.342,16.342,0,0,0,3-7.277,13.782,13.782,0,0,0,.154-2.138,19.092,19.092,0,0,0-2.673-9.337,15.709,15.709,0,0,0-12.109-25.419,15.462,15.462,0,0,0,.185-6.084,13.646,13.646,0,0,0-.647-2.57,15.724,15.724,0,0,0-11.008-10.074,4.07,4.07,0,0,0-4.093-3.793c-.031,0-.052.009-.082.009v88.977l.2-.06L678.42,413.9v0l2.611-.782v0l.011-.006a13.242,13.242,0,0,1,1.357-3.447c.082-.141.143-.274.236-.407,0-.021.01-.034.021-.034s.01,0,.01.009a1.438,1.438,0,0,1,.163.217c.278.413.886,1.355,1.656,2.64l.143-.047.135-.035.914-.283,9.756-2.909A46.932,46.932,0,0,0,690.294,398.975Z" transform="translate(-624.029 -330.031)"/><g transform="translate(0.002 84.694)"><path class="a" d="M632.254,471.729l.232-3.269.154-1.991.605-8.52.151-2,.185-2.724v-.01l.184-2.515,1.944-.042.925-.014,1.9-.048,1.079-.021,1.315-.025,2.322-.048,2.581-.055,12.13-.257H658l12.12.257,2.579.055,2.334.048,1.306.025,1.089.021.946.027.956.021.915.014,1.942.042.185,2.515v.01l.2,2.724.145,2,.605,8.52.154,1.991.227,3.269Z" transform="translate(-624.031 -416.902)"/><path class="d" d="M634.373,465.634c2.323-2.467,9.149-4.858,15.132-4.858h.061a11.746,11.746,0,0,1,4.523-3.653,8.48,8.48,0,0,1,3.341-.7,1.568,1.568,0,0,1,.215.021h.032v15.282Z" transform="translate(-624.031 -416.902)"/><path class="e" d="M624.031,438.17l9.756-2.908.92-.282.268-.061c.765,1.264,1.382,2.22,1.66,2.635.091.133.142.215.175.215s.04-.052.051-.065a13.271,13.271,0,0,0,1.573-3.824l2.6-.788,16.931-5.06,10.557-3.143,3.525-1.051c.113.413.267.853.452,1.337,6.1,2.623,3.322,6.8,6.3,12.046a5.054,5.054,0,0,0,.328.548c.371-.43,7.247-10.94,8.44-18.573l.853-.239,6.845-2.055h.166c.124,15.019-4.462,25.047-8.665,31.106-.3.421-.586.823-.885,1.188-.288.35-.554.741-.822,1.04l-.022.013v.051c-.215.216-.411.484-.626.706-.093.113-.175.216-.266.318-.1.128-.227.261-.341.381-.514.565-1,1.083-1.439,1.521h-.01c-.123.114-.215.217-.339.329-.1.086-.2.206-.3.288a3.424,3.424,0,0,0-.3.268c-.187.164-.351.3-.526.431a10.774,10.774,0,0,1-1.079.854l-1.593-.367-.267-.065-.628-.185-.173-.017-2.2.082-3.413.133-3.619.151-9.939.4h-.02l-10.147-.418-3.422-.134-3.4-.133-2.21-.082-.185.017-.616.185-.288.065-1.563.367a10.175,10.175,0,0,1-1.089-.854c-.169-.13-.334-.267-.534-.431a1.979,1.979,0,0,0-.282-.268c-.1-.082-.2-.2-.3-.288l-.333-.329h-.015a3.272,3.272,0,0,1-.32-.339,2.179,2.179,0,0,1-.364-.367c-.238-.25-.5-.5-.755-.815a3.506,3.506,0,0,1-.432-.47,1.278,1.278,0,0,0-.082-.1,1.25,1.25,0,0,1-.088-.126c-.217-.222-.417-.49-.632-.706a.064.064,0,0,1-.017-.051v-.013c-.272-.3-.539-.69-.837-1.04-.282-.365-.57-.767-.869-1.188A47.033,47.033,0,0,1,624.031,438.17Z" transform="translate(-624.031 -416.902)"/><path class="d" d="M657.985,444.54h-2.23l1-8.045c.4-.021.822-.03,1.233-.042Z" transform="translate(-624.031 -416.902)"/><g transform="translate(13.392 19.551)"><g transform="translate(20.551)"><path class="d" d="M657.974,471.723l24.661-3.622c-3.845-5.406-10.515-7.325-16.5-7.325h-.063c-2.127-2.7-4.862-4.35-7.864-4.35-.082,0-.163.017-.236.017Z" transform="translate(-657.974 -436.453)"/><path class="d" d="M657.974,444.54h2.231l-1-8.045c-.411-.021-.823-.03-1.234-.042Z" transform="translate(-657.974 -436.453)"/></g><path class="d" d="M666.106,437.777c11.307,2.5,17.454,6.3,20.65,10.218a34.381,34.381,0,0,1-5.847,6.567Z" transform="translate(-637.423 -436.453)"/><g transform="translate(20.551 20.978)"><path class="e" d="M657.974,459.765c.073,0,.154-.017.236-.017a8.4,8.4,0,0,1,3.229.657,3.721,3.721,0,0,0,.1-.826v-1.44a8.3,8.3,0,0,0-3.332-.708c-.082,0-.163.013-.236.013Z" transform="translate(-657.974 -457.431)"/><path class="e" d="M657.974,463.022c.03,0,.073.015.124.015a3.444,3.444,0,0,0,3.341-2.632,8.4,8.4,0,0,0-3.229-.657c-.082,0-.163.017-.236.017Z" transform="translate(-657.974 -457.431)"/></g><path class="e" d="M638.114,455.807l6,.082,10.289.133v2.117a8.305,8.305,0,0,1,3.34-.708c.073,0,.145.01.227.013h.011c.071,0,.143-.013.225-.013a8.3,8.3,0,0,1,3.332.708v-2.117l10.3-.133,6-.082c1.049-1.831.586-2.012.586-4.119,0-5.246-3.618-9.872-9.128-12.613a.142.142,0,0,0-.072-.035,23.4,23.4,0,0,0-3.124-1.263,26.387,26.387,0,0,0-6.9-1.276l-.4-.027c-.269-.009-.547-.013-.823-.021h-.011c-.278.008-.554.012-.822.021-.134.008-.267.018-.4.027a26.294,26.294,0,0,0-6.9,1.276,23.072,23.072,0,0,0-3.135,1.263c-.021,0-.03.014-.061.035-5.511,2.741-9.128,7.367-9.128,12.613C637.529,453.8,637.055,453.976,638.114,455.807Z" transform="translate(-637.423 -436.453)"/><g transform="translate(0 1.324)"><path class="d" d="M666.106,437.777q1.648.621,3.124,1.263a.142.142,0,0,1,.072.035c5.51,2.741,9.128,7.367,9.128,12.613,0,2.107.463,2.288-.586,4.119l-6,.082Z" transform="translate(-637.423 -437.777)"/><path class="d" d="M649.853,437.777c-1.11.414-2.147.835-3.135,1.263-.021,0-.03.014-.061.035-5.511,2.741-9.128,7.367-9.128,12.613,0,2.107-.474,2.288.585,4.119l6,.082Z" transform="translate(-637.423 -437.777)"/></g><path class="e" d="M657.985,459.765c-.083,0-.165-.017-.238-.017a8.4,8.4,0,0,0-3.226.657,3.13,3.13,0,0,1-.114-.826v-1.44a8.305,8.305,0,0,1,3.34-.708c.084,0,.155.013.238.013Z" transform="translate(-637.423 -436.453)"/><path class="e" d="M657.985,463.022c-.041,0-.083.015-.123.015a3.443,3.443,0,0,1-3.341-2.632,8.4,8.4,0,0,1,3.226-.657c.073,0,.155.017.238.017Z" transform="translate(-637.423 -436.453)"/></g><path class="c" d="M624.031,438.17l9.756-2.908.92-.282.268-.061c.765,1.264,1.382,2.22,1.66,2.635.091.133.142.215.175.215s.04-.052.051-.065a13.271,13.271,0,0,0,1.573-3.824l2.6-.788,16.931-5.06,10.557-3.143,3.525-1.051c.113.413.267.853.452,1.337,6.1,2.623,3.322,6.8,6.3,12.046a5.054,5.054,0,0,0,.328.548c.371-.43,7.247-10.94,8.44-18.573l.853-.239,6.845-2.055h.166c.124,15.019-4.462,25.047-8.665,31.106-.3.421-.586.823-.885,1.188-.288.35-.554.741-.822,1.04l-.022.013v.051c-.215.216-.411.484-.626.706a.571.571,0,0,0-.093.113c-.061.064-.112.133-.173.205l-7.855-6.873-1.224-1.068L674.7,444a15.293,15.293,0,0,0-3.268-.363c-2.189,0-9.941,2.419-11.616,3.4h-4.381c-2.014-1.216-10.587-3.371-12.673-3.371a17.127,17.127,0,0,0-2.057.129l-.831-1.315-1.759,1.871-6.413,6.88a1.278,1.278,0,0,0-.082-.1,1.25,1.25,0,0,1-.088-.126c-.217-.222-.417-.49-.632-.706a.064.064,0,0,1-.017-.051v-.013c-.149-.172-.3-.372-.466-.587-.118-.154-.237-.3-.371-.453-.282-.365-.57-.767-.869-1.188A47.033,47.033,0,0,1,624.031,438.17Z" transform="translate(-624.031 -416.902)"/><path class="d" d="M629.188,447.995c3.211-3.906,9.348-7.717,20.656-10.218l-6.138,6.963-.369.417-4.8,5.442-1.007,1.15-2.482,2.8c-.165-.131-.34-.278-.525-.449-.092-.082-.194-.179-.288-.271s-.211-.184-.314-.278c-.106-.11-.209-.213-.329-.329h-.01v-.01a2.759,2.759,0,0,1-.323-.325,4.7,4.7,0,0,1-.36-.36c-.248-.257-.5-.525-.761-.816-.174-.185-.334-.37-.509-.566-.036-.036-.072-.081-.108-.12-.2-.228-.406-.476-.611-.742a.044.044,0,0,1-.01-.021h-.017v-.017c-.267-.333-.533-.682-.826-1.041C629.763,448.819,629.475,448.416,629.188,447.995Z" transform="translate(-624.031 -416.902)"/><path class="f" d="M627.732,459.681a13.289,13.289,0,0,1,.154-2.137,16.244,16.244,0,0,1,3-7.278v-.017a28.2,28.2,0,0,1,7.778-7.034c.215-.135.442-.278.678-.419a54.065,54.065,0,0,1,7.319-3.725,1.457,1.457,0,0,1,.164-.088c.051-.021.1-.042.145-.055.175-.068.338-.141.513-.213.5-.209,1.028-.421,1.563-.626.267-.107.533-.206.8-.312l-6.591,12.729L641,454.844l-.513,1-8.236,15.887A20.283,20.283,0,0,1,627.732,459.681Z" transform="translate(-624.031 -416.902)"/><path class="f" d="M666.106,437.777a61.684,61.684,0,0,1,10.516,5.019l.668.428c7.319,4.7,10.156,9.776,10.782,14.32a15.245,15.245,0,0,1,.154,2.137,20.318,20.318,0,0,1-4.532,12.042Z" transform="translate(-624.031 -416.902)"/><g transform="translate(47.4 24.959)"><path class="c" d="M680.9,451.534l-2.117-2.827.956,3.4Z" transform="translate(-671.431 -441.861)"/><path class="c" d="M673.547,444.688l-2.117-2.827.965,3.4Z" transform="translate(-671.431 -441.861)"/><path class="c" d="M684.763,468.383l-2.128-2.821.956,3.4Z" transform="translate(-671.431 -441.861)"/><path class="c" d="M681.956,462.456l-2.117-2.815.956,3.4Z" transform="translate(-671.431 -441.861)"/><path class="c" d="M679.161,456.536l-2.128-2.823.965,3.4Z" transform="translate(-671.431 -441.861)"/><path class="c" d="M676.353,450.609l-2.117-2.818.956,3.392Z" transform="translate(-671.431 -441.861)"/><path class="c" d="M676.622,442.8l.668.428,1.243,1.645-1.171.579Z" transform="translate(-671.431 -441.861)"/><path class="c" d="M686.5,463.382l-2.117-2.815.956,3.392Z" transform="translate(-671.431 -441.861)"/><path class="c" d="M683.694,457.462l-2.117-2.823.965,3.4Z" transform="translate(-671.431 -441.861)"/><path class="c" d="M687.158,456.335l.914,1.209a15.245,15.245,0,0,1,.154,2.137l-.1.052Z" transform="translate(-671.431 -441.861)"/><path class="c" d="M685.257,452.13l-2.119-2.816.958,3.393Z" transform="translate(-671.431 -441.861)"/></g><g transform="translate(3.701 24.959)"><path class="c" d="M635.057,451.534l2.122-2.827-.956,3.4Z" transform="translate(-627.732 -441.861)"/><path class="c" d="M642.4,444.688l2.118-2.827-.957,3.4Z" transform="translate(-627.732 -441.861)"/><path class="c" d="M631.19,468.383l2.124-2.821-.961,3.4Z" transform="translate(-627.732 -441.861)"/><path class="c" d="M633.992,462.456l2.128-2.815-.967,3.4Z" transform="translate(-627.732 -441.861)"/><path class="c" d="M636.8,456.536l2.119-2.823-.958,3.4Z" transform="translate(-627.732 -441.861)"/><path class="c" d="M639.6,450.609l2.119-2.818-.967,3.392Z" transform="translate(-627.732 -441.861)"/><path class="c" d="M639.6,444.119c-.236.143-1.953,1.685-1.953,1.685l1.163.581Z" transform="translate(-627.732 -441.861)"/><path class="c" d="M629.454,463.382l2.117-2.815-.961,3.392Z" transform="translate(-627.732 -441.861)"/><path class="c" d="M632.251,457.462l2.122-2.823-.956,3.4Z" transform="translate(-627.732 -441.861)"/><path class="c" d="M627.732,459.681a13.289,13.289,0,0,1,.154-2.137l.9-1.209-.961,3.392Z" transform="translate(-627.732 -441.861)"/><path class="c" d="M630.694,452.13l2.122-2.816-.956,3.393Z" transform="translate(-627.732 -441.861)"/></g><path class="c" d="M660.338,467.638l1.481-2.454c3.042,0,5.745,0,7.32.017A16.59,16.59,0,0,0,660.338,467.638Z" transform="translate(-624.031 -416.902)"/><path class="c" d="M647.325,465.15c1.582,0,4.061,0,6.815.021l1.552,2.458A16.993,16.993,0,0,0,647.325,465.15Z" transform="translate(-624.031 -416.902)"/><path class="c" d="M646.9,465.133a.9.9,0,0,1,.217.017C645.239,465.133,644.744,465.133,646.9,465.133Z" transform="translate(-624.031 -416.902)"/><g transform="translate(3.008 2.046)"><path class="c" d="M627.039,478.732a15.7,15.7,0,0,1,15.722-15.72c2.086,0,10.659,2.159,12.673,3.375h4.381c1.675-.986,9.427-3.4,11.616-3.4a14.847,14.847,0,0,1,1.17,29.649,15.086,15.086,0,0,1,.946,5.315,12.908,12.908,0,0,1-.163,2.185v.021a14.4,14.4,0,0,1-.545,2.488v.013a15.743,15.743,0,0,1-29.862.44,13.808,13.808,0,0,1-.649-2.578,14.173,14.173,0,0,1-.215-2.569,14.644,14.644,0,0,1,.4-3.509A15.72,15.72,0,0,1,627.039,478.732Z" transform="translate(-627.039 -418.948)"/><g transform="translate(6.763)"><path class="d" d="M668.522,424.889l3.535-1.049c.124.411.268.861.442,1.327,6.321,2.711,3.135,7.079,6.641,12.6.381-.43,7.257-10.957,8.45-18.564l.842-.257c1.81,7.936-10.2,21.235-10.2,21.235S672.87,426.911,668.522,424.889Z" transform="translate(-633.802 -418.948)"/><path class="d" d="M633.8,435.262l.9-.278.283-.076c.765,1.275,1.376,2.221,1.654,2.636a1.861,1.861,0,0,0,.175.233,12.763,12.763,0,0,0,1.624-3.907l2.6-.78c-1.941,3.649-3.329,7.093-3.329,7.093S635.915,438.17,633.8,435.262Z" transform="translate(-633.802 -418.948)"/></g><path class="d" d="M651.241,460.519l3.166-2.376a8.241,8.241,0,0,1,3.331-.72c.082,0,.164.021.236.021s.166-.021.227-.021a8.294,8.294,0,0,1,3.341.72l3.125,2.355-.977,1.624c-1.943-.969-4.7-2.374-5.489-2.374-.061,0-.145.017-.216.017h-.011c-.082,0-.154-.017-.236-.017-.72,0-3.208,1.641-5.161,2.926Z" transform="translate(-627.039 -418.948)"/><path class="e" d="M653.79,494.913a5.3,5.3,0,0,0,4.184-2.92,5.3,5.3,0,0,0,4.194,2.92c4.565-2.6,7.8-9.225,7.8-16.982a22.758,22.758,0,0,0-4.215-13.774.325.325,0,0,1-.042-.062l-.01-.011h0a11.644,11.644,0,0,0-4.625-3.679,8.551,8.551,0,0,0-3.094-.647v0h-.011v0a8.575,8.575,0,0,0-3.1.647,11.651,11.651,0,0,0-4.625,3.679h0c0,.011,0,.011-.01.011-.01.018-.021.041-.03.062a22.742,22.742,0,0,0-4.226,13.774C645.978,485.688,649.227,492.309,653.79,494.913Z" transform="translate(-627.039 -418.948)"/><path class="c" d="M649.575,496.215c-.009,1.944,8.481,10.289,8.481,10.289s8.275-8.6,8.275-10.264a5.068,5.068,0,0,0-5.067-5.083,4.912,4.912,0,0,0-2.61.724l-1.379,0a5.068,5.068,0,0,0-7.7,4.338Z" transform="translate(-627.039 -418.948)"/><g transform="translate(20.069 45.936)"><g transform="translate(14.824 11.989)"><path class="c" d="M666.959,478.976a1.1,1.1,0,0,0,.091-.417c0-.929-1.149-1.686-2.558-1.686s-2.56.757-2.56,1.686a1.118,1.118,0,0,0,.081.417Z" transform="translate(-661.932 -476.873)"/></g><g transform="translate(1.799 11.989)"><path class="c" d="M649,478.976a.945.945,0,0,1-.094-.417c0-.929,1.142-1.686,2.561-1.686s2.56.757,2.56,1.686a1.125,1.125,0,0,1-.093.417Z" transform="translate(-648.907 -476.873)"/></g><g transform="translate(7.196)"><path class="g" d="M654.645,466.395h6.67a4.168,4.168,0,0,0-3.33-1.507v0h-.011v0A4.166,4.166,0,0,0,654.645,466.395Z" transform="translate(-654.304 -464.884)"/><path class="c" d="M657.974,466.568c1.521,1.773,3.68-.472,3.68-.472H654.3S656.453,468.341,657.974,466.568Z" transform="translate(-654.304 -464.884)"/></g><path class="d" d="M657.974,476.14v.023l.011.038v-.061L659.906,470h-3.864Z" transform="translate(-647.108 -464.884)"/><path class="c" d="M654.3,482.639l-5.077-.27-.073-.006-.042-.042-2-2.2,2.221,1.986-.1-.046,5.077-.246Z" transform="translate(-647.108 -464.884)"/><path class="c" d="M661.212,481.814l5.079.246-.1.046,2.231-1.986-2.016,2.2-.04.042-.073.006-5.079.27Z" transform="translate(-647.108 -464.884)"/></g><g transform="translate(22.689 79.451)"><path class="d" d="M654.047,512.19a3.332,3.332,0,0,0-.071.9,4.056,4.056,0,0,0,4.1,3.859,4.206,4.206,0,0,0,4.256-3.939,3.947,3.947,0,0,0-.2-1.406,4.705,4.705,0,0,0,4.184-4.266,3.973,3.973,0,0,0-4.163-4.394,13.5,13.5,0,0,0-3.453,1.192l3.154-5.741-7.452.437,3.023,5.366a12.725,12.725,0,0,0-3.64-.89,4.333,4.333,0,0,0-4.049,4.745A4.418,4.418,0,0,0,654.047,512.19Z" transform="translate(-649.728 -498.399)"/><path class="h" d="M654.367,512.059a4.131,4.131,0,0,0-.1.891,3.994,3.994,0,0,0,7.988.03,4.154,4.154,0,0,0-.227-1.346,3.777,3.777,0,0,0-.278-7.542,11.66,11.66,0,0,0-2.95.851l2.581-4.369-6.24-.021,2.549,4.39a12.413,12.413,0,0,0-3.217-.872,3.994,3.994,0,0,0-.1,7.988Z" transform="translate(-649.728 -498.399)"/><path class="d" d="M658.243,504.243l-1.645-2.854,3.32.01Zm3.5.689a2.939,2.939,0,0,1,.205,5.87l-1.088.075.369,1.039a3.114,3.114,0,0,1,.185,1.064,3.164,3.164,0,0,1-3.175,3.139,3.158,3.158,0,0,1-3.147-3.165,3.885,3.885,0,0,1,.082-.724l.226-.986-1.016-.021a3.171,3.171,0,0,1-3.1-3.166,3.155,3.155,0,0,1,3.166-3.152,12.724,12.724,0,0,1,2.787.75l.39-.373,1.584.382A11.692,11.692,0,0,1,661.747,504.932Z" transform="translate(-649.728 -498.399)"/></g></g><path class="d" d="M654.458,494.8a4.849,4.849,0,0,1-.668.112A4.849,4.849,0,0,0,654.458,494.8Z" transform="translate(-624.031 -416.902)"/><path class="d" d="M656.268,493.984c-.03.014-.051.034-.082.051C656.217,494.018,656.238,494,656.268,493.984Z" transform="translate(-624.031 -416.902)"/><path class="d" d="M655.712,494.327c-.039.021-.091.038-.133.063C655.621,494.365,655.673,494.348,655.712,494.327Z" transform="translate(-624.031 -416.902)"/><path class="d" d="M655.107,494.6a2.158,2.158,0,0,1-.226.065A2.158,2.158,0,0,0,655.107,494.6Z" transform="translate(-624.031 -416.902)"/><path class="d" d="M629.176,448.008c.3.421.587.823.869,1.188.171.2.323.4.479.6.118.154.236.308.358.451v.021a16.244,16.244,0,0,0-3,7.278,13.289,13.289,0,0,0-.154,2.137,19.061,19.061,0,0,0,2.669,9.337,15.709,15.709,0,0,0,12.114,25.419,14.644,14.644,0,0,0-.4,3.509,14.173,14.173,0,0,0,.215,2.569,13.808,13.808,0,0,0,.649,2.578,15.7,15.7,0,0,0,11.009,10.066,4.061,4.061,0,0,0,4.091,3.794c.03,0,.051,0,.082,0V427.973l-.194.059-16.922,5.058h0l-2.6.78v.01h-.009a12.97,12.97,0,0,1-1.367,3.447c-.072.133-.145.274-.227.407-.011.016-.021.035-.03.035a.011.011,0,0,0-.012-.01c-.021-.03-.072-.1-.154-.215-.278-.415-.889-1.361-1.654-2.636l-.149.042-.134.03-.92.282-9.756,2.908A47.033,47.033,0,0,0,629.176,448.008Z" transform="translate(-624.031 -416.902)"/></g></g></g><g transform="translate(592.464 351.376)"><path class="c" d="M613.218,357.073a4.685,4.685,0,0,0,.1-.967,4.323,4.323,0,1,0-8.389,1.46,4.084,4.084,0,0,0,.329,8.155,12.371,12.371,0,0,0,3.193-.929l-2.772,4.75,6.75-.012-2.775-4.738a13.331,13.331,0,0,0,3.483.926,4.323,4.323,0,0,0,.078-8.645Z" transform="translate(-601.165 -351.789)"/><path class="d" d="M613.218,357.073a4.685,4.685,0,0,0,.1-.967A4.313,4.313,0,0,0,609,351.789h-.021v17.745l3.455,0-2.775-4.738a13.331,13.331,0,0,0,3.483.926,4.323,4.323,0,0,0,.078-8.645Z" transform="translate(-601.165 -351.789)"/></g><g transform="translate(716.464 472.235)"><path class="c" d="M715.046,486.442a4.448,4.448,0,0,0-.1.975,4.322,4.322,0,1,0,8.388-1.468,4.084,4.084,0,0,0-.328-8.155,12.307,12.307,0,0,0-3.2.937l2.775-4.75-6.753,0,2.775,4.746a13.317,13.317,0,0,0-3.484-.933,4.322,4.322,0,0,0-.072,8.644Z" transform="translate(-710.79 -473.981)"/><path class="d" d="M715.046,486.442a4.448,4.448,0,0,0-.1.975,4.3,4.3,0,0,0,4.317,4.31h.021V473.981l-3.454,0,2.775,4.746a13.317,13.317,0,0,0-3.484-.933,4.322,4.322,0,0,0-.072,8.644Z" transform="translate(-710.79 -473.981)"/></g></g></svg>