<svg xmlns="http://www.w3.org/2000/svg" width="154.5" height="215.537" viewBox="0 0 154.5 215.537"><defs><style>.a{fill:#c9c9c9;}.b{fill:#fff;stroke:#c4c4c4;}.c{fill:#333;}.d{fill:#616161;opacity:0.2;}</style></defs><g transform="translate(-585.207 -827.787)"><g transform="translate(585.207 828.28)"><path class="a" d="M602.231,1043.28a16.4,16.4,0,0,1-16.562-16.169l-.462-182.558a16.376,16.376,0,0,1,16.529-16.274l120.944.226a16.445,16.445,0,0,1,16.5,16.289v182.182a16.343,16.343,0,0,1-16.45,16.161Z" transform="translate(-585.207 -828.28)"/><path class="b" d="M603.747,1042.824a16.273,16.273,0,0,1-16.3-16.206V844.493a16.272,16.272,0,0,1,16.3-16.206H722.91a16.261,16.261,0,0,1,16.3,16.206v182.125a16.261,16.261,0,0,1-16.3,16.206Z" transform="translate(-585.207 -828.28)"/><g transform="translate(6.228 13.972)"><path class="c" d="M598.81,857.169c0,.281-.487.738-1.473,1.378a5.511,5.511,0,0,1-2.833,1.066,1.178,1.178,0,0,1-1.028-.594,1.628,1.628,0,0,1-.284-.807V845.838a.776.776,0,0,0-.106-.5.4.4,0,0,0-.341-.137,3.7,3.7,0,0,0-.56.091,1.635,1.635,0,0,1-.656.054.341.341,0,0,1-.094-.214c0-.175.191-.4.572-.639a11.331,11.331,0,0,0,1.185-.937c.336-.282.675-.571,1.025-.875a1.743,1.743,0,0,1,.9-.381,1.578,1.578,0,0,1,1.155.639,1.891,1.891,0,0,1,.562,1.219v13.1a.627.627,0,0,0,.139.145.471.471,0,0,0,.267.137c.123-.046.226-.084.3-.114a4.12,4.12,0,0,0,.786-.511h.408Z" transform="translate(-591.435 -842.252)"/><path class="c" d="M613.938,851.161a6.664,6.664,0,0,1-.571,2.718,9.121,9.121,0,0,1-3.187,3.693,20.648,20.648,0,0,1-1.859,1.2,6.566,6.566,0,0,1-3.275.792,5.391,5.391,0,0,1-4.5-2.376,8.7,8.7,0,0,1-.635-9.137,11.574,11.574,0,0,1,1.663-2.429,12.189,12.189,0,0,1,2.639-2.277,6.252,6.252,0,0,1,3.381-1.1,5.418,5.418,0,0,1,4.728,2.855A11.1,11.1,0,0,1,613.938,851.161Zm-3.615,2.6a12.109,12.109,0,0,0-.478-3.4,10.92,10.92,0,0,0-1.4-3.046,7.556,7.556,0,0,0-1.926-2.193,2.128,2.128,0,0,0-1.213-.457,2.52,2.52,0,0,0-2.175,1.28,5.073,5.073,0,0,0-.848,2.885,8.6,8.6,0,0,0,.191,1.874,14.458,14.458,0,0,0,1.073,3.053,8.08,8.08,0,0,0,2.02,2.932,2.992,2.992,0,0,0,1.851.753,2.54,2.54,0,0,0,2.143-.99A4.281,4.281,0,0,0,610.323,853.765Z" transform="translate(-591.435 -842.252)"/></g><g transform="translate(128.542 185.251)"><path class="c" d="M730.063,1018.168c0-.274.49-.747,1.472-1.371a5.479,5.479,0,0,1,2.834-1.081,1.169,1.169,0,0,1,1.021.6,1.584,1.584,0,0,1,.289.808v12.365a.85.85,0,0,0,.107.518.426.426,0,0,0,.344.129,3.283,3.283,0,0,0,.56-.1,1.718,1.718,0,0,1,.653-.046.363.363,0,0,1,.089.221c0,.167-.184.38-.575.632a11.5,11.5,0,0,0-1.178.936c-.329.282-.68.571-1.028.876a1.727,1.727,0,0,1-.9.381,1.529,1.529,0,0,1-1.15-.647,1.863,1.863,0,0,1-.561-1.2v-13.1c-.067-.084-.113-.137-.143-.145a.435.435,0,0,0-.263-.145,3.221,3.221,0,0,0-.308.115,4.338,4.338,0,0,0-.787.5h-.4Z" transform="translate(-714.934 -1015.716)"/><path class="c" d="M714.934,1024.168a6.715,6.715,0,0,1,.569-2.711,9,9,0,0,1,3.186-3.693c.859-.6,1.476-1,1.856-1.21a6.673,6.673,0,0,1,3.28-.785,5.355,5.355,0,0,1,4.5,2.383,8.5,8.5,0,0,1,1.644,5.209,8.594,8.594,0,0,1-1,3.921,11.819,11.819,0,0,1-1.666,2.429,12.385,12.385,0,0,1-2.636,2.277,6.3,6.3,0,0,1-3.383,1.1,5.433,5.433,0,0,1-4.734-2.863A11.159,11.159,0,0,1,714.934,1024.168Zm3.613-2.589a12.082,12.082,0,0,0,.478,3.381,11.043,11.043,0,0,0,1.4,3.061,7.832,7.832,0,0,0,1.927,2.193,2.169,2.169,0,0,0,1.214.449,2.548,2.548,0,0,0,2.174-1.272,5.09,5.09,0,0,0,.847-2.893,8.712,8.712,0,0,0-.19-1.881,14.539,14.539,0,0,0-1.074-3.038,8,8,0,0,0-2.019-2.931,2.957,2.957,0,0,0-1.856-.754,2.566,2.566,0,0,0-2.144.982A4.3,4.3,0,0,0,718.547,1021.579Z" transform="translate(-714.934 -1015.716)"/></g></g><g transform="translate(674.317 845.854)"><path class="c" d="M701.365,857.329a9.384,9.384,0,0,0-9.154-11.475,9.382,9.382,0,0,0-9.386,9.373,9.01,9.01,0,0,0,.566,3.175,8.865,8.865,0,0,0,.7,17.7,26.842,26.842,0,0,0,6.928-2.018l-6,10.3,14.642-.008-6.013-10.294a29,29,0,0,0,7.566,2.018,9.389,9.389,0,0,0,.155-18.777Z" transform="translate(-675.207 -845.854)"/><path class="d" d="M701.365,857.329a9.384,9.384,0,0,0-9.154-11.475c-.01,0-.027.007-.043.007V884.39l7.489-.008-6.013-10.294a29,29,0,0,0,7.566,2.018,9.389,9.389,0,0,0,.155-18.777Z" transform="translate(-675.207 -845.854)"/></g><g transform="translate(645.897 872.633)"><path class="c" d="M672.664,884.657a9.419,9.419,0,0,0-9.16-11.475,9.38,9.38,0,0,0-9.39,9.373,9.146,9.146,0,0,0,.567,3.168,8.873,8.873,0,0,0,.7,17.718,26.259,26.259,0,0,0,6.935-2.033l-6.013,10.31,14.648-.015-6.019-10.3a28.716,28.716,0,0,0,7.576,2.025,9.385,9.385,0,0,0,.154-18.769Z" transform="translate(-646.503 -873.182)"/><path class="d" d="M672.664,884.657a9.419,9.419,0,0,0-9.16-11.475h-.04v38.529l7.489-.008-6.019-10.3a28.716,28.716,0,0,0,7.576,2.025,9.385,9.385,0,0,0,.154-18.769Z" transform="translate(-646.503 -873.182)"/></g><g transform="translate(674.317 892.489)"><path class="c" d="M701.365,904.751a9.256,9.256,0,0,0,.236-2.094,9.388,9.388,0,0,0-18.776,0,9.005,9.005,0,0,0,.566,3.175,8.865,8.865,0,0,0,.7,17.7,26.8,26.8,0,0,0,6.928-2.018l-6,10.3,14.642-.015-6.013-10.294a29,29,0,0,0,7.566,2.017,9.389,9.389,0,0,0,.155-18.777Z" transform="translate(-675.207 -893.284)"/><path class="d" d="M701.365,904.751a9.256,9.256,0,0,0,.236-2.094,9.361,9.361,0,0,0-9.39-9.373h-.043V931.82l7.489-.015-6.013-10.294a29,29,0,0,0,7.566,2.017,9.389,9.389,0,0,0,.155-18.777Z" transform="translate(-675.207 -893.284)"/></g><g transform="translate(617.007 845.854)"><path class="c" d="M626.555,857.329a9.643,9.643,0,0,1-.23-2.1,9.387,9.387,0,0,1,18.775,0,9.121,9.121,0,0,1-.562,3.175,8.865,8.865,0,0,1-.7,17.7,26.835,26.835,0,0,1-6.927-2.018l6.008,10.3-14.649-.008,6.014-10.294a28.954,28.954,0,0,1-7.565,2.018,9.389,9.389,0,0,1-.16-18.777Z" transform="translate(-617.325 -845.854)"/><path class="d" d="M626.555,857.329a9.643,9.643,0,0,1-.23-2.1,9.365,9.365,0,0,1,9.389-9.373c.011,0,.02.007.035.007V884.39l-7.483-.008,6.014-10.294a28.954,28.954,0,0,1-7.565,2.018,9.389,9.389,0,0,1-.16-18.777Z" transform="translate(-617.325 -845.854)"/></g><g transform="translate(617.007 892.489)"><path class="c" d="M626.555,904.751a9.612,9.612,0,0,1-.23-2.094,9.387,9.387,0,0,1,18.775,0,9.117,9.117,0,0,1-.562,3.175,8.865,8.865,0,0,1-.7,17.7,26.794,26.794,0,0,1-6.927-2.018l6.008,10.3-14.649-.015,6.014-10.294a28.949,28.949,0,0,1-7.565,2.017,9.389,9.389,0,0,1-.16-18.777Z" transform="translate(-617.325 -893.284)"/><path class="d" d="M626.555,904.751a9.612,9.612,0,0,1-.23-2.094,9.361,9.361,0,0,1,9.389-9.373h.035V931.82l-7.483-.015,6.014-10.294a28.949,28.949,0,0,1-7.565,2.017,9.389,9.389,0,0,1-.16-18.777Z" transform="translate(-617.325 -893.284)"/></g><g transform="translate(674.317 986.721)"><path class="c" d="M701.365,1015.967a9.218,9.218,0,0,1,.236,2.094,9.388,9.388,0,0,1-18.776,0,8.977,8.977,0,0,1,.566-3.175,8.865,8.865,0,0,1,.7-17.7,26.54,26.54,0,0,1,6.928,2.026l-6-10.3h14.642l-6.013,10.3a28.669,28.669,0,0,1,7.566-2.01,9.385,9.385,0,0,1,.155,18.769Z" transform="translate(-675.207 -988.906)"/><path class="d" d="M701.365,1015.967a9.218,9.218,0,0,1,.236,2.094,9.372,9.372,0,0,1-9.39,9.374h-.043V988.906h7.489l-6.013,10.3a28.669,28.669,0,0,1,7.566-2.01,9.385,9.385,0,0,1,.155,18.769Z" transform="translate(-675.207 -988.906)"/></g><g transform="translate(645.897 959.94)"><path class="c" d="M672.664,988.639a9.133,9.133,0,0,1,.227,2.1,9.389,9.389,0,0,1-18.777,0,9.187,9.187,0,0,1,.567-3.176,8.869,8.869,0,0,1,.7-17.711,26.562,26.562,0,0,1,6.935,2.033L656.3,961.57l14.648.015-6.019,10.3a29.026,29.026,0,0,1,7.576-2.025,9.389,9.389,0,0,1,.154,18.777Z" transform="translate(-646.503 -961.57)"/><path class="d" d="M672.664,988.639a9.133,9.133,0,0,1,.227,2.1,9.371,9.371,0,0,1-9.387,9.373h-.04V961.577l7.489.008-6.019,10.3a29.026,29.026,0,0,1,7.576-2.025,9.389,9.389,0,0,1,.154,18.777Z" transform="translate(-646.503 -961.57)"/></g><g transform="translate(674.317 940.092)"><path class="c" d="M701.365,968.537a9.211,9.211,0,0,1,.236,2.094,9.388,9.388,0,0,1-18.776,0,9.01,9.01,0,0,1,.566-3.175,8.865,8.865,0,0,1,.7-17.7,26.5,26.5,0,0,1,6.928,2.026l-6-10.3,14.642.007-6.013,10.3a28.672,28.672,0,0,1,7.566-2.011,9.386,9.386,0,0,1,.155,18.77Z" transform="translate(-675.207 -941.476)"/><path class="d" d="M701.365,968.537a9.211,9.211,0,0,1,.236,2.094,9.365,9.365,0,0,1-9.39,9.373h-.043V941.483h7.489l-6.013,10.3a28.672,28.672,0,0,1,7.566-2.011,9.386,9.386,0,0,1,.155,18.77Z" transform="translate(-675.207 -941.476)"/></g><g transform="translate(617.007 986.721)"><path class="c" d="M626.555,1015.967a9.571,9.571,0,0,0-.23,2.094,9.387,9.387,0,0,0,18.775,0,9.089,9.089,0,0,0-.562-3.175,8.865,8.865,0,0,0-.7-17.7,26.533,26.533,0,0,0-6.927,2.026l6.008-10.3H628.266l6.014,10.3a28.622,28.622,0,0,0-7.565-2.01,9.385,9.385,0,0,0-.16,18.769Z" transform="translate(-617.325 -988.906)"/><path class="d" d="M626.555,1015.967a9.571,9.571,0,0,0-.23,2.094,9.372,9.372,0,0,0,9.389,9.374h.035V988.906h-7.483l6.014,10.3a28.622,28.622,0,0,0-7.565-2.01,9.385,9.385,0,0,0-.16,18.769Z" transform="translate(-617.325 -988.906)"/></g><g transform="translate(617.007 940.092)"><path class="c" d="M626.555,968.537a9.564,9.564,0,0,0-.23,2.094,9.387,9.387,0,0,0,18.775,0,9.122,9.122,0,0,0-.562-3.175,8.865,8.865,0,0,0-.7-17.7,26.493,26.493,0,0,0-6.927,2.026l6.008-10.3-14.649.007,6.014,10.3a28.624,28.624,0,0,0-7.565-2.011,9.386,9.386,0,0,0-.16,18.77Z" transform="translate(-617.325 -941.476)"/><path class="d" d="M626.555,968.537a9.564,9.564,0,0,0-.23,2.094A9.365,9.365,0,0,0,635.714,980h.035V941.483h-7.483l6.014,10.3a28.624,28.624,0,0,0-7.565-2.011,9.386,9.386,0,0,0-.16,18.77Z" transform="translate(-617.325 -941.476)"/></g><g transform="translate(596.159 867.398)"><path class="c" d="M602.132,870.441a2.141,2.141,0,1,0-4.226-.488,2.041,2.041,0,0,1-1.747,2.749,2.032,2.032,0,0,0,2.031,2.026,6.382,6.382,0,0,0,1.581-.465l-1.372,2.353h3.343l-1.373-2.353a6.519,6.519,0,0,0,1.736.465,2.144,2.144,0,0,0,.027-4.287Z" transform="translate(-596.159 -867.813)"/><path class="d" d="M602.132,870.441a2.145,2.145,0,0,0-2.089-2.628h-.009v8.8h1.708l-1.373-2.353a6.519,6.519,0,0,0,1.736.465,2.144,2.144,0,0,0,.027-4.287Z" transform="translate(-596.159 -867.813)"/></g><g transform="translate(722.979 1000.105)"><path class="c" d="M730.126,1008.1a1.972,1.972,0,0,1,.061.48,2.143,2.143,0,0,1-4.287,0,1.957,1.957,0,0,1,.13-.715,2.029,2.029,0,0,1,.16-4.051,6.016,6.016,0,0,1,1.578.464l-1.369-2.353h3.337l-1.368,2.361a6.474,6.474,0,0,1,1.732-.465,2.14,2.14,0,0,1,.026,4.279Z" transform="translate(-724.164 -1001.926)"/><path class="d" d="M730.126,1008.1a1.972,1.972,0,0,1,.061.48,2.139,2.139,0,0,1-2.147,2.14h-.011v-8.795h1.707l-1.368,2.361a6.474,6.474,0,0,1,1.732-.465,2.14,2.14,0,0,1,.026,4.279Z" transform="translate(-724.164 -1001.926)"/></g></g></svg>