<svg xmlns="http://www.w3.org/2000/svg" width="154" height="215" viewBox="0 0 154 215"><defs><style>.a{fill:#c9c9c9;}.b{fill:#fff;}.c{fill:#333;}.d{fill:#616161;opacity:0.2;}.e,.f{stroke:none;}.f{fill:#c4c4c4;}</style></defs><g transform="translate(-1535.687 -831.424)"><g transform="translate(1535.687 831.424)"><path class="a" d="M1552.6,1046.424a16.242,16.242,0,0,1-16.445-16.167l-.468-182.571a16.2,16.2,0,0,1,16.425-16.262l120.932.214a16.613,16.613,0,0,1,16.619,16.294v182.175a16.5,16.5,0,0,1-16.555,16.167Z" transform="translate(-1535.687 -831.424)"/><g class="b" transform="translate(-1535.687 -831.424)"><path class="e" d="M 1673.272705078125 1045.48193359375 L 1554.029052734375 1045.48193359375 C 1551.877685546875 1045.48193359375 1549.791748046875 1045.058471679688 1547.829345703125 1044.223388671875 C 1545.933349609375 1043.41650390625 1544.237182617188 1042.263793945313 1542.788208007813 1040.797241210938 C 1539.860229492188 1037.833862304688 1538.275146484375 1033.924194335938 1538.324951171875 1029.78857421875 L 1538.324951171875 1029.78564453125 L 1538.324951171875 1029.782592773438 L 1538.324951171875 847.6400146484375 L 1538.324951171875 847.6370239257813 L 1538.324951171875 847.634033203125 C 1538.275146484375 843.4893188476563 1539.86181640625 839.5731201171875 1542.792724609375 836.6068115234375 C 1544.241333007813 835.1406860351563 1545.936889648438 833.98828125 1547.832275390625 833.1818237304688 C 1549.793701171875 832.3472290039063 1551.878540039063 831.924072265625 1554.029052734375 831.924072265625 L 1673.272705078125 831.924072265625 C 1677.48583984375 831.924072265625 1681.45947265625 833.56103515625 1684.461791992188 836.533447265625 C 1687.458129882813 839.4998168945313 1689.13623046875 843.4454956054688 1689.187255859375 847.643798828125 L 1689.187255859375 1029.782592773438 C 1689.13623046875 1033.97021484375 1687.458129882813 1037.910888671875 1684.4619140625 1040.875 C 1681.458862304688 1043.845825195313 1677.485107421875 1045.48193359375 1673.272705078125 1045.48193359375 Z"/><path class="f" d="M 1673.272705078125 1044.98193359375 C 1677.352661132813 1044.98193359375 1681.201416015625 1043.397094726563 1684.1103515625 1040.51953125 C 1687.011352539063 1037.649536132813 1688.63671875 1033.834716796875 1688.687255859375 1029.782592773438 L 1688.687255859375 847.6453247070313 C 1688.63671875 843.5808715820313 1687.011352539063 839.7610473632813 1684.110107421875 836.8887329101563 C 1681.202026367188 834.0096435546875 1677.353149414063 832.424072265625 1673.272705078125 832.424072265625 L 1554.029052734375 832.424072265625 C 1551.946166992188 832.424072265625 1549.927124023438 832.8338012695313 1548.028076171875 833.6419067382813 C 1546.19287109375 834.4227905273438 1544.551025390625 835.53857421875 1543.148315429688 836.958251953125 C 1540.312133789063 839.8287353515625 1538.776733398438 843.6179809570313 1538.824829101563 847.6280517578125 L 1538.824951171875 847.634033203125 L 1538.824951171875 847.6400146484375 L 1538.824951171875 1029.782592773438 L 1538.824951171875 1029.78857421875 L 1538.824829101563 1029.794555664063 C 1538.776733398438 1033.795532226563 1540.310668945313 1037.578247070313 1543.143920898438 1040.44580078125 C 1544.546997070313 1041.865844726563 1546.189208984375 1042.982055664063 1548.025146484375 1043.763305664063 C 1549.92529296875 1044.571899414063 1551.9453125 1044.98193359375 1554.029052734375 1044.98193359375 L 1673.272705078125 1044.98193359375 M 1673.272705078125 1045.98193359375 L 1554.029052734375 1045.98193359375 C 1545.034912109375 1045.98193359375 1537.717529296875 1038.7109375 1537.824951171875 1029.782592773438 L 1537.824951171875 847.6400146484375 C 1537.717529296875 838.6961059570313 1545.034912109375 831.424072265625 1554.029052734375 831.424072265625 L 1673.272705078125 831.424072265625 C 1682.269775390625 831.424072265625 1689.579833984375 838.6961059570313 1689.687255859375 847.6400146484375 L 1689.687255859375 1029.782592773438 C 1689.579833984375 1038.7109375 1682.269775390625 1045.98193359375 1673.272705078125 1045.98193359375 Z"/></g><g transform="translate(7.201 13.325)"><path class="c" d="M1555.951,851.861a1.308,1.308,0,0,1-.274.785c-.229.274-.373.457-.434.548a14.5,14.5,0,0,1-1.786,2.307c-.377.244-.754.487-1.115.724a.874.874,0,0,0-.187.571,2.172,2.172,0,0,1,.061.426,6.172,6.172,0,0,0,.091,1.089c.061.312.149.48.252.48a.674.674,0,0,0,.4-.168,5.042,5.042,0,0,1,.861-.632,1.28,1.28,0,0,1,.163.365c0,.229-.411.724-1.248,1.523a4.268,4.268,0,0,1-2.738,1.394c-.6,0-.986-.8-1.149-2.383a9.707,9.707,0,0,0-.457-2.643h-5.277a1.354,1.354,0,0,1-.19-.121.908.908,0,0,1-.039-.358,5.546,5.546,0,0,1,1.048-1.95c.632-.921,1.606-2.193,2.942-3.807.4-.495.819-1.012,1.249-1.523.267-.312.636-.723,1.108-1.211s.971-1.058,1.508-1.69c.472-.556.845-.838,1.111-.838l.3.069v7.988a1.344,1.344,0,0,0,.56.182,1.905,1.905,0,0,1,.247-.015,2.6,2.6,0,0,0,1.66-.6c.358-.328.727-.655,1.112-.983a1.671,1.671,0,0,1,.167.107A.745.745,0,0,1,1555.951,851.861Zm-7.394.815v-1.142a8.26,8.26,0,0,0-.076-1.013,11.429,11.429,0,0,0-1.268,1.4c-.163.213-.388.51-.677.907l.178.091h1.52Z" transform="translate(-1542.888 -844.749)"/></g><g transform="translate(136.631 186.644)"><path class="c" d="M1666,1019.157a1.363,1.363,0,0,1,.274-.791c.232-.267.377-.449.438-.533a13.769,13.769,0,0,1,1.789-2.315c.385-.236.754-.48,1.12-.723a.944.944,0,0,0,.179-.572,3.571,3.571,0,0,1-.065-.418,6.419,6.419,0,0,0-.088-1.089c-.057-.328-.145-.48-.247-.48a.684.684,0,0,0-.407.152,4.391,4.391,0,0,1-.865.64,1.867,1.867,0,0,1-.16-.366c0-.22.419-.731,1.249-1.515a4.215,4.215,0,0,1,2.737-1.4c.606,0,.987.792,1.154,2.391a9.86,9.86,0,0,0,.453,2.635h5.277a.756.756,0,0,1,.19.129.868.868,0,0,1,.035.35,5.473,5.473,0,0,1-1.04,1.942c-.64.929-1.61,2.2-2.943,3.815-.411.495-.822,1.005-1.245,1.515-.274.328-.643.731-1.1,1.218-.48.488-.978,1.059-1.523,1.691q-.7.844-1.107.845l-.3-.076v-7.987a1.289,1.289,0,0,0-.56-.176c-.122.008-.206.015-.247.015a2.6,2.6,0,0,0-1.66.587c-.358.335-.728.662-1.1,1a.985.985,0,0,1-.171-.122C1666.025,1019.5,1666,1019.371,1666,1019.157Zm7.4-.814v1.135a10.242,10.242,0,0,0,.073,1.027,11.749,11.749,0,0,0,1.264-1.416c.167-.206.392-.51.681-.9l-.179-.092h-1.519Z" transform="translate(-1666.002 -1009.746)"/></g></g><g transform="translate(1626.824 851.641)"><path class="c" d="M1646.033,862.148a8.232,8.232,0,0,0,.221-1.918,8.595,8.595,0,0,0-17.189,0,8.142,8.142,0,0,0,.517,2.893,8.122,8.122,0,0,0,.64,16.219,24.424,24.424,0,0,0,6.347-1.851l-5.5,9.427,13.405-.007-5.505-9.427a26.165,26.165,0,0,0,6.937,1.843,8.59,8.59,0,0,0,.129-17.179Z" transform="translate(-1622.09 -851.641)"/><path class="d" d="M1646.033,862.148a8.232,8.232,0,0,0,.221-1.918,8.582,8.582,0,0,0-8.593-8.589.379.379,0,0,0-.038.007v35.27l6.849-.007-5.505-9.427a26.165,26.165,0,0,0,6.937,1.843,8.59,8.59,0,0,0,.129-17.179Z" transform="translate(-1622.09 -851.641)"/></g><g transform="translate(1626.824 990.915)"><path class="c" d="M1646.033,1007.37a8.216,8.216,0,0,1,.221,1.927,8.595,8.595,0,0,1-17.189,0,8.259,8.259,0,0,1,.517-2.909,8.118,8.118,0,0,1,.64-16.211,24.424,24.424,0,0,1,6.347,1.851l-5.5-9.435,13.405.015-5.505,9.427a26.49,26.49,0,0,1,6.937-1.85,8.593,8.593,0,0,1,.129,17.185Z" transform="translate(-1622.09 -982.593)"/><path class="d" d="M1646.033,1007.37a8.216,8.216,0,0,1,.221,1.927,8.57,8.57,0,0,1-8.593,8.574h-.038V982.6l6.849.007-5.505,9.427a26.49,26.49,0,0,1,6.937-1.85,8.593,8.593,0,0,1,.129,17.185Z" transform="translate(-1622.09 -982.593)"/></g><g transform="translate(1568.463 851.641)"><path class="c" d="M1575.208,862.148a9.4,9.4,0,0,1-.21-1.918,8.595,8.595,0,0,1,17.19,0,8.229,8.229,0,0,1-.51,2.893,8.122,8.122,0,0,1-.648,16.219,24.343,24.343,0,0,1-6.342-1.851l5.5,9.427-13.413-.007,5.506-9.427a26.111,26.111,0,0,1-6.922,1.843,8.59,8.59,0,0,1-.152-17.179Z" transform="translate(-1566.76 -851.641)"/><path class="d" d="M1575.208,862.148a9.4,9.4,0,0,1-.21-1.918,8.583,8.583,0,0,1,8.6-8.589c.015,0,.023.007.038.007v35.27l-6.857-.007,5.506-9.427a26.111,26.111,0,0,1-6.922,1.843,8.59,8.59,0,0,1-.152-17.179Z" transform="translate(-1566.76 -851.641)"/></g><g transform="translate(1568.463 990.915)"><path class="c" d="M1575.208,1007.37a9.369,9.369,0,0,0-.21,1.927,8.595,8.595,0,0,0,17.19,0,8.347,8.347,0,0,0-.51-2.909,8.118,8.118,0,0,0-.648-16.211,24.343,24.343,0,0,0-6.342,1.851l5.5-9.435-13.413.015,5.506,9.427a26.437,26.437,0,0,0-6.922-1.85,8.593,8.593,0,0,0-.152,17.185Z" transform="translate(-1566.76 -982.593)"/><path class="d" d="M1575.208,1007.37a9.369,9.369,0,0,0-.21,1.927,8.571,8.571,0,0,0,8.6,8.574h.038V982.6l-6.857.007,5.506,9.427a26.437,26.437,0,0,0-6.922-1.85,8.593,8.593,0,0,0-.152,17.185Z" transform="translate(-1566.76 -982.593)"/></g><g transform="translate(1545.851 869.83)"><path class="c" d="M1551.318,870.684a2.149,2.149,0,0,0,.049-.441,1.961,1.961,0,0,0-3.922,0,1.934,1.934,0,0,0,.119.669,1.853,1.853,0,0,0,.144,3.7,5.545,5.545,0,0,0,1.447-.426l-1.256,2.155h3.065l-1.257-2.155a5.939,5.939,0,0,0,1.584.426,1.965,1.965,0,0,0,.027-3.929Z" transform="translate(-1545.851 -868.286)"/><path class="d" d="M1551.318,870.684a2.149,2.149,0,0,0,.049-.441,1.958,1.958,0,0,0-1.964-1.957h-.008v8.056h1.569l-1.257-2.155a5.939,5.939,0,0,0,1.584.426,1.965,1.965,0,0,0,.027-3.929Z" transform="translate(-1545.851 -868.286)"/></g><g transform="translate(1674.895 1001.945)"><path class="c" d="M1674.043,1000.738a2.151,2.151,0,0,1,.049.442,1.963,1.963,0,0,1-3.925,0,1.891,1.891,0,0,1,.118-.662,1.853,1.853,0,0,1,.149-3.7,5.9,5.9,0,0,1,1.442.411l-1.252-2.14h3.061l-1.253,2.148a6.178,6.178,0,0,1,1.58-.419,1.961,1.961,0,0,1,.031,3.921Z" transform="translate(-1668.579 -995.088)"/><path class="d" d="M1674.043,1000.738a2.151,2.151,0,0,1,.049.442,1.948,1.948,0,0,1-1.96,1.949h-.012v-8.041h1.565l-1.253,2.148a6.178,6.178,0,0,1,1.58-.419,1.961,1.961,0,0,1,.031,3.921Z" transform="translate(-1668.579 -995.088)"/></g></g></svg>