<svg xmlns="http://www.w3.org/2000/svg" xmlns:xlink="http://www.w3.org/1999/xlink" width="2319" height="768" viewBox="0 0 2319 768"><defs><style>.a{fill:#fff;stroke:#707070;}.b{fill:none;}.c{clip-path:url(#a);}.d{clip-path:url(#b);}.e{fill:url(#c);}.f{fill:url(#d);}.g{fill:url(#e);}.h{fill:url(#f);}.i{fill:url(#g);}.j,.l{opacity:0.7;}.j{fill:url(#h);}.k{opacity:0.6;fill:url(#i);}.l{fill:#7b9e2c;}.m{fill:#2c959e;opacity:0.5;}</style><clipPath id="a"><rect class="b" width="2319" height="768"/></clipPath><clipPath id="b"><rect class="a" width="2319" height="768" transform="translate(207 1172)"/></clipPath><linearGradient id="c" x1="1.024" y1="0.242" x2="-0.091" y2="-0.197" gradientUnits="objectBoundingBox"><stop offset="0" stop-color="#001d25" stop-opacity="0.376"/><stop offset="1" stop-color="#4b195f"/></linearGradient><linearGradient id="d" x1="0.08" y1="0.835" x2="0.691" y2="0.354" gradientUnits="objectBoundingBox"><stop offset="0" stop-color="#f38200" stop-opacity="0.698"/><stop offset="1" stop-color="#00223a" stop-opacity="0"/></linearGradient><linearGradient id="e" x1="0.845" y1="0.748" x2="0.022" y2="0.354" gradientUnits="objectBoundingBox"><stop offset="0" stop-color="#001d25" stop-opacity="0"/><stop offset="1" stop-color="#21434a"/></linearGradient><linearGradient id="f" x1="0.982" y1="0.283" x2="0.307" y2="0.815" gradientUnits="objectBoundingBox"><stop offset="0" stop-color="#357867" stop-opacity="0.314"/><stop offset="0.522" stop-color="#005a72" stop-opacity="0.302"/><stop offset="1" stop-color="#00223a"/></linearGradient><linearGradient id="g" x1="0.493" y1="0.1" x2="0.503" y2="0.819" gradientUnits="objectBoundingBox"><stop offset="0" stop-color="#004a78" stop-opacity="0.341"/><stop offset="0.437" stop-color="#450e5a" stop-opacity="0.4"/><stop offset="1" stop-color="#00223a" stop-opacity="0.4"/></linearGradient><linearGradient id="h" y1="0.5" x2="1" y2="0.5" gradientUnits="objectBoundingBox"><stop offset="0" stop-color="#e3007f"/><stop offset="0.997" stop-color="#ee92ba"/></linearGradient><linearGradient id="i" y1="0.5" x2="1" y2="0.5" gradientUnits="objectBoundingBox"><stop offset="0" stop-color="#f7b52c"/><stop offset="1" stop-color="#dadf00"/></linearGradient></defs><g class="c"><g class="d" transform="translate(-207 -1172)"><path class="e" d="M510.926,467.9c5.381,39.629,24.761,120.25,46.686,178.741,13.414,35.789,75.849,94.554,126.746,108.683,72.115,20.018,151.714-78.985,163.713-93.909,74.993-93.275,118.474-256.535,50.032-340.371-60.367-73.944-163.43-31.744-215.9-117.393-35.543-58.022-9.217-111.628-48.027-135.319C591.8,42.46,484.126,61.515,453.424,85.638c-42.9,33.71-74.357,137.113-42.239,217.3C436.605,366.411,490.962,366.689,510.926,467.9Z" transform="translate(2403.037 460.876) rotate(79)"/><g transform="translate(291 1003.187)"><path class="f" d="M-63.56,89.13C5.217,237.189,66.166,273.153,111.016,276.054c45.936,2.969,85.154-28.088,156.07-10.976,43.034,10.385,58.471,29.034,80.951,37.266,123.12,45.093,383.937-249.149,340.312-342.6C660.412-100.1,9.039-69.4-63.56,89.13Z" transform="translate(63.56 68.695)"/></g><path class="g" d="M97.13-24.4c-.852,164.236,41.174,222.556,81.009,244.828,69.788,39.022,156.965-19.1,248.43,41.4,43.784,28.967,39.667,52.78,70.207,66.607C616.868,382.819,917.325,121.809,878.42,9.808,853.326-62.433,676.027-104.411,97.13-24.4Z" transform="translate(786.572 1023.775)"/><path class="h" d="M862.367,350.366c-23.267-17.355-61.759-40.278-106.8-36.347-69.125,6.034-87.758,69.555-164.472,101.529-80.824,33.685-101.552-19.57-203.242-1.2C251.574,438.958,248.391,541.9,108.411,559.015c-51.173,6.258-81.368-3.754-133.978,18.89C-76.576,599.861-110.406,636.052-131,663.171L799,788.975S912.4,640.847,928.244,531.2,862.367,350.366,862.367,350.366Z" transform="translate(1477.662 1332.53) rotate(9)"/><path class="i" d="M-39.431,363.345c21.62-11.813,56.793-26.652,94.776-19.024,58.29,11.706,67.614,65.157,129.694,98.688,65.407,35.327,88.57-5.907,173.34,19.024,113.6,33.411,105.689,117.372,223.222,145.06,42.966,10.122,69.735,4.958,112.234,28.536,36.921,20.484,45.765,28.115,45.765,54.2s-165.793,57.647-165.793,57.647-185.684,31.11-413.78-7.516S-135.31,651.453-137.492,560.791-39.431,363.345-39.431,363.345Z" transform="matrix(0.966, -0.259, 0.259, 0.966, 526.89, 1431.244)"/><circle class="j" cx="10" cy="10" r="10" transform="translate(604.046 1359.145)"/><circle class="k" cx="17.5" cy="17.5" r="17.5" transform="translate(273.577 1621.272)"/><circle class="l" cx="11.5" cy="11.5" r="11.5" transform="translate(2392.694 1367.835)"/><circle class="m" cx="6" cy="6" r="6" transform="translate(1477.694 1439.835)"/><circle class="m" cx="12.5" cy="12.5" r="12.5" transform="translate(1035.694 1740.835)"/></g></g></svg>