<svg xmlns="http://www.w3.org/2000/svg" xmlns:xlink="http://www.w3.org/1999/xlink" width="262.252" height="241.93" viewBox="0 0 262.252 241.93"><defs><style>.a,.k{fill:none;}.b{clip-path:url(#a);}.c{fill:#516ea0;}.d{fill:#d1ff00;}.e{fill:#49dbcb;}.f{fill:#51d5cc;}.g{fill:#97e6e0;}.h{fill:#9dbd00;}.i{fill:#d8e599;}.j{fill:#231815;}.k{stroke:#ff0;stroke-miterlimit:10;stroke-width:8px;}.l{fill:url(#b);}.m,.n{fill:#ff0;font-family:Lobster-Regular, Lobster;}.m{font-size:47.67px;}.n{font-size:48px;}</style><clipPath id="a"><rect class="a" width="262.252" height="241.93"/></clipPath><radialGradient id="b" cx="84.719" cy="82.492" r="89.056" gradientTransform="matrix(0.794, -0.485, 0.485, 0.794, -22.595, 58.069)" gradientUnits="userSpaceOnUse"><stop offset="0" stop-color="#fff" stop-opacity="0"/><stop offset="1" stop-color="#7edbff" stop-opacity="0.2"/></radialGradient></defs><g class="b"><path class="c" d="M50.82,187.65c-.07.22-.13.44-.19.66-4.66,18,20.81,40.15,56.89,49.49,33.86,8.77,65,3.14,72.59-12.45-17.23,2.48-38.15-12.69-60.69-18.41C91.21,199.78,64.33,200.41,50.82,187.65Z" transform="translate(-0.012 -0.011)"/><circle class="d" cx="14.85" cy="14.85" r="14.85" transform="translate(96.438 203.669)"/><circle class="d" cx="14.85" cy="14.85" r="14.85" transform="translate(161.588 209.499)"/><circle class="d" cx="14.85" cy="14.85" r="14.85" transform="translate(35.118 176.749)"/><path class="e" d="M122.69,124.86a32.12,32.12,0,0,0,9.22-19,31.06,31.06,0,0,0-1.63-13.55h0l2.17-1.63a63.25,63.25,0,0,1,3.25,15.18c.67,7.61,1.4,15.94-3.25,19C131.51,125.47,128.61,127,122.69,124.86Z" transform="translate(-0.012 -0.011)"/><path class="e" d="M100.56,116.15a32.12,32.12,0,0,1-9.22-19A31.11,31.11,0,0,1,93,83.62h0L90.8,82a63.25,63.25,0,0,0-3.25,15.18c-.67,7.61-1.4,15.94,3.25,19C91.73,116.76,94.64,118.3,100.56,116.15Z" transform="translate(-0.012 -0.011)"/><path class="f" d="M28.27,164.11C34,151.32,88.8,153.66,124.5,162c43.1,10.12,87.27,35.69,86,50.08-1.11,12.64-50.27,20.28-98.2,8.1C62.78,207.64,22.4,177.31,28.27,164.11Z" transform="translate(-0.012 -0.011)"/><path class="g" d="M59.2,171.41c4.25-9.55,45.2-7.8,71.86-1.54,32.19,7.55,65.18,26.65,64.23,37.39-.84,9.44-37.55,15.15-73.34,6.06C85,203.92,54.81,181.27,59.2,171.41Z" transform="translate(-0.012 -0.011)"/><path class="c" d="M78.4,175.82c2.58-5.8,27.46-4.74,43.66-.94,19.56,4.59,39.6,16.19,39,22.72-.5,5.74-22.81,9.21-44.56,3.68C94.06,195.57,75.73,181.81,78.4,175.82Z" transform="translate(-0.012 -0.011)"/><path class="h" d="M85.08,114.47c-15.76,10.33-13.46,15.44-13.86,19C70.06,144,74.23,158,83.1,165.93c13.45,12.12,35.73,11.12,50.28.8,9.47-6.73,21.17-21.31,17-36.82-5.22-19.53-36.82-23.75-44.74-23.75C103.69,106.16,96.56,107,85.08,114.47Z" transform="translate(-0.012 -0.011)"/><circle class="h" cx="5.11" cy="5.11" r="5.11" transform="translate(125.428 84.769)"/><circle class="h" cx="5.11" cy="5.11" r="5.11" transform="translate(87.578 76.059)"/><path class="i" d="M117.28,161.4a55.63,55.63,0,0,1-17.56.47c-7.53-1.29-14.64-12.49-14.64-20.94v-6c0-8.45,6.23-15.36,13.84-15.36H123.1c7.61,0,13.84,6.91,13.84,15.36v6C136.94,149.38,124.79,160,117.28,161.4Z" transform="translate(-0.012 -0.011)"/><path d="M103.33,150c1-2.33,5.85-2.38,8.86-1.77,3.53.72,6.56,2.89,6.86,4s-1.85,1.82-2.11,1.84c-2.22.18-3.33-1.85-5.4-2.36-3.89-1-6.67,2-8,.64a2.35,2.35,0,0,1-.21-2.35Z" transform="translate(-0.012 -0.011)"/><path class="h" d="M104.48,108.14a6.42,6.42,0,0,0,1.18-4.76,6.31,6.31,0,0,0-2.37-3.95,6.36,6.36,0,0,1,4.35,2.37,5.34,5.34,0,0,1,.8,1.58,2.13,2.13,0,0,0,1.58-2,2.17,2.17,0,0,0-.79-1.59,3.9,3.9,0,0,1,2.37,2.38,3.48,3.48,0,0,1,0,2,2.28,2.28,0,0,0,2.38-1.59,2,2,0,0,0-.4-1.58,4.9,4.9,0,0,1,1.59,7.13Z" transform="translate(-0.012 -0.011)"/><path class="h" d="M145.39,172.7h-.1a19.8,19.8,0,0,1-5.45,6c-8.62,6.23-18.8,2.76-19.79,2.41l.39-3.17c1.09.5,7,1.67,14.25-1.21,5-2,7.17-4.46,8.19-6.24a3.1,3.1,0,0,1-.07-.62,2.7,2.7,0,0,1,2.57-2.81,2.45,2.45,0,0,1,1.9.93h.07a2.91,2.91,0,0,1,.63,1.82,2.7,2.7,0,0,1-2.59,2.89Z" transform="translate(-0.012 -0.011)"/><path class="h" d="M108.92,180.84c-.69.79-7.89,8.79-18.45,7.54a19.55,19.55,0,0,1-7.7-2.61l-.08.06a2.71,2.71,0,0,1-3.62-1.2,2.93,2.93,0,0,1-.33-1.9h0A2.46,2.46,0,0,1,80,180.92a2.7,2.7,0,0,1,3.61,1.2,3.461,3.461,0,0,1,.24.57c1.76,1.06,4.87,2.16,10.19,1.46,7.71-1,12.32-4.92,13-5.89Z" transform="translate(-0.012 -0.011)"/><path class="j" d="M121.73,131.82a18,18,0,0,0-5.07,4.82c-.94,1.31,1.23,2.56,2.16,1.26A15,15,0,0,1,123,134c1.35-.86.1-3-1.26-2.15Z" transform="translate(-0.012 -0.011)"/><path class="j" d="M115.8,133l6.73,6c1.21,1.07,3-.7,1.77-1.77l-6.74-6C116.36,130.17,114.56,131.93,115.8,133Z" transform="translate(-0.012 -0.011)"/><path class="j" d="M102.79,132.77a14.58,14.58,0,0,0-5.27,3.33,1.252,1.252,0,0,0,1.77,1.77,11.7,11.7,0,0,1,4.16-2.69c1.5-.55.85-3-.66-2.41Z" transform="translate(-0.012 -0.011)"/><path class="j" d="M97.12,133a65.252,65.252,0,0,1,5,5.39c1,1.24,2.79-.53,1.77-1.77a65.242,65.242,0,0,0-5-5.39c-1.15-1.12-2.92.65-1.76,1.77Z" transform="translate(-0.012 -0.011)"/><path class="h" d="M99.07,195a96.143,96.143,0,0,0,17.45,6.31,92.321,92.321,0,0,0,15.39,2.51l-11.6-35.48-13.85.4Z" transform="translate(-0.012 -0.011)"/><path class="k" d="M184.91,139.41l17.49-17.37,4.76,17.19,28.97,5.18L211.4,158.52l23.21,21.38-34.32-4.65" transform="translate(-0.012 -0.011)"/><path class="l" d="M159.13,124c-23.53,21.22-39.51,32.85-75.72,43.17-28.45,8.1-45.07,5.2-46.3,3.2L11.72,128.81A80.58,80.58,0,0,1,38.39,18.36l10.87-6.64A80.59,80.59,0,0,1,159.72,38.39L185.11,80C186.33,82,184.66,101,159.13,124Z" transform="translate(-0.012 -0.011)"/><text class="m" transform="translate(102.631 61.124) rotate(-8.08)"><tspan x="0" y="0">B</tspan></text><text class="m" transform="matrix(0.998, 0.067, -0.067, 0.998, 131.245, 57.372)"><tspan x="0" y="0">o</tspan></text><text class="m" transform="matrix(0.97, 0.24, -0.24, 0.97, 151.703, 60.494)"><tspan x="0" y="0">o</tspan></text><text class="m" transform="matrix(0.914, 0.405, -0.405, 0.914, 169.715, 63.082)"><tspan x="0" y="0">o</tspan></text><text class="n" transform="translate(187.608 70.879) rotate(34.007)"><tspan x="0" y="0">o</tspan></text><text class="m" transform="matrix(0.696, 0.718, -0.718, 0.696, 204.116, 80.974)"><tspan x="0" y="0">m</tspan></text></g></svg>