<svg xmlns="http://www.w3.org/2000/svg" width="192.74" height="192.74" viewBox="0 0 192.74 192.74"><defs><style>.a{fill:#bbd36d;}.b{fill:#acc83d;}.c{fill:#7b9e2c;}</style></defs><g transform="translate(30.32 31.36)"><circle class="a" cx="45.06" cy="45.06" r="45.06" transform="translate(20.99 19.95)"/><circle class="a" cx="51.37" cy="51.37" r="51.37" transform="translate(14.68 13.64)"/><path class="b" d="M62.68,62.4l-23,19.29a4.17,4.17,0,1,1-5.36-6.38L62.44,51.72a4.162,4.162,0,1,0-5.37-6.36L45,55.47h0L33.74,64.94a4.17,4.17,0,1,1-5.36-6.38L56.2,35.22h0a4.161,4.161,0,0,0-5.39-6.34L28.58,47.52a4.14,4.14,0,0,1-4.32.62,45.06,45.06,0,0,1,61.39-23.7,4.14,4.14,0,0,0,5.24,3A45.05,45.05,0,0,1,97.74,33l-1.81,1.5a4.17,4.17,0,0,0,5.35,6.39l1.81-1.52a45.08,45.08,0,0,1-19.77,67.27,4.13,4.13,0,0,1-.54-6.75l7.38-6.18a4.17,4.17,0,0,0-5.35-6.39L65.28,103.71a4.17,4.17,0,0,1-5.36-6.38l22-18.43a4.165,4.165,0,1,0-5.39-6.35L56,89.79a4.18,4.18,0,0,1-5.87-.52h0a4.18,4.18,0,0,1,.52-5.87L68,68.78a4.17,4.17,0,1,0-5.36-6.38Z"/><path class="c" d="M62,63l7.58-6.36a4.162,4.162,0,1,0-5.31-6.41l-6.23,5.22a4.163,4.163,0,1,1-5.36-6.37h0l3.59-3a4.163,4.163,0,0,0-5.36-6.37L48.23,42a4.17,4.17,0,0,1-5.36-6.38l18.35-15.4A45.06,45.06,0,0,1,101,93.49a4.14,4.14,0,0,0-6.82-3L89.63,94.3a4.163,4.163,0,1,1-5.35-6.38l12.3-10.4-1.31,1.1a4.161,4.161,0,0,0-5.33-6.39l-6.3,5.28a4.163,4.163,0,1,1-5.35-6.38l8.06-6.76A4.17,4.17,0,0,0,81,58L67.37,69.42a4.16,4.16,0,0,1-5.87-.52h0A4.16,4.16,0,0,1,62,63Z"/></g></svg>