<svg xmlns="http://www.w3.org/2000/svg" xmlns:xlink="http://www.w3.org/1999/xlink" width="238.78" height="238.78" viewBox="0 0 238.78 238.78"><defs><style>.a{fill:url(#a);}.b{fill:url(#b);}.c{fill:#ffa5d7;}.d{fill:#dd5fa5;}.e{fill:#e3007f;}</style><linearGradient id="a" x1="-10.947" y1="-8.296" x2="-10.226" y2="-8.296" gradientUnits="objectBoundingBox"><stop offset="0" stop-color="#e3007f"/><stop offset="1" stop-color="#ed86b3"/></linearGradient><radialGradient id="b" cx="45.739" cy="45.684" r="44.372" gradientTransform="matrix(-0.94, 0.34, 0.34, 0.94, 73.213, -12.834)" xlink:href="#a"/></defs><g transform="translate(58.76 60.04)"><circle class="a" cx="44.39" cy="44.39" r="44.39" transform="translate(16.24 14.96)"/><g transform="translate(13.17 13.17)"><path class="b" d="M44.39,0A44.39,44.39,0,1,1,0,44.39,44.39,44.39,0,0,1,44.39,0Z" transform="translate(3.07 1.79)"/></g><circle class="c" cx="35.75" cy="35.75" r="35.75" transform="translate(24.88 23.6)"/><path class="d" d="M58.83,56.49,36.46,64.64a3.311,3.311,0,0,1-2.27-6.22l27.36-10a3.3,3.3,0,1,0-2.28-6.2L47.55,46.53h0l-11,4a3.3,3.3,0,1,1-2.26-6.21l27.07-9.85h.05a3.3,3.3,0,1,0-2.3-6.19L37.45,36.15a3.29,3.29,0,0,1-3.39-.71,35.75,35.75,0,0,1,52.2-1,3.25,3.25,0,0,0,.17,1.47,3.3,3.3,0,0,0,2.93,2.17,36.361,36.361,0,0,1,3.59,6l-1.76.64a3.31,3.31,0,0,0,2.25,6.22l1.77-.65a35.74,35.74,0,0,1-33,44.79,3.27,3.27,0,0,1,1.43-5.17l7.18-2.61a3.3,3.3,0,1,0-2.25-6.21L49.56,88a3.3,3.3,0,1,1-2.26-6.21L68.67,74a3.3,3.3,0,0,0-2.29-6.2l-20,7.28a3.3,3.3,0,0,1-4.23-2h0a3.31,3.31,0,0,1,2-4.24l17-6.17a3.31,3.31,0,0,0-2.27-6.21Z"/><path class="e" d="M58.16,56.79l7.37-2.69a3.3,3.3,0,1,0-2.22-6.22l-6.05,2.21A3.31,3.31,0,0,1,55,43.88h0l3.49-1.27a3.3,3.3,0,1,0-2.26-6.2l-2.63,1a3.3,3.3,0,1,1-2.26-6.21l17.85-6.5a35.75,35.75,0,0,1,9.74,65.42,3.27,3.27,0,0,0,0-2.14,3.31,3.31,0,0,0-4.24-2l-4.42,1.61A3.325,3.325,0,0,1,68,81.34L80,77l-1.27.46a3.31,3.31,0,0,0-2.24-6.22l-6.13,2.24a3.3,3.3,0,0,1-2.26-6.21l7.84-2.86a3.3,3.3,0,0,0-2.25-6.21L60.42,63a3.3,3.3,0,0,1-4.23-2h0a3.3,3.3,0,0,1,1.97-4.21Z"/></g></svg>