<svg xmlns="http://www.w3.org/2000/svg" width="200.408" height="200.408" viewBox="0 0 200.408 200.408"><defs><style>.a{fill:#63c5f1;}.b{fill:#38bee7;}.c{fill:#2e7694;}</style></defs><g transform="translate(40.224 40.204)"><g transform="translate(17.505 17.505)"><circle class="a" cx="41.535" cy="41.535" r="41.535" transform="translate(0.94 0.96)"/></g><circle class="b" cx="41.5" cy="41.5" r="41.5" transform="translate(18.48 18.5)"/><path class="c" d="M91.76,33.33a41.49,41.49,0,0,1-28.22,68,6,6,0,0,1,2.05-5.74L87.74,77a6.072,6.072,0,0,0-7.81-9.3l-3.2,2.68a6.072,6.072,0,0,1-7.81-9.3l9.33-7.82A6.07,6.07,0,0,0,70.44,44L60.07,52.7a6.08,6.08,0,0,1-8.56-.75h0a6.07,6.07,0,0,1,.75-8.55l6.61-5.55a6.072,6.072,0,0,0-7.81-9.3L35.88,41.26a6.05,6.05,0,0,1-10-5,41.5,41.5,0,0,1,65.83-3Z"/></g></svg>