<svg xmlns="http://www.w3.org/2000/svg" width="154" height="215" viewBox="0 0 154 215"><defs><style>.a{fill:#c9c9c9;}.b{fill:#fff;}.c{fill:#d66142;}.d{fill:#616161;opacity:0.2;}.e{fill:#be6148;}.f,.g{stroke:none;}.g{fill:#c4c4c4;}</style></defs><g transform="translate(-10.789 -831.18)"><g transform="translate(10.789 831.18)"><path class="a" d="M27.814,1046.18a16.389,16.389,0,0,1-16.558-16.169l-.467-182.562A16.369,16.369,0,0,1,27.317,831.18l120.933.223a16.45,16.45,0,0,1,16.514,16.283v182.179a16.352,16.352,0,0,1-16.45,16.176Z" transform="translate(-10.789 -831.18)"/></g><g class="b"><path class="f" d="M 148.4808807373047 1045.230834960938 L 29.300048828125 1045.230834960938 C 20.58346557617188 1045.230834960938 13.49199295043945 1038.1845703125 13.49199295043945 1029.523559570313 L 13.49199295043945 847.3953247070313 C 13.49199295043945 838.7342529296875 20.58346557617188 831.68798828125 29.300048828125 831.68798828125 L 148.4808807373047 831.68798828125 C 157.1974639892578 831.68798828125 164.2889404296875 838.7342529296875 164.2889404296875 847.3953247070313 L 164.2889404296875 1029.523559570313 C 164.2889404296875 1038.1845703125 157.1974639892578 1045.230834960938 148.4808807373047 1045.230834960938 Z"/><path class="g" d="M 148.4808807373047 1044.730834960938 C 156.9217681884766 1044.730834960938 163.7889404296875 1037.908935546875 163.7889404296875 1029.523559570313 L 163.7889404296875 847.3953247070313 C 163.7889404296875 839.0099487304688 156.9217681884766 832.18798828125 148.4808807373047 832.18798828125 L 29.300048828125 832.18798828125 C 20.85915946960449 832.18798828125 13.99199295043945 839.0099487304688 13.99199295043945 847.3953247070313 L 13.99199295043945 1029.523559570313 C 13.99199295043945 1037.908935546875 20.85915946960449 1044.730834960938 29.300048828125 1044.730834960938 L 148.4808807373047 1044.730834960938 M 148.4808807373047 1045.730834960938 L 29.300048828125 1045.730834960938 C 20.31349182128906 1045.730834960938 12.99199295043945 1038.457641601563 12.99199295043945 1029.523559570313 L 12.99199295043945 847.3953247070313 C 12.99199295043945 838.453125 20.31349182128906 831.18798828125 29.300048828125 831.18798828125 L 148.4808807373047 831.18798828125 C 157.4805145263672 831.18798828125 164.7889404296875 838.453125 164.7889404296875 847.3953247070313 L 164.7889404296875 1029.523559570313 C 164.7889404296875 1038.457641601563 157.4805145263672 1045.730834960938 148.4808807373047 1045.730834960938 Z"/></g><g transform="translate(101.884 846.554)"><path class="c" d="M116.938,846.554l15.95,20.125-15.95,20.148L101,866.679Z" transform="translate(-100.995 -846.554)"/><path class="d" d="M117.046,846.691l-.108-.137L101,866.679l15.943,20.148.108-.145Z" transform="translate(-100.995 -846.554)"/></g><g transform="translate(72.024 872.994)"><path class="c" d="M87.373,872.717l15.944,20.117-15.944,20.14-15.946-20.14Z" transform="translate(-71.427 -872.717)"/><path class="d" d="M87.474,872.847l-.1-.129L71.427,892.835l15.946,20.14.1-.129Z" transform="translate(-71.427 -872.717)"/></g><g transform="translate(73.887 965.535)"><path class="c" d="M89.221,964.646l-15.95,20.14,15.95,20.133,15.946-20.133Z" transform="translate(-73.271 -964.646)"/><path class="d" d="M89.12,964.783l.1-.137,15.946,20.14-15.946,20.133-.1-.129Z" transform="translate(-73.271 -964.646)"/></g><g transform="translate(101.884 894.433)"><path class="c" d="M116.938,894.015l15.95,20.125-15.95,20.148L101,914.14Z" transform="translate(-100.995 -894.015)"/><path class="d" d="M117.046,894.144l-.108-.129L101,914.14l15.943,20.148.108-.137Z" transform="translate(-100.995 -894.015)"/></g><g transform="translate(44.029 942.21)"><path class="c" d="M59.651,941.476,43.7,961.6l15.946,20.147L75.6,961.6Z" transform="translate(-43.704 -941.476)"/><path class="d" d="M59.544,941.612l.106-.137L75.6,961.6,59.651,981.748l-.106-.129Z" transform="translate(-43.704 -941.476)"/></g><g transform="translate(44.029 990.092)"><path class="c" d="M59.651,988.936,43.7,1009.061l15.946,20.14,15.951-20.14Z" transform="translate(-43.704 -988.936)"/><path class="d" d="M59.544,989.065l.106-.129L75.6,1009.061,59.651,1029.2l-.106-.129Z" transform="translate(-43.704 -988.936)"/></g><g transform="translate(44.029 846.554)"><path class="c" d="M59.657,846.554,75.6,866.679,59.657,886.827,43.7,866.679Z" transform="translate(-43.704 -846.554)"/><path class="d" d="M59.759,846.691l-.1-.137L43.7,866.679l15.952,20.148.1-.145Z" transform="translate(-43.704 -846.554)"/></g><g transform="translate(44.029 894.433)"><path class="c" d="M59.657,894.015,75.6,914.14,59.657,934.287,43.7,914.14Z" transform="translate(-43.704 -894.015)"/><path class="d" d="M59.759,894.144l-.1-.129L43.7,914.14l15.952,20.148.1-.137Z" transform="translate(-43.704 -894.015)"/></g><g transform="translate(101.884 942.21)"><path class="c" d="M116.938,941.476,101,961.6l15.943,20.147,15.95-20.147Z" transform="translate(-100.995 -941.476)"/><path class="d" d="M116.835,941.612l.1-.137,15.95,20.125-15.95,20.147-.1-.129Z" transform="translate(-100.995 -941.476)"/></g><g transform="translate(101.884 990.092)"><path class="c" d="M116.938,988.936,101,1009.061l15.943,20.14,15.95-20.14Z" transform="translate(-100.995 -988.936)"/><path class="d" d="M116.835,989.065l.1-.129,15.95,20.125-15.95,20.14-.1-.129Z" transform="translate(-100.995 -988.936)"/></g><g transform="translate(21.048 868.207)"><path class="c" d="M25.687,879.715l-4.639-5.863L25.687,868l4.647,5.856Z" transform="translate(-21.048 -867.996)"/><path class="d" d="M25.687,868l-.034.038v11.635l.034.046,4.647-5.863Z" transform="translate(-21.048 -867.996)"/></g><g transform="translate(16.919 844.925)"><path class="e" d="M24.187,859.621c0,.274-.487.723-1.46,1.355a5.374,5.374,0,0,1-2.779,1.051,1.143,1.143,0,0,1-1.015-.587,1.47,1.47,0,0,1-.276-.792V848.465a.831.831,0,0,0-.107-.5.422.422,0,0,0-.338-.122,2.841,2.841,0,0,0-.553.091,1.521,1.521,0,0,1-.647.038.388.388,0,0,1-.093-.2c0-.168.192-.381.562-.64a12.034,12.034,0,0,0,1.176-.906c.327-.282.664-.571,1.007-.868a1.666,1.666,0,0,1,.891-.373,1.558,1.558,0,0,1,1.132.632,1.876,1.876,0,0,1,.553,1.188v12.914a.747.747,0,0,0,.136.144.532.532,0,0,0,.265.138c.116-.054.219-.084.3-.122a4.564,4.564,0,0,0,.773-.488h.4Z" transform="translate(-16.919 -844.925)"/><path class="e" d="M39.079,853.712a6.532,6.532,0,0,1-.564,2.665,8.85,8.85,0,0,1-3.137,3.632,18.907,18.907,0,0,1-1.831,1.2,6.549,6.549,0,0,1-3.227.777,5.3,5.3,0,0,1-4.428-2.338,8.377,8.377,0,0,1-1.616-5.132,8.467,8.467,0,0,1,.986-3.868,11.925,11.925,0,0,1,1.637-2.391,12.345,12.345,0,0,1,2.6-2.239,6.206,6.206,0,0,1,3.329-1.088,5.357,5.357,0,0,1,4.656,2.809A11.02,11.02,0,0,1,39.079,853.712Zm-3.558,2.558a12.133,12.133,0,0,0-.472-3.342,10.574,10.574,0,0,0-1.384-3,7.51,7.51,0,0,0-1.9-2.162,2.106,2.106,0,0,0-1.192-.449,2.489,2.489,0,0,0-2.145,1.256,5.019,5.019,0,0,0-.832,2.848,8.492,8.492,0,0,0,.19,1.85,14.282,14.282,0,0,0,1.053,3,7.961,7.961,0,0,0,1.991,2.878,2.851,2.851,0,0,0,1.822.747,2.507,2.507,0,0,0,2.107-.975A4.227,4.227,0,0,0,35.521,856.27Z" transform="translate(-16.919 -844.925)"/></g><g transform="translate(139.713 1016.895)"><path class="e" d="M153.42,1018.152c0-.281.482-.738,1.449-1.355a5.265,5.265,0,0,1,2.785-1.058,1.143,1.143,0,0,1,1.009.578,1.527,1.527,0,0,1,.284.8V1029.3a.853.853,0,0,0,.106.5.42.42,0,0,0,.339.129,4.324,4.324,0,0,0,.552-.1,1.522,1.522,0,0,1,.64-.046.343.343,0,0,1,.093.214c0,.159-.185.38-.565.639a10.773,10.773,0,0,0-1.165.9c-.33.289-.665.578-1.015.875a1.631,1.631,0,0,1-.887.373,1.512,1.512,0,0,1-1.131-.632,1.865,1.865,0,0,1-.552-1.2v-12.907a.566.566,0,0,0-.145-.144.523.523,0,0,0-.249-.137c-.129.053-.232.091-.308.122a4.391,4.391,0,0,0-.771.487h-.4Z" transform="translate(-138.521 -1015.739)"/><path class="e" d="M138.521,1024.054a6.629,6.629,0,0,1,.558-2.673,9,9,0,0,1,3.142-3.632,19.758,19.758,0,0,1,1.83-1.2,6.619,6.619,0,0,1,3.228-.77,5.283,5.283,0,0,1,4.425,2.346,8.343,8.343,0,0,1,1.619,5.124,8.5,8.5,0,0,1-.986,3.868,11.53,11.53,0,0,1-1.642,2.383,12.634,12.634,0,0,1-2.593,2.247,6.144,6.144,0,0,1-3.332,1.081,5.346,5.346,0,0,1-4.656-2.81A10.961,10.961,0,0,1,138.521,1024.054Zm3.558-2.551a11.908,11.908,0,0,0,.472,3.335,10.664,10.664,0,0,0,1.38,3,7.629,7.629,0,0,0,1.9,2.163,2.086,2.086,0,0,0,1.193.441,2.489,2.489,0,0,0,2.142-1.248,5.028,5.028,0,0,0,.832-2.856,8.7,8.7,0,0,0-.189-1.85,14.179,14.179,0,0,0-1.054-2.985,7.805,7.805,0,0,0-2-2.886,2.848,2.848,0,0,0-1.82-.746,2.5,2.5,0,0,0-2.105.967A4.217,4.217,0,0,0,142.079,1021.5Z" transform="translate(-138.521 -1015.739)"/></g><g transform="translate(148.45 998.997)"><path class="c" d="M151.9,998.043l4.643,5.863-4.643,5.856-4.639-5.856Z" transform="translate(-147.258 -998.043)"/><path class="d" d="M151.935,998.073l-.038-.03-4.639,5.863,4.639,5.856.038-.038Z" transform="translate(-147.258 -998.043)"/></g></g></svg>