<svg xmlns="http://www.w3.org/2000/svg" width="154" height="215" viewBox="0 0 154 215"><defs><style>.a{fill:#c9c9c9;}.b{fill:#fff;}.c{fill:#be6148;}.d{fill:#d66142;}.e{fill:#616161;opacity:0.2;}.f,.g{stroke:none;}.g{fill:#c4c4c4;}</style></defs><g transform="translate(-957.511 -1086.278)"><g transform="translate(957.511 1086.278)"><path class="a" d="M974.543,1301.278a16.4,16.4,0,0,1-16.552-16.176l-.48-182.556a16.377,16.377,0,0,1,16.537-16.268l120.927.223a16.438,16.438,0,0,1,16.5,16.29v182.165a16.339,16.339,0,0,1-16.448,16.175Z" transform="translate(-957.511 -1086.278)"/></g><g class="b"><path class="f" d="M 1095.203002929688 1300.320922851563 L 976.031005859375 1300.320922851563 C 967.3150024414063 1300.320922851563 960.2239990234375 1293.275024414063 960.2239990234375 1284.6142578125 L 960.2239990234375 1102.49267578125 C 960.2239990234375 1093.83203125 967.3150024414063 1086.786010742188 976.031005859375 1086.786010742188 L 1095.203002929688 1086.786010742188 C 1103.919555664063 1086.786010742188 1111.010986328125 1093.83203125 1111.010986328125 1102.49267578125 L 1111.010986328125 1284.6142578125 C 1111.010986328125 1293.275024414063 1103.919555664063 1300.320922851563 1095.203002929688 1300.320922851563 Z"/><path class="g" d="M 1095.203002929688 1299.820922851563 C 1103.643798828125 1299.820922851563 1110.510986328125 1292.999267578125 1110.510986328125 1284.6142578125 L 1110.510986328125 1102.49267578125 C 1110.510986328125 1094.107666015625 1103.643798828125 1087.286010742188 1095.203002929688 1087.286010742188 L 976.031005859375 1087.286010742188 C 967.5906982421875 1087.286010742188 960.7239990234375 1094.107666015625 960.7239990234375 1102.49267578125 L 960.7239990234375 1284.6142578125 C 960.7239990234375 1292.999267578125 967.5906982421875 1299.820922851563 976.031005859375 1299.820922851563 L 1095.203002929688 1299.820922851563 M 1095.203002929688 1300.820922851563 L 976.031005859375 1300.820922851563 C 967.0369262695313 1300.820922851563 959.7239990234375 1293.55517578125 959.7239990234375 1284.6142578125 L 959.7239990234375 1102.49267578125 C 959.7239990234375 1093.55078125 967.0369262695313 1086.286010742188 976.031005859375 1086.286010742188 L 1095.203002929688 1086.286010742188 C 1104.193969726563 1086.286010742188 1111.510986328125 1093.55078125 1111.510986328125 1102.49267578125 L 1111.510986328125 1284.6142578125 C 1111.510986328125 1293.55517578125 1104.193969726563 1300.820922851563 1095.203002929688 1300.820922851563 Z"/></g><g transform="translate(1086.429 1272.03)"><path class="c" d="M1085.247,1279.083a4.663,4.663,0,0,1,.472-1.949,11.817,11.817,0,0,1,2.456-3.252,17.884,17.884,0,0,1,2.345-2.063,5.027,5.027,0,0,1,2.855-.937,4.673,4.673,0,0,1,2.232.533,1.918,1.918,0,0,1,1.119,1.691,5.439,5.439,0,0,1-1.417,2.512c-.947,1.2-1.625,1.8-2.025,1.8-.339,0-.514-.122-.514-.381a3.365,3.365,0,0,1,.811-1.4,1.339,1.339,0,0,0,.381-.724,2.274,2.274,0,0,0-.442-.632,2.8,2.8,0,0,0-1.922-.639,3.07,3.07,0,0,0-1.9.655,2.574,2.574,0,0,0-1.028,2.139,3.029,3.029,0,0,0,.533,1.751,2.99,2.99,0,0,0,1.081.945,4.424,4.424,0,0,0,1.816.441c.628.008.948.153.948.419a7.518,7.518,0,0,1-1.172,1.645,26.393,26.393,0,0,0-1.759,2.459.757.757,0,0,0,.422.259h3.586a2.244,2.244,0,0,0,.937-.563,2.248,2.248,0,0,1,.956-.571c.319,0,.472.122.472.358,0,.121-.183.395-.545.814s-.894.983-1.583,1.668a20.07,20.07,0,0,1-1.477,1.4,1.75,1.75,0,0,1-.956.472h-5.974a.492.492,0,0,1-.1-.114.518.518,0,0,1-.042-.282c0-.449.544-1.211,1.614-2.277s1.626-1.789,1.626-2.193c0-.1-.435-.3-1.3-.616a4.611,4.611,0,0,1-1.469-.861,3.306,3.306,0,0,1-.75-1.081A3.541,3.541,0,0,1,1085.247,1279.083Z" transform="translate(-1077.247 -1270.882)"/></g><g transform="translate(966.426 1122.906)"><path class="d" d="M981.383,1135.209l-4.957-6.259,4.957-6.251,4.953,6.251Z" transform="translate(-976.426 -1122.698)"/><path class="e" d="M981.383,1122.7l-.042.053v12.4l.042.053,4.953-6.259Z" transform="translate(-976.426 -1122.698)"/></g><g transform="translate(966.117 1100.023)"><path class="c" d="M987.6,1108.878a4.484,4.484,0,0,1-.472,1.942,11.816,11.816,0,0,1-2.456,3.251,17.637,17.637,0,0,1-2.345,2.064,5,5,0,0,1-2.856.936,4.581,4.581,0,0,1-2.223-.533,1.907,1.907,0,0,1-1.131-1.69,5.5,5.5,0,0,1,1.421-2.513c.944-1.195,1.625-1.8,2.025-1.8.35,0,.514.13.514.381a3.177,3.177,0,0,1-.811,1.393,1.355,1.355,0,0,0-.381.731,2.032,2.032,0,0,0,.45.632,2.713,2.713,0,0,0,1.915.632,3.018,3.018,0,0,0,1.9-.647,2.559,2.559,0,0,0,1.028-2.132,3.021,3.021,0,0,0-.533-1.766,2.874,2.874,0,0,0-1.081-.929,4.33,4.33,0,0,0-1.82-.45c-.624-.015-.944-.152-.944-.419a7.413,7.413,0,0,1,1.173-1.637,26.945,26.945,0,0,0,1.755-2.467.745.745,0,0,0-.419-.259h-3.59a2.3,2.3,0,0,0-.933.572,2.19,2.19,0,0,1-.956.555c-.319,0-.476-.114-.476-.35,0-.122.187-.4.556-.822s.9-.975,1.573-1.66c.784-.777,1.275-1.249,1.481-1.4a1.813,1.813,0,0,1,.967-.472H986.9c.038.045.073.083.1.122a.669.669,0,0,1,.031.274c0,.457-.537,1.21-1.615,2.276s-1.614,1.79-1.614,2.193c0,.1.423.305,1.283.617a4.583,4.583,0,0,1,1.481.868,3.337,3.337,0,0,1,1.028,2.505Z" transform="translate(-976.117 -1100.023)"/></g><g transform="translate(1095.693 1253.702)"><path class="d" d="M1091.464,1252.752l4.953,6.251-4.953,6.244-4.953-6.244Z" transform="translate(-1086.511 -1252.752)"/><path class="e" d="M1091.495,1252.791l-.03-.038-4.953,6.251,4.953,6.244.03-.038Z" transform="translate(-1086.511 -1252.752)"/></g><g transform="translate(1019.68 1102.604)"><path class="d" d="M1035.019,1102.6l-15.941,20.133,15.941,20.14,15.956-20.14Z" transform="translate(-1019.078 -1102.604)"/><path class="e" d="M1034.916,1102.733l.1-.129,15.956,20.133-15.956,20.14-.1-.137Z" transform="translate(-1019.078 -1102.604)"/></g><g transform="translate(1019.68 1174.37)"><path class="d" d="M1035.019,1173.791l-15.941,20.133,15.941,20.14,15.956-20.14Z" transform="translate(-1019.078 -1173.791)"/><path class="e" d="M1034.916,1173.928l.1-.137,15.956,20.133-15.956,20.14-.1-.129Z" transform="translate(-1019.078 -1173.791)"/></g><g transform="translate(1019.68 1246.126)"><path class="d" d="M1035.03,1244.978l15.945,20.14-15.945,20.14-15.952-20.14Z" transform="translate(-1019.078 -1244.978)"/><path class="e" d="M1035.133,1245.115l-.1-.137-15.952,20.14,15.952,20.14.1-.137Z" transform="translate(-1019.078 -1244.978)"/></g></g></svg>