<svg xmlns="http://www.w3.org/2000/svg" width="154" height="215" viewBox="0 0 154 215"><defs><style>.a{fill:#c9c9c9;}.b{fill:#fff;}.c{fill:#d66142;}.d{fill:#616161;opacity:0.2;}.e{fill:#be6148;}.f,.g{stroke:none;}.g{fill:#c4c4c4;}</style></defs><g transform="translate(-10.785 -1345.603)"><g transform="translate(10.785 1345.603)"><path class="a" d="M27.809,1560.6a16.385,16.385,0,0,1-16.554-16.16l-.471-182.573A16.381,16.381,0,0,1,27.317,1345.6l120.93.229a16.436,16.436,0,0,1,16.507,16.283V1544.3a16.343,16.343,0,0,1-16.448,16.16Z" transform="translate(-10.785 -1345.603)"/></g><g class="b" transform="translate(0 0)"><path class="f" d="M 148.4843597412109 1559.654174804688 L 29.30160713195801 1559.654174804688 C 20.5880241394043 1559.654174804688 13.49899578094482 1552.608154296875 13.49899578094482 1543.947265625 L 13.49899578094482 1361.808959960938 C 13.49899578094482 1353.152587890625 20.5880241394043 1346.110107421875 29.30160713195801 1346.110107421875 L 148.4843597412109 1346.110107421875 C 157.1968231201172 1346.110107421875 164.2849426269531 1353.152587890625 164.2849426269531 1361.808959960938 L 164.2849426269531 1543.947265625 C 164.2849426269531 1552.608154296875 157.1968231201172 1559.654174804688 148.4843597412109 1559.654174804688 Z"/><path class="g" d="M 148.4843597412109 1559.154174804688 C 156.9211273193359 1559.154174804688 163.7849426269531 1552.332397460938 163.7849426269531 1543.947265625 L 163.7849426269531 1361.808959960938 C 163.7849426269531 1353.428344726563 156.9211273193359 1346.610107421875 148.4843597412109 1346.610107421875 L 29.30160713195801 1346.610107421875 C 20.86371803283691 1346.610107421875 13.99899578094482 1353.428344726563 13.99899578094482 1361.808959960938 L 13.99899578094482 1543.947265625 C 13.99899578094482 1552.332397460938 20.86371803283691 1559.154174804688 29.30160713195801 1559.154174804688 L 148.4843597412109 1559.154174804688 M 148.4843597412109 1560.154174804688 L 29.30160713195801 1560.154174804688 C 20.30921745300293 1560.154174804688 12.99899578094482 1552.881103515625 12.99899578094482 1543.947265625 L 12.99899578094482 1361.808959960938 C 12.99899578094482 1352.883056640625 20.30921745300293 1345.610107421875 29.30160713195801 1345.610107421875 L 148.4843597412109 1345.610107421875 C 157.4676971435547 1345.610107421875 164.7849426269531 1352.883056640625 164.7849426269531 1361.808959960938 L 164.7849426269531 1543.947265625 C 164.7849426269531 1552.881103515625 157.4676971435547 1560.154174804688 148.4843597412109 1560.154174804688 Z"/></g><g transform="translate(101.883 1360.984)"><path class="c" d="M116.943,1360.984l15.945,20.125-15.945,20.141L101,1381.108Z" transform="translate(-100.997 -1360.984)"/><path class="d" d="M117.044,1361.121l-.1-.137L101,1381.108l15.946,20.141.1-.137Z" transform="translate(-100.997 -1360.984)"/></g><g transform="translate(101.883 1408.861)"><path class="c" d="M116.943,1408.444l15.945,20.132-15.945,20.133L101,1428.577Z" transform="translate(-100.997 -1408.444)"/><path class="d" d="M117.044,1408.581l-.1-.137L101,1428.577l15.946,20.133.1-.129Z" transform="translate(-100.997 -1408.444)"/></g><g transform="translate(44.028 1456.628)"><path class="c" d="M59.653,1455.9,43.7,1476.03l15.948,20.148L75.6,1476.03Z" transform="translate(-43.704 -1455.897)"/><path class="d" d="M59.546,1456.027l.106-.129L75.6,1476.03l-15.945,20.148-.106-.13Z" transform="translate(-43.704 -1455.897)"/></g><g transform="translate(44.028 1504.508)"><path class="c" d="M59.653,1503.358,43.7,1523.5l15.948,20.132L75.6,1523.5Z" transform="translate(-43.704 -1503.358)"/><path class="d" d="M59.546,1503.495l.106-.137L75.6,1523.5,59.653,1543.63l-.106-.129Z" transform="translate(-43.704 -1503.358)"/></g><g transform="translate(44.028 1360.984)"><path class="c" d="M59.653,1360.984,75.6,1381.108l-15.945,20.141L43.7,1381.108Z" transform="translate(-43.704 -1360.984)"/><path class="d" d="M59.756,1361.121l-.1-.137L43.7,1381.108l15.948,20.141.1-.137Z" transform="translate(-43.704 -1360.984)"/></g><g transform="translate(44.028 1408.861)"><path class="c" d="M59.653,1408.444,75.6,1428.577l-15.945,20.133L43.7,1428.577Z" transform="translate(-43.704 -1408.444)"/><path class="d" d="M59.756,1408.581l-.1-.137L43.7,1428.577l15.948,20.133.1-.129Z" transform="translate(-43.704 -1408.444)"/></g><g transform="translate(101.883 1456.628)"><path class="c" d="M116.94,1455.9,101,1476.03l15.943,20.148,15.948-20.148Z" transform="translate(-100.997 -1455.897)"/><path class="d" d="M116.833,1456.027l.107-.129,15.948,20.133-15.948,20.148-.107-.13Z" transform="translate(-100.997 -1455.897)"/></g><g transform="translate(101.883 1504.508)"><path class="c" d="M116.94,1503.358,101,1523.5l15.943,20.132,15.948-20.132Z" transform="translate(-100.997 -1503.358)"/><path class="d" d="M116.833,1503.495l.107-.137,15.948,20.14L116.94,1543.63l-.107-.129Z" transform="translate(-100.997 -1503.358)"/></g><g transform="translate(21.05 1382.628)"><path class="c" d="M25.691,1394.145l-4.641-5.863,4.641-5.863,4.645,5.863Z" transform="translate(-21.05 -1382.418)"/><path class="d" d="M25.691,1382.418l-.036.053v11.635l.036.038,4.645-5.863Z" transform="translate(-21.05 -1382.418)"/></g><g transform="translate(21.278 1359.331)"><path class="e" d="M31.98,1370.128a3.31,3.31,0,0,1-.493,1.432,11.7,11.7,0,0,1-1.968,2.551q-1.473,1.5-1.588,1.591a3.709,3.709,0,0,1-2.3.7,4.274,4.274,0,0,1-3.208-1.424,3.532,3.532,0,0,1-1.148-2.337,3.282,3.282,0,0,1,.784-1.859q.783-1.05,1.6-2.1a7.421,7.421,0,0,1-1.079-1.211,2.534,2.534,0,0,1-.465-1.492,3.928,3.928,0,0,1,.771-2.171c.5-.669.912-1.248,1.241-1.713a8.81,8.81,0,0,1,2.014-2.246,3.146,3.146,0,0,1,1.736-.518,3.814,3.814,0,0,1,2.424.8,2.575,2.575,0,0,1,1.02,2.147,4.088,4.088,0,0,1-1.218,2.8c-.813.868-1.219,1.477-1.219,1.8A21.605,21.605,0,0,1,31,1368.423,2.323,2.323,0,0,1,31.98,1370.128Zm-3.046,2.064c0-.495-.592-1.111-1.78-1.835a6.146,6.146,0,0,0-2.037-.952c-.11,0-.26.175-.455.518a1.853,1.853,0,0,0-.293.891,2.4,2.4,0,0,0,1.171,1.828,3.516,3.516,0,0,0,2.037.791,1.374,1.374,0,0,0,.914-.4A1.114,1.114,0,0,0,28.934,1372.192Zm-.864-7.454a1.8,1.8,0,0,0-.628-1.211,2.238,2.238,0,0,0-1.628-.731.994.994,0,0,0-.7.266.8.8,0,0,0-.276.632c0,.511.4,1.067,1.186,1.653a3.367,3.367,0,0,0,1.325.776c.138,0,.295-.167.464-.51A2.107,2.107,0,0,0,28.07,1364.738Z" transform="translate(-21.278 -1359.331)"/></g><g transform="translate(146.802 1531.364)"><path class="e" d="M145.614,1536.488a3.4,3.4,0,0,1,.489-1.431,12.059,12.059,0,0,1,1.97-2.551c.985-1.005,1.516-1.531,1.593-1.592a3.691,3.691,0,0,1,2.3-.7,4.3,4.3,0,0,1,3.206,1.424,3.5,3.5,0,0,1,1.148,2.345,3.246,3.246,0,0,1-.786,1.85q-.78,1.052-1.6,2.1a7.388,7.388,0,0,1,1.075,1.21,2.551,2.551,0,0,1,.469,1.485,3.914,3.914,0,0,1-.773,2.178c-.5.67-.914,1.249-1.24,1.714a8.786,8.786,0,0,1-2.017,2.246,3.14,3.14,0,0,1-1.735.517,3.806,3.806,0,0,1-2.421-.8,2.6,2.6,0,0,1-1.017-2.155,4.079,4.079,0,0,1,1.215-2.787c.815-.875,1.218-1.469,1.218-1.8a23.165,23.165,0,0,1-2.107-1.538A2.355,2.355,0,0,1,145.614,1536.488Zm3.044-2.071c0,.51.6,1.112,1.78,1.835a6.253,6.253,0,0,0,2.038.96c.109,0,.261-.168.457-.511a1.938,1.938,0,0,0,.293-.89,2.346,2.346,0,0,0-1.172-1.828,3.477,3.477,0,0,0-2.039-.8,1.368,1.368,0,0,0-.914.4A1.154,1.154,0,0,0,148.658,1534.417Zm.868,7.455a1.808,1.808,0,0,0,.626,1.225,2.242,2.242,0,0,0,1.629.716,1,1,0,0,0,.695-.251.839.839,0,0,0,.278-.632c0-.518-.39-1.066-1.184-1.668a3.525,3.525,0,0,0-1.325-.769c-.139,0-.293.168-.466.511A2.049,2.049,0,0,0,149.526,1541.872Z" transform="translate(-145.614 -1530.214)"/></g><g transform="translate(148.446 1513.422)"><path class="c" d="M151.9,1512.472l4.641,5.848-4.641,5.871-4.643-5.871Z" transform="translate(-147.258 -1512.472)"/><path class="d" d="M151.932,1512.5l-.031-.031-4.643,5.848,4.643,5.871.031-.038Z" transform="translate(-147.258 -1512.472)"/></g></g></svg>