<svg xmlns="http://www.w3.org/2000/svg" width="154" height="215" viewBox="0 0 154 215"><defs><style>.a{fill:#c9c9c9;}.b{fill:#fff;}.c{fill:#be6148;}.d{fill:#d66142;}.e{fill:#616161;opacity:0.2;}.f,.g{stroke:none;}.g{fill:#c4c4c4;}</style></defs><g transform="translate(-392.935 -828.28)"><g transform="translate(392.935 828.28)"><path class="a" d="M409.967,1043.28a16.4,16.4,0,0,1-16.562-16.176l-.47-182.551a16.378,16.378,0,0,1,16.531-16.274l120.933.226a16.451,16.451,0,0,1,16.508,16.3v182.158a16.353,16.353,0,0,1-16.453,16.177Z" transform="translate(-392.935 -828.28)"/><g class="b" transform="translate(-392.935 -828.28)"><path class="f" d="M 530.63671875 1042.324096679688 L 411.4801330566406 1042.324096679688 C 402.7657165527344 1042.324096679688 395.6759948730469 1035.278442382813 395.6759948730469 1026.618041992188 L 395.6759948730469 844.4930419921875 C 395.6759948730469 835.8370971679688 402.7657165527344 828.7949829101563 411.4801330566406 828.7949829101563 L 530.63671875 828.7949829101563 C 539.347900390625 828.7949829101563 546.4349365234375 835.8370971679688 546.4349365234375 844.4930419921875 L 546.4349365234375 1026.618041992188 C 546.4349365234375 1035.278442382813 539.347900390625 1042.324096679688 530.63671875 1042.324096679688 Z"/><path class="g" d="M 530.63671875 1041.824096679688 C 539.0722045898438 1041.824096679688 545.9349365234375 1035.002685546875 545.9349365234375 1026.618041992188 L 545.9349365234375 844.4930419921875 C 545.9349365234375 836.11279296875 539.0722045898438 829.2949829101563 530.63671875 829.2949829101563 L 411.4801330566406 829.2949829101563 C 403.0414123535156 829.2949829101563 396.1759948730469 836.11279296875 396.1759948730469 844.4930419921875 L 396.1759948730469 1026.618041992188 C 396.1759948730469 1035.002685546875 403.0414123535156 1041.824096679688 411.4801330566406 1041.824096679688 L 530.63671875 1041.824096679688 M 530.63671875 1042.824096679688 L 411.4801330566406 1042.824096679688 C 402.4945983886719 1042.824096679688 395.1759948730469 1035.542114257813 395.1759948730469 1026.618041992188 L 395.1759948730469 844.4930419921875 C 395.1759948730469 835.5609741210938 402.4945983886719 828.2949829101563 411.4801330566406 828.2949829101563 L 530.63671875 828.2949829101563 C 539.6212768554688 828.2949829101563 546.9349365234375 835.5609741210938 546.9349365234375 844.4930419921875 L 546.9349365234375 1026.618041992188 C 546.9349365234375 1035.542114257813 539.6212768554688 1042.824096679688 530.63671875 1042.824096679688 Z"/></g><g transform="translate(6.231 13.964)"><path class="c" d="M406.535,857.161c0,.289-.488.746-1.473,1.386a5.483,5.483,0,0,1-2.824,1.066,1.181,1.181,0,0,1-1.033-.594,1.514,1.514,0,0,1-.276-.8V845.838a.877.877,0,0,0-.109-.51.444.444,0,0,0-.35-.129,4.254,4.254,0,0,0-.554.1,1.629,1.629,0,0,1-.659.046.32.32,0,0,1-.091-.214c0-.182.188-.388.575-.647a10.383,10.383,0,0,0,1.188-.929c.329-.282.668-.571,1.016-.883a1.794,1.794,0,0,1,.9-.366,1.567,1.567,0,0,1,1.158.632,1.949,1.949,0,0,1,.559,1.219v13.1a.415.415,0,0,0,.145.145.441.441,0,0,0,.267.129c.123-.038.216-.076.3-.106a5.642,5.642,0,0,0,.793-.511h.4Z" transform="translate(-399.166 -842.244)"/><path class="c" d="M421.666,851.161a6.645,6.645,0,0,1-.574,2.718,9.066,9.066,0,0,1-3.181,3.693c-.864.594-1.481,1.005-1.862,1.211a6.652,6.652,0,0,1-3.278.792,5.372,5.372,0,0,1-4.492-2.391,8.454,8.454,0,0,1-1.645-5.2,8.619,8.619,0,0,1,1-3.929,12.208,12.208,0,0,1,1.67-2.429,12.823,12.823,0,0,1,2.636-2.277,6.282,6.282,0,0,1,3.383-1.1,5.439,5.439,0,0,1,4.728,2.856A11.206,11.206,0,0,1,421.666,851.161Zm-3.618,2.6a12.08,12.08,0,0,0-.472-3.388,10.923,10.923,0,0,0-1.4-3.061,7.558,7.558,0,0,0-1.929-2.186,2.1,2.1,0,0,0-1.212-.449,2.529,2.529,0,0,0-2.18,1.264,5.169,5.169,0,0,0-.841,2.893,8.994,8.994,0,0,0,.185,1.874,14.345,14.345,0,0,0,1.073,3.053,8.217,8.217,0,0,0,2.02,2.924,2.94,2.94,0,0,0,1.856.761,2.558,2.558,0,0,0,2.143-.982A4.327,4.327,0,0,0,418.048,853.765Z" transform="translate(-399.166 -842.244)"/></g><g transform="translate(128.533 185.251)"><path class="c" d="M537.788,1018.168c0-.282.49-.754,1.475-1.379a5.461,5.461,0,0,1,2.839-1.073,1.136,1.136,0,0,1,1.007.6,1.485,1.485,0,0,1,.287.815v12.358a.9.9,0,0,0,.113.511.408.408,0,0,0,.344.129,2.78,2.78,0,0,0,.562-.107,1.827,1.827,0,0,1,.653-.03.313.313,0,0,1,.1.213c0,.168-.19.388-.571.64a9.519,9.519,0,0,0-1.2.929c-.323.289-.668.578-1.022.875a1.716,1.716,0,0,1-.9.381,1.517,1.517,0,0,1-1.146-.639,1.873,1.873,0,0,1-.56-1.211v-13.112a.494.494,0,0,0-.154-.137.435.435,0,0,0-.257-.145c-.124.046-.232.084-.3.114a5.057,5.057,0,0,0-.8.5h-.4Z" transform="translate(-522.658 -1015.716)"/><path class="c" d="M522.658,1024.16a6.663,6.663,0,0,1,.569-2.711,9.133,9.133,0,0,1,3.187-3.692c.853-.6,1.481-1.005,1.856-1.211a6.751,6.751,0,0,1,3.284-.777,5.364,5.364,0,0,1,4.492,2.376,8.528,8.528,0,0,1,1.645,5.208,8.7,8.7,0,0,1-1,3.929,12.656,12.656,0,0,1-4.306,4.7,6.271,6.271,0,0,1-3.377,1.1,5.437,5.437,0,0,1-4.734-2.855A11.2,11.2,0,0,1,522.658,1024.16Zm3.613-2.589a12.22,12.22,0,0,0,.478,3.381,10.707,10.707,0,0,0,1.407,3.061,7.7,7.7,0,0,0,1.923,2.193,2.171,2.171,0,0,0,1.214.45,2.534,2.534,0,0,0,2.174-1.272,5.13,5.13,0,0,0,.847-2.894,8.775,8.775,0,0,0-.19-1.88,14.97,14.97,0,0,0-1.068-3.039,7.969,7.969,0,0,0-2.031-2.923,2.9,2.9,0,0,0-1.851-.762,2.549,2.549,0,0,0-2.137.982A4.353,4.353,0,0,0,526.271,1021.571Z" transform="translate(-522.658 -1015.716)"/></g></g><g transform="translate(403.072 866.379)"><path class="d" d="M414.265,870.2c-.154,2.719-5.591,6.846-5.591,6.846s-5.6-4.165-5.6-6.884a3.391,3.391,0,0,1,3.4-3.38,4.331,4.331,0,0,1,2.222.951,3.971,3.971,0,0,1,2.189-.936A3.349,3.349,0,0,1,414.265,870.2Z" transform="translate(-403.072 -866.786)"/><path class="e" d="M410.879,866.8a3.971,3.971,0,0,0-2.189.936s-.016-.015-.036-.03v9.328l.02.015s5.437-4.127,5.591-6.846A3.349,3.349,0,0,0,410.879,866.8Z" transform="translate(-403.072 -866.786)"/></g><g transform="translate(426.808 849.76)"><path class="d" d="M427.151,859.468c.411,7.729,15.891,19.47,15.891,19.47s15.939-11.825,15.939-19.554a9.656,9.656,0,0,0-9.672-9.624c-2.993,0-6.316,2.7-6.316,2.7s-3.162-2.7-6.236-2.657C431.426,849.866,426.864,854.146,427.151,859.468Z" transform="translate(-427.138 -849.76)"/><path class="e" d="M436.757,849.8c3.074-.038,6.236,2.657,6.236,2.657s.045-.038.106-.083v26.536a.177.177,0,0,1-.057.03s-15.48-11.741-15.891-19.47C426.864,854.146,431.426,849.866,436.757,849.8Z" transform="translate(-427.138 -849.76)"/></g><g transform="translate(455.089 871.644)"><path class="d" d="M455.707,881.87c.411,7.721,15.908,19.454,15.908,19.454s15.928-11.817,15.928-19.553a9.655,9.655,0,0,0-9.672-9.617c-2.987,0-6.322,2.7-6.322,2.7s-3.151-2.7-6.231-2.65C460,872.261,455.419,876.54,455.707,881.87Z" transform="translate(-455.694 -872.154)"/><path class="e" d="M465.318,872.2c3.08-.045,6.231,2.65,6.231,2.65s.045-.038.112-.091v26.551a.1.1,0,0,1-.046.015s-15.5-11.733-15.908-19.454C455.419,876.54,460,872.261,465.318,872.2Z" transform="translate(-455.694 -872.154)"/></g><g transform="translate(483.591 849.76)"><path class="d" d="M516.3,859.468c-.411,7.729-15.9,19.47-15.9,19.47s-15.927-11.825-15.927-19.554a9.65,9.65,0,0,1,9.674-9.624c2.985,0,6.311,2.7,6.311,2.7s3.156-2.7,6.234-2.657C512.017,849.866,516.588,854.146,516.3,859.468Z" transform="translate(-484.474 -849.76)"/><path class="e" d="M506.693,849.8c-3.078-.038-6.234,2.657-6.234,2.657s-.052-.038-.1-.083v26.536a.179.179,0,0,0,.045.03s15.492-11.741,15.9-19.47C516.588,854.146,512.017,849.866,506.693,849.8Z" transform="translate(-484.474 -849.76)"/></g><g transform="translate(426.808 896.691)"><path class="d" d="M427.151,907.211c.411,7.728,15.891,19.469,15.891,19.469s15.939-11.832,15.939-19.561a9.661,9.661,0,0,0-9.672-9.624c-2.993,0-6.316,2.7-6.316,2.7s-3.162-2.7-6.236-2.642C431.426,897.609,426.864,901.88,427.151,907.211Z" transform="translate(-427.138 -897.495)"/><path class="e" d="M436.757,897.548c3.074-.053,6.236,2.642,6.236,2.642a1.1,1.1,0,0,0,.106-.084v26.537a.141.141,0,0,1-.057.037s-15.48-11.741-15.891-19.469C426.864,901.88,431.426,897.609,436.757,897.548Z" transform="translate(-427.138 -897.495)"/></g><g transform="translate(483.591 896.691)"><path class="d" d="M516.3,907.211c-.411,7.728-15.9,19.469-15.9,19.469s-15.927-11.832-15.927-19.561a9.655,9.655,0,0,1,9.674-9.624c2.985,0,6.311,2.7,6.311,2.7s3.156-2.7,6.234-2.642C512.017,897.609,516.588,901.88,516.3,907.211Z" transform="translate(-484.474 -897.495)"/><path class="e" d="M506.693,897.548c-3.078-.053-6.234,2.642-6.234,2.642a.511.511,0,0,1-.1-.084v26.537a.141.141,0,0,0,.045.037s15.492-11.741,15.9-19.469C516.588,901.88,512.017,897.609,506.693,897.548Z" transform="translate(-484.474 -897.495)"/></g><g transform="translate(426.808 990.786)"><path class="d" d="M427.151,1012.427c.411-7.714,15.891-19.456,15.891-19.456s15.939,11.826,15.939,19.562a9.654,9.654,0,0,1-9.672,9.617c-2.993,0-6.316-2.7-6.316-2.7s-3.162,2.7-6.236,2.649C431.426,1022.036,426.864,1017.757,427.151,1012.427Z" transform="translate(-427.138 -992.971)"/><path class="e" d="M436.757,1022.1c3.074.046,6.236-2.649,6.236-2.649a1.165,1.165,0,0,1,.106.083V993a.2.2,0,0,0-.057-.031s-15.48,11.742-15.891,19.456C426.864,1017.757,431.426,1022.036,436.757,1022.1Z" transform="translate(-427.138 -992.971)"/></g><g transform="translate(455.089 968.924)"><path class="d" d="M455.707,990.04c.411-7.728,15.908-19.462,15.908-19.462s15.928,11.825,15.928,19.561a9.655,9.655,0,0,1-9.672,9.617c-2.987,0-6.322-2.7-6.322-2.7s-3.151,2.7-6.231,2.657C460,999.642,455.419,995.362,455.707,990.04Z" transform="translate(-455.694 -970.578)"/><path class="e" d="M465.318,999.718c3.08.038,6.231-2.657,6.231-2.657s.045.03.112.084V970.608a.144.144,0,0,0-.046-.03s-15.5,11.734-15.908,19.462C455.419,995.362,460,999.642,465.318,999.718Z" transform="translate(-455.694 -970.578)"/></g><g transform="translate(483.591 990.786)"><path class="d" d="M516.3,1012.427c-.411-7.714-15.9-19.456-15.9-19.456s-15.927,11.826-15.927,19.562a9.649,9.649,0,0,0,9.674,9.617c2.985,0,6.311-2.7,6.311-2.7s3.156,2.7,6.234,2.649C512.017,1022.036,516.588,1017.757,516.3,1012.427Z" transform="translate(-484.474 -992.971)"/><path class="e" d="M506.693,1022.1c-3.078.046-6.234-2.649-6.234-2.649a.523.523,0,0,0-.1.083V993a.211.211,0,0,1,.045-.031s15.492,11.742,15.9,19.456C516.588,1017.757,512.017,1022.036,506.693,1022.1Z" transform="translate(-484.474 -992.971)"/></g><g transform="translate(426.808 943.878)"><path class="d" d="M427.151,964.692c.411-7.721,15.891-19.455,15.891-19.455s15.939,11.818,15.939,19.554a9.656,9.656,0,0,1-9.672,9.624c-2.993,0-6.316-2.7-6.316-2.7s-3.162,2.7-6.236,2.658C431.426,974.293,426.864,970.022,427.151,964.692Z" transform="translate(-427.138 -945.237)"/><path class="e" d="M436.757,974.37c3.074.045,6.236-2.658,6.236-2.658s.045.038.106.092V945.26a.39.39,0,0,0-.057-.023s-15.48,11.734-15.891,19.455C426.864,970.022,431.426,974.293,436.757,974.37Z" transform="translate(-427.138 -945.237)"/></g><g transform="translate(483.591 943.878)"><path class="d" d="M516.3,964.692c-.411-7.721-15.9-19.455-15.9-19.455s-15.927,11.818-15.927,19.554a9.65,9.65,0,0,0,9.674,9.624c2.985,0,6.311-2.7,6.311-2.7s3.156,2.7,6.234,2.658C512.017,974.293,516.588,970.022,516.3,964.692Z" transform="translate(-484.474 -945.237)"/><path class="e" d="M506.693,974.37c-3.078.045-6.234-2.658-6.234-2.658a.85.85,0,0,0-.1.092V945.26c.027-.015.045-.023.045-.023s15.492,11.734,15.9,19.455C516.588,970.022,512.017,974.293,506.693,974.37Z" transform="translate(-484.474 -945.237)"/></g><g transform="translate(529.346 996.662)"><path class="d" d="M530.541,1005.452c.145-2.772,5.7-6.991,5.7-6.991s5.717,4.234,5.717,7.029a3.454,3.454,0,0,1-3.47,3.434,4.5,4.5,0,0,1-2.266-.96,4.128,4.128,0,0,1-2.231.952A3.421,3.421,0,0,1,530.541,1005.452Z" transform="translate(-530.536 -998.461)"/><path class="e" d="M534,1008.916a4.128,4.128,0,0,0,2.231-.952.312.312,0,0,1,.035.038v-9.533l-.016-.008s-5.56,4.219-5.7,6.991A3.421,3.421,0,0,0,534,1008.916Z" transform="translate(-530.536 -998.461)"/></g></g></svg>