<svg xmlns="http://www.w3.org/2000/svg" width="154" height="215" viewBox="0 0 154 215"><defs><style>.a{fill:#c9c9c9;}.b{fill:#fff;}.c{fill:#be6148;}.d{fill:#616161;opacity:0.2;}.e{fill:#fdd8ab;}.f{fill:#ebebeb;}.g{fill:#333;}.h{fill:#d66142;}.i{fill:#d66f53;}.j{fill:#ffd675;}.k,.l{stroke:none;}.l{fill:#c4c4c4;}</style></defs><g transform="translate(-393.326 -314.516)"><g transform="translate(393.326 314.516)"><path class="a" d="M410.356,529.516A16.391,16.391,0,0,1,393.8,513.351l-.473-182.543a16.376,16.376,0,0,1,16.538-16.261l120.95.221a16.44,16.44,0,0,1,16.512,16.288V513.2a16.34,16.34,0,0,1-16.451,16.173Z" transform="translate(-393.326 -314.516)"/><g class="b" transform="translate(-393.326 -314.516)"><path class="k" d="M 529.6468505859375 528.5289916992188 L 410.4481201171875 528.5289916992188 C 401.7391967773438 528.5289916992188 394.6539916992188 521.483154296875 394.6539916992188 512.8226318359375 L 394.6539916992188 330.7183532714844 C 394.6539916992188 322.06005859375 401.7391967773438 315.0159912109375 410.4481201171875 315.0159912109375 L 529.6468505859375 315.0159912109375 C 538.3562622070313 315.0159912109375 545.4419555664063 322.06005859375 545.4419555664063 330.7183532714844 L 545.4419555664063 512.8226318359375 C 545.4419555664063 521.483154296875 538.3562622070313 528.5289916992188 529.6468505859375 528.5289916992188 Z"/><path class="l" d="M 529.6468505859375 528.0289916992188 C 538.0806274414063 528.0289916992188 544.9419555664063 521.2074584960938 544.9419555664063 512.8226318359375 L 544.9419555664063 330.7183532714844 C 544.9419555664063 322.3357543945313 538.0806274414063 315.5159912109375 529.6468505859375 315.5159912109375 L 410.4480895996094 315.5159912109375 C 402.014892578125 315.5159912109375 395.1539916992188 322.3357543945313 395.1539916992188 330.7183532714844 L 395.1539916992188 512.8226318359375 C 395.1539916992188 521.2074584960938 402.014892578125 528.0289916992188 410.4480895996094 528.0289916992188 L 529.6468505859375 528.0289916992188 M 529.6468505859375 529.0289916992188 L 410.4480895996094 529.0289916992188 C 401.4692993164063 529.0289916992188 394.1539916992188 521.7578735351563 394.1539916992188 512.8226318359375 L 394.1539916992188 330.7183532714844 C 394.1539916992188 321.7811584472656 401.4692993164063 314.5159912109375 410.4480895996094 314.5159912109375 L 529.6468505859375 314.5159912109375 C 538.628662109375 314.5159912109375 545.9419555664063 321.7811584472656 545.9419555664063 330.7183532714844 L 545.9419555664063 512.8226318359375 C 545.9419555664063 521.7578735351563 538.628662109375 529.0289916992188 529.6468505859375 529.0289916992188 Z"/></g><g transform="translate(8 14.001)"><path class="c" d="M422.7,337.207a7.161,7.161,0,0,1-.611,2.72,7.567,7.567,0,0,1-1.424,2.365,12.928,12.928,0,0,1-1.1.972,19.6,19.6,0,0,1-2.369,1.659c-.232.14-.406.245-.52.308-.36.238-.539.4-.539.5,0,.19.554.514,1.675.974a15.619,15.619,0,0,0,2.272.779,1.646,1.646,0,0,0,.335.025h.816a1.289,1.289,0,0,1,.417.07,2.428,2.428,0,0,1-.559.345c-.278.133-.556.264-.844.39-.39.346-.7.609-.91.788a.894.894,0,0,1-.508.276c-.366,0-.957-.4-1.8-1.209a3.563,3.563,0,0,0-2.383-1.2,2.219,2.219,0,0,0-1.388.529,2.547,2.547,0,0,1-.819.533c-.184,0-.287-.124-.287-.379,0-.175.272-.465.807-.874q.527-.4,1.043-.783-1.3-.756-2.5-1.583a9.728,9.728,0,0,1-2.123-2.035,8.632,8.632,0,0,1-1.227-2.262,7.32,7.32,0,0,1-.423-2.472,5.806,5.806,0,0,1,.755-3.149,17.907,17.907,0,0,1,1.8-1.989c.319-.314,1.109-.994,2.39-2.041,1.6-1.289,2.55-1.938,2.863-1.938a3.833,3.833,0,0,1,1.588.832,24.763,24.763,0,0,1,3.29,2.884,8.487,8.487,0,0,1,1.726,2.347A6.063,6.063,0,0,1,422.7,337.207Zm-4,2.22a7.369,7.369,0,0,0-.459-2.4,9.957,9.957,0,0,0-1.294-2.473,10.83,10.83,0,0,0-2.37-2.2c-.375-.291-.91-.647-1.609-1.093-.266,0-.6.469-1,1.409a6.349,6.349,0,0,0-.607,1.835,7.976,7.976,0,0,0,.828,3.6,11.887,11.887,0,0,0,2.128,2.885q.591.613,2.888,2.7a4.624,4.624,0,0,0,1.187-2.248A7.8,7.8,0,0,0,418.7,339.427Z" transform="translate(-407.738 -328.517)"/></g><g transform="translate(132 182.199)"><path class="c" d="M521.193,510.028a7.462,7.462,0,0,1,.607-2.721,7.27,7.27,0,0,1,1.439-2.364,10.212,10.212,0,0,1,1.083-.976,20.091,20.091,0,0,1,2.364-1.657c.237-.142.412-.243.526-.308.364-.234.539-.4.539-.5,0-.186-.56-.514-1.681-.967a15.754,15.754,0,0,0-2.266-.786,2.142,2.142,0,0,0-.335-.021h-.816a1.45,1.45,0,0,1-.417-.072,2.284,2.284,0,0,1,.559-.345c.275-.131.551-.262.838-.384.392-.35.7-.617.916-.8a.919.919,0,0,1,.5-.27c.364,0,.965.4,1.8,1.2a3.6,3.6,0,0,0,2.389,1.208,2.214,2.214,0,0,0,1.388-.534,2.693,2.693,0,0,1,.816-.533c.191,0,.29.129.29.379,0,.175-.273.468-.813.875-.345.268-.693.529-1.038.783.863.5,1.7,1.035,2.5,1.587a9.355,9.355,0,0,1,2.117,2.035,8.4,8.4,0,0,1,1.233,2.261,7.332,7.332,0,0,1,.427,2.477,5.825,5.825,0,0,1-.76,3.147,17.1,17.1,0,0,1-1.8,1.987q-.471.471-2.391,2.035-2.38,1.942-2.863,1.944a3.752,3.752,0,0,1-1.587-.832,25.286,25.286,0,0,1-3.29-2.886,8.533,8.533,0,0,1-1.726-2.345A6.062,6.062,0,0,1,521.193,510.028Zm4-2.226a7.1,7.1,0,0,0,.468,2.4,9.7,9.7,0,0,0,1.285,2.476,10.879,10.879,0,0,0,2.365,2.2c.384.284.915.649,1.608,1.087.272,0,.611-.47,1.013-1.409a6.526,6.526,0,0,0,.6-1.837,7.92,7.92,0,0,0-.827-3.6,11.368,11.368,0,0,0-2.128-2.884c-.392-.415-1.357-1.311-2.89-2.7a4.7,4.7,0,0,0-1.182,2.246A7.912,7.912,0,0,0,525.2,507.8Z" transform="translate(-521.193 -497.862)"/></g><g transform="translate(41 18.524)"><g transform="translate(0 42.656)"><path class="a" d="M494.9,375.7l-.232,3.261-.149,1.985-.607,8.507-.149,1.993-.184,2.72v.013l-.185,2.505-1.943.044-.916.011-1.9.048-1.081.023-1.31.027-2.322.046-2.575.059-12.109.249h-.021l-12.1-.249-2.574-.059-2.324-.046-1.31-.027-1.079-.023-.956-.021-.952-.027-.92-.011-1.932-.044-.186-2.505v-.013l-.191-2.72-.152-1.993-.6-8.507-.154-1.985-.227-3.261Z" transform="translate(-431.826 -375.696)"/><path class="d" d="M492.559,375.7,477.372,386.63H477.3a11.781,11.781,0,0,1-4.513,3.646,8.487,8.487,0,0,1-3.332.7,1.572,1.572,0,0,1-.224-.021h-.021V375.7Z" transform="translate(-431.826 -375.696)"/><g transform="translate(0 16.162)"><path class="e" d="M503.1,409.2l-9.739,2.9-.916.27-.268.082c-.765-1.283-1.382-2.218-1.654-2.635a1.368,1.368,0,0,0-.179-.236.462.462,0,0,0-.052.073,1.465,1.465,0,0,0-.078.133,12.581,12.581,0,0,0-1.49,3.7l-2.6.785-16.888,5.033-10.542,3.135-3.522,1.068a13.808,13.808,0,0,0-.446-1.333c-6.091-2.619-3.321-6.788-6.285-12.042a.679.679,0,0,0-.139-.2,2.774,2.774,0,0,0-.2-.352c-.363.451-7.235,10.942-8.418,18.547l-.849.247L432,430.413h-.169c-.118-14.992,4.456-25,8.656-31.036.3-.413.58-.821.883-1.2.283-.345.55-.716.818-1.028l.016-.019v-.036c.215-.234.415-.5.632-.718.2-.251.4-.482.6-.7.518-.565,1-1.068,1.434-1.5v-.015h.015c.118-.1.215-.2.335-.32.1-.1.2-.2.3-.281s.2-.183.3-.271c.186-.167.356-.314.519-.447a10.625,10.625,0,0,1,1.085-.851l1.582.387.269.062.632.17.163.03,2.206-.1,3.4-.131,3.619-.151,9.925-.4h.016l10.119.419,3.423.133,3.4.131,2.2.1.181-.03.617-.17.282-.062,1.572-.387a10.139,10.139,0,0,1,1.079.851c.166.133.335.28.535.447.082.088.185.189.278.271a3.355,3.355,0,0,1,.309.281c.112.12.215.219.329.32l.015.015a4.04,4.04,0,0,1,.318.314c.118.118.247.233.371.37.23.251.493.516.75.816.179.183.33.366.514.566a.665.665,0,0,0,.088.133c.215.219.416.484.632.718a.072.072,0,0,1,.015.036v.019c.267.312.529.683.832,1.028.283.38.571.788.87,1.2A45.7,45.7,0,0,1,503.1,409.2Z" transform="translate(-431.826 -391.858)"/><path class="d" d="M469.22,402.834h2.226l-.992,8.031c-.407.023-.822.031-1.234.042Z" transform="translate(-431.826 -391.858)"/></g><g transform="translate(8.667 0.002)"><g transform="translate(5.403)"><path class="d" d="M469.236,375.7H445.9l15.189,10.93h.066s4.846,4.343,7.843,4.343c.088,0,.164-.018.242-.018Z" transform="translate(-445.896 -375.698)"/><path class="d" d="M469.236,402.834H467l1,8.031c.406.023.822.031,1.234.042Z" transform="translate(-445.896 -375.698)"/></g><path class="d" d="M461.109,409.582c-11.286-2.49-17.414-6.291-20.616-10.2a34.649,34.649,0,0,1,5.844-6.554Z" transform="translate(-440.493 -375.698)"/><path class="e" d="M489.644,395.693a12.246,12.246,0,0,1-2.933,7.788,18.466,18.466,0,0,1-6.189,4.818c-.015.019-.03.019-.067.034a23.9,23.9,0,0,1-3.12,1.249,26.829,26.829,0,0,1-6.887,1.287c-.133,0-.262.019-.4.019-.266.013-.538.013-.816.013h-.016c-.274,0-.555,0-.818-.013-.139,0-.272-.019-.4-.019a26.892,26.892,0,0,1-6.893-1.287,25.656,25.656,0,0,1-3.12-1.249l-.057-.034a18.614,18.614,0,0,1-6.177-4.8,12.215,12.215,0,0,1-2.951-7.807c0-2.1-.451-2.271.6-4.1l5.989-.088,10.268-.131v-2.122a8.239,8.239,0,0,0,3.34.721c.063,0,.145-.015.217-.015h.016c.076,0,.148.015.23.015a8.1,8.1,0,0,0,3.32-.721v2.122l10.27.131,6,.088C490.107,393.422,489.644,393.592,489.644,395.693Z" transform="translate(-440.493 -375.698)"/><path class="d" d="M489.039,391.593l-5.993-.084-2.853,9.025a13.893,13.893,0,0,0-2.168-.2c-4.281-.065-8.692,3.689-8.692,3.689s-4.668-3.754-8.841-3.754a13.132,13.132,0,0,0-2.276.207l-2.839-8.962-5.986.084c-1.059,1.827-.6,2-.6,4.11a12.278,12.278,0,0,0,2.966,7.784c-.006,0-.016,0-.016.013.122.156.276.3.421.457.211.242.427.486.659.719.276.28.584.551.892.819.2.17.381.343.587.509.4.317.828.612,1.248.9.161.1.294.215.448.314.611.382,1.245.75,1.913,1.081a.424.424,0,0,0,.071.034,25.254,25.254,0,0,0,3.11,1.249,26.916,26.916,0,0,0,6.893,1.287c.127,0,.267.019.4.019.268.013.55.013.812.013h.021c.288,0,.549,0,.817-.013.134,0,.266-.019.4-.019a26.792,26.792,0,0,0,6.881-1.287,23.9,23.9,0,0,0,3.12-1.249c.031-.015.052-.015.067-.034a20.456,20.456,0,0,0,1.932-1.094c.124-.075.226-.157.339-.237.468-.313.921-.63,1.348-.964.209-.17.4-.351.611-.53.293-.259.586-.514.858-.788.251-.249.478-.514.708-.778.124-.145.274-.278.392-.427-.005-.006-.015-.008-.015-.013a12.253,12.253,0,0,0,2.949-7.765C489.629,393.6,490.091,393.42,489.039,391.593Z" transform="translate(-440.493 -375.698)"/><path class="e" d="M472.786,387.824v1.428a8.1,8.1,0,0,1-3.32.721c-.082,0-.17-.015-.23-.015-.088,0-.17.015-.233.015a8.239,8.239,0,0,1-3.34-.721v-1.428a4.218,4.218,0,0,1,.1-.819,2.8,2.8,0,0,1,.184-.533,3.453,3.453,0,0,1,3.162-2.1c.036,0,.072.017.124.017.03,0,.06-.017.1-.017a3.423,3.423,0,0,1,3.032,1.82,3.459,3.459,0,0,1,.421,1.635Z" transform="translate(-440.493 -375.698)"/></g><path class="d" d="M472.786,387.824v1.428a8.1,8.1,0,0,1-3.32.721c-.082,0-.17-.015-.23-.015-.088,0-.17.015-.233.015a8.239,8.239,0,0,1-3.34-.721v-1.428a4.218,4.218,0,0,1,.1-.819,2.8,2.8,0,0,1,.184-.533A11.183,11.183,0,0,0,469,387.654c.063,0,.145-.015.217-.015h.016c.076,0,.148.015.23.015a9.382,9.382,0,0,0,2.9-1.465,3.459,3.459,0,0,1,.421,1.635Z" transform="translate(-431.826 -375.696)"/><path class="d" d="M497.967,399.385c-3.208,3.9-9.334,7.707-20.626,10.2l6.12-6.944.375-.419,4.8-5.435,1.011-1.146,2.473-2.8c.16.125.335.278.519.447.092.082.2.177.288.271.109.082.211.186.314.278l.329.325h.01v.013a3.725,3.725,0,0,1,.324.32c.123.118.241.232.365.364.242.257.493.521.75.813.175.186.339.369.509.569.035.032.072.08.108.114.2.23.4.478.617.74a.067.067,0,0,1,.006.027h.015v.015c.261.33.533.682.822,1.041C497.39,398.562,497.673,398.968,497.967,399.385Z" transform="translate(-431.826 -375.696)"/><path class="f" d="M499.421,387.723a13.335,13.335,0,0,1-.16,2.136,16.151,16.151,0,0,1-2.99,7.264v.015a28.363,28.363,0,0,1-7.761,7.021c-.211.137-.448.278-.68.415a53.741,53.741,0,0,1-7.3,3.721c-.061.038-.118.061-.17.088s-.1.042-.139.061c-.179.063-.338.133-.517.2-.495.209-1.019.426-1.558.628-.262.11-.525.209-.807.308l6.579-12.7,2.25-4.33.51-.994L494.9,375.7A20.227,20.227,0,0,1,499.421,387.723Z" transform="translate(-431.826 -375.696)"/><path class="f" d="M461.109,409.582a60.878,60.878,0,0,1-10.495-5.008c-.226-.139-.453-.284-.667-.421-7.31-4.689-10.132-9.76-10.758-14.3a14.347,14.347,0,0,1-.156-2.13,20.311,20.311,0,0,1,4.523-12.025Z" transform="translate(-431.826 -375.696)"/><g transform="translate(7.207 2.764)"><path class="g" d="M446.349,395.854l2.117,2.819-.956-3.4Z" transform="translate(-439.033 -378.46)"/><path class="g" d="M453.678,402.687l2.117,2.821-.961-3.392Z" transform="translate(-439.033 -378.46)"/><path class="g" d="M442.494,379.035l2.117,2.817-.956-3.392Z" transform="translate(-439.033 -378.46)"/><path class="g" d="M445.288,384.952l2.119,2.812-.956-3.394Z" transform="translate(-439.033 -378.46)"/><path class="g" d="M448.085,390.86l2.119,2.817-.961-3.39Z" transform="translate(-439.033 -378.46)"/><path class="g" d="M450.887,396.777,453,399.59l-.956-3.389Z" transform="translate(-439.033 -378.46)"/><path class="g" d="M450.614,404.574c-.226-.139-.453-.284-.667-.421l-1.234-1.641,1.161-.584Z" transform="translate(-439.033 -378.46)"/><path class="g" d="M440.756,384.026l2.113,2.815-.957-3.392Z" transform="translate(-439.033 -378.46)"/><path class="g" d="M443.556,389.941l2.113,2.813-.956-3.386Z" transform="translate(-439.033 -378.46)"/><path class="g" d="M440.1,391.062l-.908-1.209a14.347,14.347,0,0,1-.156-2.13l.1-.051Z" transform="translate(-439.033 -378.46)"/><path class="g" d="M442,395.261l2.113,2.808-.956-3.388Z" transform="translate(-439.033 -378.46)"/></g><g transform="translate(50.84 2.764)"><path class="g" d="M492.107,395.854l-2.122,2.819.959-3.4Z" transform="translate(-482.665 -378.46)"/><path class="g" d="M484.777,402.687l-2.111,2.821.95-3.392Z" transform="translate(-482.665 -378.46)"/><path class="g" d="M495.962,379.035l-2.119,2.817.961-3.392Z" transform="translate(-482.665 -378.46)"/><path class="g" d="M493.166,384.952l-2.119,2.812.957-3.394Z" transform="translate(-482.665 -378.46)"/><path class="g" d="M490.369,390.86l-2.122,2.817.967-3.39Z" transform="translate(-482.665 -378.46)"/><path class="g" d="M487.573,396.777l-2.117,2.814.956-3.389Z" transform="translate(-482.665 -378.46)"/><path class="g" d="M487.842,404.574l.668-.421,1.233-1.641-1.163-.584Z" transform="translate(-482.665 -378.46)"/><path class="g" d="M497.7,384.026l-2.111,2.815.956-3.392Z" transform="translate(-482.665 -378.46)"/><path class="g" d="M494.908,389.941l-2.123,2.813.956-3.386Z" transform="translate(-482.665 -378.46)"/><path class="g" d="M499.421,387.723a13.335,13.335,0,0,1-.16,2.136l-.9,1.2.961-3.388Z" transform="translate(-482.665 -378.46)"/><path class="g" d="M496.455,395.261l-2.113,2.808.956-3.388Z" transform="translate(-482.665 -378.46)"/></g></g><g transform="translate(6.834)"><path class="h" d="M490.215,409.788a12.581,12.581,0,0,0-1.49,3.7l-2.6.785-16.888,5.033-10.542,3.135-3.522,1.068a13.808,13.808,0,0,0-.446-1.333c-6.091-2.619-3.321-6.788-6.285-12.042a.679.679,0,0,0-.139-.2,13.227,13.227,0,0,1,4.505-5.267,13.367,13.367,0,0,1,7.706-2.437c4.164,0,8.835,3.752,8.835,3.752s4.4-3.752,8.692-3.683a14.11,14.11,0,0,1,7.616,2.347A13.219,13.219,0,0,1,490.215,409.788Z" transform="translate(-438.66 -333.04)"/><path class="h" d="M498.136,350.7c-.746,14.035-28.916,35.371-28.916,35.371s-28.942-21.49-28.942-35.573A17.53,17.53,0,0,1,457.85,333.04c5.424,0,11.492,4.879,11.492,4.879s5.732-4.879,11.319-4.8C490.354,333.246,498.654,341.022,498.136,350.7Z" transform="translate(-438.66 -333.04)"/><g transform="translate(0 73.137)"><path class="d" d="M458.7,422.447l-3.531,1.051c-.118-.414-.267-.861-.442-1.322-6.307-2.706-3.124-7.066-6.624-12.584-.375.436-7.247,10.94-8.429,18.533l-.844.255c-1.814-7.923,11.241-21.775,11.241-21.775S454.366,420.431,458.7,422.447Z" transform="translate(-438.66 -406.177)"/><path class="d" d="M493.356,412.1l-.9.278-.278.08c-.771-1.28-1.373-2.218-1.65-2.635-.094-.125-.149-.211-.17-.236a12.589,12.589,0,0,0-1.629,3.906l-2.6.779a21.6,21.6,0,0,0,2.123-8.09A58.547,58.547,0,0,1,493.356,412.1Z" transform="translate(-438.66 -406.177)"/></g><path class="e" d="M473.408,352.547c-3.278,0-3.159,1.431-3.948,3.019-.79-1.588-1.165-3.019-4.414-3.019s-7.8,9.215-7.8,16.96a22.685,22.685,0,0,0,4.22,13.748.325.325,0,0,0,.036.058c0,.005,0,.005.006.009h0a11.615,11.615,0,0,0,4.62,3.679,8.415,8.415,0,0,0,3.089.642v.006h.016v-.006a8.43,8.43,0,0,0,3.087-.642,11.662,11.662,0,0,0,4.622-3.679h0s0,0,0-.009.027-.039.042-.058a22.708,22.708,0,0,0,4.209-13.748C481.2,361.762,477.36,352.891,473.408,352.547Z" transform="translate(-438.66 -333.04)"/><g transform="translate(20.152 31.762)"><g transform="translate(1.363 3.657)"><path class="g" d="M460.262,368.459a1.115,1.115,0,0,0-.087.416c0,.933,1.145,1.681,2.548,1.681,1.419,0,2.555-.748,2.555-1.681a1.059,1.059,0,0,0-.088-.416Z" transform="translate(-460.175 -368.459)"/></g><g transform="translate(14.366 3.657)"><path class="g" d="M478.194,368.459a1.156,1.156,0,0,1,.088.416c0,.933-1.146,1.681-2.555,1.681s-2.549-.748-2.549-1.681a1.075,1.075,0,0,1,.086-.416Z" transform="translate(-473.178 -368.459)"/></g><g transform="translate(6.748 15.364)"><path class="i" d="M472.561,381.024h-6.666a4.18,4.18,0,0,0,3.325,1.5v.006h.016v-.006A4.2,4.2,0,0,0,472.561,381.024Z" transform="translate(-465.56 -380.166)"/><path class="h" d="M469.224,380.849c-1.511-1.774-3.664.468-3.664.468h7.34S470.741,379.075,469.224,380.849Z" transform="translate(-465.56 -380.166)"/></g><path class="d" d="M469.236,371.293v-.061l-.012.031,0-.031v.061l-1.922,6.124a2.97,2.97,0,0,0,1.844.611,3.856,3.856,0,0,0,2.016-.611Z" transform="translate(-458.812 -364.802)"/><path class="h" d="M472.9,364.8l5.062.274.072,0,.036.042,2.014,2.195-2.229-1.98.107.044-5.067.251Z" transform="translate(-458.812 -364.802)"/><path class="h" d="M466,365.632l-5.063-.251.1-.044-2.219,1.98,2-2.195.046-.042.063,0,5.067-.274Z" transform="translate(-458.812 -364.802)"/></g></g><g transform="translate(6.834)"><path class="h" d="M490.215,409.788a12.581,12.581,0,0,0-1.49,3.7l-2.6.785-16.888,5.033-10.542,3.135-3.522,1.068a13.808,13.808,0,0,0-.446-1.333c-6.091-2.619-3.321-6.788-6.285-12.042a.679.679,0,0,0-.139-.2,13.227,13.227,0,0,1,4.505-5.267,13.367,13.367,0,0,1,7.706-2.437c4.164,0,8.835,3.752,8.835,3.752s4.4-3.752,8.692-3.683a14.11,14.11,0,0,1,7.616,2.347A13.219,13.219,0,0,1,490.215,409.788Z" transform="translate(-438.66 -333.04)"/><path class="h" d="M498.136,350.7c-.746,14.035-28.916,35.371-28.916,35.371s-28.942-21.49-28.942-35.573A17.53,17.53,0,0,1,457.85,333.04c5.424,0,11.492,4.879,11.492,4.879s5.732-4.879,11.319-4.8C490.354,333.246,498.654,341.022,498.136,350.7Z" transform="translate(-438.66 -333.04)"/><g transform="translate(0 73.137)"><path class="d" d="M458.7,422.447l-3.531,1.051c-.118-.414-.267-.861-.442-1.322-6.307-2.706-3.124-7.066-6.624-12.584-.375.436-7.247,10.94-8.429,18.533l-.844.255c-1.814-7.923,11.241-21.775,11.241-21.775S454.366,420.431,458.7,422.447Z" transform="translate(-438.66 -406.177)"/><path class="d" d="M493.356,412.1l-.9.278-.278.08c-.771-1.28-1.373-2.218-1.65-2.635-.094-.125-.149-.211-.17-.236a12.589,12.589,0,0,0-1.629,3.906l-2.6.779a21.6,21.6,0,0,0,2.123-8.09A58.547,58.547,0,0,1,493.356,412.1Z" transform="translate(-438.66 -406.177)"/></g><path class="e" d="M473.408,352.547c-3.278,0-3.159,1.431-3.948,3.019-.79-1.588-1.165-3.019-4.414-3.019s-7.8,9.215-7.8,16.96a22.685,22.685,0,0,0,4.22,13.748.325.325,0,0,0,.036.058c0,.005,0,.005.006.009h0a11.615,11.615,0,0,0,4.62,3.679,8.415,8.415,0,0,0,3.089.642v.006h.016v-.006a8.43,8.43,0,0,0,3.087-.642,11.662,11.662,0,0,0,4.622-3.679h0s0,0,0-.009.027-.039.042-.058a22.708,22.708,0,0,0,4.209-13.748C481.2,361.762,477.36,352.891,473.408,352.547Z" transform="translate(-438.66 -333.04)"/><g transform="translate(20.152 31.762)"><g transform="translate(1.363 3.657)"><path class="g" d="M460.262,368.459a1.115,1.115,0,0,0-.087.416c0,.933,1.145,1.681,2.548,1.681,1.419,0,2.555-.748,2.555-1.681a1.059,1.059,0,0,0-.088-.416Z" transform="translate(-460.175 -368.459)"/></g><g transform="translate(14.366 3.657)"><path class="g" d="M478.194,368.459a1.156,1.156,0,0,1,.088.416c0,.933-1.146,1.681-2.555,1.681s-2.549-.748-2.549-1.681a1.075,1.075,0,0,1,.086-.416Z" transform="translate(-473.178 -368.459)"/></g><g transform="translate(6.748 15.364)"><path class="i" d="M472.561,381.024h-6.666a4.18,4.18,0,0,0,3.325,1.5v.006h.016v-.006A4.2,4.2,0,0,0,472.561,381.024Z" transform="translate(-465.56 -380.166)"/><path class="h" d="M469.224,380.849c-1.511-1.774-3.664.468-3.664.468h7.34S470.741,379.075,469.224,380.849Z" transform="translate(-465.56 -380.166)"/></g><path class="d" d="M469.236,371.293v-.061l-.012.031,0-.031v.061l-1.922,6.124a2.97,2.97,0,0,0,1.844.611,3.856,3.856,0,0,0,2.016-.611Z" transform="translate(-458.812 -364.802)"/><path class="h" d="M472.9,364.8l5.062.274.072,0,.036.042,2.014,2.195-2.229-1.98.107.044-5.067.251Z" transform="translate(-458.812 -364.802)"/><path class="h" d="M466,365.632l-5.063-.251.1-.044-2.219,1.98,2-2.195.046-.042.063,0,5.067-.274Z" transform="translate(-458.812 -364.802)"/></g></g><path class="d" d="M472.731,352.664a6.654,6.654,0,0,1,.677-.117A6.654,6.654,0,0,0,472.731,352.664Z" transform="translate(-431.826 -333.04)"/><path class="d" d="M470.932,353.481a.827.827,0,0,1,.087-.053A.827.827,0,0,0,470.932,353.481Z" transform="translate(-431.826 -333.04)"/><path class="d" d="M471.486,353.135l.133-.055Z" transform="translate(-431.826 -333.04)"/><path class="d" d="M472.1,352.864c.066-.024.142-.045.215-.068C472.241,352.819,472.165,352.84,472.1,352.864Z" transform="translate(-431.826 -333.04)"/><g transform="translate(29.596 4.935)"><path class="d" d="M477.341,343.061c.221,3.872-8.086,10.074-8.086,10.074s-8.291-6.027-7.813-10.386a5.428,5.428,0,0,1,5.275-4.774,5.908,5.908,0,0,1,2.955,1.206,5.15,5.15,0,0,1,2.79-1.188C474.771,338.029,477.2,340.611,477.341,343.061Z" transform="translate(-461.422 -337.975)"/><path class="j" d="M476.744,343.39c-.195,3.537-7.284,8.907-7.284,8.907s-7.287-5.41-7.287-8.956a4.421,4.421,0,0,1,4.43-4.4,5.7,5.7,0,0,1,2.884,1.23,5.209,5.209,0,0,1,2.852-1.209A4.352,4.352,0,0,1,476.744,343.39Z" transform="translate(-461.422 -337.975)"/><path class="d" d="M469.445,349.742c-2.724-2.248-5.273-5.082-5.273-6.4a2.416,2.416,0,0,1,2.431-2.395,3.944,3.944,0,0,1,1.63.786l1.29,1.037,1.264-1.069a3.288,3.288,0,0,1,1.517-.733,2.591,2.591,0,0,1,1.86.809,2.008,2.008,0,0,1,.575,1.508C474.672,344.641,472.129,347.494,469.445,349.742Z" transform="translate(-461.422 -337.975)"/></g><path class="d" d="M497.967,399.377c-.3-.413-.587-.821-.87-1.2-.107-.12-.194-.238-.293-.364-.179-.226-.358-.463-.533-.674v-.015a16.151,16.151,0,0,0,2.99-7.264,13.335,13.335,0,0,0,.16-2.136A20.227,20.227,0,0,0,494.9,375.7H481.282c7.746-7.373,16.447-17.283,16.854-25,.518-9.678-7.782-17.454-17.475-17.582-5.587-.078-11.319,4.8-11.319,4.8a.2.2,0,0,1-.046-.032v81.4l16.828-5.016,2.087-.632.514-.153h0a1.358,1.358,0,0,0,.036-.139,12.829,12.829,0,0,1,1.587-3.763.181.181,0,0,1,.027.032c.031.037.072.09.149.2.277.417.879,1.355,1.65,2.635h0l.021-.006.253-.074.379-.114.531-.158,9.739-2.9A45.7,45.7,0,0,0,497.967,399.377Z" transform="translate(-431.826 -333.04)"/><g transform="translate(0.002 83.133)"><path class="a" d="M440.027,472.039l.23-3.261.16-1.989.6-8.509.154-1.991.185-2.717v-.015l.184-2.5,1.938-.046.916-.015,1.907-.044,1.074-.021,1.315-.025,2.324-.05,2.57-.057,12.1-.251h.03l12.105.251,2.573.057,2.324.05,1.31.025,1.079.021.952.023.956.021.915.015,1.938.046.185,2.5v.015l.184,2.717.149,1.991.613,8.509.143,1.989.236,3.261Z" transform="translate(-431.828 -417.32)"/><path class="d" d="M442.37,472.039,457.553,461.1h.071a11.77,11.77,0,0,1,4.513-3.643,8.427,8.427,0,0,1,3.331-.693,1.232,1.232,0,0,1,.216.019h.03v15.255Z" transform="translate(-431.828 -417.32)"/><path class="e" d="M431.828,438.534l9.735-2.9.919-.263.269-.081c.765,1.281,1.382,2.216,1.644,2.632a1.551,1.551,0,0,0,.189.231.552.552,0,0,1,.048-.063c.036-.055.051-.086.087-.137a12.627,12.627,0,0,0,1.485-3.7l2.6-.78,16.889-5.043,10.542-3.13,3.522-1.069c.118.416.266.868.447,1.334,6.084,2.616,3.32,6.786,6.286,12.042a1.167,1.167,0,0,0,.127.2c.058.118.139.231.2.349.372-.448,7.244-10.937,8.43-18.542l.849-.255,6.841-2.031h.164c.112,14.993-4.451,25-8.656,31.035-.3.415-.586.816-.883,1.2-.284.352-.545.718-.817,1.036l-.017.017v.034c-.221.232-.421.5-.636.716-.2.251-.4.483-.6.7-.514.566-1,1.066-1.436,1.5v.019h-.009c-.118.1-.221.2-.339.318-.1.1-.2.2-.3.284s-.2.181-.3.263c-.186.165-.35.317-.519.453a10.593,10.593,0,0,1-1.086.847l-1.581-.381-.269-.065-.638-.171-.163-.03-2.2.1-3.4.132-3.619.148-9.925.4h-.021l-10.12-.417-3.417-.133-3.4-.132-2.2-.1-.19.03-.608.171-.287.065-1.568.381a10.744,10.744,0,0,1-1.084-.847c-.169-.136-.335-.288-.535-.453-.087-.082-.18-.181-.283-.263s-.2-.188-.3-.284c-.124-.118-.217-.215-.339-.318l-.015-.019a3.475,3.475,0,0,1-.314-.316c-.118-.116-.257-.236-.371-.363-.231-.253-.5-.52-.751-.819-.184-.182-.332-.369-.513-.569a1.173,1.173,0,0,1-.088-.133c-.215-.215-.415-.484-.632-.716a.071.071,0,0,1-.015-.034v-.017c-.266-.318-.539-.684-.832-1.036-.287-.383-.565-.784-.874-1.2A46.277,46.277,0,0,1,431.828,438.534Z" transform="translate(-431.828 -417.32)"/><path class="d" d="M465.71,444.9h-2.231l1-8.027c.4-.021.818-.037,1.229-.043Z" transform="translate(-431.828 -417.32)"/><g transform="translate(13.352 19.506)"><g transform="translate(20.513)"><path class="d" d="M465.693,472.03h23.335l-15.182-10.923h-.072s-4.843-4.342-7.843-4.342c-.078,0-.154.015-.238.015Z" transform="translate(-465.693 -436.826)"/><path class="d" d="M465.693,444.9h2.231l-1-8.027c-.406-.021-.823-.037-1.234-.043Z" transform="translate(-465.693 -436.826)"/></g><path class="d" d="M473.81,438.148c11.3,2.493,17.428,6.3,20.62,10.2A34.4,34.4,0,0,1,488.6,454.9Z" transform="translate(-445.18 -436.826)"/><path class="e" d="M445.285,452.04a12.273,12.273,0,0,1,2.933-7.788,18.432,18.432,0,0,1,6.189-4.819.571.571,0,0,1,.066-.033,25.124,25.124,0,0,1,3.116-1.252,26.994,26.994,0,0,1,6.892-1.285c.129,0,.268-.015.4-.015.273-.018.53-.018.817-.018h.021c.263,0,.55,0,.818.018.128,0,.267.015.395.015a26.245,26.245,0,0,1,10.007,2.537.509.509,0,0,0,.066.033,18.481,18.481,0,0,1,6.168,4.8,12.177,12.177,0,0,1,2.956,7.8c0,2.1.448,2.265-.6,4.1l-5.989.082-10.273.134v2.118a8.29,8.29,0,0,0-3.33-.716c-.068,0-.154.017-.217.017h-.021c-.076,0-.143-.017-.23-.017a8.172,8.172,0,0,0-3.32.716v-2.118l-10.276-.134-6-.082C444.816,454.3,445.285,454.142,445.285,452.04Z" transform="translate(-445.18 -436.826)"/><path class="d" d="M445.886,456.142l5.987.082,2.863-9.021a13.9,13.9,0,0,0,2.168.2c4.287.065,8.686-3.685,8.686-3.685s4.674,3.75,8.837,3.75a12.82,12.82,0,0,0,2.286-.21l2.838,8.964,5.993-.082c1.052-1.825.586-2.006.586-4.108a12.268,12.268,0,0,0-2.962-7.785c0-.006.012-.006.017-.012-.129-.158-.283-.306-.417-.457-.217-.245-.426-.489-.664-.723-.276-.284-.584-.546-.893-.817-.2-.171-.381-.35-.592-.513-.4-.315-.816-.608-1.254-.9-.143-.1-.282-.207-.442-.308a20.631,20.631,0,0,0-1.911-1.085.507.507,0,0,0-.063-.033,25.823,25.823,0,0,0-3.124-1.252,26.849,26.849,0,0,0-6.887-1.285c-.13,0-.257-.015-.4-.015-.263-.018-.55-.018-.817-.018h-.015c-.283,0-.55,0-.819.018-.132,0-.262.015-.4.015a26.875,26.875,0,0,0-6.883,1.285,25.182,25.182,0,0,0-3.124,1.252c-.033.017-.052.017-.063.033-.672.338-1.321.708-1.932,1.094-.118.078-.221.16-.345.238-.462.309-.919.626-1.34.965-.217.17-.407.354-.607.53-.293.256-.592.513-.865.784-.245.253-.477.516-.708.778-.129.147-.272.284-.39.43a.032.032,0,0,0,.015.016,12.225,12.225,0,0,0-2.95,7.766C445.3,454.136,444.831,454.317,445.886,456.142Z" transform="translate(-445.18 -436.826)"/><path class="e" d="M462.143,459.913v-1.437a8.172,8.172,0,0,1,3.32-.716c.087,0,.163.017.23.017.084,0,.17-.017.238-.017a8.29,8.29,0,0,1,3.33.716v1.437a4.364,4.364,0,0,1-.1.817,3.284,3.284,0,0,1-.185.535,3.469,3.469,0,0,1-3.172,2.1c-.03,0-.063-.015-.114-.015-.03,0-.067.015-.1.015a3.451,3.451,0,0,1-3.038-1.816,3.416,3.416,0,0,1-.312-.817A3.082,3.082,0,0,1,462.143,459.913Z" transform="translate(-445.18 -436.826)"/></g><path class="d" d="M462.143,459.913v-1.437a8.172,8.172,0,0,1,3.32-.716c.087,0,.163.017.23.017.084,0,.17-.017.238-.017a8.29,8.29,0,0,1,3.33.716v1.437a4.364,4.364,0,0,1-.1.817,3.284,3.284,0,0,1-.185.535,11.314,11.314,0,0,0-3.048-1.188c-.068,0-.154.017-.217.017h-.021c-.076,0-.143-.017-.23-.017a9.377,9.377,0,0,0-2.9,1.47,3.416,3.416,0,0,1-.312-.817A3.082,3.082,0,0,1,462.143,459.913Z" transform="translate(-431.828 -417.32)"/><path class="d" d="M436.958,448.345c3.211-3.9,9.339-7.7,20.626-10.2l-6.128,6.95-.369.414-4.79,5.437-1.012,1.148-2.468,2.8c-.169-.132-.338-.278-.525-.453-.1-.082-.2-.173-.293-.263s-.209-.188-.308-.282-.21-.211-.328-.324h-.011v-.015a4.154,4.154,0,0,1-.324-.319c-.118-.123-.251-.233-.365-.36-.24-.257-.494-.529-.754-.819-.172-.182-.329-.369-.51-.565a1.264,1.264,0,0,0-.107-.118c-.2-.229-.4-.472-.607-.739a.061.061,0,0,1-.01-.026h-.017v-.01c-.272-.333-.533-.685-.822-1.047C437.545,449.171,437.261,448.766,436.958,448.345Z" transform="translate(-431.828 -417.32)"/><path class="f" d="M435.507,460.012a14,14,0,0,1,.155-2.134,16.236,16.236,0,0,1,3-7.267v-.01a27.915,27.915,0,0,1,7.767-7.026c.211-.135.437-.278.668-.417a54.962,54.962,0,0,1,7.3-3.725,1.655,1.655,0,0,1,.175-.082.9.9,0,0,1,.143-.058c.17-.068.329-.136.5-.2.508-.215,1.028-.423,1.557-.632.272-.1.54-.2.813-.308l-6.573,12.706-2.258,4.333-.508,1-8.218,15.856A20.245,20.245,0,0,1,435.507,460.012Z" transform="translate(-431.828 -417.32)"/><path class="f" d="M473.81,438.148a61.2,61.2,0,0,1,10.494,5.01c.237.145.463.282.674.426,7.314,4.687,10.135,9.758,10.767,14.3a15.039,15.039,0,0,1,.151,2.13,20.289,20.289,0,0,1-4.52,12.018Z" transform="translate(-431.828 -417.32)"/><g transform="translate(47.307 24.907)"><path class="g" d="M488.58,451.88l-2.117-2.817.956,3.392Z" transform="translate(-479.135 -442.227)"/><path class="g" d="M481.251,445.044l-2.117-2.817.956,3.392Z" transform="translate(-479.135 -442.227)"/><path class="g" d="M492.437,468.7l-2.124-2.814.961,3.393Z" transform="translate(-479.135 -442.227)"/><path class="g" d="M489.635,462.782l-2.107-2.812.95,3.393Z" transform="translate(-479.135 -442.227)"/><path class="g" d="M486.844,456.871l-2.117-2.815.956,3.39Z" transform="translate(-479.135 -442.227)"/><path class="g" d="M484.048,450.957l-2.117-2.817.961,3.392Z" transform="translate(-479.135 -442.227)"/><path class="g" d="M484.3,443.158c.237.145.463.282.674.426l1.238,1.639-1.161.579Z" transform="translate(-479.135 -442.227)"/><path class="g" d="M494.173,463.707,492.06,460.9l.957,3.387Z" transform="translate(-479.135 -442.227)"/><path class="g" d="M491.376,457.8l-2.117-2.821.956,3.392Z" transform="translate(-479.135 -442.227)"/><path class="g" d="M494.831,456.672l.914,1.21a15.039,15.039,0,0,1,.151,2.13l-.1.052Z" transform="translate(-479.135 -442.227)"/><path class="g" d="M492.93,452.478l-2.118-2.818.956,3.392Z" transform="translate(-479.135 -442.227)"/></g><g transform="translate(3.679 24.907)"><path class="g" d="M442.821,451.88l2.119-2.817-.961,3.392Z" transform="translate(-435.507 -442.227)"/><path class="g" d="M450.156,445.044l2.113-2.817-.956,3.392Z" transform="translate(-435.507 -442.227)"/><path class="g" d="M438.972,468.7l2.113-2.814-.956,3.393Z" transform="translate(-435.507 -442.227)"/><path class="g" d="M441.763,462.782l2.119-2.812-.958,3.393Z" transform="translate(-435.507 -442.227)"/><path class="g" d="M444.559,456.871l2.117-2.815-.961,3.39Z" transform="translate(-435.507 -442.227)"/><path class="g" d="M447.356,450.957l2.117-2.817-.961,3.392Z" transform="translate(-435.507 -442.227)"/><path class="g" d="M447.093,443.158c-.231.145-.457.282-.668.426l-1.234,1.639,1.158.579Z" transform="translate(-435.507 -442.227)"/><path class="g" d="M437.23,463.707l2.111-2.812-.956,3.387Z" transform="translate(-435.507 -442.227)"/><path class="g" d="M440.021,457.8l2.122-2.821-.961,3.392Z" transform="translate(-435.507 -442.227)"/><path class="g" d="M435.507,460.012a14,14,0,0,1,.155-2.134l.91-1.206-.965,3.386Z" transform="translate(-435.507 -442.227)"/><path class="g" d="M438.47,452.478l2.117-2.818-.956,3.392Z" transform="translate(-435.507 -442.227)"/></g><g transform="translate(4.938 2.031)"><path class="h" d="M444.719,437.948a12.627,12.627,0,0,0,1.485-3.7l2.6-.78,16.889-5.043,10.542-3.13,3.522-1.069c.118.416.266.868.447,1.334,6.084,2.616,3.32,6.786,6.286,12.042a1.167,1.167,0,0,0,.127.2,13.207,13.207,0,0,1-4.492,5.273,13.42,13.42,0,0,1-7.7,2.435c-4.172,0-8.846-3.756-8.846-3.756s-4.4,3.756-8.686,3.685a14.142,14.142,0,0,1-7.622-2.354A13.22,13.22,0,0,1,444.719,437.948Z" transform="translate(-436.766 -419.351)"/><path class="h" d="M436.789,497.034c.756-14.037,28.925-35.371,28.925-35.371s28.937,21.491,28.937,35.572a17.533,17.533,0,0,1-17.567,17.459c-5.429,0-11.494-4.88-11.494-4.88s-5.739,4.88-11.326,4.8C444.574,514.492,436.275,506.715,436.789,497.034Z" transform="translate(-436.766 -419.351)"/><g transform="translate(4.807)"><path class="d" d="M476.226,425.287l3.531-1.055c.118.417.272.864.447,1.327,6.3,2.7,3.118,7.064,6.613,12.585.387-.434,7.259-10.94,8.441-18.532l.843-.261c1.8,7.921-11.252,21.781-11.252,21.781S480.568,427.3,476.226,425.287Z" transform="translate(-441.573 -419.351)"/><path class="d" d="M441.573,435.633l.906-.272.276-.082c.761,1.275,1.372,2.216,1.65,2.632a1.621,1.621,0,0,0,.175.237,12.786,12.786,0,0,0,1.624-3.9l2.6-.778a21.565,21.565,0,0,0-2.128,8.086A58.248,58.248,0,0,1,441.573,435.633Z" transform="translate(-441.573 -419.351)"/></g><path class="e" d="M461.52,495.182c3.28,0,3.157-1.426,3.948-3.012.787,1.586,1.162,3.012,4.409,3.012s7.792-9.208,7.792-16.954a22.685,22.685,0,0,0-4.2-13.75.578.578,0,0,1-.042-.055c0-.006,0-.006,0-.011h0a11.722,11.722,0,0,0-4.616-3.68,8.6,8.6,0,0,0-3.094-.642v-.005h-.017v.005a8.5,8.5,0,0,0-3.088.642,11.652,11.652,0,0,0-4.621,3.68h0c0,.005,0,.005-.01.011a.466.466,0,0,1-.036.055,22.707,22.707,0,0,0-4.209,13.75C453.729,485.974,457.568,494.843,461.52,495.182Z" transform="translate(-436.766 -419.351)"/><g transform="translate(18.087 45.852)"><g transform="translate(14.797 11.974)"><path class="g" d="M474.669,479.277a1.184,1.184,0,0,0,.082-.423c0-.927-1.143-1.677-2.55-1.677s-2.55.75-2.55,1.677a1.3,1.3,0,0,0,.078.423Z" transform="translate(-469.651 -477.177)"/></g><g transform="translate(1.799 11.974)"><path class="g" d="M456.735,479.277a1.1,1.1,0,0,1-.082-.423c0-.927,1.142-1.677,2.545-1.677s2.559.75,2.559,1.677a1.189,1.189,0,0,1-.088.423Z" transform="translate(-456.653 -477.177)"/></g><g transform="translate(7.18)"><path class="i" d="M462.368,466.709h6.666a4.222,4.222,0,0,0-3.324-1.506h-.017A4.221,4.221,0,0,0,462.368,466.709Z" transform="translate(-462.034 -465.203)"/><path class="h" d="M465.7,466.888c1.516,1.771,3.665-.472,3.665-.472h-7.335S464.183,468.659,465.7,466.888Z" transform="translate(-462.034 -465.203)"/></g><path class="d" d="M465.693,476.439v.063l.011-.033.006.033v-.063l1.917-6.121a2.965,2.965,0,0,0-1.841-.614,3.833,3.833,0,0,0-2.014.614Z" transform="translate(-454.854 -465.203)"/><path class="h" d="M462.034,482.934l-5.067-.276-.072,0-.036-.038-2-2.2,2.222,1.984-.109-.044,5.067-.251Z" transform="translate(-454.854 -465.203)"/><path class="h" d="M468.931,482.1l5.073.251-.107.044,2.219-1.984-2,2.2-.042.038-.066,0-5.073.276Z" transform="translate(-454.854 -465.203)"/></g></g><g transform="translate(4.938 2.031)"><path class="h" d="M444.719,437.948a12.627,12.627,0,0,0,1.485-3.7l2.6-.78,16.889-5.043,10.542-3.13,3.522-1.069c.118.416.266.868.447,1.334,6.084,2.616,3.32,6.786,6.286,12.042a1.167,1.167,0,0,0,.127.2,13.207,13.207,0,0,1-4.492,5.273,13.42,13.42,0,0,1-7.7,2.435c-4.172,0-8.846-3.756-8.846-3.756s-4.4,3.756-8.686,3.685a14.142,14.142,0,0,1-7.622-2.354A13.22,13.22,0,0,1,444.719,437.948Z" transform="translate(-436.766 -419.351)"/><path class="h" d="M436.789,497.034c.756-14.037,28.925-35.371,28.925-35.371s28.937,21.491,28.937,35.572a17.533,17.533,0,0,1-17.567,17.459c-5.429,0-11.494-4.88-11.494-4.88s-5.739,4.88-11.326,4.8C444.574,514.492,436.275,506.715,436.789,497.034Z" transform="translate(-436.766 -419.351)"/><g transform="translate(4.807)"><path class="d" d="M476.226,425.287l3.531-1.055c.118.417.272.864.447,1.327,6.3,2.7,3.118,7.064,6.613,12.585.387-.434,7.259-10.94,8.441-18.532l.843-.261c1.8,7.921-11.252,21.781-11.252,21.781S480.568,427.3,476.226,425.287Z" transform="translate(-441.573 -419.351)"/><path class="d" d="M441.573,435.633l.906-.272.276-.082c.761,1.275,1.372,2.216,1.65,2.632a1.621,1.621,0,0,0,.175.237,12.786,12.786,0,0,0,1.624-3.9l2.6-.778a21.565,21.565,0,0,0-2.128,8.086A58.248,58.248,0,0,1,441.573,435.633Z" transform="translate(-441.573 -419.351)"/></g><path class="e" d="M461.52,495.182c3.28,0,3.157-1.426,3.948-3.012.787,1.586,1.162,3.012,4.409,3.012s7.792-9.208,7.792-16.954a22.685,22.685,0,0,0-4.2-13.75.578.578,0,0,1-.042-.055c0-.006,0-.006,0-.011h0a11.722,11.722,0,0,0-4.616-3.68,8.6,8.6,0,0,0-3.094-.642v-.005h-.017v.005a8.5,8.5,0,0,0-3.088.642,11.652,11.652,0,0,0-4.621,3.68h0c0,.005,0,.005-.01.011a.466.466,0,0,1-.036.055,22.707,22.707,0,0,0-4.209,13.75C453.729,485.974,457.568,494.843,461.52,495.182Z" transform="translate(-436.766 -419.351)"/><g transform="translate(18.087 45.852)"><g transform="translate(14.797 11.974)"><path class="g" d="M474.669,479.277a1.184,1.184,0,0,0,.082-.423c0-.927-1.143-1.677-2.55-1.677s-2.55.75-2.55,1.677a1.3,1.3,0,0,0,.078.423Z" transform="translate(-469.651 -477.177)"/></g><g transform="translate(1.799 11.974)"><path class="g" d="M456.735,479.277a1.1,1.1,0,0,1-.082-.423c0-.927,1.142-1.677,2.545-1.677s2.559.75,2.559,1.677a1.189,1.189,0,0,1-.088.423Z" transform="translate(-456.653 -477.177)"/></g><g transform="translate(7.18)"><path class="i" d="M462.368,466.709h6.666a4.222,4.222,0,0,0-3.324-1.506h-.017A4.221,4.221,0,0,0,462.368,466.709Z" transform="translate(-462.034 -465.203)"/><path class="h" d="M465.7,466.888c1.516,1.771,3.665-.472,3.665-.472h-7.335S464.183,468.659,465.7,466.888Z" transform="translate(-462.034 -465.203)"/></g><path class="d" d="M465.693,476.439v.063l.011-.033.006.033v-.063l1.917-6.121a2.965,2.965,0,0,0-1.841-.614,3.833,3.833,0,0,0-2.014.614Z" transform="translate(-454.854 -465.203)"/><path class="h" d="M462.034,482.934l-5.067-.276-.072,0-.036-.038-2-2.2,2.222,1.984-.109-.044,5.067-.251Z" transform="translate(-454.854 -465.203)"/><path class="h" d="M468.931,482.1l5.073.251-.107.044,2.219-1.984-2,2.2-.042.038-.066,0-5.073.276Z" transform="translate(-454.854 -465.203)"/></g></g><path class="d" d="M462.189,495.071a5.047,5.047,0,0,1-.669.111A5.047,5.047,0,0,0,462.189,495.071Z" transform="translate(-431.828 -417.32)"/><path class="d" d="M464,494.253a.558.558,0,0,1-.088.051A.558.558,0,0,0,464,494.253Z" transform="translate(-431.828 -417.32)"/><path class="d" d="M463.431,494.6c-.035.025-.081.036-.121.061C463.35,494.633,463.4,494.622,463.431,494.6Z" transform="translate(-431.828 -417.32)"/><path class="d" d="M462.836,494.871c-.072.025-.149.04-.221.069C462.687,494.911,462.764,494.9,462.836,494.871Z" transform="translate(-431.828 -417.32)"/><g transform="translate(25.752 77.277)"><path class="d" d="M457.584,504.677c-.212-3.876,8.084-10.08,8.084-10.08s8.3,6.025,7.813,10.392a5.409,5.409,0,0,1-5.273,4.765,5.919,5.919,0,0,1-2.957-1.2,5.141,5.141,0,0,1-2.784,1.186C460.154,509.708,457.723,507.119,457.584,504.677Z" transform="translate(-457.58 -494.597)"/><path class="j" d="M458.189,504.342c.19-3.532,7.279-8.9,7.279-8.9s7.287,5.409,7.287,8.953a4.411,4.411,0,0,1-4.425,4.395,5.76,5.76,0,0,1-2.894-1.229,5.2,5.2,0,0,1-2.851,1.208A4.348,4.348,0,0,1,458.189,504.342Z" transform="translate(-457.58 -494.597)"/><path class="d" d="M465.478,497.989c2.73,2.247,5.278,5.083,5.278,6.4a2.413,2.413,0,0,1-2.426,2.391,3.9,3.9,0,0,1-1.639-.78l-1.289-1.042-1.26,1.076a3.374,3.374,0,0,1-1.521.729,2.6,2.6,0,0,1-1.866-.811,2.03,2.03,0,0,1-.571-1.508C460.262,503.1,462.8,500.239,465.478,497.989Z" transform="translate(-457.58 -494.597)"/></g><path class="d" d="M436.958,448.355c.309.415.587.816.874,1.2.1.126.19.24.293.363.173.233.36.467.533.684v.01a16.236,16.236,0,0,0-3,7.267,14,14,0,0,0-.155,2.134,20.245,20.245,0,0,0,4.52,12.027h13.614c-7.745,7.371-16.437,17.283-16.852,24.995-.514,9.681,7.785,17.458,17.475,17.581,5.587.079,11.326-4.8,11.326-4.8a.179.179,0,0,1,.036.031v-81.4l-16.822,5.02-2.092.624-.508.156h0c-.015.044-.03.091-.042.137a12.448,12.448,0,0,1-1.582,3.764.119.119,0,0,1-.026-.031c-.025-.032-.073-.091-.149-.206-.278-.416-.889-1.357-1.65-2.632l0,.006h-.012l-.26.076-.381.118-.535.15-9.735,2.9A46.277,46.277,0,0,0,436.958,448.355Z" transform="translate(-431.828 -417.32)"/></g></g></g><g transform="translate(398.326 351.667)"><path class="h" d="M427.059,358.164c-.262,4.993-10.29,12.585-10.29,12.585s-10.3-7.645-10.3-12.657a6.241,6.241,0,0,1,6.255-6.208c1.923,0,4.085,1.73,4.085,1.73a7.4,7.4,0,0,1,4.036-1.705A6.149,6.149,0,0,1,427.059,358.164Z" transform="translate(-406.474 -351.884)"/><path class="d" d="M420.85,351.909a7.4,7.4,0,0,0-4.036,1.705.443.443,0,0,1-.07-.047v17.166a.179.179,0,0,1,.025.016s10.028-7.592,10.29-12.585A6.149,6.149,0,0,0,420.85,351.909Z" transform="translate(-406.474 -351.884)"/></g><g transform="translate(522.326 474.352)"><path class="h" d="M516.546,487.874c.268-5,10.291-12.587,10.291-12.587s10.3,7.647,10.3,12.655a6.244,6.244,0,0,1-6.253,6.213c-1.934,0-4.087-1.738-4.087-1.738a7.378,7.378,0,0,1-4.034,1.708A6.148,6.148,0,0,1,516.546,487.874Z" transform="translate(-516.538 -475.287)"/><path class="d" d="M522.761,494.125a7.378,7.378,0,0,0,4.034-1.708s.025.022.067.054V475.306a.093.093,0,0,1-.025-.019s-10.023,7.591-10.291,12.587A6.148,6.148,0,0,0,522.761,494.125Z" transform="translate(-516.538 -475.287)"/></g></g></svg>