<svg xmlns="http://www.w3.org/2000/svg" width="154" height="215" viewBox="0 0 154 215"><defs><style>.a{fill:#c9c9c9;}.b{fill:#fff;}.c{fill:#333;}.d{fill:#616161;opacity:0.2;}.e,.f{stroke:none;}.f{fill:#c4c4c4;}</style></defs><g transform="translate(-772.544 -57.423)"><g transform="translate(772.544 57.423)"><path class="a" d="M789.559,272.423a16.393,16.393,0,0,1-16.547-16.166l-.468-182.569a16.365,16.365,0,0,1,16.524-16.265l120.855.218a16.611,16.611,0,0,1,16.606,16.3V256.109a16.5,16.5,0,0,1-16.545,16.167Z" transform="translate(-772.544 -57.423)"/><g class="b" transform="translate(-772.544 -57.423)"><path class="e" d="M 910.2540283203125 271.4679260253906 L 791.155029296875 271.4679260253906 C 782.4522705078125 271.4679260253906 775.3720703125 264.42333984375 775.3720703125 255.764404296875 L 775.3720703125 73.63253784179688 C 775.3720703125 64.97359466552734 782.4522705078125 57.92901229858398 791.155029296875 57.92901229858398 L 910.2540283203125 57.92901229858398 C 918.9606323242188 57.92901229858398 926.0440063476563 64.97359466552734 926.0440063476563 73.63253784179688 L 926.0440063476563 255.764404296875 C 926.0440063476563 264.42333984375 918.9606323242188 271.4679260253906 910.2540283203125 271.4679260253906 Z"/><path class="f" d="M 910.2540283203125 270.9679260253906 C 918.6849365234375 270.9679260253906 925.5440063476563 264.1476440429688 925.5440063476563 255.764404296875 L 925.5440063476563 73.63253784179688 C 925.5440063476563 65.24929046630859 918.6849365234375 58.42901229858398 910.2540283203125 58.42901229858398 L 791.155029296875 58.42901229858398 C 782.7279663085938 58.42901229858398 775.8720703125 65.24929046630859 775.8720703125 73.63253784179688 L 775.8720703125 255.764404296875 C 775.8720703125 264.1476440429688 782.7279663085938 270.9679260253906 791.155029296875 270.9679260253906 L 910.2540283203125 270.9679260253906 M 910.2540283203125 271.9679260253906 L 791.155029296875 271.9679260253906 C 782.1835327148438 271.9679260253906 774.8720703125 264.6976928710938 774.8720703125 255.764404296875 L 774.8720703125 73.63253784179688 C 774.8720703125 64.70028686523438 782.1835327148438 57.42901229858398 791.155029296875 57.42901229858398 L 910.2540283203125 57.42901229858398 C 919.2425537109375 57.42901229858398 926.5440063476563 64.70028686523438 926.5440063476563 73.63253784179688 L 926.5440063476563 255.764404296875 C 926.5440063476563 264.6976928710938 919.2425537109375 271.9679260253906 910.2540283203125 271.9679260253906 Z"/></g><g transform="translate(134.945 185.336)"><path class="c" d="M900.4,241.995h4.991v8.2h3.046a5.083,5.083,0,0,0,.582-1.592,20.016,20.016,0,0,1,1.866-5.081,4.5,4.5,0,0,1,1.058-1.313,2.464,2.464,0,0,1,1.577-.606,2.352,2.352,0,0,1,1.206.395,1.392,1.392,0,0,1,.826,1.172.721.721,0,0,1-.243.55.8.8,0,0,1-.529.223c-.453,0-.693-.253-.724-.748s-.236-.748-.59-.748a1.733,1.733,0,0,0-1.732,1.283,7.571,7.571,0,0,0-.3,2.461c0,.644.031,1.371.1,2.205s.153,1.7.229,2.621a6.857,6.857,0,0,1-.628,2.928,9.106,9.106,0,0,1-1.619,2.267,28.328,28.328,0,0,1-2.086,1.947l.16.257h4.405a2.929,2.929,0,0,0,.765-.091c.461-.141.9-.284,1.336-.425v.265c-.179.306-.323.535-.415.676-.3.468-.476.706-.544.706a1.147,1.147,0,0,1-.346-.147,1.207,1.207,0,0,0-.537-.14H900.4Zm5.147,9.483v6.606c.449-.122.9-.6,1.363-1.43a10.309,10.309,0,0,0,.583-1.286,12.878,12.878,0,0,0,.422-1.409c.267-1.121.407-1.7.415-1.733v-.748Z" transform="translate(-900.4 -241.6)"/></g><g transform="translate(14.809 13.265)"><path class="c" d="M802.515,88.241h-4.99v-8.2h-3.047a5.1,5.1,0,0,0-.585,1.591,19.949,19.949,0,0,1-1.877,5.085,4.188,4.188,0,0,1-1.051,1.31,2.457,2.457,0,0,1-1.58.611,2.368,2.368,0,0,1-1.2-.4,1.389,1.389,0,0,1-.831-1.175.713.713,0,0,1,.253-.546.752.752,0,0,1,.525-.225c.457,0,.7.252.729.752s.223.748.579.748a1.737,1.737,0,0,0,1.74-1.287,7.615,7.615,0,0,0,.3-2.457c0-.644-.04-1.374-.112-2.2s-.141-1.7-.223-2.622a6.685,6.685,0,0,1,.638-2.927,8.881,8.881,0,0,1,1.61-2.273,28.594,28.594,0,0,1,2.1-1.946l-.175-.259h-4.4a2.84,2.84,0,0,0-.773.1c-.453.143-.9.284-1.334.419v-.257c.194-.312.333-.542.424-.683.3-.471.465-.708.537-.708a1.2,1.2,0,0,1,.344.146,1.211,1.211,0,0,0,.549.143h11.85Zm-5.163-9.486v-6.6c-.444.127-.9.6-1.346,1.429a7.893,7.893,0,0,0-.586,1.289,9.461,9.461,0,0,0-.425,1.405c-.264,1.129-.407,1.7-.426,1.732v.75Z" transform="translate(-795.353 -70.688)"/></g></g><g transform="translate(814.398 124.827)"><path class="c" d="M866.459,147.334a19.338,19.338,0,0,0,.46-4.226,18.878,18.878,0,0,0-37.756.006,18.208,18.208,0,0,0,1.135,6.373A17.833,17.833,0,0,0,831.7,185.1c2.624.021,11.953-2.894,13.95-4.068l-12.1,20.722,29.463-.024-12.1-20.71c2.41,1.47,12.714,4.065,15.212,4.07a18.879,18.879,0,0,0,.324-37.756Z" transform="translate(-813.848 -124.259)"/><path class="d" d="M866.459,147.334a19.338,19.338,0,0,0,.46-4.226,18.836,18.836,0,0,0-18.88-18.849c-.019,0-.049.006-.08.006v77.48l15.061-.015-12.1-20.71c2.41,1.47,12.714,4.065,15.212,4.07a18.879,18.879,0,0,0,.324-37.756Z" transform="translate(-813.848 -124.259)"/></g><g transform="translate(784.625 95.781)"><path class="c" d="M798.285,98.048a2.314,2.314,0,0,0,.049-.457,2.034,2.034,0,0,0-4.068,0,2.162,2.162,0,0,0,.122.689,1.917,1.917,0,0,0,.162,3.827,5.533,5.533,0,0,0,1.5-.442l-1.306,2.231h3.169l-1.309-2.231a6.108,6.108,0,0,0,1.641.442,2.03,2.03,0,0,0,.042-4.059Z" transform="translate(-792.625 -95.566)"/><path class="d" d="M798.285,98.048a2.314,2.314,0,0,0,.049-.457,2.025,2.025,0,0,0-2.033-2.025h-.011v8.33h1.621l-1.309-2.231a6.108,6.108,0,0,0,1.641.442,2.03,2.03,0,0,0,.042-4.059Z" transform="translate(-792.625 -95.566)"/></g><g transform="translate(909.849 227.715)"><path class="c" d="M908.414,232.606a2.308,2.308,0,0,1,.053.453,2.029,2.029,0,0,1-4.058,0,1.814,1.814,0,0,1,.118-.679,1.919,1.919,0,0,1,.152-3.832,5.952,5.952,0,0,1,1.5.434l-1.29-2.222h3.167l-1.309,2.227a6.161,6.161,0,0,1,1.641-.439,2.029,2.029,0,0,1,.03,4.058Z" transform="translate(-902.76 -226.76)"/><path class="d" d="M908.414,232.606a2.308,2.308,0,0,1,.053.453,2.028,2.028,0,0,1-2.033,2.028h-.015V226.76h1.633l-1.309,2.227a6.161,6.161,0,0,1,1.641-.439,2.029,2.029,0,0,1,.03,4.058Z" transform="translate(-902.76 -226.76)"/></g></g></svg>